<svg xmlns="http://www.w3.org/2000/svg" id="Layer_1" data-name="Layer 1" viewBox="0 0 100 100"><defs><style>.cls-3{fill:#383130}.cls-8{fill:#4c4341}.cls-9{fill:#47403e}.cls-10{fill:#554e4c}.cls-13{fill:#2d2826}.cls-14{fill:#302a29}.cls-20{fill:#383433}.cls-24{fill:#7d7572}.cls-25{fill:#585250}.cls-26{fill:#918b88}.cls-30{fill:#544d4c}.cls-36{fill:#7d7573}.cls-38{fill:#3b3532}.cls-45{fill:#675f5d}.cls-50{fill:#8d8883}.cls-52{fill:#4f4644}.cls-54{fill:#2b2725}.cls-55{fill:#5e5856}.cls-56{fill:#47413f}.cls-58{fill:#4a4340}.cls-62{fill:#66605d}.cls-64{fill:#5f5856}.cls-69{fill:#463e3b}.cls-71{fill:#312c2a}.cls-77{fill:#484341}.cls-78{fill:#5c5554}.cls-80{fill:#3f3938}.cls-81{fill:#3e3634}.cls-83{fill:#4b4442}.cls-85{fill:#35302e}.cls-88{fill:#2c2928}.cls-95{fill:#8c8482}.cls-96{fill:#544b49}.cls-98{fill:#3c3937}.cls-99{fill:#817976}.cls-101{fill:#3d3836}.cls-110{fill:#67615f}.cls-113{fill:#373231}.cls-120{fill:#756d6a}.cls-122{fill:#3d3938}.cls-123{fill:#67605e}.cls-125{fill:#bebbb9}.cls-127{fill:#3c3737}.cls-134{fill:#c2beba}.cls-139{fill:#877f7d}.cls-140{fill:#393535}.cls-148{fill:#393434}.cls-150{fill:#4f4946}.cls-151{fill:#6c6462}.cls-152{fill:#3c3533}.cls-156{fill:#38302e}.cls-158{fill:#514c4a}.cls-163{fill:#938e8b}.cls-168{fill:#736e6a}.cls-170{fill:#3e3735}.cls-171{fill:#484241}</style></defs><g id="Layer_1-2" data-name="Layer 1-2"><path d="M63.24 32.95c-.03 3.15-4.37-.07-4.59-1.95-.43-.19-.41-.38.04-.56z" class="cls-148"/><path d="M58.16 25.39v-2.54c.78.51.78 2.02 0 2.54m-.52 2.03c.02-.43.06-.84.52-1.01 0 .42-.09.86-.52 1.01m.52-5.59c-.23.03-.51.28-.51.52-.83.68-1.13.38-.5-.51.38-.18.54-.6.54-1.03z" style="fill:#393534"/><path d="M56.64 1.04h-.51V.55c.19.02.39.37.51.49" class="cls-96"/><path d="M71.79 38.13c-.63-.05-.48-.72.04-.61.04.2-.04.42-.04.61" style="fill:#141010"/><path d="m71.88 48.84.08 37.34c2.67 4.12 1.85 10.1-2.58 11.63-.46.05-.59-.11-.38-.49-.45-.07-.45-.21-.02-.42l.49-1.13c.56.51 1.21.27 1.96-.72-.73-.62-.63-1.63.3-3.05l-.22-1.96c-.6-1.09-.6-1.97-.02-2.65-.59-.12-.96-.65-.53-1.13-1.19.27-.97-3.05-.15-3.45-.37-1.28-.73-2.6-.8-3.95-.18-3.16-.45-13.5.31-16.09.04-.15.23-.25.46-.34-.54-3.55-.71-7.13-.5-10.75l-.45.12c-.25 3.05-.51 6.08-.78 9.08l-.71.03c-1.03-.39-1.36-1.53-.98-3.42.22 2.4-.3 3.38-1.57 2.94-.58-.54-.58-1.57 0-3.08-.83.06-.69-.71 0-1.01.42-2.36.4-4.78.03-7.14-.45-.05-.44-.18 0-.4-.31-.13-.22-.35.02-.59-.97-.05-.95-.42.02-.68 1.07-.88 3.85-.71 5.46-.6.62-.71.82-.07.59 1.91Z" class="cls-88"/><path d="M32.75 98.4c1.84.77 3.58.28 5.4-.39l.29.65c2.42-.06 4.76.04 7.04.28 6.65.14 13.25.31 19.78.51.05.16-.18.55-.55.55l-31.9-.23c-2.75-.02-5.9-1.96-7.62-3.8-.51-.84-.19-1.07.62-.47l.71-.31 4.44 2.36c.53-.89 1.13-.61 1.8.86Z" style="fill:#363331"/><path d="m71.88 48.84-.66-1.74-5.4.43a24.8 24.8 0 0 0-6.66.18q-.21.66-.51 0c-1.33-.02-2.18-.34-2.56-.96 1.04-.68 2.53-.87 4.46-.56l2.39-.57c.26.59.87.92 1.83.98.06-1.35.52-1.29.91 0 1.53 0 3.19.11 4.67-.33.07-.24.21-.25.41-.08.33.36.73.37 1.21.03-.35-1-.3-2.22.14-3.66-.29-1.34-.2-2.33.28-2.96l-.56-.51c-.49-.06-.49-.23-.06-.5-.27-.13-.26-.28.01-.46-.26-.22-.24-.42.04-.61 2.35 2.12 1.79 7.77 1.15 8.83-.51.86-1.11 1.61-1.11 2.49Z" style="fill:#211d1b"/><path d="m57.68 11.7-.05.98-.44.63-1.04 1.35-.64.74c-.71-.32-1.02-.44-1.37.43-2.63.21-5.19.02-7.66-.58q-.225.57-.51 0c-.76-.14-1.43-.33-2-.56-.59.07-1.29.07-2.09.01.49.15.5.34.03.55-.15.24-.32.24-.5 0-.34-.15-.33-.32 0-.51-2.56-2.37 1.61-2.66 3.15-1.07.12-.44.25-.42.41.03 1 .4 2.08.45 3.07.02.23-1.34.69-1.26 1.02.05 1.63-1.09 3.71-1.44 6.25-1.06q.6-1.41 1.77-1.02c.23-.5.4-.5.58.03Z" style="fill:#1e1b19"/><path d="M25.69 87.28c-.99.92-.92-.07-.53-1.12V54.29c.16-.44.34-.43.54 0 .33 10.66.41 21.45.25 32.37.64.23.5.43-.25.61Z" style="fill:#1a1514"/><path d="M44.46 9.65c.98-.1.98.3 0 .59-.41 1.53-.89 1.3-1.54-.03-.25.11-.09.61.5 1.51.65.36 1.37 1.21 1.16 1.95l-3.53.07c-.02.54.19.77.38 1-.17.33-.34.32-.53-.02-.69-.73-1.4-1.51-1.54-2.32-.21-1.21.02-2.25.97-2.83.06-.34.14-.6.24-.61.74-.09 3.61.11 3.9.69" class="cls-3"/><path d="M34.84 33.03c.84 1.68-1.87 2.4-3.15 1.94-.16.99-1.36 1.76-2.13 1.03-4.55 2.37-4.76 5.24-4.2 9.87l-.68.3c.44.15.43.32 0 .51-.15.25-.32.25-.5 0v-.5c-.28-.36-.41-.77-.02-1.03-.16-1.14-.32-2.32-.49-3.53V40.6l.47-1.02c.7-1.51 1.71-2.93 3.41-3.72l7.28-3.35c.45.14.45.32.02.54Z" style="fill:#312d2c"/><path d="M40.56 19.06c.8.26.67.59-.16.75l-.47.53.69.71-.62 5.42c1.31 2.33.95 6.62-2.61 5.47l-.53.04v-.51l.59-.56c.11.02.26.04.35 0l.58-.44c1.5-1.18.87-2.71.31-4.41-.99-3.01.56-6.21 1.67-8.79.15-.36.34-.36.55-.01.9-.15.79.45-.35 1.79Z" style="fill:#2f2a28"/><path d="m47 0 4.07.42-.02.62q-.435 1.02-2.55 0c-.98 1.76-3.76 1.08-4.93.01l-.11.67c-3.03.1-3.47 2.44-2.06 4.92 1.99.49.93 2.39-1 1.54-.53.31-.72.04-.5-.55q-.225-2.685-.45-5.55C39.46.73 41.14.53 42.31.42z" style="fill:#454240"/><path d="M57.65 98.92c1.31-.27 2.65-.38 4.05-.32 1.38-.79 2.72-1.39 3.58.17.9-.16 1.17 0 .5.68h-.52l-19.24-.02c-.36 0-.57-.31-.54-.5q5.775-.285 11.85-.48l.33.47Z" style="fill:#25211f"/><path d="M28.24 46.69c-.14-1.25.53-1.25 2.02 0 1.29.06 1.97.4 2.03 1.01-.16.33-.34.32-.53-.01-.58 1.44-3.59 1.47-3.97-.09l-1.69-.03c-.02 2.31-.15 4.55-.4 6.72h-.53c0-2.38.36-4.88-.43-7.09-.24-.12-.25-.29-.07-.51v-.51c.17-.43.33-.42.5.03q1.38.39 3.06.48Z" style="fill:#201c1c"/><path d="M25.69 87.28c1.21.76.91 1.3-.49.95-.06.4-.23.65-.5.75.82.75 1.31 3.95.02 4.33l.46 1.15c.96-.65 1.43.27.62 1.02l-.62.47c-2.37-2.53-1.7-7.08-.02-9.8 0 .51.03.89.53 1.12" style="fill:#2a2826"/><path d="m57.19 8.77-.49.84c-.24.41-.62.57-1.09.57-2.19-.22-4.4-.43-6.63-.62.25-.49.77-.79 1.56-.91l.59-.99 5.56.44c.16-.42.3-.39.41.07.27-.1.3.1.08.59ZM40.4 8.19l2.79-.59.74.98c-.05-1.29.47-1.28 1.55.03q1.695.3 1.02 1.05c-.26.47-1.61.43-2.04-.01l-4.13-.08c-.42-.56-.93-1.19-.92-1.94.14-.44.3-.44.49 0l.5.55Z" style="fill:#211c1a"/><path d="m57.65 8.15-.54.03-.41-.07c-1.26-1.04-.8-4.75-.06-6.04-.38-.61-.13-.85.51-.52.21.2.52.46.52.99l-.02 5.62Z" style="fill:#2b2827"/><path d="M58.15 22.86c.4.78.4 1.74 0 2.54v1.01l-.52 1.01c-.03.89.07 1.76.51 2.54.22.4.21.74 0 1.02-.74.35-1.91-.66-1.5-1.51-.59-.88-.06-5.44.32-6.72.05-.18.33-.29.68-.39-.34-.52-.08-.75.51-.52z" class="cls-148"/><path d="M57.69 20.81c.21.67.19 1.13-.54 1.03-1.02-.77-2.15-3.81-1.62-5.02.1-.56.3-.75.61-.57.9 1.3.92 3.19 1.54 4.55Z" style="fill:#312e2c"/><path d="M54.09.53c-.54.19-1.21.36-2.02.52-.47.57-.83.77-1.01 0C50.1-.06 47.95 1.13 47 0h6.12c.54 0 .92.19.97.52Z" style="fill:#433f3e"/><path d="M69.01 97.32c.16.14.3.3.38.49l-.48.16-.59.49-1.47.48-.59.5c-.14.04-.33.01-.48 0l-.5-.68c-.24-.87.49-1.31 2.21-1.33-.04-.45.08-.43.31 0 .37-.27.85-.43 1.21-.12Z" style="fill:#2b2825"/><path d="M39.9 7.64h-.49l.05-5.55c.28.03.47.41.47.95l-.02 4.61Z" style="fill:#1a1615"/><path d="m54.09.53 2.03.02v.5c.45.14.44.31 0 .51-.06.73-.17.87-.37.27-1.13.06-1.86-.2-2.17-.77.06.79-1.31.74-1.52 0 .35-.72 1.32-.52 2.02-.52Z" style="fill:#332f2e"/><path d="M24.16 45.15c-.12.45-.29.45-.5.02v-3.55c.82.93.48 2.36.5 3.53" style="fill:#1f1a19"/><path d="m57.15 1.54-.51.52c-.62.62-.71.34-.51-.51v-.51c.15-.23.33-.23.51 0z" style="fill:#211d1c"/><path d="m56.15 16.26-.61.57c-.44-.04-.4-.18.02-.42-.51-.99-.54-1.59.59-1.16z" style="fill:#1d1917"/><path d="M41.42 16.77c.66.71.38.97-.51.51h-.55c.16-.38.27-.73.55-1.01q.345-.42.51.51" class="cls-20"/><path d="m58.68 30.44-.04.56c-.16.44-.33.42-.5-.02-.27-.3-.31-.75 0-1.02.16.16.33.38.53.48" style="fill:#120e0d"/><path d="m58.15 30.98.5.02c1.57 1.72 4.73 3.05 4.59 1.95l1.07.5c-.24.04-.62-.14-1.1.31l4.16 2.06c-1.21.81-1.98.39-3.19.16.37.82.86.73 1.38 1.02.32.18.22.66-.13.99.07.48-.26.33-.67.05-.45.44-1.75-.02-2.06-.57-.8-.28-1.14-.6-1.01-.96-.94-.55-1.95-.96-3.01-1.21.25-.8-.25-1.03-1-1.01-.63.23-.84-.09-.45-.65-.52-.39-.71-.75-.57-1.07l.33-.61c-.77-.26-1.05-.69-.84-1.28-.6-.31-.63-.47.01-.68-.02-.77.14-.95.5-.53.45.54.86 1.17 1.5 1.51Z" class="cls-122"/><path d="m23.66 40.6.48-1.02c.08.44-.08.85-.48 1.02m.51 5.59c-.44-.16-.51-.59-.51-1.01l.5-.02.02 1.03Z" class="cls-171"/><path d="M41.92 15.25c.79.77.47 1.1-.5.5q-.21.66-.51 0v-.51c.15-.34.32-.33.51 0h.5Z" class="cls-3"/><path d="m41.42 16.77-.51-.51v-.51h.51c1.35.16 1.29.63 0 1.01" style="fill:#1c1714"/><path d="m57.19 8.77-.08-.59.54-.03-.46.63Z" class="cls-96"/><path d="M57.19 13.31c.1-.24.26-.45.44-.63-.01.25-.31.46-.44.63" class="cls-83"/><path d="M41.42 15.25h-.51l-.01-.53.52.02zm14.74-.59v.58c-.47.17-.65.68-.6 1.16-.6.45-.81-.31-.93-.97-.06-.31 2.07 5.62 1.1 5.8.3 1.87.31 3.82-.06 5.7 1.05-.17.74 1.68-.06 2.01-1.41.43-1.92-.59-1.54-3.06l-.76-.87c.54-4.03-1.01-7.73-5.5-7.93l-.4-1.11-.94-.73c1.13-.99 2.77-.11 4.3-.19l5.36-.4Z" class="cls-20"/><path d="M24.74 47.21c-.3-.07-.56-.27-.56-.51h.5c0 .16.01.36.07.51" class="cls-171"/><path d="M35.84 32.49h-.51c.08-.24.27-.42.51-.51zm1.01-.51h-.51l.51-.51z" class="cls-9"/><path d="m36.85 31.48.59-.56z" class="cls-98"/><path d="M68.32 98.46c.13-.22.34-.41.59-.49z" class="cls-88"/><path d="M66.26 99.45c.16-.21.36-.38.59-.5-.12.23-.34.43-.59.5" class="cls-38"/><path d="m37.8 30.92.58-.44c-.15.12-.34.35-.58.44" class="cls-98"/><path d="M68.33 60.91c.89.01.73.73-.02 1.05-.4 4.02-.58 8.06-.55 12.11-.03 2.82-.28 5.72-.75 8.71l.56 1.25c1.39-.39 1.98.06 1.75 1.35-.52.77-.52 1.26.02 1.46.25-1.07.58-1.17 1.03-.14.43-.32.69.3.48.77.34 1.31-.11 1.42-.92.36l-.64.48c-.09.47-.24.46-.44.01l-1.04.52c-.04.45-.18.44-.4.01l-.59.52c.03.48-.11.46-.4.02-.43.2-.88.38-1.14-.06-.15.33-.32.32-.51 0-1.43-.25-1.2-.39 0-1.01.33-.19.58-.4.74-.63l-1-.59c.43-5.32.54-10.67.13-16.11l.67-.32c-.77-1.58-1.09-5.34-.68-7.18.03-.11.26-.18.55-.23q-.135-1.95.6-2.79c.78-.34.43-1.34.48-2.01l.61-8.13c.05-.72.59-1.23 1.14-1.06 1.22.4.4 3.59.38 5.6l-.05 6.07Z" style="fill:#252222"/><path d="m69.82 59.88-.02 1.03-.55 3.45c1.06.25 1.03 1.77 0 2.12-.34 2.36-.36 4.76.1 7.11l.68.36c-.2 3.01.07 5.97.78 8.86l.15 3.45c.11.77.03.93-.61.41l-1.03.14c-.65 0-.71-.59-.16-1.78-1.34-.64-2.07-1.49-2.19-2.53.41-3.33.85-6.64 1.31-9.95l-.52-.23q.06-5.22.54-10.38c0-.3-.1-.82.02-1.05.65-1.19.19-3.58 1.49-9.11.25.07.44.15.44.24.14 2.31.16 5.21.03 7.51 0 .12-.21.23-.47.33Z" style="fill:#3a3431"/><path d="m70.78 62.43.03 20.38c-.6-1.02-1.56-2.8-1.6-3.95.3-1.95.16-3.51.14-5.28-.46-2.32-.44-4.76-.1-7.11-.01-.81-.21-1.27 0-2.12l.55-3.45.02-1.03q.885.345.96 2.55Z" class="cls-10"/><path d="M71.5 87.39c1.55 2.19 1.06 5.31-.06 7.65-2.01 2.04-2.54 1.67-1.6-1.13-.99.09-.98-.32 0-.62.84-1.09 1.03-3.01-.49-3.51-.03 1.45-1.19 1.39-1.55 0l-.56.52c-.12.44-.26.42-.44-.02l-.51 2.04c-1.64.43-1.45-1.46-.52-2.53.02-.26.23-.4.64-.43.12 0 .29.02.4-.02l.59-.52h.4l1.04-.54c.13.02.31.02.44-.01l.64-.48.92-.36c-.17-.71.05-.73.66-.05Z" style="fill:#4f4744"/><path d="m70.78 62.43-.96-2.55V51.8l.85-3.62.1 14.25Z" class="cls-150"/><path d="M53.59 47.71q.21-.66.51 0c2.94.01 4.34 1.13 4.19 3.34 4.01 2.71 4.1 1.91 4.08-2.71l1.04-.65c.63-.31 1.43-.37 2.41-.16l-.02.68-.02.59v.4c.26 2 .54 4.21-.03 6.12-.16.44-.36.44-.57 0-1.16-.24-1.07-1.25-.2-1.85-.16-2.09-.55-2.85-1.16-2.28.57 1.8 1.32 5.14-.96 5.68.04 1.03-.3 1.17-1.01.42-2.33-.56-5.18-1.83-6.08-4.04 0-2.37-1.46-3.96-4.4-4.77l.09-.74c.13-1 1.34-.47 2.1-.03Z" style="fill:#4b4443"/><path d="M71.44 95.05c-.46.97-1.34 1.64-2.45 1.85l-1.19.55h-.31c-.83.44-1.27.67-1.36-.36.04-1.25 2.48-3.6 3.71-3.17.32.1.53.46.45.69-.1.31-.42.65-.42 1.35l1.56-.91Z" style="fill:#433c39"/><path d="M65.76 56.33c-.59-.02-.46-.7 0-1.01l.03-6.12c.75 1.84.76 5.46-.03 7.14Z" class="cls-101"/><path d="m68.99 96.9.02.42-1.21.12c.2-.55.76-.46 1.19-.55" class="cls-38"/><path d="M65.79 48.8c-.78.09-.61-.73.02-.59.24.16.21.43-.02.59" class="cls-101"/><path d="m71.5 87.39-.66.05-.48-.77c.2-.03.42-.29.61-.41.02.33.34.85.53 1.13" class="cls-85"/><path d="m39.41 96.81.37.85c1.07-.16 1.83.09 2.26.73 1.19-.42 2.44-.73 3.76-.9 3.64.7 7.26.83 10.84.42.1-.59.71-.65 1.83-.19l2.75-.24c.69-1.64 2-1.07 1.06.49v.53c-1.56.06-3.1.2-4.63.43l-12.18.02-11.2.11c-.74 0-1.15-.48-1.52-.65.25-1.11 1.27-1.24 3.05-.39l1-.12c-.45-1.84 1.7-2.72 2.61-1.08Z" class="cls-56"/><path d="M25.68 89.33c1.11.4 1.71 1.59 1.79 3.58.72 1.99 2.77 3.36 4.41 1.88.95-.19 2.43 3.06.88 3.61-2.36-.69-4.96-1.31-6.95-2.91l-.62-1.02-.46-1.15-.02-4.33c.13-.28.29-.27.48-.01.43-.27.6-.15.5.36Z" style="fill:#48423f"/><path d="M71.78 38.59c0 .15 0 .36.06.5l.56.51c.75 2.06.9 4.8-.42 6.62-.4.28-.9.46-1.21-.03-.14 0-.31.05-.41.08l.55-2.04c.21-1.4.19-2.83-.03-4.23.02-.13.03-.31-.02-.43l-.5-.52-.52-1.02c.67.06 1.34.25 1.94.56" style="fill:#504846"/><path d="M70.91 44.23c.14-.94-.27-2.18-.16-3.09l.13-1.14c.81 1.26.38 2.87.03 4.23" class="cls-122"/><path d="M65.77 38.03v.55h-.52c-.5.17-.7-.05-.5-.53.15.06.51-.02.67-.05.09-.02.24 0 .35.03" class="cls-158"/><path d="m64.3 33.45 5.35 2.52c2.59 1.78-.22 2.44-1.02.44l-.34.4c.62.25 1.46.6 1.55 1.23.9.34 1.07.68.52 1.02l.5.52c.48.04.47.19.02.43.22.54.17.92-.13 1.14-.63.33-1.43.31-2.39-.05-.63 1.44-.56 2.41.23 2.94 1.01-.33 1.79-.26 2.32.2 1.36.46.61 1.83-.55 2.04-.76.92-3.75 1.07-4.67.33-.78-.92-.84-2.29-.17-4.09-.58-.88-.29-1.72.86-2.52.59-.71.89-1.32.91-1.85a3.5 3.5 0 0 1-1.52-.12c-.04.37-.16.34-.35-.03-1.59-.81-2.1-1.74-1.54-2.77-1.96-.86-1.6-2.17.42-1.78" class="cls-113"/><path d="M69.65 35.97c.86.4 1.54.94 2.18 1.55-.23.24-.32.34-.04.61v.46c-.46.59-1.11.41-1.95-.56-.75-.07-1.41-.47-1.55-1.23-.02-.11-.18-.26-.33-.3-.31-.49.3-.64.46-.29l.21.19c.47.28.82.63 1.72.64z" class="cls-122"/><path d="M70.75 41.15c.4.9.45 1.93.16 3.09-.4.42-1.45.81-1.98.85-.77.05-1.87-.52-1.92-1.64-.04-.82.05-2.4.67-3.07.72-.77 2.57 0 3.07.77" style="fill:#2d2a29"/><path d="M66.27 38.58c1.47-.19 1.43.94.11 1.42-.35 1.84-.8 3.58-.31 5.58.09.38-.21.84-.38 1.03h-.91c-3.14-.23-2.18-1.72.11-2.5-.44.03-.47-.11-.13-.42-.96-.34-.62-1.19.14-1.66-1.4.53-2.84-.59-2.14-2.13.33-.78 1.11-.83 2.32-.16l.65-.22c-.36-.3-.52-.62-.48-.94.14-.38.32-.38.51 0q.21-.66.51 0" class="cls-25"/><path d="m66.38 40-.11-1.42c-.12-.55.51-.64 1.02-.42.78.16 1.69.36 2.15 1.45-1.36-.05-2.22-.06-3.06.4Z" class="cls-158"/><path d="M67.29 38.15c-.25.32-.64.42-1.02.42h-.51c-.44-.16-.43-.34 0-.54.25-.17.52-.32.85-.37.28-.04.52.31.66.48m3.59 1.44c-.2-.14-.37-.32-.5-.52.21.11.42.3.5.52" class="cls-122"/><path d="M58.66 47.71h.51c1.34-.27 3.07-.61 4.24-.02l-.26 6.13c-.26-.26-.42-.64-.8-.82-.16-.08-.54 1.59-.69 1.47-1.49-1.15-2.78-2.24-4.33-2.5-.09-.94.1-3.4-1.7-3.7-.56-.1-1.35.05-1.53-.56l.23-.5c1.46-.03 2.91.14 4.34.5Z" class="cls-80"/><path d="M56.57 43.25c.66 1.28 1.99 1.75 4.01 1.42 1.01-.67 1.86-.76 2.52-.28.03 0-.11-.15-.49-.44.42.61 1.04-.06.4-.45l.58.67c.05-.71.79-.46 1.3-.06L63.26 46c.75.1 1.15.29 1.52.61l-8.68.14c-.26.7-1.17.63-1.49-.05q.255-.735-.15-1.38c.52-1.48.57-2.91.13-4.3.93-.06 2.43 1.03 1.98 2.22Z" class="cls-77"/><path d="M54.61 46.7c.41 0 1.1-.08 1.49.05l2.56.96h-5.07c-1.13-.17-1.47-.51-1.01-1.01q.21-.66.51 0c.71-.38 1.22-.37 1.53.01Zm11.22.83-2.41.16-4.24.02c1.06-.85 4.56-.71 6.66-.18Z" class="cls-13"/><path d="M71.98 46.23c-.22.3-.45.6-.88.57-.23-.02-.42-.37-.33-.6z" class="cls-113"/><path d="M72.4 39.61c-.26-.1-.48-.29-.56-.51.14.1.48.3.56.51" class="cls-122"/><path d="M44.46 10.24c.7 1.44 1.84 1.6 3.42.49l.57.48c-.03-.82 1.43-.76 1.63.04 1.24 1.19-.92.91-1 2.51l-1.02-.05c-.97.45-2.1.4-3.07-.02l-.41-.03c-.82-.36-1.25-1.07-1.16-1.95-.29-.55-.45-1.06-.5-1.51l1.54.03Z" style="fill:#6b6360"/><path d="M42.94 15.25c0-.66.69-.49 1.01.02.21-.52 1.42-.32 2.03-.02h.51l.71.08c.28.03.43.31.23.64-.39.5-1.28.64-2.66.41l-1.3 1.42c.45.15.4.8-.03 1-.15.23-.32.23-.5 0l-1.02-.58c-.12.62-.71 1.08-1.35.85l.35-1.79.51-.51v-1.02c.26 0 .46-.25.5-.5.1-.47.62-.25 1.02 0Z" class="cls-140"/><path d="M48.06 13.71c-.71.89-2.31.79-3.07-.02z" class="cls-3"/><path d="m45.98 15.25-2.03.02c-.89 0-.9-.39.03-.58.63.13 1.62-.24 2 .56" class="cls-20"/><path d="m43.98 14.69-.03.58-1.01-.02c-.49-.1-.84-.28-1.05-.55.47-.89 1.44-.15 2.09-.01" class="cls-3"/><path d="M42.94 15.25h-1.02c.03-.15.02-.4-.03-.55.45 0 .87.16 1.05.55" class="cls-20"/><path d="M27.78 47.61c.11.84-.43 1.22-1.6 1.11.37 0 .51.14.51.47.05 10.4.14 20.83.58 31.19l-1.01.61c.12.65.45 1.23.99 1.71q1.2-.675 2.07-.69c.41 0 .82.13.85.46.19 1.8-.61 3.75-1.6 5.03-.39.21-1.02.29-1.9.24-.67 1-1.22.72-1-.46V54.3l.09-6.99c.56-.48 1.55.28 2.01.29Z" style="fill:#342e2e"/><path d="M49.59 8.65c.29-1.16.6-1.13.96 0-.15.28-.46.47-1.03.83l5.57.19c.36.01.55.29.53.51h-2.54c-1.36.45-3.67 1.06-4.56-.01q-1.065-.24-2.01-.51l-1.02-1.05c-.06-.39.42-.49 1.45-.31.88-1 2.23-1.08 2.66.35Z" class="cls-71"/><path d="M57.66 10.68c-.07.54-.26.87-.56.99l-1.07 2.03-6.95.05c-1.24-.47-.9-1.31 1-2.51.61-.54 1.61-.89 3-1.07.43-.5 1.89-.34 2.54 0-.12-.84.47-1.14 1.09-.57.47.16.95.57.96 1.07Z" class="cls-83"/><path d="m57.68 11.7-.58-.03c.17-.32.15-.78.56-.99l.02 1.01Z" style="fill:#1b1918"/><path d="M55.2 12.95c-.67.37-1.84.25-2.94-.06-.23-1.28 1.11-2.16 2.45-2.13.3.09.64.75.49 2.19" style="fill:#2e2a29"/><path d="M53.08 10.18c-.78.76-1.94 1.09-3 1.07l-1.63-.04c-1.34-.25-1.24-.73.07-1.04h4.56Z" style="fill:#867d79"/><path d="M55.82 13.25c-.35-.76-.23-1.57-.19-2.31.13-.15.26-.26.26-.27.39.84.39 2.13-.08 2.58" style="fill:#5d5351"/><path d="M46.51 9.66c.69 0 1.66-.24 2.01.51-.74 1.12-3.55 1.79-4.05.07v-.59h2.04zm-3.59.55c.32.39.55.98.5 1.51-.18-.24-.49-.94-.82-.99-.43-.06-1.17.63-1.62 1.03-.27-1.42 1.13-1.56 1.94-1.54" style="fill:#625b58"/><path d="M37.21 34.6c.46.06.49.24.11.52 1.34 1.3-1.27 1.84-2.49 1.38l-4.18 2.48.44 4.82c1.13.14 1.51 1.76 1.25 2.85.16.88-.91.39-1.56.05-.46-.08-.64-.25-.52-.52-.72-.85-.99-2.11-.8-3.79-.36-1.87-1.27-2.9-3.33-2.4.11-1.66 1.26-2.98 3.45-3.97.66-.27 1.53-.66 2.13-1.03.45.09.85 0 1.16.32l-2.94 2.08.65.3 4.45-2.29-.45-.36c-.25.06-.78.32-1.38-.26l2.7-.83c-.16.85-.86.59-1.04.79l.38.59 1.99-.72Z" class="cls-25"/><path d="M29.56 36c-.83 1.27-2.34 1.63-2.86 3.57 1.59-.21 2.87.58 3.05 2.09l.5 4.51c-1.87.61-2.61-.68-2.23-3.86-1.75-2.57-2.02-1.45-.81 3.39l-1.47.88-.56-.37-.5-.03.12-6c.05-2.53 2.89-3.42 4.76-4.17Z" class="cls-171"/><path d="M41.92 18.22c.76-.18.74.87.01 1.09l-.51 1.01c.78-.02.74.8 0 1.01l-.52 2.02c-.71.84-.54 2.17-.9 3.12-1.12-1.98-.5-4.11-.07-6.13l.47-.53.16-.75c.29-.54.76-1.06 1.35-.85Z" style="fill:#595150"/><path d="M39.93 20.34a.72.72 0 0 1 .47-.53c-.12.21-.29.39-.47.53" class="cls-140"/><path d="M48.5 1.04c1.25.09 1.75.44 1.51 1.02-.07.73-.57 1.1-1.5 1.1.41 4.52-.62 6.1-3.08 4.75-.31-2.74-.83-4.69-1.55-5.84-1.34.42-1.45-.2-.31-1.03z" style="fill:#cac7c5"/><path d="M43.57 1.05c-.04.4.22.72.31 1.03l.52.26 1.08 6.27-1.55-.03c-1.33-.02-1.92-1-1.78-2.93l-.75 1-.92 1.02c0-2.04-.49-4.1.18-5.87.36-.9 2.17-.74 2.9-.74Z" style="fill:#59504e"/><path d="M43.94 8.58c-1.16-.03-2.68.52-3.53-.4.37.12.86-.03.96-.36.12-.42.11-.84.04-1.18-.27-1.48-.39-2.95.18-4.28 2.34 2.5.86 4.48 2.35 6.22" style="fill:#3f3634"/><path d="M51.05 1.04h1.01c.91.55.42.79-.51 1.01-.02 1.45-1.18 1.4-1.55.01-.39-.48-.98-.68-1.51-1.02h2.55Z" style="fill:#a19a98"/><path d="M66.12 97.08c.44.23.89.36 1.36.36-.52.44-1.48 1.32-2.21 1.33l-7.62.15c1.2-1.16 3.77.18 4.63-.96-1.14-1.3.53-2.59 1.94-2.04.47-.11 1-.31 1.59-.58 1.1.03 1.2.61.31 1.74" class="cls-38"/><path d="m27.78 47.61 3.97.09c.34.13.35.3.04.52-.1 1.19-.44 2.04-1.01 2.53-.16 11.38.78 22.95 1.88 34.15 1.3-.05 1.24 3.28.03 3.41-.17.82-2.05.64-2.01-.32l-.77-.91c.27-3.68.54-7.78.37-11.48 0-.03-.25 0-.57.03-1.38.3-1.43-.59-1.21-1.76l-1.42-2.06c-.33-7.84-.54-15.28-.62-22.31l-.29-.77c0-.37-.04-.82.33-.96.42-.15.86-.09 1.27-.15Z" class="cls-127"/><path d="M32.33 46.64c.09-.45.23-.44.42 0 .78-1.23 1.07-1.45 1.56.05 3.12-.42 6.53-.4 9.64 0q.21-.66.51 0h.51q.21-.66.51 0c.92-.32 2.41-.56 3.04 0 .39.36.64.34 1.01 0 .42-.41 2.35-.37 3.04 0l1.01 1.01-2.1.03c-.18 1.43-3.6 1.18-3.92-.01-1.67.81-5.21 1.87-6.15-.02l-.55.92c-1.48-.28-2.99-.59-4.52-.92.17.69-.97.33-1.52 0-.16.44-1.2.41-1.52 0-.09.47-.73.39-1.01 0l-2.03-1.01c.15-.24.32-.23.51 0z" class="cls-71"/><path d="M30.24 46.18c.18.04.44.37.52.52h-2.53l-2.51-.12c1.73-2.34-1.5-4.57.02-6.21.3-.32 1.32-.47 1.82-.14 3.39 2.19-.28 5.87 2.68 5.95" style="fill:#322e2d"/><path d="M28.24 46.69c-1.05.11-2.22.22-3.06-.48l.56.37c.8-.44 1.84-.57 2.51.11" class="cls-71"/><path d="M32.29 48.22c-.15.29-.31.28-.49 0l-.04-.52h.53c.43.13.42.3 0 .52" class="cls-30"/><path d="M26.69 87.75h.53l.64.64c.04-.44.1-.44.18-.01l.81.42c.1-.41.19-.41.26.01l1.15.49c.34-1.08 3.79-.69 4.56 0q.66.21 0 .51c-.01.76-.82.75-1.01 0l-.09.51-2.92.29c.83.56.83.82-.02.8-.78.24-1.6-.02-2.48-.79-1.35-.08-2.22-.5-2.62-1.28-.15-.13-.33-.29-.5-.36-.25-.12-.24-.36.03-.74.19-.23.49-.65.49-.95l1 .46Z" style="fill:#514c49"/><path d="M25.18 94.47c-.24-.39-.46-.69-.46-1.15.35.27.49.7.46 1.15m0-5.49c-.12-.05-.35-.02-.48.01 0-.26.35-.56.5-.75l-.03.74Z" class="cls-14"/><path d="M51.56 2.05c.51-.66 1.73-.83 2.03 0q.555-.81 2.4-.15c.16 1.57.15 3.17-.03 4.82.2.4.45.86.73 1.38-.47.54-1.14.75-2.04.71l-4.11-.16h-.96l-.8-.93c-.12-1.2.02-5.37 1.21-5.65h1.55v-.01Z" style="fill:#403a38"/><path d="m56.12 1.55.51.51.06 6.04c-.37-.03-.9-.02-1.03-.26-.19-.33-.47-.83-.41-1.31l.49-4.39-2.16-.09c-1.21-.09-1.19-.69 0-1.01l2.54.5Z" class="cls-96"/><path d="M55.56 16.41c.01.12.02.29-.02.42.6 1.67 1.57 3.21 1.62 5.02 0 .21.31.45.5.51.04 4.11-1.2 5.57-1 7.11.04.28-.04.64-.5.53l-.52-1.05.06-2.01c.37-1.88.36-3.81.06-5.7-.68-1.92-1.38-3.67-1.17-6.23l.99 1.4Z" style="fill:#564e4d"/><path d="M53.59 1.05v1.01h-2.03l.51-1.01z" style="fill:#807a76"/><path d="m65.77 60.42-.48 10.2c-.6 1.23-1.15.66-1.65-1.7l-.66-.28q.18-2.115-2.31 1.59c-.58 1.65-1.36 2.43-2.34 2.33-.57.79-.66.88-.73-.12l-.77-.2c1.07-2.46 2.2-4.87 3.4-7.22l-.18-1.58c-3-2.13 1.01-6.46 3.84-3.98.2-.8 1.09-2.11 1.87-2.12v3.08Z" class="cls-101"/><path d="M28.59 87.5c.71-1.15 1.83-.84 2.09.48l2.01.32c.02-1.45 1.19-1.4 1.57-.02.26-.76.96-.73 2.09.09.73.11 1.21-.06 1.33-.9.9.17 1.84.6 2.84 1.27.31-1.34 1.35-1.44 1.74-.02.97-.86 2.76-.91 4.23-.67 1.49-.3 2.91-.17 4.26.38.19-.45.53-.35 1.02.31.39-1.66 1.88-1.12 2.69.06.01-1.64 2.52-1.22 3.3-.03-.23-1.21 1.68-.95 1.93.02.16-.25.33-.24.51 0 .6-.26 2.31-.69 2.54 0l1.51-.51q.21-.585.51 0v1.01c-.15.33-.32.32-.51 0-.28.42-1.42.8-1.52 0-1.18.41-2.94.46-4.06 0-2.62.15-5.33.32-8.12.51-1.87.51-4.62.4-6.59 0-3.07-.21-6.11-.37-9.13-.51h-4.56l-1.15-.48c-.08.01-.19.03-.26-.01l-.81-.42h-.18l-.64-.65c-.14 0-.4.07-.53.01.31-.45 1.43-.54 1.9-.24Z" style="fill:#282523"/><path d="M69.33 86.82c-.78.64-1.76 1.09-3.15.84l2.97-2.41c-.97-.77-1.75-.72-2.05-1.13-.36-.49-.46-1.77-.37-2.41l1.04-7.65c-.4-.76-.43-1.88.54-1.5l-.42 6.8c-.08 1.26-1.36 3.19.04 4.46.96.09 1.07-1.65.94-2.81 1.27 1.78.71 3.84.48 5.81Z" class="cls-85"/><path d="M68.29 72.56c-.65.28-.47 1-.54 1.5-.46-.15-.56-.78-.51-1.46l.56-8.19c.07-.95-.23-2.03.51-2.46z" class="cls-88"/><path d="M64.75 88.29c-.44-.14-.44-.31 0-.5-.04-.99.36-1.05.74-.13.27.2.3.63-.02.63zm4.08 0c-.17.4-.61.51-1.04.52.13-.44.61-.59 1.04-.52" class="cls-85"/><path d="M65.25 89.3c.44.14.44.31 0 .5-.28.64-.81.7-1.01 0-.44-.14-.44-.3 0-.5h1.02Z" class="cls-69"/><path d="M66.4 89.37c-.17.19-.4.36-.64.43-.08.48-.25.46-.5 0v-.5l1.14.06Zm2.87-1.09.64-.48c-.14.23-.38.41-.64.48m-2.47 1.06c0-.31.28-.51.59-.52-.13.22-.34.43-.59.52" class="cls-85"/><path d="M69.35 73.59c-.85-1.63-.81-5.37-.1-7.11zm-.1-9.23c.25-1.01-.44-2.61.55-3.45-.02 1.17.32 2.6-.55 3.45" class="cls-150"/><path d="M69.35 89.79c1.3-.01 1.55 2.58.49 3.51v.62c-.93 1.35-2.11 2.66-3.72 3.17-.24.25-.56.43-.82.14.59-.66.39-1.36.5-1.88-.81-.25-.6-2.57.53-2.44l.45-2.61.44.02.56-.52h1.55Z" class="cls-71"/><path d="m66.28 92.33.06.57-.53 2.44c-.7.53-1.04 1.25-1.29 2.11-.55-.65-.3-1.15-.31-1.53l.53-2.06c-.47-.09-.45-.26 0-.49-.37-.6-.54-1.11-.51-1.54-.45-.14-.45-.31-.02-.53-.37-.34-.19-.49.53-.46-.71-.58-.25-.83.5-1.03.15 0 .36.04.5 0-.09.86-.2 1.96.52 2.53" style="fill:#615a57"/><path d="M69.84 93.29c0-1.17.32-2.56-.49-3.51.09-.37.51-.68.77-.57.17.08 1.26 2.45.95 3.08-.22.43-.74.8-1.22.99m-3.51-.37c-.07-.19-.02-.41-.06-.57-.15-.73-.19-1.64.51-2.04.2 1-.27 1.74-.45 2.61m.89-2.6.56-.52z" class="cls-85"/><path d="M65 53.46c.22.42.27 1.38.2 1.85.52 1.87-.58 5.02-2.76 3.29-.65-.51-.02-1.27.45-1.74.56-1.86 1.15-3.72.96-5.68.77-.24 1.15.51 1.16 2.28Z" style="fill:#59514f"/><path d="m65 53.46-1.16-2.28c-.08-.81-.44-1.72.7-2.5.71 1.49.83 3.17.46 4.78" style="fill:#958d8b"/><path d="M57.08 91.32c.41.44.45 1.24.13 2.39 1.16.16.82.7-.19 1.19.48.29.89.75 1.25 1.37 1.58-.11 2.56.29 2.95 1.19-1.36.82-3.06.63-4.58.43-.16-.27-.36-.32-.58-.09-.06.42-.2.42-.42.03q-1.98-.195-1.89-3.48c-1.37-.22-2.39-.65-3.06-1.3-1.16.4-1.89.34-2.17-.18l-.11-.6c1.58-.15 3.14-.47 4.67-.96 1.09-.71 3.27-1.47 4 0Z" class="cls-170"/><path d="m55.64 97.85.42-.03c.21-.22.43-.17.58.09.06.2-.06.55-.49.55l-14.11-.06c-1.09-.99 1.11-1.53 1.94-1.04.49-1.99 2.71-2.22 6.65-.69 2.05-.12 3.72.28 5.01 1.19" style="fill:#635b58"/><path d="M64.21 95.92c-.87.44-1.34 1.26-1.94 2.04-.02-.48-.71-.71-1.06-.49l-2.52-.1c-.89-.02-1.27-.38-1.71-1.06-.29-.44-.05-.98.04-1.41 1.01-.68 2.41-.8 4.17-.36 1.19-.4 2.18-.44 2.97-.1.61-.04.32.96.05 1.48" style="fill:#292522"/><path d="M33.36 90.82c.07 1.28 0 2.5-.19 3.66.38.24.61.76.71 1.55.85.82 1.55 1.85 2.92 1.85-.97 1-2.66.52-4.05.51l-.88-3.61c-1.52.3-2.39-2.65-1.09-3.39-.07-.21-.01-.59.02-.8.61-.47 1.96-.29 2.57.21Z" style="fill:#5b5452"/><path d="M43.98 97.35c-.73.31-1.68.13-1.94 1.04-1.1 0-2.34.25-3.67-.1-.3-.49.57-1.28 1.03-1.48l1.46.12c3.38-1.02 4.42-.88 3.11.42Z" style="fill:#5b5350"/><path d="m30.78 91.4 1.09 3.39-.48 2.63-3.91-2.36c-1.37-1.51-1.27-4.02-1.8-5.74 1.97-.26 4 .36 5.1 2.07" class="cls-14"/><path d="M54.08 25.88c.46.79.26 1.7-.61 2.72 1.27.19 1.96 1.05 2.66 2.07 1.49.58 2.75 2.04 3.94 3.24l-3.43-1.34c-1.22.08-2.46-.11-3.73-.59-.81 1.5-3.67.1-3.71-1.45-3.22 2.49-6.31-4.53-2.76-4.97 2.09-1.43 6.32-2.08 7.63.32Z" class="cls-148"/><path d="M56.64 32.57c.27.13.43.72.57 1.07-.29.99 2.59 2.15.45.65-.14-.49.15-.85.24-.76l.63.62c1.38.52 2.57 1.31 3.14 2.36-.82.84-2.43 1.03-3.53.53-.14.44-.31.44-.5 0-.91-.17-1.77-.33-2.6-.48-.27.77-.71.69-.92-.11-1.44-.91-2.68-2.06-3.72-3.46-.81-.21-1.29-.55-1.45-1-1.42-.28-1.16-1.39.26-1.48.48.47 1.03 1.14 1.93 1.48.58.22 1.24-.68 1.1-1.59l4.41 2.15Z" style="fill:#655d5a"/><path d="m55.62 28.94.52 1.05v.68c-1.76-.68-3.21-1.44-5.07-1.32 1.09-1.36 2.46-2.22 3.01-3.47 1.58.46.26 1.61 1.54 3.06" style="fill:#262323"/><path d="M61.68 36.52c.24.27.92.51 1.01.96-.72.89-1.47 1.07-2.26.54l-.2.31c.94-.87 1.67-.34.91.86-.36.5-1.17.47-2.44-.09q-.66-.24 0-.54c-.94-.26-1.37-.86-.56-1.51.93-1.13 2.2-.87 3.53-.53" class="cls-120"/><path d="m62.69 37.49 2.06.57.5.53c.23.23.44.61.48.94l-.68.36c-1.33-.88-2.07-.94-2.23-.2-.72 1.32-1.57.97-1.68-.5-.23-.38-.64-.68-.91-.86l-.73-.48c.44.54 1 .02.48-.39l.45.56c.62-.88 1.33-.79 2.26-.54Z" class="cls-163"/><path d="M65.73 39.52c.09.65-.18 1.24-.75 1.54-.67-.87-1.43-1.1-2.23-1.16.05-.08.07-.18.06-.22-.31-.29-.56-.5-.88-.65-.28-.13-.11-.81.43-.86 1.29-.11 2.44.73 3.36 1.34" style="fill:#c7c6c4"/><path d="M53.14 38.02q.375.72 1.74 1.86l-.3 1.15c1.3 1.15.79 2.76-.13 4.3-1.24.36-1.45-.6-.62-2.85l-.99-1.31c-.61.44-1.02.08-1.22-1.08-1.03 1.47-2.49.55-1.57-.97-1.8-.29-1.66-.43-.3-1.48.49-.37 3.29-.5 3.38.39Z" style="fill:#4b4645"/><path d="M54.46 45.32c.63.15 1.48-.31 2.35.65-.78.22-1.68.13-2.2.73h-1.53c.02-.38.02-.73-.01-1.05q-1.485.465-1.47-.45l-.53-1.33c-.86-1.69-.68-2.95.55-3.8 1.47.13 3.36 1.61 2.89 3.45-.16.65-.63 1.38-.06 1.8" style="fill:#5d5754"/><path d="M55.61 38.06c.17-.26.34-.24.52.02q.21-.66.51 0c.15-.29.32-.29.5 0 .36-.58.88-.41 1.56.49v.54c-.31.81-1 1.17-2.07 1.09l.04 1.44c.3.63.41 1.17-.11 1.62-.15-1.25-1.3-1.52-1.98-2.22l-1.67-1.71c-.21-.22-.34-.73-.3-.91.03-.16.23-.33.52-.38.46-.43 1.83-.28 2.46.04Z" style="fill:#403b3a"/><path d="M53.07 45.66c.32.1.92-.28 1.58.3-.59.22-1.16.31-1.56.74h-3.55c-.23.4-.75.38-1.01 0h-3.04c-.78-1.15 1.75-1.22 2.46-.56-1.05-3.3 1.38-2.66 3.37-.55l1.77.07Z" class="cls-62"/><path d="m55.68 26.94.06-5.7c.62 1.75.66 3.94-.06 5.7" class="cls-148"/><path d="m48.52 10.17-.07 1.04c-.46-.01-1.06.48-1.51.9-.78.73-1.83.61-2.38-.17-.3-.42-.58-1.11-.1-1.7l4.05-.07Z" style="fill:#dad7d5"/><path d="M44.06 18.42c.77.92.84 2.31.22 4.17.36 1.03.21 1.78-.42 2.22l.63.34c1.94-2.08 3.15-2.37 3.62-.87l-1.66 1.27c-.82.63-.94 3.49.13 4.12.88.51 2.05.27 2.63.85L48.95 32c-.54.32-1.33.54-2.36.64l-1.18.85c.31.83-.48 1.12-1.01.45.4.82-.33 1.41-1.13 1.35-3.21-.24-1.82-4.22.77-3.84l-.11-.74c.8-.9.85-1.3.15-1.21-.78-2.16-1.42-4.41-1.94-6.74l.26-.91c-.75-.04-.72-.84.02-1.01l.51-1.01q-.66-.21 0-.51l.5-.51.03-1h.5c.36-.25.39-.04.09.62Z" style="fill:#655e5b"/><path d="M42.93 18.8q.405.225 0 .51v.51l-.51 1.01-.02 1.01-.21 1.74c1.01 2.1 1.43 4.08 1.27 5.92-.29.07-.78.22-1 .4l-.57.05q-.525-2.01-.99-4.05v-2.55l.52-2.02v-1.01l.5-1.01v-1.09c.18.06.39-.61.56-.74.29-.23.69.17.48.5-.07.12-.06.51-.03.82" class="cls-20"/><path d="M42.94 19.3v-.51h.5c0 .24-.26.45-.5.51" class="cls-55"/><path d="M29.72 75.62c.45.14.44.32 0 .53l-1.01 5.76c-1.73 1.79-2.14 1.36-2.44-.91l-.09-32.28c.27-.18 1.03-.07 1.03.51v19.8c0 1.71 1.34 3.16 2.34 4.23.09.65-.41 1.84.16 2.36" style="fill:#4c4545"/><path d="M30.68 87.98c-.78-.12-1.38-.04-2.09-.48-.04-.77-.24-1.38-.84-2.16 1.92-.65 1.49-1.99 1.58-3.32-.62.1-.71-.36-.27-1.36l.65-4.51v-.53c.36-.36.17-.43.14-.67-.04-.34.5-.52.69-.35.36.31.26.58.28.99l.16 5.75c.06 2.26.51 4.51-.31 6.65Z" class="cls-54"/><path d="M29.34 82.02c-.49.86-2.05 1.33-2.12 2.71.02.87.28 1.97-1.02 2.11l.07-5.84c.2.47.65 1.35 1.14 1.17 2.09-.8 1.09-3.55 2.32-6.01l-.39 5.87Z" class="cls-127"/><path d="M50.01 2.07c-.08 2.22.27 4.47-.42 6.58l-4.11-.04c-1.32-1.39-.73-3.35-1.61-6.53.07-.12.91-.11.94.11l.98 5.64c.07.38 1.01.34 1.23.09.99-1.13-.22-3.49.61-5.21.43-.9 1.72-.62 2.37-.65Z" style="fill:#978e8c"/><path d="M44.04 31.45c-.96.67-1.85 1.62-1.62 3.02l1.97-.53c.94-.05 1.18.04.73.28 2.1-.74 2.65 1.74.16 1.72 0 .33-.04.6-.14.64-3.02.99-5.38 1.07-7.25-1.51.17.97-.22 1-.57.05l-.11-.52c2.34-.84 4.22-3.37 6.28-4.42.3.25.49.68.56 1.27Z" class="cls-24"/><path d="m36.85 31.98.53-.04c.76 1.39-.63 2.41-1.56 1.04-.44-.15-.43-.31.01-.49-.25-.15-.24-.32 0-.51h1.01Z" class="cls-98"/><path d="M35.84 32.49v.49c-.1 1.35-.55 1.32-1 .05l-.02-.54c.12-.06.38 0 .51 0 .16-.22.33-.21.51 0" style="fill:#1e1817"/><path d="M40.9 25.9c.4 1.23.65 2.52.76 3.86l.81.14c-.49-1.35.09-1.47 1-.4 1.04-.12 1.06.35.01.67-.22.24-.43.49-.6.77-1.46 2.52-2.81 3.46-5.68 3.65-.23.81-1.5 1.51-1.99.72l-.21.07c.08.29.13.52.05.58-.24.18-5.2 2.46-5.45 2.29-.49-.33-.43-.9-.04-1.32 1.23-.66 1.94-1.31 2.12-1.96l3.15-1.94.99-.05c.71-.04 1.09-.76 1.56-1.04 1-.6 2.12-1.17 2.6-2.23.46-1-.36-2.27.01-3.24q-.69-3.075.9-3.12c.79.19 1.07 2.45 0 2.55Z" class="cls-9"/><path d="M42.47 29.9c-.07.16-.15.55-.35.59-1.15.19-1.21-2.04-1.22-4.59 1.25.65.41 2.34 1.56 4" class="cls-140"/><path d="M34.82 36.5c.98-.07.97.32-.02.59-.15.43-.31.41-.49-.02-.35.66-.73 1-1.15 1.02 0 .43-.11.42-.32 0q-1.23.6-.72 1.56l-.58.05c.52 1.04.91 2.05 1.15 3 1.58.15 2.11 3.89.05 3.94h-.42c-2.93-2.21-.09-5.91-3.3-7.28l3.15-1.86c.94-.56 1.71-.98 2.64-1Z" style="fill:#9f9a97"/><path d="M40.9 23.35c0-.7-.17-1.59.52-2.02 0 .81.02 1.46-.52 2.02m.52-3.03c0-.42.09-.86.51-1.01.01.42-.08.87-.51 1.01" class="cls-140"/><path d="M32.29 69.01c.77-.05.73 1.31 0 1.52.24.38.4.77 0 1.01.74.29.76 2.23.03 2.61.55.78.98.84 1.27.15-.14-1.63.09-2.88.7-3.74.1-.28.1-.63 0-1.06-.73-.03-.68-.76.02-.99-.44-1.01.68-2.41 1.03-1.01l.87.75c.1 5.39.19 11.83-.71 17.14-.18 1.07-.49 2.67-1.23 2.87l-1.57.02c.3-1.83-.65-3.65-.79-5.65l-.7-10.13c-.33-4.82-1.21-9.28-.96-14.17.13-2.7-.19-5.2.54-7.61h.58l.93 18.27Z" class="cls-10"/><path d="M32.29 48.22c.75.51.67 1.32-.25 2.44-.14 3.95-.06 7.87.25 11.76q.66.21 0 .51c1.23.68 1.38 1.98 0 2.54q.435.225 0 .51.66.21 0 .51c.67 1.17.67 2.02 0 2.54-.82-.27-.44-1.35-.48-1.97l-.62-9.21c-.27-3.96.46-6.32-.41-7.08.26-.85.25-1.86 1.01-2.53h.49Z" class="cls-110"/><path d="M47.57 47.72c.52.75-.02 1.24-1.63 1.48.42.12.4.27-.03.44-.17.44-.29.42-.36-.05-2.41.53-3.21 1.93-3.52 4.34.25 1.32.22 2.79-.07 4.42.76 1.53 1.51 4.45.53 6.02-.86 1.57-.66 2.82.61 3.75q-.105.87-.72 1.32c.72 1.81 1.31 3.66 1.78 5.58l-.54.59c0 .94-.43.95-.68 0-.26-.26-.34-.31-.6-.02-.23.24-.43.41-.54.37-.56-.24-1.39-5.71-.9-6.65-.69-.27-1.01-.68-.95-1.23.88-1.94 1.11-3.71.71-5.29-.98.99-3.09 1.06-4.38.63-1.42.48-1.39-.37-.85-1.57 1.04-1.38 1.5-2.85 1.4-4.4-.35-1.32-.41-2.5-.18-3.55 1.03-1.71 1.82-1.06 2.35 1.94.48.66 1.13.48 1.96-.54-1.3-.05-1.34-1.25 0-1.51.36-1.03.21-2.07-.17-3.07-.38-.27-.32-.43.15-.49l.14-.91c-1.04-.92-.93-1.46.34-1.61l6.15.02Z" class="cls-78"/><path d="M48.51 42.79c1.55-2.21 3.37.58 3.09 2.42l1.47.45c-1.07.78-2.79.75-4 .26.89-1.03 0-1.61-.6-1.02.11.68-.3 1.25-.54 1.25-.51-.3-1.03-.51-1.54-.63-.41-.76-1.09-.88-2.02-.38.9.37.91.73.03 1.09l.07.47h-.51c-.47-.05-.65-.22-.53-.52-.1-.64-.42-.8-.96-.49-3.72-1.47-.62-3.6 2-3.62.14-1.36.87-1.2 1.92-.67 1.3-.93 2.01-.47 2.14 1.39" style="fill:#766e6b"/><path d="M36.34 39.02c1.51-.45 1.17.26.6 1.39-.27.16-.43.07-.48-.25-.45.6-.58 1.56-.39 2.87-1.27-.09-1.35.95-.24 3.13-.35.21-.85.38-1.51.52l-1.56-.05c.89-1.19.29-2.62-.05-3.94-1.34-.72-.64-2.97.72-2.05l1.85-1.5c-.29-1.18.66-1.19 1.07-.12Z" style="fill:#87817e"/><path d="M41.42 47.71c-.37.75.46 1.89-.48 2.52l-2.5-.47-.57-1.03c-1.1.1-1.61-.24-1.53-1.01h5.07Z" class="cls-30"/><path d="M35.83 46.17c.06-.33.12-.59.23-.61.34-.06 4.41.41 4.85.63 1.39-.58 2.23-.58 2.52-.01l.53.52h-9.64c.29-.61.95-.52 1.51-.52Z" class="cls-62"/><path d="M46.39 45.51c.29.05.77-.37 1.18-.1.22.14.37.43.36.73-.74 0-1.95-.16-2.46.56h-.51l-.57-.47c-.31-.42-.28-.72-.03-1.09.66-.6 1.81-.53 2.02.38Z" class="cls-99"/><path d="m36.35 47.71 1.53 1.01c-.15.44-.33.43-.51-.01-.19 1.35-.13 2.85.19 4.5l-.67.32-.63-.04c-.11-1.91-.59-3.67-1.43-5.29-.44-.15-.43-.32 0-.5h1.52Z" class="cls-78"/><path d="M34.82 47.71v.5c.19.89-.34.92-1.61.08-.73-.05-.66-.4.09-.58z" class="cls-30"/><path d="M49.53 46.69c.06.27-.09.43-.27.51-.44.19-.81-.14-.75-.51h1.01Z" class="cls-13"/><path d="m33.3 47.71-.09.58c-.08 1.16-.74 1.07-.93-.08-.01-.16-.02-.36 0-.51h1.01Z" class="cls-78"/><path d="M44.97 46.69h-.51l-.07-.47c.22.12.41.28.57.47" class="cls-62"/><path d="M43.95 89.81c-.15.44-1.17.37-1.52 0-1.37.55-4.01.98-5.07 0-.81.48-2.09.96-2.54 0v-.51l8.15-.03c.55 0 .93.2.98.54" class="cls-85"/><path d="M33.81 89.81c1.34.21 1.27.68-.04 1.02-.06.45-.2.43-.41-.01-.86.43-1.8.37-2.57-.21-.09-.22-.09-.43.02-.56.14-.16.58-.3.94-.29l2.06.04Z" style="fill:#b1ada9"/><path d="M34.82 89.81h2.54c.77.37.43.7-1.01 1.01-.04 1.52-2.29 1.4-2.57 0l.04-1.02h1.01Z" style="fill:#a6a29e"/><path d="M30.26 89.31c-.46 0-.9-.07-1.15-.49.44-.07.97.04 1.15.49m-2.4-.92c-.27-.15-.49-.38-.64-.66.37-.02.69.25.64.66m.99.42-.81-.42c.31-.02.61.17.81.42" class="cls-54"/><path d="M56.14 29.99c-.22-.02-.46-.14-.47-.34l-.05-.72c.27.29.51.66.52 1.05" class="cls-148"/><path d="M60.1 87.46c-.15.89-1.37.83-2.12.51-2.49-1.08-3.11-5.52-.18-6.21-.63-2.49-.27-4.1 1.09-4.83-.86-1.98 2.65-10.26 4.65-8.76.16.12 1.02 3.15 1.15 3.79.15.78.6 10.73.31 11.21-1.65.74-2.37 1.47-2.18 2.21-.19.73-.79 1.14-1.8 1.22q-.465 1.11-.93.84" style="fill:#302927"/><path d="M57.61 72.45c.2.11.56.13.73.12.58 1.37.87 5.46-1.17 5.53-.32.44-.32.81 0 1.09.45.08.45.23.03.46-.09 1.96-.61 3.31-2.19 4.58-.08.37 2.63 3.02 3.14 3.51.3.3.06.73-.39 1.04l-3.3.03c-1.28-.57-2.98-1.43-2.72-3.01.92-4.22 2.41-8.3 4.45-12.25-.85-.89 1.27-3.49 1.43-1.1Z" class="cls-81"/><path d="M57.16 79.18c-.45.12-.7-.45-.46-.66l.47-.43c.63-.16.55.85 0 1.09" class="cls-156"/><path d="M65.76 56.33v1.01c-.96 1.7-1.44 4-.48 5.85l-1.63-.03c.43-.71.35-1.78.03-2.42s-2.08-1.61-2.51-1.03l-1.6 2.15c.76.31.83 1.13 1.98.71.06.75-.52.71-.58.97-.09.41.32.99.61 1.32l-1.64 2.31c-.77 1.08-1 1.81-1.23 2.68-.21.77-1.72 1.47-1.11 2.59-.35-.19-.8-.29-1.05-.11-.43.31-.3.93-.38 1.21-.52 1.32-.97 1.62-1.37.89l-.53-.45c.97-2.58 2.18-5.16 3.62-7.71-.8-2.07-1.21-4.33-1.22-6.78.67-.68.76-1.57.27-2.66 1.06-1.26 2.52-1.03 4.38.67l.55-.22c.12-.48.69-.48 1.01-.42l.19.89c.07.32.66.81 1.01.4.61-.75.97-2 1.11-2.83h.57z" style="fill:#443e3c"/><path d="m54.45 88.81-2.69-.06c-1.09-.23-1.23-.52-.44-.89l-.3.17c-.75.97-3.78.13-2.34-1.18-.58-.9-.78-1.78-.6-2.63-2.81-.93 1.24-5.95 2.9-3.44 1.08-2.08 2.1-4.17 3.07-6.26l.75-.07c.53-.05 1.24-.45 1.37-.89l-2.02 6.22c-.26.74.54 1.84-.79 2.79l-.12 2.98c-.31.24-.56.39-.64.56-.16.34.28 1.04.88.5-.05-.71.59-.71.7-.44.1.24.36.53.6.63.42.17-.33.77-1.21.6.46.52.87.84.87 1.42Z" style="fill:#453d3a"/><path d="m40.51 88.74-4.16-.37c.4.02.85.03 1.12-.5l-2.22-.24c.79-.58.84-1.15 1.09-1.81l.43-2.79.58.02c.61-2.08 2.89-3.57 4.54-2.3.46-1.02 1.42.57 1.59 1.13.44 1.42-1.86 6.22-2.98 6.87Z" style="fill:#383230"/><path d="M64.24 89.3v.5c.05.62-.52.59-1.07.45-.09.45.26.8 1.06 1.05l.02.53c-1.84.21-3.71.56-5.59 1.06-.18-.43-.21-1-.07-1.71l-.55.12c-.2-.28-.31-.29-.48 0-.09.45-.25.44-.47.02h-4c-.72.37-1.73.87-2.03 0-.22.41-.75.38-1.01 0-.08.43-.25.43-.49.04-1.12.25-2.61.53-3.56-.03-.8-.87 1.13-.86 1.12-.76s-1.76.38-1.63-.25c-.55.42-1.47.4-2.03 0-.02.77-.83.76-1.02 0-.44-.15-.43-.31 0-.5h8.12c2.58-.46 5.62-.43 8.12 0 .39-.42 1.36-.38 1.76.05.34.68.93.66 1.79-.05q-.3-.39.51-.51h1.52Z" class="cls-58"/><path d="M44.09 81.71c.86.43 1.42 1.72.84 2.53l-.02.42c.49.6.68 1.16.57 1.7-.4 0-.59.55-.56 1.68q-1.68.06-2.67.69l-1.74.02-1.3-.76c1.96-.41 2.36-1.58 2.21-3.26l.79-.48.02-.84c.01-.61.78-1.19.6-1.75-.15-.46-.51-.81-.94-.91-.25-.05-.49-.11-.64-.27-.59-.59 2.22-1.98 2.83 1.23Z" style="fill:#403937"/><path d="m51.76 88.75-9.51-.02c-.44-.49-.29-.9.03-.93.58-.05 1.18-.09 1.77.04l.86-3.19c.07-.08.13-.14.16-.12 1.11.38 1.34.38 1.83-.25.24-.31.75-.22 1.18-.06.1.39.23.84.55 1.15.33.33.97.09 1.44.1-.62.82-1.05 1.47-.87 1.89.29.66 1.26 1.01 1.82.67l-.58-.45c.35.59.89.04.41-.3l.47.58z" class="cls-8"/><path d="M58.66 89.3q.66.21 0 .51h-8.12c.05-.34.43-.54.98-.54z" class="cls-85"/><path d="m62.72 89.3-.51.51c-.38.74-1.64 1.08-1.79.05l-1.76-.05v-.51z" class="cls-69"/><path d="M64.24 88.29c-.28.58-.94.51-1.51.51.27-.57.95-.51 1.51-.51" class="cls-85"/><path d="m57.8 81.77-1.07 3.1c-.32.94.36 1.96 1.2 2.27.58.21 1.34.49 2.17.33.3-.29.36-.25.18.13l.69-.57c.54-1.48 2.21-1.79 1.72.15 1.51.99-1.53 1.92-2.5 1.11l-.53.52-1.93-.02c-.41-2.24-3.86-2.8-3.76-4.77.03-.54 1.03-1.06 1.37-1.59l1.83-2.78c.5.38.7 1.09.61 2.13Z" class="cls-156"/><path d="M64.75 87.78v.5h-.51l-1.51.52h-2.54c-.27-.17-.25-.35.02-.53 1.03.21 2.27.04 2.5-1.11.63-1.35 2.12-.86 2.05.61" class="cls-81"/><path d="M60.19 88.8h-.51c0-.2.32-.56.53-.52z" class="cls-85"/><path d="M64.25 89.8h1.01c0 .44-.2.74-.5 1.03-.78.29-1.71.39-1.59-.59.32-.21.57-.45 1.08-.45Z" style="fill:#7b7570"/><path d="m58.04 91.3.55-.12c.09.59.33 1.09.71 1.5q4.23-1.635 5.46.69c-.02.14-.04.34 0 .49-.02.62-.22.81-.58.58-1.79 1.8-4.67 1.01-7.14.46-.2-1.12-.28-2.41.06-3.58l.47-.02c.12-.28.29-.27.48 0Z" style="fill:#37312e"/><path d="M64.25 91.83c.5.34.6.97.51 1.54-1.14-2.02-4.07-.64-7.21.41.07-1.45.76-1.94 1.04-2.59.21-.05.38.11.38.31v.79c1.79-.33 3.51-.55 5.28-.45" class="cls-69"/><path d="m64.76 90.83-.53.46c-.42.14-1.26.13-1.48-.23-.29-.47.16-.66.42-.82.48.61 1.13.3 1.59.59" class="cls-168"/><path d="m64.21 95.92-.05-1.48.58-.58c.14.67.14 1.68-.53 2.06" class="cls-69"/><path d="M55.64 97.85c-3.18.26-6.47-.19-9.72-1.33l-1.94.83c.06-.38 0-.75-.26-1.01-1.04.95-1.97.66-2.84.59.28-.55.97-.76 1.58-.65 1.15-.47 1.44-1.18 1.08-2.45 2.4.05 4.78-.21 7.15-.76 1.12-.44 3.93-.17 4.18 1.34.21 1.27-.09 2.48.77 3.44" class="cls-52"/><path d="M48.01 92.86c.17-.43.34-.42.5.03l2.17.18-1.79.71c-1.61.64-2.87 1.34-4.88.64 0 .74-.11 1.11-.27 1.46-.2.44-.83.48-1.29.4l-.04-.26q.465-1.41.06-2.85c-1.3-1.93 2.89-1.24 4.02-.23l1.51-.07Z" class="cls-58"/><path d="M51.06 91.33h2.03c-1.32 1.86-3.78.37-4.56 1.56l-.5-.03c-3.81-.12-4.33-1.05-.02-1.25.53-.02 1.04-.1 1.55-.25.11-.07.37-.04.49-.04.39.36.64.34 1.01 0Z" class="cls-152"/><path d="m56.64 97.9-.58-.09c.09-.54.68-.39.58.09" class="cls-52"/><path d="M43.44 91.33c.47.41 1.01.37 1.52 0 .29-.56.91-.74 1.01 0l3.56.03c-1.1.79-2.44.47-4.15.52.78.77 1.75.96 2.61.97-1.6 1.63-3.73-1.69-5.16-.05l.5 1.81c.13.45-.37 1.08-.94 1.4-.03-.24-.2-.5-.37-.67 0-.63.27-1.51.04-2.01-.24-.54-.89-.79-1.9-1.09.42-.55.92-.58 1.34-.86.08-.38.22-.37.42-.02.26-.65 1.28-.86 1.5-.04Z" class="cls-170"/><path d="M42.04 95.35c.85-.56 1.02-.14.37.67.44-.13.43-.03.04.26-.29.33-.82.55-1.58.65.1 1.17-1.36 1.02-1.46-.12-.93-.08-1.94.38-2.61 1.08-1.53.5-3.82 0-2.92-1.85-.57-1.26-.5-2.04.2-2.34.91.91 2.27.93 4.09.05 1.03-1.44 3.81-.36 3.87 1.6" style="fill:#36312f"/><path d="M41.53 91.39c.47 1.3-.93.65-.86.61 2.04-.94 2.78 2.59 1.37 3.35-2.84-2.84-6.95.17-7.42-.36l-.75-.85.02 1.9c-.57-.55-.44-.86-.71-1.55-.87-2.31.11-2.84 2.94-1.6-.4-.33-.44-.75-.33-1.29.13-.64 4.94-.64 5.76-.21Z" class="cls-152"/><path d="M40.76 95.3c-1.19 1.1-2.45.57-3.45.92l-.46.96c-.15.31-.46.4-.49-.02-.01-.18-.22-.61-.57-1.02 1.07-1.22 3.09-1.73 4.98-.84Z" style="fill:#24201f"/><path d="M36.35 90.82c1.22-.66 3.67-.91 4.56 0 .38-.23.76-.39 1.01 0 .45.14.45.32.02.55l-.42.02-5.21.13c.59.89 1.28.81 1.94.49.19.37.15.89-.1 1.28-.19.28-.72.24-1.23.37-.96.34-1.43.7-2.27-.25-.23-.26-.85-.33-1.1-.2-.47.25-.52.81-.38 1.27l-.79-2.01c-.27-.7.21-1.32.98-1.66h2.98Z" class="cls-9"/><path d="M48.95 32c2.3.66 4.63 2.09 5.17 4.46-.43.66-1.83.35-2.12-.34-1.71 1.44-2.24-.23-2.49-2.03-1.57.03-2.94-.17-4.1-.6.23-1.41 2.22-1.87 3.54-1.49" class="cls-24"/><path d="M57.22 33.64c.16.08.32.27.45.65l1.02.73c-1.9-.02-3.09-1.19-3.9-2.48 1.17.24 1.74.75 2.43 1.1" style="fill:#7c7370"/><path d="M54.12 36.47c.23.09.65.14.92.11.45.11.46.27.04.49.45.11.45.28.03.49-.9.52-2.22.26-2.92-.48-1.19-.05-1.23-.37-.19-.95.74-.03 1.44.07 2.12.34" class="cls-26"/><path d="M57.65 37.06h.5c.07.52.26 1.04.56 1.5-.58.09-1.16-.05-1.56-.49-.17-.3-.32-.28-.5 0h-.51l-.51-.5c-.15.32-.32.31-.5 0l-.03-.49c.51-.55 1.79-.29 2.57-.02Z" class="cls-163"/><path d="m57.65 37.06-2.57.02-.04-.49c.87-.09 1.99-.26 2.6.48" class="cls-24"/><path d="m61.14 39.19 1.68.5c.43.17.41.25-.06.22l2.14 2.13-.14 1.66.13.42-1.3.06c-.18.01-.36.1-.49.22-2.17 2.05-4.18 1.4-7.61.51.4-.91.73-1.36 1.08-1.65-.08-.68-.05-1.22.11-1.62.56-.67 1.55-.7 2.96-.1.48-.52.21-.93-.81-1.24l-.12-1.19 2.44.09Z" style="fill:#3c3837"/><path d="M64.9 42.04c.43.43.13 1.13-.14 1.66l-1.57-.69c.39-.71.98-.96 1.7-.97Z" class="cls-77"/><path d="m58.7 39.1 2.66 1.32-1.37 2.63-3.31-1.42-2.12-1.32c1.26-1.38 2.75-1.26 4.15-1.21Z" style="fill:#312e2d"/><path d="M51.63 40.08c.42.7.04 1.6-.32 2.4.57.28.88-.2.87-.59-.03-1.12 1.46 1 .98 1.28l-1.28.74c-.29.17-.17.86-.28 1.3-.87-.27-.88-2.65-3.09-2.42-1.42-1.76-1.44-3.16 1.01-3.71.17-.24.35-.23.53.02.29.63.85.91 1.57.97" style="fill:#655d5b"/><path d="m47.43 15.97 4.81 1.29c1.57 2.5 3.05 5.88 1.84 8.62-2.34-.42-5.19-.85-7.63-.32-.28-.63.27-1.06 1.66-1.27-1.19-.78-.52-1.5.37-2.2.02-1.78-.61-2.99-1.9-3.63-.16-1.95-1.42-1.64-2.61-.67-.14.44-.31.44-.5 0l.66-1.79c1.18-.15 2.34-.29 3.3-.03" class="cls-55"/><path d="M53.02 25.62c-.67-1.51-.58-2.74-.32-4.3 1.42.93 1.62 2.83.32 4.3" style="fill:#978f8c"/><path d="m52 36.13.19.95-2.46-.02c-.25.15-.46.26-.71.02-.67-.53-1.59-.69-2.74-.49l-.3-.55c-.43.6-.56.66-.7-.1.42-.18.89-.74.53-1.32-.19.06-.77.33-1 .18-.27-.18-.41-.55-.42-.86l1.01-.45c1.22-.55 2.99-.95 4.48-.32.9.38 1.01 1.96.75 2.69.59.3.96.29 1.35.27" style="fill:#857c7a"/><path d="M44.09 29.5c-.16.42-.37.41-.62 0l-1.04-3.79c-.35-1.25-.99-2.85-.03-3.88-.51 2.86 2.35 4.14 1.68 7.66Z" class="cls-140"/><path d="M44.04 31.45c-.36.26-1.18.1-.93-.45l.37-.82c.07-.15.06-.52-.01-.67.17-.04.41-.03.62 0 .16-.21.45-.55.69-.47.26.09.59.51.5.95-.18.84-.71 1.11-1.23 1.48" style="fill:#b3aeab"/><path d="M42.43 20.83c.01-.42.09-.86.51-1.01 0 .42-.09.86-.51 1.01" class="cls-140"/><path d="m45.28 35.95.7.1c1.11.58.53.87-.52 1.01l-5.09 1.02c-1.44-.41-4.06-1.28-2.48-3 .32-.7 1.36-.82 2.02-.29l-.73.53c-.78.56 1.71 2.53 6.1.63" class="cls-125"/><path d="m40.37 38.07-.89.06c-.38.38-1.29.34-1.72-.01-.86-.12-1.47-.48-1.82-1.06-.17.33-.45.27-.69 0-.08.45-.23.44-.44.02l.02-.59c1-.02 2.01-.49 2.49-1.38l.57-.05c.62.37.29 1.77 1.09 2.12.32.14.83.17 1.69-.18.33.39-.08.81-.3 1.06Z" style="fill:#d8d6d3"/><path d="M34.82 48.22c2.98-.15.53 2.12 2.06 5.32.35.33.26.44-.24.36 2.35 5.86-.79 8.45-.82 8.84-.02.24.11.53.45.68.45.09.44.23 0 .42-.85 1.65-1.51 3.22-1.97 4.69.03.26.1.72-.02.99.15.41.15.76 0 1.06l-.58 5.88c-.13 1.35-.05 2.3-.78 3.4.38 1.45 1.37 3.69.14 5.17-1.11-3.97-.7-7.41-.74-10.87.33-.78.66-1.48.98-2.1-.44-1.22-1.01-3.22-.04-4.05-.27-1.54-.57-3.87.55-4.91.19-1.72.65-3.4 1.36-5.03.11-2.36.31-7.03-1.51-8.52-.87.06-1.01-.35-.45-1.25z" class="cls-110"/><path d="m33.26 68 .04 4.05c-.63.63-.78.35-.5-.5-.22-.12-.39-.45-.51-1.01v-4.06c.8-.46 1.13.05.97 1.53Z" class="cls-95"/><path d="m33.3 72.05-.04 2.57-.93-.46-.03-2.61q.21-.66.51 0l.5.5Z" style="fill:#817775"/><path d="M32.79 71.55h-.51v-1.01c.39.18.55.6.51 1.01" class="cls-110"/><path d="m34.29 70.58-.2-.52c-.08-.21.11-.36.19-.54.1.14.19.35.37.5.27.22.1.63-.36.57" class="cls-78"/><path d="m33.21 48.29 2.21 2.27.49 5.12c.18 1.87.86 3.75-1.01 4.99L33.25 68c0-.49-.68-1.14-.97-1.53v-.51c.3-.17.27-.32 0-.51v-2.54l.5-.65c-.24-1.73-.05-3.2.56-4.4-.81 0-.76-.37.06-.57.5-2.45.58-4.85.24-7.19l-.68.79-.38 5.7c.4.79.3 1.37-.3 1.76.86.51.78 3.41 0 4.06-.34-.06-.53-.43-.53-.99V50.2c.01-.82.23-1.49.54-1.99l.93.08Z" style="fill:#8f8885"/><path d="M32.29 62.93v-4.56c.21-.95.4-1.36 1.07-.48l-.07 5.55-.99-.5Z" class="cls-134"/><path d="M32.29 65.97v-.51c.6-.08.6.59 0 .51" class="cls-95"/><path d="M44.85 74.82c.78 1.13 1.27 2.48 1.46 4.05.06.5.62.8 1.69.91l.17.57c-.57.77-.6 1.29-1.81 1.19-2.29-.18-.86-3.29-2.39-2.93v-.42c-1.41-.76-1.61-2.39.41-2.02.06.01-1.26.32-.75-.57-.54-2.06-1.23-4.06-1.24-6.17 1.3-.58 1.8-.01 1.53 1.35.69 1.48 1 2.82.94 4.03Z" class="cls-64"/><path d="m51.48 47.74 4.05 2.59 1.96 4.15c1.88.58 3.26 1.51 4.38 2.82.69 1.39-1.15.53-4.1-.63-.05.89.56 1.17.79 1.63.25.5-.63 1.16-1.15 1.46l.49 3.68c.14 1.05.28 1.9 1.22 2.68l-4.33 8.33-1.95 5.3c-.08.22-.8.3-.84.9-.09 1.44-1.36 2.1-2.48 1.86l.5-1.09c.21-.46-.18-.84-.68-.6-.27.13-1.08.2-1.11.84l-.15 2.56c-.69.55-.52 1.58.19 2.68-1.22.72-2.42.55-3.46.14.91-.58 1.43-.39 2.27-.4l-2.17-1.98c.03-.12.03-.29.02-.42l.55-.48-1.51-2.88c-.61-.17-.53-.49.1-.67l-.11-1.59.89-.82c.25 2.87 1.35 3.72 3.32 2.56 1.48-3.37 2.22-5.06 2.22-5.06 2.05-1.24 3.83-3.9 3.09-6.37.22-1.82.93-3.53 2.12-5.11.09-2.36-.19-4.65-.83-6.86.37-1.31.23-1.88-.76-2.48-.69-.41-.09-1.18.82-1.14l.31-.37-.6-.4q.18-1.74-2.58-2.34c-2.03-.08-3.84-.41-5.44-.99-.19.43-.38.41-.56-.04.39-.62 1.07-1.02 1.63-1.48h3.92v.01Z" style="fill:#524a49"/><path d="M44.93 84.23c-.58-.74-.71-1.62-.84-2.53-.5-.25-.62-.56-.12-.83 1.17.19 2.3 2.92 2.11 3.51-.2.62-.39.19-1.15-.15" class="cls-8"/><path d="m56.13 54.05.25-.25.25.25-.25.25z" class="cls-78"/><path d="m40.94 50.23-.15.49c.42.96.54 2.07.17 3.07v1.51c-.9 2.63-2.39.73-2.42-1.34-1.3-.62-1.55-3.77-1.17-5.24h.51l2.16.07c.51.02 1 .7.9 1.44" style="fill:#4c4645"/><path d="M40.95 55.3c0 1.39-.36 2.92-2.32 3.61-.13-.63.14-1.28.57-1.82-1.04-.89-1.17-1.9-.87-3.18-.68.19-1.12.13-1.69-.02.16-.08.24-.26.24-.36l-.02-4.32c0-.41.32-.51.5-.5-.12 1.01.06 1.77.65 2.54.36 1.95 1.41 4.33 1.67 4.45.32.14 1.03-.23 1.27-.4m0-1.51c0-1.02-.45-2.06-.17-3.07 1.03.61.92 2.35.17 3.07" class="cls-30"/><path d="m46.39 45.51-2.02-.38c.25-.37.47-.85.94-.91.38-.05.75.14 1.35.49.36.21.02.69-.26.8" style="fill:#675f5c"/><path d="M43.43 46.17h-2.52c-.44-.56-.16-.67.52-.5l1.03.02c.21-.31.37-.67.56-.82.27-.22.71.15.6.56l-.2.75Z" class="cls-99"/><path d="M44.06 40.5c1.33.12 1.28.67.4 1.56-.49 1.01-1.55 1.43-3.05 1.14.09 1.14.82 1.64 1.05 2.47-.15.41-.77.36-1.03-.02-4.54.98-6.58.1-6.12-2.65h.63l.45-.15c-.59-.35-.59-2.24.07-2.7.07 0 .28-.02.48.25-.32-1.33.78-1.62 1.94-1.83.17-.3.36-.28.55.02-.09.96-.86 1.48-2.1 2.62 1.22.57 1.89 1.59 2.42 2.58.93.19 1.3-1.01 1.55-1.34.86-.6 2.06-1.2 2.75-1.97Z" style="fill:#69615f"/><path d="M36.46 40.17c.06.9.33 1.81-.07 2.7.08.13.19.22.37.26 1.17.56.09 1.51-.41.52-.03-.28-.13-.48-.4-.64-.95.48-.12 1.73.35 2.17 1.45 1.36 4.14-.58 5.14.47l-.52.52-5.08-.02c-.8-.52-1.16-1.34-1.33-2.26s1.18-1.52 1.08-2.21l-.19-1.3c-.05-.3.79-.43 1.08-.24Zm2.42-1.58c-.85.31-1.27 1.09-1.94 1.83l-.6-1.39 1.02-.42c.39-.36 1.11-.38 1.52-.02" style="fill:#756e6c"/><path d="M42.43 89.81v.51l-1.52.51h-4.56l1.01-1.01h5.07Z" style="fill:#7c7672"/><path d="m65.29 70.62.07 2.93c-.47 1.8.34 3.38.31 5.09l-.19 9.01-.74.13-2.05-.61c-.45-.5-1.2-.58-1.72-.15-.02.06-.02.1-.02.12.52.35-.03.94-.43.49l-.25-.04a.24.24 0 0 1-.18-.13c.44-1.04 1.26-1.66 2.15-2.6l-1.67.4c.93-1.58 2.2-1.9 3.85-2.5l-.4-3.2c.49-3.56.5-7.12-.81-10.75-5.24 3.56-1.8 8.76-4.33 9.59-.41-1.2-1.06-.38-.97.28.44 1.3.2 2.15-.12 3.07-.6-.64-.57-1.4-.61-2.13l-.03-.46v-1.09c1.03-.94-.32-3.12 1.18-5.53l4.46-7.16.36 1.4c.04.15.8.21.81.59.03 1.2-.11 3.07 1.32 3.23Z" style="fill:#36302e"/><path d="M43.96 78.19c.45.09.43.23 0 .42.57.29.71 1.32.11 1.59-1.08-.72-2.32-.6-3.74.34l-.54-.15c-1.89-3.28-2.67-2.45-2.35 2.5-.63.75-.99 1.73-1.1 2.93 1.68 1.29 2.74 2.76 0 2.55-.7-.06-1.39-.1-2.09-.09-.21-1.57.55-3.12.64-4.77l.52-9.49c.13-2.31-.68-4.47-.09-6.5-.86 0-.82-.35.02-.59.94-1.53 1.9-1.94 3.6-2.3.11-1.41.96-2.28 2.27-1.71-.64 2.22-.95 4.28-.91 6.15.16 3.29 1.12 7.14 3.65 9.13Z" class="cls-56"/><path d="m44.07 80.2-.1.67.12.83c-.25-.01-.77-.14-.81-.43l-.14-1.17c-.63-.82-1.23.2-1.24.64-1.86.46-3.69 1.11-3.84 3.84-.67-.26-.72-.59-1.05-1.04-.08 1.26-.42 1.65-.66 2.28l.18-5.92c.04-1.02-.2-1.92.95-2.49.72-.35 2.72 1.41 2.8 1.08-.06.24-.36 1.01.09 1.34 1.33-.8 2.95-.84 3.71.37Z" style="fill:#413b39"/><path d="M42.34 75.59c.1-.33.4-.25.6.02h.68c.9.18 1.41.63 1.23.8-.2.19-.93.3-1.39.4.28.2.6.46.79.72.13.18.02.55-.28.66-.21.18-1.02.45-1.25.22l-1.43-2.14c-1.38-2.07-1.35-4.77-1.97-7.21l1.56-6.19c-.87.8-.9 1.82-1.07 2.83-1.65.05-3.1.63-4.46 1.23-.03-.94.28-1.97.93-3.1v-.42c.64-.76 1.41-.87 2.53-.9l2.86-.06c-.28 2.01-.5 3.66-1.28 5.47.81.26 1.7.85 1.6 1.36l-.36 1.74c.91 3.3.12 4.54.74 4.56Z" class="cls-10"/><path d="M38.22 70.69c1.56 2.34-.23 4.57.85 5.68.14.15-.15.72-.37.67-.25-.06-1.24-.39-1.32-.64l-1.27-6.11c-.21-1.02 1.27-2.75 2.46-3.35-.2 1.1.27 2.41-.34 3.76Z" class="cls-80"/><path d="M35.34 66.93c.04.17.03.45-.02.59-.31-.12-.76-.03-.94.27-.12.2-.12.52-.09.74-.98-.54.48-2.38 1.97-4.69 0 1.12-.55 2.07-.93 3.1" class="cls-78"/><path d="M43.44 90.31c.61.37 1.42.4 2.03 0l8.64.12a.73.73 0 0 1-.27.46l-6.89-.1c-.54 0-.92.19-.98.53h-1.01c-.4.4-1.16.44-1.52 0l-1.5.04-.02-.55c-.15-.17.02-.34.5-.51h1.02Z" style="fill:#85807c"/><path d="M62.21 89.81c.01.34-.13.77-.34.94-.44.34-.94.45-1.98.45 0-.43.36-.87.53-1.34z" class="cls-168"/><path d="M45.48 90.32c-.04.49-.49.5-.78.54-.54.07-1.11-.01-1.25-.54z" class="cls-50"/><path d="M51.06 91.33c.06.27-.09.44-.27.51-.44.19-.81-.14-.75-.51z" class="cls-170"/><path d="M58.04 91.3h-.48c-.08-.54.5-.65.48 0" class="cls-69"/><path d="M44.97 91.33c-.02.47-.39.52-.75.58-.47.07-.78-.09-.77-.58z" class="cls-58"/><path d="M42.43 90.31c0 .28-.23.51-.5.51h-1.01c.28-.56.95-.51 1.52-.51Z" class="cls-50"/><path d="M57.14 38.07h-.5c-.08-.6.59-.6.5 0" class="cls-26"/><path d="M48.11 24.29c-2.63-.52-3.45 2.45-4.25.53.95-1.4 1.41-4.41 1.2-5.99-.04-.26-.62-.36-.99-.41l-.09-.63c.19-.65.78-1.04 1.28-1.09 1.61-.16 1.55 1.82 3.25 1.29.51 1.31.96 2.86.92 4.39-.27.54-1.24 1.23-1.3 1.9Z" style="fill:#96908d"/><path d="m43.86 24.82-.62-1.48c-.01-1.8.46-3.4.82-4.92.12-.63 1.75-1.58 2.11-.81l-.43 5.46c-.05.65-.43 1.29-.75 1.6-.25.24-.77.26-1.13.15" style="fill:#dad9d7"/><path d="M47.21 22.99c.14-1.08.13-2.23.72-3.49 1.03.98 1.22 2.69-.72 3.49" style="fill:#9e9895"/><path d="m47.25 18.59.25.46-.25.25-.25-.25z" class="cls-55"/><path d="m49.02 37.09-2.81.06-.75-.09.52-1.01 3.58.05-.54 1Z" style="fill:#9c9795"/><path d="m39.48 38.14-.05.46-.55-.02-1.52.02c.03-.21.21-.48.4-.48h1.72Z" class="cls-125"/><path d="M37.76 38.13c.26.15.13.31-.4.48.14.86-.57 1.29-1.02.42l-1.07.12q-3.45 3.63-3.84.33l1.42-1.39c.08-.04.23-.02.32 0l.39-.02c.1-.05.19-.14.26-.25-.17-.2 0-.45.51-.76.14-.04.35.03.49.02l.44-.02c.28.28.42.29.69 0 .42 0 1.21-.41 1.57-.24.42.19.33 1.03.25 1.3Z" style="fill:#f1f1f0"/><path d="M35.27 39.14c-.75 1.52-2.66 1.51-2.57 3.55-.11-.26-.55-.42-.65-.24-.16.28-.03.82-.73 1.31-.17-1.31.14-2.7-.51-4.28.63-.71 1.3-1.07 2.04-1.4-.12.25-.97.9-.84 1.24.15.41 1.07 1.43 1.36 1.11.69-.75 1.26-1.21 1.92-1.29Zm-2.11-1.05c.23-.49.64-.88 1.15-1.02l-.51.76.48.46c-.28-.41-.68 0-.27.27l-.46-.48c-.11.06-.26.06-.39.02Zm2.09-1.02h.69c.02.63-.73.63-.69 0" style="fill:#dbdad9"/><path d="M33.41 57.31c-.11.2-.23.37-.39.42-.67.21-.17-6.27 0-7.26.03-.14.29-.25.63-.34 1.46 1.98.65 4.98-.24 7.19Z" class="cls-134"/><path d="M33.64 50.12c.15 4.13-1.61 7.06-.24 7.19l-.06.57-1.07.48v-7.59c0-.36.59-1.06.75-.98l.61.32Z" style="fill:#cbc8c3"/><path d="m49.86 74.5-.8 3.25-1.07 2.03c-.31.72-2.27.59-2.24-.18.08-1.85-.37-3.18-.91-4.79l.55-.04c.78.76 1.75.91 2.91.47-.43-.99.21-3.3 1.72-2.69 1.52.13 0-1.49 1.7-2.54 1.24 1.02-.35 3.71-1.87 4.47" class="cls-151"/><path d="M48.17 80.36c-.91.37-1.03 0-.17-.57l-.56-.38c1.25-1.11 1.58-2.03.98-2.75.28-1.1.76-1.81 1.45-2.15 2.13-1.27 3.02-3.89 1.81-5.97-.44-.14-.44-.3 0-.49-.34-.38-.52-.77-.07-1.12-.45-.09-.44-.23 0-.42-.36-.2-.35-.65.02-1.36 2.63-.81 3.23-3.12 1.81-6.94-1.35-.67-1.27-3.54-.65-4.48l.39-.23c-.81-1.8-2.54-2.7-5.19-2.69l-1-.48c-.48-.23-.83-.67-.49-1.09l6.04.43c1.84.13 3.03 1.68 2.59 3.3l.29.27c.18.31-.16.47-.37.31a.66.66 0 0 0-.23-.21c-.29.2-.15.86.07 1.02.36.27.9.43 1.92.68-1.62 1.38-.9 3.04-.79 4.9.07 1.29-.48 2.48.7 3.77-2.08 2.29-2.42 5.31-2.32 8.35l-2.18 2.42c1.19-.65 1.68 0 1.17.71-1.89-.12-3.1.98-3.31 2.4s-1.32 1.99-1.9 2.78Z" class="cls-78"/><path d="M46.98 50.33c-.16.44-.34.42-.54-.03-.84.18-1.07.06-.54-.66l.03-.44.56.04z" class="cls-45"/><path d="M51.6 66.5c-1.43 1.4-2.28.08-1.38-1.55-.95-1.67-1.39-3.25-1.31-4.73-.43-.15-.37-.24.12-.27 1.28-.75 3.03-2.52 3.24-4.24.13-1.08-.56-2.35.24-3.41-2.6-.27-4.83-.33-5.54-1.98 1.29-.5 5.23.59 5.19.55.42.38.61 1.03.78 1.63l.39-1.22c.05-.16.69.49.61.66l-.77 1.55c.08.08.14.2.15.32.02.15-.11.25-.26.23l-.29-.33c-.48.23-.33 1.13.09 1.12l1.98-.05-2.14 1.62c2.21 1.2 2.3 2.47 2.17 4.6-.08 1.32.6 3.42-1.03 4.24-.71.36-2.02.28-2.26 1.25Zm-1.74 8c.04-.66.58-1 1.43-1.34l.43-3.14c-.25-.11-.22-.37-.17-.49-.83-.59-.98-1.6.11-1.01.69.06 1.23.75 1.27 1.35.05.68-1.18 4.75-3.09 4.63Z" class="cls-123"/><path d="M48.97 53.33v.48c2.1.74 2.26 1.72.48 2.95-.1 1.09-.46 1.78-1.11 2.07l-.34.37c.97.06.8.93 0 1.25-.58 1.2.81 2.81-.03 5.35l-.24.94c1.82 2.14 1.83 6.24-.19 8.24-1.1 3.07-1.92-.59-2.02-2.37.54-1.89.18-3.9-.15-6.1l-1.28.29c-.16-1.81.36-2.78 1.47-4-.53-.68-1.32-2.29-.51-3 .04-.85-.39-1.55-1.29-2.09l.35-1.66c-1.31-2.62 3.48-4.87 4.87-2.73Z" class="cls-139"/><path d="M48.97 53.33c-1.15-.75-2.54-.28-3.27.73-.31.14-1.03.22-1.05.8-.02.44.84.72 1.34 1.14l-1.32.87c-.56.37.92 1.29 1.1 2.28.07.37-.52.48-.74.66-.69-.72-1.37-1.28-2.63-1.14.15-1.69.18-3.83 1.04-5.25 1.27-2.12 5.34-1.55 5.83-.76.14.24.42.58-.31.67Z" class="cls-36"/><path d="m49.04 59.96-.12.27-.92.22c.14-.29.03-.93 0-1.25l-.33-.2c-.42-.31.05-.87.41-.41.04.08.13.2.26.25.14-1.02.02-2.29.82-3.27.94.55 1.43-.51.56-.85l-.93-.41c-.18-.08-.34-.46.19-.5.83.14 1.69-.17 2.68.54-1.3 1.89-1.8 3.84-2.6 5.61Z" class="cls-36"/><path d="M47.53 74.98c.52-.85.91-.71.77.28-.33.51-.76 1.05-.97 1.61h.96c.41 0 .38.34.22.48-1.09.95-1.09 2.41-1.81 1.34-.12-.18 0-.39-.11-.7l-1.21-3.2v-1.71l.12-.46c.86.66.36 2.25.79 2.52.29.19.91.05 1.22-.15Z" class="cls-120"/><path d="m46.98 50.33 2.07.71c3.19.02 4.33 1.26 3.41 3.74 1.04-.05 1.06.44.06 1.46.99 1.45-1.76 4.84-3.48 3.72-.82-.92.29-3.43 1.42-4.36-.21-.82-.7-1.42-1.5-1.79-.45-.11-.43-.27 0-.48-2.78-3.11-8.17 2.81-3.77 5.79l-.15.69c1.78 2.07 1.2 3.57.14 5.87 1.61.83 2.7 6.37.34 6.94l-.13.46-.68-.03c-.68-2.21-1.65-4.27-2.91-6.16l.7-2.5c-1.2-3.35-1.31-7-.46-10.44.11-2.52.75-3.39 1.92-2.59.82-1.03 1.65-1.38 2.5-1.04.13 0 .45.03.54.03Z" style="fill:#736b69"/><path d="M45.55 49.6c-.05.57-.58 1.15-1.6 1.75-1.01.42-1.65 1.5-1.92 2.59l-.04-4.15c1.32-.26 2.51-.46 3.56-.2Z" class="cls-45"/><path d="M45.39 73.07c.49.36.56 1.38 0 1.71-.13.45-.31.46-.55.04l-1.16-3.46c-.29-.85-.66-1.57-1.31-1.92 0-1.33-2.13-3.6.11-5.06.27.74.41 1.39-.51 2.41l3.27.94c-.7.6-1.12.35-1.51.27-.25-.05-.51.46-.04.61l1.21.4c-1.09 1.46-.76 2.97.47 4.06Z" style="fill:#6b6361"/><path d="M45.91 49.64c.23.18.41.41.54.66l-2.5 1.04c.28-.78.87-1.35 1.6-1.75.12.03.24.05.36.05" class="cls-123"/><path d="m43.45 62.17.25-.25.25.25-.25.25z" class="cls-139"/><path d="m50.8 52.78.25.25-.25.38-.25-.38z" class="cls-36"/><path d="m42.94 75.61-.6-.02c-.03-.61.67-.61.6.02" class="cls-64"/><path d="M45.46 37.05c.47-.57.66-.68.75.09.96.73 2.14.7 3.52-.08.08-1.17.9-1.16 2.46.02.95.3 1.92.47 2.92.48h.5c.22.14.21.31-.01.49-.71-.02-1.83.22-2.46-.04-1.13-.85-3.52.08-3.56.26-.06.23.36.62.47.83l-.53-.02c-1.24 1.28-3.78 1.59-5.47 1.42-.08 1.36-1.02 2.23-2.85 2.59-.05 3.66-4.38.03-4.2-2.38l2.42-2.11c-.43-.15-.41-.3.05-.46-.08-.63.66-.68.89-.06.87-1.04 3.96-1.53 5.09-1.02Z" style="fill:#585150"/><path d="M49.53 39.08c-.95 1.01-1.17 2.36-1.01 3.71-.15-.17-.57-1-.78-.9l-1.12.49c-.5.22-1.7-.75-2.16-.31-.33-.5-.43-1.03-.4-1.56 1.25-1.36 3.75-1.5 5.47-1.42Z" style="fill:#6f6765"/><path d="m56.12 38.07-.52-.02v-.48c.26 0 .46.26.52.5" class="cls-26"/><path d="m49.02 37.09.71-.02c-1.23 1.08-2.75 2.4-4.26 1.31.78-.35.91-.89.75-1.23.08-.88 2.42-.79 2.81-.06Z" style="fill:#4e4947"/><path d="M43.4 38.9c.05.83-1.42 2.38-2.25 2.59-.43.11-1.5-.57-1.64-1.09 1.48-1.85 3.83-2.64 3.89-1.5" style="fill:#4a4544"/><path d="M48.92 60.23c.7.28.92.85.87 1.6.77-.82 1.59-.14.62.44 0 .94.7 1.92 1 2.86-.37.34-.66.82-.68 1.09-.02.23.71.39.87.29v.42q.12.84-1.05 1.08c.44.08.78.6 1.01 1.54.82-.22.93.13.17.49-.5 2.25-1.07 3.1-1.7 2.54l-.73-.04c-.41-1.4-.68-2.95-.81-4.67-1.01-.31-1.19-1-.52-2.06-.99-.82-1.82-5.4.03-5.35-.07-1.37.21-1.34.92-.22Z" style="fill:#756e6b"/><path d="M51.68 68.04c-.45.8-.78.86-1.12-.04.1-.52.57-.9 1.05-1.08.26.11.43.38.37.68-.04.16-.15.33-.3.44" class="cls-123"/><path d="M51.68 68.04v.49c-.29.02-.48.29-.41.48.07.21.2.4.3.53-.67-.18-1.14-.85-1.01-1.54z" class="cls-151"/><path d="m50.03 72.57-1.72 2.69-.77-.28.64-5.34c.06-.57.17-1.3-.17-1.65-.22-.22-.67-.28-.98-.23.14-1.18.64-1.53.95-1.95-.02.09-.03.93.09 1.16.14.26.52.3 1.06.5-.12.59-.13 1.65.12 1.74l1.23.46c-.52.96-.84 2-.44 2.9Z" class="cls-24"/><path d="m49.78 65.97.36.25-.36.25-.25-.25z" class="cls-123"/></g></svg>