<svg xmlns="http://www.w3.org/2000/svg" id="Layer_2" data-name="Layer 2" viewBox="0 0 196.75 394.29"><defs><style>.cls-3{fill:#383130}.cls-8{fill:#4c4341}.cls-9{fill:#47403e}.cls-10{fill:#554e4c}.cls-13{fill:#2d2826}.cls-14{fill:#302a29}.cls-20{fill:#383433}.cls-24{fill:#7d7572}.cls-25{fill:#585250}.cls-26{fill:#918b88}.cls-30{fill:#544d4c}.cls-36{fill:#7d7573}.cls-38{fill:#3b3532}.cls-45{fill:#675f5d}.cls-50{fill:#8d8883}.cls-52{fill:#4f4644}.cls-54{fill:#2b2725}.cls-55{fill:#5e5856}.cls-56{fill:#47413f}.cls-58{fill:#4a4340}.cls-62{fill:#66605d}.cls-64{fill:#5f5856}.cls-69{fill:#463e3b}.cls-71{fill:#312c2a}.cls-77{fill:#484341}.cls-78{fill:#5c5554}.cls-80{fill:#3f3938}.cls-81{fill:#3e3634}.cls-83{fill:#4b4442}.cls-85{fill:#35302e}.cls-88{fill:#2c2928}.cls-95{fill:#8c8482}.cls-96{fill:#544b49}.cls-98{fill:#3c3937}.cls-99{fill:#817976}.cls-101{fill:#3d3836}.cls-110{fill:#67615f}.cls-113{fill:#373231}.cls-120{fill:#756d6a}.cls-122{fill:#3d3938}.cls-123{fill:#67605e}.cls-125{fill:#bebbb9}.cls-127{fill:#3c3737}.cls-134{fill:#c2beba}.cls-139{fill:#877f7d}.cls-140{fill:#393535}.cls-148{fill:#393434}.cls-150{fill:#4f4946}.cls-151{fill:#6c6462}.cls-152{fill:#3c3533}.cls-156{fill:#38302e}.cls-158{fill:#514c4a}.cls-163{fill:#938e8b}.cls-168{fill:#736e6a}.cls-170{fill:#3e3735}.cls-171{fill:#484241}</style></defs><g id="Layer_1-2" data-name="Layer 1"><path d="M156.13 129.91c-.1 12.44-17.23-.28-18.1-7.68-1.71-.75-1.63-1.49.14-2.22z" class="cls-148"/><path d="M136.1 100.11v-10c3.07 2.02 3.07 7.98 0 10m-2.04 7.99c.06-1.7.25-3.32 2.05-3.99 0 1.67-.34 3.39-2.05 3.99m2.05-22.02c-.89.12-2.03 1.12-2.02 2.07-3.29 2.69-4.47 1.48-1.96-2.03 1.49-.72 2.13-2.37 2.14-4.08z" style="fill:#393534"/><path d="m130.12 4.09-2.02.02V2.14c.76.09 1.52 1.45 2.02 1.95" class="cls-96"/><path d="M189.86 150.34c-2.48-.18-1.89-2.83.17-2.39.14.77-.15 1.66-.17 2.39" style="fill:#141010"/><path d="m190.21 192.57.33 147.25c10.51 16.24 7.29 39.82-10.17 45.84-1.8.18-2.34-.43-1.48-1.92-1.77-.26-1.76-.82-.09-1.67l1.92-4.45c2.22 2.02 4.79 1.07 7.74-2.85q-4.32-3.645 1.2-12.03l-.87-7.72c-2.35-4.29-2.38-7.77-.09-10.43-2.33-.46-3.8-2.56-2.1-4.44-4.71 1.07-3.81-12.01-.6-13.61-1.47-5.06-2.87-10.25-3.17-15.57-.7-12.45-1.78-53.25 1.21-63.45.17-.58.92-.99 1.83-1.36-2.12-13.98-2.78-28.1-1.99-42.37l-1.79.46c-1 12.03-2.03 23.97-3.08 35.81l-2.81.1c-4.07-1.53-5.37-6.03-3.88-13.48.87 9.47-1.19 13.34-6.19 11.59-2.28-2.14-2.28-6.19-.02-12.14-3.28.25-2.73-2.78-.01-4 1.65-9.29 1.57-18.83.12-28.15-1.77-.19-1.72-.72 0-1.56-1.21-.51-.85-1.39.06-2.34-3.84-.21-3.75-1.67.08-2.67 4.22-3.47 15.17-2.8 21.53-2.35q3.675-4.2 2.34 7.53Z" class="cls-88"/><path d="M35.92 388c7.27 3.02 14.12 1.09 21.29-1.54l1.13 2.55c9.53-.23 18.78.14 27.76 1.11q39.36.855 78 2.01c.19.64-.72 2.18-2.17 2.17l-125.8-.91c-10.83-.08-23.25-7.74-30.06-15-2.02-3.31-.74-4.2 2.46-1.86l2.79-1.21 17.5 9.29c2.09-3.52 4.46-2.39 7.11 3.41Z" style="fill:#363331"/><path d="m190.21 192.57-2.59-6.87-21.28 1.69c-8.79-.93-17.54-.7-26.25.71-.56 1.75-1.23 1.73-2 0-5.23-.07-8.6-1.33-10.1-3.79 4.12-2.7 9.98-3.43 17.58-2.2l9.43-2.23c1.04 2.34 3.44 3.63 7.2 3.88.25-5.33 2.07-5.07 3.6-.01 6.05-.02 12.59.42 18.41-1.32.26-.94.81-1 1.61-.31 1.29 1.41 2.88 1.45 4.76.13q-2.07-5.925.57-14.43c-1.15-5.28-.78-9.17 1.1-11.68l-2.22-2.02c-1.92-.25-1.95-.91-.23-1.97-1.08-.5-1.01-1.11.05-1.83-1.01-.87-.95-1.66.17-2.39 9.25 8.35 7.04 30.62 4.55 34.82-2 3.38-4.38 6.34-4.37 9.8Z" style="fill:#211d1b"/><path d="m134.24 46.11-.18 3.88-1.75 2.48-4.09 5.34-2.53 2.9c-2.8-1.28-4.01-1.74-5.39 1.7-10.39.83-20.46.07-30.2-2.3-.58 1.5-1.25 1.48-2 0-3.01-.57-5.64-1.3-7.9-2.2-2.33.26-5.08.28-8.25.05 1.92.61 1.97 1.33.13 2.15-.61.96-1.27.93-1.98 0-1.33-.61-1.3-1.27.03-2-10.08-9.36 6.33-10.48 12.44-4.22.46-1.73 1-1.66 1.63.1 3.93 1.57 8.19 1.78 12.11.06.9-5.28 2.74-4.95 4.03.19 6.41-4.29 14.63-5.69 24.65-4.19 1.56-3.69 3.89-5.04 6.99-4.04.9-1.96 1.56-1.98 2.28.1Z" style="fill:#1e1b19"/><path d="M8.1 344.16c-3.89 3.63-3.64-.26-2.09-4.41l.02-125.66c.61-1.74 1.32-1.71 2.1.02 1.3 42.04 1.63 84.59.98 127.64 2.53.9 1.99 1.69-1 2.41Z" style="fill:#1a1514"/><path d="M82.1 38.04c3.87-.38 3.88 1.18.01 2.34-1.62 6.04-3.51 5.11-6.09-.12-1 .44-.35 2.42 1.96 5.94 2.58 1.42 5.41 4.76 4.58 7.69l-13.93.28c-.07 2.12.76 3.05 1.49 3.94-.66 1.32-1.35 1.26-2.08-.08-2.73-2.87-5.54-5.95-6.09-9.15-.82-4.77.06-8.87 3.84-11.14.25-1.33.54-2.37.95-2.42 2.91-.35 14.25.45 15.36 2.72" class="cls-3"/><path d="M44.16 130.25c3.3 6.61-7.36 9.47-12.41 7.64-.62 3.91-5.37 6.95-8.41 4.07-17.94 9.36-18.76 20.66-16.55 38.92l-2.69 1.2c1.74.59 1.71 1.27-.01 2.03-.6 1-1.25.98-1.96 0l-.03-1.99c-1.09-1.42-1.58-3.05-.06-4.08-.63-4.49-1.28-9.13-1.94-13.93l-.04-4.04 1.88-4.04c2.77-5.96 6.73-11.57 13.46-14.68l28.7-13.22c1.77.55 1.76 1.26.07 2.11Z" style="fill:#312d2c"/><path d="M66.72 75.15c3.15 1.01 2.66 2.34-.62 2.96l-1.86 2.1 2.71 2.78-2.44 21.39c5.18 9.2 3.75 26.12-10.31 21.57l-2.1.16v-2l2.34-2.2c.42.07 1.01.15 1.39 0l2.29-1.73c5.92-4.66 3.43-10.7 1.23-17.4-3.9-11.88 2.21-24.47 6.58-34.65.61-1.42 1.33-1.41 2.16-.04 3.56-.59 3.1 1.76-1.38 7.04Z" style="fill:#2f2a28"/><path d="m92.12 0 16.05 1.66-.08 2.45c-1.16 2.67-4.51 2.67-10.06 0-3.86 6.93-14.83 4.27-19.43.04l-.42 2.66c-11.95.41-13.69 9.64-8.13 19.39 7.86 1.95 3.67 9.44-3.95 6.08-2.09 1.21-2.82.16-1.99-2.16-.59-7.07-1.18-14.37-1.77-21.89.04-5.31 6.65-6.13 11.26-6.55L92.12.01Z" style="fill:#454240"/><path d="M134.1 390.05c5.15-1.08 10.46-1.5 15.95-1.27 5.46-3.11 10.74-5.49 14.11.68 3.55-.62 4.62.03 1.99 2.7l-2.05-.04-75.87-.02c-1.42 0-2.25-1.21-2.13-1.99 15.19-.74 30.76-1.37 46.71-1.9l1.3 1.84Z" style="fill:#25211f"/><path d="M18.12 184.08c-.57-4.92 2.08-4.91 7.97.03 5.1.23 7.77 1.56 8 4-.65 1.32-1.35 1.27-2.1-.05-2.29 5.68-14.14 5.79-15.66-.36l-6.65-.12c-.07 9.11-.6 17.95-1.56 26.51l-2.1-.02c0-9.36 1.42-19.21-1.68-27.95-.94-.48-.98-1.16-.26-2.02v-2.03c.66-1.71 1.31-1.66 1.97.1 3.63 1.02 7.65 1.65 12.07 1.9Z" style="fill:#201c1c"/><path d="M8.1 344.16c4.78 2.98 3.59 5.13-1.92 3.75-.23 1.57-.9 2.56-1.99 2.96 3.24 2.94 5.18 15.59.07 17.09l1.82 4.54c3.79-2.57 5.64 1.08 2.45 4.02l-2.46 1.86c-9.34-9.96-6.7-27.91-.06-38.63 0 2 .13 3.49 2.09 4.41" style="fill:#2a2826"/><path d="m132.3 34.58-1.93 3.32c-.94 1.62-2.45 2.25-4.28 2.24-8.63-.87-17.35-1.69-26.16-2.45 1-1.94 3.05-3.13 6.16-3.58l2.31-3.91 21.94 1.75c.65-1.67 1.19-1.53 1.62.29q1.59-.57.33 2.34Zm-66.2-2.31 11-2.31 2.93 3.87q-.285-7.605 6.12.12c4.47.78 5.81 2.16 4.01 4.13-1.02 1.87-6.33 1.7-8.06-.05l-16.3-.3c-1.65-2.21-3.67-4.71-3.64-7.63.55-1.75 1.2-1.72 1.95 0l1.99 2.16Z" style="fill:#211c1a"/><path d="m134.11 32.11-2.14.13-1.62-.29c-4.96-4.09-3.14-18.72-.24-23.83-1.48-2.39-.52-3.36 2.02-2.05.81.8 2.07 1.82 2.06 3.89l-.09 22.15Z" style="fill:#2b2827"/><path d="M136.09 90.11c1.59 3.09 1.57 6.88 0 10v4l-2.04 3.99c-.12 3.51.27 6.94 2.03 10.01.85 1.58.84 2.92-.03 4.03-2.9 1.37-7.52-2.59-5.92-5.97-2.31-3.47-.22-21.44 1.28-26.49.21-.71 1.31-1.16 2.67-1.53-1.33-2.07-.31-2.96 2.02-2.07l-.02 4.03Z" class="cls-148"/><path d="M134.27 82.05c.83 2.63.75 4.45-2.14 4.08-4.01-3.03-8.47-15.03-6.37-19.79.4-2.2 1.2-2.95 2.41-2.24 3.56 5.14 3.64 12.58 6.09 17.95Z" style="fill:#312e2c"/><path d="M120.06 2.07c-2.12.74-4.78 1.42-7.96 2.04-1.84 2.25-3.27 3.02-4-.01-3.75-4.34-12.25.36-15.98-4.11h24.12c2.15 0 3.62.76 3.82 2.07Z" style="fill:#433f3e"/><path d="M178.9 383.73c.64.55 1.19 1.19 1.48 1.92l-1.9.65-2.32 1.93-5.79 1.91-2.33 1.98c-.56.16-1.31.04-1.9.03l-1.99-2.7c-.96-3.42 1.94-5.17 8.71-5.26-.14-1.79.3-1.71 1.24 0 1.45-1.07 3.34-1.7 4.78-.48Z" style="fill:#2b2825"/><path d="M64.1 30.11h-1.95l.18-21.89c1.1.12 1.87 1.61 1.86 3.73z" style="fill:#1a1615"/><path d="m120.06 2.07 8.02.07v1.97c1.76.57 1.73 1.24.01 2-.23 2.88-.69 3.42-1.44 1.05-4.47.23-7.33-.78-8.56-3.04.23 3.11-5.17 2.93-6 0 1.37-2.83 5.2-2.07 7.96-2.04Z" style="fill:#332f2e"/><path d="M2.04 178.04c-.49 1.77-1.14 1.77-1.97.08l.02-14.01c3.21 3.68 1.87 9.3 1.94 13.93Z" style="fill:#1f1a19"/><path d="m132.13 6.07-2.02 2.05c-2.43 2.46-2.81 1.34-2.01-2v-2c.61-.92 1.29-.91 2.02-.02l2.02 1.98Z" style="fill:#211d1c"/><path d="m128.18 64.09-2.41 2.24c-1.72-.14-1.59-.72.09-1.66-2.03-3.9-2.13-6.28 2.34-4.56z" style="fill:#1d1917"/><path d="M70.1 66.11c2.61 2.8 1.5 3.84-2 2l-2.16.04c.65-1.52 1.07-2.9 2.16-4.04.92-1.11 1.59-.44 2 2" class="cls-20"/><path d="m138.17 120.01-.14 2.22c-.64 1.72-1.29 1.66-1.97-.09-1.05-1.2-1.22-2.94.03-4.03.62.64 1.31 1.48 2.08 1.9" style="fill:#120e0d"/><path d="m136.06 122.14 1.97.09c6.18 6.77 18.65 12.04 18.1 7.68l4.21 1.99c-.95.14-2.43-.54-4.35 1.23l16.42 8.13c-4.78 3.18-7.8 1.55-12.57.65 1.44 3.23 3.4 2.89 5.43 4.02 1.28.71.85 2.61-.53 3.91.27 1.9-1.03 1.31-2.66.2-1.76 1.73-6.91-.06-8.11-2.25-3.15-1.1-4.48-2.37-3.98-3.8a43.9 43.9 0 0 0-11.88-4.79c.98-3.16-.98-4.07-3.94-4-2.47.89-3.33-.37-1.77-2.58-2.05-1.53-2.81-2.94-2.26-4.22l1.31-2.42c-3.04-1.04-4.15-2.73-3.32-5.06-2.35-1.22-2.5-1.86.04-2.67-.09-3.03.57-3.73 1.98-2.09 1.77 2.14 3.4 4.61 5.92 5.97Z" class="cls-122"/><path d="m.06 160.07 1.88-4.04c.33 1.72-.31 3.37-1.88 4.04m2.04 22.04c-1.75-.63-2.03-2.31-2.03-3.99l1.97-.08.06 4.08Z" class="cls-171"/><path d="M72.08 60.11c3.11 3.04 1.87 4.33-1.98 1.99-.56 1.75-1.23 1.73-2 .01v-2c.58-1.35 1.25-1.32 2 0z" class="cls-3"/><path d="m70.1 66.11-2-2v-2l2-.01c5.31.64 5.08 2.49 0 4.01" style="fill:#1c1714"/><path d="m132.3 34.58-.33-2.34 2.14-.13z" class="cls-96"/><path d="M132.3 52.47c.39-.95 1.02-1.79 1.75-2.48-.05.97-1.24 1.82-1.75 2.48" class="cls-83"/><path d="m70.09 60.11-2 .01-.04-2.09 2.07.08zm58.12-2.3-.02 2.3c-1.82.68-2.54 2.7-2.34 4.56-2.38 1.76-3.2-1.24-3.65-3.81-.22-1.24 8.18 22.16 4.34 22.87 1.2 7.38 1.23 15.07-.22 22.46 4.14-.69 2.9 6.61-.23 7.92-5.57 1.7-7.59-2.32-6.06-12.07l-2.99-3.42c2.14-15.9-3.97-30.49-21.67-31.26l-1.57-4.39-3.7-2.86c4.44-3.92 10.92-.45 16.97-.73l21.15-1.57Z" class="cls-20"/><path d="M4.34 186.14c-1.18-.29-2.21-1.08-2.22-2.03h1.96c0 .65.04 1.42.26 2.03" class="cls-171"/><path d="M48.1 128.11h-2c.33-.95 1.06-1.66 2-2zm4-2h-2l2-2z" class="cls-9"/><path d="m52.1 124.11 2.34-2.2z" class="cls-98"/><path d="M176.16 388.24c.53-.88 1.34-1.6 2.32-1.93z" class="cls-88"/><path d="M168.04 392.13a7.4 7.4 0 0 1 2.33-1.98c-.47.91-1.34 1.71-2.33 1.98" class="cls-38"/><path d="m55.82 121.92 2.29-1.73c-.61.48-1.35 1.38-2.29 1.73" class="cls-98"/><path d="M176.2 240.15c3.5.04 2.86 2.86-.08 4.13a455 455 0 0 0-2.18 47.74c-.11 11.13-1.09 22.57-2.95 34.33l2.22 4.91c5.49-1.54 7.79.23 6.89 5.31q-3.105 4.56.06 5.76c.97-4.22 2.29-4.62 4.05-.56 1.71-1.25 2.73 1.18 1.89 3.03 1.33 5.17-.42 5.61-3.63 1.4l-2.54 1.88c-.35 1.86-.94 1.83-1.75.04l-4.09 2.07c-.16 1.78-.7 1.73-1.58.04l-2.33 2.06c.12 1.88-.44 1.82-1.58.09-1.71.78-3.48 1.51-4.51-.25-.59 1.3-1.26 1.28-2 0-5.63-.98-4.75-1.52 0-4 1.3-.76 2.27-1.59 2.92-2.49l-3.95-2.34c1.69-20.96 2.13-42.09.53-63.54l2.64-1.27c-3.04-6.22-4.29-21.06-2.67-28.31.1-.44 1.02-.7 2.18-.9-.36-5.12.44-8.78 2.38-10.99 3.06-1.35 1.7-5.27 1.9-7.92l2.42-32.05c.21-2.84 2.32-4.86 4.48-4.16 4.81 1.56 1.58 14.15 1.48 22.09l-.21 23.93Z" style="fill:#252222"/><path d="m182.1 236.11-.06 4.07-2.17 13.59c4.17 1 4.07 6.97-.02 8.36-1.35 9.3-1.43 18.78.39 28.02l2.69 1.42c-.77 11.87.26 23.53 3.08 34.95l.6 13.61c.43 3.02.13 3.66-2.4 1.62l-4.05.56q-3.87.03-.63-7.02c-5.3-2.54-8.18-5.86-8.65-9.97 1.62-13.13 3.34-26.2 5.17-39.22l-2.04-.91c.16-13.73.86-27.37 2.11-40.92 0-1.18-.41-3.25.08-4.13 2.58-4.69.73-14.13 5.89-35.91.97.29 1.72.58 1.75.93.55 9.09.62 20.54.11 29.63-.03.47-.82.9-1.84 1.32Z" style="fill:#3a3431"/><path d="m185.87 246.16.13 80.38c-2.38-4.01-6.14-11.03-6.31-15.57 1.17-7.68.63-13.83.54-20.8-1.83-9.15-1.75-18.78-.39-28.02-.04-3.18-.81-5.01.02-8.36l2.17-13.59.06-4.07c2.32.92 3.58 4.27 3.77 10.04Z" class="cls-10"/><path d="M188.7 344.58c6.11 8.65 4.16 20.92-.24 30.18-7.92 8.06-10.02 6.57-6.3-4.46-3.89.35-3.87-1.25.01-2.44 3.3-4.29 4.08-11.87-1.94-13.83-.12 5.73-4.71 5.49-6.12.03l-2.22 2.04c-.46 1.74-1.04 1.67-1.74-.09l-2.01 8.05c-6.46 1.68-5.71-5.77-2.05-9.99q.105-1.515 2.52-1.71c.48.03 1.13.08 1.58-.09l2.33-2.06 1.58-.04 4.09-2.07c.53.08 1.24.08 1.75-.04l2.54-1.88 3.63-1.4c-.68-2.81.18-2.88 2.6-.21Z" style="fill:#4f4744"/><path d="m185.87 246.16-3.77-10.05-.01-31.87 3.38-14.28z" class="cls-150"/><path d="M118.09 188.11c.57-1.75 1.24-1.72 2 0 11.6.05 17.11 4.44 16.53 13.16 15.83 10.7 16.16 7.54 16.08-10.69l4.11-2.56c2.47-1.23 5.64-1.45 9.52-.64l-.08 2.67-.06 2.34v1.56c1.03 7.87 2.13 16.61-.1 24.15-.65 1.75-1.4 1.72-2.24 0-4.56-.95-4.22-4.91-.77-7.31-.65-8.23-2.17-11.22-4.57-8.98 2.26 7.11 5.2 20.27-3.77 22.41.16 4.06-1.17 4.62-3.98 1.65-9.19-2.21-20.42-7.2-23.99-15.92.02-9.36-5.76-15.63-17.35-18.82l.37-2.93c.53-3.95 5.28-1.86 8.3-.11Z" style="fill:#4b4443"/><path d="M188.46 374.77c-1.82 3.84-5.3 6.47-9.65 7.3l-4.69 2.15h-1.24c-3.28 1.74-5.02 2.63-5.36-1.42.17-4.92 9.76-14.19 14.64-12.49 1.28.39 2.09 1.8 1.79 2.72-.41 1.24-1.66 2.57-1.64 5.32l6.15-3.57Z" style="fill:#433c39"/><path d="M166.09 222.11c-2.34-.09-1.83-2.77 0-4l.11-24.15c2.97 7.26 2.99 21.54-.12 28.15Z" class="cls-101"/><path d="m178.81 382.06.09 1.67-4.78.48c.8-2.18 3.01-1.83 4.69-2.15" class="cls-38"/><path d="M166.2 192.4c-3.09.35-2.41-2.86.06-2.34.95.63.84 1.71-.06 2.34" class="cls-101"/><path d="m188.7 344.58-2.6.21-1.89-3.03c.8-.11 1.67-1.14 2.4-1.62.06 1.29 1.34 3.37 2.1 4.44Z" class="cls-85"/><path d="m62.18 381.72 1.45 3.35c4.23-.62 7.21.34 8.92 2.89 4.68-1.67 9.61-2.86 14.82-3.56 14.37 2.75 28.62 3.29 42.74 1.64.39-2.33 2.8-2.58 7.22-.76l10.83-.94c2.73-6.45 7.89-4.21 4.19 1.95l.02 2.08c-6.16.24-12.26.8-18.29 1.69l-48.01.06-44.18.44c-2.92.03-4.52-1.91-5.99-2.56 1-4.37 5.01-4.88 12.01-1.54l3.96-.48c-1.76-7.27 6.72-10.74 10.29-4.26Z" class="cls-56"/><path d="M8.03 352.24c4.38 1.56 6.73 6.26 7.04 14.1 2.82 7.84 10.94 13.24 17.38 7.43 3.75-.76 9.6 12.05 3.47 14.22-9.32-2.71-19.56-5.15-27.4-11.49l-2.45-4.02-1.82-4.54-.07-17.09c.52-1.1 1.15-1.08 1.88-.04 1.71-1.05 2.36-.58 1.97 1.4Z" style="fill:#48423f"/><path d="M189.81 152.17c-.02.61.01 1.4.23 1.97l2.22 2.02c2.94 8.11 3.55 18.93-1.67 26.11-1.59 1.11-3.53 1.81-4.76-.13-.55 0-1.21.19-1.61.31l2.18-8.04c.83-5.52.76-11.16-.12-16.66.06-.5.1-1.24-.08-1.69l-1.98-2.05-2.06-4.03c2.66.23 5.27.97 7.65 2.2Z" style="fill:#504846"/><path d="M186.4 174.41c.56-3.72-1.05-8.6-.64-12.18l.52-4.49c3.18 4.95 1.51 11.33.12 16.66Z" class="cls-122"/><path d="m166.12 149.96-.03 2.15-2.03.03c-1.98.69-2.77-.21-1.97-2.1.61.25 2-.07 2.66-.2.36-.07.95.03 1.37.12" class="cls-158"/><path d="m160.34 131.9 21.09 9.92c10.2 7.02-.88 9.63-4.04 1.72l-1.35 1.58c2.43.99 5.76 2.36 6.11 4.85 3.53 1.33 4.22 2.67 2.06 4.03l1.98 2.05c1.89.16 1.86.74.08 1.69.87 2.13.69 3.63-.52 4.49-2.48 1.3-5.63 1.23-9.43-.2-2.49 5.66-2.19 9.52.92 11.6q5.985-1.935 9.15.78c5.38 1.81 2.4 7.23-2.18 8.04-2.98 3.61-14.8 4.23-18.41 1.32-3.08-3.64-3.31-9.01-.69-16.12-2.27-3.47-1.13-6.78 3.41-9.93 2.32-2.8 3.51-5.22 3.58-7.28-2.12.26-4.12.11-5.99-.47-.16 1.46-.63 1.34-1.37-.12-6.27-3.21-8.29-6.85-6.08-10.92-7.74-3.41-6.31-8.57 1.67-7.02Z" class="cls-113"/><path d="M181.43 141.82c3.39 1.59 6.08 3.69 8.6 6.13-.92.96-1.25 1.33-.17 2.39l-.05 1.83c-1.76 2.34-4.31 1.61-7.65-2.2-2.95-.26-5.56-1.85-6.11-4.85-.08-.42-.71-1.01-1.29-1.18-1.24-1.95 1.19-2.52 1.81-1.14l.83.74c1.86 1.1 3.25 2.5 6.8 2.51l-2.76-4.23Z" class="cls-122"/><path d="M185.76 162.23c1.56 3.56 1.78 7.62.64 12.18-1.59 1.64-5.73 3.19-7.82 3.34-3.02.21-7.39-2.05-7.58-6.46-.14-3.22.21-9.47 2.64-12.09 2.83-3.05 10.14.03 12.12 3.03" style="fill:#2d2a29"/><path d="M168.09 152.11c5.78-.76 5.65 3.69.44 5.61-1.38 7.24-3.14 14.12-1.24 21.99.36 1.48-.82 3.31-1.48 4.07h-3.6c-12.39-.92-8.61-6.79.44-9.84-1.72.13-1.84-.43-.5-1.64-3.79-1.33-2.44-4.68.55-6.55-5.54 2.1-11.2-2.33-8.44-8.4q1.98-4.62 9.15-.63l2.57-.88c-1.42-1.2-2.05-2.43-1.91-3.69.57-1.5 1.25-1.49 2.03-.03.56-1.75 1.23-1.73 2 0Z" class="cls-25"/><path d="m168.53 157.71-.44-5.61c-.48-2.15 2.01-2.51 4.02-1.67 3.08.64 6.65 1.42 8.49 5.7-5.38-.21-8.74-.24-12.06 1.58Z" class="cls-158"/><path d="M172.11 150.43c-1 1.25-2.52 1.67-4.02 1.67h-2c-1.74-.63-1.7-1.35.03-2.14.98-.69 2.07-1.27 3.37-1.44 1.12-.15 2.05 1.23 2.62 1.91m14.09 5.62a8.4 8.4 0 0 1-1.98-2.05c.84.43 1.64 1.17 1.98 2.05" class="cls-122"/><path d="M138.09 188.11h2c5.27-1.06 12.11-2.41 16.73-.09l-1.04 24.17c-1.03-1.04-1.66-2.54-3.14-3.25-.64-.31-2.14 6.27-2.74 5.81-5.86-4.54-10.95-8.84-17.09-9.84-.35-3.72.41-13.39-6.7-14.6-2.21-.38-5.34.21-6.02-2.21l.9-1.99c5.76-.12 11.46.55 17.1 1.99Z" class="cls-80"/><path d="M129.83 170.53q3.885 7.56 15.81 5.61c4-2.63 7.32-3 9.94-1.11.11 0-.45-.6-1.92-1.73 1.67 2.42 4.09-.22 1.58-1.78l2.28 2.65c.18-2.81 3.13-1.8 5.13-.24l-6.43 7.45c2.95.4 4.53 1.13 5.99 2.4l-34.21.55c-1.04 2.77-4.62 2.49-5.87-.18.68-1.94.48-3.75-.6-5.44 2.06-5.82 2.23-11.46.5-16.94 3.65-.23 9.6 4.07 7.82 8.76Z" class="cls-77"/><path d="M122.12 184.15c1.6 0 4.35-.33 5.87.18l10.1 3.79h-20c-4.44-.68-5.78-2.01-4-4 .57-1.75 1.23-1.72 2 0 2.81-1.49 4.82-1.47 6.03.04Zm44.22 3.24-9.52.64-16.73.08c4.16-3.35 17.97-2.79 26.25-.71Z" class="cls-13"/><path d="M190.59 182.27c-.85 1.17-1.78 2.38-3.46 2.25-.92-.07-1.64-1.44-1.3-2.37l4.76.13Z" class="cls-113"/><path d="M192.27 156.16c-1.04-.41-1.88-1.13-2.22-2.02.55.4 1.91 1.17 2.22 2.02" class="cls-122"/><path d="M82.11 40.38c2.76 5.67 7.25 6.31 13.48 1.93l2.24 1.89c-.11-3.23 5.62-2.98 6.44.14 4.87 4.69-3.64 3.6-3.95 9.91l-4.03-.19c-3.82 1.78-8.28 1.56-12.11-.06l-1.63-.1c-3.22-1.43-4.91-4.21-4.58-7.69-1.14-2.18-1.79-4.16-1.96-5.94l6.09.12Z" style="fill:#6b6360"/><path d="M76.09 60.12c.02-2.62 2.71-1.95 4 .07.84-2.07 5.58-1.27 8-.07h2l2.81.31c1.1.12 1.68 1.24.89 2.54-1.53 1.98-5.03 2.52-10.5 1.6l-5.12 5.58c1.76.6 1.56 3.15-.12 3.95-.61.92-1.27.89-1.99 0l-4.01-2.29c-.49 2.44-2.81 4.24-5.34 3.34l1.38-7.04 2-2V62.1c1.01 0 1.81-1 1.98-1.99.39-1.84 2.44-.97 4.02 0Z" class="cls-140"/><path d="M96.29 54.05c-2.8 3.52-9.1 3.13-12.11-.06z" class="cls-3"/><path d="m88.09 60.11-8 .07c-3.5-.02-3.55-1.55.1-2.27 2.48.51 6.37-.93 7.9 2.2" class="cls-20"/><path d="m80.2 57.92-.1 2.27-4-.07c-1.94-.39-3.32-1.11-4.15-2.15 1.86-3.49 5.68-.58 8.25-.05" class="cls-3"/><path d="M76.09 60.12h-4.02c.1-.58.08-1.57-.13-2.15 1.78-.02 3.43.62 4.15 2.15" class="cls-20"/><path d="M16.34 187.71c.42 3.33-1.69 4.8-6.31 4.39 1.46 0 2.03.56 2.03 1.85.21 41 .56 82.14 2.3 123l-3.99 2.42c.49 2.58 1.79 4.84 3.92 6.76 3.16-1.77 5.89-2.68 8.18-2.73 1.63 0 3.22.5 3.35 1.8.74 7.09-2.39 14.77-6.29 19.83q-2.28 1.26-7.5.96c-2.66 3.95-4.82 2.85-3.93-1.83l.03-130.05.31-27.56c2.22-1.91 6.1 1.12 7.91 1.16Z" style="fill:#342e2e"/><path d="M102.33 34.1c1.13-4.58 2.35-4.45 3.77 0-.59 1.11-1.83 1.85-4.05 3.27l21.96.76c1.42.05 2.18 1.16 2.09 2l-10-.02c-5.38 1.8-14.47 4.18-18-.02-2.8-.63-5.44-1.3-7.94-2.01l-4.01-4.13c-.23-1.53 1.67-1.94 5.71-1.22 3.46-3.96 8.78-4.27 10.48 1.37Z" class="cls-71"/><path d="M134.15 42.12c-.29 2.13-1.02 3.43-2.19 3.89l-4.23 8.02-27.41.21c-4.87-1.87-3.56-5.18 3.95-9.91 2.4-2.11 6.34-3.52 11.82-4.21 1.71-1.97 7.46-1.35 10 .02-.49-3.31 1.85-4.5 4.28-2.24 1.86.63 3.73 2.24 3.78 4.23Z" class="cls-83"/><path d="m134.24 46.11-2.28-.1c.67-1.26.6-3.07 2.19-3.89z" style="fill:#1b1918"/><path d="M124.45 51.04c-2.64 1.44-7.26.97-11.6-.23-.91-5.04 4.39-8.52 9.67-8.41 1.18.34 2.53 2.94 1.94 8.63Z" style="fill:#2e2a29"/><path d="M116.09 40.12c-3.09 2.99-7.63 4.3-11.82 4.21l-6.44-.14c-5.27-.99-4.9-2.86.26-4.1l18 .02Z" style="fill:#867d79"/><path d="M126.89 52.25c-1.37-3.01-.9-6.2-.73-9.12.52-.6 1.01-1.04 1.04-1.06 1.53 3.33 1.55 8.41-.31 10.18" style="fill:#5d5351"/><path d="M90.16 38.09c2.73.02 6.54-.96 7.94 2.01-2.91 4.4-13.99 7.05-15.98.28v-2.34l8.05.05Zm-14.14 2.17c1.27 1.55 2.15 3.85 1.96 5.94-.71-.94-1.93-3.72-3.23-3.91-1.68-.24-4.61 2.49-6.37 4.05-1.07-5.59 4.47-6.14 7.64-6.08" style="fill:#625b58"/><path d="M53.49 136.41c1.83.23 1.95.93.43 2.07 5.27 5.13-5.02 7.27-9.83 5.43l-16.48 9.77 1.74 18.99c4.46.55 5.95 6.94 4.91 11.23.62 3.46-3.59 1.53-6.17.21-1.83-.3-2.51-.98-2.05-2.05-2.85-3.35-3.9-8.33-3.15-14.96-1.43-7.38-5-11.44-13.15-9.48.44-6.53 4.97-11.75 13.6-15.67 2.61-1.05 6.05-2.61 8.41-4.07 1.77.37 3.36 0 4.57 1.28l-11.6 8.2 2.57 1.18 17.54-9.03-1.76-1.43c-.99.25-3.06 1.28-5.44-1.01l10.63-3.27c-.65 3.36-3.38 2.33-4.12 3.13l1.5 2.31 7.83-2.83Z" class="cls-25"/><path d="M23.34 141.96c-3.29 5-9.22 6.44-11.27 14.09 6.26-.83 11.33 2.3 12.02 8.25l1.96 17.77c-7.37 2.4-10.3-2.68-8.8-15.24-6.9-10.15-7.96-5.7-3.2 13.37l-5.8 3.46-2.19-1.47-1.96-.1.47-23.67c.2-9.99 11.41-13.5 18.77-16.45Z" class="cls-171"/><path d="M72.06 71.82c3-.7 2.92 3.45.04 4.3l-2.01 4c3.07-.06 2.92 3.15.02 3.98l-2.05 7.98c-2.78 3.32-2.11 8.54-3.55 12.31-4.42-7.79-1.97-16.2-.26-24.17l1.86-2.1.62-2.96c1.14-2.14 3-4.16 5.34-3.34Z" style="fill:#595150"/><path d="M64.24 80.21c.21-.98.9-1.74 1.86-2.1-.48.84-1.16 1.53-1.86 2.1" class="cls-140"/><path d="M98.03 4.1c4.93.37 6.91 1.72 5.95 4.04-.26 2.88-2.24 4.32-5.92 4.32 1.6 17.82-2.44 24.07-12.13 18.74Q84.1 14.985 79.81 8.19c-5.29 1.66-5.73-.79-1.21-4.06l19.43-.04Z" style="fill:#cac7c5"/><path d="M78.6 4.14c-.17 1.56.87 2.84 1.21 4.06l2.07 1.02 4.27 24.73-6.12-.12c-5.25-.07-7.59-3.93-7.01-11.57l-2.97 3.94-3.61 4.03c-.03-8.04-1.93-16.15.72-23.16 1.43-3.56 8.56-2.92 11.43-2.92Z" style="fill:#59504e"/><path d="M80.03 33.83c-4.59-.11-10.58 2.07-13.93-1.56 1.46.46 3.38-.11 3.78-1.42.49-1.65.42-3.3.17-4.65-1.06-5.83-1.55-11.65.72-16.88 9.21 9.84 3.38 17.68 9.26 24.52Z" style="fill:#3f3634"/><path d="M108.09 4.11h4c3.57 2.17 1.64 3.11-2.01 3.99-.09 5.73-4.67 5.51-6.1.05-1.53-1.9-3.86-2.7-5.95-4.04z" style="fill:#a19a98"/><path d="M167.51 382.8c1.73.92 3.5 1.4 5.36 1.41-2.06 1.74-5.85 5.2-8.71 5.26l-30.06.59c4.75-4.59 14.85.72 18.26-3.77-4.51-5.12 2.09-10.21 7.63-8.06 1.84-.45 3.94-1.21 6.28-2.29 4.34.12 4.75 2.41 1.24 6.86" class="cls-38"/><path d="m16.34 187.71 15.66.36c1.36.51 1.39 1.19.15 2.05-.4 4.7-1.73 8.03-4 9.97-.64 44.88 3.07 90.51 7.43 134.66 5.13-.19 4.89 12.95.11 13.43-.67 3.24-8.1 2.53-7.93-1.28l-3.03-3.6c1.05-14.52 2.12-30.68 1.46-45.26 0-.11-.98-.02-2.24.12-5.45 1.17-5.62-2.31-4.76-6.93l-5.58-8.11c-1.29-30.93-2.11-60.26-2.45-87.99l-1.15-3.04c0-1.46-.17-3.25 1.31-3.8 1.67-.61 3.4-.36 5-.59Z" class="cls-127"/><path d="M34.27 183.91c.35-1.76.91-1.72 1.65 0 3.09-4.85 4.22-5.72 6.17.21 12.31-1.67 25.73-1.56 38 0 .57-1.75 1.24-1.72 2 0h2c.57-1.75 1.24-1.72 2 0 3.64-1.26 9.52-2.2 12 0 1.52 1.4 2.53 1.35 4 0 1.65-1.62 9.28-1.46 12 0l4 4-8.3.11c-.7 5.62-14.18 4.64-15.45-.05-6.59 3.21-20.55 7.36-24.25-.06l-2.18 3.64c-5.84-1.1-11.78-2.31-17.82-3.64.67 2.74-3.82 1.31-6 0-.63 1.73-4.73 1.63-6 0-.37 1.85-2.88 1.52-4 0l-8-4c.61-.94 1.28-.91 2 0l6.17-.21Z" class="cls-71"/><path d="M26.04 182.07c.7.14 1.73 1.46 2.05 2.05h-2l-7.97-.03-9.88-.43c6.83-9.24-5.93-18.03.06-24.49 1.19-1.28 5.2-1.84 7.17-.57 13.35 8.62-1.1 23.15 10.57 23.48Z" style="fill:#322e2d"/><path d="M18.12 184.08c-4.13.43-8.76.88-12.07-1.9l2.19 1.47c3.15-1.75 7.24-2.25 9.88.43" class="cls-71"/><path d="M34.1 190.12c-.58 1.13-1.23 1.1-1.95 0l-.15-2.05 2.1.05c1.7.47 1.65 1.15 0 2" class="cls-30"/><path d="m12.02 345.99 2.09-.05 2.52 2.59c.15-1.74.39-1.75.72-.04l3.18 1.67c.39-1.62.73-1.61 1.02.04l4.54 1.93c1.34-4.24 14.96-2.73 18-.02 1.75.57 1.72 1.23 0 2-.05 3.01-3.25 2.95-4 0l-.37 2.01-11.52 1.14c3.29 2.19 3.27 3.23-.07 3.14-3.06.95-6.32-.08-9.79-3.1-5.32-.3-8.77-1.99-10.32-5.05-.59-.52-1.31-1.13-1.97-1.4-.97-.46-.93-1.43.11-2.93.73-.9 1.92-2.58 1.92-3.75l3.93 1.83Z" style="fill:#514c49"/><path d="M6.07 372.5c-.93-1.53-1.82-2.72-1.82-4.54 1.39 1.06 1.93 2.77 1.82 4.54m-.01-21.66c-.48-.2-1.39-.07-1.88.04 0-1.01 1.38-2.21 1.99-2.96l-.11 2.93Z" class="cls-14"/><path d="M110.08 8.09c2.01-2.59 6.81-3.27 8.01.02 1.44-2.14 4.61-2.34 9.48-.6.64 6.18.61 12.51-.1 18.99.8 1.58 1.76 3.4 2.87 5.45-1.84 2.11-4.49 2.95-8.05 2.81l-16.21-.65h-3.77l-3.14-3.68c-.49-4.73.06-21.19 4.79-22.29l6.1-.05Z" style="fill:#403a38"/><path d="m128.09 6.11 2.01 2 .24 23.83c-1.44-.1-3.53-.08-4.06-1.02-.74-1.32-1.84-3.29-1.63-5.16l1.95-17.31-8.51-.35c-4.76-.37-4.68-2.73 0-3.98z" class="cls-96"/><path d="M125.86 64.68c.05.48.09 1.15-.09 1.66 2.36 6.58 6.19 12.66 6.37 19.79.02.81 1.21 1.79 1.96 2.03.15 16.22-4.73 21.98-3.95 28.02.15 1.12-.15 2.52-1.98 2.09l-2.06-4.15.23-7.92c1.44-7.41 1.42-15.02.22-22.46-2.69-7.57-5.43-14.49-4.6-24.57l3.92 5.51Z" style="fill:#564e4d"/><path d="M118.1 4.13v3.98l-8.02-.02 2.01-3.97z" style="fill:#807a76"/><path d="m166.13 238.25-1.89 40.21c-2.35 4.84-4.52 2.61-6.49-6.7l-2.59-1.11c.47-5.57-2.57-3.48-9.11 6.28-2.28 6.52-5.36 9.58-9.22 9.19-2.24 3.1-2.6 3.48-2.89-.47l-3.04-.78c4.23-9.7 8.69-19.2 13.4-28.48l-.7-6.22c-11.82-8.41 4-25.47 15.14-15.71.77-3.16 4.3-8.32 7.37-8.35z" class="cls-101"/><path d="M19.53 345.03c2.81-4.54 7.21-3.32 8.23 1.88l7.93 1.28c.07-5.73 4.7-5.53 6.18-.09 1.04-2.98 3.78-2.86 8.23.35 2.87.42 4.79-.25 5.23-3.55 3.54.69 7.27 2.37 11.18 5.02 1.22-5.27 5.34-5.66 6.86-.07 3.81-3.41 10.88-3.57 16.68-2.63 5.86-1.17 11.46-.68 16.79 1.49.75-1.78 2.1-1.37 4.03 1.22 1.52-6.55 7.41-4.4 10.6.24.04-6.47 9.94-4.8 13.01-.12-.92-4.76 6.61-3.76 7.61.06.62-.97 1.29-.94 2 .01 2.38-1.02 9.1-2.71 10.02.03l5.97-2.02c.56-1.55 1.24-1.53 2.02-.02v4c-.6 1.3-1.27 1.28-2.01 0-1.12 1.66-5.58 3.14-6 0-4.67 1.62-11.58 1.81-16 0-10.33.58-21 1.25-32 2-7.38 2.02-18.23 1.56-26 0-12.09-.81-24.09-1.47-36-2l-18 .02-4.54-1.93c-.32.05-.75.1-1.02-.04l-3.18-1.67-.72.04-2.52-2.59c-.54.03-1.58.29-2.09.05 1.23-1.77 5.62-2.11 7.5-.96Z" style="fill:#282523"/><path d="M180.16 342.33c-3.07 2.54-6.95 4.31-12.44 3.3l11.7-9.49c-3.84-3.02-6.92-2.84-8.1-4.45-1.43-1.95-1.8-6.99-1.46-9.5l4.09-30.17c-1.56-3.01-1.69-7.4 2.11-5.91l-1.66 26.81c-.31 4.95-5.38 12.57.15 17.57 3.79.35 4.23-6.52 3.72-11.08 4.99 7.02 2.81 15.14 1.89 22.91Z" class="cls-85"/><path d="M176.05 286.11c-2.56 1.11-1.84 3.93-2.11 5.91-1.8-.61-2.22-3.08-2.03-5.75l2.21-32.28c.26-3.76-.91-7.99 2-9.71l-.07 41.84Z" class="cls-88"/><path d="M162.1 348.11c-1.75-.56-1.73-1.22-.01-1.99-.16-3.9 1.41-4.15 2.93-.5 1.07.78 1.18 2.49-.07 2.49zm16.08 0c-.68 1.59-2.41 2.03-4.09 2.07.5-1.74 2.39-2.31 4.09-2.07" class="cls-85"/><path d="M164.09 352.12c1.75.56 1.72 1.23 0 1.99-1.1 2.54-3.2 2.76-3.98-.02-1.75-.54-1.74-1.2-.03-1.97h4Z" class="cls-69"/><path d="M168.6 352.37c-.68.74-1.56 1.4-2.52 1.71-.32 1.9-.99 1.83-1.99.03v-1.99zm11.32-4.3 2.54-1.88c-.57.91-1.5 1.63-2.54 1.88m-9.74 4.2c.02-1.24 1.11-2.03 2.33-2.06-.53.88-1.36 1.68-2.33 2.06" class="cls-85"/><path d="M180.23 290.16c-3.35-6.41-3.2-21.19-.39-28.02zm-.37-36.38c.98-3.97-1.74-10.3 2.17-13.59-.07 4.63 1.27 10.24-2.17 13.59" class="cls-150"/><path d="M180.23 354.03c5.11-.04 6.13 10.19 1.94 13.83v2.44c-3.66 5.33-8.31 10.47-14.66 12.49-.96.98-2.19 1.7-3.22.54 2.32-2.62 1.55-5.38 1.99-7.4-3.19-1-2.37-10.14 2.08-9.61l1.79-10.31 1.74.09 2.22-2.04z" class="cls-71"/><path d="m168.14 364.07.22 2.26-2.08 9.61c-2.76 2.1-4.11 4.94-5.07 8.31-2.17-2.57-1.17-4.54-1.21-6.02l2.1-8.13c-1.87-.36-1.79-1.02.03-1.93-1.44-2.36-2.11-4.39-2.01-6.08-1.77-.54-1.76-1.24-.07-2.1-1.46-1.34-.76-1.94 2.08-1.83-2.79-2.28-.99-3.26 1.97-4.05.6 0 1.4.16 1.99-.03-.36 3.39-.78 7.74 2.05 9.99" style="fill:#615a57"/><path d="M182.17 367.86c.02-4.63 1.27-10.11-1.94-13.83.34-1.47 2-2.67 3.04-2.23.69.3 4.97 9.68 3.73 12.15-.86 1.71-2.93 3.17-4.83 3.91m-13.81-1.53c-.27-.75-.09-1.63-.22-2.26-.6-2.86-.74-6.45 2.01-8.05.79 3.94-1.05 6.88-1.79 10.31m3.53-10.23 2.22-2.04z" class="cls-85"/><path d="M163.09 210.8c.85 1.67 1.08 5.46.77 7.31 2.04 7.37-2.28 19.81-10.9 12.98-2.55-2.03-.06-5 1.79-6.85 2.22-7.34 4.53-14.66 3.77-22.41 3.03-.96 4.55 2.03 4.57 8.98Z" style="fill:#59514f"/><path d="m163.09 210.8-4.57-8.98c-.31-3.19-1.74-6.79 2.77-9.86 2.79 5.86 3.27 12.51 1.8 18.84" style="fill:#958d8b"/><path d="M131.87 360.08c1.62 1.74 1.79 4.88.5 9.43 4.57.65 3.25 2.75-.75 4.69 1.88 1.15 3.51 2.95 4.91 5.42q9.33-.645 11.64 4.71c-5.37 3.22-12.07 2.49-18.06 1.7-.62-1.07-1.4-1.26-2.3-.36-.22 1.66-.78 1.67-1.64.13-5.21-.51-7.69-5.09-7.45-13.72-5.42-.86-9.44-2.56-12.06-5.12-4.59 1.57-7.45 1.33-8.57-.71l-.43-2.38c6.23-.59 12.37-1.86 18.43-3.8 4.31-2.81 12.88-5.79 15.78.02Z" class="cls-170"/><path d="m126.17 385.81 1.64-.13c.84-.87 1.68-.68 2.3.36.23.77-.23 2.18-1.94 2.17l-55.62-.25c-4.28-3.89 4.39-6.03 7.64-4.12 1.93-7.84 10.67-8.75 26.22-2.72 8.07-.46 14.66 1.1 19.76 4.69" style="fill:#635b58"/><path d="M159.99 378.23c-3.45 1.74-5.27 4.96-7.63 8.06-.06-1.88-2.8-2.79-4.19-1.95l-9.95-.41c-3.52-.07-4.99-1.49-6.76-4.16-1.15-1.73-.21-3.85.16-5.57 4-2.68 9.49-3.15 16.44-1.42 4.69-1.59 8.6-1.73 11.72-.4 2.4-.16 1.27 3.78.2 5.85Z" style="fill:#292522"/><path d="M38.34 358.1c.28 5.03.03 9.85-.76 14.45 1.48.95 2.42 2.99 2.81 6.12 3.34 3.22 6.1 7.31 11.5 7.3-3.81 3.96-10.48 2.05-15.97 2.02l-3.47-14.22c-5.98 1.18-9.44-10.45-4.31-13.38-.26-.81-.05-2.31.07-3.14 2.41-1.86 7.72-1.15 10.12.84Z" style="fill:#5b5452"/><path d="M80.19 383.84c-2.86 1.22-6.62.53-7.64 4.12-4.35-.02-9.24 1-14.46-.38-1.2-1.95 2.25-5.05 4.08-5.85l5.77.47c13.34-4.03 17.42-3.48 12.25 1.66Z" style="fill:#5b5350"/><path d="m28.14 360.4 4.31 13.38-1.9 10.39-15.42-9.31c-5.4-5.96-5.02-15.84-7.1-22.62 7.76-1.03 15.76 1.4 20.11 8.16" class="cls-14"/><path d="M120.03 102.04c1.83 3.12 1.03 6.69-2.4 10.72 5.01.73 7.73 4.13 10.49 8.16 5.87 2.29 10.86 8.05 15.54 12.78l-13.53-5.3c-4.82.33-9.71-.45-14.69-2.33-3.2 5.91-14.49.38-14.62-5.72-12.69 9.83-24.88-17.85-10.88-19.58 8.23-5.65 24.93-8.21 30.08 1.26Z" class="cls-148"/><path d="M130.14 128.41c1.06.52 1.7 2.84 2.26 4.22-1.13 3.9 10.2 8.46 1.77 2.58-.57-1.95.58-3.34.94-2.98l2.49 2.46c5.46 2.04 10.13 5.16 12.39 9.31-3.23 3.3-9.6 4.05-13.93 2.1-.55 1.75-1.21 1.73-1.97 0-3.57-.69-6.99-1.32-10.27-1.88-1.08 3.05-2.78 2.74-3.64-.45q-8.52-5.37-14.67-13.65c-3.19-.84-5.1-2.16-5.72-3.95-5.6-1.12-4.57-5.48 1.04-5.83 1.9 1.87 4.08 4.51 7.61 5.83 2.28.86 4.87-2.67 4.33-6.27l17.37 8.49Z" style="fill:#655d5a"/><path d="m126.09 114.11 2.06 4.15-.04 2.67c-6.89-2.68-12.63-5.69-19.95-5.22 4.31-5.38 9.71-8.76 11.86-13.67 6.22 1.82 1.02 6.35 6.06 12.07Z" style="fill:#262323"/><path d="M150 144c.96 1.07 3.61 2.01 3.98 3.8-2.82 3.51-5.78 4.22-8.9 2.12l-.79 1.22c3.71-3.42 6.57-1.34 3.59 3.39-1.41 1.98-4.62 1.86-9.62-.35-1.75-.62-1.72-1.33 0-2.14-3.72-1.01-5.41-3.4-2.19-5.94 3.65-4.45 8.69-3.42 13.93-2.1" class="cls-120"/><path d="m153.98 147.8 8.11 2.25 1.97 2.1c.9.92 1.74 2.41 1.91 3.69l-2.69 1.42c-5.26-3.46-8.18-3.72-8.78-.77-2.82 5.22-6.2 3.81-6.63-1.96-.89-1.49-2.54-2.7-3.59-3.39l-2.88-1.88c1.74 2.14 3.93.09 1.88-1.55l1.79 2.22c2.43-3.47 5.25-3.13 8.9-2.12Z" class="cls-163"/><path d="M165.98 155.83c.34 2.57-.72 4.89-2.94 6.07-2.66-3.44-5.62-4.35-8.78-4.56.2-.33.26-.7.25-.86-1.21-1.14-2.22-1.99-3.47-2.55-1.12-.5-.44-3.2 1.69-3.38 5.07-.43 9.61 2.89 13.25 5.28" style="fill:#c7c6c4"/><path d="M116.33 149.9c1 1.91 3.29 4.35 6.85 7.33l-1.17 4.54c5.12 4.54 3.1 10.87-.5 16.94-4.88 1.41-5.7-2.35-2.46-11.25l-3.91-5.17c-2.42 1.72-4.02.3-4.8-4.27-4.05 5.79-9.82 2.16-6.18-3.84-7.08-1.15-6.55-1.71-1.17-5.82 1.92-1.47 12.98-1.99 13.33 1.53Z" style="fill:#4b4645"/><path d="M121.52 178.71c2.49.61 5.84-1.22 9.26 2.58-3.08.86-6.64.5-8.66 2.86l-6.03-.04c.08-1.47.07-2.83-.04-4.09-3.89 1.23-5.82.63-5.8-1.78l-2.08-5.23c-3.41-6.65-2.68-11.64 2.18-14.99 5.79.5 13.23 6.33 11.41 13.61-.64 2.55-2.5 5.46-.24 7.08" style="fill:#5d5754"/><path d="M126.05 150.05c.66-1.01 1.34-.96 2.05.07.57-1.75 1.23-1.72 2 0 .6-1.16 1.26-1.13 1.99 0 1.43-2.27 3.48-1.63 6.17 1.92v2.14c-1.22 3.19-3.94 4.63-8.15 4.3l.17 5.68c1.19 2.5 1.6 4.63-.44 6.38-.59-4.94-5.13-6-7.82-8.76l-6.57-6.76c-.82-.85-1.33-2.86-1.19-3.6.12-.64.89-1.31 2.07-1.51 1.83-1.69 7.21-1.11 9.71.15Z" style="fill:#403b3a"/><path d="M116.05 180.02c1.25.38 3.62-1.12 6.22 1.19-2.33.85-4.57 1.23-6.17 2.9h-14c-.89 1.59-2.97 1.5-4 0h-12c-3.06-4.55 6.89-4.81 9.69-2.19-4.13-13.03 5.46-10.48 13.28-2.18l6.99.28Z" class="cls-62"/><path d="m126.32 106.2.22-22.46c2.46 6.91 2.6 15.54-.22 22.46" class="cls-148"/><path d="m98.1 40.1-.26 4.1c-1.82-.04-4.18 1.9-5.97 3.56-3.08 2.86-7.2 2.42-9.37-.69-1.17-1.67-2.28-4.38-.38-6.69z" style="fill:#dad7d5"/><path d="M80.51 72.61c3.03 3.63 3.32 9.12.86 16.46 1.4 4.08.84 7-1.66 8.77l2.48 1.36c7.65-8.19 12.41-9.34 14.29-3.45l-6.53 5.02c-3.24 2.49-3.72 13.77.52 16.24 3.48 2.03 8.07 1.08 10.37 3.34l-1.04 5.83c-2.14 1.28-5.24 2.12-9.32 2.51l-4.64 3.37c1.21 3.26-1.91 4.4-4 1.77 1.59 3.24-1.32 5.56-4.44 5.33-12.66-.94-7.17-16.65 3.05-15.16l-.43-2.93c3.16-3.53 3.36-5.12.61-4.77-3.06-8.51-5.61-17.38-7.65-26.59l1.01-3.59c-2.94-.14-2.82-3.31.09-4l2-4c-1.74-.57-1.72-1.24 0-2l1.96-2.01.12-3.95h1.98c1.41-.99 1.52-.17.35 2.46Z" style="fill:#655e5b"/><path d="M76.07 74.11c1.07.59 1.06 1.26.03 2.01v2l-2.01 4-.09 4-.81 6.87c3.98 8.29 5.65 16.08 5.01 23.35-1.14.28-3.07.85-3.96 1.56l-2.26.19c-1.37-5.29-2.67-10.62-3.92-15.97V92.08l2.04-7.98-.02-3.98 2.01-4-.04-4.3c.74.23 1.57-2.42 2.23-2.93 1.16-.9 2.71.66 1.9 1.99-.29.48-.25 2-.13 3.24Z" class="cls-20"/><path d="m76.1 76.11-.03-2.01h1.99c-.03.94-1.04 1.77-1.96 2.01" class="cls-55"/><path d="M23.96 298.17c1.76.57 1.74 1.27.03 2.09l-3.98 22.71c-6.84 7.04-8.44 5.37-9.64-3.6l-.34-127.27c1.07-.7 4.08-.27 4.08 2.01l-.02 78.09c0 6.73 5.3 12.46 9.23 16.66.35 2.58-1.6 7.26.64 9.31" style="fill:#4c4545"/><path d="M27.76 346.91c-3.07-.49-5.43-.17-8.23-1.88-.14-3.04-.94-5.46-3.3-8.52 7.59-2.55 5.89-7.84 6.24-13.11-2.46.39-2.81-1.4-1.06-5.37l2.58-17.77-.03-2.09c1.43-1.43.7-1.71.59-2.66-.15-1.34 1.97-2.05 2.72-1.39 1.42 1.23 1.04 2.29 1.09 3.91l.64 22.66c.25 8.92 2 17.79-1.24 26.23Z" class="cls-54"/><path d="M22.47 323.4c-1.92 3.4-8.07 5.25-8.35 10.67.07 3.45 1.09 7.77-4.02 8.33l.26-23.04c.78 1.87 2.57 5.32 4.48 4.6 8.26-3.14 4.3-13.99 9.15-23.71l-1.52 23.14Z" class="cls-127"/><path d="M103.98 8.15c-.32 8.75 1.07 17.63-1.65 25.95l-16.19-.15c-5.21-5.49-2.87-13.21-6.34-25.76.28-.47 3.57-.45 3.72.43l3.87 22.25c.26 1.51 4 1.34 4.86.36 3.92-4.47-.85-13.76 2.39-20.53 1.7-3.55 6.79-2.46 9.34-2.57Z" style="fill:#978e8c"/><path d="M80.45 124c-3.78 2.66-7.31 6.37-6.38 11.92l7.77-2.08c3.7-.21 4.65.16 2.87 1.1 8.27-2.91 10.45 6.88.62 6.8-.03 1.32-.15 2.37-.57 2.51-11.89 3.92-21.2 4.23-28.58-5.94.67 3.82-.85 3.95-2.26.18l-.43-2.07c9.21-3.33 16.63-13.27 24.75-17.43 1.18 1 1.92 2.67 2.21 5.02Z" class="cls-24"/><path d="m52.1 126.11 2.1-.16c2.99 5.5-2.5 9.49-6.14 4.09-1.73-.59-1.69-1.23.04-1.93-.98-.61-.96-1.28 0-2z" class="cls-98"/><path d="m48.1 128.11-.04 1.93c-.34 5.33-2.14 5.21-3.89.2l-.07-2.11c.47-.22 1.49-.02 2-.02.62-.85 1.29-.82 2 0" style="fill:#1e1817"/><path d="M68.07 102.11c1.56 4.85 2.56 9.93 3 15.23l3.18.55c-1.92-5.32.36-5.8 3.96-1.56 4.11-.49 4.17 1.38.04 2.65-.88.95-1.7 1.92-2.36 3.05-5.75 9.93-11.07 13.63-22.39 14.38-.91 3.18-5.9 5.94-7.83 2.83l-.82.27c.33 1.13.51 2.06.18 2.3-.96.71-20.51 9.69-21.48 9.03-1.92-1.31-1.69-3.56-.17-5.22q7.275-3.9 8.37-7.74l12.41-7.64 3.89-.2c2.79-.15 4.31-2.98 6.14-4.09 3.94-2.38 8.36-4.63 10.27-8.79 1.81-3.95-1.41-8.97.04-12.78-1.83-8.07-.64-12.17 3.55-12.31 3.11.75 4.22 9.67.01 10.04Z" class="cls-9"/><path d="M74.24 117.89c-.29.65-.59 2.18-1.37 2.31-4.54.74-4.79-8.03-4.8-18.09 4.92 2.56 1.63 9.24 6.17 15.78" class="cls-140"/><path d="M44.1 143.91c3.88-.26 3.84 1.28-.06 2.32-.59 1.68-1.24 1.62-1.94-.08-1.37 2.61-2.88 3.96-4.55 4.04 0 1.71-.42 1.65-1.25 0-3.24 1.58-4.19 3.63-2.84 6.14l-2.29.21c2.06 4.12 3.58 8.07 4.55 11.82 6.23.6 8.31 15.34.2 15.55h-1.65c-11.55-8.73-.37-23.32-13.01-28.72l12.43-7.34c3.7-2.19 6.74-3.85 10.41-3.93Z" style="fill:#9f9a97"/><path d="M68.06 92.08c0-2.77-.68-6.25 2.05-7.98.01 3.21.08 5.77-2.05 7.98m2.03-11.97c0-1.66.34-3.4 2.01-4 .05 1.67-.32 3.42-2.01 4" class="cls-140"/><path d="M34.1 272.11c3.04-.2 2.88 5.16 0 6 .96 1.5 1.58 3.02 0 4 2.93 1.16 3.01 8.8.12 10.28 2.18 3.09 3.85 3.3 5 .61q-.855-9.66 2.76-14.73c.4-1.09.39-2.48-.03-4.19-2.88-.12-2.69-3.01.08-3.89-1.73-3.98 2.7-9.52 4.05-3.97l3.42 2.97c.4 21.24.76 46.64-2.79 67.6-.71 4.2-1.93 10.51-4.84 11.3l-6.18.09c1.17-7.21-2.58-14.41-3.12-22.27l-2.75-39.94c-1.31-19-4.76-36.6-3.8-55.88.53-10.63-.74-20.49 2.13-30.01l2.28.03 3.66 72Z" class="cls-10"/><path d="M34.1 190.12c2.96 2 2.63 5.21-.99 9.64-.55 15.59-.22 31.04.99 46.36 1.75.57 1.72 1.23 0 2 4.86 2.7 5.43 7.8 0 10 1.16.6 1.13 1.27 0 2 1.75.57 1.72 1.24 0 2 2.65 4.62 2.65 7.96 0 10-3.22-1.07-1.72-5.33-1.89-7.78l-2.44-36.31c-1.05-15.6 1.8-24.93-1.61-27.92 1.02-3.37.98-7.34 4-9.97h1.95Z" class="cls-110"/><path d="M94.34 188.17c2.05 2.95-.09 4.9-6.44 5.83 1.66.48 1.58 1.06-.11 1.73-.69 1.73-1.16 1.67-1.42-.18-9.5 2.09-12.64 7.61-13.86 17.12.98 5.2.88 11.01-.29 17.44 2.99 6.02 5.94 17.54 2.1 23.73-3.39 6.18-2.59 11.1 2.4 14.77q-.39 3.45-2.85 5.19c2.84 7.12 5.18 14.45 7.02 22l-2.14 2.33c0 3.71-1.69 3.76-2.67-.01-1.01-1.03-1.36-1.24-2.38-.07-.9.94-1.7 1.63-2.12 1.45-2.2-.93-5.48-22.53-3.56-26.22-2.73-1.06-3.98-2.67-3.75-4.85 3.46-7.66 4.39-14.61 2.78-20.86-3.85 3.91-12.18 4.17-17.28 2.48-5.61 1.9-5.47-1.44-3.34-6.18 4.09-5.45 5.93-11.23 5.52-17.36-1.39-5.21-1.63-9.87-.71-13.99 4.08-6.73 7.17-4.17 9.26 7.66 1.88 2.6 4.46 1.9 7.73-2.12-5.11-.19-5.29-4.93.02-5.96 1.41-4.05.81-8.17-.66-12.09-1.5-1.07-1.27-1.71.6-1.94l.54-3.59c-4.12-3.62-3.67-5.74 1.34-6.36l24.25.06Z" class="cls-78"/><path d="M98.08 168.71c6.13-8.72 13.27 2.28 12.17 9.53l5.8 1.78c-4.2 3.09-11.01 2.96-15.77 1.02 3.51-4.06.02-6.36-2.36-4.03.45 2.67-1.2 4.92-2.14 4.91-2.03-1.19-4.05-2.02-6.07-2.49-1.62-2.98-4.28-3.48-7.98-1.49 3.56 1.46 3.59 2.89.1 4.31l.26 1.86h-2c-1.85-.2-2.55-.88-2.08-2.05-.41-2.51-1.67-3.15-3.8-1.93-14.67-5.8-2.43-14.21 7.87-14.26.55-5.38 3.44-4.75 7.58-2.64 5.12-3.68 7.93-1.85 8.42 5.48" style="fill:#766e6b"/><path d="M50.09 153.86c5.96-1.78 4.63 1.04 2.36 5.49-1.06.63-1.68.28-1.9-.98-1.77 2.36-2.27 6.14-1.52 11.33q-7.515-.555-.96 12.36c-1.38.82-3.37 1.5-5.97 2.05l-6.17-.21c3.49-4.7 1.13-10.34-.2-15.55-5.3-2.84-2.54-11.73 2.85-8.08l7.3-5.93c-1.16-4.65 2.62-4.69 4.22-.49Z" style="fill:#87817e"/><path d="M70.09 188.11c-1.46 2.94 1.8 7.46-1.89 9.95l-9.84-1.87-2.24-4.07c-4.34.38-6.35-.95-6.03-4h20Z" class="cls-30"/><path d="M48.07 182.06c.22-1.31.48-2.34.91-2.42 1.33-.22 17.38 1.6 19.12 2.47 5.49-2.28 8.8-2.3 9.92-.05l2.08 2.05h-38c1.16-2.4 3.75-2.06 5.97-2.06Z" class="cls-62"/><path d="M89.72 179.43c1.13.21 3.02-1.47 4.66-.39.85.56 1.45 1.7 1.4 2.87-2.92-.03-7.67-.65-9.69 2.19h-2l-2.26-1.86c-1.23-1.65-1.1-2.83-.1-4.31 2.61-2.38 7.15-2.1 7.98 1.49Z" class="cls-99"/><path d="m50.1 188.11 6.03 4c-.61 1.73-1.29 1.7-2.03-.04q-1.125 7.965.75 17.73l-2.66 1.27-2.47-.14c-.45-7.53-2.33-14.47-5.64-20.84-1.74-.58-1.71-1.25.02-1.99h6Z" class="cls-78"/><path d="m44.1 188.11-.02 1.99c.78 3.51-1.33 3.61-6.33.31-2.88-.18-2.61-1.58.34-2.3h6Z" class="cls-30"/><path d="M102.09 184.11c.24 1.07-.36 1.71-1.06 2.02-1.73.75-3.19-.55-2.94-2.02z" class="cls-13"/><path d="m38.1 188.11-.34 2.3c-.32 4.56-2.9 4.23-3.66-.3-.04-.62-.09-1.43 0-2z" class="cls-78"/><path d="M84.09 184.11h-2l-.26-1.86a7.5 7.5 0 0 1 2.26 1.86" class="cls-62"/><path d="M80.09 354.11c-.58 1.72-4.6 1.44-6 0-5.39 2.17-15.81 3.88-20 0-3.2 1.91-8.23 3.8-10 0v-2l32.14-.11c2.15 0 3.65.78 3.86 2.11" class="cls-85"/><path d="M40.09 354.11c5.29.84 4.99 2.68-.15 4.03-.25 1.77-.8 1.69-1.61-.04-3.41 1.69-7.1 1.46-10.12-.84-.34-.85-.36-1.68.07-2.19.55-.65 2.27-1.17 3.7-1.14l8.12.17Z" style="fill:#b1ada9"/><path d="M44.1 354.11h10c3.04 1.44 1.7 2.77-4 4-.16 5.99-9.02 5.54-10.15.03l.15-4.03z" style="fill:#a6a29e"/><path d="M26.09 352.14c-1.83 0-3.54-.29-4.54-1.93 1.74-.27 3.81.17 4.54 1.93m-9.46-3.61a6.54 6.54 0 0 1-2.52-2.59c1.46-.09 2.72.98 2.52 2.59m3.9 1.63-3.18-1.67c1.23-.07 2.42.69 3.18 1.67" class="cls-54"/><path d="M128.16 118.26c-.88-.06-1.8-.57-1.86-1.33l-.2-2.82c1.05 1.16 2 2.6 2.06 4.15" class="cls-148"/><path d="M143.77 344.87c-.58 3.5-5.42 3.29-8.35 2.03-9.81-4.24-12.25-21.76-.72-24.5-2.5-9.81-1.07-16.15 4.29-19.03-3.4-7.82 10.45-40.45 18.34-34.54.64.48 4.04 12.42 4.54 14.96.61 3.06 2.36 42.32 1.22 44.22-6.49 2.9-9.35 5.81-8.58 8.71-.76 2.88-3.13 4.49-7.09 4.83-1.23 2.92-2.45 4.03-3.65 3.32" style="fill:#302927"/><path d="M133.94 285.65c.8.42 2.21.51 2.89.47 2.27 5.4 3.45 21.53-4.62 21.79-1.28 1.75-1.28 3.19-.02 4.31 1.78.3 1.77.91.1 1.81-.36 7.74-2.39 13.06-8.62 18.07-.3 1.45 10.36 11.89 12.37 13.85 1.2 1.18.24 2.88-1.54 4.1l-13.01.12c-5.03-2.23-11.76-5.64-10.72-11.87 3.64-16.63 9.49-32.73 17.54-48.31-3.36-3.52 5.02-13.76 5.64-4.35Z" class="cls-81"/><path d="M132.18 312.21c-1.78.47-2.75-1.77-1.83-2.61l1.85-1.7c2.47-.65 2.18 3.37-.02 4.31" class="cls-156"/><path d="M166.09 222.11v4c-3.79 6.71-5.69 15.78-1.88 23.08l-6.41-.11c1.69-2.78 1.37-7.01.13-9.54s-8.22-6.33-9.89-4.08l-6.31 8.49c3 1.21 3.28 4.45 7.8 2.8.22 2.96-2.04 2.78-2.27 3.81-.36 1.63 1.25 3.92 2.39 5.2l-6.48 9.09c-3.03 4.25-3.93 7.12-4.85 10.56-.81 3.03-6.78 5.79-4.37 10.22-1.39-.74-3.15-1.15-4.13-.45-1.7 1.22-1.17 3.67-1.51 4.79-2.04 5.22-3.84 6.39-5.41 3.5l-2.09-1.76c3.84-10.19 8.6-20.33 14.29-30.41-3.16-8.17-4.77-17.08-4.81-26.72q3.975-4.035 1.05-10.47c4.19-4.95 9.94-4.07 17.27 2.64l2.16-.88c.47-1.89 2.71-1.89 3.98-1.65l.76 3.49c.27 1.25 2.62 3.2 3.97 1.56 2.42-2.95 3.81-7.87 4.38-11.17h2.24v4Z" style="fill:#443e3c"/><path d="m121.47 350.17-10.6-.24c-4.28-.9-4.85-2.06-1.73-3.5l-1.17.67c-2.97 3.82-14.91.5-9.21-4.65-2.28-3.55-3.07-7.02-2.38-10.39-11.09-3.67 4.88-23.46 11.45-13.58 4.25-8.21 8.29-16.44 12.11-24.69l2.95-.29c2.09-.18 4.88-1.79 5.41-3.5l-7.95 24.53c-1.01 2.91 2.14 7.26-3.11 11.02l-.47 11.76c-1.22.95-2.22 1.55-2.54 2.22-.65 1.34 1.1 4.11 3.47 1.97-.19-2.79 2.31-2.81 2.76-1.74.4.94 1.4 2.08 2.35 2.47 1.67.68-1.31 3.03-4.76 2.37 1.8 2.06 3.44 3.32 3.43 5.59Z" style="fill:#453d3a"/><path d="m66.51 349.92-16.42-1.47c1.57.09 3.36.11 4.43-1.98l-8.76-.93c3.13-2.29 3.3-4.55 4.31-7.13l1.7-11.01 2.29.06c2.41-8.19 11.39-14.07 17.9-9.08 1.83-4.03 5.6 2.24 6.28 4.47 1.72 5.59-7.33 24.52-11.74 27.07Z" style="fill:#383230"/><path d="m160.09 352.11.03 1.97c.17 2.45-2.07 2.34-4.25 1.77-.35 1.79 1.04 3.17 4.17 4.13l.07 2.1c-7.27.83-14.62 2.22-22.04 4.18-.72-1.69-.81-3.94-.27-6.73l-2.17.47c-.79-1.09-1.24-1.13-1.91 0-.34 1.78-.97 1.75-1.86.07l-15.78-.02c-2.84 1.49-6.82 3.45-8 .03-.88 1.6-2.97 1.51-4 0-.32 1.69-.98 1.68-1.95.14-4.43 1-10.29 2.09-14.05-.13-3.17-3.42 4.45-3.38 4.43-2.99s-6.95 1.48-6.43-1c-2.16 1.66-5.81 1.57-8.01 0-.06 3.02-3.28 2.99-4.01 0-1.74-.58-1.71-1.24.02-1.99h32c10.17-1.81 22.17-1.7 32 0 1.53-1.65 5.36-1.49 6.93.2 1.33 2.68 3.68 2.62 7.06-.2-.79-1.04-.12-1.7 2.01-2h6Z" class="cls-58"/><path d="M80.63 322.17c3.41 1.71 5.61 6.78 3.32 9.96l-.07 1.65c1.93 2.35 2.68 4.59 2.24 6.72-1.57-.03-2.31 2.17-2.22 6.61-4.41.16-7.91 1.07-10.51 2.74l-6.86.07-5.12-3.01c7.73-1.6 9.31-6.22 8.71-12.84l3.13-1.89.08-3.32c.05-2.39 3.07-4.7 2.35-6.91-.59-1.81-2.02-3.19-3.69-3.58-1-.18-1.92-.45-2.51-1.05-2.34-2.32 8.75-7.81 11.16 4.84Z" style="fill:#403937"/><path d="m110.88 349.94-37.51-.08c-1.75-1.94-1.16-3.54.13-3.65 2.27-.18 4.64-.35 6.96.14l3.41-12.57c.27-.31.51-.54.65-.49 4.36 1.5 5.28 1.49 7.2-1 .93-1.21 2.97-.87 4.66-.22.41 1.54.9 3.3 2.15 4.55 1.32 1.31 3.83.35 5.69.38-2.45 3.22-4.14 5.81-3.43 7.46 1.13 2.61 4.97 4 7.18 2.66l-2.3-1.79c1.39 2.31 3.52.14 1.62-1.17l1.85 2.29 1.73 3.5Z" class="cls-8"/><path d="M138.09 352.11c1.75.57 1.72 1.24 0 2h-32c.21-1.33 1.71-2.12 3.86-2.11l28.14.1Z" class="cls-85"/><path d="m154.09 352.11-2.01 2c-1.51 2.91-6.45 4.24-7.06.2l-6.93-.2v-2z" class="cls-69"/><path d="M160.08 348.14c-1.12 2.3-3.72 2.03-5.97 2.02 1.08-2.24 3.76-2 5.97-2.02" class="cls-85"/><path d="m134.7 322.4-4.21 12.23c-1.28 3.71 1.42 7.72 4.73 8.94 2.28.84 5.29 1.95 8.54 1.31 1.17-1.13 1.41-.97.7.5l2.74-2.25c2.14-5.82 8.71-7.04 6.8.59 5.97 3.9-6.04 7.56-9.84 4.37l-2.08 2.04-7.61-.06c-1.6-8.82-15.23-11.05-14.84-18.79.11-2.14 4.06-4.16 5.41-6.26l7.22-10.97c1.97 1.5 2.77 4.29 2.42 8.38Z" class="cls-156"/><path d="M162.09 346.12v1.99l-2.01.02-5.97 2.02-10.02-.03c-1.05-.66-.99-1.35.08-2.05 4.07.82 8.96.16 9.84-4.37 2.48-5.32 8.36-3.41 8.08 2.42" class="cls-81"/><path d="M144.1 350.13h-2c-.03-.77 1.28-2.21 2.08-2.05z" class="cls-85"/><path d="m160.12 354.09 3.98.02c0 1.7-.78 2.9-1.97 4.05-3.08 1.15-6.73 1.55-6.26-2.31 1.28-.81 2.23-1.78 4.25-1.77Z" style="fill:#7b7570"/><path d="m135.63 360 2.17-.47c.36 2.31 1.29 4.28 2.79 5.92 11.1-4.31 18.28-3.4 21.53 2.72-.08.54-.15 1.36-.03 1.93-.08 2.43-.85 3.19-2.3 2.27-7.05 7.08-18.43 3.99-28.17 1.82-.8-4.42-1.1-9.5.25-14.12l1.86-.07c.49-1.11 1.13-1.06 1.91 0Z" style="fill:#37312e"/><path d="M160.12 362.09c1.97 1.35 2.36 3.82 2.01 6.08-4.49-7.96-16.04-2.51-28.44 1.6.26-5.72 2.99-7.63 4.12-10.23.81-.18 1.51.45 1.5 1.21v3.1c7.04-1.3 13.85-2.17 20.81-1.76" class="cls-69"/><path d="m162.13 358.16-2.08 1.83c-1.67.54-4.97.51-5.83-.9-1.13-1.86.65-2.59 1.65-3.23 1.89 2.42 4.46 1.17 6.26 2.31Z" class="cls-168"/><path d="m159.99 378.23-.2-5.85 2.3-2.27c.57 2.64.57 6.61-2.1 8.13Z" class="cls-69"/><path d="M126.17 385.81c-12.55 1.02-25.52-.75-38.34-5.23l-7.64 3.27c.25-1.51 0-2.96-1.04-3.97-4.11 3.76-7.78 2.59-11.21 2.31 1.12-2.18 3.84-3.01 6.24-2.57 4.53-1.87 5.68-4.65 4.27-9.65 9.45.19 18.85-.81 28.21-3.01 4.43-1.75 15.51-.67 16.47 5.29.81 5.02-.37 9.77 3.03 13.56Z" class="cls-52"/><path d="M96.1 366.14c.67-1.71 1.33-1.65 1.99.11l8.57.71-7.06 2.79c-6.34 2.51-11.3 5.3-19.26 2.53-.02 2.9-.45 4.39-1.06 5.77-.78 1.75-3.29 1.9-5.1 1.56l-.16-1.02q1.83-5.55.24-11.25c-5.11-7.62 11.38-4.9 15.87-.92l5.96-.29Z" class="cls-58"/><path d="m108.1 360.1 8-.03c-5.2 7.38-14.91 1.47-18 6.19l-1.99-.11c-15.02-.46-17.09-4.14-.08-4.91 2.08-.09 4.12-.39 6.12-.99.42-.27 1.44-.14 1.95-.14 1.52 1.4 2.53 1.36 4 0Z" class="cls-152"/><path d="m130.11 386.03-2.3-.36c.37-2.14 2.7-1.55 2.3.36" class="cls-52"/><path d="M78.09 360.12c1.86 1.63 3.99 1.45 6 0 1.14-2.2 3.57-2.92 4 0l14.05.13c-4.33 3.11-9.61 1.84-16.36 2.07 3.08 3.02 6.89 3.8 10.31 3.82-6.3 6.41-14.69-6.66-20.36-.18l1.98 7.13c.5 1.79-1.45 4.26-3.69 5.51-.13-.96-.79-1.96-1.47-2.64-.03-2.5 1.06-5.97.17-7.93-.96-2.11-3.52-3.11-7.49-4.28 1.66-2.18 3.63-2.29 5.3-3.4.31-1.48.87-1.46 1.64-.06 1.02-2.55 5.06-3.38 5.91-.16Z" class="cls-170"/><path d="M72.55 375.96c3.34-2.19 4.01-.57 1.47 2.64 1.72-.5 1.71-.12.16 1.02-1.15 1.3-3.23 2.15-6.24 2.57.39 4.63-5.35 4.02-5.77-.47-3.68-.3-7.63 1.49-10.29 4.26-6.05 1.96-15.08 0-11.5-7.3-2.26-4.97-1.99-8.04.78-9.22 3.59 3.59 8.96 3.65 16.11.19 4.06-5.69 15.03-1.42 15.27 6.3Z" style="fill:#36312f"/><path d="M70.54 360.34c1.84 5.11-3.67 2.55-3.38 2.41 8.03-3.69 10.96 10.21 5.4 13.2-11.19-11.2-27.39.69-29.27-1.42l-2.97-3.34.08 7.48c-2.24-2.16-1.75-3.4-2.81-6.12-3.42-9.11.44-11.21 11.58-6.31-1.58-1.31-1.75-2.96-1.32-5.1.51-2.52 19.48-2.52 22.7-.81Z" class="cls-152"/><path d="M67.49 375.75c-4.7 4.35-9.66 2.23-13.62 3.63l-1.83 3.79c-.6 1.24-1.82 1.56-1.93-.06-.05-.72-.86-2.42-2.26-4.03 4.22-4.8 12.18-6.84 19.65-3.33Z" style="fill:#24201f"/><path d="M50.1 358.11c4.83-2.61 14.48-3.6 18 0 1.48-.92 3.01-1.54 4 0 1.77.55 1.77 1.28.09 2.17l-1.64.06-20.55.53c2.31 3.5 5.06 3.2 7.65 1.92.74 1.44.61 3.5-.41 5.06-.73 1.12-2.85.94-4.84 1.44-3.77 1.36-5.65 2.77-8.97-.98-.9-1.02-3.34-1.29-4.35-.77-1.87.97-2.07 3.2-1.5 5.01l-3.1-7.91c-1.08-2.75.83-5.2 3.86-6.54l1.61.04z" class="cls-9"/><path d="M99.79 126.18c9.06 2.59 18.26 8.25 20.39 17.6-1.71 2.6-7.2 1.39-8.36-1.34-6.73 5.67-8.83-.91-9.81-8.02-6.21.13-11.6-.66-16.17-2.36.9-5.57 8.76-7.36 13.95-5.88" class="cls-24"/><path d="M132.4 132.63c.62.32 1.25 1.07 1.77 2.58l4.03 2.86c-7.51-.09-12.17-4.68-15.38-9.79 4.62.93 6.88 2.95 9.58 4.35" style="fill:#7c7370"/><path d="M120.19 143.78c.92.36 2.58.55 3.64.45 1.78.42 1.81 1.07.15 1.95 1.78.44 1.79 1.09.12 1.94-3.54 2.04-8.77 1.01-11.52-1.91-4.71-.19-4.86-1.46-.75-3.76 2.91-.12 5.66.29 8.36 1.34Z" class="cls-26"/><path d="M134.09 146.11h1.97c.29 2.06 1.01 4.11 2.19 5.93-2.27.35-4.58-.21-6.17-1.92-.67-1.18-1.26-1.09-1.99 0h-2l-2.01-1.97c-.6 1.26-1.27 1.23-1.99-.02l-.12-1.94c2.03-2.16 7.06-1.16 10.12-.07Z" class="cls-163"/><path d="m134.09 146.11-10.12.07-.15-1.95c3.44-.35 7.85-1.02 10.27 1.88" class="cls-24"/><path d="m147.87 154.52 6.63 1.96c1.69.69 1.6.98-.25.86l8.44 8.4-.55 6.55.5 1.64-5.13.24c-.72.04-1.43.38-1.95.87-8.57 8.08-16.47 5.53-29.99 2.01 1.58-3.59 2.88-5.35 4.24-6.51-.33-2.68-.18-4.81.44-6.38 2.22-2.63 6.12-2.76 11.69-.4 1.91-2.06.83-3.68-3.21-4.87l-.49-4.71 9.62.35Z" style="fill:#3c3837"/><path d="M162.69 165.74c1.71 1.7.51 4.45-.55 6.55l-6.18-2.72c1.54-2.79 3.86-3.8 6.72-3.83Z" class="cls-77"/><path d="m138.25 154.17 10.49 5.21-5.41 10.37-13.06-5.6-8.36-5.19c4.97-5.46 10.85-4.98 16.35-4.78Z" style="fill:#312e2d"/><path d="M110.35 158.02c1.64 2.75.14 6.29-1.26 9.48 2.23 1.11 3.48-.77 3.43-2.32-.13-4.41 5.74 3.95 3.86 5.03l-5.03 2.91c-1.16.67-.68 3.41-1.1 5.12-3.44-1.05-3.47-10.45-12.17-9.53-5.58-6.94-5.68-12.47 3.99-14.62.69-.94 1.39-.89 2.1.09 1.16 2.5 3.35 3.59 6.18 3.84" style="fill:#655d5b"/><path d="m93.8 62.97 18.96 5.08c6.19 9.85 12.02 23.18 7.27 33.99-9.24-1.67-20.45-3.35-30.08-1.26-1.1-2.49 1.08-4.16 6.53-5.02-4.7-3.06-2.05-5.9 1.45-8.67.08-7.01-2.42-11.78-7.48-14.31-.62-7.7-5.58-6.46-10.28-2.64-.55 1.75-1.21 1.73-1.98.01l2.59-7.07c4.66-.61 9.21-1.14 13.03-.11Z" class="cls-55"/><path d="M115.85 101.02c-2.66-5.94-2.29-10.81-1.25-16.94 5.58 3.67 6.39 11.15 1.25 16.94" style="fill:#978f8c"/><path d="m111.82 142.44.75 3.76-9.7-.08c-.99.58-1.8 1.02-2.78.09-2.66-2.09-6.26-2.74-10.8-1.94l-1.2-2.17c-1.69 2.35-2.21 2.61-2.76-.38 1.66-.72 3.5-2.9 2.09-5.21-.74.22-3.03 1.3-3.94.7-1.07-.7-1.63-2.17-1.64-3.39l4-1.77c4.82-2.15 11.79-3.76 17.67-1.28 3.54 1.49 3.98 7.72 2.97 10.59 2.31 1.18 3.8 1.14 5.34 1.08" style="fill:#857c7a"/><path d="M80.63 116.3c-.64 1.66-1.45 1.63-2.43.03l-4.1-14.94c-1.38-4.91-3.91-11.23-.1-15.29-2.03 11.29 9.26 16.33 6.63 30.19Z" class="cls-140"/><path d="M80.45 124c-1.41 1.03-4.67.41-3.68-1.78l1.47-3.24c.27-.6.22-2.06-.04-2.65.69-.17 1.62-.11 2.43-.03.63-.84 1.78-2.17 2.71-1.87 1.03.34 2.33 2.02 1.96 3.73-.71 3.31-2.79 4.39-4.85 5.84" style="fill:#b3aeab"/><path d="M74.09 82.11c.04-1.66.34-3.4 2-4 0 1.65-.37 3.38-2 4" class="cls-140"/><path d="m85.33 141.73 2.76.38c4.36 2.27 2.08 3.44-2.06 3.98l-20.08 4.02c-5.66-1.61-16-5.03-9.77-11.82 1.28-2.76 5.35-3.23 7.97-1.15l-2.89 2.1c-3.07 2.22 6.76 9.99 24.07 2.49" class="cls-125"/><path d="m65.95 150.12-3.51.25c-1.51 1.49-5.08 1.35-6.77-.04-3.39-.48-5.78-1.88-7.18-4.18-.69 1.29-1.77 1.08-2.71 0-.31 1.77-.9 1.75-1.75.07l.06-2.32c3.93-.09 7.94-1.92 9.83-5.43l2.26-.18c2.45 1.46 1.15 6.98 4.29 8.35 1.27.56 3.29.67 6.66-.7 1.3 1.54-.32 3.2-1.18 4.17Z" style="fill:#d8d6d3"/><path d="M44.08 190.11c11.74-.58 2.09 8.37 8.11 20.97 1.37 1.3 1.01 1.75-.93 1.43 9.28 23.12-3.11 33.33-3.24 34.85-.08.95.43 2.09 1.77 2.68 1.76.35 1.72.91 0 1.66-3.37 6.51-5.95 12.68-7.76 18.51.11 1.04.41 2.84-.08 3.89.6 1.62.61 3.01.03 4.19l-2.28 23.18c-.53 5.34-.19 9.06-3.09 13.42 1.48 5.71 5.39 14.56.54 20.37-4.36-15.66-2.76-29.22-2.93-42.85 1.31-3.07 2.59-5.83 3.85-8.29-1.72-4.83-4-12.69-.14-15.97-1.08-6.08-2.23-15.27 2.18-19.37.76-6.78 2.55-13.4 5.36-19.85.44-9.3 1.22-27.73-5.96-33.59-3.42.25-4-1.39-1.76-4.91l6.33-.31Z" class="cls-110"/><path d="m37.93 268.14.14 15.97c-2.48 2.47-3.08 1.37-1.97-1.99-.88-.46-1.54-1.79-2-4v-16q4.74-2.7 3.84 6.03Z" class="cls-95"/><path d="m38.07 284.11-.16 10.12-3.68-1.83-.12-10.28c.57-1.75 1.24-1.72 2 0l1.97 1.99Z" style="fill:#817775"/><path d="M36.09 282.11h-2v-4c1.53.71 2.17 2.37 2 4" class="cls-110"/><path d="m41.98 278.28-.77-2.07c-.3-.81.42-1.42.74-2.12.4.55.75 1.38 1.44 1.96 1.06.88.4 2.49-1.41 2.23" class="cls-78"/><path d="m37.75 190.42 8.71 8.96 1.95 20.17c.71 7.38 3.4 14.78-3.97 19.68l-6.51 28.91c-.02-1.92-2.68-4.48-3.84-6.03v-2c1.18-.67 1.08-1.27 0-2v-10l1.99-2.57c-.94-6.84-.2-12.62 2.21-17.33-3.18-.02-3.01-1.44.22-2.25 1.98-9.67 2.29-19.11.93-28.34l-2.67 3.1-1.5 22.46c1.57 3.11 1.18 5.42-1.17 6.94 3.41 2 3.07 13.44 0 16-1.33-.22-2.1-1.71-2.1-3.89l.04-44.25c0-3.23.86-5.88 2.07-7.86l3.66.3Z" style="fill:#8f8885"/><path d="M34.1 248.11v-18c.82-3.74 1.57-5.37 4.2-1.9l-.28 21.88z" class="cls-134"/><path d="M34.1 260.11v-2c2.36-.33 2.36 2.33 0 2" class="cls-95"/><path d="M83.62 295.03c3.08 4.47 4.99 9.79 5.74 15.98.23 1.96 2.45 3.16 6.68 3.59l.67 2.23c-2.26 3.03-2.36 5.07-7.15 4.69-9.03-.71-3.39-12.96-9.43-11.56v-1.65c-5.56-2.99-6.35-9.42 1.61-7.98.25.04-4.97 1.28-2.97-2.23-2.13-8.13-4.86-15.99-4.88-24.32 5.11-2.3 7.11-.05 6.02 5.34q4.065 8.73 3.72 15.9Z" class="cls-64"/><path d="m109.79 188.22 15.95 10.21 7.74 16.36c7.42 2.29 12.87 5.96 17.28 11.1 2.71 5.47-4.53 2.1-16.15-2.48-.2 3.49 2.2 4.63 3.1 6.41 1 1.98-2.47 4.58-4.53 5.75l1.95 14.53c.56 4.15 1.09 7.48 4.81 10.55l-17.06 32.85-7.7 20.89c-.33.88-3.15 1.17-3.3 3.56-.34 5.69-5.35 8.27-9.79 7.34l1.97-4.29c.83-1.81-.71-3.32-2.7-2.36-1.06.51-4.24.8-4.39 3.32l-.6 10.11c-2.74 2.17-2.05 6.23.73 10.56-4.82 2.84-9.56 2.18-13.66.54 3.58-2.3 5.63-1.53 8.97-1.57l-8.54-7.81c.13-.47.13-1.14.07-1.65l2.17-1.91-5.96-11.35c-2.4-.69-2.1-1.93.4-2.65l-.44-6.26 3.51-3.22c.99 11.31 5.34 14.67 13.08 10.09 5.83-13.29 8.74-19.94 8.74-19.94 8.07-4.89 15.11-15.38 12.2-25.13q1.32-10.77 8.34-20.16c.36-9.3-.74-18.32-3.29-27.06 1.47-5.17.92-7.41-3.01-9.76-2.73-1.63-.36-4.64 3.23-4.49l1.23-1.45-2.37-1.59c.49-4.56-2.9-7.64-10.18-9.23-8-.32-15.16-1.61-21.47-3.89-.74 1.71-1.48 1.63-2.21-.14 1.52-2.45 4.23-4.02 6.44-5.83l15.45.05Z" style="fill:#524a49"/><path d="M83.94 332.13c-2.27-2.9-2.81-6.37-3.32-9.96-1.99-1-2.45-2.19-.47-3.29 4.63.73 9.05 11.51 8.32 13.83-.77 2.45-1.52.74-4.53-.58" class="cls-8"/><path d="m128.102 213.111.997-.997.997.997-.997.997z" class="cls-78"/><path d="m68.21 198.06-.6 1.94c1.66 3.77 2.12 8.18.66 12.09l-.02 5.96c-3.54 10.36-9.39 2.88-9.52-5.29-5.12-2.46-6.11-14.85-4.62-20.68l2.03.04 8.53.25c2 .06 3.95 2.77 3.55 5.69Z" style="fill:#4c4645"/><path d="M68.24 218.05c-.02 5.47-1.43 11.51-9.15 14.24-.53-2.48.57-5.04 2.24-7.16-4.11-3.5-4.61-7.51-3.42-12.53-2.67.74-4.42.51-6.66-.09.64-.31.93-1.01.93-1.43l-.08-17.02c0-1.62 1.25-2 1.99-1.98-.49 3.97.24 6.98 2.56 10.01 1.42 7.67 5.55 17.09 6.57 17.55 1.26.56 4.08-.9 5.02-1.59m.02-5.96c.01-4.04-1.76-8.13-.66-12.09 4.07 2.4 3.61 9.26.66 12.09" class="cls-30"/><path d="m89.72 179.43-7.98-1.49c.97-1.44 1.85-3.35 3.7-3.59 1.5-.19 2.95.54 5.32 1.93 1.4.82.06 2.73-1.04 3.15" style="fill:#675f5c"/><path d="m78.02 182.06-9.92.05c-1.72-2.24-.64-2.7 2.05-2.04l4.08.06c.81-1.22 1.47-2.63 2.21-3.22 1.07-.85 2.79.59 2.37 2.2l-.77 2.95Z" class="cls-99"/><path d="M80.52 159.7c5.24.46 5.05 2.63 1.57 6.17-1.92 3.98-6.13 5.65-12.01 4.51.36 4.51 3.23 6.48 4.14 9.75-.58 1.63-3.03 1.41-4.08-.06-17.9 3.87-25.94.38-24.13-10.46h2.49l1.78-.58c-2.33-1.39-2.31-8.82.27-10.66.29.01 1.1-.07 1.9.98-1.25-5.24 3.09-6.37 7.64-7.22.69-1.17 1.42-1.11 2.17.07-.37 3.77-3.41 5.85-8.28 10.34 4.8 2.24 7.47 6.26 9.56 10.18 3.67.74 5.12-4 6.12-5.28 3.39-2.36 8.11-4.74 10.85-7.75Z" style="fill:#69615f"/><path d="M50.55 158.37c.23 3.53 1.3 7.15-.27 10.66.32.52.75.85 1.44 1.04 4.62 2.19.37 5.96-1.63 2.07-.12-1.1-.52-1.9-1.59-2.52-3.76 1.88-.49 6.81 1.38 8.57 5.71 5.37 16.34-2.29 20.27 1.87l-2.05 2.04-20.03-.06c-3.16-2.06-4.59-5.28-5.25-8.91s4.64-5.98 4.24-8.71l-.76-5.12c-.18-1.2 3.11-1.71 4.26-.95Zm9.54-6.23c-3.34 1.24-5 4.3-7.64 7.22l-2.36-5.49 4.01-1.65c1.52-1.4 4.39-1.5 5.99-.08" style="fill:#756e6c"/><path d="m74.09 354.11-.01 2-5.99 2H50.1l4-4z" style="fill:#7c7672"/><path d="m164.23 278.46.29 11.55c-1.84 7.11 1.36 13.34 1.22 20.09l-.73 35.52-2.93.5-8.08-2.42c-1.78-1.97-4.74-2.29-6.8-.59-.08.22-.09.39-.06.48 2.04 1.37-.13 3.71-1.69 1.92l-.99-.14a.98.98 0 0 1-.7-.5c1.75-4.11 4.95-6.53 8.48-10.24l-6.59 1.59c3.68-6.22 8.69-7.49 15.17-9.84l-1.58-12.6c1.92-14.05 1.96-28.08-3.19-42.39-20.65 14.04-7.1 34.55-17.09 37.82-1.62-4.73-4.17-1.48-3.81 1.09 1.75 5.14.8 8.46-.46 12.1-2.38-2.53-2.26-5.51-2.42-8.38l-.1-1.81.02-4.31c4.06-3.71-1.28-12.31 4.62-21.79l17.57-28.23 1.43 5.53c.15.59 3.16.82 3.2 2.31.13 4.73-.44 12.09 5.2 12.73Z" style="fill:#36302e"/><path d="M80.13 308.32c1.76.36 1.71.91 0 1.65 2.26 1.13 2.78 5.19.44 6.26-4.24-2.83-9.15-2.38-14.75 1.34l-2.14-.59c-7.44-12.95-10.53-9.66-9.27 9.86-2.47 2.97-3.91 6.83-4.32 11.56 6.63 5.07 10.8 10.89.01 10.04-2.75-.25-5.49-.39-8.23-.35-.82-6.21 2.17-12.3 2.52-18.82l2.05-37.43c.5-9.09-2.67-17.63-.35-25.62-3.38 0-3.22-1.37.06-2.33 3.69-6.04 7.5-7.64 14.2-9.08.45-5.56 3.79-8.99 8.95-6.75-2.54 8.77-3.73 16.86-3.57 24.25.62 12.98 4.42 28.17 14.41 35.99Z" class="cls-56"/><path d="m80.56 316.23-.4 2.65.47 3.29c-1-.04-3.05-.54-3.19-1.7l-.56-4.6c-2.5-3.22-4.85.78-4.9 2.51-7.33 1.8-14.56 4.36-15.13 15.15-2.66-1.04-2.84-2.31-4.15-4.1-.31 4.96-1.64 6.51-2.61 8.98l.7-23.36c.17-4.04-.79-7.59 3.76-9.8 2.85-1.39 10.71 5.56 11.03 4.25-.24.95-1.4 3.97.34 5.28 5.24-3.16 11.65-3.31 14.64 1.44Z" style="fill:#413b39"/><path d="M73.72 298.04c.38-1.31 1.58-1 2.38.07h2.67c3.56.7 5.56 2.49 4.85 3.17-.78.75-3.66 1.17-5.48 1.59 1.09.78 2.35 1.83 3.12 2.85.52.7.09 2.15-1.12 2.6-.82.71-4.03 1.79-4.93.87l-5.64-8.45c-5.45-8.17-5.32-18.79-7.76-28.44l6.14-24.41c-3.42 3.15-3.54 7.19-4.22 11.17-6.52.18-12.22 2.5-17.57 4.84-.12-3.71 1.09-7.78 3.65-12.21v-1.66c2.53-2.99 5.57-3.45 9.96-3.55l11.26-.25c-1.12 7.91-1.98 14.44-5.06 21.58 3.18 1.01 6.71 3.37 6.29 5.38l-1.42 6.86c3.59 13.02.47 17.91 2.91 17.98Z" class="cls-10"/><path d="M57.5 278.72c6.17 9.24-.89 18.01 3.35 22.39.57.58-.59 2.83-1.47 2.63-.97-.23-4.9-1.53-5.22-2.53l-5.02-24.1c-.84-4.01 5-10.86 9.69-13.2-.78 4.33 1.07 9.52-1.34 14.81Z" class="cls-80"/><path d="M46.14 263.91c.16.68.1 1.79-.06 2.33-1.21-.48-3-.11-3.69 1.06-.47.78-.47 2.07-.36 2.91-3.85-2.12 1.91-9.39 7.76-18.51 0 4.41-2.15 8.15-3.65 12.21" class="cls-78"/><path d="M78.09 356.11c2.41 1.47 5.59 1.59 8.01 0l34.06.49c-.06.42-.22 1.1-1.06 1.8l-27.15-.38c-2.14-.03-3.63.75-3.86 2.09h-4c-1.57 1.59-4.57 1.75-6 0l-5.91.16-.09-2.17c-.58-.68.08-1.35 1.99-2h4.01Z" style="fill:#85807c"/><path d="M152.08 354.12c.05 1.36-.5 3.02-1.35 3.69-1.74 1.35-3.71 1.76-7.81 1.78 0-1.69 1.42-3.43 2.1-5.27z" class="cls-168"/><path d="M86.1 356.12c-.17 1.95-1.92 1.97-3.08 2.13-2.14.29-4.37-.05-4.92-2.13h8.01Z" class="cls-50"/><path d="M108.1 360.1c.24 1.08-.36 1.72-1.07 2.03-1.73.75-3.19-.55-2.94-2.03h4Z" class="cls-170"/><path d="M135.63 360h-1.91c-.33-2.12 1.97-2.58 1.91 0" class="cls-69"/><path d="M84.09 360.11c-.09 1.85-1.54 2.07-2.96 2.28-1.84.28-3.07-.34-3.04-2.28z" class="cls-58"/><path d="M74.08 356.11c.02 1.11-.89 2-1.99 2h-4c1.1-2.21 3.76-2 5.98-2Z" class="cls-50"/><path d="M132.09 150.12h-1.99c-.33-2.36 2.33-2.36 1.99 0" class="cls-26"/><path d="M96.48 95.76c-10.38-2.05-13.6 9.65-16.77 2.09 3.75-5.54 5.56-17.39 4.72-23.61-.14-1.02-2.43-1.42-3.92-1.63l-.35-2.47c.74-2.58 3.09-4.09 5.04-4.28 6.33-.62 6.11 7.18 12.8 5.07 2 5.18 3.77 11.26 3.61 17.31-1.06 2.14-4.89 4.84-5.13 7.51Z" style="fill:#96908d"/><path d="m79.71 97.85-2.44-5.82c-.04-7.11 1.8-13.39 3.24-19.41.46-2.48 6.89-6.23 8.31-3.18l-1.71 21.51c-.2 2.55-1.69 5.09-2.94 6.31-.99.96-3.05 1.02-4.46.59" style="fill:#dad9d7"/><path d="M92.92 90.66c.54-4.27.51-8.81 2.82-13.75 4.06 3.88 4.8 10.61-2.82 13.75" style="fill:#9e9895"/><path d="m93.09 73.3 1 1.81-1 1-1-1z" class="cls-55"/><path d="m100.09 146.22-11.09.22-2.97-.34 2.06-3.99 14.11.18z" style="fill:#9c9795"/><path d="m62.44 150.37-.18 1.83-2.17-.07-5.99.08c.1-.83.82-1.88 1.57-1.88z" class="cls-125"/><path d="M55.68 150.33c1.03.6.5 1.23-1.57 1.88.54 3.4-2.26 5.08-4.01 1.65l-4.22.49c-9.05 9.54-14.1 9.97-15.16 1.31l5.58-5.48c.32-.14.89-.09 1.25 0l1.54-.08c.4-.19.74-.56 1.02-.98-.66-.79 0-1.79 2-2.98.56-.15 1.37.1 1.94.08l1.75-.07c1.09 1.1 1.64 1.15 2.71 0 1.65 0 4.77-1.6 6.2-.95 1.65.75 1.31 4.08.98 5.13Z" style="fill:#f1f1f0"/><path d="M45.87 154.34c-2.95 5.98-10.47 5.96-10.15 14.01-.42-1.04-2.17-1.67-2.57-.96-.63 1.1-.12 3.24-2.88 5.18-.69-5.16.54-10.64-2.01-16.86 2.5-2.78 5.12-4.22 8.04-5.53-.49 1-3.82 3.53-3.33 4.87.58 1.62 4.2 5.64 5.35 4.39 2.72-2.97 4.98-4.79 7.56-5.09Zm-8.32-4.16c.9-1.92 2.51-3.47 4.55-4.04l-2 2.98 1.88 1.8c-1.09-1.61-2.69-.01-1.08 1.08l-1.82-1.9c-.45.22-1.01.22-1.54.08Zm8.24-4.02h2.71c.08 2.48-2.87 2.49-2.71 0" style="fill:#dbdad9"/><path d="M38.51 225.96c-.44.79-.92 1.45-1.54 1.64-2.65.81-.67-24.74 0-28.64.1-.57 1.15-.98 2.47-1.35 5.75 7.81 2.55 19.63-.93 28.34Z" class="cls-134"/><path d="M39.44 197.62c.6 16.27-6.36 27.85-.93 28.34l-.22 2.25-4.2 1.9V200.2c-.01-1.41 2.34-4.18 2.95-3.86l2.39 1.27Z" style="fill:#cbc8c3"/><path d="m103.4 293.77-3.17 12.83-4.2 8.01c-1.24 2.84-8.95 2.31-8.82-.71.3-7.31-1.47-12.52-3.59-18.87l2.16-.14c3.08 2.98 6.9 3.6 11.48 1.87-1.71-3.91.82-13.03 6.79-10.61 5.99.53 0-5.86 6.71-10.02 4.87 4.01-1.38 14.63-7.36 17.64" class="cls-151"/><path d="M96.71 316.84c-3.6 1.46-4.05-.03-.67-2.23l-2.22-1.51c4.93-4.39 6.22-8.01 3.86-10.85 1.09-4.33 3-7.15 5.73-8.48 8.4-5.02 11.92-15.32 7.15-23.56-1.75-.55-1.72-1.2 0-1.94-1.36-1.51-2.04-3.04-.28-4.4-1.76-.34-1.72-.9 0-1.66-1.41-.79-1.39-2.58.06-5.36 10.36-3.2 12.75-12.32 7.15-27.36-5.31-2.65-4.99-13.95-2.55-17.66l1.54-.89c-3.2-7.09-10.02-10.63-20.46-10.61l-3.96-1.89c-1.88-.89-3.26-2.65-1.93-4.3l23.81 1.7c7.25.52 11.93 6.63 10.22 13.01l1.15 1.06c.7 1.21-.62 1.87-1.47 1.22-.24-.34-.57-.65-.91-.83-1.13.8-.6 3.39.26 4.03 1.42 1.06 3.56 1.68 7.56 2.68-6.39 5.45-3.53 12-3.11 19.31.29 5.1-1.91 9.78 2.77 14.85-8.2 9.01-9.54 20.93-9.16 32.94l-8.59 9.55c4.68-2.58 6.63 0 4.61 2.78-7.44-.46-12.23 3.85-13.04 9.45s-5.19 7.83-7.51 10.95Z" class="cls-78"/><path d="M92.04 198.44c-.63 1.73-1.34 1.65-2.12-.11-3.32.71-4.21.23-2.12-2.6l.11-1.73 2.21.14 1.93 4.3Z" class="cls-45"/><path d="M110.26 262.21c-5.62 5.52-9 .3-5.44-6.1-3.75-6.6-5.47-12.82-5.15-18.64-1.68-.61-1.45-.95.49-1.07 5.04-2.97 11.95-9.94 12.77-16.71.52-4.27-2.19-9.27.95-13.46-10.26-1.05-19.05-1.32-21.83-7.8 5.08-1.99 20.64 2.33 20.46 2.17 1.65 1.5 2.4 4.08 3.06 6.42l1.55-4.81c.2-.63 2.72 1.94 2.4 2.59l-3.04 6.13c.3.3.56.77.61 1.27.06.6-.42.98-1.01.92l-1.14-1.29c-1.89.92-1.29 4.45.36 4.41l7.81-.2-8.42 6.4c8.7 4.74 9.05 9.75 8.56 18.14-.3 5.21 2.37 13.49-4.08 16.71-2.81 1.4-7.97 1.1-8.91 4.94Zm-6.86 31.56c.14-2.62 2.28-3.95 5.65-5.27l1.71-12.37c-.99-.44-.86-1.46-.66-1.94-3.28-2.33-3.86-6.3.44-3.98 2.73.22 4.86 2.97 5.02 5.32.19 2.7-4.65 18.74-12.17 18.24Z" class="cls-123"/><path d="M99.86 210.26v1.89c8.28 2.9 8.91 6.79 1.88 11.64-.38 4.29-1.83 7.02-4.36 8.18l-1.35 1.45c3.84.23 3.17 3.65.01 4.94-2.29 4.72 3.19 11.07-.12 21.11l-.95 3.71c7.18 8.45 7.21 24.61-.76 32.49-4.32 12.11-7.57-2.34-7.95-9.35 2.11-7.45.71-15.36-.59-24.05l-5.03 1.15c-.62-7.14 1.41-10.96 5.78-15.76-2.09-2.69-5.19-9.04-2.03-11.84.15-3.36-1.55-6.11-5.1-8.23l1.38-6.56c-5.18-10.33 13.71-19.19 19.2-10.76Z" class="cls-139"/><path d="M99.86 210.26c-4.52-2.96-10.01-1.12-12.88 2.89-1.23.54-4.05.85-4.13 3.14-.06 1.74 3.33 2.83 5.29 4.48l-5.2 3.44c-2.21 1.46 3.61 5.09 4.33 8.98.27 1.46-2.07 1.88-2.9 2.62-2.73-2.85-5.41-5.05-10.36-4.49.59-6.66.72-15.1 4.09-20.7 5.02-8.37 21.04-6.13 22.98-2.99.57.93 1.66 2.28-1.23 2.63Z" class="cls-36"/><path d="m100.15 236.4-.49 1.07-3.62.88c.55-1.13.1-3.67-.01-4.94l-1.29-.8c-1.66-1.22.18-3.44 1.61-1.62.14.32.5.79 1.02.97.56-4.01.08-9.03 3.22-12.88 3.69 2.16 5.63-2.02 2.2-3.34l-3.68-1.63c-.71-.31-1.33-1.82.73-1.97 3.26.56 6.68-.67 10.56 2.13-5.13 7.47-7.08 15.16-10.26 22.13Z" class="cls-36"/><path d="M94.21 295.66c2.06-3.35 3.58-2.8 3.05 1.09-1.29 2.02-2.99 4.15-3.84 6.35l3.78-.02c1.6 0 1.51 1.37.88 1.91-4.28 3.74-4.28 9.5-7.12 5.29-.48-.72.03-1.54-.43-2.76l-4.76-12.63-.03-6.76.51-1.82c3.41 2.62 1.42 8.88 3.12 9.94 1.16.73 3.6.18 4.83-.59Z" class="cls-120"/><path d="m92.04 198.44 8.15 2.79c12.58.06 17.07 4.97 13.46 14.75 4.11-.19 4.18 1.72.23 5.74 3.89 5.71-6.94 19.08-13.73 14.68-3.23-3.62 1.15-13.52 5.6-17.18-.81-3.22-2.77-5.58-5.9-7.07-1.76-.43-1.71-1.06.01-1.89-10.95-12.27-32.2 11.07-14.87 22.82l-.61 2.72c7.01 8.18 4.74 14.08.54 23.15 6.35 3.26 10.66 25.12 1.35 27.36l-.51 1.82-2.7-.13c-2.69-8.72-6.52-16.82-11.49-24.29l2.76-9.86c-4.75-13.22-5.15-27.6-1.82-41.17q.63-14.925 7.56-10.23c3.24-4.07 6.52-5.43 9.84-4.11.51.01 1.77.1 2.12.11Z" style="fill:#736b69"/><path d="M86.38 195.55c-.2 2.25-2.3 4.55-6.3 6.89-3.98 1.66-6.5 5.91-7.56 10.23l-.16-16.35c5.21-1.01 9.9-1.83 14.03-.77Z" class="cls-45"/><path d="M85.75 288.13c1.93 1.42 2.2 5.46.03 6.76-.5 1.79-1.23 1.8-2.16.14l-4.56-13.66c-1.13-3.37-2.59-6.21-5.17-7.58-.01-5.23-8.38-14.21.45-19.96 1.05 2.92 1.6 5.49-2.01 9.5l12.91 3.72c-2.76 2.35-4.42 1.37-5.94 1.07-.99-.2-2.01 1.8-.17 2.41l4.76 1.59c-4.29 5.76-3 11.73 1.87 16Z" style="fill:#6b6361"/><path d="M87.8 195.73c.89.72 1.63 1.6 2.12 2.6l-9.84 4.11c1.12-3.08 3.44-5.34 6.3-6.89.47.12.95.21 1.42.18" class="cls-123"/><path d="m78.104 245.114.997-.997.997.997-.997.997z" class="cls-139"/><path d="m107.09 208.11 1 1-1 1.48-1-1.48z" class="cls-36"/><path d="m76.1 298.11-2.38-.07c-.12-2.39 2.65-2.4 2.38.07" class="cls-64"/><path d="M86.03 146.1c1.84-2.24 2.62-2.68 2.97.35 3.8 2.87 8.42 2.77 13.87-.32.32-4.61 3.55-4.59 9.7.08 3.73 1.19 7.58 1.87 11.52 1.91l1.99.02c.88.54.82 1.19-.04 1.91-2.8-.09-7.2.86-9.71-.15-4.47-3.37-13.86.31-14.02 1.01-.22.92 1.4 2.44 1.86 3.27l-2.1-.09c-4.89 5.06-14.9 6.28-21.56 5.61-.31 5.38-4.04 8.79-11.22 10.22-.18 14.43-17.26.1-16.57-9.4l9.54-8.31c-1.71-.58-1.6-1.19.18-1.83-.33-2.5 2.59-2.7 3.51-.25 3.45-4.09 15.6-6.03 20.08-4.02Z" style="fill:#585150"/><path d="M102.08 154.09c-3.74 3.97-4.63 9.31-3.99 14.62-.6-.66-2.23-3.93-3.09-3.56l-4.41 1.92c-1.97.86-6.72-2.96-8.5-1.21-1.29-1.99-1.71-4.07-1.57-6.17 4.91-5.37 14.8-5.92 21.56-5.61Z" style="fill:#6f6765"/><path d="m128.09 150.12-2.05-.07.04-1.91c.97.01 1.76 1.02 2.01 1.98" class="cls-26"/><path d="m100.09 146.22 2.78-.09c-4.84 4.25-10.86 9.48-16.81 5.18 3.08-1.37 3.57-3.51 2.94-4.86.31-3.47 9.56-3.13 11.09-.22Z" style="fill:#4e4947"/><path d="M77.93 153.38c.18 3.27-5.59 9.39-8.89 10.21-1.68.42-5.9-2.25-6.45-4.3 5.82-7.3 15.09-10.4 15.34-5.91" style="fill:#4a4544"/><path d="M99.67 237.47c2.77 1.12 3.63 3.35 3.44 6.31 3.02-3.23 6.28-.57 2.43 1.73.03 3.72 2.75 7.56 3.96 11.28-1.47 1.35-2.6 3.25-2.69 4.28-.08.91 2.79 1.53 3.44 1.13v1.66c.33 2.19-1.05 3.61-4.13 4.24 1.75.33 3.08 2.35 3.98 6.08 3.25-.87 3.66.52.66 1.94-1.96 8.89-4.2 12.23-6.71 10.02l-2.88-.17c-1.62-5.52-2.68-11.65-3.19-18.4-4-1.23-4.69-3.93-2.06-8.11-3.9-3.24-7.17-21.3.12-21.11-.29-5.42.82-5.27 3.62-.88Z" style="fill:#756e6b"/><path d="M110.55 268.27c-1.79 3.16-3.08 3.4-4.43-.16.39-2.04 2.26-3.53 4.14-4.24 1.04.42 1.71 1.51 1.45 2.68-.15.65-.6 1.29-1.17 1.72Z" class="cls-123"/><path d="M110.55 268.27v1.94c-1.15.06-1.88 1.16-1.63 1.89.28.82.78 1.58 1.19 2.09-2.65-.72-4.5-3.34-3.98-6.08l4.43.16Z" class="cls-151"/><path d="m104.05 286.15-6.79 10.61-3.05-1.09 2.51-21.06c.22-2.23.68-5.14-.68-6.52-.85-.86-2.63-1.1-3.85-.92.54-4.64 2.54-6.03 3.73-7.7-.07.34-.11 3.66.37 4.57.54 1.02 2.06 1.2 4.19 1.97-.47 2.31-.51 6.5.49 6.88l4.84 1.83c-2.07 3.77-3.31 7.88-1.75 11.45Z" class="cls-24"/><path d="m103.09 260.11 1.41 1-1.41 1-1-1z" class="cls-123"/></g></svg>