<?xml version="1.0" encoding="UTF-8"?>
<svg id="Layer_2" data-name="Layer 2" xmlns="http://www.w3.org/2000/svg" viewBox="0 0 353.6 363.56">
  <defs>
    <style>
      .cls-1 {
        fill: #978f8c;
      }

      .cls-2 {
        fill: #d7d1cd;
      }

      .cls-3 {
        fill: #6e615e;
      }

      .cls-4 {
        fill: #473f3d;
      }

      .cls-5 {
        fill: #453d3b;
      }

      .cls-6 {
        fill: #423a38;
      }

      .cls-7 {
        fill: #938b86;
      }

      .cls-8 {
        fill: #c9c2be;
      }

      .cls-9 {
        fill: #867d78;
      }

      .cls-10 {
        fill: #584d4b;
      }

      .cls-11 {
        fill: #554e4c;
      }

      .cls-12 {
        fill: #8d8481;
      }

      .cls-13 {
        fill: #8e8684;
      }

      .cls-14 {
        fill: #4f4543;
      }

      .cls-15 {
        fill: #605855;
      }

      .cls-16 {
        fill: #47423f;
      }

      .cls-17 {
        fill: #9c9390;
      }

      .cls-18 {
        fill: #aea6a3;
      }

      .cls-19 {
        fill: #58504e;
      }

      .cls-20 {
        fill: #b5adaa;
      }

      .cls-21 {
        fill: #26211f;
      }

      .cls-22 {
        fill: #695f5d;
      }

      .cls-23 {
        fill: #5b5553;
      }

      .cls-24 {
        fill: #beb5b3;
      }

      .cls-25 {
        fill: #a29996;
      }

      .cls-26 {
        fill: #342c29;
      }

      .cls-27 {
        fill: #4c403c;
      }

      .cls-28 {
        fill: #5e5654;
      }

      .cls-29 {
        fill: #3b322f;
      }

      .cls-30 {
        fill: #4c4441;
      }

      .cls-31 {
        fill: #908884;
      }

      .cls-32 {
        fill: #9a918d;
      }

      .cls-33 {
        fill: #89807d;
      }

      .cls-34 {
        fill: #292220;
      }

      .cls-35 {
        fill: #584f4c;
      }

      .cls-36 {
        fill: #6b6260;
      }

      .cls-37 {
        fill: #bfb9b2;
      }

      .cls-38 {
        fill: #4e4542;
      }

      .cls-39 {
        fill: #8e8382;
      }

      .cls-40 {
        fill: #c7beb9;
      }

      .cls-41 {
        fill: #524c49;
      }

      .cls-42 {
        fill: #aea7a3;
      }

      .cls-43 {
        fill: #7f7673;
      }

      .cls-44 {
        fill: #e4e0dc;
      }

      .cls-45 {
        fill: #b0a8a6;
      }

      .cls-46 {
        fill: #6d635f;
      }

      .cls-47 {
        fill: #413a38;
      }

      .cls-48 {
        fill: #b6b0ad;
      }

      .cls-49 {
        fill: #8e8681;
      }

      .cls-50 {
        fill: #433e3b;
      }

      .cls-51 {
        fill: #817775;
      }

      .cls-52 {
        fill: #d5cfcc;
      }

      .cls-53 {
        fill: #978d8a;
      }

      .cls-54 {
        fill: #5f5451;
      }

      .cls-55 {
        fill: #322b2a;
      }

      .cls-56 {
        fill: #716864;
      }

      .cls-57 {
        fill: #2f2c29;
      }

      .cls-58 {
        fill: #4f4542;
      }

      .cls-59 {
        fill: #938985;
      }

      .cls-60 {
        fill: #24201e;
      }

      .cls-61 {
        fill: #8c817e;
      }

      .cls-62 {
        fill: #4a4442;
      }

      .cls-63 {
        fill: #c3bab6;
      }

      .cls-64 {
        fill: #a39996;
      }

      .cls-65 {
        fill: #625755;
      }

      .cls-66 {
        fill: #4d4341;
      }

      .cls-67 {
        fill: #a49c96;
      }

      .cls-68 {
        fill: #d7cfcd;
      }

      .cls-69 {
        fill: #5f5450;
      }

      .cls-70 {
        fill: #a49b98;
      }

      .cls-71 {
        fill: #635854;
      }

      .cls-72 {
        fill: #8d7e78;
      }

      .cls-73 {
        fill: #282422;
      }

      .cls-74 {
        fill: #a09895;
      }

      .cls-75 {
        fill: #554d4b;
      }

      .cls-76 {
        fill: #c0b7b5;
      }

      .cls-77 {
        fill: #9e9592;
      }

      .cls-78 {
        fill: #afa5a3;
      }

      .cls-79 {
        fill: #564e4c;
      }

      .cls-80 {
        fill: #837b78;
      }

      .cls-81 {
        fill: #958c8a;
      }

      .cls-82 {
        fill: #413a37;
      }

      .cls-83 {
        fill: #76655f;
      }

      .cls-84 {
        fill: #504946;
      }

      .cls-85 {
        fill: #aaa29f;
      }

      .cls-86 {
        fill: #4d423f;
      }

      .cls-87 {
        fill: #534b49;
      }

      .cls-88 {
        fill: #99918e;
      }

      .cls-89 {
        fill: #706966;
      }

      .cls-90 {
        fill: #5c5451;
      }

      .cls-91 {
        fill: #5d5452;
      }

      .cls-92 {
        fill: #867c7b;
      }

      .cls-93 {
        fill: #4e433f;
      }

      .cls-94 {
        fill: #716965;
      }

      .cls-95 {
        fill: #69605d;
      }

      .cls-96 {
        fill: #25211e;
      }

      .cls-97 {
        fill: #443a37;
      }

      .cls-98 {
        fill: #4d4543;
      }

      .cls-99 {
        fill: #665b59;
      }

      .cls-100 {
        fill: #4a4340;
      }

      .cls-101 {
        fill: #302d2c;
      }

      .cls-102 {
        fill: #625856;
      }

      .cls-103 {
        fill: #393634;
      }

      .cls-104 {
        fill: #928987;
      }

      .cls-105 {
        fill: #605753;
      }

      .cls-106 {
        fill: #857c78;
      }

      .cls-107 {
        fill: #7c7370;
      }

      .cls-108 {
        fill: #615855;
      }

      .cls-109 {
        fill: #837b77;
      }

      .cls-110 {
        fill: #584d48;
      }

      .cls-111 {
        fill: #988e8b;
      }

      .cls-112 {
        fill: #d8d2d0;
      }

      .cls-113 {
        fill: #221e1b;
      }

      .cls-114 {
        fill: #352f2b;
      }

      .cls-115 {
        fill: #2a2523;
      }

      .cls-116 {
        fill: #272321;
      }

      .cls-117 {
        fill: #2b2623;
      }

      .cls-118 {
        fill: #302a28;
      }

      .cls-119 {
        fill: #bab1ad;
      }

      .cls-120 {
        fill: #4f4745;
      }

      .cls-121 {
        fill: #cbc5c1;
      }

      .cls-122 {
        fill: #726a67;
      }

      .cls-123 {
        fill: #4f423e;
      }

      .cls-124 {
        fill: #89807b;
      }

      .cls-125 {
        fill: #6e6360;
      }

      .cls-126 {
        fill: #554b48;
      }

      .cls-127 {
        fill: #302b29;
      }

      .cls-128 {
        fill: #8f8782;
      }

      .cls-129 {
        fill: #897f7d;
      }

      .cls-130 {
        fill: #494240;
      }

      .cls-131 {
        fill: #dfd8d3;
      }

      .cls-132 {
        fill: #514947;
      }

      .cls-133 {
        fill: #39302d;
      }

      .cls-134 {
        fill: #2f2c2a;
      }

      .cls-135 {
        fill: #6a605c;
      }

      .cls-136 {
        fill: #ac9e96;
      }

      .cls-137 {
        fill: #362f2d;
      }

      .cls-138 {
        fill: #afa8a5;
      }

      .cls-139 {
        fill: #847875;
      }

      .cls-140 {
        fill: #211c1a;
      }

      .cls-141 {
        fill: #8c8280;
      }

      .cls-142 {
        fill: #2c2a27;
      }

      .cls-143 {
        fill: #b5a9a5;
      }

      .cls-144 {
        fill: #35302e;
      }

      .cls-145 {
        fill: #92827c;
      }

      .cls-146 {
        fill: #7e7370;
      }

      .cls-147 {
        fill: #877d7c;
      }

      .cls-148 {
        fill: #605754;
      }

      .cls-149 {
        fill: #8c7b74;
      }

      .cls-150 {
        fill: #827876;
      }

      .cls-151 {
        fill: #726867;
      }

      .cls-152 {
        fill: #afa6a4;
      }

      .cls-153 {
        fill: #3d3332;
      }

      .cls-154 {
        fill: #514a47;
      }

      .cls-155 {
        fill: #8f8783;
      }

      .cls-156 {
        fill: #3b3531;
      }

      .cls-157 {
        fill: #8f8582;
      }

      .cls-158 {
        fill: #c4bdba;
      }

      .cls-159 {
        fill: #514846;
      }

      .cls-160 {
        fill: #3f3a37;
      }

      .cls-161 {
        fill: #7c726e;
      }

      .cls-162 {
        fill: #3a3230;
      }

      .cls-163 {
        fill: #a4938c;
      }

      .cls-164 {
        fill: #625a56;
      }

      .cls-165 {
        fill: #776e6a;
      }

      .cls-166 {
        fill: #625752;
      }

      .cls-167 {
        fill: #99908e;
      }

      .cls-168 {
        fill: #6a5a54;
      }

      .cls-169 {
        fill: #524947;
      }

      .cls-170 {
        fill: #a39b98;
      }

      .cls-171 {
        fill: #b5acab;
      }

      .cls-172 {
        fill: #454240;
      }

      .cls-173 {
        fill: #938986;
      }

      .cls-174 {
        fill: #736b68;
      }

      .cls-175 {
        fill: #756967;
      }

      .cls-176 {
        fill: #8a7f7a;
      }

      .cls-177 {
        fill: #342d2b;
      }

      .cls-178 {
        fill: #3c3431;
      }

      .cls-179 {
        fill: #383533;
      }

      .cls-180 {
        fill: #897b76;
      }

      .cls-181 {
        fill: #867c78;
      }

      .cls-182 {
        fill: #bcb5b2;
      }

      .cls-183 {
        fill: #3e3835;
      }

      .cls-184 {
        fill: #564c4a;
      }

      .cls-185 {
        fill: #6e6562;
      }

      .cls-186 {
        fill: #63544d;
      }

      .cls-187 {
        fill: #b0a8a5;
      }

      .cls-188 {
        fill: #dbd5d1;
      }

      .cls-189 {
        fill: #c2bab8;
      }

      .cls-190 {
        fill: #e4dfdc;
      }

      .cls-191 {
        fill: #282421;
      }

      .cls-192 {
        fill: #695f5c;
      }

      .cls-193 {
        fill: #79706d;
      }

      .cls-194 {
        fill: #382f2d;
      }

      .cls-195 {
        fill: #a79e9c;
      }

      .cls-196 {
        fill: #36302e;
      }

      .cls-197 {
        fill: #463b38;
      }

      .cls-198 {
        fill: #776f6c;
      }

      .cls-199 {
        fill: #cdc3c1;
      }

      .cls-200 {
        fill: #756c68;
      }

      .cls-201 {
        fill: #3f3734;
      }

      .cls-202 {
        fill: #6b605e;
      }

      .cls-203 {
        fill: #766c6a;
      }

      .cls-204 {
        fill: #a39a96;
      }

      .cls-205 {
        fill: #73655e;
      }

      .cls-206 {
        fill: #504846;
      }

      .cls-207 {
        fill: #1a1715;
      }

      .cls-208 {
        fill: #877f7d;
      }

      .cls-209 {
        fill: #807773;
      }

      .cls-210 {
        fill: #5a4e4b;
      }

      .cls-211 {
        fill: #3c3532;
      }

      .cls-212 {
        fill: #4c4240;
      }

      .cls-213 {
        fill: #cdc8c3;
      }

      .cls-214 {
        fill: #cbc6c1;
      }

      .cls-215 {
        fill: #b1a8a3;
      }

      .cls-216 {
        fill: #8a7f7d;
      }

      .cls-217 {
        fill: #685f5d;
      }

      .cls-218 {
        fill: #625a57;
      }

      .cls-219 {
        fill: #9a918f;
      }

      .cls-220 {
        fill: #c6bfb9;
      }

      .cls-221 {
        fill: #92837d;
      }

      .cls-222 {
        fill: #413734;
      }

      .cls-223 {
        fill: #4e4543;
      }

      .cls-224 {
        fill: #aba3a0;
      }

      .cls-225 {
        fill: #eceae8;
      }

      .cls-226 {
        fill: #a9a39e;
      }

      .cls-227 {
        fill: #e3ddd9;
      }

      .cls-228 {
        fill: #efeeec;
      }

      .cls-229 {
        fill: #6e625d;
      }

      .cls-230 {
        fill: #2d2724;
      }

      .cls-231 {
        fill: #a39d98;
      }

      .cls-232 {
        fill: #615755;
      }

      .cls-233 {
        fill: #a09893;
      }

      .cls-234 {
        fill: #3d3432;
      }

      .cls-235 {
        fill: #4e4643;
      }

      .cls-236 {
        fill: #bcb4ae;
      }

      .cls-237 {
        fill: #908885;
      }

      .cls-238 {
        fill: #766c69;
      }

      .cls-239 {
        fill: #837976;
      }

      .cls-240 {
        fill: #7f7671;
      }

      .cls-241 {
        fill: #cec8c5;
      }

      .cls-242 {
        fill: #c0b9b4;
      }

      .cls-243 {
        fill: #807673;
      }

      .cls-244 {
        fill: #dbd3ce;
      }

      .cls-245 {
        fill: #908680;
      }

      .cls-246 {
        fill: #423d39;
      }

      .cls-247 {
        fill: #9b918f;
      }

      .cls-248 {
        fill: #9e928f;
      }

      .cls-249 {
        fill: #6c6361;
      }
    </style>
  </defs>
  <g id="Layer_1-2" data-name="Layer 1">
    <g>
      <path class="cls-60" d="M261.97,200.23l-22.37,7.04c-27.81,8.75-62.88,19.43-79.24,43.09-3.84,3.71-5,2.26-2.66-2.49-2.03-8.02,12.41-18.51,19.47-23.17,6.44-4.25,21.33-13.44,27.44-9.65,10.77-6.26,23.2-10.94,37.29-14.04-.41-3.36,1.95-4.09,7.08-2.21,13.28-3.55,17.6-3.07,12.98,1.44Z"/>
      <path class="cls-47" d="M178.59,48.41c.43,3.01-.96,6.19-4.19,9.55l-1.81,2.12c-.58,1.51-1.96,2.83-4.12,3.97l-.23,1.88c1.76.51,1.75,1.15.05,1.94-2.58,1.53-4.44,3.62-5.59,6.27,2.8,1.23-1.95,7.24-4.68,7.37,2.83,2.57,1.3,3.86-2.04,5.23,3.99,1.8,2.11,6.47-1.87,6.81,1.48,6.13,1.34,13.04-.42,20.72-2.06,8.3-4.46,16.27-7.19,23.93.74,7-1.31,10.29-6.14,9.89-1.77-.25-1.27-2.77.07-4.04.06-5.77.06-11.75,0-17.92,1.19-5.23.92-11.75,3.72-16.36,1.61,1.5,1.67.96.17-1.62,4.21-14.38,9.07-29.81,18.02-42.08l4.1-4.02c.16-.58.08-1.38.03-1.99l4-4.01v-2s1.99-2.02,1.99-2.02l2.02-1.99,1.94-4.16c.71-.83,1.4-.75,2.06.17,1.83-.25,1.56,1.02.13,2.37Z"/>
      <path class="cls-127" d="M44.36,350.58c.38-1.79,1.14-2.67,2.29-2.63,5.66-3.28,11.19,4.26,13.82,8.49.69-4.14,2.7-4.43,6.03-.88,6.15-.11,12.01-.02,17.58.27,5.34-4.88,10.44-9.98,14.63-15.9-3.72-2.51-2.21-6.43,1.73-7.58-1.15-4.18-1.03-7.53.35-10.05-.53-6.16.62-10.35,3.46-12.58l.49,24.57c0,10.3-9.24,20.48-18.42,25.53-14.32,7.88-33.19,2.64-41.95-9.23Z"/>
      <path class="cls-62" d="M262.45.03c1.76.57,1.75,1.27.04,2.1.82,2.26-.82,3.57-4.91,3.94-3.56,3.55-9.43,4.89-17.6,4.02-2,4.95-12.99,7.29-16.86,5.98-3.31,6.4-14.46,9.46-21.14,7.57-.08,1.72-.69,1.74-1.77.25.82,3.51.42,3.93-2.22,1.46-3.62,3.49-4.51,6.15-2.69,7.97-2.81,7.18-13.69,26.21-20.91,24.65.53-3.45,2.22-6.61,4.19-9.55,1.3-1.73,1.25-2.52-.13-2.37l-2.06-.17,18.85-23.3c18.31-9.53,39.99-14.96,58.83-20.93l4.37-1.6h4Z"/>
      <path class="cls-160" d="M300.84,176.16l.16,2c-5.61,2.88-10.57,6.22-14.87,10.02-.44,1.96-3.59,3.47-5.51,4.01-2.66-1.76-3.29-1.7-1.89.18-4.79,4.23-10.95,6.03-16.77,7.86.2-1.19-.21-2.13-.89-2.24-2.88-.44-44.07,10.75-56.46,17.05-3.91-.06-4.06-1.64-.33-2.95.6-1.82,2.46-2.4,4.33-2.04q5.52-3.46,0,0l-4.3-.17c-1.75,4.64-3.33,3.72-5.99.38-5.3-5.48.12-7.49,5.97-8.47l16.19-7.69c5.32-5.93,17.74-8.13,15.93,2.06,1.94,3.52,3.73,2.91,2.35.28-1.56-1.31-3.15-3.49-2.22-4.69.64-.83,15.7-9.99,17.62-10.95,6.47-4.11,10.61-3.85,12.43.79.8.95,1.4,1.7,1.32,1.77-3.46,2.96-7.37,5.03-11.48,6.92-1.52,3.48,1.02,3.58,7.63.3,4.02-2.94,6.98-3.64,8.9-2.1-1.14-5.85,9.58-9.53,13.76-6.19,1.38-7.38,8.64-11.29,14.13-6.14Z"/>
      <path class="cls-207" d="M146.41,225.95c3.4.66,2.35,13.02,1.88,17.8-4.17,9.8-3.58,14.23,1.77,13.29l.32,3.09c-2.02,1.13-3.32,2.11-5.99.99-1.67-.7-2.76-1.76-3.84-3.26-4.5,2.89-5.38,1.17-2.21-3.07.61-5.63-.02-11.24-1.9-16.83-1.94-.95-1.76-1.54.44-1.79-.82-1.06-2.38-1.21-4.66-.46.8,5.84-5.71,5.97-7.4.51l-2.47-2.17c-1.31-.65-1.26-1.32.09-2.01,1.4-4.35,4.58-5.1,9.53-2.25l10.22-3.94c2.77-2.12,4.17-2.08,4.22.1Z"/>
      <path class="cls-117" d="M140.55,257.86c-16.31,14.39-30.54,30.86-36.31,51.85l-3.46,12.58c-6.48-7.21-4.31-24.76,4.47-28.3-4.33-3.86,5.91-18.18,10.99-17.83.4-4.41,3.07-8.2,8.03-11.36,2.7-6.85,6.71-10.37,12.05-10.56,1.03-1.53,1.7-1.33,2.03.54l2.21,3.07Z"/>
      <path class="cls-16" d="M286.59,3.92c15.53,1.98,28.3,13.64,37.85,25.89,3.68,2.88,6.31,6.24,7.87,10.09,1.53.85,1.31,1.36-.51,1.55-.88,1.44-2.07,2.17-3.67,2.01l-7.24-12.52c-3.59,3.59-6.29,1.03-7.85-2.9-4.2-.19-4-1.84.41-2.28-4.45-1.92-6.77-4.48-6.96-7.68-4.62,2.57-11.78-2.88-10.24-7.97-4.52.47-13.36.83-15.73-3.77-1.4-.51-1.34-1.48-.07-2.31-1.75-.57-1.72-1.23,0-2h2s4.14,1.87,4.14,1.87Z"/>
      <path class="cls-96" d="M4.51,306.05l1.75,2.65c1.78-.16,1.74.31.1,1.33l3.96,4.59c3.17-2.1,6.93,2.29,7.97,5.53,3.21-1.54,3.94-.69,2.19,2.54,7.63-3.72,11.74-3.27,12.31,1.35,8.95-3.54,14.87,7.34,11.69,15.98l2,2.01c5.77-.04,5.55,4.46.19,5.92.03.95-1.24,2.01-2.29,2.63l.1-2.54-2.09-3.96c-1.48-22.79-23.44-10.85-36.14-27.74l-3.89-6.29-.09-1.58c-1.14-4.8-.36-6.33,2.35-4.59,1.72.71,1.65,1.43-.1,2.18Z"/>
      <path class="cls-134" d="M350.45,72.04l2,4v4c1.53,5.86,1.54,12.12,0,18l-.03,1.99-1.93,2.01-.03,4-2.01,4v2s-1.92,4.11-1.92,4.11c-.92,11.5-9.44,20.83-15.26,30.17-3.56,3.98-4.82,2.61-2.84-2.3-.63-2.1.39-4.74,3.05-7.91-1.67-4.57,4.99-15.77,9.61-16.93l2.54-8.34c-1.46-.91-1.34-1.25.37-1.02l2.43-3.78c-1.74-.57-1.72-1.24,0-2l1.99-4c-1.74-.59-1.71-1.26.02-2.01.26-1.89.93-3.22,2.01-3.98-1.5-2.29-2.03-9.84,0-12.01l-2.04-3.99c-1.89-.42-1.37-4.52.02-6-1.81-2.71-.97-3.69,2-2v2Z"/>
      <path class="cls-144" d="M100.36,223.68c1.05,1.21.32,3.32-2.21,6.34-.27,3.93-3.09,7.77-8.45,11.51,2.1,2.01.61,3.59-4.46,4.75-4.74,5.23-9.56,9.67-14.46,13.32-2.94,4.14-5.72,5.69-8.33,4.63-5.41-.52,1-6.56,4.37-5.75.57-1.22.74-1.6-.3-2.59,12.18-10.11,22.32-22.4,33.85-33.41,1.83-.08,1.76.34,0,1.21Z"/>
      <path class="cls-201" d="M112.39,196.31c1.68-.08,1.7.39.19,1.37-1.71,3.62-3.43,7.45-5.15,11.47,4.16.68,8.02.93,11.56.78-1.76-2.65,1.36-4.15,3.52-1.61,1.22-9.94,13.47-3.11,13.03,5.49-.29,5.76-1.45,10.46-7.02,6.29-.88-1.97-2.33-3.67-4.34-5.11-7.69,2.9-15.3,4.2-22.81,3.89l-1-10.73c1.79-5.6,5.96-9.88,9.97-14.07l2.04,2.24Z"/>
      <path class="cls-96" d="M128.53,220.1c-2.71,2.85-3.45.3-4.13-2.79-1.21,5.62-2.92,5.91-5.12.87-.35.94-1.42,1.48-3.22,1.61.09,1.78-.31,1.7-1.16-.04-5.02,2.32-9.87,3.63-14.53,3.92.13-.29.09-.89,0-1.21-1.26-4.85-1.5-9.59.01-14.33,1.66,2.03,2.16,4.5,2.41,8.84,8.75-.02,16.6-1.85,24.99-6.8,1.42,2.81.83,6.54.76,9.91Z"/>
      <path class="cls-144" d="M66.82,258.47c-2.6.57-4.42,3.24-4.37,5.75,1.08,4.18-1.92,8.26-5.56,3.45-10.52,3.87-22,4.64-34.44,2.32-1.74-.57-1.71-1.24.01-1.99-.28-.72.4-1.39,2.05-2.02,14.12-1.23,21.42,5.52,42.01-10.1,1.15.49.93,1.62.3,2.59Z"/>
      <path class="cls-101" d="M322.71,160.08c-4.07,6.54-8.26,12.11-15.98,16.46-5.52,3.11-10.12,8.13-16.01,9.38l-2.17,2.32-2.41-.05c.09-.86-1.4-2.37.89-3.74l13.82-8.28c-.41-4.29,1.67-7.5,5.55-5.14,3.07-5.35,6.45-8.19,10.14-8.53.74-3.24,2.06-4.74,3.98-4.49,2.92-2.54,3.99-1.45,2.19,2.07Z"/>
      <path class="cls-50" d="M18.33,270.02c2.28,1.69.18,3.58-2.19,3.92-2.85,3.74-3.77,6.71-2.77,8.9l-5.18.58c.83,5.35.99,11.13.46,17.33l-4.04,3.11c-1.66,1-2.46,2.53-2.35,4.59-6.43-15.5,1.46-32.6,16.02-40.38,1.89.53,1.89,1.18.05,1.94Z"/>
      <path class="cls-6" d="M342.35,49.88c.55,5.8,2.45,11.89,5.7,18.28l-1.62,1.89c-3.03,4.89-2.81-2.1-2.7-1.8.98,2.76,1.4,5.92-1.78,6.55-4.89.12-6.6-4.56-5.16-14.03l-2.2-1.09c-.52,4.46-2.25,7.5-6.14,4.37-.14-2.19.66-4.46,2.39-6.79-1.18-5.34-.86-10.6.96-15.79.22-.62.28-1.12.51-1.55.78-.91,1.5-.81,2.18.23,3.35,2.38,5.95,6.28,7.86,9.74Z"/>
      <path class="cls-179" d="M138.42,144.04c.57-1.74,1.24-1.71,1.99.01l-.07,4.04c1.78.1,1.67.55-.11,1.33l-3.45,8.79c4.63,1.43-1.28,13.21-5.81,11.9-4.25,7.29-7.75,9.97-4.93-.45l10.09-26c1.36,1.7,2.13,1.82,2.3.37Z"/>
      <path class="cls-82" d="M130.97,170.11c3.41,4.09-.9,17.13-6.41,18.08.18,3.43-6.8,8.78-9.84,5.56-1.93,0-2.7-.64-2.31-1.9,6.01-6.33,10.47-14.06,13.63-22.19.29.86-1.19,2.97,1,4.76l3.93-4.32Z"/>
      <path class="cls-230" d="M150.58,228.17c6.65,1.41,4.17,12.29-.71,15.51,2.26,2.69,4.87,4.08,7.83,4.19l2.66,2.49c-2.76,3.99-5.67,7.34-9.98,9.76-2.61-1.22-4.86-2.14-6.03-3.81-1.98-2.79,2.43-7.61,2.41-9.9l-.35-20.47c-.54-6.4,7.38-4.43,4.17,2.22Z"/>
      <path class="cls-103" d="M342.49,52.04l1.96,2v2s2,2,2,2v2s2.01,2,2.01,2l.04,3.99,1.93,2.01.03,1.99-2,2c-.5,1.76-1.14,1.75-1.93.05-1.77-.51-1.77-1.2-.09-2.05-.37-8.76-9.54-16.84-4.08-20.17l.13,2.17Z"/>
      <path class="cls-142" d="M331.27,146.32l-8.56,13.76-2.19-2.07c-.69-4.04,4.19-11.94,7.91-13.99l2.84,2.3Z"/>
      <path class="cls-57" d="M140.41,144.05h-1.99c-1.42-.62-1.38-1.28.03-2.01-1.42-.68-1.52-2.69-.29-6.02l2.24-9.9c5.99,3.5.15,9.41,0,17.92Z"/>
      <path class="cls-246" d="M272.47,0l5.96,2.02,2.02.02v2c-.58,1.43-1.25,1.4-2,0-4.68,5.11-7.44,5.19-8.29.23-2,2.2-6.77.68-7.66-2.14l-.04-2.1,10.02-.03Z"/>
      <path class="cls-191" d="M144.14,109.76l.17-1.62c1.08.02,1.8.5,2.15,1.19.69,1.35-.14,4.82-1.31,4.61-1.33-1.39-.89-3.48-1.01-4.17Z"/>
      <path class="cls-47" d="M138.46,142.04c-.62,1.74-1.32,1.7-2.09-.03-.71-2.43,1.42-4.33,1.8-5.99l.29,6.02Z"/>
      <path class="cls-113" d="M138.42,144.04c.11.69.27,2.12-.03,3.01-.61,1.8-2.47.66-2.28-.09.33-1.33.36-2.31.01-3.28.17-.45.38-1.2.25-1.66l2.09.03-.03,2Z"/>
      <path class="cls-23" d="M286.59,3.92c-1.74-.22-3.41.14-4.14-1.87,1.65,0,3.38.37,4.14,1.87Z"/>
      <path class="cls-73" d="M22.46,268v1.99c-.48,1.98-3.5,2.47-4.13.03.17-.44.08-1.31-.05-1.94l2.19-.04,1.99-.04Z"/>
      <path class="cls-103" d="M352.45,76.04c-1.63-.61-2-2.35-2-4,1.66.61,2.01,2.33,2,4Z"/>
      <path class="cls-50" d="M6.23,316.33c-1.36-1.81-3.71-2.95-3.89-6.29,2.21,1.37,3.5,3.66,3.89,6.29Z"/>
      <path class="cls-103" d="M348.45,110.04c.01-1.65.36-3.38,2.01-4-.01,1.67-.34,3.38-2.01,4Z"/>
      <path class="cls-103" d="M346.53,116.15c.13-1.63-.04-3.45,1.91-4.11-.01,1.65-.36,3.38-1.91,4.11Z"/>
      <path class="cls-127" d="M44.46,348.04c-1.56-.78-1.99-2.45-2.09-3.96,1.71.62,2.15,2.29,2.09,3.96Z"/>
      <path class="cls-122" d="M258.45.03c-.4,2.7-3.15,1.21-4.37,1.6.98-1.26,2.7-1.6,4.37-1.6Z"/>
      <path class="cls-116" d="M280.63,192.2c-.6.17-1.33.17-1.89.18-.22.17-2.25-.82-2.06-1.5s1.96-1.44,2.81-.85,1.25,1.22,1.15,2.17Z"/>
      <path class="cls-115" d="M114.72,193.76c.81,3.79-.71,3.98-2.26.27-.59,1.46-1.3,1.44-2.11.04l2.06-2.21,2.31,1.9Z"/>
      <path class="cls-84" d="M334.49,40.14l-2.18-.23-7.87-10.09c4.05,2.69,7.55,6.16,10.05,10.33Z"/>
      <path class="cls-62" d="M172.44,52.03l2.02-1.99-2.02,1.99Z"/>
      <path class="cls-172" d="M170.46,54.04l1.98-2.02-1.98,2.02Z"/>
      <path class="cls-98" d="M166.45,60.05c.67-1.9,2.1-3.35,4-4.01-.67,1.9-2.09,3.35-4,4.01Z"/>
      <path class="cls-98" d="M162.33,66.06c1.22-1.67,2.01-3.36,4.1-4.02-.54,1.98-2.16,3.44-4.1,4.02Z"/>
      <path class="cls-6" d="M350.41,68.05c-.87-.21-1.92-1.09-1.93-2.01.88.3,1.91,1.07,1.93,2.01Z"/>
      <path class="cls-103" d="M350.49,102.05c0-.93,1.05-1.82,1.93-2.01-.01.96-1.03,1.74-1.93,2.01Z"/>
      <path class="cls-160" d="M288.54,188.24c.3-.87,1.21-2.12,2.17-2.32-.49.97-1.23,1.77-2.17,2.32Z"/>
      <path class="cls-4" d="M198.32,210.27c1.91-2.04,4.27-.62,5.99-.38,1.64.66,1.6,1.4-.03,2.21l.33,2.95-27.27,13.87c-8.83,4.49-14.91,11.54-19.64,18.95-2.12,3.33-6.57,7.17-10.62,8.96-1.62-5.98,2.62-9.57,2.79-13.16,5.54-10.52,16.49-23.31,28.47-25.07-3.38-3.04,14.65-12.66,15.76-12.74,3.82-.3,4.82-.05,4.22,4.4Z"/>
      <path class="cls-184" d="M176.58,61.9c10.51-1.53-.33,14.31-5.82,10.18-.33-1.61-1.33-3.03-2.48-4.21l-.05-1.94,2.22-1.89c-.23-2.06.82-2.85,2.69-2.18.99-3.03,2.51-3.15,3.44.04Z"/>
      <path class="cls-98" d="M168.28,67.87c-.07,3.31-4.27,4.19-5.59,6.27-.52-3.53,2.09-7,5.59-6.27Z"/>
      <path class="cls-172" d="M178.59,48.41l-.13-2.37c-.57-1.29.73-2.27,1.29-1.82.8.65,1.16,2.21.94,2.85-.26.75-1.14,1.52-2.1,1.34Z"/>
      <path class="cls-172" d="M173.14,61.86c-1,.3-1.9,1.52-2.69,2.18h-1.99c.25-2.02,2.25-3.21,4.12-3.95,1.8-.14,1.95.47.56,1.77Z"/>
      <polygon class="cls-98" points="168.23 65.93 168.47 64.05 170.46 64.04 168.23 65.93"/>
      <path class="cls-91" d="M105.25,293.99c-5.24,8.51-6.19,18.23-4.47,28.3-.87,3.16,2.05,7.42-.35,10.05l-3.25-.44c.24-6.32-.93-10.96-3.5-13.93-1.48-2.37-1.24-6.26.72-11.66-.75-2.07.9-5.77,2.21-8.14,2.49-5.16,8.21-13.9,8.64-4.18Z"/>
      <path class="cls-249" d="M100.43,332.34c1.2,1.98-1.15,5.58-1.73,7.58-1.68,3.04-3.75,5.08-6.23,6.11h-3.95c-.46-3.91,1.53-7.25,4.19-10.11-.05-5.7.27-11.68.97-17.95,8.19-1.41,1.29,5.38,6.75,14.37Z"/>
      <path class="cls-159" d="M84.08,355.82l6.33-7.82c-.51-1.91.19-2.56,2.07-1.97,1.81-2.27,3.53-4.67,6.23-6.11-2,6.95-8.78,11.84-14.63,15.9Z"/>
      <path class="cls-122" d="M270.15,4.28c2.79,2.33,2.2,3.87-1.42,3.62l-.78,2.63c-2.35-1.12-4.22.11-5.61,3.7-.81,2.22-3.45,2.12-7.92-.31-6.78,5.28-12.13,6.07-16.04,2.37-4.92-2.89-.15-4.63,4.32-5.14.16-.02-2.26.6-2.72-1.05l22.51-7.96c2.55-.9,6.13.07,7.66,2.14Z"/>
      <path class="cls-111" d="M238.39,16.28c.57,4.83-6.53,2.84-9.82,1.39l-3.35,2.48c-.92.68-2.63.27-2.39-1.32l.3-2.76,16.86-5.98c2.29-.1,5.31-1.83,7.23,1.34-2.64,2.02-4.96.82-6.52,1.24-1.12.31-2.72,1.63-2.3,3.61Z"/>
      <g>
        <path class="cls-150" d="M228.57,17.68c3.89-.2,3.82,1.37-.1,2.38,2.25,6.87-5.57,8.53-9,2.53-.25,0-.54.2-.81.44.56.77-.39,1.6-2.84,2.48,2.21,5.62-8.97,8.17-11.35,2.89-3.04.77-4.89,6-10.24,2.75,2.47-1.23,3.72-3.35,3.77-5.81l2.22-1.46c3.01,1.75,3.6,1.67,1.77-.25l21.14-7.57,5.44,1.61Z"/>
        <path class="cls-247" d="M200.22,23.89c.44-.07,1.28-.07,1.77-.25l4.03.8c.57.91-.98,2.76-2.56,2.37-1.49-.37-3.12-.9-3.24-2.92Z"/>
      </g>
      <path class="cls-21" d="M262.24,108.94c1.76-.31,1.73.11.11,1.17l2.13,5.9c1.82.81,2.67,5.56-.06,6.03,1.03.14,1.99.38,2.66.94,1.2,1.01-1.42,26.69-2.8,31.06,2.27.46,4.15,1.84,5.65,4.13,9.39-8.87,21.39-18.3,19.35,2.33,2.7,3.29,3.27,6.31,1.71,9.06,1.94,3.61.69,4.75-2.63,2.31-1.4,3.63-4.76,4.98-10.06,4.07.82,6.33-6.93,8.09-11.69,5.66-8.21-.26-14.23,4.82-20.57,10.18-1.67,1.41-7.64.48-7.26,4.66-.18,3.48-1.73,3.34-2.35-.28-1.57-2.08-4.29-3.14-7.11-3.1-2.25.03-4.76,3.53-7.19,4.68l-16.41,7.78c-2.45,1.16-7.47.2-7.39,4.74-.6-.78-2.26-1.58-2.76-1.04l-2.89,3.09-14.32,6.29c-18.59,8.62-15.63-9.6.25-13.75,1.62-5.51,8.53-9.47,14.62-8.9,16.8-11.2,37.04-20.89,56.39-27.19,1.02,2.26,2.58,2.71,4.67,1.34.49-2.34,1.52-4.63,3.12-6.86l-3.33-13.62c2.79-1.11,3.21-3.14,2.55-5.78-2.43-1.18-2.68-2.68-.19-3.79l-1.95-2.03c-2.35-.72-2.6-3.6.2-3.97-2.51-3.38-.39-8.34,2.39-11.81-2.2-5.81-2.73-11.31-1.59-16.52-2.66-1.18-2.51-4.27.86-3.9.03-11.09,6.27-.32,5.9,7.1Z"/>
      <path class="cls-130" d="M320.4,152.08c.16,3-1.13,6.47-3.86,10.42-4.68,5.28-9.7,10.08-15.69,13.67-5.18-.04-10.31,2.87-14.13,6.14-5.52,1.14-5.61-1.96-.72-4.24-1.78-1.65-1-3.71,2.35-6.19.93-.37,1.9-1.64,2.63-2.31l3.82,2.33c1.09-3.21,6.69-10.64,9.94-7.23l1.68.72c1.15-4.67,9.16-17.94,13.99-13.3Z"/>
      <path class="cls-120" d="M278.29,175.94c5.53-1.45,8.1-.75,7.71,2.12l.72,4.24c-4.15,3.56-9.32,4.07-13.76,6.19l-3.94-.4c-5.5,4.08-9.69,4.81-12.58,2.2l10.16-8.69c3.5-2.73,7.84-4.1,11.69-5.66Z"/>
      <path class="cls-148" d="M272.96,188.5c-8.63,4.13-16.55,10.29-27.35,8.32,2.29-6.02,6.75-5.51,10.82-6.52,4.67-1.17,10.45-1.96,14.01-6.43,2,.47,2.69,2.98,2.52,4.63Z"/>
      <path class="cls-11" d="M236.42,196.16l2.35.28c1.41.07,2.85.93,3.12,3.1l-16.15,5.64c-4.24,1.48-7.35,1.26-9.35-2.92,5.57.54,8.83-2.89,12.8-4.89,1.84-.35,6,1.41,7.23-1.22Z"/>
      <path class="cls-196" d="M128.53,220.1c5.24,1.19,5.05,3.01-.1,4.43,1.51,1.27,3.33,1.79,5.46,1.54.97-3.62,2.38-3.14,2.59.7,2.86-4.92,4.77-5.22,5.72-.92-5.15,4.67-12.95,7.16-19.75,6.19l1.95-14.73c2.05-.67,3.14,2.03,4.13,2.79Z"/>
      <path class="cls-196" d="M136.89,236.17l-4.66-.46c.74-.05,2.21-.91,3.04-1.78,1.33-1.39,4.42.56,1.62,2.24Z"/>
      <path class="cls-19" d="M136.32,254.25c-5.55,7.94-12.44,15.64-20.08,21.92-5.61.79-4.01-2.3-.98-6.07-4.62-1.75-1.2-6.63,2.95-4.11l6.28-10.31c-1.77-.1-1.74-.6-.06-1.45,1.44-.58,3.43-3.03,5.22-3.16,2.26-.17,4.66,2.6,6.68,3.2Z"/>
      <path class="cls-206" d="M116.24,276.17l-10.99,17.83c-1.53-1.94-4.37-1.13-5.3.31-.62.96-3.17,2.59-3.35,3.87-8.18-3.91,14.06-29.43,15.87-29.2.96.13,1.87.57,2.78,1.12-1.36,2.03-.04,4.53.98,6.07Z"/>
      <path class="cls-90" d="M306.49,18.09c-.82,2.12,1.5,4.68,6.96,7.68-.96.8-.64,1.83-.41,2.28.71,1.37.74,2.69.37,4.12-1.31,5-7.37,1.52-9.64,5.14-.82,1.3,2.8,4.48,2.98,6.42l1.5,18.41c-4.96-2.13-8.87-14.02-7.75-20.04-3.58,1.49-5.82-4.17-2.17-5.94-2.94-1.74-3.29-5.48-1.07-11.22-5.73-2.58-10.12-6.01-13.17-10.28-3.63-5.19-.74-6.8,8.65-4.84l3.52.31c3.94,1.79,7.43,4.86,10.24,7.97Z"/>
      <path class="cls-75" d="M313.45,25.77c-5.36-1.14-9.34-4.4-9.03-6.61.11-.77,1.12-1.56,2.08-1.07l6.96,7.68Z"/>
      <path class="cls-235" d="M16.23,300.15c1.77.45,1.79,1.1.11,1.95l12.13,5.94c2.37,1.91,3.83,4.12,5.08,7.24,1.84-2.93,5.62-2.4,6.98-3.5.6,4.58,1.23,8.36,3.47,12.04l-7.33-3.08c-1.78-.75-3.47,1.35-3.9,3.31l-12.31-1.35c-.4-2.76-1.13-3.6-2.19-2.54-3.61-.48-6.31-2.66-7.97-5.53l-3.96-4.59-.1-1.33-1.75-2.65.1-2.18c.45-6.39,8.34-9.88,11.61-3.73Z"/>
      <path class="cls-50" d="M6.25,308.7c-.73-.64-1.77-1.81-1.75-2.65.78.69,1.67,1.61,1.75,2.65Z"/>
      <path class="cls-50" d="M10.31,314.63c-1.69-1.15-3.82-2.71-3.96-4.59,2.21.51,3.67,2.35,3.96,4.59Z"/>
      <path class="cls-156" d="M20.46,322.7c-1.45-.16-2.91-1.57-2.19-2.54,2.37-3.19-1.12-6.76-4.57-9.83,6.31-2.69,10.48.88,15.1,1.02-1.85,3.42-1.94,5.44-1.27,8.37-3.35-.43-6.01.58-7.08,2.98Z"/>
      <path class="cls-6" d="M344.41,84.08c5.34,6.34.99,18.53-2.58,26.3l1.81.46c.57,4.32-.55,8.95-3.17,13.29l-12.04,19.9-7.91,13.99-3.98,4.49c-.02-3.95,1.96-7.18,3.86-10.42-3.32-1.44-2.83-4.28,1.45-8.51l-3.08-1.12c-7.52.59-7.56-11.33.12-11.88-1.04-4.7.03-7.7,3.21-8.99,3.27,1.53,6.27.02,8.99-4.53-5.39-2.86-2.14-8.14,3.32-8.93,1.7-5.01,2.97-10.77,3.8-17.27-.53-6.05.83-10.28,4.07-12.72,3.45-2.75,3.9,2.92,2.13,5.96Z"/>
      <path class="cls-98" d="M348.06,94.05c1.71.97,1.52,2.4.4,3.98l-.02,2.01-1.99,4v2s-2.44,3.78-2.44,3.78c-.07.34-.21.71-.37,1.02l-4.38,8.49-2.09-1.77,7.91-20.95-.66-12.52c.28-2.48,1.07-3.23,2.39-2.23,3.71.8,3.56,9.8,1.26,12.2Z"/>
      <path class="cls-6" d="M348.42,78.05l2.04,3.99v12.01c-.43,2.31-1.58,2.28-2.41,0,.82-4.44.66-8.29-1.26-12.2-2.9-2.13-4.3-8.72-.28-9.75l1.93-.05-.02,6Z"/>
      <path class="cls-103" d="M350.47,82.04c-1.72-.61-2.04-2.31-2.04-3.99,1.77.63,2.04,2.3,2.04,3.99Z"/>
      <path class="cls-103" d="M348.46,98.03c.01-1.17-.61-2.82-.4-3.98h2.41c0,1.69-.28,3.36-2.01,3.98Z"/>
      <path class="cls-103" d="M346.44,104.04c0-1.71.25-3.47,1.99-4-.02,1.66-.35,3.38-1.99,4Z"/>
      <path class="cls-103" d="M344,109.82c.31-1.54,1.11-2.92,2.43-3.78l-.35,2.77c-.13,1.02-.87,1.68-2.09,1.01Z"/>
      <path class="cls-109" d="M119.31,219.85l1.3,16.37c-5.21,3.83-5.18,1-2.38-4.21-4.04.28-3.5-2.22-.16-4.01-5.84-1.43-12.06,2.45-18.65,11.63,1.4,6.74-4.99,12-10.64,6.99-1.48,2.83-3.27,5.83-6.26,3.45l-2.08,1.99c-.67,5.67-6.07,16-11.98,12.15-1.61-1.16-.84-2.7,2.31-4.61l27.37-29.58c3.15-5.48,8.73-8.9,16.74-10.26l1.16.04c1.43-.81,2.52-.8,3.25.06Z"/>
      <path class="cls-196" d="M114.89,219.76c-4.7,4.25-11.53,2.58-16.74,10.26l2.21-6.34c4.76-1.72,9.52-3.47,14.53-3.92Z"/>
      <path class="cls-140" d="M66.82,258.47c-.49-.79-.55-1.82-.3-2.59,2.27-.22,2.51,2.29.3,2.59Z"/>
      <path class="cls-69" d="M120.3,197.95c1.19.03,2.35-.31,3.95.93-1.89,1.61-3.04,3.39-3.38,5.52-.55,1.77-1.17,3.61-1.88,5.53-2.11,2.91-10.91,5.9-14.64,1.55-3.3-3.86,4.34-12.75,8.22-13.8l7.72.27Z"/>
      <path class="cls-58" d="M124.71,194.39c-2.06-1.15-3.41,2.39-4.41,3.56-2.28,2.68-4.16,8.02-9.76,7.69,1.98-2.5,4.3-5.8,2.04-7.97-.26-.25-.2-.97-.19-1.37-1.52-.28-1.24-1.5.07-2.28l2.26-.27c2.96-2.31,6.13-4.43,9.84-5.56-.07,1.53,2.07,4.38.15,6.2Z"/>
      <path class="cls-221" d="M122.51,208.32c-.83.28-2.91.77-3.52,1.61l-4.72-.27c2.04-2.85,4.09-4.16,6.59-5.26.71-.43,2.5-.25,2.57.68s-.41,2.13-.92,3.24Z"/>
      <path class="cls-115" d="M112.39,196.31c-1.5.36-2.46-.93-2.04-2.24l2.11-.04-.07,2.28Z"/>
      <path class="cls-218" d="M56.89,267.68l.27,2.29c.33,5.35-.57,5.68-4.77,2.3-4.88,6.31-15.97,4.42-22.46.73-3.81,2.1-5.62,1.77-5.41-.99.62,2.94-.38,3.35-3.01,1.2l-2.89.99c-1.06,1.62-1.79,1.6-2.47-.26.97-.6,1.78-2.86,2.19-3.92,1.17.04,3.1.38,4.12-.03,7.78-3.13,13.8,2.36,34.44-2.32Z"/>
      <path class="cls-209" d="M19.05,294.4c2.74-.07,2.39,5.34-.6,5.68-.69,1.44-1.44,1.46-2.23.07-4.14.87-7.99,1.53-11.61,3.73.19-6.87-.54-14.64,3.58-20.44,7.29,1.67,10.19,3,10.86,10.97Z"/>
      <path class="cls-7" d="M18.61,274.21c3.18,2.05,1.06,3.07-2.23,3.75,2.16,1.78,4.65,3.39,7.47,4.81-1.91,4.03-3.51,7.9-4.8,11.63-1.81-.67-2.78-4.21-3.96-5.13-2.32,0-4.96.15-5.77-1.13-1.03-1.64-1.04-3.24-1.13-4.71,2.4-3.39,4.21-7.37,7.95-9.48l2.47.26Z"/>
      <path class="cls-132" d="M346.43,70.04l.09,2.05c.12,2.79-.95,7.24.28,9.75l-2.39,2.23c-.12-2.32.45-4.88-2.13-5.96-.17-1.02.16-2.32-.33-3.33.28-2.86-.22-6.11,1.39-8.85,1.29,2.39,2.01,3.46,3.09,4.1Z"/>
      <g>
        <path class="cls-222" d="M160.31,208.41c15.83-8.13,7.55,10.82-6.33,10.14,4.04,4.98,3.62,11.18-3.4,9.62.39-.9.5-3.5-1-3.95-.84-.25-2.1,1.75-3.17,1.73l-4.22-.1c-1.24-9.94,8.26-29.68,18.11-17.43Z"/>
        <path class="cls-26" d="M254.27,170.11c.43.89.07,3.29-.78,3.56-.56.18-2.65-.41-3.27-.67-6.65-2.82-11.61,5.21-16.19,6.1-11.76,2.3-36.39,14.28-46.1,21.53l-20.15,15.04c3.83,3.38,7.1,2.04,10.56,2.94l-17.68,16.21c-3.36,3.08-5.25,8.48-10.79,8.87l.71-15.51c.73-.96,1.76-2.33,2.02-3.36.56-2.22-2.62-4.17-3.09-5.49-2.59-7.28,14.19-3.18,17.12-11.38l-6.33.47c-5.05-1.65-4.17-3.42,1.15-3.08,6.49-2.88,9.74-4.31,9.74-4.31.49-10.67,9.32-13.91,19.67-10.53,10.39-7.33,21.47-13.44,33.26-18.32l3.44,2.83c.22-1.16.42-1.91.1-2.75-1.12-6.38,16.34-13.38,20.5-8.58,5.09-4.71,10.18.76,6.12,6.44Z"/>
      </g>
      <path class="cls-154" d="M208.61,210.06l-4.33,2.04.03-2.21c1.13.16,2.56-1.72,4.3.17Z"/>
      <path class="cls-154" d="M208.61,210.06c1.45-2.96,4.77-5.41,8.67-5.18-2.03,5.5-6.33,4.01-8.67,5.18Z"/>
      <path class="cls-238" d="M178.55,126.2c3.98,1.25,4.25,3.32,1.47,6.19,9.19,10.11,10.02,16.09,2.48,17.96l-4.02-2.33c-2.55,6.95-5.26,7.96-8.13,3.04-2.87-.99-6.06-1.25-9.56-.79l-4.38-4.12c-.21-2.43,3.1-.89,6.71-2.36,1.18-.48,1.78-2.41,1.55-3.86-3.04-3.44-7.2-9.5-4.5-13.72.07-6.48,4.1-9.54,9.97-6.47,4.78-5.98,9.55-2.2,6.74,4.69l1.66,1.77Z"/>
      <path class="cls-102" d="M184.62,74.04c3.21.06,3.28,3.4.02,4l-2.24,2.06c.56,1.76.6,3.66.1,5.7,1.37,4.33,2.5,12.52.05,16.24-.24,1.55-.92,2.22-2.05,2.01-.8,2.72-1.75,2.83-2.66.09-1.17-4.2-2.06-3.18-2.68,3.05,1.79,2.87,1.09,3.47-2,1.89-.45,4.95-2.86,3.85-4.4-.97-5.51-1.1-6.7-7.87-4.42-12.31,8.76-.38,2.14-4.19,7.75-17.64.08-3.79.83-6.03,4.56-3.77,4.8-3.31,7.46-3.43,7.98-.37Z"/>
      <path class="cls-95" d="M177.84,104.15c.87,1,1.75.94,2.66-.09.06-.71,1.32-1.7,2.05-2.01,3.05,2.61,2.53,10.46-.07,14.16-2.56-.55-2.6.74-.1,3.88,2.02,1.95.75,3.99-3.83,6.1-2.08-.68-4.83,7.37-3-8.29l-5.03,5.37c-1.34,1.43-4.39-.88-5.12-3-2.02,2.81-3.23,4.33-5.23,5.94-12.55-1.04-.24-16.52,8.58-18.09,2.46,1.44,3.25.17,5.12-1.77,1.7-1.75.48-3.88-3.16-5.25,3.83-.66,6.23-2.12,9.43-5.16-1.33,3.46-2.01,5.28-2.31,8.21Z"/>
      <g>
        <path class="cls-210" d="M146.49,138.2c4.43-4.12,16.94-5.44,18.19,1.74,8.27,3.6-2.81,5.84-8.26,6.21.97.4.97,1.01.16,1.79,1.47,4.29-1.02,5.18-3.64,1.46l-3.59,1.71c-2.24,8.77-5.56,17.35-9.98,25.72,1.79,1.01,4.48,1.5,8.07,1.46.31-.58.77-1.13,1.29-1.58-3.79.96-4.02-.63-.38-2.44,1.93-.42,4.54.29,7.82,2.14-.74-3.11.4-3.86,3.59-4.23,1.22-2.54,1.97-2.76,2.19-.23l5.06,1.12c-1.19-1.71,1.51-4.85,2.89-5.12,6.25-1.19,10.35,5.14,2.11,1.55-.34-.15-.29-1.17-.14-2.45-2.86-2.94-1.31-4.74,2.52-3.38l1.91,2.2c.88-3.79,2.44-3.52,3.11.39l2.71,2.53c4.57-2.94,7.49-2.49,8.77,1.34,1.77,1.57.37,3.01-4.2,4.3-3.21,5.3-14.25,7.21-20.25,6.1-.16,3.87-1.65,6.57-4.46,8.11-5.86,2.81-9.77,1.94-14.34-2.94-1.28.97-3.24,1.25-5.88.85.88,1.63.38,2.14-1.44,1.59,1.29,11.38-13.68,18.81-15.6,6.26-4.28-2.18-4.51-3.45-.15-6.2.36-6.26,3.71-12.55,6.41-18.08l5.81-11.9,3.45-8.79c-.12-.38.11-.92.11-1.33,3.56-2.82.2-9.95,6.14-9.89Z"/>
        <path class="cls-47" d="M136.78,158.21c-.84-3.56.34-7.11,3.45-8.79,1.18,3.93-2.29,6.42-3.45,8.79Z"/>
        <path class="cls-14" d="M152.94,149.4l2.55,1.03c-1.06,4.6-.41,7.96,1.93,10.06-4.96,4.26-7.09,8.64-6.38,13.13l-2.69.64.38,2.44c.08.54.26,1.12.67,1.47l1.04.88,1.95,1.83c-1.36-1.78-3.4.33-1.13,1.63l-2.07-1.96-.97-1.49c-.21-.32-.48-.58-.78-.77-1.01,1.88-3.87,3.91-5.77,4.68-1.78.72-6.06-3.76-6.78-5.94l5.73-12.57c2.61-5.73,5.18-7.95,5.35-14.41.03-1.25,3.68-4.39,4.53-3.42l2.45,2.78Z"/>
      </g>
      <path class="cls-168" d="M161.98,188.62c5.01-1.07,8.1,2.25,7.15,7.11-.24,1.22-18.43,10.23-21.64,11.72-.53,3.57-2.2,4.03-5.67,2.45,1.11-2.69-.14-6.32,3.67-9.02,1.75-1.24,1.9-4.53,2.89-5.05-.76-3.71-2.97-6.81-6.61-9.3,1.33-1.47,3.4-3.64,5.63-3.73,2.06-.09,4.02,2.67,5.96,4.53,1.01-.7,3.6-3.64,5.12-2.33.93.8,3.18,2.53,3.51,3.62Z"/>
      <path class="cls-248" d="M170.36,151.05c5.56,1.95,3.82,9.15-1.88,9.31-7.4-1.11-10.59-4.02-9.56-8.74l-2.35-3.68-.16-1.79c4.17,1.99,7.79.7,12.39-2.52,2.58.69,2.03,5.04,1.55,7.43Z"/>
      <path class="cls-126" d="M158.2,95.98c.76-.45,1.73-1.24,2.21-1.99,1.61.17,2.82.85,3.93,1.83,3.68,3.25,3.61,7.72,4.42,12.31l1.31,7.45c.73,4.15-6.47,2.37-2.65-1.36-3.97-.64-4.84.91-7.01,4.66-1.31,2.26-3.21,4.44-.23,7.34,2.16,2.1,5.21,5.23,4.87,9.85-.05.65,1.25-.34,2.02-.24.93.12,2,2.14.57,2.78l-2.97,1.33c-.56.39-2.36,1.9-3.13,1.75s-.34-3.09-1.33-3c-5.8.54-9.99,1.93-13.73-.48-3.88-6.34-.31-12.62,1.86-18.89,2.95-8.5,1.35-18.35,5.75-25.76-.18.68-.16,3.8,1.12,4.4.8.38,2.19-1.5,2.98-1.97Z"/>
      <path class="cls-98" d="M182.35,59.99c1.18-3.99,4.41-3.95,3.41.34,4.97.44,5.08,4.47.31,5.36-.96,5.07-4.48,7.59-9.43,8.72-1.5,1.39-2.66,2.92-4.56,3.77l-.98-4.45-.34-1.66c3.52-2.25,8.85-5.88,5.82-10.18,1.31-2.01,4.39-1.36,5.77-1.91Z"/>
      <g>
        <path class="cls-184" d="M171.1,73.73c4.52-1.15,3.51,1.46.98,4.45,3.18-.15,1.53,15.3.87,16.28-3.38,5.01-4.73,6.35-8.61,1.36-3.34,3.76-3.85,3.07-3.93-1.83.18-2.13,1.58-4.22,4.21-6.28-4.53,1.95-7.42,1.62-8.66-.97.39-1.83,1.01-3.6,2.04-5.23,2.12-1.09,5.77-4.43,10.95-10.02l2.14,2.24Z"/>
        <path class="cls-125" d="M170.76,72.08c1.8,0,1.87.56.34,1.66-9.07,1.26-10.37,15.26-13.09,7.77l4.68-7.37c.72-2.86,3.2-4.74,5.59-6.27,5.57-1.57,6.57.11,2.48,4.21Z"/>
        <path class="cls-3" d="M164.62,87.71l-6.43,8.27c4.37,7.56-7.91,7.68-4.1-2.44,1.17-1.96,1.4-4.63,1.87-6.81,2.73-.33,6.87-1.4,8.66.97Z"/>
        <path class="cls-102" d="M160.41,93.99c2.86,2.96,1.45,4.17-2.21,1.99.37-3.64,2.83-6.55,6.43-8.27-.85,2.64-2.96,4.31-4.21,6.28Z"/>
        <polygon class="cls-102" points="165.46 92.04 166.46 93.04 165.46 94.34 164.46 93.04 165.46 92.04"/>
      </g>
      <path class="cls-40" d="M76.51,327.86c.73,2.45.62,6.78-2.15,8.05,4,.19,3.86,1.85-.21,2.48l-7.73-.62c-1.76-.34-1.72-.88,0-1.62-1.38-1.47-.63-5.32.63-6.58,3.5-3.51,1.47,2.77-2.44,4.69-6.72,1.13-8.77-4.69-2.72-9.87.52-5.99,2.12-9.4,4.81-10.22,5.77-1.3,11.19,9.88,9.81,13.69Z"/>
      <path class="cls-165" d="M84.51,319.82c3.19.1,2.9,1.28-.02,2.56,2.03,1.47,2.22,5,2,7.68,1.73.61,1.68,1.26-.06,1.96l-3.79,4.31-.03,1.83-8.45.22c.1-.65.35-1.74.21-2.48-.04-2.98,2.19-4.21,4.82-2.86l-.99-6.76c-6.07-6.27-6.55-10.39-1.45-12.36-4.76-1.94-2.72-5.43,2.01-3.87,2.6-1.7,4.52,1.55,5.76,9.75Z"/>
      <path class="cls-49" d="M80.68,308.19c3.06,2.66,1.74,3.97-1.93,1.88-1.74.6-2.18,2.02-2.01,3.87-2.99,3.59-7.11,4.33-10.04.23-4.5,1.85.15,11.77-8.07,14.96l5.98,5.14c2.7-2.85,3.84-1.62,1.81,1.89v1.62c-5.13-.41-11.17-3.24-9.97-8.89,8.57-5.9,3.01-15.53,9.76-17.17.86-4.14,3.61-6.71,8.24-7.71,2.8-7.57,4.88-6.18,6.23,4.17Z"/>
      <path class="cls-209" d="M28.42,306.06l.04,1.97c-4.78.48-9.93-1.65-12.13-5.94,3.15-1.02,9.85,1.77,12.09,3.97Z"/>
      <path class="cls-106" d="M22.44,302.06c2.01-4.34,4.34-3.2,7.24-.24,1.11-1.96,1.74-2.33,2.59-.15.39,1.69-.08,3.69-1.75,4.36l-2.1.04-12.09-3.97-.11-1.95c.6-.13,1.64-.36,2.23-.07,2.07-3.57,3.27-1.69,3.99,1.98Z"/>
      <path class="cls-100" d="M93.68,317.97c.85,8.09-.89,14.78-5.22,20.06l-1.99,2c.02-.75.07-1.61-.17-2.8-.13-.67-.66-1.22-1.77-1.1-1-.96-.37-2.33,1.9-4.09l.06-1.96c-.44-2.9-.4-5.44.11-7.61-.21-9.17,2.39-14.55,7.8-16.14l-.72,11.66Z"/>
      <path class="cls-211" d="M96.61,298.17c-.39,2.89-.21,5.34-2.21,8.14-3.2,4.48-1.84,12.91-7.8,16.14-.66,1.73-1.37,1.68-2.11-.07l.02-2.56c-3.25-5.91-1.94-12.48,3.93-19.7-2.81-2.69-2.85-8.85,1.86-8.69,7.27,2.02.16,18.36,2.38,6.58.32-1.7,2.05-1.42,3.92.17Z"/>
      <path class="cls-223" d="M92.71,335.92l-4.25,2.12,5.22-20.06c.55,6.03,3.32,13.32-.97,17.95Z"/>
      <path class="cls-66" d="M188.77,73.92c3.6,4.54,3.86,7.3.8,8.28,2.57,5.78,4.6,11.91,6.1,18.38-1.93,1.02-2.98,2.94-3.15,5.75-2.46,2.09-1.84,2.55,1.86,1.39,1.35,1.13,1.64,3.04.26,4.27,1.43-.3,2.56-.47,2.68-.19,4.18,9.65,9.51,26.37,8.34,36.46,5.88-1.4,6.84,10.1,1.29,11.77-2.9,2.1-7.13-5.01-6.04-8.06-4.42-7.21-7.15-14.57-8.19-22.09-3.52-2.51-5.62-7.12-6.29-13.8-1.5.19-1.52-1.15-.03-4.02-3.55-6.75-3.16-18.08-1.97-25.97-5.28-.83-3.7-3.58.09-6.01l.13-2.02-.02-4c-4.86.04-2.03-5.3,1.93-3.97l2.22,3.85Z"/>
      <path class="cls-104" d="M206.51,68.08c3.8,1.24,4.67,5.63,2.61,13.15,5.7,7.59,1.15,10.78-6.72,8.75-2.99-1.88-.25-4.85,2.56-5.85-1.06-1.3-1.61-1.19-2.72.02-.12,1.78-.65,1.75-1.55.07-6.66-4.13-3.84-6.39,2.18-9.64-2.3-2.49-2-5.63-.93-8.59,1.84.35,3.27,1.07,4.58,2.09Z"/>
      <path class="cls-119" d="M238.55,37.88c-.49,1.79-1.21,1.81-2.15.16-1.41,1.63-2.76.89-4.04-2.21-1.1,2.46-1.22,5.22-.35,8.3,3.58,1.77,5.77,14.21.6,15.73-.48,1.79-1.19,1.81-2.13.16.48-4.23-.21-8.23-1.86-12.05-3.08.47-3.12-1.5-.11-5.91-2.48,2.01-3.2.93-2.04-2.02-1.88-.57-1.85-1.23.03-1.99-3.33-1.14-.93-3.32,1.95-4.1-.48-2.28,1.96-3.06,3.92-1.95,4.85-2.56,11.87,2.81,6.2,5.88Z"/>
      <path class="cls-17" d="M210.7,67.55c5.28,3,7.39,8.42,2.16,11.73l-.45,4.83c2.72-2.74,3.78-1.67,2.05,1.92,2.44-2.97,5.21-1.87,3.94,2,2.23,2.7.48,5.81-2.74,2.8-.75,2.36-1.14,4.73-1.19,7.1,2.17,2.76,1.02,3.85-1.98,1.56-3.65.43-7.14.98-8.95,4.67-2.9-4.29-7.08-11.25-1.15-14.17,3.56.77,4.33-.6,6.01-3.27,1.35-2.15-.87-2.86-1.03-5.54l-.87-13.1,2.51-.67c.48-.13,1.21-.05,1.68.13Z"/>
      <path class="cls-184" d="M186.55,70.07c-1.84.4-1.93,2.27-1.93,3.97l-7.98.37,9.43-8.72.47,4.37Z"/>
      <g>
        <path class="cls-22" d="M204.47,28.4c3.74,1.04,4.53,2.75,3.02,6.13,3.4-.26,5.67.96,6.81,3.66,1.77-1.12,3.16.14,4.16,3.77,1.72.71,1.66,1.45-.09,2.23.24,1.4-.52,2.04-1.94,1.85,2.93,2.01,1.49,4.42-2,4.12-2.29,1.58-4.97,2.89-8.04,3.91-9.33-2.18-.26,2.73,4.05-.02.57-1.75,1.24-1.72,2,0,.6-1.15,1.27-1.13,2,0,.57-1.67,1.26-1.62,2.05.03,1.39-9.1,3.57-12.1,12.1-6.1,3.54,1.01,3.7,9.05,1.86,12.05-.26,5.78-4.93,5.34-6.22-.09-3.11,3.16-7.6,3.98-10.06.04l-1.21,4.37c-3.25-.52-4.57.5-3.96,3.07.82,3.79-.66,4.15-2.51.67-.75,1.35-2.27.65-4.58-2.09,1.64,6.7-2.74,9.34-13.16,7.92-2.89,1.54-3.39-1.22-2.22-3.85-2.95.78-3.11-.68-.47-4.37,5.51-2.1,2.62-4.75-3.72-5.7.76,5.58-2.32,5.26-5.77,1.91-1.05-.13-2.46-.34-3.44-.04l-.56-1.77,1.81-2.12c8.93-4.09,11.47-24.68,23.59-32.62l6.48,3.06Z"/>
        <g>
          <path class="cls-98" d="M172.59,60.08c.73-.29,1.33-1.6,1.81-2.12,2.31,2.17,1.3,3.14-1.81,2.12Z"/>
          <path class="cls-79" d="M220.55,31.95c1.98,1.64,1.29,3.03-2.09,4.16-.77,3.42-1.4,4.91-4.15,2.08-3.16,1.59-11.01.33-13.4-2.71,2.43-2.36,4.85-5.18,3.57-7.07l11.35-2.89c8.82-5.91,16.09,3.21,4.73,6.43Z"/>
          <path class="cls-77" d="M224.49,42.02l4.01.04c-.04,1.67-.56,4.37.11,5.91-3.06,2.03-3.74,4.97-5.54,8.3-.73-4.45.33-7.57-1.99-10.45-.47,4.29-1.76,7.28-4.57,8.25-1.27-1.02-2.84-2.39-2.06-3.92.18-1.65.91-3.04,2-4.12,1.6-.01,1.75-.21,1.94-1.85l.09-2.23c-.37-4.54,5.27-4.12,6.02.06Z"/>
          <path class="cls-203" d="M202.86,74.59l-3.06,2.14c-2.56,7.77-9.33,4.51-11.03-2.81-.31-1.36,2.44-4.24,3.66-5.09,1.04-.73,3.76.78,4.76,3.35,2.4-1.74,3.14-4.22,4.74-6.18,2.11,2.62,3.85,6.46.93,8.59Z"/>
          <path class="cls-104" d="M214.19,59.98c5.62-.21,5.58,2.72.47,4.79l-.85,1.33c1.86-4.65,4.67-5.68,4.72-.39,4.47,2.28,2.55,5.2-2.12,4.13-.11,3.33-2.02,2.57-5.72-2.28-.41,1.62-.97,1.51-1.68-.13-1.95-2.33-4.67-2.65-8.91-4.3l14.08-3.14Z"/>
          <path class="cls-159" d="M186.07,65.69c1.74-.93,2.23-3.18,1.23-3.58l-4.95-2.12c.67-1.3.71-4.29,2.04-5.24,2.15-1.55,4.82-.97,6.27.5l-4.72,3.85c-.44.36,2.29,2.44,3.88.01,1.42.62,1.46,4.22.51,5.86-.85,1.46-3.33.57-4.26.71Z"/>
          <path class="cls-39" d="M206.4,54.06c1.7-1.71,3.37-2.55,4.05-.02-2.18,3.68-4.57,3.47-8.12,1.92-2.85-1.25-4.48-1.2-5.8-5.73,4.82-1.24,7.85.67,9.88,3.83Z"/>
          <path class="cls-170" d="M214.44,50.16c1.54.6,2.18,2.25,2.06,3.92-.57.19-1.5-.04-2.05-.03-.67-1.17-1.27-1.08-2,0h-2s-4.05.02-4.05.02c1.05-3.34,4.72-4.5,8.04-3.91Z"/>
          <path class="cls-195" d="M218.47,41.96c-1.91-.02-3.47-2.13-4.16-3.77l4.15-2.08c5.15.71,5.58,4.33.01,5.85Z"/>
          <path class="cls-170" d="M216.44,46.03l1.94-1.85c.8.74.88,4.2-1.94,1.85Z"/>
          <rect class="cls-92" x="204.75" y="44.34" width="1.41" height="1.41" transform="translate(28.32 158.47) rotate(-45)"/>
          <path class="cls-63" d="M214.46,54.04h-2c-.33-2.36,2.33-2.36,2,0Z"/>
        </g>
      </g>
      <path class="cls-28" d="M254.43,13.91c3.64.12,3.82,1.57.18,2.54,1,.9,1.73,1.71,1.56,2.17-2.76,7.33-24.2,12.79-31.42,13.67-1.62,2.4-3.58,2.67-4.2-.35,1.87-1.82,2.54-3.62,1.03-5.82-1.82-2.64-2.95-1.32-5.75-.61l2.84-2.48-1.57-.83c-.6-1.13.78-.74.67-2.25l1.7,2.63c3.2.13,6.55-.32,9-2.53,3.23-.73,6.54-1.99,9.92-3.78,8.51-.84,12.33-6.72,16.04-2.37Z"/>
      <path class="cls-219" d="M262.34,14.23l.2,2.11c2.91,3,1.73,4.11-2.03,2.02-3.1,2.08-4.21,1.11-5.92-1.9l-.18-2.54,7.92.31Z"/>
      <path class="cls-174" d="M238.39,16.28c.14,1.33.83,2.79.04,5.54l-9.96-1.76.1-2.38c3.05-2.25,6.31.5,9.82-1.39Z"/>
      <path class="cls-118" d="M310.45,114.04c2.6,3.2,2.6,7.99-.02,14.37-.97.5-1.08.76-.81,1.41.95,2.29,3.31,2.39,4.58-.09l1.46-2.85c.58-1.13,3.1-.85,3.07.2l.16,3.48c-1.67,3.36-2.05,8.04-.12,11.88,1.75,6.43-8.92,19.49-14.78,17.42-2.84,3.9-5.9,7.91-9.19,12.03-1.68-.29-2.72-1.41-3.82-2.33-6.05-5.07-7.57-10.93-4.39-19.85-4.96,5.48-10.4,7.74-16.67,8.47-4.91-3,2.16-15.39,7.21-14.29,1.34-4.63,7.85-11.2,12.3-7.49,6.04-7.2,11.09-9.26,15.13-6.16.46-6.18-.03-12.93-1.47-20.24l1.39-1.94c1.62-1.86,3.46-2.87,5.96-2.01,3.51-.1,2.68,5.96,0,8Z"/>
      <path class="cls-133" d="M289.44,136.4c-6.61,6.44-16.96,11.59-19.52,21.78l-4.96,4.08-.69-8.21c1.92-10.04,2.88-20.22,2.89-30.55l2.27-2.1c-2.04-3.21,11.09-13.44,12.51-13.55,2.87-.23,6.53,13.73-1.41,13.01-5.7,6.94-5.25,8.94,1.38,5.99l2.02,1.96c13.05-8.16,20.72-.23,5.51,7.59Z"/>
      <path class="cls-29" d="M256.62,143.86l4.38,15.86c.7,2.54.6,5.56-1.3,8.18-.98,1.35-3.12.49-5.42,2.21-1.14-3.09-3.1-4.98-6.12-6.44-7.97,2.99-5.16-10.29-1.4-14.35-3.1.33-5.43-.09-6.99-1.24-6.39-6.92-10.33-12.43,2.62-12.08,2.43-3.25,4.09-4.6,8.1-2.01l2,.61c2.33,10.09,3.71,13.18,4.13,9.25Z"/>
      <path class="cls-234" d="M256.35,101.84l-.86,3.9c3.06,6.42-5.7,6.1-9.22,1.47.15,1.85-.39,1.79-1.51.08-5.72,1.47-8.34-5.55-3.71-8.9-5.74-.8-5.45-1.44-.67-4.26,3.16-3.68,4.2-3.5,6.6.52,1-2.41.68-4.45-.88-6.56-3.03,2.76-4.11,1.36-1.44-1.97,1.4-4.51-.05-8.52-2.92-12.13-5.04,1.85-6.73-19.36-5.99-20.25.6-.73,1.48-1.25,2.43-1.7,1.04-.49,1.88-.85,1.98-.7,5.9,8.62,15.28,37.3,18.32,48.41.13.47-.83,1.24-2.11,2.1Z"/>
      <path class="cls-178" d="M248.05,61.83c1.88.51,1.95,1.23.24,2.15,1.61,4.17,3.81,6.32,6.59,6.44,2.42,4.52,2.19,7.79-.69,9.83,1.89.26,1.91.89.17,1.85l2.11,1.94c3.43-.19,3.08,5.13,2.12,8.13,3.97.57,7.82,9.85,3.96,13.59,2.95,1.2,2.86,2.67-.3,3.18-1.8-2.15-2.29-4.93-1.76-8.86l-4.14,1.76-11.37-34.18-6.82-15.64c-5.33,1.42-5.82-13.07.31-9.95,2.15,2.61,9.93,14.07,11,17.23.21.61-.48,1.53-1.42,2.52Z"/>
      <path class="cls-178" d="M255.48,105.73c1.64,1.11,3.44,3.17,3.65,6.02l1.18,15.89c-2.47-.51-4.38-.41-4.86.75-.57,1.37-.7,4.47-.76,5.68-.66,1.74-1.41,1.7-2.23-.02-1.75-.69-1.42-3.14.18-4.01-1.81-.58-1.74-3.1-.06-4-.16-2.61-.87-4.6-2.12-5.99-1.74-.6-1.7-1.28.03-2.03l-1.98-1.98c-3.18-.9-3.92-3.6-.04-3.99l-2.01-2c-1.57-.51-1.23-1.58-.19-2.84,1.27-.43,2.1-.15,4.14.73-1.13-4.42-2.83-7.33-1.14-12.16,1.9,3.84,2.65,7.37,3.66,11.71,1.52-.2,2-1,2.55-1.74Z"/>
      <path class="cls-97" d="M297.41,101.47c2.08,3.12,4.41,14.71-.41,12.74-2.04,5.51-4.98,8.75-8.83,9.74q-6.24,1.01,0,0c3.97-1.95,6.64-5.12,7.99-9.5,3.65-1.62,5.73.54,6.25,6.48,3.3.05,3.27,6.56,2.16,9.3-5.06,1.55-8.77,5.82-15.13,6.16,1.87-1.82,4.85-6.24,4.93-10.26-5.82,2.94-10.47,4.18-16.27,6.23-2.72.96-3.07,8.47-2.04,11.58-3.78-2.76-2.19-7.21-2.68-11.5s-2-8.93,2.59-11.39c1.53-.82,5.36-2.33,5.47-4.08.16-2.39-.48-6.55-3.37-6.6-.94,3.3.04,5.42-.91,5.91l-5.88,3.1c-4.48,11.78-.64,26.73-7.01,34.65l.14-32c.31-2.99,1.15-5.37,2.52-7.16.49-4.04,1.48-6.02,5.45-6.78-8.01-5.24,7.17-16.25,13.25-17.98,7.47-2.13,14.81,4.85,11.77,11.35Z"/>
      <path class="cls-99" d="M266.5,105.79c6.4.06,5.2,5.94.44,9.08-.42,2.19-.09,4.42,1.7,6.61-2.26,1-3.26.58-4.22.55l.06-6.03-2.13-5.9-.11-1.17.3-3.18c.67-5.3,2.48-5.07,3.95.03Z"/>
      <path class="cls-126" d="M254.68,134.06l-.2,3.97,1.95,2.03c.06.99-.09,2.79.19,3.79-.06.92.58,2.55-1.25,4.26l-4.88-14.12c.59-1.73,1.25-1.69,1.96.04l2.23.02Z"/>
      <path class="cls-160" d="M286,178.07l-7.71-2.12,10.06-4.07c.43,2.38-.38,4.75-2.35,6.19Z"/>
      <path class="cls-178" d="M264.48,116.01c-2.13-1.13-1.92-3.73-2.13-5.9,2.44.82,2.15,3.7,2.13,5.9Z"/>
      <path class="cls-178" d="M256.43,140.07c-.97-.14-2-1.04-1.95-2.03.75.2,1.9,1.16,1.95,2.03Z"/>
      <path class="cls-87" d="M320.4,152.08c-7.27,3.75-10.56,11.9-15.48,19.5-3.51-2.88-.51-5.26-.19-6.92-4.55.06-3.71-2.18-.75-4.8,7.12-3.46,9.4-12.52,14.78-17.42,3.39-3.08,5.98-6.83,12.15-8.31l-10.53,17.94Z"/>
      <path class="cls-183" d="M303.99,159.86c.39,1.55,1.02,3.41.75,4.8-5.09,1.23-5.1,8.08-9.94,7.23-.43-.64-2.14-2.04-2.27-2.88.18,1.21,4.43-5.73,11.45-9.15Z"/>
      <path class="cls-137" d="M124.42,254.22l.06,1.45-6.28,10.31c-1.93.65-2.33,2.76-2.95,4.11-7.69,6.48-15.7,18.6-18.65,28.08-4.11,1.13-.95,5.16-5.18,7.04-1.55-4.24-.17-9.16-1.12-13.78-.8-.87-1.39-1.64-1.2-2.06,4.43-9.71,16.81-23.45,25-29.62,5.35-2.28,7.8-7.26,12.57-13.25,3.19,4.25-1.56,5.88-2.26,7.72Z"/>
      <path class="cls-105" d="M114.16,258.13l-.05,1.63c-.14,4.77-4.88,6.52-7.59,10.11l-16.22,21.56c-2.02,2.68-2.2,5.31-1.86,8.69-.65,1.72-1.33,1.66-2.03-.09-3.6,2.01-3.78-3.44-2.01-6.13-3.21-6.38,2.81-19.76,10.41-17.93l11.91-13.76c2.36-2.76,4.06-4.75,7.42-4.09Z"/>
      <g>
        <path class="cls-30" d="M124.4,217.31c2.35,3.16,4.32,14.86-1.95,14.73l-.09,2.01,2.47,2.17,7.4-.51c2.59-1.09,4.14-.94,4.66.46-.44.27-.69,1.08-.44,1.79,2.88,7.26,2.84,12.69-.13,16.28-3.43,2.2-7.4,2.19-11.89-.03l-.98-1.09c4.02-6.01-5.48,10.95-9.33,6.62-1.75-.4-1.69-.94.05-1.63l-2.45-2c3.27-6.06,6.31-11.99,9.14-17.79-1.8-.42-1.85-1.13-.23-2.12l-2.34-11.39c-4.54-.86-3.05-3.23,1.03-4.97-1.65-.33-1.62-.89-.03-1.66,1.49-.19,3.54-.06,5.12-.87Z"/>
        <path class="cls-196" d="M138.34,254.79l-2.03-.54c5.11-7.31-4.71-14.17.13-16.28,3.25,5.73,5.2,10.78,1.9,16.83Z"/>
        <path class="cls-196" d="M124.82,236.22c-1.31.09-2.52-.82-2.47-2.17.99.52,1.83,1.27,2.47,2.17Z"/>
        <path class="cls-196" d="M119.31,219.85l-3.25-.06c.88-.66,2.09-1.46,3.22-1.61l.03,1.66Z"/>
        <polygon class="cls-19" points="133.46 248.04 134.46 249.04 133.46 250.37 132.46 249.04 133.46 248.04"/>
      </g>
      <path class="cls-30" d="M118.21,265.98c.86-4.39,1.83-8.58,6.28-10.31.19,4.19-2.09,8.9-6.28,10.31Z"/>
      <path class="cls-6" d="M327.44,66.5c-1.5,4.42-5.32,7.08-11.08,7.59-.87,3.52-.38,6.93,1.49,8.73l8.66,9.43c-2.45,1.43-3.54,7.45-2.97,10.63-2.14,2.72-3.9,3.44-6.73,4.8-.18-2.79-.87-4.58-2.08-6.22-2.98-.32-2.63-1.58-.3-3.42l-2.22-.86c-.54-9.12-1.04-18.24-1.5-27.35-1.72-.21-1.61-.86.04-1.86l5.16-1.67c-1.05-5.79,5.51-6.07,8.61-2.44.99,1.14,1.9,1.97,2.93,2.66Z"/>
      <path class="cls-157" d="M308.25,62.13c.37.97.3,2.84.16,3.9,2.33,2.21,1.2,3.46-1.96,2l-2.24.03-5.77-18.02c-2.57-2.19-3.96-3.66,0-4-2.49-3.72-2.24-6.31,2.07-3.95l7.75,20.04Z"/>
      <path class="cls-243" d="M310.75,67.96c.13.59.1,1.28-.04,1.86,2.14,3.82.94,4.92-2.45,2.13-2.95,2.44-4.35-1.63-1.81-3.92,1-.17,1.82-.98,1.96-2,1.12.14,2.1.85,2.34,1.93Z"/>
      <g>
        <path class="cls-75" d="M320.89,30.95c7.65,7.72,9.63,14.65,5.94,20.79-.64,1.81-3.13,1.75-4.38.31-1.38-.34-1.38.33,0,2,.37-1.73,3.59-1.59,4.7-.07,3.1-2.43,4.59-.67,2.51,2.74-5.38,2.6-9.96,5.79-13.75,9.57,2.09,5.19-2.38,6.42-5.16,1.67-2.09,1.45-2.92.54-2.34-1.93-2.5-1.33-2.78-2.86-.16-3.9l-4.09-17.91c-4.65-7.29-3.98-10.49,2.01-9.63,1.46-2.25,3.75-4.43,6.87-6.55,3.39-1,5.62.76,7.85,2.9Z"/>
        <g>
          <path class="cls-84" d="M331.8,41.46c2.73,2.62,4.79,6.18,6.8,10.51-2.71.36-3.85-.51-5.88-1.22.58,5.51-1.21,9.58-4.27,13.28,3.55,1.41,2.88,2.94-1.01,2.46-3.03,2.86-4.37,1.4-2.93-2.66-2.82-2.94-1.11-5.31,5.14-7.13-1.48-.8-2.1-1.95-2.51-2.74-1.99-.33-2.06-1.09-.31-2.24-3.72-2.81-.64-7.67-2.23-11.33l-3.71-9.47,10.91,10.51Z"/>
          <path class="cls-166" d="M329.65,56.72c-1.3,2.68-3.35,4.92-5.14,7.13s-6.18,1.63-8.61,2.44c-.72-2.65-.95-5.74.1-8.52l13.65-1.05Z"/>
          <path class="cls-84" d="M322.44,52.05c1.75.57,1.72,1.23,0,2-.89.27-1.73-.33-1.99-.99-.23-.57-.88-1.62.85-2.89.49-.36,1.67.71,1.14,1.89Z"/>
          <path class="cls-166" d="M326.83,51.74c-.01.66,0,1.63.31,2.24l-4.7.07v-2s4.38-.31,4.38-.31Z"/>
          <rect class="cls-90" x="314.74" y="36.34" width="1.41" height="1.41" transform="translate(66.19 233.9) rotate(-45)"/>
          <rect class="cls-84" x="320.74" y="40.34" width="1.41" height="1.41" transform="translate(65.12 239.31) rotate(-45)"/>
        </g>
      </g>
      <path class="cls-41" d="M284.08,14.65c4.38-.97,7.17,1.99,11.51,4.55l5.58,3.29c1.43.84-1.22,5.24-.32,6.67.74,1.17,3.68,1.17,4.48,1.12,1.38-.07,1.84,4.1-.77,3.93-1.54-.1-3.81-2.1-4.75-1.81s-1.6,2.88-1.49,3.74c-2.84,5.14-13.62-4.95-15.87-10.35-.41,3.06-3.37,3.29-4.32.27-2.63,3.49-7.36.48-5.76-3.78,1.81-4.68,7.24-6.19,11.71-7.65Z"/>
      <path class="cls-15" d="M272.38,22.3c1.64,1.13,4.48,2.59,5.76,3.78,1.71.84,3.06,1.36,4.32-.27,8.12-.28,9.76,9.7,15.87,10.35,0,2.26,1.41,3.97,2.17,5.94-1.71.45-2.07,2.21-2.07,3.95l-2.85,1.08c-1.54-3.9-2.55-4.93-3.05-3.1-.48,1.78-1.16,1.79-2.03.12-2-7.53-9.24-11.13-16.83-9.67-5.43-1.41-9.15-3.82-11.14-7.22-1.11,2.06-1.92,1.02-2.01-1.41-3.24,2.4-4.82,1.87-4.74-1.58-4.81-2.9.59-7.86,4.73-5.91.49-.54,1.89-.87,2.03-2.02.58-.21,1.37.13,1.7.36l8.13,5.6Z"/>
      <path class="cls-204" d="M118.08,228c-1.91,3.81-5.64,8.07-10.24,7.91,1.69.65,1.56,1.25-.26,1.83.63,5.66-7.46,11.44-11.73,12.52-.66,1.62-1.09,1.36-1.34-.53-5.19,3.97-7.21,3.38-6.05-1.76-1.39-.34-1.19-.8.33-1.36,1.52,0,3.92,1.87,5.71.53,1.61-1.2,3.92-3.24,3.29-5-2.42,1.62-3.71,1.91-6.22,2.02-.98.04-1.55-2.83,1.26-1.71,9.99-15.23,24.88-23.61,25.25-14.45Z"/>
      <path class="cls-242" d="M118.08,228l.16,4.01c-1.57,2.32-3.69,4.15-5.49,6.23-1.46.97-3.57-1.02-4.91-2.33,3.29-2.98,5.58-7.71,10.24-7.91Z"/>
      <g>
        <path class="cls-205" d="M140.31,188.13c3.58-.64,10.63,4.24,8.05,7.71,2.9,2.04,1.9,4.68-3,7.92l-3.55,6.16c5.7,1.84-.14,15.9-5.33,16.86-.71.11-1.92-.41-2.59-.7-1.64,1.48-4.44.26-5.46-1.54l.1-4.43c4.15-1.29,3.07-5.34,2.79-7.92-.48-4.35-5.09-5.87-8.8-3.86-1.52-.48-2.08-1.81-1.65-3.91-1.04-.57-1.83-1.09-1.76-1.41,1.75-7.99,4.97-1.38,1.95-2.44-.5-.17-.67-1.26-.76-2.59-4.52-3.25,1.61-8.36,4.41-3.56,1.81,1.01,3.26,1.99,4.88,2.21,2.85.39,5.73-.5,6.18-3.8.26-1.88.82-3.54,1.93-4.24.66-.42,1.87-.51,2.61-.42Z"/>
        <path class="cls-72" d="M148.36,195.84c-2.12-3.24-5.12-5.48-8.05-7.71l1.44-1.59c5.61.49,11.18,6.9,9.85,7.6l-3.24,1.7Z"/>
        <path class="cls-149" d="M133.89,226.07c-.1,2.19-2.4,2.87-4.37,1.9-1.3-.64-1.13-2.06-1.1-3.43,2.05-.72,4.3-.32,5.46,1.54Z"/>
        <path class="cls-136" d="M136.42,202.98c.07-.14-8.17,3.8-8.98,3.73-5.6-.48.07-3.56,8.15-8.73,1.43,1.67,1.26,4.18.83,5Z"/>
        <path class="cls-145" d="M137.31,196.69c.03-.66,2.51-1.18,4.02-.7.63.2,1.06,1.25.34,1.94-.49.47-1.51,1.87-2.17,1.94s-2.29-1.34-2.19-3.18Z"/>
      </g>
      <path class="cls-226" d="M24.51,272.01c7.12.96,13.79,2.6,17.96,7.66,2.68,2.46,1.8,3.73-1.76,2.59l-2.68,3.75c-10.35-3.22-14.17,1.21-11.46,13.3l-4.13,2.76-3.99-1.98.6-5.68c.37-3.26.08-6.49,1.78-10.24-2.95-1.72-4.82-2.06-8.5-2.81l4.05-3.39c3.41-1.54,4.16-2.79,2.23-3.75,1.45-1.99,3.53-2.22,5.9-2.2Z"/>
      <path class="cls-59" d="M52.39,272.27l-3.67,7.63c.05,4.9-1.72,2.81-4.28-.28-.5,1.76-1.16,1.76-1.97.06-2.41.08-6.96,1.28-8.52-1.25l-2.68-4.36c-.66-1.08-4.74,1.02-5.74,4.64-1.93-1.98-1.19-4.48-1.02-6.69l27.88.26Z"/>
      <path class="cls-37" d="M16.39,277.96l2.23-3.75c.49-.82,2.18-.3,3-.18,1.31.17,2.59,2.45.53,3.55-1.85.99-4.38.51-5.76.38Z"/>
      <g>
        <path class="cls-162" d="M326.51,92.25c-9.74,3.45-13.53-12.48-12.7-20.48.08-.74,11.66-4.91,13.63-5.27.24-.71.53-1.88,1.01-2.46,2.1-1.21,4.47-2.49,6.14-4.37,1.9,6.85-3.15,13.24-3.91,20.22-.63,5.75.23,9.78-4.17,12.36Z"/>
        <polygon class="cls-6" points="319.44 76.02 319.47 77.65 319.47 79.34 319.44 80.99 319.41 79.34 319.41 77.65 319.44 76.02"/>
      </g>
      <path class="cls-222" d="M246.76,149.32c4.18,3.66-2.22,12.6,1.4,14.35l-20.5,8.58,2.58,2.43c-.45-.13-.47,2.1-2.14.36.03-.66-.69-.64-.54-.04-6.02,2.88-13.11,4.53-17.35,10.63-1.07-1.03-2.22-2.58-2.98-2.71,1.85.31-10.04,6.34-15.17,12.99-5.39-4.78-14.1-2.98-17.9,2.03.95,1.78,4.01,4.68,3.15,5.71-4.98,2.02-7.83,1.93-10.71-1.12l-5.13,2.8c3.04-6.85,5.87-1.63,10.05-7.23.67-.89-2.99-3.04-2.68-4.12,1.07-3.71,3.53-7.84,2.8-11.42-1.79.62-2.86.44-3.43.22-.88-.34-1.52-1.32-1.75-2.28,5.95-4.5,12.77-6.59,20.25-6.1,4.33-3.25,7.98-4.3,10.96-3.16,4.84-4.58,9.76-3.64,14.74,2.81-1.25-3.99.28-4.68,2.74-1.31,3-10.31,7.34-15.2,13-14.67,4.24-7.36,9.89-10.45,18.63-8.76Z"/>
      <path class="cls-216" d="M182.51,150.35c-1.75-.16-2.87-1.33-4.02-2.33-.05-1.17.92-2.18,1.95-3.12,1.6-1.48,3.06.81,2.1,2.08-.39.51-.28,2.16-.02,3.38Z"/>
      <path class="cls-237" d="M186.39,112.04c-.43,4.67-1.73,6.06-3.91,4.17l.07-14.16-.05-16.24c.73-1.42,1.37-1.3,1.91.27-.13,8.56,1.9,17.15,1.97,25.97Z"/>
      <path class="cls-129" d="M184.51,80.06l-.09,6.01c-.45.1-1.58.11-1.91-.27-1.58-1.76-4.09.42-5.51,2.57-1.41-5.16,3.29-6.29,5.41-8.27l2.11-.05Z"/>
      <path class="cls-147" d="M177.84,104.15l2.66-.09c-.2,2.5-.86,4.62-3.5,6.22-1.69-3.29.7-4.77.84-6.12Z"/>
      <polygon class="cls-237" points="184.51 80.06 182.4 80.1 184.64 78.04 184.51 80.06"/>
      <path class="cls-43" d="M182.48,116.21c2.75-1.3,3.36,1.48,2.03,3.84-.53,1.88-1.25,1.86-2.13.04-4.06-1.38-9.5-4.92-10.66-9.96,6.24-.41,7,5,10.76,6.08Z"/>
      <g>
        <path class="cls-180" d="M158.92,151.62c1.87,5.35,4.09,7.07,9.56,8.74,1.79.21,1.8.82.18,1.78,1.88.41,1.83,1.09.03,2.02,1.95,2.09,1.39,5.06-1.68,8.9-2.36.9-5.31.6-7.25-.9-.98-.45-6.53,1.56-3.59,4.23-2.17.7-5.88.15-7.82-2.14,1.5-3.19,1.48-6.67-1.85-9.76l7.68-4.47c-1.49-4.04-1.71-7.31-1.24-10.63l3.64-1.46c3.64-.47,5.4,1.11,2.35,3.68Z"/>
        <path class="cls-163" d="M159.76,172.16c0,.99.31,2.98-.76,3.33l-2.82.91c-1.81-1.27-3.56-2.34-4.12-3.8s-1.49-5.2,3.2-5.11l.08,4.64c4.43-2.17,4.72-4.01,6.42-5.83.88,2.98-1.39,4.34-2,5.87Z"/>
        <path class="cls-54" d="M171.86,167.03l5.13,2.24-9.98,3.79c-1.57-.63-3.4-.71-4.77-2.43,4.24-2.34,5.43-4.21,6.46-6.46l3.17,2.87Z"/>
        <path class="cls-143" d="M168.48,160.36c-3.87.4-7.09-.29-11.82-.73-.09-3.27,1.16-5.49,2.26-8.02l9.56,8.74Z"/>
        <polygon class="cls-229" points="161.77 162.98 163.13 162.98 164.43 163.03 163.13 163.07 161.78 163.07 160.47 163.02 161.77 162.98"/>
      </g>
      <path class="cls-223" d="M84.53,336.12l-1.9.22c.03-2.05,1.82-3.71,3.79-4.31l-1.9,4.09Z"/>
      <g>
        <path class="cls-159" d="M55.15,300.28c1.62-1.25,7.95,1.05,8.99,2.05,1.56,1.5-5.38,23.08-7.69,26.56,2.75,3.52,6.08,6.49,9.97,8.89,2.94-4.2,6.65-5.56,7.73.62,4.94-4.03,7.76-4.1,8.45-.22-1.52,5.44-.93,7.44,1.79,6l2.01-2.17c-1.73-.61-1.68-1.27.06-1.98.1-1.58.77-2.25,1.99-2,1.6-3.52,3.01-4.23,4.25-2.12.75,3.01-.64,6.37-4.19,10.1-.77.84-1.52.78-2.26-.13.69,10.77-16.26,12.56-23.96,7.84l-1.83,2.71c-5.81-.18-9.76-4.64-13.82-8.49l-.19-5.92c-.84-.59-.85-1.28-.11-2.04-2.59-10.25-3.88-15.37-3.88-15.37,2.69-.35,3.07-2.4,1.14-6.14,6.47-.19,9.11-2.01,7.91-5.47-4.22.23-7.89-.18-11-1.24-1.32,9.74-12,7.62-12.06-3.74-1.76-.53-1.74-1.18-.04-1.97.57-1.76,1.27-1.74,2.1-.04,1.88.63,3.78.66,5.69.08,5-3.56,10.29-6.88,15.85-9.95l3.08,4.12Z"/>
        <g>
          <path class="cls-217" d="M90.4,348c-.56,2.62-2.67,5.23-6.33,7.82-4.81,5.95-15.61.87-23.61.62-.55-.47-1.63-2.58-1.24-3.45s3.42-.54,3.65-4.49c1.29.39,2.21,2.5,2.4,5.32,8.48.89,16.29-1.46,20.98-7.93,3.82-.13,5.2.57,4.15,2.11Z"/>
          <path class="cls-114" d="M46.35,339.99c-.47,1.07-1.11,1.03-1.89.03.39-7.55-4.75-13.15-11.69-15.98-4.48-4.7-1.38-6.5,4.49-7.17l3.26-5.11c3.56-2.88,10.32-5.74,15.06-1.13l-.28,10.78c-.04,1.41-3.81,2.76-4.74,1.66-.8-.94-1.24-2.79-4.76-2.79,1.67,7.14.2,13.35.54,19.69Z"/>
          <path class="cls-127" d="M46.46,342.03c-.67-.16-2.04-1.28-2-2.01l1.89-.03.11,2.04Z"/>
          <path class="cls-55" d="M86.47,340.03l-.06,1.98-2.01,2.17c-1.41,3.79-7.67,8.59-12.62,6.42-5.87-2.56-10.64-5.72-15.74-10.3,10.84.7,21.7,2.95,26.57-2.13-1.76-.43-1.7-1.04.03-1.83.36-1.17,1.01-1.19,1.9-.22,4.23-3.42,3.85.16,1.94,3.91Z"/>
          <path class="cls-209" d="M36.22,306.11c.96,1.47-.27,4.19-1.76,3.27s-2.65-2.01-3.93-3.36c-1.52-1.77-.18-3.29,1.75-4.36.61-1.75,1.32-1.72,2.12,0l1.83,4.44Z"/>
          <path class="cls-65" d="M50.98,347.68c-.31-1.34-1.73-4.33-3.14-5.79,2.14-3.2,3.8.17,4.77.97,2.09,1.73,1.33,4.6-1.63,4.81Z"/>
          <path class="cls-151" d="M92.47,346.03c-.56.7-1.51,1.29-2.07,1.97-1.58.2-3.23-.44-4.15-2.11.79.21,1.72.18,2.26.13,2.52-3.83,3.97-5.37,3.95-2.9v2.91Z"/>
          <path class="cls-223" d="M84.4,344.18l2.01-2.17c-.15.74-1.54,1.61-2.01,2.17Z"/>
        </g>
      </g>
      <path class="cls-124" d="M84.41,293.9l2.01,6.13c1.54,3.69-2.54,11.73-5.74,8.16-.61-5.46-3.27-7.45-7.96-5.98l.27-10.73c.07-1.38,3.66-3.35.65-5.55-.96-.7-1.42-1.53-3.53-.49l-7.75,3.8c-.4,1.96-1.18,2-2.3.26-6.74-5.32,4.62-13.03,8.22-7.21.62-.74,1.54-1.35,2.76-1.84,7.67-6.5,15.56,5.76,13.37,13.45Z"/>
      <g>
        <path class="cls-56" d="M72.99,291.48c4.63.02,4.54,3.6-.27,10.73-1.53,3.99-3.7,7.16-6.51,9.52-2,8-5.25,13.72-9.76,17.17l5.42-25.34-6.72-3.28c-2.01-6.28,2.05-6.8,7.66-6.12-3.82-1.39-4.66-3.71-.45-4.93-.27-3.42,5.16-6.28,7.75-3.8,1.99,2.35.14,7.73-1.13,10.89-3.31,8.21.03-8.13,4.02-4.85Z"/>
        <path class="cls-164" d="M72.99,291.48c-3.88,2.3-2.04,8.01-6.51,9.62-1.71.61-5.42-.41-6.66-3.12,3.58.4,7.18-.28,8.2-1.98-.72-4.22-.08-7.51,2.08-10.56,3.96-7.65,13.59,8.3,2.89,6.04Z"/>
        <path class="cls-240" d="M72.72,302.21c2.39-1.63,3.37-.55,1.73,1.81l2.03,3.29-10.28,4.42c1.02-1.57-.33-6.25.6-8.38.79-1.8,3.68-2.38,5.91-1.14Z"/>
        <polygon class="cls-159" points="63.46 308.03 64.46 309.03 63.46 310.03 61.72 309.03 63.46 308.03"/>
      </g>
      <path class="cls-231" d="M48.72,279.89l5.61-.04c5.97.46,5.21,6.77-.16,8.22-1.08-.44-2.96-.15-4.12-.06-.52-1.43-2.32-1.82-3.21-2.25-4.29-.18-5.22-3-2.4-6.15l4.28.28Z"/>
      <g>
        <path class="cls-106" d="M50.05,288.01c.02-5.52,2.63-5.31,4.12.06,3.57,2.01,6.45,4.04,8.64,6.1-1.96,2.26-5.12,4.68-7.66,6.12-6.73-1.5-10.3,5.48-18.93,5.83-3.44,1.65-3.55-1.6-1.83-4.44,4.88-3.06,9.13-6.3,12.75-9.73.59.13,1-.35.91-.91-5.18,1.13-1.93-5.99,2-3.01Z"/>
        <path class="cls-128" d="M60.06,289.49c.65-.03,1.69.04,2.3-.26l.45,4.93c-3.7.1-8.42-2.63-8.64-6.1,2.7-4.73,4.77-3.59,5.89,1.43Z"/>
        <path class="cls-128" d="M50.05,288.01c-.36-.16-1.76-.08-2.35.32-.64.44-.48,2.03.35,2.69l2.32,1.84c-1.18-1.7-2.99.07-1.11,1.26l-2.12-2.18c-1.34,7.08-5.76,10.83-12.75,9.73-3.52-1.6.99-7.18,4.36-6.14,1.75-7.47,4.44-10.72,8.09-9.77,3.66-4.34,5.51-3.04,3.21,2.25Z"/>
        <polygon class="cls-128" points="53.46 296.03 54.46 297.03 53.46 298.13 52.46 297.03 53.46 296.03"/>
        <polygon class="cls-128" points="47.46 298.03 48.35 299.08 47.46 300.16 46.04 299.03 47.46 298.03"/>
      </g>
      <path class="cls-233" d="M76.74,313.94l.64,6.96c4.46,3.69,4.16,8.26,1.8,12.15-3.43,1.36-3.85-2.29-2.67-5.19-3.44-4.4-7.99-8.2-9.81-13.69,3.31-1.36,6.88-2.34,10.04-.23Z"/>
      <path class="cls-188" d="M66.42,336.16l-1.81-1.89c-1.57-2.59-.89-5.84.79-10.4,1.63,2.13,3.14,3.55,6.9,4.74l-5.88,7.55Z"/>
      <path class="cls-215" d="M79.18,333.06c-1.16,1.91-2.14,3.24-4.82,2.86-.56-2.83-.67-6.45,2.15-8.05,1.22,1.56,2.23,3.01,2.67,5.19Z"/>
      <path class="cls-100" d="M84.51,319.82c-5.4-1.47-1.31-6.93-5.76-9.75.65-.22,1.45-1.4,1.93-1.88,3-1.39,5.61-4.6,5.74-8.16l2.03.09c.46,4.6-5.21,8.32-3.93,19.7Z"/>
      <path class="cls-223" d="M86.49,330.07c-1.47-2.33-2.02-4.98-2-7.68l2.11.07c.46,2.25,2.52,5.66-.11,7.61Z"/>
      <path class="cls-214" d="M38.75,295.53c-1.87.74-3.49,4.39-4.36,6.14h-2.12s-2.59.15-2.59.15c-6.2-4.61,2.12-13.74,8.45-9.13,2.9-.43,2.52.69.61,2.84Z"/>
      <path class="cls-228" d="M40.71,282.26c5.09.87.75,9.37-2.57,10.43-3.97,1.75-7.45,4.85-8.45,9.13-1.99,2.39-4.66,1.53-7.24.24.7-4.95-1.78-13.56,1.83-18.19,3.33-4.27,12.34-1.83,16.44-1.61Z"/>
      <path class="cls-17" d="M202.86,74.59c-3.02,2.21-3.48,6.25-2.18,9.64,3.21,1.02,2.6,2.89-.91,3.12-2.99-3.43-5.48-4.56-7.45-3.39-.78-.26-1.61-1.24-2.76-1.76-.29-2.34-.34-5.85-.8-8.28l5.61,5.44c2.76-3.19,5.39-4.77,8.49-4.76Z"/>
      <path class="cls-239" d="M192.72,129.87c3.62,7.15,6.62,14.21,8.19,22.09.44,3.73-.17,3.09-2.25.04-2.74-.07-4.25-2.62-4.55-7.66-3.23-3.95-4.39-7.41-3.49-10.38l-2.17-3.91c1.17-1.42,2.57-1.12,4.28-.18Z"/>
      <path class="cls-81" d="M192.72,129.87c.22.94-.86,2.3-1.3,2.02l-2.97-1.84-1.97-2.04c2.82-.39,1.94-2.6.96-3.95l-2.91-4c-.75-1.82,0-3.7,1.91-3.99,3.48,3.86,4.09,9.46,6.29,13.8Z"/>
      <path class="cls-175" d="M206.94,160.02l.37,3.53c-6.59,3.17-15.01-5.64-8.66-11.55l2.25-.04c.55,2.75,4.02,6.45,6.04,8.06Z"/>
      <path class="cls-138" d="M186.42,116.06c.53,1.64-.11,3.73-1.91,3.99l-2.03-3.84c2.11-.66,2.89-2.74,3.91-4.17l.03,4.02Z"/>
      <path class="cls-177" d="M194.63,111.99c-.38-1.23-.23-2.9-.26-4.27,1.48.02,2.75,1.48,2.1,3.25-.24.66-.94,1.33-1.84,1.02Z"/>
      <path class="cls-88" d="M224.75,32.29c1.67.67,1.53,1.24-.29,1.73,1.76,2.31.71,3.18-2.04,2.12-.65,3.77-2.96,3.71-3.96-.04.14-1.22,1.25-3.34,2.09-4.16l4.2.35Z"/>
      <path class="cls-20" d="M200.68,84.23l1.55-.07c.61-1.49,1.74-1.24,2.72-.02-.39,1.76-1.47,4.34-2.56,5.85-2.38,3.29-.23,7.45.87,11.99,2.15-3.76,5.73-4.02,9.24-2.49,2.26,3.31,0,4.64-6.8,3.98,6.99,3.21,1.64,7.77-3.28,2.5l-6.02-11.9c.99-3.95-.37-7.32-4.07-10.11-.21-1.35,2.02-3.33,3.14-2.96.77.25,2.19,2.22,2.82,3.61.22,2.28,3.05,1.94,2.4-.37Z"/>
      <path class="cls-17" d="M204.96,84.14l-2.72.02c-.45-2.85,3.3-2.68,2.72-.02Z"/>
      <path class="cls-10" d="M236.4,38.04c2.05.62,3.43,2.31,2.07,4.03-3.92,2.57-.84,6.69-.31,9.95l3.57,21.95c2.83,3.2,4.58,7.93,2.92,12.13.14.59.89,1.71,1.44,1.97,1.56,1.84,2.05,4.36.88,6.56-1.79,1.58-4.63.46-6.6-.52-.69,1.71-1.37,1.64-2.03-.13-2.22.05-2.74-1.44-1.55-4.47-3.71-.56-3.93-2.13-.32-3.45l-1.87-2.17c-2.42-4.12-6.67-12.89-.21-14.11-.05-3.63-1.29-6.59-1.8-9.92l-.6-15.73c-.87-3.1-.76-5.86.35-8.3-.12-1.5,1.35-2.25,2.18-.88l1.87,3.09Z"/>
      <path class="cls-74" d="M239.86,29.87c8.39-.22,11.35,1.8,8.87,6.04,3.74,2.68,5.72,7.57,5.6,12.09,1.69.88,1.51,1.44-.45,1.67-.92,1.22-.81,2.04.55,2.38,2.76-1.71,6.42.07,6.01,3.67,3.99.02,3.76,1.79-.29,2.58-1.05,1.88-9.73,1.1-11.23.49-1.82-.75-8.9-15.75-10.25-18.94-.24-.57-.22-1.25-.13-1.96-.51-1.22-.44-3.87-2.08-4.89-1.23-.76-2.61-1.06-4.11-.99-.94-2.65,5.18-3.44,7.51-2.14Z"/>
      <path class="cls-189" d="M260.16,58.3c1.26,1.59-.13,2.72-1.79,3.6-.92,1.61-1.64,1.46-2.16-.38-3.1,2.63-4.82,2.61-8.17.3-4.56-5.58-6.33-13.34-9.58-19.76l-2.07-4.03,2.15-.16c8.63,8.61,4.93,21.64,21.61,20.42Z"/>
      <path class="cls-198" d="M260.52,18.35c-1.41,1.86-4.74,3.07-4.73,5.91,1.62,1.69,1.29,2.29-1.01,1.77.95,7.39-9.97,6.24-14.92,3.84-2.62.67-5.61-.9-7.51,2.14-.97.69-2.66,1.93-3.92,1.95-1.72,2.26-3.13,2.96-3.98.07l.29-1.73c4.97-3.57,13.35-2.5,17.99-6.24l11.87-9.6c1.68-1.36,5.2-.84,5.92,1.9Z"/>
      <path class="cls-80" d="M222.42,36.15c2.18-1.32,4.46-.86,4.07,1.91-.25.51-.1,1.41-.03,1.99,1.4,1.84.35,2.6-1.97,1.98l-6.02-.06v-5.85c.9-.46,3.02-.31,3.95.04Z"/>
      <path class="cls-24" d="M228.44,33.96l-1.95,4.1c-1.56-.24-2.89-1.15-4.07-1.91l2.04-2.12,3.98-.07Z"/>
      <path class="cls-22" d="M232.01,44.13c-.15-2.57-3.49-6.15.35-8.3l-.35,8.3Z"/>
      <path class="cls-76" d="M228.5,42.07c-2.76,3.05-3.42,5.44-3.7,2.81l-.31-2.85,1.97-1.98,2.04,2.02Z"/>
      <path class="cls-48" d="M234.4,69.78l.21,14.11,1.87,2.17.32,3.45c1.76,6.5-4.54,2.01-6.68-1.47-1.75-.56-1.73-1.23,0-2,1.53-1.48,1.69-1.98.42-3.77-3.99-.03-6.43-1.47-7.33-4.3-1.87-.31-1.8-.94,0-1.86-5.73-3.1-3.24-11,3.27-5.77,3.09,2.82,5.13-1.75,7.93-.56Z"/>
      <path class="cls-190" d="M226.47,70.34c-1.18-1.08-3.88.11-2.99,2.22.37.88.15,2.27-.28,3.55-8.09,3.76-10.64,1.98-6.77-6.27l2.12-4.13,1.74.29c2.52.42,4.73,2.14,6.2,4.34Z"/>
      <g>
        <path class="cls-152" d="M230.47,60.02c1.42,2.12,2.13,2.06,2.13-.16,5.23,0,6.15,7.23,1.8,9.92-.11,6.45-7.36,6.89-7.93.56-4.87,2.22-6.25.75-6.2-4.34-5.5-3.02-.97-5.86,3.98-6.06l6.22.09Z"/>
        <path class="cls-158" d="M224.25,59.93l-3.98,6.06c-.67,1.67-1.24,1.53-1.74-.29-1.1-.98-2.5-1.13-4.72.39l.85-1.33-.47-4.79c3.37-.75,7.11-1.51,10.06-.04Z"/>
        <path class="cls-68" d="M230.47,60.02l2.13-.16.11,3.15c.04,1.16-1.85,1.5-2.21.05-.16-.65-.14-1.86-.02-3.04Z"/>
        <rect class="cls-13" x="224.74" y="64.34" width="1.41" height="1.41" transform="translate(20.04 178.47) rotate(-45)"/>
      </g>
      <path class="cls-121" d="M216.42,69.83c1.46,1.84.65,3.61.77,4.81.21,1.98,4.82,2.08,6,1.47-.18.52-.05,1.32,0,1.86.5,3.82-2.67,2.53-4.77.03-.73,2.37-3.74,4.51-6.03,6.11-5.58-5.23,5.56-8.79-1.71-16.56l5.72,2.28Z"/>
      <path class="cls-199" d="M213.81,66.09c1.23-.39.86-1.26.85-1.33l-.85,1.33Z"/>
      <g>
        <path class="cls-185" d="M278.45,4.05c1.33.59,1.31,1.27,0,2.01-.84.76-.14.85,2.08.29,5.1-1.54,11.07,1.65,15.73,3.77-.08,1.02-.84,2.52-1.69,2.88-2.29.94-5.88-2.09-8.64-.93-.73.31-1.54,1.85-1.83,2.58,1.1,5.26-7.09,8.11-11.71,7.65-3.28,4.92-10.46-.47-8.13-5.6-1.54-.51-1.12-1.73-.07-2.81.34-1.28,1.51-.99,2.29.04,1.74-1.39,2.49-3.4,2.26-6.03.1-1.31.58-2.51,1.42-3.62l8.29-.23Z"/>
        <g>
          <polygon class="cls-23" points="280.52 6.35 278.44 6.06 278.45 4.05 280.45 4.05 280.52 6.35"/>
          <path class="cls-33" d="M268.73,7.9c3.41,1.91,5.35,6.53,4.57,11.51l-6.83-5.47c-.96-.98-1.35-1.2-2.29-.04l.07,2.81c-.63,1.48-1.2,1.29-1.7-.36-1.8-.43-1.84-1.14-.2-2.11-.22-2.39-2.4-3.83-5.09-5.85,5.59-2.11,8.18-.53,11.48-.48Z"/>
          <path class="cls-243" d="M278.44,6.06l2.08.29c-1.73.52-3.75,3.79-6.34.37,2.14-1.16,3.38-.72,4.27-.66Z"/>
          <polygon class="cls-51" points="281.77 9.01 283.12 9.01 284.43 9.05 283.12 9.08 281.77 9.08 280.47 9.05 281.77 9.01"/>
          <path class="cls-187" d="M266.47,13.93l-2.29-.04c-.17-2.41,2.66-2.22,2.29.04Z"/>
        </g>
      </g>
      <path class="cls-34" d="M300.6,63.94c1.81-.05,1.92.57.47,1.8.28,9.74,1.96,19.39,5.04,28.95l-3.56,3.32c1.62,1.57,2.95,3.74,1.91,6.02,4.06.27,3.81,2.5.02,4.02,3.43,11.74.63,20.56,3.49,30.69-5.82-1.61-2.91-6.36-3.41-8.51l-2.16-9.3c-3.86-5.67-4.73-8.83-2.63-9.47-1.38-4.49-1.24-8.28.41-11.38-1.66-.79-1.56-1.47.25-2.05l-1.89-4.03c-4.37-.74-6.39-5.45-6.08-14.13,2.21-2.83,3.06-6.27,2.55-10.3-6.18-1.65-6.49-10.77-.53-13.11-1.76.1-1.39-1.19,0-2.45l2.36.12c.56,3.58,1.82,6.85,3.76,9.8Z"/>
      <path class="cls-194" d="M310.2,83.43c1.57,3.15,3.12,12.85.25,16.61l-.08,2.03c3.21-.1,3.16,3.15.07,3.97-1.28,1.42-1.97,2.9-2.5,6.19l-3.46-4.18c-.34-1.16-.07-2.82-.02-4.02.53-2.68-.19-3.86-1.91-6.02l-3.82-26.47c-.45-3.09-.24-5.09,2.34-5.8l2.38.46c2.07,8.37,4.32,14.12,6.74,17.23Z"/>
      <path class="cls-197" d="M250.45,128.04c1.38.58,1.36,1.25.02,2.01,1.47,1.2,1.44,2.61.02,3.94-2.95,2.46-7.67,7.1-13.03,3.16l2.31,10.93c-2.73,1.49-5.38,3.16-7.95,5.03l-3.01-.93c-3.2,4.68-7.31,8.62-12.34,11.83-.53,1.76-1.19,1.74-1.97.03l.09-11.98c1.02-4.82,1.12-9.72.3-14.68l2.05-1.67c2.46-2.46,5.6-3.66,6.9.09,4.58-1.96,7.98-2.34,10.19-1.12,1.08-3.58,2.71-4.93,4.91-4.06-3.54-7.65,3.04-7.88,9.13-7.1,1.1,1.04,1.9,2.55,2.39,4.53Z"/>
      <path class="cls-123" d="M239.77,148.08c2.62-.56,5.13-.39,6.99,1.24-8.8,1.59-10.9,8.01-18.63,8.76-4.35-1.61-2.58-3.48.68-5.9,2.7-1.7,3.21-4.88,2.2-8.65,5.6.47,6.36,3.52,8.75,4.56Z"/>
      <path class="cls-178" d="M244.65,86.1l-2.92-12.13c2.51,1.07,4.12,3.04,4.76,5.45s.39,5.38-1.84,6.68Z"/>
      <path class="cls-178" d="M246.97,94.64l-.88-6.56c1.17.57,2.19,1.54,2.46,2.92.32,1.64-.35,2.57-1.57,3.65Z"/>
      <path class="cls-161" d="M254.37,66.22c.81-3.43,8.54-2.31,8.63-.31.39,9-6.06,6.05-1.26,3.14.55-.33,1.68.29,2.98,1.19l2.09-3.71c16.95,5.65,10.62,28.49-.27,16.43l2.42,1.92c-1.48-2.58-4.13-.14-1.77,1.36l-2.06-1.97c.44,2.68-3.21,1.42-4.68-.22-1.44-.59-1.41-1.27-.01-2.05-.09-1.44-2.17-2.02-6.25-1.74l-5.9-16.27,2.23-1.61,3.85,3.84Z"/>
      <path class="cls-139" d="M264.75,90.09l-.31,2.08c1.75.43,1.68,1.01-.06,1.73-.03.88.63,1.53,1.98,1.95,3.25-1.19,1.4,4.14-.4,6.2,1.85.18,1.99.89.52,2.1,1.76.33,1.73.88.02,1.65l-3.95-.03c.46-4.84-2.77-9.03-3.96-13.59-.14-2.88.54-4.71,2.04-5.5,4.56-3.95,11.31-1.59,4.12,3.41Z"/>
      <path class="cls-227" d="M256.22,61.53c3.61,3.64,3.26,3.95-1.85,4.69.02,1.32-.04,2.65-1.28,4.02-1.97-3.34-3.03-4.86-4.8-6.25-.07-.52-.02-1.67-.24-2.15.76-1.75,3.02-2.48,5.23-2.1.99.17,2.12.47,2.94,1.79Z"/>
      <path class="cls-61" d="M260.44,82c-.6,1.87-1.27,1.88-1.99.05-.6,1.18-1.27,1.15-2,0-.59,1.23-1.29,1.22-2.09.06,0-.55.02-1.32-.17-1.85l12.31-4.5c-1.26,3.77-3.76,5.06-6.05,6.24Z"/>
      <path class="cls-25" d="M260.46,84.04c3.47.48,3.66,1.64.17,2.63.13,2.09-.23,4.29-2.04,5.5l-2.12-8.13,1.98-2c.53,0,1.52.2,1.99-.05v2.05Z"/>
      <path class="cls-161" d="M256.47,84.04c-1.29.06-2.1-.7-2.11-1.94l2.09-.06c1.22.52,1.18,1.2.02,2Z"/>
      <path class="cls-234" d="M252.57,126.03c-.59,1.75-1.3,1.73-2.12.01v-6c1.91-1.02,4.72.51,3.79,2.46l-1.67,3.52Z"/>
      <path class="cls-35" d="M252.63,130.03c-.6,1.75-1.33,1.73-2.17.02l-.02-2.01v-2s2.12-.01,2.12-.01c-.49,1.04.12,2.88.06,4Z"/>
      <path class="cls-232" d="M252.45,134.04l-1.96-.04c-.38-1.11-.01-2.77-.02-3.94l2.17-.02-.18,4.01Z"/>
      <path class="cls-234" d="M250.48,118.01c-.92-.17-1.97-1.05-1.98-1.98l3.07-1.78c2.12-1.27-1.07,2.99-1.09,3.76Z"/>
      <path class="cls-245" d="M94.83,275.97c-4.62,5.37-7.11,11.65-10.41,17.93l-9.26-13.38c-1.64.2-3.19.22-4.11-.08.97-7.36,6.16-10.32,15.57-8.88-5.43-5.19,4.54-13.43,9.75-9.78,1.48-3.02,2.82-3.73,4.04-2.13l-1.37,3.37c-.06.1.47.88,2.25,1.67l-3.1.5c-.19-.19-.44-.3-.76-.32.52,1.24.92,3.39-.05,4l-3.3,2.1c-1.32.84,0,3.89.75,5Z"/>
      <g>
        <path class="cls-176" d="M114.16,258.13c-5.58,5.91-11.07,12.12-16.48,18.62l-2.85-.78c-9.95.85-2.96-8.48,2.6-11.1.68-.48,1.27-1.12,1.61-1.84-1.7-.25-1.25-1.37,1.37-3.37l-.31-2.6c4.67-4.78,9.53-9.27,14.58-13.47-2.9-2.9,3.02-8.1,6.17-5.25,5.7,4.33-6.43,10.99-6.69,19.79Z"/>
        <path class="cls-204" d="M120.61,236.21l.23,2.12-6.17,5.25c-1.79,3.95-3.22,4.59-4.28,1.9-5.47-1.22-5.01-4.04.44-5.08-2.3-2.65-1.27-3.73,1.9-2.16-2.49-2.99,2.23-7.94,5.49-6.23.07,1.78.79,3.37,2.38,4.21Z"/>
        <path class="cls-32" d="M100.41,259.66l-4.04,2.13c-3.56-.05-2.94-2.02,1.86-5.91-2.66-2.79-1.56-3.82,1.96-1.97-1.36-5.96,5.82-17.35,10.21-8.43,1.18-.03,3.38-1.14,4.28-1.9-2.81,12.91-8.67,10.82-14.28,16.08Z"/>
      </g>
      <path class="cls-8" d="M107.58,237.74c2.33-1.28,4.39.31,3.26,2.66l-.44,5.08c-2.02-.01-5.7-.3-7.3,1.99-1.04,1.5-1.05,4.57-2.91,6.44-2.34-.25-3.98-1.25-4.33-3.65,6.4-4.14,5.72-11.91,11.73-12.52Z"/>
      <path class="cls-131" d="M112.74,238.24l-1.9,2.16c-.7-1.28-1.87-2.21-3.26-2.66l.26-1.83c1.84-.17,3.85.54,4.91,2.33Z"/>
      <g>
        <path class="cls-27" d="M166.44,180.51c3.88-1.33,6.83-.47,8.85,2.6-1.05,6.38-1.55,12.48-1.5,18.3-5.38.02-9.49,1.33-12.33,3.93l-1.15,3.08-11.33.65c.73,6.68-2.47,12.88-6.78,16.78l-5.72.92c.52-.54,2.54-2.57,2.86-3.64.22-.73-.83-1.82-1.86-2.71l4.32-10.51c6.76-7.13,14.29-12.97,25.38-15.38-.34-3.19-2.85-1.98-3.65-2.09-1.43-.19-1.24-2.78-1.56-3.82.18-4.05-2.47-5.19-6.49-8.48l10.95.37Z"/>
        <polygon class="cls-222" points="165.46 188.04 166.46 189.04 165.46 190.2 164.46 189.04 165.46 188.04"/>
      </g>
      <path class="cls-108" d="M314.43,98.04l-3.98,2-.25-16.61c-3.43-1.84-5.02-9.25-1.94-11.48,1.18-.1,2.18-.94,2.45-2.13,6.78,2.23-1.67,11.81,3.72,28.22Z"/>
      <path class="cls-38" d="M306.45,68.03l1.81,3.92c1.88,4.06,1.89,7.42,1.94,11.48-.94.59-4.5.75-4.87-.31-1.11-6.26-1.87-12.34-4.25-17.37l-.47-1.8c-2.24-3.12-5.32-9.66-2.15-11.89v-2.01s8,17.99,8,17.99Z"/>
      <path class="cls-5" d="M298.43,46.04v4s.02,2.01.02,2.01l-3.96,1.96v2.45c-.55,1.76-1.24,1.74-2.05.04-3.86-1.26-3.82-5.42.1-12.49-.37-2.05-.77-4.38,1.23-6.2.83,4.34,2.35,6.46,4.66,8.22Z"/>
      <path class="cls-94" d="M282.45,25.8c.07.87.2,2.15-.05,3.19-.21.87-1.54,1.67-2.81,1.16-2.52-1-.73-3.25-1.46-4.08l4.32-.27Z"/>
      <path class="cls-12" d="M260.53,25.83c-.02,2.72.65,3.2,2.01,1.41,7.37.43,14.17,4.53,21.64,7.15,5.13,1.8,6.55,4.9,6.33,9.74,1.99,2.2,1.49,7.62-2.11,5.89-3.56.02-3.79-.66-.66-2.45-5.19,1.24-5.6-.51-1.32-3.63.92-4.1-2.66-5.38-10.72-3.84.43-3.84.15-3.94-.83-.31-.69,2.97-3.73,2.38-5.08.25-1.61-.91-1.45-1.6.38-2.08l-1.69-2.01c-2.1,5.16-4.19,3.39-6.07-.99-2.17,2.87-2.81,2.38-1.99-1.28-7.06.08-13.34-2.95-5.63-7.65.81-.21,1.12-1.06,1.01-1.77,1.88-.11,3.5.38,4.74,1.58Z"/>
      <path class="cls-198" d="M262.54,27.25c.09.74-.59,2.67-1.05,3.15-.38.41-1.46-2.2-2.04-2.35-1.45-.38-.99-2.78,1.07-2.21l2.01,1.41Z"/>
      <g>
        <path class="cls-177" d="M341.94,74.79c3.23.6,3.31,2.06.33,3.33,1.41,8.58-.11,18.46-4.97,26.28l.74,4.67c.21,1.29-2.75.07-3.64-.96-9.2-3.25-14.61,9.07-3.32,8.93-1.72,6.54-9.34,7.77-12.2,13.52-3.22.84-1.55-2.25-1.63-2.06-1.95,5.05-5.46,10.58-8.57,4.16-1.23-2.54-1.1-4.78,1.73-4.25.14-1.67.83-2.46,2.06-2.35l-.03-2.01c-.62-3.78-.97-9.17,2.03-12.01-3.15-1-3.01-9.55.24-10.58l4.39.34c0-8.08,2.46-11.26,7.39-9.55-2.2-10.82,2.49-22.94,8.08-32.58.83-.94,1.08-2.75,3.43-2.98,1.43,6.28,1.23,12.55,3.92,18.1Z"/>
        <g>
          <path class="cls-115" d="M334.41,108.12c-.56,3.86-2.62,6.24-3.32,8.93-2.76,1.11-3.69,4.42-8.16,4.38-1.79-3.21-2.68-9.13-1.53-12.06,3.09-4.51,8.42-6.31,14.21-9.54l-1.21,8.3Z"/>
          <path class="cls-212" d="M314.73,101.46l-.24,10.58c-.99,3.35-1.67,5.41-4.04,2v-8s-.08-3.97-.08-3.97l.08-2.03c.81-3.56,1.65-5.34,3.98-2,.32.98.32,2.39.3,3.42Z"/>
          <path class="cls-6" d="M312.46,124.05l.03,2.01-2.06,2.35.02-14.37,4.04-2c-.09,4.14.05,8.29-2.03,12.01Z"/>
          <circle class="cls-6" cx="321.44" cy="123.11" r="1.39"/>
          <path class="cls-118" d="M312.49,126.06l-.03-2.01c1.1.54,1.06,1.49.03,2.01Z"/>
        </g>
      </g>
      <path class="cls-225" d="M100.19,253.91l-1.96,1.97c-2.44,4.82-7.99,9.09-9.69,2.47.55-3.91,3.44-6.23,5.97-8.62.44.05.94.31,1.34.53,1.16-.57,3.44-.44,4.29.78.42.61.15,2.27.05,2.87Z"/>
      <g>
        <path class="cls-9" d="M88.46,247.98l2.68,1.67c-4.17,5.08-7.79,9.26-10.87,12.55-1.33,4.27-2.46,4.73-3.4,1.38-.91,1.35-.63,2.28.86,2.77,3.07,5.16-2.74,8.59-7.22,9.58-2.55,3.8-4.43,4.99-6.04.15l-2.6,2c.28,6.12-5.11,7.89-7.54,1.76-.33,5.9-4.16,5.28-5.61.04-5.2-4.05-1.88-6.59,3.67-7.63,1.31-.96,3.04-2.09,4.77-2.3.22,2.4.15,4.41,1.96,4.71,2.84.46,5.18.14,7.65-.46-1.93-1.76-1.57-5.54-.11-8.16.6-.48,1.46-1.15,1.81-1.86,5.48-2.2,8.65-7.5,11.98-12.15l2.08-1.99c1.64-1.13,4.04-3.45,6.26-3.45-.23.27-.39.89-.33,1.36Z"/>
        <g>
          <path class="cls-200" d="M70.78,259.59l-2.31,4.61c3,2.7,1.82,3.89-1.81,1.86l.11,8.16c-5.54,4.53-17.55,3.99-9.61-4.25-3.8.81-3.98-.72-.27-2.29,2.04-.46,3.88-2.31,5.56-3.45,2.66-1.81,5.25-3.66,8.33-4.63Z"/>
          <path class="cls-181" d="M80.45,252.06c.54-.75,1.31-1.46,2.08-1.99l-2.08,1.99Z"/>
          <path class="cls-181" d="M66.77,274.22c-1.81-.97-4.48-2.8-3.56-4.27,1.11-1.76,2.24-2.91,3.46-3.89,1.02,2.14,2.96,7.47.11,8.16Z"/>
          <path class="cls-42" d="M94.51,249.73c3.25,3.84-2.1,7.44-5.97,8.62,1.96,5.82-3.8,7.94-8.27,3.85-.08-1.25-2.16-2.81-.76-4.34,3.53-3.88,9.75-3.74,8.95-9.88,1.88.97,3.93,1.53,6.05,1.76Z"/>
          <path class="cls-213" d="M70.51,275.93c1.36,2-.36,5.02-2.23,6.35-4.1-.11-7.53,3.06-8.22,7.21-2.14.11-3.97-.65-5.89-1.43l.16-8.22c2.61-.02,5.45-.15,7.54-1.76l2.6-2,6.04-.15Z"/>
          <path class="cls-236" d="M86.62,271.57c-3.54,6.2-9.77.21-15.57,8.88.79,2.29-1.38,4.26-2.76,1.84.11-2.43,1.35-4.32,2.23-6.35,1.64-3.76,3.98-6.98,7.22-9.58-1.9-.31-2.19-1.46-.86-2.77l3.4-1.38c3.15,1.57,5.26,4.7,6.35,9.37Z"/>
          <path class="cls-109" d="M77.73,266.36c-2.66,1.27-4.48-2.44-.86-2.77l.86,2.77Z"/>
          <polygon class="cls-181" points="71.46 268.04 72.54 269.04 71.46 270.04 70.46 269.04 71.46 268.04"/>
          <path class="cls-236" d="M61.87,278.09l2.6-2-2.6,2Z"/>
        </g>
      </g>
      <path class="cls-220" d="M46.84,285.76c-3.74,2.8-3.29,7.87-8.09,9.77-.29-.92-.78-2.11-.61-2.84l2.57-10.43c.19-.79,1.28-1.83,1.76-2.59l1.97-.06c1.23,1.82,1.82,4.13,2.4,6.15Z"/>
      <path class="cls-86" d="M205.37,166.32l3.28-.32c1.87,2.34,3.01,5.07,3.75,8.06-1.32,3.99-2.64-1.61-7.28-3.23-1.89-.66-4.74.65-3.85,3.38l.94,2.87c.31.94-2.06,3.17-3.6,2.14-1.75-1.17-3.61-6.36-5.27-6.22-3.05,1.48-4.73,1.54-6.64,1.41l4.2-4.3c-3.54-7.74,11.5-12.08,14.48-3.79Z"/>
      <path class="cls-186" d="M228.81,152.18c-.05,1.51.13,4.59-.68,5.9-4.36,4.55-7.64,11.54-13,14.67l-.46-2.54,1.81-6.2c-.29-2.06-.56-5.84,1.08-6.95l11.26-4.87Z"/>
      <g>
        <path class="cls-192" d="M186.47,128.01c3.38-1.22,4.04-.54,1.97,2.04,3.12,1.9,3.84,3.2,2.17,3.91l-1.66,1.88c6.95,7.49,11.73,25.19-2.35,22.13-1.39.06-1.75-.6-1.15-1.9l-1,.99c1.22.34,1.2.68-.04,1.03,7.42.45,5.52,11.02-1.61,8.04l-2.47.09c-.26,1.74-.56,1.75-.92.03l-3.11-.39-1.91-2.2c-1.41.33-2.38,2.05-2.52,3.38-3.63,4.31-5.61,1.95-3.17-2.87.22-.47.03-1.49-.03-2.02.33-2.51,2.24-4.4,5.75-5.68-2.19-5.03,3.5-7.23,8.1-6.11,4.24-6.9-2.95-14.83-10.29-17.31,3.99-2.14,6.32-3.83,6.34-6.85,3.06-3.92,8.09-6.1,7.91,1.81Z"/>
        <g>
          <path class="cls-146" d="M182.51,150.35c-2,.72-4.51,1.04-6.03,2.9,5.34,2.56,1.42,5.32.25,6.53-2.04,2.1-5.66,2.74-8.06,2.37l-.18-1.78,1.88-9.31c2.91-.11,5.77-1.06,8.13-3.04,1.74-2.36,3.08-1.58,4.02,2.33Z"/>
          <path class="cls-169" d="M186.47,128.01c-.95-.98-1.53-3.25-3.18-3.62-.64,1.1-1.51,2.15-2.02,2.38-.95.45-2.05-.17-2.72-.58.02-2.59,1.73-4.87,3.83-6.1.53.18,1.59.04,2.13-.04,4.33-1.48,8.6,12.13,1.96,7.95Z"/>
          <path class="cls-54" d="M190.61,133.96c3.13,5.64,5.57,11.94,8.04,18.04,1.85,4.56,3.36,10.71,8.66,11.55.09.82.8,1.79,1.33,2.44-.72,1.41-1.92,1.13-3.28.32-4.37-2.79-10.95.59-14.48,3.79l-8.1,1.33c-1.89.31-3.83-1.14-4.17-2.35-.2-.72.44-2.26.79-2.85l.92-.03,2.47-.09c2.57-1.79,2.43-5.29,1.61-8.04.57-1.46,1.3-1.47,2.19-.12,2.23-2.33,6.97-5.82,7-10.03.05-5.35-6.61-9.41-8.12-13.07-.72-2.16,4.41-2.83,5.12-.91Z"/>
          <path class="cls-146" d="M186.6,157.97l-2.19.12c-.11-.38,0-.78.04-1.03-.18-.24-.53-.75-2.03-1.83,1.18,1.67,2.8.06,1.23-1.09l1.81,1.94,1.15,1.9Z"/>
          <circle class="cls-146" cx="180.46" cy="160.04" r="1.72"/>
          <path class="cls-54" d="M176.29,165.85c-.98-.12-1.73-1.16-1.91-2.2,1.51-.35,2.2,1.09,1.91,2.2Z"/>
          <path class="cls-146" d="M182.8,166.12l-2.47.09c.62-.87,1.71-1.04,2.47-.09Z"/>
        </g>
      </g>
      <path class="cls-67" d="M80.68,308.19c-3.01-.32-1.42-6-4.09-5.54-.67.12-1.64,1.09-2.14,1.37-1.12.32-2.08-.63-1.73-1.81,2.83-1.77,2.32-5.97,9.22-7.07l-1.26,13.05Z"/>
      <path class="cls-193" d="M212.05,105.72c-.04,2.82,1.64,4.68.64,9.34-2.98-3.87-5-5.39-8.15-4.89l-2.13-4.2c1.5.98,4.64.15,3.28-2.5,5.11-2.05,7.23-1.3,6.36,2.25Z"/>
      <path class="cls-18" d="M215.66,90.83l1.12,3.83c3.97,3.58,2.72,4.96-2.31,3.27-2.53-3.4-8.72-1.53-12.81-5.93l14-1.17Z"/>
      <path class="cls-155" d="M218.44,78c3.53.82,5.39,1.5,2.01,4.04-1.78,2.44-3.77,3.77-5.99,3.99l-2.05-1.92c.67-3.22,2.62-6.08,6.03-6.11Z"/>
      <path class="cls-224" d="M236.8,89.51c1.3.49,2.32,3.55,1.55,4.47-3.52,2.72-9.7,1.4-7.59-3.32-2.59-.1-2.93-1.17-.64-2.63,1.6.82,3.16,1.41,5.04,3.98,1.11-.28,1.81-1.52,1.63-2.5Z"/>
      <path class="cls-224" d="M236.47,86.06c-1-.02-1.85-1.1-1.87-2.17.7.5,1.79,1.32,1.87,2.17Z"/>
      <path class="cls-36" d="M253.89,49.68l.55,2.38c-.88,1.01-2.11,1.93-2.97,1.92-.58,0-1.72-1.54-2.15-1.9-1.32-1.1,0-2.91,1.71-2.21.56.23,1.92.01,2.86-.18Z"/>
      <path class="cls-89" d="M230.53,82.27c1.52.99,1.26,2.91-.42,3.77v2s.65,2.63.65,2.63c.06,4.24-4.04,4.07-4.05-.28-1.81-.36-1.89-1.07-.29-2.11-.45-3.26-2.63-5.9-5.97-6.24l-2.01-4.04,4.77-.03c2.36-.02,4.4-.27,7.07-2.37l.26,6.67Z"/>
      <path class="cls-224" d="M230.11,86.04l.42-3.77c3.18.36,2.69,4.15-.42,3.77Z"/>
      <path class="cls-93" d="M288.17,123.95l-3.72,3.51c-1.18,1.04-2.75-1.92-3.67-4.69,2.48-1.4,5.03.33,7.39,1.18Z"/>
      <path class="cls-93" d="M300.19,100.08l2.22,20.85c-.51-1.39-1.47-5.6-4.83-4.95-1.06,1.55.93,5.31-.3,6.54-1.91,1.92-6.91,1.62-9.11,1.43.58-1.57,2.05-1.87,2.77-2.39,1.09-.8.06-4.14-.17-5.42,1.4-2.75,4.47-3.49,7.48-4.26-1.47-4.27-.91-7.21-.83-10.41l2.78-1.38Z"/>
      <path class="cls-194" d="M298.45,52.06l2.15,11.89c-4.71-1.71-4-6.72-6.12-9.92,0-2.06-.55-4.39,1.05-6.11,1.14,2.58,1.85,3.41,2.91,4.15Z"/>
      <path class="cls-118" d="M304.47,104.03c-1.26-1.85-1.6-3.87-1.91-6.02,1.05.36,2.14.94,3.04,2.03,1.09,1.32.61,3.23-1.13,3.99Z"/>
      <path class="cls-118" d="M310.37,102.07c-.63-.7-.61-1.37.08-2.03l-.08,2.03Z"/>
      <g>
        <path class="cls-35" d="M244.75,107.28c2.94,5.84,4.04,11.25,3.31,16.23-.22,1.33-1.46,4.12-2.69,3.9l-5.18-.96c2.02,2.83,2.85,6.78,1.13,7.91-1.57,1.04-5.97-.48-7.31.31-3.8-.23-5.62-1.72-5.47-4.47-.79,2.92-3.58,3.04-3.97-.25-4.05,2.2-11.83-12.72-11.88-13.71-.02-.39,1.56-6.92,1.74-7.27,1.51-3.09,22.28-12.65,26.59-10.58l3.71,8.9Z"/>
        <g>
          <path class="cls-71" d="M241.04,98.38c-1.3,2.39-3.21,2.52-6.02,2.88-8.05,1.03-14.77,6.49-19.92,11.81.95,3.13.81,5.13,2.62,7.16,1.06-3.88,3-5.76,4.81-5.64,3.45.22,5.67,2.74,9.28,6.47l-13.66-.81c.53,4.12,3.78,5.52,8.23,6.05l-1.8,3.66c.18,2.68,1.5,2.77,3.97.25.48.35,1.31.75,1.85.72.92-.06,2.02-.66,2.87-2.56.5-.29,3.03,1.76,2.9,2.69s-1.61,2.64-2.16,3.62c-4.08,2.53-12.93,4.66-17.08,1.03-2.41,2.91-3.41,1.94-2.47-1.7-1.42-3.89-2.09-8.45-2.01-13.68-1.46-.03-2.96-1.42-4.5-4.18l-3.42-5.98c1.41-2.08,3.91-3.56,7.51-4.45.93-3.99,3.92-5.47,8.99-4.45l-.3-2.74c2.67-.06,5.37-.25,8.11-.59-1.8-.2-1.82-.82-.2-1.81,2.32-1.4,5.55-2.12,9.69-2.14l2.03.13c.11,1.33.15,3.03.67,4.26Z"/>
          <path class="cls-232" d="M246.45,110.04l2.01,2,.04,3.99c1.79-.81,2.57.18,1.98,1.98l-.03,2.03c3.12.12,2.23,4.39,0,6,1.28.59,1.25,1.26,0,2-1.89-.74-2.35-2.68-2.39-4.53-.09-4.62-1.29-8.99-7.64-10.42,2.07-.99,5.16-3.8,4.33-5.81.62,0,1.14.04,1.51-.08l.19,2.84Z"/>
          <path class="cls-234" d="M248.46,112.04c-.91-.4-1.61-1.1-2.01-2,.97.29,1.69,1.04,2.01,2Z"/>
          <path class="cls-135" d="M239.96,115.01c.72-.28-1.58,3.17-2.48,2.75-1.34-.64-2.64-1.77-5.86-1.82-1.33-.14-.87-2.75.89-3.09,1.63-.32,2.92.25,7.45,2.16Z"/>
          <path class="cls-83" d="M228.56,130.2c-.11,1.33-.49,3.31-1.11,4.02s-4.2.04-4.67-1.04c-.37-.85,1.4-2.39,1.81-3.23l3.97.25Z"/>
        </g>
      </g>
      <path class="cls-167" d="M230.76,90.67c2.14,1.27,5,4.94,7.59,3.32-2.17,3.16-6.33,3.95-9.69,2.14-3.28.32-3.22.93.2,1.81-.39,4.76-5.97,2.03-7.81,3.33-5.24,3.48-11.1,2.9-6.56-3.34l2.31-3.27,3.67-.56c.58-2.58,3.9-3.7,6.25-3.71.96.74,2.99.39,4.05.28Z"/>
      <path class="cls-31" d="M221.04,101.27c-2.54,1.78-5.43,5.09-8.99,4.45-1.52-.27-3.54-2.02-6.36-2.25l6.8-3.98,1.98-1.56,2.4,3.3c.68.92,2.71.84,4.16.04Z"/>
      <path class="cls-171" d="M228.65,96.13l.2,1.81-3.18-.29c-1.84-.17-.91-1.66-.13-1.64l3.11.11Z"/>
      <path class="cls-244" d="M256.47,84.04c-.16-.6-.06-1.38-.02-2h2c.19,1.39-.72,2.11-1.98,2Z"/>
      <path class="cls-44" d="M98.23,255.88l-1.86,5.91c-3.99,2.11-7.49,5.81-9.75,9.78-2.66.1-4.89-1.27-6.7-3.55-1.27-1.61.46-4.2.36-5.81,2.84-1.08,6.23-2.75,8.27-3.85,3.41.6,6.83.4,9.69-2.47Z"/>
      <path class="cls-70" d="M286.42,43.94c-2.01.99-6,2.05-11.97,3.17-5.72,4.02-13.69,3.51-20.11.89-.07-2.51,1.64-4.26,2.44-6.19l3.66,2.12c.39-2.64,1.5-2.45,2.04.1,1.33.74,2.81,1.32,4.56.92,1.08-.25,2.11-2.08,2.77-3.03l5.07-2.13c-3.54-1.7-2.13-5.45,1.3-3.64,3.49-.47,7.39.81,9.81,2.54,1.37.98,3.48,2.86.45,5.24Z"/>
      <path class="cls-107" d="M286.42,43.94l1.32,3.63-6.82,1.91c-1.51,2.73-4.85,3.09-6.28.33l-.2-2.71,9.27-6.51c1.53.36,2.55,2.72,2.7,3.34Z"/>
      <path class="cls-141" d="M274.86,39.8c.02,1.46-.38,3.63-1.35,4.06-.85.37-3.12-1.78-3.72-1.93v-1.88s5.07-.25,5.07-.25Z"/>
      <g>
        <path class="cls-177" d="M192.32,83.95c1.39.59,1.39,1.3.06,2.13l2.01,1.97c3.81-.85,4.1,2.97,1.99,6.01,2.23-1.24,4.08,1.44,5.56,8.05,4.13-1.22,3.41.6.46,3.85,5-.9,5.71.75,2.13,4.2,2.92,1.12,5.96,3.59,3.42,5.98,1.79,1.77,4.01,3.96,2.24,6.02,4.66-1.04,3,8.46,2.16,11.89,4.48,3.82,3.26,12.26,2.23,18,3.9-.6,3.87,3.39-.09,11.98,2,.57.97,4.13.16,6.17,2.79-.37,2.2.44.46,2.54-.66.24-2.52.65-2.74,1.31-3.62-2.16-5.44-4.3-3.75-8.06-2.81-.37-3.25-1.18-1.33-2.44-2.15-1.44-3.04-2.63-.37-3.53l-1.29-11.77c-.58-13.83-3.77-27.6-9.56-41.3-3.01.25-3.57-.89-1.64-3.25,1.48-1.8,3.33,4.59-1.94,2.63l-2.95-24.13c2.62-2.86,3.99-1.89,2.76,1.76Z"/>
        <g>
          <path class="cls-153" d="M205.65,148.25l-11.02-36.26c1.23-1.53,1-2.75-.26-4.27-1.83-.03-2.35,2.77-2.87,3.83-.96-.2-3.05-3.32-2.7-4.28s3.06-.97,3.72-.94c.78-.81,1.38-2.09,2.67-4.92,5.7,9.26,7.63,20.14,11.76,30.74,2.51,6.45,4.06,10.03-1.3,16.11Z"/>
          <path class="cls-173" d="M214.47,134.01c-.56,1.76-1.26,1.75-2.11.05l-2.16-11.89c-.61-3.54-.6-4.27,2.27-1.84,6.56-.56,1.19,3.97,2.01,13.68Z"/>
          <path class="cls-202" d="M216.94,135.71c-.56,5.68.82,11.98-2.35,16.35.05-6.19-1.12-11.93-2.23-18l2.11-.05c.27,1.1,1.91,1.25,2.47,1.7Z"/>
          <path class="cls-241" d="M196.4,94.07l-1.99-6.01-2.01-1.97-.06-2.13c3.07,1.02,5.73,2.98,8.14,5.13-1.69,2.77-2.58,3.91-4.07,4.98Z"/>
          <path class="cls-78" d="M212.47,120.33l-2.27,1.84-2.24-6.02c2.24.65,3.63,2.43,4.5,4.18Z"/>
          <path class="cls-222" d="M214.67,170.21l-.16-6.17,1.97-.03c.32,2.26.01,4.79-1.81,6.2Z"/>
          <polygon class="cls-153" points="209.45 146.06 209.49 147.36 209.49 148.72 209.45 150.02 209.42 148.72 209.42 147.36 209.45 146.06"/>
          <path class="cls-20" d="M194.4,88.05c-.9-.26-1.93-.98-2.01-1.97.74.3,1.76,1.2,2.01,1.97Z"/>
          <path class="cls-175" d="M205.37,166.32c.73-.25,2.49-.62,3.28-.32.44.54-.04,2.1-1.2,2.04s-1.71-1.03-2.08-1.72Z"/>
        </g>
      </g>
      <g>
        <path class="cls-208" d="M226.41,88.28c-1.28,2.06-3.56,4.46-5.95,5.82.63,4.86-1.6,5.06-3.67.56-5.27.88-5.57-.94-1.12-3.83,1.16-.1,2.46-1.74,2.74-2.8-2.51-1.78-2.12-3.9,1.05-3.99.11-.43.48-.84,1.01-1.02-1.92-.22-1.91-.55,0-.99,4.61-5.3,10.61.87,5.97,6.24Z"/>
        <path class="cls-85" d="M220.44,82.04c-.19.38-.17.81,0,.99l1.89,1.82c-1.09-1.6-2.69,0-1.08,1.08l-1.82-1.89-1.05,3.99-3.94-2c.71-2.77,3.12-4.55,5.99-3.99Z"/>
        <path class="cls-45" d="M226.41,88.28l.29,2.11c-.31.92-.97,2.71-1.94,3.16-1.22.58-3.17.36-4.31.55-.2-1.9.38-3.98,1.93-5.09,1.13-.81,2.75-.95,4.03-.73Z"/>
      </g>
      <g>
        <path class="cls-46" d="M274.44,47.11c3.84-.18,3.9,1.3.2,2.71-1.08,2.7-.17,3.18,2.73,1.46l2.07,1.64,2.4-1.87c-1.72.55-1.99,0-.91-1.56-1.8-4.57,4.63-6.83,6.82-1.91l.66,2.45c-2.98-.7-3.91,1.72-.64,3-.99,1.62-2.7,2.52-5.11,4.04,3.1,1.71,6.81.87,9.78-.55l2.04-.04c0,4.29-.08,8.89.53,13.11l-1.21,8.02c-3.94-1.28-7.59-.96-9.58,1.01-3.99,3.95-2.76,6.3-.58,9.67-4.04,3.52-9.38,4.79-11.04,9.41-1.9-1.37-3.73-1.04-4.05-.2-.35.93.4,3.63.49,4.5-1.12,1.03-2.1,1.32-3.09.06l.4-6.2c-1.73-.37-2.39-1.02-1.98-1.95l.06-1.73c-.53-.62-.43-1.31.31-2.08.25-.71.25-1.95-.39-2.77-.73-.93-2.52-1.14-3.73-.64l-.17-2.63,4.68.22c.74-.11,1.32-.72,1.41-1.31.15-1.05,1.85-2.39,2.67-1.87.63.4,1.5,1.43,2.26,3.74l2.76-6.32c-3.07.4-5.17-1.25-4.76-2.28.31-.77,2.61-2.79,2.61-3.44-2.11-1.64-5.62-2.63-7.37-2.55-4.47-2.35-3.57-6.17,2.69-11.45-1.79,2.06-2.1,1.09-.9-2.91-2.77,1.98-5.73,4.05-6.06-.15-2.36-.06-4.48-1.81-6.01-3.67-3.34,1-3.76-.54-.55-2.38.18-.43.5-1.25.45-1.67,2.35-1.98,6.08-2.14,11.21-.47,4.07-2.06,7.04-2.2,8.9-.42Z"/>
        <g>
          <path class="cls-107" d="M292.43,56.51c-.29,10.21-17.76,6.13-8.81-5.26,1.68-2.14,2.73-3.27,4.78-1.22,2.56-1.14,2.01-3.79,2.11-5.89l2.03-.12-.1,12.49Z"/>
          <path class="cls-161" d="M264.43,92.17c-2.84-.05-1.86-2.87.31-2.08,1.6.42,1.25,1.95-.31,2.08Z"/>
          <path class="cls-161" d="M266.35,95.84l-2.81.19c-1.34.09-1.45-2.68.83-2.14.99-.08,2.04.99,1.98,1.95Z"/>
          <path class="cls-15" d="M280.92,49.48l.91,1.56-.39.31c-.2-.21-2.83,1.41-.17,3.4-.91-1.37-1.66-1.91-1.84-1.83-1.59,1.25-3.79,2.09-5.97,1.63-1.43-.3-2.81-1.91-2.72-4.11,1.64-.6,2.89-.6,3.89-.62,1.8-2.03,4.71.13,6.28-.33Z"/>
          <polygon class="cls-15" points="273.45 55.52 274.45 57.04 273.45 58.04 272.45 57.04 273.45 55.52"/>
        </g>
      </g>
      <g>
        <path class="cls-110" d="M298.54,94.01l1.89,4.03-.25,2.05c-.24,3.35-.4,4.04-2.78,1.38.11-4.48-3.87-6.84-8-7.37-9.07-1.17-17.23,7.37-16.77,8.85.51,1.69,4.02,3.04,7.05,3.19-1.41,6.04-8.26,5.52-12.76,8.74l-.44-9.08-.02-1.65c-.09-1.03.76-1.75,2.57-2.16-3.1-1.75-2.86-9.28,1.87-9.22,5.32-3.2,8.4-8.4,9.24-15.61,4.84-3.13,9.79-5.66,14.86-7.58l3.53,24.43Z"/>
        <g>
          <path class="cls-93" d="M300.43,98.04c-1.98-.65-1.65-2.35-1.89-4.03,1.58.56,2.09,2.37,1.89,4.03Z"/>
          <path class="cls-99" d="M266.47,104.14l-.52-2.1,3.09-.06c-.06.83-1.72,2-2.57,2.16Z"/>
          <polygon class="cls-97" points="269.45 104.04 270.45 105.04 269.45 106.04 268.42 105.04 269.45 104.04"/>
          <rect class="cls-97" x="270.74" y="108.33" width="1.41" height="1.41" transform="translate(2.4 223.88) rotate(-45)"/>
          <rect class="cls-161" x="268.74" y="92.34" width="1.41" height="1.41" transform="translate(13.13 217.78) rotate(-45)"/>
        </g>
      </g>
      <g>
        <path class="cls-182" d="M268.47,35.95l1.69,2.01-.38,2.08c1.77.4,1.72,1.03.01,1.88,5.49,5.13-8.22,8.9-7.33,2.11-1.75-.55-1.46-4.59-.01-5.99-.8-1.11-1.47-1.11-2,0,1.72.56,1.45,4.56-.02,5.89-1.56,4.18-5.19,1.94-3.66-2.12-3.23-1.5-5.91-3.47-8.04-5.9-1.87-1.64-4.22-4.28-8.69-2.36-.31-1.35-.19-2.41-.18-3.69l14.92-3.84c-.53,1.9.07,4.21,2.67,5.3l11.03,4.63Z"/>
        <g>
          <path class="cls-2" d="M256.77,41.81c3.49,4.23,2.96,5.89-2.44,6.19-4.99-2.04-6.93-6.65-5.6-12.09l11.68-1.33c-2.45,2.21-2.65,4.84-3.65,7.23Z"/>
          <path class="cls-141" d="M270.17,37.96l-1.69-2.01c.89.37,1.88.97,1.69,2.01Z"/>
          <path class="cls-52" d="M262.46,44.04c-.47,1.11-1.67,1.06-2.04-.1l.02-5.89c.59-1.23,1.26-1.2,2,0v5.99Z"/>
          <polygon class="cls-112" points="265.45 35.72 265.48 37.14 265.48 38.62 265.45 40.04 265.42 38.62 265.42 37.14 265.45 35.72"/>
          <path class="cls-1" d="M262.45,38.04h-2c-.62-2.22,2.27-3.07,2,0Z"/>
        </g>
      </g>
      <g>
        <path class="cls-53" d="M264.72,70.24c-.87.04-2.41,1.86-2.52,2.73-.22,1.76-3.34,2.02-3.08-.23s1.27-4.86.59-6.02c-.58-.99-4.75-.68-5.34-.5.19-1.75.79-3.35,1.85-4.69l2.16.38c.81,1.28,1.46,1.26,1.98-.04-.32-3.39,2.92-5.13,6.15-5.99,1.25.03,3.78,2.3,3.38,3.56-2.75,3.5-5.27,6.76-5.17,10.8Z"/>
        <path class="cls-64" d="M266.51,55.87c-1.14,2.62-3.86,4.12-6.15,5.99-.63,1.42-1.29,1.44-1.98.04-.21-1.62,1.15-2.65,1.79-3.6.35-.52.3-1.96.29-2.58l6.06.15Z"/>
        <path class="cls-161" d="M258.38,61.9c.42.22,1.56.3,1.98-.04.28,3.08-2.37,2.52-1.98.04Z"/>
        <rect class="cls-64" x="262.74" y="62.34" width="1.41" height="1.41" transform="translate(32.58 204.75) rotate(-45)"/>
      </g>
    </g>
  </g>
</svg>