<svg xmlns="http://www.w3.org/2000/svg" id="Layer_1" data-name="Layer 1" viewBox="0 0 100 100"><defs><style>.cls-2{fill:#39312d}.cls-16{fill:#423a38}.cls-20{fill:#4d4744}.cls-26{fill:#423c38}.cls-30{fill:#736a62}.cls-33{fill:#857e7a}.cls-38{fill:#504a46}.cls-40{fill:#48403c}.cls-41{fill:#302c2a}.cls-43{fill:#c5b9b0}.cls-46{fill:#534a44}.cls-52{fill:#433b36}.cls-53{fill:#443f3a}.cls-56{fill:#463d39}.cls-58{fill:#605b58}.cls-63{fill:#342f2c}.cls-66{fill:#f0eeed}.cls-68{fill:#524c49}.cls-73{fill:#7b7572}.cls-75{fill:#3b3632}.cls-86{fill:#5f5855}.cls-92{fill:#72675f}.cls-93{fill:#817b77}.cls-95{fill:#55504d}.cls-96{fill:#7d7773}.cls-97{fill:#aca39a}.cls-98{fill:#4e4744}.cls-104{fill:#292724}.cls-110{fill:#36322e}.cls-116{fill:#665e5a}.cls-122{fill:#6f6966}.cls-123{fill:#706966}.cls-124{fill:#3d3935}.cls-128{fill:#c0bbb7}.cls-131{fill:#77726e}.cls-132{fill:#2b2725}.cls-140{fill:#474340}.cls-142{fill:#443d3a}.cls-143{fill:#726e69}.cls-145{fill:#64605d}.cls-147{fill:#48423e}.cls-150{fill:#5f5650}.cls-158{fill:#5c5551}.cls-162{fill:#3b3430}.cls-165{fill:#2e2926}.cls-167{fill:#ada8a4}.cls-169{fill:#948f8b}.cls-170{fill:#5d5855}.cls-171{fill:#8c8680}.cls-175{fill:#45403c}.cls-177{fill:#5f5852}.cls-190{fill:#4c4542}.cls-191{fill:#423e3b}.cls-196{fill:#332e2b}.cls-200{fill:#5b4f4a}.cls-207{fill:#97908c}.cls-210{fill:#605a57}.cls-214{fill:#3a3531}.cls-216{fill:#aa9f96}.cls-220{fill:#342f2b}.cls-224{fill:#5c5652}.cls-225{fill:#6c655f}.cls-226{fill:#474441}.cls-228{fill:#645d5a}.cls-229{fill:#5a5552}.cls-231{fill:#49423e}.cls-232{fill:#3b3733}.cls-235{fill:#746e6a}.cls-239{fill:#6b6764}.cls-241{fill:#948c89}.cls-245{fill:#474442}.cls-249{fill:#5f5a57}.cls-253{fill:#38312f}.cls-254{fill:#4d4644}.cls-262{fill:#35312f}.cls-265{fill:#615a57}.cls-269{fill:#362e2b}.cls-271{fill:#494340}.cls-274{fill:#a69d97}.cls-279{fill:#5c524b}.cls-283{fill:#504a47}.cls-285{fill:#7f7772}.cls-286{fill:#514a44}.cls-288{fill:#38302b}.cls-291{fill:#544e4a}.cls-293{fill:#6f635c}.cls-300{fill:#46413e}.cls-304{fill:#322d2a}.cls-307{fill:#6d6865}.cls-312{fill:#4b4542}.cls-320{fill:#655e5a}.cls-322{fill:#544a44}.cls-325{fill:#4c4644}.cls-327{fill:#3a3633}.cls-328{fill:#5e5650}.cls-329{fill:#655b54}.cls-333{fill:#665d56}.cls-342{fill:#797370}.cls-343{fill:#d4d0cd}.cls-348{fill:#403b37}.cls-350{fill:#625851}.cls-358{fill:#59514e}.cls-364{fill:#423d39}.cls-367{fill:#2f2a28}.cls-370{fill:#564f49}</style></defs><path d="M69.67 51.58c-.31.61-.97.51-1.54.51-4.05.44-8.73.38-12.83 0-.54.51-2.51.46-2.05-.51z" class="cls-262"/><path d="M97.89 49.43c.18.28 0 .49-.54.61-.23.36-.41.33-.51-.08-1.97-.54-3.69-.28-5.15.74l-.49-.2c-.28.26-.72.36-1.02.51 2.13-3.36 4.05-2.59 7.73-1.61h-.03v.03Z" style="fill:#585451"/><path d="M53.28 51.58c.46.74 1.36.51 2.05.51.46.13.46.31 0 .51-.49.44-1.92.33-2.56 0-.9-.15-1.74-.33-2.54-.51.77-.82 2.02-.51 3.05-.51" style="fill:#5b5654"/><path d="M99.94 50.58h-.56c-.15.28-.33.28-.51 0l-1.51-.49.54-.61c.74.2 1.84.1 2.05 1.13v-.03Z" style="fill:#44403f"/><path d="M84.55 53.14c-.72.1-1.64.13-2.05-.54.74 0 1.51 0 2.05.54" class="cls-122"/><path d="M34.86 13.7c-.03-.33.15-.59.49-.54-.05.28-.26.41-.49.54" class="cls-171"/><path d="M20.01 4.46c-.23 0-.46-.28-.54-.44.26.05.46.15.54.44" class="cls-147"/><path d="M13.35 84.87v-1.02c0-.26.26-.46.51-.51 0 .56.05 1.25-.51 1.54" class="cls-46"/><path d="M35.4 18.36c-.15-.18.15-.74.46-.64 0 .28-.18.54-.46.64" class="cls-285"/><path d="m35.35 23.43-1.02-.05c.05-.61.18-1.18.92-1.59l.1 1.61z" style="fill:#504a45"/><path d="M27.21 11.65c.9.18.95.61 0 .92.38.69 1.08 1.1 2.05 1.2-1.84 1.2-1.69 2.36.46 3.46l-1.59.56c.13 1.13 0 1.82-.49 2.02.82.31 1 .95 0 1.05.72.33.72 1.15 0 1.51 1.54.2 1.46.92-.23 2.15q-.12 1.23.69 2.46c-.15 1.36-.61 1.31-1 0l-.44 1.61c.44.13.41.26-.05.41l1.9 1.31c-1.82.97-2.3 1.49-1.46 1.51l.56 1.41c.13-1.79 1.95.05 1 1.02-.1.46-.28.44-.49 0-.69.15-.85.33-.44.54.23.44.18.9-.18 1.38.87.69.67 1.18-.44 1.18-.18.64-.85.38-1.13-.18-1.33.31-.9 1.13-.33 2.15.08-.49.28-.72.61-.51 2.38 1.36 1.51 2.28-.69 1.43.31 1.02-.44.64-1.08.08-.95 0-.85.46.33 1.33.95.36 1.33.79 1.18 1.31-1.08.56-1.41 1.33-1.05 2.25l-.85.1c-.1.46-.26.44-.49 0-1.02.08-1.72.44-2.02 1.02l-1.28-.26c-.85-.23-1.72.28-2.05 1.31l-1.87 5.76c-.23.59-.51.61-.64-.03l-.64-.33 1.25-3.28-.61-1c.41-1.38 2.71-5.86 4.23-5.61.18-1.74 1.54-4.3 2.74-5.43l-.79-.87c.15-1.38 1.64-6.17 3.15-6.12v-.33l.51-1.15c-1.36-.1-1.28-.59 0-.95l.44-1.61c-1.46.05-1.36-1.15.05-1.46l.44-2.64c-1.49 0-1.36-1.15 0-1.49.46-1.15.44-2.41.05-3.59-.74-1.51-.79-2.51-.08-3l-.46-2.1c-.46-.08-.44-.23 0-.44-.28-.51-.28-.9.05-1.13.38-.44 1.18.46 1.08 1.05l.08-.03Z" style="fill:#282421"/><path d="M34.35 30.58c.46 1.18-.51 2.54-.64 3.64s-.18 1.64-1.1 2.36l-.28 2.1c-.46.49-1.18.51-2.15.05-.51.56-1.13.74-1.9.59-.85.69-2.33-.56-2.74-1.56-.77-.77-.46-1.02.51-.56.28 0 .87 0 1.13.18.61-.31 1.49-.51 2.56-.61 1.25-.2.54-.13-.49.03-.69.67-1.66.49-1.64-.56-.18 0-1-.44-.92-.72.1-.28.87-.54 1.1-.69-.77-.56-.49-.64.44-.54.15.05.33 0 .49 0 .31.18.28.33-.08.46 1.66.61 2.87.28 3.64-1-.69-.74-1.08-.23-1.54.44-.18.31-.36.31-.56 0-.08.46-.23.44-.44 0-.79.23-2.28-2.36-.49-2.07.08-.38.67-.31.97 0 .41.1.77.28 1.02.54.85-.28 1.02-.46.54-.51-.49-1.13 1.51-2.54 2.56-1.54Z" class="cls-225"/><path d="M26.08 42.92c.92-1.87 3.18-.74 2.07.97-.95.67-1.1 1.1-.49 1.31l-.46-.49c.28.41.69 0 .28-.28l.46.49c-.51-.72.18-.85.87-.51.56.74-.28 1.38-.59 1.84-.56.85-1.72.41-2.25.61-1.13.59-1.77.79-3.12.23l-2.48-1.05c.41-.1.74-.15 1.05-.36-.56-.33-1.05-.56-1.1-1.64 1.23.03 2.46.59 3.36 1.2.2.97.38.97.49 0 1.43-1.18-2.36-.97-2.64-3.33 1.84.03 3.1 1.36 4.56.97" style="fill:#49423f"/><path d="m19.47 3.99.54.44.97.08c.38.79-.33.85-.97.44-.15.46-.79.38-1.02 0l-.51-.51c-1.15 1-1.77 1.1-1.87.33l-.69.15c-.13.41-.31.41-.51 0-.31.79-2.23 1.84-3.07 2.07-.41 1.82-1.18 3.1-2.25 3.82-.33 1.46-.9 2.41-1.72 2.87-.69.67-.77.36-.56-.54l2.43-5.12c2.25-3.18 5.63-4.71 9.25-4.02" style="fill:#393531"/><path d="M11.89 90.05c-.08.1-.08.33-.05.49l-.56.49c-.05.15 0 .36 0 .51l-2.59 2.59-1.15.51h-4c-1.15-.49-2.43-1.28-2.51-2.56-.1-1.05.1-1.2.61-.44 1.13-.2 2 .92 2.41 1.87.08-.46.23-.46.46 0l.41-.38c-.79-1.1-.33-1.33.72-.49-.28-.54.03-.74.54-.33l.82-1c.9 1.43 1.97.82 3.23-1.79 1.61-.28 2.15-.1 1.64.56l.03-.03Z" style="fill:#302b28"/><path d="m35.84 17.34-.69.49c.15 1.18-.1 1.64-.79 1.33-.87 0-1.38-.46-1.54-1.43-.64.28-1.49.61-2.07.08-.41-.41-1.02-.85-1.46-1.13-1.13-.72-2.15-2.13-.49-2.64.05 0 .23.26.41.64l.97.05c-.23 1.59 2.33 1.59 3.12.54.13-.56.67-.9 1.59-1 1.43.46.44 1.9.95 3.1z" class="cls-285"/><path d="M7.59 53.07c.82 1.1.54 3.2-.82 3.59.54 2.28.28 4.15-.77 5.61l-.79.1c0 1-.38.95-.59-.05v-.49l.51-1.05 1.66-8.14.44-3.12v-2.54c-.23-.85-.1-1.18.41-1.02.38.05.95.15 1 .46.36 2.15-.13 4.92-1.02 6.68h-.03z" class="cls-165"/><path d="M5.64 24.94c.41.15.36.79 0 1.02-.26.51-.1.87.54 1.1a44.3 44.3 0 0 0-.64 10.17c.08 1.05-.1 1.77-.56 2.07l-.41-3.64c-.28-2.51-.87-4.94-.23-7.48.33-1.28.46-2.64.26-3.76q.225-.69.54 0c.26-.31.41-.15.51.51Z" style="fill:#34312e"/><path d="M15.25 63.41c.77 2.69-.64 6.35-.38 10.19-.15.44-.33.44-.51 0-.2.13-.38-.03-.51-.51-.33-.05-.33-.41 0-1.02-.46-.15-.44-.31 0-.51l.51-2.05c-1.23-.64-.49-3.74 0-5.12-1.38-.51-1.38-1.72 0-3.61-.44-.44-.18-1.28.51-1 .38.95.51 2.18.38 3.66z" class="cls-53"/><path d="m8.33 13.73.51.33a46 46 0 0 0-3.2 10.88l-.51-.51c-.38-.36-.41-1.05-.13-2.07.56-3.12 1.36-6.27 2.74-9.17l.56.54z" class="cls-304"/><path d="M7.61 45.95c-.36.15-.41.59-.41 1.02l-2.23-7.63c.05-.74.03-1.69.56-2.07.95 1.38 1.49 3.23 1.59 5.53 1.31.28 1.79 2.46.49 3.18z" style="fill:#312e2b"/><path d="M16.45 53.12c-.05.13-.08.36-.05.51l-.51 1.54-.05 4.07c0 1.51-.67 2.82-.59 4.2-.36-1.23-.38-2.3-.38-3.66-.59-1-.59-2.38 0-4.1-1.05-.82-.44-2.66.92-2.59h.64v.03h.03Z" style="fill:#3f3c39"/><path d="M35.84 17.34c.05.1 0 .28 0 .38l-.46.64c.61.77.85 1.84 0 2.48-.74.46-2.33.38-3.1 0-3.07-.23-4.43-1.25-4.12-3.07h.54c1.46.18 2.13.69 2.05 1.56 1.38.41 2.87.41 4.25.05l-.67-.23c.56-.87.41-1.69-.15-2.87 1 .08 1.25.64 1.64 1.05h.03Z" style="fill:#7d746d"/><path d="M28.23 11.11c1.97.79 4.02 1.2 6.12 1.54 0-1.05.44-.72 1.02 0 .05.13 0 .36 0 .51l-.49.54c-.31.87-1.69 1.49-2.07.49l-2.02-.51c-1.15 1-2.74 0-3.51-1.1.08-.28 0-.64 0-.92-.82-.79-.54-1.15.44-.49.15-.41.36-.44.56-.05h-.05Z" style="fill:#615955"/><path d="M1.52 80.29c.23 1.31.15 2.71-.26 4.23 1.36.56 1 3.2-.2 3.89-.08.67-.26 1.18-.51 1.56-.74-.59-.51-1.69-.51-2.54.38-1 .41-2.07 0-3.07v-1.02l.44-2.64c.23-.64-.38-2.02.59-2.51.26.64.41 1.33.49 2.1h-.03Z" class="cls-63"/><path d="M30.15 7.38c.97-.15 1.18.08.59.67.54.51.18.67-1.05.46-.05.64-.97.31-1.51.05 0 .74-.54.49-1.02 0-.15.46-.31.44-.51 0-.56-.03-.92.36-1.08 1.15-.72.9-1.05-.23-1.08-1.13-1.36-1-2.69-2.05-3.97-3.12q-.15.66-.54 0c-.44-.15-.44-.31 0-.49.41 0 .82-.05.97-.44 3.61.33 4.1 4.46 9.19 2.84Z" class="cls-147"/><path d="M33.81 30.04c-.33-.61-.08-.74.54-.51.18.15.33.38.31.64 0 .13-.18.33-.28.41-1.13-.15-1.79.79-2.56 1.54.15.26 0 .44-.54.51-.26 0-.56.51-.79.46-.28-.08-.33-.82-.23-1-.31-.18-.13-.33.54-.49-.69-.72-.41-.97.51-.51-.23-.15-.2-.33 0-.54.49-.05.28-.23-.56-.61-.67-1.46 2.43-.97 3.1.08h-.03v.03Z" style="fill:#98908a"/><path d="M13.35 84.87c0 1.79-.46 3.69-1.46 5.17-1.02-1.92-1.08 4.12-6.02 3.41.79-.85.92-1.28 1.15-1.74l-.82.54c-.36-.69 1.18-3.25 2.02-3.82-.38-.67-.2-1.31.59-.95.31-1.9.87-2.54 1.72-1.87-.41 2.07 0 3 1.25 2.79-.56-.74-.56-2.18.54-2.02-.15-.87-.2-2.05.51-2.56.15-.46.33-.44.51 0 .44.1.23.64 0 1.02v.03Z" class="cls-2"/><path d="m32.79 10.09.61-.05c.95.59 1.56 1.56 1.95 2.61h-1.02c-1.08.18-2.71 0-2.23-1.43.15-.2 0-.41-.44-.67-.77-.69-.51-1 .46-.54.05-1 .49-.95.69.08h-.03Z" class="cls-171"/><path d="M2.7 73.63c.9.61.13 3.36-.64 4.07l-.51 1.02c.85-.1.61 1.23 0 1.56-.33-.59-.64-1.36-.49-2.1.05-.31.05-.72 0-1.02l.51-1.54v-.51l.54-1.54c-.05-.31-.05-.74 0-1.02.59-.28.79.05.61 1.05" style="fill:#2f2925"/><path d="M34.89 14.21c-.26.64-.9 1-1.59 1-1.51 1.84-5.63-.31-1.51-1.02.1-.46.61-.23 1.02 0 .74 0 1.43-.15 2.07-.49v.54-.03Z" style="fill:#bcb5af"/><path d="M35.35 23.43c-.46.31-.74 1.02-.46 1.54.36.92-.36 1.69-1.13.97-1.08.05-1.23-.26-.41-.97-.46.36-1.28.33-1.59-.2-.38 1.38-1.08 1.08-1.02-.31-.18-1.02.92-1.33 1.54-.61.44.46.92.36 1.49.15-.23-.28-.05-.49.54-.61.31-.85.95-.97 1.02.05h.03Z" style="fill:#7f7773"/><path d="M34.84 26.53c.13.92.08 2.15-.49 3 .15.28-.28.64-.54.51-.64-.38-.79-.72-.44-.97-1.18-.72-.74-1.25 0-2.13-.44-.28-.28-.44.44-.46.23-.38.92-.54 1.02.05Z" style="fill:#716c67"/><path d="M32.28 20.85h3.1v.51q-.225.495-.54 0c-1.13.38-2.46.44-3.59 0 .05.85-.46 1-1.54.54 0 .74-.67.59-1.02 0-.79 0-.77-.82 0-1.02.15-.36.31-.33.51 0l.15-.64 2.95.64-.03-.03Z" style="fill:#867d76"/><path d="m28.13 43.9.72.1c-.1.08-.1.31-.05.44l-.87.51-.28.28c-.97.28-2.56-.28-2.56-1.84 1.05.61 2.3.44 3.05.54" style="fill:#7d7471"/><path d="M7.56 94.63c-1.36.61-2.69.59-4 0 1.02-.85 3.05-1.02 4 0" style="fill:#1a1815"/><path d="M14.35 73.61c.56.54.28 2.15 0 3.07v2.56c-.15.44-.33.44-.51 0-.33-.15-.33-.33 0-.51-.44-.15-.38-1.18 0-1.54-.49-.13-.26-1.05 0-1.54-.82-.1-.51-2.02 0-2.56.23.03.51.28.51.51" class="cls-364"/><path d="M13.86 79.24c.54.51.28 1.79 0 2.56v1.54c-.08.41-.26.56-.51.51h-.51c-.31-.08-.31-.41 0-1-.67-.38-.51-.9.51-1.56-.46-.13-.44-.31 0-.51-1.05.18-.95-1.84 0-2.05.15-.46.31-.44.51 0z" class="cls-52"/><path d="M3.54 70.53c.67.59.1 2.97-.85 3.1-.08-.44-.23-.87-.61-1.05l.49-2.56c.15-.44.33-.44.51 0 .28-.44.44-.26.44.51h.03Z" style="fill:#36322f"/><path d="m3.54 70.53-.44-.51c-.44-.1-.23-.64 0-1.02l.49-2.56c.36-.36 1.72-.26 1.56.51-.13.61-1.13 3.2-1.59 3.56" class="cls-304"/><path d="m33.51 9.5-.72.59-.69-.08c-1.31.28-1.41-.23-.33-.97-.44-.15-.44-.31 0-.51-.87-.64-.56-1 .46-.56.38.46 1.25.72 1.25 1.51h.03v.03Z" style="fill:#5e5751"/><path d="M1.62 90.61c.85.08 1.05.87.08 1.02l-.61.44v-.54l-.51-.51V90c0-.56-.08-1.25.51-1.56 1.33.13 1.61 1.33.56 2.18h-.03Z" style="fill:#28221e"/><path d="M32.3 38.67c-.05.44-.2.77-.54 1.13h-.54c-.26-.28-.2-.44-.2-.61-.05-.36-.56-.59-.87-.49.61-.44 1.46-.54 2.15-.05" class="cls-224"/><path d="M32.25 8.02c-.2.1-.38.31-.46.56-.51.61-1.02.33-1.05-.51l-.59-.67 1.36-.44c.54-.18.95.44.74 1.05Z" style="fill:#7a7570"/><path d="m34.84 26.53-1.02-.05c-.38-.1-.38-.28-.05-.51.26.15.85-.05.92-.38.05-.18.05-.36.23-.59.1.2.46.41.44.74s-.36.61-.49.82" style="fill:#635e5b"/><path d="M0 87.46v-3.1c.79.72.79 2.36 0 3.07" style="fill:#292421"/><path d="M6.77 52.66c-.15-1.08-.33-2.36.44-3.12 0 1.2-.23 2.07-.44 3.12" style="fill:#34302e"/><path d="M14.38 76.68v-3.07h.51c.08 1.02.23 2.3-.51 3.05v.03Z" class="cls-333"/><path d="M35.35 23.43c-.36-.18-.72-.18-1.02-.05-.72.49-1.87.41-2.2-.41.13-.46.69-.82 1.72-1.1.08-.28.44-.44 1.02-.51h.54c.33.31.54.77.51 1.25-.03.33-.23.64-.54.82" style="fill:#7d7571"/><path d="M0 83.34c0-.95.15-1.84.44-2.64.18.92.28 2.02-.44 2.64" class="cls-279"/><path d="M13.86 81.8v-2.56h.51c0 .87.23 1.97-.51 2.56" class="cls-46"/><path d="M3.98 65.2c.08-.23.1-.56.1-.82 1.46-.85 1.9 1.1 1.38 1.77-1.25 1.64-1.64.77-1.49-.97v.03Z" style="fill:#25211e"/><path d="M5.13 24.43h-.54c-.15-.85.31-1.41.44-2.07l.13 2.07z" class="cls-150"/><path d="M4.59 62.75v-.44l.59.05c2.33 1.74-1.38 4.46-.61.38" style="fill:#231f1c"/><path d="M15.89 55.17c0-.56-.08-1.23.54-1.54.1.56.05 1.25-.51 1.54" class="cls-56"/><path d="M8.18 58.75c.56.03.56.54.05 1.54.51.51.87 1.02 1.02 1.51 1.72.77.36 4.99-1.87 3.71.15 1.18-.23 1.79-1.15 1.9-.54.51-.79.9-.97 1.59-1.23 4.79-2.48 10.22-3.18 15.14 0 0 .18.05.41.08 1-.9 1.2-.67.61.67 1.49 0 1.43 1.66 0 2-.2.51-.03.87.49 1.08.56.31 1.08.41 1.59-.05-.95-1.13-.44-1.59.92-1 1.36.97.28 3.28-.49 4.64.31.23.33.59.08 1.08l-.72.49-.41.38H4.1a20 20 0 0 1-2.48-2.87c-.38-.67-.56-1.36-.56-2.18 0-2.61-.26-5.66.46-8.14v-1.56l.54-1.02.64-4.07.85-3.1.59-3.1c.1-.54-.2-1.02-.54-1l.41-1.23c.08.31 0 .67.36 1.25.56-.56.49-1.77-.26-2.07 0-.59.1-1.18.49-1.64-.03.56-.08 1.23.33 1.69.51-.85.13-1.64.26-2.07.87-1.79 1.13-3.79 1.56-5.71h.82c-.03 1.72.15 2.43.61 2.1Z" class="cls-279"/><path d="M1.03 77.19c-.08-.56-.05-1.25.51-1.54 0 .56.05 1.25-.51 1.54m.54-2.05c0-.56-.05-1.25.51-1.54.08.56.05 1.25-.51 1.54" class="cls-63"/><path d="M3.08 70.02h-.51c.08-.41.08-.85.51-1.02zm1.54-8.2c.03-.41.1-.85.49-1.05-.08.41.05.87-.49 1.05" class="cls-279"/><path d="m33.43 10.06-.61.05.72-.59c-.15.15-.13.41-.1.54Z" class="cls-30"/><path d="M8.72 94.12a7.8 7.8 0 0 1 2.59-2.59c-.64 1.05-1.49 2.07-2.59 2.59" class="cls-2"/><path d="M1.03 91.53c-.23-.05-.49-.28-.49-.51.2.1.49.31.49.51" class="cls-279"/><path d="M11.3 91.02c.08-.26.31-.44.56-.49z" class="cls-2"/><path d="m25.11 30.48-2.36 6.99c-1.18 1.13-2.61 3.69-2.74 5.43l-3.59 6.61c-.31 1.2-1.9 5.38-3.25 3.89-.61-.67-.72-1-.2-1.82-1.08-.49-.61-3.61.46-4-.31-.85-.41-1.49-.31-1.92l1.18-.18c-.44-.2-.38-.41.08-.56 1-2.28 2.15-4.51 3.43-6.68h.69c0-1.54 1.15-4.61 1.92-6.07.05-.1.31-.13.61-.1-.28-.64-.2-1 .51-.87.85-3.23 2.87-5.48 3.59-.72h-.03Z" style="fill:#3a3430"/><path d="M26.64 17.77c.54.79.31 2.13-.05 3.07v1.49c-.1.74-.26 1.46-.46 2.1-1.23-.51-2.02.1-2.36 1.82l-1.2.2c-.28-.08-.49-.18-.51-.31-.05-.36.54-3.74 1.05-3.79-.18-2.07-.31-4.92.46-6.66-.31-.74-.44-1.41-.31-2.02.49-.64 1.2-.38 2.1.77.77.51 1.2 1.61 1.28 3.33" style="fill:#82756c"/><path d="M26.16 24.43v.54l-.05 1.46-.44 1.61v.95l-.54 1.15v.33c-.72-.33-1.02-1.08-1.66-2.1l-1.9 2.82c-.74-.31-.38-2.61.51-2.71-.26-.36-.38-.72 0-.97l.54-1.05 1.87-4.33c1.13.74 1.13 1.72 1.69 2.28" style="fill:#635951"/><path d="M15.78 53.09c-.15.87-.44 1.84-.92 2.59-.13 2.1-.56 4-1.28 5.61-.74.31-1.13-.08-1.18-1.13-.51-1.43-.51-3.48-.1-4.99-.85.13-.54-1.08 0-1.54-.56-.49-.33-2.51.64-2.05-.23.9.1.85.67.85s1.25.18 1.38-.61c.18-1.1 1.02-1.64 1.38-2.3l-.61 3.61h.03v-.03Z" class="cls-56"/><path d="M25.57 9.71c.69.1.92.77.05.9.26.1.41.49.46 1.13v.44l.46 2.1.08 3v.51c-.9-1.56-.54-3.25-3.41-4.07-.44-.05-.49-.67-.2-1.05.18-.44.69-.97 1.51-1.56-.82-.95-1.95-2.54-.08-2.54l1.08 1.15h.05Z" class="cls-92"/><path d="M28.15 26.97c.95-.38 1.61.44.36.72.85.08 1.41.36 1.72.82h.51c.2 1.25-.79 1.43-1.9.92.59.46 1.13.9.26 1.05-.67-.05-1.49-.54-2.43-1.46l.05-.41.44-1.61h1v-.03Z" class="cls-286"/><path d="m22.75 37.47-2.74 5.43c-.46 0-.59-.44-.41-.82l2.36-4.58c-.23-.72.74-1 .79 0z" style="fill:#423b37"/><path d="M30.77 13.68c.44.15.44.33 0 .51-.44.77-.97 1.36-1.54.46-.26.08-1.18 0-.97.59.41 1.25 2.23 1.61 3.53 1.51-.2.67-.74.74-1.02 1.02.13.82-.56.82-2.05 0h-.54c.38-.26.72-.46 1.05-.87-1.15 0-1.74-.61-1.59-1.41.08-.46.38-1 1.05-1.56l-1.13-.44c-.36-.13-.46-.54-.33-.95 1.05.67 2.25 1.13 3.51 1.1" class="cls-220"/><path d="M32.28 20.85h-3.07c-.79-.2-1.31-.56-1.54-1.02 0-.69-.2-1.66.49-2.02.08 2.28 2.51 1.82 4.12 3.07z" style="fill:#413a35"/><path d="M29.13 30.45c.97-.1 1.08.26.1.64-.36.26-.97.41-1.77.44 1.05.38 1.23 1.2.23 1.69-.56-.28-1.46-.61-1.74-1.13-.26-.46 0-1.31.33-1.95.69.18 1.31.49 1.95.15-.85-.36-1.61-.74-1.54-1.31 1.02.08 1.72.82 2.43 1.46Z" class="cls-220"/><path d="M26.05 37.16c-.26-.05-.54.36-.51.56l.15 1.59-1.95-1.28c.13-.74.49-1.51 1.08-1.46.38 0 .87.2 1.23.61v-.03Z" class="cls-348"/><path d="M28.69 22.38c.49-.33 1.33-.08 1.54.51 2.13.67 0 1.74-1.54 1.02-.18.23-.36.23-.56 0 .31 1.43 1.18 2.61 2.64 3.53-.28.82-1.51.56-2.25.2.31-.44-.08-.72-.36-.72-2.28-2.33.33-3.28-.44-4.61-.05-1.05.79-1.02.97 0" class="cls-220"/><path d="M29.26 32.12c-.46.72 0 1.49.49 2.07.15.9-.31.82-1.1.56l.08-.46c.05-.26 0-1-.41-1.02h-.59c-.31-.49-.13-1.13-.23-1.72.67-.41 1.72-.26 1.79.59" style="fill:#6b635b"/><path d="M26.64 8.55c.38.64.13.87-.54.51l.54 1.08c1.23.15 1.54.51.97 1.02-.28-.08-.46.23-.44.49l-1.08-1.05c-.15.46-.31.44-.51 0l-.05-.9-.56-2.25c.87.31 1.2.72 1.64 1.1z" class="cls-220"/><path d="M29.23 36.73h.49c-.61.77-1.77 1.23-2.56.59.2-.38.36-.74.44-1.18.51.28 1.08.46 1.64.56v.03Z" class="cls-142"/><path d="m26.59 20.85.05-3.07v-.51c.79.9.85 2.77-.05 3.59Z" class="cls-220"/><path d="M28.23 34.24c-.08.15-.31.44-.44.54-.77-.13-1.46-.44-2.23-.95 1.18-.38 1.9.15 2.66.41Z" style="fill:#746c66"/><path d="M28.69 20.85v1.02c.44.15.44.31 0 .51h-.97c-.15-.38 0-1.1 0-1.54 0-.77.74-.69 1.02 0h-.05Z" style="fill:#564f4a"/><path d="M26.13 24.97v-.54c0-.74-.1-1.56.44-2.1 0 .87.36 2.02-.44 2.64m3.07-4.12h-1.54V19.8c.69 0 1.33.36 1.54 1.05" class="cls-220"/><path d="M24.16 45.28c0 .2.1.49.26.64.36.38-.18.87-.56.54l-.54-.49c-.31-.28-.1-.72.36-.69h.49Z" style="fill:#524a48"/><path d="M26.57 14.26c-.46-.59-.44-1.36-.46-2.1.77.38.44 1.38.46 2.1m.18 14.35c-.18-.56-.15-1.31.44-1.61.08.59-.08 1.15-.44 1.61m-1.11-.57c0-.59 0-1.2.44-1.61 0 .56.15 1.31-.44 1.61m-.53 2.1c0-.46.13-.9.51-1.15 0 .46-.05.95-.51 1.15" class="cls-220"/><path d="M26.11 11.73c-.36-.28-.44-.69-.46-1.13h.51z" class="cls-147"/><path d="M32.28 33.75c-.28.46 0 1-.23 1.69-1.36.26-2.59 0-3.43-.69.44-.13.79-.28 1.1-.56h.44c.38.36.74.23 1.18 0-.64-.77.36-1.1.92-.41" style="fill:#8a817a"/><path d="M29.72 36.7h-.49c.33-.59 1.77-.82 2.02-.08.2.56-.54.79-.74.64l-.82-.56z" style="fill:#867e77"/><path d="M32.28 33.75c-.18 0-.59-.13-.74-.08s-.15.33-.2.49c-.2.2-.38.23-.59 0-.18-.64.05-1.08.77-1.08s.79.08.74.64" style="fill:#978d87"/><path d="m31.25 32.63.54-.51c.38-.1.82-.13 1.08.41l-1.61.13v-.03Z" class="cls-274"/><path d="M30.15 38.72c1.18-.38 2.05.2 1.08 1.08.23.15.23.36 0 .56-.13 1.41-.87 3.82-2.43 3.61-.23.49-.54.44-.72-.1-.33-.79-1.18-1.2-2.07-.97l-1.95-1.95.44-.67 1.08-.08c.9.36 2.07.82 1.61-.54l1.05-.38c-.08-.46.13-1.13.64-.97l1.25.38.03.03Z" style="fill:#6d6561"/><path d="M31.28 40.36v-.56h.49l-.49.54v.03Z" class="cls-225"/><path d="M28.28 39.29c-.13.69.15 1-.92 1.54-.69.23-1.41-.03-1.74-.61h1.79l-1.72-.92c-.95-.92-1-1.46-.15-1.59 1.08.15 1.84.92 2.74 1.56v.03Zm-3.71 1c.33.79.9 1.36 2.18 1.59l-.67 1.02c-1.05-.72-2.36-1.2-3.33-2.28-.26-.28.59-1.18 1.08-.95.23.13.56.23.74.59z" style="fill:#4a423e"/><path d="M30.28 40.31c.51.54.23 1.49-.56 1.49-.82.51-1.84.41-2.59-.28l1.77-.36c.05-.44.18-.67.36-.77.23-.13.82-.1 1.05-.1" style="fill:#877e77"/><path d="M29.72 41.8c.38-.23.51-1.05.56-1.49.54 0 .79.67.46 1.28-.18.33-.61.41-1.02.2" style="fill:#5f5956"/><path d="M12.84 9.07c.18.1.33.2.33.31-.18 1.56-1.38 9.25-2 10.01-.46.56-.9-3.76-.56-4.23-.67-.49-1.23-.15-1.64.95h-.69l.77 1.08a27.4 27.4 0 0 0-1.82 8.4l-.95.9c1.33 1.54-1.43 1.74-.61-.54v-1.02c.05-1.56.23-3.2.77-4.92l1.95-6.3c.77-2.48 1.97-5.05 3.97-6.68.31.28.51.97.54 2.02h-.05v.03Z" class="cls-150"/><path d="M18.45 4.48c.23.15.23.33 0 .51-.18.44-.33.41-.51 0l-.49 1.02c.46.26.44.44-.08.54.61 1.31.64 2.84.08 4.58.1 2.25-.41 4.15-1.54 5.66.79.77.46 1.13-.49.51-.31.46-.49.28-.54-.51q-.465-.15 0-1.02c-1.46 0-1.41-1.18 0-1.54l.49-1.02c-1.49.05-.36-6.35-.1-6.61.31-.31.67-.51 1.1-.54-.2-.44-.36-.77-.49-1.05.69-.61 1.66-.64 2.56-.49v-.05Z" style="fill:#514b46"/><path d="M15.91 5.99c-.08 1.33-1.54 1.51-2.56 1 .15.95 0 1.64-.51 2.07-.26 0-.51.1-1.08-.15.49-.61.59-1.25.54-1.9.95-.79 1.97-1.64 3.07-2.07.82.15 1.28.46.54 1.02z" style="fill:#80766c"/><path d="M16.37 5.99c-.1.46-.26.44-.49 0l-.54-1.02h.51c.13-.13 1.08.05.97.23l-.49.79h.03Z" style="fill:#a3988e"/><path d="M19.98 4.97v.49c0 .97-2.02.51-1.54-.46.15-.28.31-.28.54 0H20l-.03-.03Z" class="cls-97"/><path d="M18.99 4.97h-.54v-.51c.26.05.46.26.51.51" class="cls-147"/><path d="M4.08 93.48c-1.18.05-2.33-.79-2.41-1.87l-.08-1.02c.1-.23.46-.44.67-.31.13.08.33.26.59.77.13-.64.1-1.2.56-1.82l.64 4.25z" class="cls-322"/><path d="m8.23 88.46-2.02 3.82c-.08.15-.38.26-.54.33-.26.08-.44-.13-.41-.31.05-.36.23-.56.33-.77.67-1.23 1.1-2.59 1.28-4.02l.74-.1c.82-.18.79.31.61 1.05Z" style="fill:#887f76"/><path d="m4.54 93.48.41-.38c.1.23-.05.61-.41.38" class="cls-322"/><path d="M30.74 17.77c.61.36 1.31.33 2.07-.08.38-.36.87-.31 1.08.2l.46 1.23.67.23c-1.38.36-2.87.38-4.25-.05l-2.05-1.56h2.05-.03z" style="fill:#ccc3bc"/><path d="M30.74 14.19c.15-.44.79-.38 1.02 0-.44.33-1.38.23-1.49 1.25 1.28.41 2.15-.18 3-.23.23.2.44.64.33.85-.23.41-4.28.36-4.41-1.43l1.54-.46v.03Z" style="fill:#9b9189"/><path d="M32.82 17.7c-.28.28-.54.44-.85.56-.54.2-1.15.15-1.23-.49l2.07-.08Z" style="fill:#d0c9c3"/><path d="M6.23 26.51c1.97-3.3 2.23 2.05.87 3.69-.79 3.82.15 10.6 1.36 2.05 1.28-.92 1.87-.23 1.82 2.05.69.13.85.69.46 1.64l.74.31.41 1.18c-.87 4.92-1.69 9.63-2.48 14.14l-.56.54c-.13 1.25-.79 3.12-1.28 1v-7.12l-2.05-8.68-.38-7.22c-.08-1.36-.38-3.07.49-4.05-.08.18 0 .82.26.97s.2-.38.36-.46v-.03Z" style="fill:#554d47"/><path d="M9.43 51.55c.23 2-.23 5.48-1.25 7.2-.26.13-.46.49-1.08.54.18-1.15.18-2.1-.36-2.66.28-1.2.18-2.48.82-3.59.36.51.79.2.61-.33.05-.51.2-.9.36-1.08.1-.15.46-.23.87-.1l.03.03Z" style="fill:#504843"/><path d="M13.84 70.53c.46.1.23.61 0 1.02v.51c-.72 2.2-.9 4.25-.51 6.15.33.15.33.31 0 .51v2.05c.15.36-1.2.56-1.28.49-.64-.49-.72-8.53 0-9.89-.38-1.51-.31-2.66.23-3.43.18-1.25.54-1.77 1.13-1.54l.46.28v3.84h-.03Z" class="cls-333"/><path d="M14.38 64.39c-.18 1-.51 1.66-.97 2.02l-1.13 1.54c-.28 0-.49-.03-.49-.05-.08-1.18-.13-4.64.13-5.56.44-1.51 1.08-1.61 2.43-1.56v3.61z" style="fill:#574e47"/><path d="m14.38 69.51-.51 1.02c-.59-.31-.85-.92-.74-1.77l.28-2.36c.15-.74.2-1.61.97-2.02v5.12Zm-.52 3.58v2.56l-.51 1.54c.44.13.38.77 0 1.02-.46-.05-.9-.44-.82-.74l.26-1.31c.31-1.56.1-3.07 1.08-4.1v1.02Z" style="fill:#6f655d"/><path d="M14.86 59.78c-.31.26-.41.64-.51 1-.23.82-1.15 1.23-1.9 1.36l-.18 5.81c0 1.23.36 2.46.87 3.41-2.23 2.79-.64 5.84-1.18 9.37l1.38.05v.51c-.38 1-1.02 1.54-1.69.54l-.69-.18c-.08-1.79-.13-3.61-.15-5.48-.77 0-.77-.82 0-1.02.31-1.05.38-2.18.23-3.36-1.1-.13-1.02-.56.28-1.25-.85-1.08-.85-4.1 0-5.12-.31-.46-.44-1.15 0-1.54-.44-.15-.36-1.18 0-1.54-.26-1.15-.08-2.02.54-2.56-.05-1.15.51-.69.59.38.2-.31.77-.15.38-1.05-.36-.92.85-1.08.59 0-.46.85-.15 1.51.38 1.74.26-2 .13-3.76 1.08-5.17v4.1h-.03Z" class="cls-46"/><path d="M13.84 71.56v-1.02c0-.44.08-.87.51-1.02 0 .72.18 1.59-.51 2.05" class="cls-46"/><path d="M35.02 19.39c-1.15.74-3.2.77-4.25-.05z" class="cls-285"/><path d="M29.74 10.6c1.05.1 1.84.31 2.38.61l2.23 1.41c-1.13.97-2.66.44-4.23.05l-1.38-.33c-.38-.1-.59-.72-.51-1.23-.36-.82.85-.95 1.51-.49v-.03Z" style="fill:#a89f98"/><path d="M30.74 10.6c-.1.46-.61.23-1.02 0-.54 0-1.05.23-1.51.49-.13.08-.41.05-.56.05l-.97-1.02c.1-.38.2-.67.38-.69.23-.05 4.25.46 3.71 1.18" style="fill:#4a433d"/><path d="M32.79 14.19h-2.05v-.51c.72 0 1.59-.18 2.05.51" style="fill:#433c36"/><path d="M24.49 8.55c-.44.77-.18 1.72.08 2.54-.13.46-.31.46-.49 0-.67-.1-1.23-.82-1.69-2.15l-.72.2c-.23-.97-.61-1.84-1.18-2.66-1.36-.23-1.31-.61 0-1.05 1.84.05 4.17 1.05 3.97 3.12" style="fill:#6e645c"/><path d="M19.98 5.48a1 1 0 0 1 .54 0v1.05c.2.67-1.97.74-2.28.28-.15-.2-.23-.49-.28-.79-.44-.1-.33-.67 0-1.02h.51c.18.61 1 .67 1.54.51z" style="fill:#cdc4ba"/><path d="m33.38 29.07.44.97c-.9-.49-2.41-.92-3.1-.08.38.18.56.36.56.61v.54c-.97.33-1.79-.23-2.41-1.69l1.9-.9c.67-.49 2.82-.77 2.61.54Z" style="fill:#837a73"/><path d="m31.28 31.09-.51.51c-.46.28-1.15.49-1.54 0-.46-.15-.46-.31 0-.51.2-.2.2-.49-.1-.64.08-.2.33-.77-.26-1.05zm0-.51c-.33.05-.59-.2-.56-.61.49.1.87 0 1.64.23-.28.51-.72.49-1.08.38" style="fill:#6a625c"/><path d="M30.77 31.6c-.15.15-.31.44-.54.49-.26.05-.74.1-.97 0-.31-.13-.33-.31 0-.51h1.54l-.03.03Z" class="cls-274"/><path d="M11.64 81.83c.54.56.46 1.59-.18 3.1l.31 3.51c-.15.59-.77 1.41-1.15.97-.85-1-.67-2.13-.51-3.43-1.33.08-1.02 1.08-1.33 1.54-.9-.23 0-3.36.33-4.46.05-.13.26-.18.54-.23-.36-.92-.36-2.77.54-3.07-.23-1.08-.49-3.25.54-3.59.36.33.49 1.28.54 1.97l.31 3.69h.08Z" class="cls-52"/><path d="M12.84 82.85c-.49 1.15-.67 2.36-.51 3.56l-.54 2.02c-1.49-.23-.95-3.87-.13-6.61.69-.1 1.2-.26 1.69-.54 0 .67-.1 1.08-.51 1.56Z" class="cls-364"/><path d="m12.81 83.85-.51 2.56c-.77-.97-.23-2.66.51-3.56z" class="cls-46"/><path d="m27.16 8.55 1.82.79c1.31-.44 2.23-.54 2.82-.28l.33.97c-.2.13-.36.33-.46.54 0 .46-.64.41-.92.03-1.1-.85-2.71-.51-4.07-.46l-.54-1.08c0-.31.15-.54.54-.51h.51z" class="cls-30"/><path d="M30.74 10.6h.92c.56-.05 1.18-.13 1.69.28-.49.49-.95.28-1.25.36-.54-.36-1.92.26-2.38-.61h1.02z" style="fill:#d5cec7"/><path d="M1.54 78.73c0-.44.08-.87.51-1.02-.08.44-.03.87-.51 1.02" class="cls-63"/><path d="m30.74 24.46 1.02.31c.46.49.95.54 1.59.2.41.05.38.67.41.97l.05.51c-.77.28-1.46.46-2.05.54-1.08.85-4.05-1.46-3.64-3.05.15-.05.41-.05.56 0l1.15.23c.67-.51.97-.41.9.31v-.03Z" style="fill:#9d948d"/><path d="M32.12 22.97c.69.38 1.41.41 2.2.41-.03.33-.41.44-.54.61-.49.26-1.13.33-1.49-.15-.49.26-1 .46-1.54.61-.72 0-1.51 0-2.05-.54.36.05.77.08 1.2-.08.31-.1.49-.56.33-.95.15-.33.36-.33.56 0-.08-1.18 1.05-.92 1.31.1v-.03Z" style="fill:#574f4b"/><path d="M33.35 25c-.08.51-.49.49-.79.51-.59.05-.87-.26-.77-.72l1.59.2h-.03Z" style="fill:#ada49e"/><path d="M33.79 24.02c-.18.23-.41.44-.74.46-.49.05-.82-.18-.77-.61l1.49.15h.03Z" style="fill:#a49c97"/><path d="M33.38 26.94c.38.72.44 1.49 0 2.13l-2.61-.54h-.51c-.61-.61-.31-.79.54-.51-.31-.92.26-.9.97-.44.61-.95 1.15-1.18 1.61-.64" style="fill:#a59c95"/><path d="M33.81 26.48c0 .15-.1.38-.44.46-.59-.13-.72 1.56-1.61.64-.44-.18-.44-.36 0-.56-.08-.46.28-1.05.67-.95z" style="fill:#c4bdb7"/><path d="m30.74 8.04 1.05.51v.51c-2.3.74-4.17.97-4.64-.51h1.02c.92.41 2.74.46 1.51-.05l1.05-.46Z" style="fill:#a69d94"/><path d="M29.72 8.5c.23.03.61-.15 1.05.31-.74.46-2.05.46-2.59-.28.46 0 1.1.15 1.51-.05l.03.03Z" style="fill:#c6beb5"/><path d="M31.25 21.36c.9.18 1.74.36 2.56.51-.26.72-.95 1.08-1.72 1.1-.31-.18-.95-.1-1.31-.1-.79-.18-1.15-.51-1.08-1.02.28-.59.95-.54 1.54-.54v.05Z" style="fill:#988d85"/><path d="M34.84 21.36c-.28.28-.64.46-1.02.51-.87.1-1.97.2-2.56-.51h3.59Z" style="fill:#c3b9b2"/><path d="M29.72 21.87c.49.18.87.54 1.08 1.02h-.56c-.56 0-1.13-.08-1.54-.51v-.51z" style="fill:#6a615c"/><path d="M13.86 78.73h-.51v-1.54c.15-.44.33-.44.51 0z" class="cls-53"/><path d="M13.86 77.19h-.51c0-.56-.05-1.25.51-1.54z" class="cls-333"/><path d="m18.5 38.26-4.12 6.66c-.46-.13-.46-.28 0-.51.18-.85.51-1.77 1-2.51l.05-.54.77-1.82c.15-2 .77-2.95 1.84-2.87q.66.39.51 1.59" style="fill:#887d74"/><path d="m21.01 32.06-2.54 6.2c-.59-.33-.64-1.02-.51-1.59-.77-.61 1.13-5.92 1.38-6.12.31-.26.82-.13 1.25 0 .46.08.59.56.41 1.51Z" style="fill:#958b82"/><path d="m22.03 28.48-.51 2.71c-.15.2-.41.61-.51.87-.59-.31-.46-.97-.41-1.51-1.54-.2-1.1-3 .36-3.1.18-.44.36-.41.54 0l.49.97h.05v.05Z" class="cls-216"/><path d="M23.57 15.72c.33 2.25-.18 4.43-.46 6.66-1.1.51-1-2.13-.54-3.07-1.56 0-1.23-2.18 0-2.59-.31-.95-.46-2.25 0-3.07-.31-.15-.31-.33 0-.51.51.51.85 1.36 1.02 2.56l-.03.03Z" style="fill:#cabeb6"/><path d="m23.11 22.38-.54 4.07-.54 1.05v.97c-.44-.15-.51-.56-.51-.97-.49-.23-.72-1.41 0-1.54l.54-2.02c-1.74-.2-1.51-5.89.51-4.61 0 1.02-.28 2.28.54 3.07v-.03Z" style="fill:#bdb2a9"/><path d="m23.26 13.7.31 2.02-1.02-2.56c-.46-.15-.44-.31 0-.51.15-.46.31-.44.51 0 .23.31.15.74.2 1.05" class="cls-43"/><path d="M22.03 27.51c0-.49.38-.69.54-1.05-.08.44-.08.9-.54 1.05" class="cls-216"/><path d="M12.3 53.63v1.54c-.15 1.59-.31 3.12-.49 4.61 0 .9.13 1.84-.54 2.56-.26.2-.44.03-.51-.51-1.02-.54-1.05-1.77-.08-3.61l.08-1 .54-1c-.41-.97.33-1.87.38-2.59h.61Z" style="fill:#887e76"/><path d="M12.4 60.16c-.05-.54-.51-.44-.59-.38l-.05-3.64c0-.54.18-.92.54-1l.1 4.99z" class="cls-370"/><path d="M20.52 6.48c.72 1.84 1.56 3.56 2.51 5.15-.08-1.31.05-1.38 1.05-.54h.49c.33.97.97 1.74 1.05 3.15-.87-.41-1.05-1.08-1.1-2.07l-1.46.46h-.51c-.26.36-.69.67-1.1.49-.82.2-1.43-.67-1.79-2.66-.26-.03-.23-.15 0-.36-.41-1.05-1.2-1.66-2.38-1.87l.05-1.74c.05-.15.15-.36.08-.54.18-.46.33-.46.51 0 .79.23 1.77.51 2.56.49" class="cls-329"/><path d="M30.77 27.48c.44.15.44.31 0 .51-.23.1-.38.33-.54.49-.54 0-1.33-.2-1.72-.82l2.25-.2v.03Z" style="fill:#8b817b"/><path d="M29.23 31.09c-.05.13 0 .38 0 .51v.51c-.49-.2-1-.41-1.77-.59-.13-.74 1.28-.56 1.77-.44" style="fill:#888078"/><path d="M31.77 27.02v.56l-1 .44v-.51c-1.1-1.05-2.87-.59-3.12-2.28-.05-.41-.13-1.08.46-1.25l1.15 1.2c.44 1.23 1.31 1.82 2.48 1.84" class="cls-286"/><path d="M26.67 10.14c-.36-.36-.59-.56-.54-1.08.31.28.51.67.54 1.08" class="cls-147"/><path d="M31.36 34.16c-.05.2-.31.36-.46.46-.28.18-.79 0-.72-.44h1.18v-.03Z" style="fill:#a19a8f"/><path d="M11.43 27.58c.26.08.49.18.64.33.23.26-.67 6.45-1.77 6.35l-.85-2-2 10.65c-.56-2.07-.05-3.64-.15-5.79l-1.13 1.25c.08-4.25-1.79-7.27 1.31-10.63l.05-1.1c0-.36-1.05-.31-1.31-.15-.44-3.61 1.13-7.02 2.02-10.4 1.23-1.15 2.02-1.46 2.36-.9.61 3.84.23 7.53-1.15 11.01l1.97 1.36Z" class="cls-231"/><path d="M18.09 16.8c.95.41 1.23 1.38.87 2.95.23 1.43.85 2.33 1.79 2.74.2 1.69.28 3.38.2 4.99l-.36 3.1c-1.1 1.02-.72 3.84-2.64 6.12-1.13 1.33-.9 3.46-2.61 4.69-.49-1.54.13-3.94.72-5.35l.33-1.33c-.33-.82-.41-1.82.13-2.56l.95-6.4a.82.82 0 0 0-.44-.44c-.38 1.59-.13 3.38-1.18 4.89-.2-2.61 1.28-4.76-.18-6.84-.9-.44-1.05-1.46-.46-3.1q-.84-1.695.15-3c.26-.08.46-.28.49-.51.69-2.46 2.77-2.69 2.2 0l.03.05Z" class="cls-328"/><path d="M19.7 10.14q-.69 1.695 0 .36c1.02-.49.92 1 1.79 2.66.08.49.1 1.18.05 2.05.41.92.36 2.28.08 3.23-1.05 3.74-3.53 1.38-2.48-1.92l-1.02.28c0-.41.2-.97-.59-1.2-.08 1.08.23 1.97-.46 2.61-.08-.77-.15-1.64-.36-1.95-.13-.2-.61.44-.82.51.28-3.38.44-7.07 1.46-10.24.08.56.46 1.05 1.13 1.25.46.15.95-.15 1.38-.87.41 1.41.23 2.36-.2 3.2h.08l-.03.03Z" style="fill:#625a54"/><path d="m15.43 17.29.9 2.89c-.23 1.18-.36 2.48-.59 3.2l-1.82 5.69-1.1-.51c-.77-.26-.85-1.18-.23-2.79-.56-1.95-.08-4.61 1.33-5.92-.38-.54-.41-.9-.05-1.02l-.13-1.05c.46.28.85-.05 1.15-1 .18.05.49.33.54.51" class="cls-98"/><path d="M14.86 16.75c0 .82-.38 1.56-1.02 2.05-.9-.36-1.25-.2-1.1.46l-.46-.97c.13-.23.26-.79.31-1.08.59.08 1.08.18 1.69.61 0-1.02.13-1.61.59-2.07v1.02-.03Zm0-2.56c0-.44.08-.87.49-1.02-.05.44 0 .87-.49 1.02" class="cls-328"/><path d="M17.96 5.99c-.15-.05-.36 0-.51 0-.1-.41.05-1.02.49-1.02v1.02h.03Z" class="cls-97"/><path d="M5.16 87.92c0 .46-.31.67-.79.59-.38-.05-.59-.13-.77-.56q.225-.54.54 0h1.05-.03z" style="fill:#796f67"/><path d="M3.59 87.95h-.74c-.23 0-.36-.41-.23-.64.1-.15.36-.31.46-.41.36.31.72.64.49 1.08l.03-.03Z" style="fill:#786e67"/><path d="m13.89 19.82-1.1 8.71-1.31 7.71c-.77.46-.26 1.54-1.41 2.25-.59-1.46 0-2.89.2-4.23l1.15-6.68c.15-.85 1.33-1.97-.1-2.89 0 .97.1 1.54-.54 1.97l.92-6.4c1-.26.31.59.28.54-.2-1.23 1.23-3.76 1.92-.97h-.03Z" style="fill:#59524c"/><path d="M22.39 8.96c.97 1.15 1.18 2.07.64 2.69-.41.26-.79.49-1 .26-.18-.18-1.46-3.53-1.51-5.4 1.41-.05 1.18 1.9 1.87 2.46" style="fill:#d5cac0"/><path d="M24.08 11.11c-.23.36-.77.36-1.05.54l-.64-2.69c.79.67 1.28 1.23 1.69 2.15" class="cls-92"/><path d="M16.58 32.12c-.59.72-.41 1.72-.13 2.56 1.46.26 1.08 1.36-.33 1.33-.23.82-.49.69-.72-.38-.51-1.05-.26 1.46-.05 2.1q-.195 2.07 0 4.17c.05.82-.28 1.66-1 2.51l-.05 1.08-.9 2.1-.46-.1a61 61 0 0 1-1.25 6.12c.31.77.18 1.64-.38 2.59l-.54 1c.77.08.72.9-.08 1-.23 1.56-.72 2.77-1.46 3.61-.38.18-.87 0-.97-.33-.13-.44-.05-.85-.08-1.2 1.1-6.2 2.05-12.42 2.87-18.7l.56-.26c.28 1.1.74-.67.95-1.59.51-2.48 1-5.63.72-8.12-.77.05-.69-.74 0-1.05l.56-1.02c-.46-.15-.44-.31.05-.51-.23-1.59-.36-5.4 1.82-5.69 1.18.1 2.54 1.38 2.77 2.51.18.87-.51 6.38-1.92 6.25h.05l-.03.03Z" class="cls-370"/><path d="M13.4 47.58c-.54 1.25-.74 2.66-.46 4-.64.51-.64 1.28-.64 2.05.05 1-.33.97-.61 0 .2-2.25.08-4.84 1.15-7.15.56.03.67.74.56 1.13" style="fill:#8e837b"/><path d="M14.32 44.41v.51l-.05.56c-.26 0-.49 0-.69-.05-.23-.05-.41-.49-.28-.74.13-.23.74-.28 1-.28h.03Z" style="fill:#988e86"/><path d="M13.89 29.04c-.05.13-.08.36-.05.51l-.56 1.02v1.05c.41 2.15-.05 5.33-.95 7.15l-.51 1.54c.79.03.56.87-.15 1.02L9.01 59c-.08.59-.49 1.05-.77 1.31v-1.54l1.2-7.2.05-4.56c.79-3.71 1.41-7.2 2-10.76-.26-.05-.49-.13-.64-.26-.28-.23.92-7.02 1.23-7.22.2-.13.46-.18.72-.2.2-.08.61-.51.85-.46.33.08.38.74.26.97s0-.05 0-.05Z" style="fill:#453e3a"/><path d="M11.64 41.34c.05-.28.26-.67.15-1.02l.51-1.54.97-7.15c1.05.85.49 2.41.26 3.76-.44 2.54-.44 4.89-1.49 6.99-.46-.41-.31-.82-.44-1.05" style="fill:#615a54"/><path d="m16.09 36.01-.72 5.35c0 .13.05.41-.05.54-.87-1.23-.51-2.84 0-4.17-.33-.82-.31-1.51.05-2.1.18.18.46.28.72.38m.49-3.89c-.13.85.05 1.77-.13 2.56-.54-.33-.79-1.13-.41-2.13-.56-.36 0-1.25.56-.41" style="fill:#4d4642"/><path d="M15.37 35.65c0 .67.18 1.54-.05 2.1-.49-.31-.61-1.15-.46-2.18-.33-.95.87-1.02.51.08" style="fill:#645c56"/><path d="M10.76 57.21c0-.44.1-.85.54-1 .13.33-.15.95-.54 1" class="cls-350"/><path d="M13.27 30.58c0-.46.1-.9.56-1.02.05.44-.13.9-.56 1.02" class="cls-98"/><path d="m15.66 24.94.28.26-.28.26-.33-.26z" class="cls-328"/><path d="M21.52 15.21c-.38-.59-.18-1.31.54-1 .18.79.36 1.64.49 2.54v2.59c-.36.05-.54.44-.54.97v3.64l-.49 2.02v1.54h-.56c-.31-1.46-1.49-2.71-.85-4.64-1.18-.05-1.1.46-1.97 1.2.54-2.61-.08-4.87-.08-7.27s.79-2.56 2.18-3.2c.23 2.05-.41 4.1-.67 6.3 1.36-1.51 1.31-3.23 1.9-4.66h.05z" style="fill:#69605a"/><path d="M22.55 16.75c-.72-.59-.46-1.69-.49-2.54q-.69-.195 0-.54c.15-.31.33-.31.51 0v3.07h-.03Z" class="cls-43"/><path d="M22.55 13.68h-.51c-.31-.64-.08-.87.51-.51z" class="cls-329"/><path d="M21.52 25.97c0-.72-.15-1.61.54-2.02 0 .72.18 1.59-.54 2.02" class="cls-216"/><path d="M19.68 10.47c.33.92-.33 1.69-.69 2.79l-.28.9c-.08.26-.79-.05-.72-.23l.44-.85c.54-1.08.23-2.51 1.28-2.97-.05.08-.05.26 0 .36" style="fill:#49433f"/><path d="M22.55 12.65v.51c-.28-.1-.54.18-.51.51v.54c-.49.15-.38.69-.51 1-.51 0-.54-.51-.46-.72l.41-1.33c.26-.41.69-.49 1.1-.49" style="fill:#4a423c"/><path d="m13.84 18.8.05 1.02-1-1.1c0 1.28-.1 2.07-.95 2.71-.36-.56-.18-.9-.28-1.15.1-.67.05-1.46.61-2 .59-.1 1.28 0 1.56.54v-.03Z" class="cls-177"/><path d="M12.58 17.21c1.33.38 1.1 1.02-.31 1.08.26.69.2 1.87-.61 2l.05 1.02c.82.41.95 1.41.44 2.97.82.69.61 3.48-.72 3.33-.67-.36-.72 0-.59.49.18.69-.64.69-.64.18s0-.72-.15-1.31c-.38.64-1.31.9-1.49 2.23-1.15-.61 0-1.69-.1-2.33-.23-1.13.54-2.23.95-3.15 1.25-2.77.82-6.02.69-8.66-.28.77-.49 1.72-.95 1.64-.26 0-.61-.41-.9-.56.26-.97.87-1.02 1.18-1.9l1.1-3.15c1.64 3.2-.51 5.97.59 7.81l1.69-9.78c.13-.69 0-1.43.51-2.07.44-.15 1.08-.2 1.2.15.18.51-.77 8.48-1.02 9.27l-.92.77z" style="fill:#534c47"/><path d="M15.91 5.99h.49l-1.02 7.15-.49 1.02v1.54c-.26 2.61-1.02 3.1-2.28 1.46-.59-4.48 1.95-8.55.74-10.19.59-.79 1.59-1 2.56-1" class="cls-177"/><path d="m9 15.21.26.26-.26.26-.26-.26z" class="cls-231"/><path d="M10.79 61.82c.33.61.46 1.51 0 2.05.46.08.38.79-.05 1 .28 1.9.15 3.61-.44 5.12.08.41.23.59.49.54.13-.46.31-.46.51 0v3.61c0 .54-.15.92-.51 1l-.51-.2c.31-3.46.13-2.36-.51 3.3.08 1.41-.13 2.38-.64 2.92 0 2-.15 4.15-.82 6.07-.05.13-.31.15-.67.18-.36 1.49-.87 3.05-2 4.12.72-1.51.31-3.07.49-4.64l-.97-.59c.38-1.77-.31-2.23-2.05-1.43l-.61-.67c.28-4 1.15-9.3 2.56-13.11.05-.1.33-.13.69-.13.97.1.77 2.07 0 2.64-.05 2-.38 4.02-1 6.1l.44-.05c.92-.87 1.2.1.92 1.13-.05.15-.51-2.97.23-3.07.15-.05.26-.2.28-.36-.51-.05-.67-.61-.49-1.66-.69-.05-.31-1.54.1-2.07-.13-1.84-.13-3.74-.05-5.66-.44-.2-.41-.38.05-.54.18-1.97.05-4.02 1.33-5.79.38 1.56.23 2.82.97 3.66.33-1.61.85-2.43.77-3.48-.13-1.28.49-2.77 1.46-3.61l.08 3.61h-.05v.03Z" class="cls-350"/><path d="m6.21 67.43-.05.54c-.15 1.05-.28 2.05-.44 3l-1.46 4.79c-.82 2.92-.92 5.76-1.79 8.45l-.46.49c-.23.26-.56 0-.51-.15l.44-.92c.05-3.18 1.15-6.25 1.79-9.3l1.56-7.38.92.49Z" class="cls-322"/><path d="M6.1 86.9c-.36.26-.69.59-.92 1-.28.41-.79.46-1.05.03l-1.02-1.05v-2c0-.54.61-1.08 1.02-1.31.46-.26 1.1-.15 1.51.28.87.97.59 2.05.49 3.05z" style="fill:#181411"/><path d="m9.69 82.83-.87 4.69-.59.95c-.38-.18-.56-.61-.61-1.05l1.49-6.25c.38.31.56.87.61 1.69h-.03z" style="fill:#938981"/><path d="M10.76 75.14v1.02c-.38 1.15-.31 2.41-.54 3.59-1 .28-.82-.72-.51-1.54v-5.69c0-.41.54-.9.97-.97l.05 3.59z" style="fill:#a69e97"/><path d="m10.25 79.75-.54 3.07c-.59-.28-.67-1.02-.61-1.69.2-.87-.1-2.3.64-2.92 0 .56-.08 1.23.51 1.54" style="fill:#918982"/><path d="M11.3 65.41v5.12h-.51c-.28.2-.44 0-.49-.54.05-1.69-.44-3.59.44-5.12.28-.28.46-.1.56.54" style="fill:#9d948b"/><path d="M11.3 62.34v1.54c-.15.46-.31.44-.51 0v-2.05z" style="fill:#9a9087"/><path d="m11.3 65.41-.56-.54c.15-.26.05-.72.05-1h.51z" style="fill:#b7afa5"/><path d="M5.18 79.65c-.54-.87 0-3.51.95-3.97.36.51.46 1.1.49 1.66.08.15.18.28.31.36l.33.2c.1.05.15.13.23.23l1.05-3.61c.69 2.59.05 5.12-.54 7.79-1.25-1.02-.69-2.33-.67-3.53l-.41-.54-.23-.36-.33-.23c.08 1.51.61 3.07-.41 4.3-.74-.77-.08-1.38-.03-1.77.03-.23-.38-.54-.69-.61" style="fill:#5b514c"/><path d="M6.13 75.71c-.59 1.18-.64 2.66-.95 3.97-.26 1.08-.36 2.23-.95 3.28-.44-3.48 1-6.3 1.49-9.32.15-.44.31-.44.49 0l-.1 2.07h.03Z" style="fill:#504741"/><path d="M6.21 73.63h-.49c.18-1.05.54-1.74 0-2.66-.41-.69-.13-2.48.44-3-.2 2.33 1.25 4.15.05 5.66" class="cls-279"/><path d="M10.79 70.53c.13.61-.54.54-.51.23v-.77z" style="fill:#aaa199"/><path d="M11.81 40.31c-.13-.56-.05-1.25.51-1.54-.08.56.05 1.25-.51 1.54" class="cls-370"/><path d="M4.11 87.95h-.54l-.49-1.05c.54.13.85.61 1.02 1.05" class="cls-350"/><path d="M40.93 77.81c.1 1.08 0 2.3-.23 3.69 1.49 1.79 1.05 3.61.51 5.63.38 0 .82.44 1.31 1.31 1.66-2.43 5.46 2.13 1.54 1.87l-.49.74c-2.33-.2-4.64-.61-6.97-1.2.54.9.13 1.1-.61.28l-.51.51c-1.15-.69-1.38-.56-.74.36l.67.46c.05-1.02.79-.85 1.05.08.38.1.36.26-.05.44.44.49.26.69-.59.56l-3.05-1.46c-1.61-.77-1.79-2.71-1.08-4.1l-.46-1.15v-.92c-.13-1 .28-1 .61 0 1.38-.51 1.64.67.44 1.38 1.61 1.25 4.51 2.56 5.28.26l-.54-2.74c-.44-.18-.38-.31.08-.41-.69-1.43-.72-4.51.05-6.07.08-1.02 3.18-.23 3.74.51h.05v-.03Z" class="cls-269"/><path d="M96.77 57.24v.51l-.41 1.08-2.07 2.89c-.13.46-.31.46-.56.05-2.64.64-5.38 1.43-8.17 2.38l-.97-.69c-2.1.03-4.2.15-6.25.38-.03.46-.15.44-.38 0-.08.49-.26.67-.56.51-.15.46-.31.44-.51 0l-.51.51c0 .64-1.1.41-1.54 0l-1.54-.51c-.15.36-.31.33-.51 0l-.51-.49c-.31.69-1.15.67-1.51.05-.95.13-.79 0-.03-.59.15-.46.31-.44.51 0l1.02-.51c-.13-.77.9-.77 1.23-.1.03-.46.15-.44.36.03.44.38 1.02.44 1.59.46-.05-1.02.77-1 .9.03.49-.23.85-.2 1.08.1l.49-.56c0-.46.13-.46.38-.05l2.71-.38c.95-.33 2.28-.49 3.07 0l.51-.64c.51-.92 2.95-1.23 4.1-.82.51-.87 2.46-1.33 3.59-1.1.33-.79.74-.85 1.02-.03.97-.41 1.9-.9 2.15-2-.51-.05-.54-.23-.08-.51-.69-.69-.38-.97.49-.49.05-.41.2-.59.49-.56 1.33-1.33 1.08-.28.46 1.05h-.03Z" style="fill:#322c29"/><path d="M89.13 84.36v.51l-.49 1.49c.79 1.66.69 3.51-1.23 4.48-2.59 1.33-5.28 2.77-7.99 2.71-.36.26-.77.38-1.02 0-.44-.15-.44-.31 0-.51-.05-.38-.08-.69.03-.72.82-.33 2.77-.61 3.48-.31.97-1.08.13-1.33-2.59-.77l-.41-.26c-.59.49-1.36.38-1.08-.44.08-.72.82-1.05 2.25-1.05 1.51-2.46 2.51-2.61 2.97-.46.26-.54.56-1.02 1.08-.59-.2-1.41.61-1.74 2.46-1.05l1.05-1.05c-.59-.13-.44-.67.49-1.56-1.23-.74-.92-1.25.51-1.02.23-.28.41-.13.51.51v.08h-.03Z" style="fill:#312d29"/><path d="M29.72 54.65h.51c.44.15.44.31 0 .51.13.18-.05.33-.49.49.74.26 1.43.64 2.02 1.18 2.46-.05 4.66 1.69 6.17 3.36.26.33.08.54-.54.61 0 .85-.56.64-1.02 0-.15.33-.31.33-.51 0-1.25-.15-2.46-.15-3.59 0-.13.46-.31.46-.51 0l-.51-.51c-.54-.23-.87-.74-1.02-1.54-.61-.44-1.08-1.31-1.02-2.05-.51-.08-.74-.56-.51-1.02-.26-.15-.26-.31 0-.51-.56.23-1-.61-.51-1.02v-.51c-.44-.15-.44-.33 0-.51.51.51.87 1.2 1.51 1.54h.03Z" class="cls-196"/><path d="M91.23 75.17c0 .15-.08.36-.03.51-.15.44-.31.44-.51 0q-.225.495-.54 0c-.28-.87-.97-.87-2.07-.05.46 1.41-.64 1.72-1.43.51-.28.31-.69.46-1.25.38.41 1.49-3.28 2.18-3.84.77-3.59.26-3.28-.46 0-1.25.46-1.38 3.66-1.38 5.2-1.25-.05-.46.08-.46.36-.08l1-.59c.41-.85 1.79-1.25 2.69-.95.33.38.49 1.05.44 2.02v-.03Z" style="fill:#3e3834"/><path d="M94.77 50.04c.28.08.51.18.49.51.44.15.44.33 0 .51 0 .77-.56 1.18-1.69 1.25-.51 1.02-1.15 1.77-1.95 2.28.33.13.36.31.08.54-.15.44-.31.44-.51 0-.69.38-1.77.38-1.54-.51-.61-.28-.97-.64-1.1-1.05l1.59-2.56c.33-.44.69-.59 1.02-.51 0 .38.51.38 1.54 0l.51-.51c.18-.46 1.23-.49 1.54 0v.05h.03Z" class="cls-140"/><path d="m28.13 68.51.59.49c.46.15.44.31 0 .51-.28.59-.28 1.1 0 1.54.64-.49.87-.2.51.51.15-.26.33-.23.51 0 .69.87.61 1.18-.49 1.02.44.15.44.33 0 .51l.38.64c1 .38 1.84 1.18.46 1.64.08 1.08-.2 1.51-.79 1.25-.1-2.13-1.28-4-1.95-6.22-.54-1.84-.15-4-1.18-5.48q.15-.615.54-.54c1.46-.36 1.59 2.97 1.43 4.12h-.03Z" class="cls-327"/><path d="M44.08 93.58c.95-1.02 2.36.18 3.07.97.44.18.44.36 0 .56h-1.02l-1.54-.51c-3-.23-6.07-.79-8.73-2.07-.05-.28.36-.61.59-.56.1-.41.36-.87.64-.82 2.25.49 5.33 1.15 7.02 2.43z" style="fill:#2e2b29"/><path d="M29.1 59.98c.44-.77.74-.56.61.33 1.28 1.02 1.79 2.02 1.49 3.07.1.77.08.97-.61.54a72 72 0 0 1-3.33-2c-.64.87-1.2 1.36-1.72 1.46.08-1.08-.33-2.15-.95-3.07-.08-.33.2-.61.56-.54.05-.61.38-.56 1.02.1.9.54 1.87.56 2.89.13l.03-.03Z" style="fill:#292622"/><path d="M47.13 52.63c.87.2.18.67-.49.95-.61.64-1.38.82-2.36.49 0 2-1.69 3.05-2.23.97-1.25.56-1.46.1-.54-.9v-.54c-.13.46-1.18.38-1.54 0-.74-.13-1.43-.31-2.05-.51 2.25-.79 6.89-1.05 9.19-.49v.03Z" style="fill:#54504f"/><path d="M54.3 95.14c0-1.2.97-1 1.56 0 .15-.46.31-.44.51 0 .23-.46.77-.46 1.02 0 .95-1.54 4.02-.61 5.63 0-.13-1.18 1.87-1.08 2.05 0 .77-.36 1.92-.56 2.56 0 .46.15.44.33 0 .51h-2.05c-3.66.44-7.58.41-11.27 0H50.7c.2-1.18 2.48-.9 3.59-.51" class="cls-104"/><path d="M77.89 52.09c.46.08.79.26 1.02.51.46.15.44.31 0 .51-.05.51-1.13.31-1.54 0l-2.05-.51c.08.51-3.53.85-3.71.79s-.26-.33-.33-.67c-1.18.23-2.2.2-3.1-.1-.44-.15-.44-.31 0-.51.36-.2.87-.36 1.54-.51l4.07.05c1.51 0 2.82.64 4.15.44z" style="fill:#423e3d"/><path d="M78.38 93.07v.51c.44.15.44.33 0 .51-1.38.15-2.69.69-4.1.51l-1.54.51h-1.56l-2.54.51h-1.02v-.51c-.26-.2-.1-.38.51-.51 0-1.25 2.33-1.25 2.56 0l1.49-.61c-.03-.46.1-.44.33-.03 1.41-1.02 4.35-2.25 5.86-.92v.03Z" style="fill:#383531"/><path d="M94.28 61.72v.61l-.54 1.02c.28 1.41-.64 2.66-.9 4.2-.26 1.36-.2 2.51-.51 3.69-.69.46-.87.05-.61-.67-1.49.05-1.13-.38 0-1.08l-.67-.15c.49-1.36 1-2.84 1.54-4.43-.44-.1-.44-.26-.03-.46.31-.51.46-1.15.41-1.9-.9-.67-.38-.82.77-.77l.56-.05h-.03v-.03Z" style="fill:#3a3532"/><path d="M96.77 57.24c0-.2.08-.44.03-.74a.47.47 0 0 0-.49-.33c-.31-.49.23-1.87 1.02-1.54.08-1.31.9-3.41 2.07-4.1.18-.36.36-.33.56 0 .31 1.59-1.61 4.43-3.18 6.66v.05h-.03Z" class="cls-191"/><path d="M33.33 74.6c.82.41.56.51-.28.69 1.2.18 1.92.64 2.1 1.41 1.9-.03 1.97 4.97 1.51 5.1-.23.08-.51 0-.82-.1-.18.46-.49.69-.95.72-.79-2.66-1.97-4.94-3.53-6.81-.23.61-.85.72-.79.44.18-1.38 1.13 1.05-.33 1.15 0 .82-.2 1-.64.56l-.36-1.13c.85-.69.44-1.92.36-2.89.49-.95 2.79.18 3.71.87h.03Z" class="cls-312"/><path d="M65.57 95.63c-.05.33-.44.54-1 .54h-9.3c-.54 0-.92-.2-1-.54h11.29Z" class="cls-226"/><path d="m92.31 71.22-1.1 3.94c-.56-.51-.69-1.28-.44-2.02-1.31-.77-1-1.64.92-2.59.23-.08.61.38.61.67Z" class="cls-367"/><path d="M52.25 94.61c.18-.97 2.79-.72 2.02.51-1.18 0-2.61-.33-3.59.49-1.02 0-2.28.28-3.05-.51.77-.26 1.64-.41 2.59-.46.38-.41 1.05-.44 2.02-.03Z" class="cls-226"/><path d="m82.48 52.6 2.05.54c.9-.15 1.84-.13 2.56.51.28.26.1.41-.51.49-1.38.41-4.07.03-5.15-.95-.87-.2-.87-.41 0-.59z" style="fill:#34312f"/><path d="M36.38 53.12c.46.15.44.31 0 .51.46.15.44.31 0 .51-.13.44-1.1.33-1.54 0 .36.77-.95.82-1.54.46-.49-.03-.85-.18-1.02-.46 1.18-.72 2.71-1 4.1-1v-.03Z" style="fill:#4d4b49"/><path d="M50.23 52.09c.87 0 1.95-.23 2.54.51-.36.44-1.79.67-2.05 0 .03.72-.97.79-1.54.51-.15.46-.31.44-.51 0q-.225.66-.54 0c-.44-.15-.44-.33 0-.51-.28-.15-.26-.31 0-.51z" style="fill:#4f4b4a"/><path d="M88.57 53.6c.64.23 1.1.59 2.18.61-.26.59-.72.54-1.08.44 0 .79-.64.67-1.02 0l-1.02-.51c0 .9-.54.67-1.02 0l.51-.49c.41 0 1.08-.18 1.46-.03v-.03Z" style="fill:#211f1c"/><path d="M27.69 52.6c.38.61.13.87-.51.51-.79.05-1.64-.1-2.56-.51-.46-.15-.44-.31 0-.51-.28-.23-.1-.41.51-.49.92 0 1.9.33 2.56 1" style="fill:#463f3f"/><path d="M37.94 53.12c.72 0 1.61-.15 2.05.51-.15.46-1.18.38-1.54 0-.28.59-.92.74-1.02 0-.36.28-.77.41-1.02 0v-.51h1.54Z" style="fill:#464341"/><path d="M32.28 54.14c.44 0 .87.08 1.02.46-.61.67-2.18.97-3.1.56v-.51c-.08-.26.1-.44.54-.51z" class="cls-262"/><path d="M90.67 77.19v1.02l-.51.51c-.15.44-.33.44-.51 0-1.36-.13-1.31-.61 0-1.02.08-.61.26-1.13.54-1.54.15-.33.33-.33.51 0 .46.1.23.61 0 1.02h-.03Z" class="cls-132"/><path d="M48.67 94.61c.2-.41 1.25-.36 1.59.05-.79.49-1.64.46-2.59.46h-.51v-.56c.41-.33 1.05-.31 1.51.05" class="cls-104"/><path d="M30.72 79.75c-.1.46-.28.44-.49 0l-.51-.51-.1-1.49.64-.56c1.43-.15 1.84 2.05.49 2.56z" style="fill:#302b29"/><path d="M79.91 52.6h1.54v.59c-.28.74-1.54.54-2.05-.05h-.51v-.51c.1-.49.61-.2 1.02 0z" class="cls-132"/><path d="M71.21 95.12c-.59.72-1.69.49-2.54.51.59-.72 1.66-.51 2.54-.51" class="cls-245"/><path d="M31.87 84.87h-.61l-.51-1.02v-1.02c.15-.46.33-.44.54 0 1.56-.31 1.87 1.18.59 2.05Z" style="fill:#2d2925"/><path d="M31.25 81.8c-.15.44-.31.44-.49 0-.15.46-.33.44-.54 0v-2.05h.49c1.46 0 1.54 1.13.54 2.05" style="fill:#2d2928"/><path d="M24.13 51.61h1l-.51.49c-1.23 1.61-3.51-1.1-.49-.49" style="fill:#24201f"/><path d="M79.91 52.6h-1.02c-.44 0-.87-.08-1.02-.51.69-.1 1.61-.15 2.05.51Z" class="cls-38"/><path d="M46.11 95.12c-.56 0-1.25.05-1.54-.51.56.05 1.25-.18 1.54.51" class="cls-58"/><path d="M89.65 81.8c0-.56-.05-1.25.51-1.54 0 .56.05 1.25-.51 1.54m1.02-4.61v-1.02c-.33-.15-.33-.33 0-.51h.51c.1.56.05 1.25-.51 1.54Z" class="cls-123"/><path d="M30.59 63.9c.69.15 1 1.31.18 1.51-.61.18-1.13-.36-1.54-1.59-1 .31-1.84.15-2.54-.46l-.56 1.56c-.41-.46-.64-.92-.59-1.56.61-.2.92-1.08.49-2.38 1.92.26 3.61 1.2 4.56 2.92" style="fill:#3f3a36"/><path d="M88.65 86.36c-.2-.44 0-1.36.49-1.49 0 .54.03 1.2-.49 1.49" class="cls-123"/><path d="M74.28 94.61c-.28.59-.95.51-1.54.51.28-.59.97-.59 1.54-.51" class="cls-226"/><path d="M30.23 79.75v.51c-.41-.18-.49-.59-.51-1.02.26.08.51.26.51.51" class="cls-342"/><path d="M93.74 63.36c-.08-.38.13-.9.54-1.02 0 .41-.1.87-.54 1.02" class="cls-190"/><path d="M30.74 82.83c-.49 0-.54-.59-.51-1.02h.54c.41.13.38.77 0 1.02z" class="cls-342"/><path d="M90.16 79.24v-.51c0-.23.28-.44.51-.51 0 .44-.08.87-.51 1.02" class="cls-123"/><path d="M28.21 53.12v.51h-.51c-.51.41-.72.15-.51-.51l.51-.51z" style="fill:#26221e"/><path d="M89.13 83.85c-.33-.15-.33-.33 0-.51 0-.23.26-.44.51-.51 0 .44-.08.87-.51 1.02" class="cls-123"/><path d="M96.36 58.8c-.08-.44.08-.87.46-1.08.03.44-.23.74-.46 1.08" class="cls-191"/><path d="m30.74 54.14-.51.51h-.51c.18-.44.59-.51 1.02-.51" class="cls-73"/><path d="M89.13 83.85v.51l-.51-.51c-.44-.15-.44-.31 0-.51h.51z" style="fill:#272421"/><path d="M31.71 86.95c-.36-.26-.46-.72-.46-1.15.49 0 .67.77.46 1.15" class="cls-342"/><path d="M79.43 93.58c-.2.49-.61.46-1.05.51v-.51z" class="cls-228"/><path d="M31.25 84.9c-.49 0-.51-.61-.51-1.02.44.15.51.61.51 1.02" class="cls-342"/><path d="M48.16 52.6h-.51c.03-.23.28-.51.51-.51z" class="cls-93"/><path d="M51.74 78.22c-.74.23-1.59.38-2.56.51-.05 1.25-1 .85-1.74.1-.31 1-.72.92-.82-.13-1.31-.61-2.33-.44-3.1.59.46 2.48 1.1 4.94 1.9 7.35.87 1.46 2.3 2.43 4.3 2.92.92.92 1.92 1.51 3.02 1.74l.13.69c-.1.28-.2.51-.33.51-1.79.03-6.48-.38-8.09-.9-.15-.05-.23-.26-.31-.51h-.59c-.1-.33-.41-.69-.46-.97-.1-.49.51-.64.77-.56s.85.26 1.46-.31c-.79-.72-1.87-.46-2.82-.79l-1.23-.92c.59-2.18.44-4.1-.49-5.76-.23-2.25.28-4.92 2.77-4.61.18-.15.33-.26.51-.26.85.05 7.2.56 7.5.79.13.08.15.28.15.51h.03Z" style="fill:#453b37"/><path d="M31.38 75.6c1.66 1.64 4.05 6.94 3.89 9.19-.13 1.61-.9 1.82-2.41 1.59l-.54-.13-.44-1.38c-.2-.67-.23-1.43-.59-2.05-.44-.1-.38-.72 0-1.02-.36-.61-.41-1.36-.54-2.05l-.49-2.56.1-2.13c.38.31.67.49 1.02.51l-.03.03Z" class="cls-342"/><path d="m42.01 76.68 1.02.51c.1-.49.28-.49.54-.03-1.59.59-1.77 1.28-2 2.77-.2 1.49.28 2.2.59 3.59.33 1.43-.74 3.48.33 4.92-.69-.26-1.79-.31-2.02-.87-.33-.77.05-2 .95-2.38-.33-.31-.59-.61-.59-.85s.54-.77.44-.9l-1.43-1.69c-.03-.05.1-3.1 1.13-3.97-.28-.31-.44-.49.05-.61v-.51c.15-.2.33-.2.51 0 .15-.44.31-.44.51 0l-.03.03Z" class="cls-232"/><path d="m41.42 91.66 4.84.08c.87.03 1.18.31.9.82.15 1.08-.85.51-1.54 0-.1.44-.61.77-1.51 1.02l-7.66-1.61c-.03-.13-.03-.36.05-.44-.67-.18-1-.85-.49-1.41.18 0 .49-.2.61-.28l4.71 1.05.1.74-.03.03Z" class="cls-300"/><path d="m37.12 83.36-.08.41.54 2.74c-.05.56.92 1.36.1 2.02-1.02.85-4.76-.28-5.38-2.28.18-.08.44-.05.54.13.82-.13 1.61-.36 2.38-.69-.41-1.79-.18-2.87.64-3.28.69-1.05 1.13-.74 1.25.95Z" class="cls-312"/><path d="M37.2 77.29c.54.36.56.85.49 1.64l-.54 4.43-1.25-.95c-1 0-.97-.41 0-.72.33-.26.54-.74.41-1.08-.95-2.13-.36-2.97-1.1-3.94.54-.51 1.77-.15 2.05.59h-.05v.03Z" class="cls-348"/><path d="M43.57 91.05c.18-.08.38-.08.59 0 .18 1-1.84.74-2.74.59-1.59-.51-3.36-.74-4.81-1.79 2.28-.61 4.87.13 6.97 1.2" style="fill:#25201d"/><path d="M34.84 75.14c.46.08.61.26.51.54l2.56.49q.225-.66.54 0l1.54.51c.15-.44.33-.44.51 0l.51.51c.56.08.44.64-.05.61l-3.74-.51c-.67-.1-1.43-.26-2.05-.59-.67-.38-1.82-.41-2.1-1.41.44-1.41.9-1.2 1.82-.15z" style="fill:#322b28"/><path d="M35.99 90.12c.38.36.97.97.49 1.41l-1.05-.08-.67-.46c-1.08-.31-2.43-1-2.48-2.66l3.74 1.79z" class="cls-224"/><path d="M37.58 86.51c-1-.56-.72-1.84-.54-2.74.97.69.61 1.87.54 2.74" class="cls-348"/><path d="M35.43 91.46c-.23 0-.49-.36-.67-.46z" class="cls-300"/><path d="M87.57 60.21c.92-.2 1.49-.28 1.05.67l-4.1.82c-.1.28-.28.31-.51.13-.15.46-1.18.38-1.54 0-.46-.1-.82-.26-1.02-.51 0-.36.03-.61.13-.64 1.72-.44 4.51-.95 5.99-.46Z" style="fill:#99928e"/><path d="M66.08 62.34c1.38-.44 3.33-.44 4.61 0 .67-.46 1.43-.31 1.02.54l-.51.51h-.51c-.15.46-.31.44-.51 0-.36.28-.77.41-1.02 0-.49.44-1.97.41-2.56 0-1.05-.18-2.07-.36-3.05-.51-.46-.13-.46-.31 0-.51.08-.87 2.25-.77 2.56 0h-.03z" style="fill:#c8c5c1"/><path d="M77.38 61.82c.56-.49 2.51-.46 2.05.54-.26.28-.64.41-1.18.41-.13-.03-.28.03-.38.05-.08.31-.26.31-.49.05-.2.26-.56.38-1.05.41h-.9l-1.59-.49h-.36c-1.18 0-1.25-.38-.2-.95 1.15-.46 3-.41 4.1 0v-.03Z" style="fill:#cdcac5"/><path d="M66.08 63.92c1.64.33 3.2.33 4.66 0 .38-.2 1.1-.08 1.51-.05l.51.49c.15.03.36.05.51 0 .44.15.44.31 0 .51-.1.46-.61.23-1.02 0-.26.59-1.18.69-2.77.28-1.59.23-2.87.13-3.89-.28-.87-.23-1.38-.38-.51-1.02.08-.46.79-.41 1 .05v.03Z" class="cls-162"/><path d="M91.69 59.26c.79-.38.97-.28.51.51-1.13.56-2.36.85-3.59 1.1-.18-.46-.59-.64-1.05-.67-.28-.67 1.08-.9 1.59-.44.15-.2.49-.38 1.02-.51.74-1.25 1-1.51 1.54 0" class="cls-241"/><path d="M95.82 56.75c-.13.15-.31.38-.49.49-.2.54-.61.85-1.1.54-1.1-.36-1-.74.15-.56-.64-.56-1.02-1.08-1.15-1.54-.1-.2.1-.23.56-.08-.15-1.23.85-1.72 1.95-1.49q.27-.465.54 0c.38.61.23 1.49-.49 2.61z" class="cls-191"/><path d="M95.41 57.75c-.18 1.08-1.23 1.64-2.15 2-.28 0-.79-.05-1.02.03-.03-.23-.28-.51-.51-.51-.61-1.49 1.31-2.2 2.54-1.49.26-.28.79-.38 1.1-.54-.05.2 0 .38.08.51" style="fill:#7b726f"/><path d="M70.72 63.95c-1.41.74-3.25.77-4.66 0 .61-.49 2.3-.44 3.1-.05l1.02-.51h.51v.59h.03z" class="cls-110"/><path d="M77.87 64.9c.31.38 0 .59-.51.51-.44.46-1.08.87-1.92 1.18a7.8 7.8 0 0 0-1.15-1.69c.15-.2.33-.2.51 0h1.54l.51-.51h.51c.2-.05.38.1.51.51" class="cls-162"/><path d="M72.74 61.82c.15-.46.31-.44.51 0l.2.92-1.23.1h-.51c-.15-.44-.59-.51-1.02-.51-.46-.15-.44-.31 0-.51.28-.46 1.56-.38 2.05 0" style="fill:#b3afaa"/><path d="m97.33 54.65-1.02 1.54-.49.56c0-.9.23-1.77.49-2.61.15-.46.31-.44.51 0 .67-.67.74-.41.49.51h.03Z" style="fill:#6c6560"/><path d="m93.26 59.75 2.15-2c.54 1.18-1.05 2.05-2.15 2" class="cls-191"/><path d="M82.48 61.82h1.54q.39.225 0 .54h-3.07c-.36-.92.82-.92 1.54-.54Z" class="cls-190"/><path d="M79.4 62.34c-.05-.82 1.36-.74 1.54 0-.64.74-1.82.59-2.71.38.31-.28.74-.41 1.18-.41v.03Zm-4.61 2.56h-.51c-.05.54-.72.41-1.02 0v-.51c.56-.1 1.25-.05 1.54.51" class="cls-110"/><path d="M75.38 63.23c-.54.26-1.49.23-1.59-.46.56.05 1.1.2 1.59.46" class="cls-214"/><path d="M77.35 62.85c.31.15.31.31 0 .51l-1.08-.1c.28-.26.67-.36 1.05-.41" class="cls-190"/><path d="M72.23 62.85c-.15.41-.59.51-1.02.51.08-.23.28-.49.51-.51z" class="cls-214"/><path d="m76.33 64.9.51-.51zm-3.59-.51a.66.66 0 0 1-.51-.49c.26 0 .49.26.51.49m11.27-2.05v-.51l.51-.13c0 .31-.2.59-.51.64" class="cls-110"/><path d="M77.35 63.36v-.51l.49-.05c.13.36-.18.59-.49.56" class="cls-214"/><path d="m85.37 76.5.77.1.64 1.02c-.74 2.51-1.1 5.12-1.05 7.79.77-.9 1.56-1.08 2.41-.54l-.49 1.56-1.05 1.05-2.46 1.05c-.54.13-.74-.08-.59-.61-.49-.08-.46-.2 0-.38l.51-.67c-1.02.64-1.15.49-1.13-.72-.79-1.23-.72-2.61.26-4.17.08-1.36-.2-1.64-1.02-.36-1.18.92-2.41 1.51-3.66 1.79-2.23.13-1.28-1.74-.44-3.1v-.92c-1.02-.08-1.59-.46-1.72-1.18l-.2-.69c1.69-.49 3.48-.56 5.38-.28l3.84-.77z" style="fill:#4e4846"/><path d="M82.94 86.15c.36 0 1.05.28 1.13.72l-.51.67c-.05.1-.03.28 0 .38.23.33.08.74-.49 1.18-.23.13-.79.41-.87.2l-.49-1.49c-.44 1.9-2.05 2.71-3.87 2.82-.95 1.72-5.17.87-3.51-1.64-.46-.08-.49-.26-.1-.51-.2-.77-.03-1.05.61-.54.64-.61 1.2-.38 1.66.64 1.36-.82 2.18-.64 2.38.51 1.31-.64 3.23-2.82 2.02-4.07 1.31-1.79 1.97-1.41 2.02 1.13Z" style="fill:#3d342f"/><path d="m81.91 92.04-3.51 1.02-5.86.92c-.28-.28-.1-.72.59-1.25-.97-.23-.82-.61.2-.59l.46-1.08c1.77 0 3.46.18 5.12.51 1.51-.56 5.46-1.36 3.02.46h-.03Z" class="cls-228"/><path d="M77.81 90.61c.28.1.72.46 1.08.44.44.18.44.36 0 .56l-5.58.56c-.79.54-2.41.49-2.07-.61.72-2.25 1.74-3.1 3.07-2.56l1.08 1.69c.41.64 1.82 0 2.43-.08" class="cls-288"/><path d="M81.91 92.04c.13-.26.36-.44.36-.97-1.08.59-2.23.41-3.36.51v-.56c3.12-.2 6.43-1.05 8.99-3.56 1.72 2.15-1.9 3.38-5.97 4.56h-.03v.03Z" style="fill:#524d49"/><path d="m84.11 88.51-1.08.59c0-.46.15-.87.49-1.18.15.23.36.41.59.61v-.03Zm2.46-1.02c.15-.51.54-.9 1.05-1.05-.15.51-.56.85-1.05 1.05" class="cls-271"/><path d="M32.28 55.68c.36-.28.79-.38 1.02.03 1.25-.54 2.95.1 3.43 1.51 2.07 1.36 4.41 2.2 6.99 2.54.1-.97.54-.95.82 0 .9.05 1.92.15 1.54 1.1-.26.92-2.28.56-3.07 0l-1.54-.56c-.38.95-2.69.2-3.56-.08-2.38-.05-3.28-2.36-5.28-2.23-1.59.1-2.69-.9-2.92-2.3.69-.36 2.15-.67 2.56.03v-.03Z" class="cls-142"/><path d="M32.79 60.8c1.31.67 2.69 1.2 4.1 1.54.46.13.46.31.03.54.44.15.44.31 0 .49-.23.61-.79.95-1.66.95.41 2.82-.85 6.22-3.51 3.15-.49.13-.82-.2-1-1.05-.59-.15-.64-.9 0-1.02 0-.49 0-1.13-.18-1.51l.61-.54c.72-.1.87.97.51 1.56.41.05.59.38.54 1.02l.54.05c.1-1.56-.23-3.12-1.02-4.69-.46-.13-.44-.31 0-.51.15.03.36 0 .51 0 .15-.44.31-.44.51 0l.03.03Z" style="fill:#25211f"/><path d="m41.5 60.26 1.54.56h3.07c1.23-.23 2.61-.15 4.17.23 1.43-.2 2.59-.13 3.51.28.05.28.1.49 0 .56-.54.41-3.84.31-4.61-.1-1.13.9-3.87.54-5.15 0l-2.05-.51c.08.77-1.25.64-1.56 0l-2.02-.51c0 .87-.82.82-1.02 0l.54-.61 3.56.08h.03v.03Z" style="fill:#2e2a27"/><path d="M37.4 60.8h1.02l2.02.51H42c.41.08.59.26.51.51q.66.225 0 .54c-1.74.31-3.61.13-5.63-.51-.38-.1-.54-.28-.51-.51-.46-.15-.44-.33 0-.51h1.02v-.03Z" style="fill:#96908d"/><path d="M34.84 54.14c.41.08.56.26.51.51.46.15.44.33 0 .54.18 1.2-1.31.46-2.05 0l-1.02.51h-2.56c-.05-.38.23-.46.49-.51l3.1-.56 1.54-.46v-.03Z" class="cls-73"/><path d="m27.16 53.12.51.51c.31.08.51.18.51.51l.51 1.02c-.08.38-.26.54-.49.51-.69-.1-1.33-.64-1.95-1.64l-1.66-.97v-.46c.9-.08 1.95-.1 2.56.51Z" style="fill:#8d8582"/><path d="m35.86 60.8-1.02.51c-.41.46-1.1.28-2.05-.51h-.51c-.13-.23.05-1.08.23-.97l.87.41c.82.41 2-.08 2.51.56" class="cls-143"/><path d="m31.28 60.29.51.51v1.05c-.69.64-1.28-.26-1.05-1.02-1.08-.77-1.25-1.31-.49-1.56-.23-.15-.23-.33 0-.51.49.41.82.95 1.02 1.54" style="fill:#86817d"/><path d="M30.23 58.75v.51c-.72.95-1.56-1.23-1.54-2.05-.2-.69-.18-.85.51-.51.64.49.97 1.25 1.02 2.05Z" style="fill:#8b8580"/><path d="m29.2 56.7-.51.51c-.61.23-1.13-.59-.51-1.02.08-.38.26-.54.51-.51.31.26.49.61.51 1.02" style="fill:#9a9390"/><path d="M35.86 60.8h.51v.51c-.13.41-.64.2-1.02 0-.15.44-.33.44-.51 0 .15-.41.59-.51 1.02-.51" style="fill:#9a9591"/><path d="M28.69 55.68c0 .28-.23.49-.51.51-.49-.13-.49-.28 0-.51 0-.28.23-.49.49-.51.05.13 0 .36 0 .51h.03Z" style="fill:#b8b1ae"/><path d="M31.77 60.8c-.2-.08-.44-.28-.51-.51.23.08.49.28.51.51" class="cls-229"/><path d="m28.18 54.14-.51-.51h.51z" class="cls-86"/><path d="M25.23 57.52c.46-.33.67-.08.51.49.15.74 1.23 1.77 1.43.72-.05-.64.38-1.13 1.02-1.05.79.13 1.97 1.9.9 2.25-.36.77-1.31 1.23-2.28.67l-1.64-.92c-.79-.44-1.61-1.05-1.61-2 .61-.18 1.15-.23 1.64-.2v.05h.03Z" class="cls-175"/><path d="M28.21 55.68c0 .15-.05.38 0 .51l.51 1.02c.38.79.69 1.66 1.54 2.05 0 .54.23 1.08.49 1.56-.15.38-.49.2-1-.51l-.61-.33c.13-.9-.26-1.64-.9-2.25-1 .97-1.41.26-1.02-1.02-.59-.49-.92-1.18-.97-2.07-.56-.1-1.18-.51-1.59-.97v-.56c1.74-.05 2.59 1.28 3.61 2.61" class="cls-86"/><path d="M26.18 54.6c.15.23.15.44-.1.59-.74.74-1.84-.1-2-1.05-.46-.15-.44-.31 0-.51h.51c.82 0 1.18.44 1.59.97" class="cls-41"/><path d="M25.23 57.52c.08.49-.33.72-.64.54-.33-.18-.67-.26-1-.33v-1.02c.15-.87 2.02-.05 1.64.82Z" style="fill:#746f6a"/><path d="m23.08 50.99-.13.92c.44.41.97.79 1.64 1.13.44.18.44.36 0 .56-.15.36-.31.36-.51 0l-1.02 1.02c-.54.44-.77.18-.77-.49l-.26.28c.69.69 1.2 1.61 1.51 2.79.44.15.44.33 0 .51 1.28.54 1.82 1.2 1.61 2 .38.79.2.97-.56.54-1.25-.56-1.69-1.9-2.46-3.23l-2.05-3.61c-.56-1-.23-2.25.82-2.64.56-.2 1.38.05 2.13.15s.05.05.05.05Z" class="cls-41"/><path d="M24.13 51.61c-.38 0-.74 0-1.1.33.77.31 1.18.18 1.59.18v.51c.46.1.44.26 0 .46-1.18.03-2.48-.38-3.89-.77.77-1.23 1.84-.67 2.36-1.31.44.05.97-.08 1.05.59Z" class="cls-249"/><path d="M23.08 54.65c.59.41 1.38 1.77.51 2.07.28.15.28.33 0 .51-.82-.67-1.23-1.84-1.51-2.79l-.51-.49c.28.41.69 0 .28-.28l.46.49c.15.18.51.41.77.49" style="fill:#56514d"/><path d="M24.08 53.63v.51c.64.67.33.95-.46.49-.13.49-.33.49-.56 0-.1-.36-.08-.79.28-.97.2-.1.56-.03.74-.03" class="cls-249"/><path d="M86.55 73.53c.28.38.33.79.2 1.25l-5.2 1.25c-1.38.61-2.82 1.02-4.3 1.18l-.38-.51c-1.13-.59-.51-.77.51-1.02.41-.2.92-.38 1.54-.56 1.97-1.1 5.4-1.82 7.66-1.56h-.03z" class="cls-210"/><path d="M81.55 76.04c-.44.64-1.15.69-2.2.77.64.64 1.46.41 2.2.46-3.1.61-4.84.23-5.17.97-.36 1.33-1.56 1.31-3.61 0-.69.49-1.46.33-1.02-.51.13-.44.77-.38 1.02 0 1.1-.44 2.3-.77 3.59-1.02.15-.44.33-.44.51 0l4.69-.67Z" style="fill:#48413e"/><path d="M90.8 73.14c-.92.33-1.74.95-2.69.95l-1 .59-.36.08c-.23 0-1 .08-1.18-.33-.1-.23.64-.28.97-.9.23-.41.38-.38.54.08l1.08-.51c.18-1.31 3.25-2.05 2.64.05" class="cls-123"/><path d="M88.11 74.09c-.18.38-.59.51-1 .59.08-.51.54-.56 1-.59" class="cls-210"/><path d="M90.67 76.17h-.51v-.51h.51z" class="cls-367"/><path d="m81.43 53.19 5.15.95c.28.05.72.03 1.02 0l1.02.51h1.02c.41.41.97.51 1.54.51.67.67.38.9-.51.51-.2.46-1.38.67-1.54 0l-1.59-.44c-.2.41-.36.38-.51-.08l-1.49-.51c-.15.49-.36.46-.54 0-.15.31-.33.28-.51 0 .2.97-.61.87-1.05.1l-.67-.28c-2.33.46-3.64.2-3.97-.72-.23-.33-.05-.54.56-.61.61 0 1.41-.05 2.02.05h.03Z" class="cls-122"/><path d="M96.82 49.99c.44.18.44.36 0 .56-.15.38-.31.38-.51 0-.15.33-.33.33-.51 0l-1.02-.51h-1.54l-.51.51c-.49.28-.9.61-1.33 1.08-.33-.54-.2-.85-.2-1.1 1.51-1.31 3.92-1.46 5.63-.54Z" style="fill:#8a837f"/><path d="M93.23 55.68c.26.36 1.64.64 1.15 1.54-.97.97-3.43.33-3.71-.97-.46-.15-.44-.36 0-.56l.51-.51h.51l1.54.51Z" style="fill:#645e5b"/><path d="m93.82 55.6-.56.08c-.56.08-1.15-.08-1.54-.51a.9.9 0 0 0-.08-.54l2.2.97h-.03Z" style="fill:#464442"/><path d="M95.79 50.56q-.225.495-.54 0l-.49-.51c.44 0 .87.08 1.02.51" class="cls-325"/><path d="M96.3 50.56c.46.15.44.31 0 .51h-1.05v-.51z" class="cls-165"/><path d="m92.72 50.56.51-.51c-.15.18-.31.38-.51.51" class="cls-325"/><path d="M29.23 63.82v.56c-.28.61-.67.67-.85.1-.08-.23 2.3 3.56.26 4-.15.28-.33.28-.54.03-.49-1.33-.61-2.92-1.43-4.12-.44-.28-.26-.61 0-1.02 0-.23-.1-.51.1-1.05l2.41 1.51h.05Z" style="fill:#5e5955"/><path d="M45.11 65.2c-1.15.85-2.46 1.74-3.87 2.69-1.18 1.9-1.25 3.07-.23 3.56.44-1.08 1.66-.85 3.66.72.08.38.1.67.05.69-.82.31-3.02.64-3.94.31l-.08.44c-.2.31-.64.36-1.31.1-.56.77-3.69.13-4.84-.23-.49-.15-.92-.41-1.23-.85-.49-.2-.44-.41.05-.56l.33-.28c-1.51-.1-2.82-.69-3.94-1.79-.15.46-.31.46-.54 0-.77.26-.95.08-.51-.51v-.51c.18-1.36.64-1.31 1.02 0l.51.49c.15-.46.31-.44.51 0-.13-1.13-.13-2.15 0-3.07.31.31.79.64 1 1.05 1.51.38 2.25 1.23 2.18 2.54 2.79.61 4.17.92 4.17.92-.92-5.97 1.13-7.02 6.68-6.35.13 0 .26.28.33.61v.05h-.03Z" class="cls-20"/><path d="M31.25 73.09c.15-.44.31-.44.51 0 1.41.2 1.92.72 1.54 1.51l-3.71-.87-.38-.64v-.51c.38-.51 1.08-.33 2.05.51Z" style="fill:#7c7573"/><path d="M29.74 69.99c3.15 1.77 2.2 1.97-.54 1.56-.31 0-.54-.2-.51-.51-.51-.61-.23-1.41.51-1.02h.54z" class="cls-241"/><path d="M29.2 70.02c-.26 0-.49.1-.51.28v.74c-.41 0-.59-.38-.51-.74.05-.31.2-.59.51-.79z" class="cls-68"/><path d="M30.25 72.07c1.1.18 1.46.51 1.02 1.02l-2.05-.51.49-1.02c.41-.2.59.08.51.51" class="cls-20"/><path d="M26.69 64.39c.05.33-.2.59-.54.54-.15-.61 0-1.23.56-1.56 0 .28-.1.77 0 1.02h-.03Z" style="fill:#211c1b"/><path d="M33.38 72.07c-.79.67-2.2.67-3.12 0-.15-.15-.33-.38-.51-.51h-.51c-.1-.36.2-.44.33-.38.41.1.72.38 1.56.33 0-.79-.95-1.08-1.38-1.51l3.74 1.51c.9-.23.92.87-.13.54l.03.03Z" class="cls-68"/><path d="M29.61 73.73c-.28-.1-.38-.33-.38-.64.31.08.36.33.38.64" class="cls-20"/><path d="M28.72 69c-.2 0-.51-.28-.59-.49h.54c.46.1.49.28.05.49" class="cls-68"/><path d="M45.6 92.56c1.13.26 1.97.77 2.56 1.51.18-.44.36-.41.54.03.44.13.41.31-.03.49-.44 0-1.13.15-1.51-.05-.95-.44-2.05-.74-3.07-.97l-.61-.92 2.15-.1h-.03v.03Z" class="cls-58"/><path d="M30.74 60.83c.28.41.56.82 1.05 1.02.59.56 1.38 2.33.64 3-.1.56-.38.61-.67.1-.23-.46-.28-1.1-.51-1.56l-1.49-3.07c.28.15.79.28 1 .51" style="fill:#47433f"/><path d="m41.5 54.14.54.9q.885.39 1.38 1.59c1.51.38 2.41 1 2.66 1.84 1 .23 1.87.67 2.59 1.31 1.38 0 2.05.36 2.02 1-1.92.2-3.97-.15-6.15-1.08-.26.08-.61 0-.82 0-3.07-.28-11.91-3.61-4.81-4.79.05 0-1.18.46-1.02-.31-.51-.67-.23-.92.51-.51.54-.46 2.28-.38 3.07 0" class="cls-291"/><path d="M39.96 53.63h1.54v.54h-3.07c-.46-.15-.44-.33 0-.54h1.54Z" style="fill:#9a928f"/><path d="M41.5 54.14v-.54c.44.1.23.41 0 .54" class="cls-122"/><path d="M63.11 93.53c.28.54.23 1.08-.08 1.59H57.4c-.46-.41-.59-.36-1.02 0h-.51c-2.59-1.08 0-1.31 1.69-1.41 1.15-1.1 4.61-1.38 5.58-.18z" style="fill:#aca7a3"/><path d="M49.69 93.07c.15-.44 1.2-.41 1.54 0 1.74.2 3.43.38 5.12.51.15-.41 1-.36 1.18.13-.59 0-1.15.69-2.18.49l.49.92h-1.56c-.41-.67-1.31-.54-2.02-.51-1.25-.15-2.43-.31-3.56-.49h-.54c-1.33-.44-1.41-1.18 0-1.05.15-.44 1.18-.36 1.54 0Z" style="fill:#837e7c"/><path d="M66.85 94.5c-.49.26-1.1.46-1.79.61h-2.05l-1.66-.92c.92-.18 1.38-.26 1.77-.67.13-.44.28-.41.41.05.26-.18.54-.2.85-.2 2.1-.1 6.33 0 2.48 1.15v-.03Z" style="fill:#b6b1ad"/><path d="M66.85 94.5c.51-.26 1.1-.51 1.28.1-.03.23-.28.51-.51.51h-2.56c.38-.56 1.13-.67 1.79-.61m-9.47.62h-1.02c0-.9 1.05-.87 1.02 0" class="cls-226"/><path d="m75.3 52.6 2.05.51h2.07l-.56.64-.36.56-3.69-.67c-.69.33-1.2.67-1.54 1 .18.77-.36.51-.95.1-.03 1-.44.95-.61-.08l-1.56-.56c.23.9-1.49.61-1.92 0-1.31-.51-.72-.74.44-1 .79-.31 1.66-.46 2.61-.41l4.07-.1h-.05Z" style="fill:#8f8a86"/><path d="M68.16 52.09v.51c-.13.44-.77.38-1.02 0-2.61.44-6.04.46-8.71 0-.23.49-1.59.41-2.05 0-.1.44-.74.38-1.02 0v-.51h12.81Z" style="fill:#7d7774"/><path d="m68.13 52.6 3.1.1c-.85 0-1.61.41-2.61.41-.41.67-1.28.79-1.54 0-.46-.15-.44-.31 0-.51z" style="fill:#bebab6"/><path d="M77.35 53.12c-.72 0-1.61.15-2.05-.51.74 0 1.61-.18 2.05.51" class="cls-38"/><path d="M73.1 92.74c.15.05.56.44.46.59-.2.23-.87.54-1.02.67h-.33l-1.49.64h-2.56l-1.28-.1c.26-.41.56-.51 1.31-.72l-4.64-.23c-.31-.82 0-.9.72-1 2.56-.41 6.53-.59 8.89.18h-.05v-.03Z" style="fill:#8d8884"/><path d="M72.21 94.02c-.1.69-.92.61-1.49.61.31-.51.92-.56 1.49-.61" class="cls-245"/><path d="M98.87 50.56h.51l-2.07 4.1-.49-.51c-.64-.49.26-1.84 1.02-2.05-.51-.28-.72-.92 0-1.02v-.51c.15-.38.31-.38.51 0 .18.28.36.28.51 0" class="cls-33"/><path d="m33.3 73.09.51.51c.72-.56 1-.28.51.51h.51c.1-.46.28-.49.54-.05 2.61.9 1.59 1.77-.54 1.08l-1.82.15c.38-.18.33-.56.28-.69-.31-.69-1.02-1.02-1.54-1.51.15-.44.31-.44.51 0 .31-.31.77-.38 1.02 0Z" class="cls-20"/><path d="M35.86 81.7v.72c.03 1.56.72 3 .36 4.53-1.43-.64-2.61.33-3.36-.56 3.18-.67.56-6.33-1.49-10.81.33.05 1 .15 1.38.36.36.2.2 1.02.49 1.56.38.72 1.28 1.36 1.25 2.33 0 .97.51 1.64 1.33 1.84h.03v.03Z" style="fill:#5b5653"/><path d="M98.87 50.56c-.15.28-.33.28-.51 0h-1.02c-.15.46-.31.44-.51 0V50c.13.05.38.13.54.08.54-.18 1.41-.18 1.51.49" style="fill:#b3aca9"/><path d="M90.8 73.14c-.64-1.05-1.79-.26-2.64-.05l-1.08.51-.54-.08c-2.48.77-5.02 1.49-7.66 1.56-1.38.46-3.82.77-4.64-.38 2.05-.33 3.89-.82 5.56-1.51l.49.51 7.09-1.38c-.77-.92.33-.85 1.23-.69l3.07-1.05c-.72.69-.59 1.69-.92 2.59h.03v-.03Z" class="cls-16"/><path d="M52.25 94.61h-3.61v-.49c1.2.05 2.66-.33 3.59.49" class="cls-239"/><path d="M38.42 53.63v.51c-.23 0-.49.28-.51.51-.08.95-1.41 1.18-1.54 0-.36.28-.79.41-1.02 0-.23 0-.46-.26-.51-.51h1.54l1.02-.51z" style="fill:#928c89"/><path d="M37.4 53.63c-.15.44-.59.51-1.02.51v-.51z" class="cls-291"/><path d="M52.77 52.6h3.59q.66.27 0 .54c-1.08 1.05-4.15.79-5.63.46-1.08 0-1-.72 0-1h2.05Z" style="fill:#b2aba7"/><path d="M50.72 52.6v1c-.23.36-.77.46-1.61.26-.26-.26-.18-.54.08-.74.41-.44.95-.51 1.54-.51" style="fill:#9f9895"/><path d="M49.1 53.86c3.23.26 5.79.03 7.71-.72.15-.49 1.25-.41 1.61 0 .77.31.67.69-.28 1.2-.15.82 0 1.43.46 1.82 2.28.69 4.61 1.33 6.97 1.92v.72c-2.66.51-6.22-.31-8.99-.95-1.92.82-4.48 1.84-6.43 1.33l.18-1.33c4.53-1.87-3.28-1.92-.44.13l-.2 1.2c.31.26.15.46-.49.64h-.51c-.36-.97-1.33-1.2-2.66-1.61.38-1.41 1.61-2.28 1.25-3.87.41-.13.82.05 1.64.38.15-.56-.18-1.08-.26-1.59h.51c0 .15.05.38-.08.74v-.03Z" class="cls-93"/><path d="M88.62 54.65c-.44 0-.87-.08-1.02-.51.44-.03.87.1 1.02.51" class="cls-140"/><path d="M31.28 82.83h-.54v-1.02h.49v1.02z" style="fill:#292524"/><path d="M52.87 91.97c.15-.49.28-.44.44.08l4.07.49c.15-1.18.54-1 1.05.03.46.97-1.33 1.02-2.07.51-.92.41-2.64.41-3.59 0-1.08-.18-2.07-.33-3.05-.51-.15.44-1.18.36-1.56 0-.33.97-.79 1.05-1.02 0-.74-1.05-2.77.05-5.74-.9.95.31 2.02-.41 2.74-.59 2.69.2 5.86 1.41 8.71.9h.03Z" style="fill:#312b28"/><path d="M48.16 75.65c.23.15.23.33 0 .51.13 1-4.79.18-4.56.18 2 .03 5.02.15 6.61.87 1.49-.36 3.94-.44 5.12.46.44.15.44.33 0 .51-.46.85-2.87.64-3.61 0-1.28-1.05-4.12 0-8.17-1.05-.13-.03-.38 0-.54.03l-1.02-.51h-.51c-.85-.23-2.1-.64-1.13-1.28.33-.23 6.99-.46 7.79.26h.03v.03Z" class="cls-95"/><path d="M51.74 78.22h3.61c.15-.44 1.18-.36 1.54 0 .28-.46 1.56-.38 2.05 0 .79.38.46.72-1.02 1.02-.15.38-.33.36-.51 0l-3.59-.05c-1.54 0-3.02-.54-4.61-.46.61-.77 1.69-.51 2.56-.51" class="cls-232"/><path d="M51.23 89.46c1.25.23 2.59.41 3.94.54 2.25.51 1.95 1.18-.87 2.05-.13.26-.46.26-1.02 0-.08-.08-.31-.1-.44-.08-1.64-.79-2.97-.38-3.15-2.43z" class="cls-200"/><path d="M44.57 74.58c1.1-.41 1.97-.38 2.56.05 1.69.2 3.38.36 5.12.51.44-.67 1.46-.67 3.07 0 1.56.2 3.1.36 4.61.51.15-.44 1.18-.36 1.54 0 .44.15.44.31 0 .51-.49.44-1.95.38-2.56 0-2.77.44-6.27.38-9.22 0 0 .79-.82.77-1.02 0l-.51-.51-7.68.15c.56.41.87.59 1.02.87h-1.54l-1.54-.51h-.54l-2.56-.49-.51-.54c.41 0 .85.18 1.59-.2-.46-.28-.85-.49-1.05-.87l.49-.44c2.95.87 5.86 1.2 8.73.95Z" class="cls-312"/><path d="M43.03 77.19c-.41.05-.87-.1-1.02-.51.41 0 .87.1 1.02.51" class="cls-312"/><path d="m41.01 77.19-.51-.51h.51z" class="cls-269"/><path d="M47.13 92.56h1.02c.44.15.44.31 0 .51-.44.23-.36.74 0 1.02-1.05-.05-2.1-.54-2.56-1.51h1.54v-.03Z" class="cls-239"/><path d="M37.91 76.17c-.87-.03-1.92.2-2.56-.49.87-.13 1.97-.23 2.56.49m2.05.51c-.56 0-1.25.05-1.54-.51.56 0 1.25-.05 1.54.51" class="cls-269"/><path d="M80.3 73.71c-2 .38-3.94 1.18-6.04 1-.36.61-1.2.61-1.51-.05-.23-1.05 1.18-.9 2.02-.54.31-.72-.67-.97-2.89-.85-1.25-.64-.69-1.56.67-1.18 1.95.05 3.2-.44 3.71-1.49-.59-2.23-.23-3.61 1.1-4.17v-.54l1.28-1.08c-.61 3.12.9 5.94-.92 7.58l3.74.36c-.72.31-1 .49-1.18.92" class="cls-320"/><path d="M93.69 61.77c-.9 1.33-.15 2.95-1.15 2.66-1.97-1-4.02 4.51-2.02 2.89.1-2.28.77-3.1 2.05-2.43l-.87 4.61c-.49 1.1-2.82 1.77-4.1 1.54 0 .92-.85.9-1.02 0-.15-.28-.26-.54-.15-.67.61-.95 1.18.2-.77.28-1.15.1-1.72.41-1.66.87.38-.15.79-.31 1.08 0 1.28-.15 2.07.08 2.38.74-.51.85-5.76 2.13-6.66 1.97-.18-.03-.31-.28-.44-.56-.87-.46.74-1.18.85-1.18.64-.05-1.82 1.61-2.51.13-1.82.13-2.05-.1-.74-1.43-.36-2.28-.64-4.41.77-6.38-.31.28-.56.31-.77.05-.36-.2-.33-.54.05-1.02h.38c2.05-.23 4.15-.36 6.25-.41l7.89-2.48c.51-.15.9-.18 1.13.1.1.15.15.49.13.67l-.08.05Z" class="cls-190"/><path d="M84.55 63.46c-2.07.67-4.12.33-6.25.38.2-.44.9-.51 1.56-.54l4.69.15Zm-6.68 1.44c-.33.08-.59-.18-.51-.51l.56-.51z" class="cls-110"/><path d="M92.54 64.44c0 .13.1.41.03.46-1.15.61-.74 2.48-1.25 3.07-1.1 1.25-2.95 1.31-4.23 1.33 1.64-1.05 1.66-2.46 2.15-3.87s2.46-1.97 3.36-3.02v2.05h-.05v-.03Z" style="fill:#7b7370"/><path d="M91.72 70.56c-1 1.54-2.02 1.9-3.07 1.05-1.08.38-1.41.18-1.05-.56l4.1-1.54v1.08h.03v-.03Z" style="fill:#756d69"/><path d="M85.63 70.66c0 .54-.56.85-1.66.87-1.54.38-3.12.64-4.69.33.82-.46 1.41-.72 1.54-1.15.13-.41-.41-.9-.79-1.54-.18-.51.69-1.59.13-2.43-1.13.03-.77-1.46.18-.77l6.58-1.13c-.26 3.25-4.99 3.53-2.84 5.33.41.33.87.41 1.54.49h.03Z" style="fill:#413936"/><path d="M87.6 71.04c.28.28.64.44 1.05.56l-1.23.69c-.85-.08-1.72-.2-2.38-.74.72-.87 1.23-1.02 1.54-.51z" class="cls-320"/><path d="M86.57 71.04c-.49.26-1 .41-1.54.51-.33-.03-.74-.1-1.08 0 .41-.41 1.38-.23 1.66-.87-.1-.97 1.51-.97 1.95-.36-.56.23-.85.44-1 .72Z" class="cls-16"/><path d="m83.5 72.32.26-.26.26.26-.26.26z" class="cls-320"/><path d="M77.35 65.92c-.46-.15-.44-.31 0-.51.23-.08.44-.26.51-.51l.77-.05c-.44.51-.79.9-1.28 1.08" style="fill:#8b827e"/><path d="M88.62 59.26h.51c.46.13.46.31 0 .51-.61-.23-1.15.36-1.59.44l-6.12 1.1c-1.08.72-2.43.72-4.1 0-1.33.15-2.69.31-4.1.51h-.51c-.46-.15-.44-.31 0-.51-.33-.15-.33-.31 0-.51.03-.67.82-.69 1.02-.03 3.43-.38 6.79-.97 10.09-1.77l.56.64c1.97-1.43 3.36-1.56 4.2-.38" style="fill:#37332f"/><path d="M81.45 61.31c.44 0 .87.08 1.02.51-.61 0-1.13.05-1.54.54h-1.54c-.44-.72-1.33-.54-2.05-.54-.46-.13-.44-.31 0-.51h4.1Z" style="fill:#a9a4a0"/><path d="M64.7 61.26c.26-.97.67-.92.87.05 1.56-.69 3.97-.33 5.63 0 .13-.41.77-.36 1.02 0 .15-.33.33-.33.51 0v.51h-2.05c-1.49.15-3.02.33-4.61.51h-2.56c-4.76.54-9.55.54-14.34 0q-.66-.225 0-.54c1.54 0 3.28.44 4.61-.46 0-.28.05-.49.15-.54 2.28-.77 8.35-.15 10.73.46h.03Z" style="fill:#322e2a"/><path d="M63.52 62.34v.51c-1.77.44-4.33.41-6.17 0-.92.15-1.95.33-3.05.51-.15.44-1.18.38-1.54 0-1.31.33-2.66.15-4.1-.49-.67-.72-.36-.92.51-.51h14.34v-.03Z" style="fill:#b2afac"/><path d="M54.3 63.36c.95-.31 2.25-.51 3.07 0 2.77-.44 6.25-.41 9.22 0h2.56c.46.15.44.31 0 .51l-3.1.05c-.26-.15-.72-.05-1-.05l-.23.51-5.92-.51c-.69.95-4.38.95-5.12 0-.38.28-.79.44-1.02 0-.46-.15-.44-.33 0-.54h1.54z" class="cls-116"/><path d="M63.55 62.85c1.02 0 2.28-.31 3.05.51h-9.22c-.46-.13-.46-.31 0-.51z" style="fill:#f6f5f2"/><path d="M70.69 61.82v.51h-4.61c.05-.33.44-.54 1-.54h3.61z" class="cls-254"/><path d="M70.18 63.36c-.15.44-.59.51-1.02.51v-.51z" class="cls-162"/><path d="M77.35 61.31v.51h-4.1c-.05-.2.05-.54.49-.54h3.61z" class="cls-124"/><path d="M65.57 64.9h6.66l1.02.54 1.28.82c-.44 1.61-.85 3.23-1.23 4.87.69 1.18-2.02 1.92-2.54-.13 2.18-4 .08-5.66-6.3-4.94-.54 1.36-2.43 1.25-2.97 0-.46.15-.82.1-1.08-.1.54-.61 1.59-.95 3.1-.97l.51-.05c-.03-.85 1.08-.64 1.54 0v-.03Z" class="cls-116"/><path d="m65.06 63.87.51 1.02h-1.54l-5.07-.33-.05-.67h6.15v-.03Z" style="fill:#46413d"/><path d="M73.26 64.9h1.02c.79.72 2.1 1 3.07.51v.51c-.08.31-.15.54-.51.51-.15.46-.31.44-.51 0l-.51.51c.74.33.31 1.33-.51 1.02.23.72.33 1.69-.51 1.56-1 .69-1.36.08-1.1-1.05.69-1.25 1.15-2.33-.44-3.05-.44-.05-.82-.13-1.02-.54h1.02Z" style="fill:#4b413e"/><path d="M90.67 56.24c1.23-.05 2.43.36 3.71.97-.36.05-.31.41-.15.56-.69.77-1.74.87-2.54 1.49h-1.54c-.38.28-.79.41-1.02 0h-.51c-1.51-2.2-.51-3.84 2.05-3.02" class="cls-304"/><path d="M90.16 59.26c-.1.38-.67.64-1.02.51v-.51z" class="cls-75"/><path d="m97.84 52.09-1.02 2.05h-1.05l1.05-2.05c.15-.36.31-.36.51 0 .15-.46.31-.44.51 0" style="fill:#524f4b"/><path d="M82.94 86.15c-.2 0-.74-.36-.64-.51s.46-.77-.41-.85c.33 1.69-.05 2.54-1.28 3.41l-.69 1c-.26.36-.61.05-1.02-.1.85-1.13 1.61-2.13 1.95-3.51-1.33-.38-1.69-1.36-2.33-2.15.2-1.41 1.97-1.84 3-2.56.46-.33.87-2.07 1.92-1.41 2.18 3.05-.56 3.92-.49 6.68Zm.59 1.39c.13-.23.31-.46.51-.67.05.33-.13.69-.51.67" class="cls-271"/><path d="M89.65 77.7v2.05c-.72 1.05-1 2.33-1 3.59v.51c-.26.28-.38.67-.51 1.02-.92.46-1.59 1.33-2.59 2.33-1.41-1.61-.72-3.25-.61-4.99.13-2.15.28-3.87 1.23-5.61l.49-.49 1.43-.51c1.79-1.25 2.3-.54 1.56 2.1" class="cls-123"/><path d="M90.16 79.75v.51l-.51 1.54v1.02l-.51.51c-.15.44-.31.44-.51 0-1.77-.51-.79-4.12 1-3.59.15-.44.33-.44.51 0h.03Z" style="fill:#2c2926"/><path d="M90.16 79.24v.51h-.51c-1.36-.18-1.31-.64 0-1.02h.51c.2.15.2.33 0 .51" style="fill:#2a2623"/><path d="M90.16 75.65c.36.15.36.31 0 .51 0 .56-.1 1.15-.54 1.54l-.05-2.61c-.56.41-1 .51-1.51.49.46-.15.85-.85 1.41-.95.51-.08.79.54.67 1h.03v.03Z" class="cls-210"/><path d="M86.62 76.12c.03.33-.23.54-.49.49l-.77-.1 1.25-.38Z" class="cls-271"/><path d="M87.29 84.54c-.08.33-.77.49-.95.36-.26-.18-.2-.56-.18-.97l.51-6.48c.59-.18 1.25-.18 2.41.05l-1.77 7.04h-.03Z" class="cls-33"/><path d="m68.59 91.61 2.66-.08c.56.54 1.33.69 2.07.61l-.2.59-7.58.28c-.82.03-1.66-.03-2.02.54l-.41-.05-5.58.18-1.18-.13c-.44-.15-.44-.31 0-.49.77 0 1.41 0 2.07-.51-.72-.61-.51-.77.56-.46.05-.54 1.49-.36 2-.03.77-.44 2.07-.36 2.87 0-.13-.92.9-.95 1 0 1.2-.13 2.07-.59 2.56-1.36l1.15.9h.03Z" class="cls-40"/><path d="M50.72 60.8c.15-.46.33-.44.51 0l1.54-.51c.26-.67 2.28-.77 2.56 0l.51-.49c1.64-.56 7.73-.54 9.17.31.26.15 0 .77-.31 1.15l-10.88.08c-2.64.1-5.15 0-7.71-.51-.38-.54-.92-.87-1.54-1.1 1.82-.64 3.02 1.08 6.15 1.08m-12.78-6.16c.51 0 1.05-.23 1.64.46-1.02.46-1.87.51-2.71 1.28 2.46 2.74 7.2 1.51 6.89 3.36-6.48 1.05-8.3-3.97-10.42-4.02-.46-.15-.44-.33 0-.54h2.05l1.02-.51h1.54v-.03Z" class="cls-254"/><path d="M43.03 60.83c-.59 0-1.23.08-1.54-.56.59 0 1.23-.08 1.54.56" class="cls-196"/><path d="M33.3 55.17v.54h-1.02c.15-.46.59-.54 1.02-.54" class="cls-291"/><path d="M36.91 63.36c5.61.33 11.24.51 16.88.51h5.12c1.31 1.2 3.82-.18 5.12 1.02-.15 0-.36 0-.51.05-4.99.44-10.04.54-15.11.33-1.31.26-2.41.23-3.3-.05l-4.12.13c-1.38.05-2.2 1.23-2.05 2.61l.46 4c-2.61.15-5.15-.64-7.66-1.69.56-.41.9-.41 1.56-.49-.72-.69-1.15-1.46-1.56-2.33.59.46 2.48.41 2.48-.56v-3.87c1.02 0 2.05.03 2.69.31z" class="cls-253"/><path d="M34.84 61.31h.51l1.54.54 5.63.51c1.69-.28 4.87-.51 6.15.49 1.36.1 2.77.49 4.1.49v.54c-.23.49-1.54.33-2.05 0-1.54-.18-3.07-.33-4.61-.49-1.56.36-4.94.44-6.12-.56-1.08-.15-2.1-.33-3.07-.49-1.49.03-3.28-.2-4.1-1.54l2.05.51z" class="cls-170"/><path d="m39.99 62.82 6.12.56 4.61.49h3.07c-.31.74-1.25.56-1.97.51l-8.27-.49c-2.36-.13-4.61.31-6.66-.54v-.49c.54-.56 2.13-.31 3.05-.03h.05v-.03Z" style="fill:#241f1c"/><path d="M32.28 65.95c-.26-.56-.2-.95.13-1.13l-.64-3v-.54c2.74 3.1 1.41 6.91.54 5.4-.1-.18 0-.56-.05-.77l.03.03Z" class="cls-229"/><path d="M30.79 65.41v1.02c-.05 1.25.33 2.36 1.61 2.84-.77.49-1.25.23-1.64.23-1.56-.74-1.77-3.53-1.56-5.1v-.56l1.59 1.59v-.03Z" class="cls-68"/><path d="M39.99 62.82h-3.05l-.03-.49c1.05-.03 2.28-.28 3.07.49" class="cls-253"/><path d="m32.28 65.95-.54-1.02.67-.1c.08.33-.15.74-.13 1.13Z" style="fill:#76726f"/><path d="M44.06 61.82h5.15v.51c-.23 0-.49.28-.51.51l-6.15-.49v-.54c.15-.51 1.05-.23 1.54 0h-.03Z" style="fill:#999492"/><path d="M40.47 61.31c-.72 0-1.61.15-2.02-.51.72 0 1.61-.15 2.02.51" class="cls-196"/><path d="M44.06 61.82h-1.54c-.23 0-.49-.28-.51-.51.72 0 1.61-.15 2.05.51" class="cls-170"/><path d="M36.38 61.31c.23 0 .46.28.51.51-.56-.05-1.25.03-1.54-.51h1.02Z" class="cls-143"/><path d="M36.38 54.65c-.15.44-.59.51-1.02.51v-.54h1.02z" class="cls-291"/><path d="M26.08 55.68c.46.13.46.31.05.54-.05.56.13.74.51.49.15-.46.31-.44.54 0 .92 1.08.13 2.02-1.05 1.49-.2.36-.33.28-.38-.15l-.51-.49-1.64-.82-.51-2.07c.15.05.41 0 .56 0 .82.31 1.61.67 2.46 1.05l-.03-.03Z" class="cls-327"/><path d="M28.21 57.7c0 .59-.44 1.1-1.02 1.05-.15.46-.33.44-.51 0l-.54-.59c.64-.36 1.23-.72 1.05-1.49l1.02 1.02Z" style="fill:#272220"/><path d="M26.64 58.75h.51l1.05.77c-.44.38-1.02.36-1.59.08s-.97-.79-.87-1.56l.38.15.54.59-.03-.03Z" style="fill:#78736e"/><path d="M27.18 56.7h-.54c-.51.44-.72.18-.51-.49l-.05-.54c-.46-.1-.44-.26 0-.46l.1-.59c.49.61.97 1.23.97 2.07h.03Z" style="fill:#25201e"/><path d="M74.25 74.71c1.41.77 3.07.46 4.64.38-.28.64-.95.59-1.54.56-1.08.64-2.46.69-4.12.2l-1 .28-.23.51c-2.2-.13-4.35-.31-6.45-.51-.49.44-1.95.38-2.56 0-.46-.13-.44-.31 0-.51 3-.46 6.07-.79 9.25-1.02.13-.49.31-.49.51 0 .41 0 1.13-.15 1.51.05" style="fill:#5b5451"/><path d="m77.35 75.68-.51 1.02h-.51c-.72.36-1.23.36-1.54 0-1.18.05-2.02-.13-2.56-.54.05-.33.41-.54.97-.54h4.15v.05Z" style="fill:#776f6d"/><path d="M71.72 77.7c.15.46.59.51 1.02.51v.49c.2.97-.2 1.02-.59.08l-.56.92c-1.69-.51-3.53-.85-5.51-.97-1.46.2-3 .38-4.61.51-.08 1-.49 1.05-.82.1-1.23.64-1.82.61-1.74-.1-.41.23-.79.44-1.02 0l1.02-1.02c4.25-.2 8.53-.38 12.81-.51Z" class="cls-95"/><path d="M71.21 77.19c-.08-.79 1.31-.77 1.54 0 .46.15.44.31 0 .51h-1.02l-2.56.46-10.22.05H56.9c-.46-.15-.44-.31 0-.51.1-.82 2.25-.77 2.56 0l.51-.51c3.23.33 6.45.38 9.68.13.18-.64.97-.44 1.56-.15v.03Z" class="cls-265"/><path d="M74.79 76.7h1.54c-1 .74-2.36 1-3.59 1v-.51c-.13-.9 1.28-.72 2.05-.49m13.37-3.61c-.18.44-.64.59-1.08.51.2-.46.61-.41 1.08-.51" class="cls-210"/><path d="M97.33 52.09h-.51l-.51-1.02c.74-.59 1.49.2 1.02 1.02" class="cls-145"/><path d="m83.5 54.78 1.05-.1c.18.31.33.28.51 0 .13 0 .41.1.54 0l1.49.51c.79.51.97 1.2.23.74 1.84 1.38.9 2.61-2.87 3.71-3.59.33-7.04 1.51-10.65 1.13.23-.56.82-.92 1.74-1.08 1.23-.13 2.51-.26 3.69-.56 3.76-.97 6.25-2.46.67-3.97.38-1.15 2.54-.9 3.61-.38Z" class="cls-26"/><path d="M78.86 53.76c2.79.82 4.53-.08 4.64 1.02-.87.1-1.95-.46-3.12.23 1.54.51 3.15.31 4.71 1.31-3.2 4.56-8.14 2.61-11.32 4.46h-1.02c-.15.36-.33.36-.51.03-.13.41-.74.36-1.02 0-.13.41-.74.36-1.02 0l.2-.64 4.92-.87c.18-.41.79-.44 1.02 0 .41-.28.92-.44 1.56-.51.33-.51.79-.92 1.43-1.25 2.36.08 1.79-.72-1.74-2.36-1.46-.28-2.38-.79-2.79-1.51 1.31.05 2.82-.28 4.05.1h.03Z" class="cls-38"/><path d="M89.13 55.68h1.54v.54c-1 .03-2.07.59-2 2 .87-.23 1.61-.26 2.1.44-1.05 0-1.72.08-2.13.61l-4.2.38c.77-1.1 1.74-1.9 3.36-2.25l-1.05-1.02c-.38-.36.26-.87.33-1.2l.51.08 1.59.44h-.05Z" class="cls-75"/><path d="M89.13 55.68c-.56 0-1.18 0-1.59-.44.54.05 1.33-.15 1.59.44" class="cls-26"/><path d="M87.06 55.17c-.54-.03-1.2 0-1.49-.51.44-.26 1.61-.1 1.49.51m-2.54-.52h.51c.08.61-.59.61-.51 0" class="cls-38"/><path d="M97.33 50.56c.31.08.51.18.51.51v1.02h-.51c-.15-.46-.54-1-1.02-1.02v-.51z" style="fill:#2f2b27"/><path d="M29.2 64.39c1.02 1.51 1.13 3.36 1.56 5.1h-.51l-.51-.49h-1.02c0-.18 0-.36-.05-.54l-.23-3.25-.26-1.02c-.15-.56.23-.23 1.05.2z" style="fill:#6b6662"/><path d="M30.25 69.51c-.23 0-.44-.26-.51-.49.23 0 .46.28.51.49" class="cls-68"/><path d="M33.38 72.07c-.08.13-.08.38-.05.56-.2.18-.54.33-1.02.46h-1.02l-1.02-1.02h3.12Z" class="cls-312"/><path d="M74.79 59.24h.54c-.87.97-3.33.26-5.12 1.56-1.56.05-3.1.2-4.61.51l-.87-.05c-.46-1-1.46-1.49-2.66-.97-2.18-.49-4.2-.54-6.17-.49l-.51.49h-2.56l-1.54.51h-.51l-2.02-1h.51c2.2-.36 4.38-.92 6.53-1.61 5.33.69 10.68 1.02 16.08 1.02 1.41-.54 2.38-.54 2.95.05h-.03v-.03Z" class="cls-358"/><path d="M48.16 52.6v.51c.36.97-1.33 1.41-1.54.46l.49-.95c.13.03.38-.03.51-.03.15-.23.33-.23.51 0h.03Z" style="fill:#363330"/><path d="M46.65 53.58c.41.15 1.18-.23 1.51-.46h.54c.28.56.69 1.05 1.2 1.51-1.97.72-2.82 1.82-2.56 3.28 1.28.59 1.74 1.23 1.36 1.9l-5.2-1.97c-1.25-.46-1.77-1.69-1.43-2.77.15.03.77.13 1.23.05.49-.08-.28-.56-.87-1.66 1.33-.69 3-.36 4.25.15" class="cls-122"/><path d="m43.29 53.63.26.26-.26.28-.26-.28z" style="fill:#b1a7a1"/><path d="M52.77 93.07h3.59v.51h-4.15c-.54.03-.92-.18-.97-.51.23-.36.74-.36 1.54 0" class="cls-239"/><path d="M52.77 93.07H49.7c-.44-.15-.44-.33 0-.51 1.02 0 2.28-.28 3.05.51" class="cls-40"/><path d="M49.72 92.56v.51h-1.56v-.51z" class="cls-58"/><path d="M61.96 54.19c1.41 1.28 3.3 2 5.69 2.13v-2.15c.15-.46.33-.46.54-.03h1.92l1.56.56.61.08c1.66.31 4.2 2.05 1.64 2.95-3.89.46-8.4.97-12.24-.72-.13-.05-.15-.33-.15-.69-1.54-.44-2.64-.97-1.13-2.15-.05-.82 1.38-.74 1.56.03Z" class="cls-128"/><path d="m74.79 53.65 7.53 2.69c.05 1.08-.36 1.66-1.36 1.69-1.08.31-2.05.82-3.07.72-.46.23-.95.38-1.15-.13l-.31-.77c.92-1.41.15-2.46-2.3-3.12.15 1-.61.79-.87-.08-.36-.36-.82-.49-1.56-.79 1.02-.44 2.07-.26 3.1-.23v.03Z" class="cls-158"/><path d="M67.11 53.12h1.54l-.44 1h-.54c-.15.46-.36.46-.56 0-.15.46-.31.44-.51 0-1.13-.18-1.46-.54-1.02-1.02.15-.44 1.18-.36 1.54 0" class="cls-167"/><path d="M71.69 54.7c-.56-.08-1.25 0-1.56-.56.56 0 1.38-.1 1.56.56" class="cls-169"/><path d="M67.11 52.6v.51h-1.54c0 .77-.82.74-1.02 0-1.74.74-3.12.74-4.1 0 .05.82-1.77.85-2.02.05-.41-.18-.44-.36 0-.56h8.71z" style="fill:#e6e2df"/><path d="M58.4 52.6c0 .15.05.41 0 .56h-1.61c-.1.44-.28.44-.49 0v-.54h2.1v-.03Z" style="fill:#cbc5c2"/><path d="m97.84 51.07-.51-.51h.51z" class="cls-145"/><path d="M98.35 50.56h.51c.13.51-.54.69-.51 0" style="fill:#e0dbd7"/><path d="m33.3 72.63 6.07 1.05c.61 0 1.18.15 1.61.44.13-.28.28-.26.51 0l1.02.51c.15-.44 1.18-.38 1.54 0 .05-.44.23-.44.51-.05-2.92 1.1-6.25.15-9.19-.51l-.54.05h-.51c-.2-.13-.38-.31-.51-.51l-.51-.51h-1.02c.08-.46.61-.54 1.02-.46" style="fill:#352f2b"/><path d="M34.84 74.12h-.51c.15-.18.36-.13.51 0m-1.03-.51-.51-.51c.2 0 .41.36.51.51" class="cls-312"/><path d="M56.35 53.17h.49c1.59 1.23-4.1 2.02-7.71.72.51-.23 1.2-.08 1.59-.26 1.77-.79 3.74-.49 5.63-.46" style="fill:#756f6b"/><path d="m58.02 79.88.46.51c-.67 1.41-.61 3.07.23 5.02-.33 2.92.18 4.66 1.54 5.17l.72.97q.69.195 0 .54h-2c-.33.26-3.05-.79-3.12-.97-.13-.26-.08-.59.03-.95-1.54.1-2.23-.28-2.1-1.13-1.84-.85-2.59-3.05-.72-4.33l-.28-2c1.25-1.02 2.64-2 4.1-2.92h.51c.05-.49.38-.36.64.1v-.03Z" style="fill:#76716d"/><path d="M46.62 78.7c.18.13.61.15.82.13 1.23.26 2.2.82 2.87 1.66 1.23-.38 2.41-.82 3.48-1.31.49-.79 3.05-.74 3.59.05.46.15.46.33 0 .56-.15.44-.33.44-.51 0-3.1 1.43-4.71 3.51-4.84 6.22-.61.67-.74 1.49-.41 2.48 1.2.64.97 1.08-.38.97.13 1.33-1.05 1.13-1.54.08-3.25-.9-4.56-2.43-5.2-5.76-1.61-4.74-.92-6.43 2.13-5.07v-.03Z" style="fill:#66625f"/><path d="m46.62 78.7-2.28-.18.82 4.3c1.31 6.99 4.43 5.15 4.56 6.68-1.18 0-2.97-.33-3.87-1-1.54-1.13-1.38-2.51-1.79-3.64-.49-1.25-.95-2.69-.9-4 0-.56-1.2-1.61-.2-2.38s2.82-.59 3.71.18m2.51.07c1.33-.36 3.71-.44 4.61.46 0 .41-.03.87-.23 1.13-.23.31-.67.54-1.31.41-.85.26-1.74.82-2.28.67-.97-1.13-2.2-1.38-2.51-2.56l1.74-.1h-.03Z" class="cls-95"/><path d="M56.89 79.78c-.49 1.13-1.51 1.92-3 2.18-.36 1.08.1 1.92.28 2.97.05.38-.79.97-1.31 1.08l.95 3.02c-.28 1.41-2.25.92-2.18-.54-1.28-.33-1.84-1.9-2.25-3.1.92.51 1.38.85 1.84.77-.51-4.48 1.92-4.48 5.66-6.4" class="cls-307"/><path d="M46.98 80.47c-.79.1-1.77-.56-1.82-1.02.46-.38 1.33-.26 1.72-.18.41.08.44 1.18.1 1.2" style="fill:#75716d"/><path d="M58.91 79.24c.49.79-.26 1.38-.9.64l-.64-.1v-.56h1.54v.03Z" class="cls-307"/><path d="M56.86 76.68c1.36.15 1.31.64 0 1.02-.15.44-1.18.36-1.54 0-1.74 0-3.43-.38-5.12-.46-.46-.15-.46-.33 0-.56 1.95-.44 4.66-.41 6.66 0" style="fill:#928e8a"/><path d="M48.16 76.17c.15-.28.33-.28.51 0h1.02c.33.08.56.13.51.51v.56c-2.25-.08-4.41-.08-6.61-.87l4.56-.18v-.03Z" style="fill:#8a8682"/><path d="M48.67 76.17h-.51v-.51c.23 0 .49.28.51.51" class="cls-283"/><path d="M56.86 77.7v.51h-1.54v-.54h1.54z" style="fill:#56524e"/><path d="M53.28 74.14c1.23.15 2.43.33 3.59.49.31-.44 1.56-.38 2.07 0 .13-.44 1.18-.38 1.56 0 .74-.44 3.25-.59 3.05.54-.92.41-2.61.38-3.59 0-1.25.44-3.23.41-4.61 0h-3.07c-1.08-.15-2.1-.33-3.05-.51.51-1.15 2.87-.82 4.07-.51h-.03Z" style="fill:#84807d"/><path d="M55.84 74.12c-.67.41-1.51.41-2.59 0-1.36 0-2.97-.36-4.07.51-.26.49-1.49.33-2.07 0-.85 0-1.74-.13-2.56-.05l.1-.67 3.53-.13.23-.69c2.51.26 4.99.28 7.48 0 .15-1.08 1.13-1.38 2.07-1.05 3.64 1.25-.23 1.92-2.15 2.07h.03Z" class="cls-235"/><path d="M58.91 76.17c.46.15.44.31 0 .51.03.82-1.79.77-2.05 0H50.2l-.51-.51z" class="cls-95"/><path d="M61.47 76.17c.15-.44 1.18-.38 1.54 0h2.56c.46.15.44.31 0 .51-.44.51-1.84.33-2.56 0 .08.92-2.69.77-3.07 0-.46.59-.82.77-1.02 0v-.51h2.56Z" class="cls-131"/><path d="M68.65 74.6c.18-.44.36-.41.54.05.49-.26 1.15-.44 1.54 0 .15-.44 1.23-.38 1.54 0-.49.44-6.07 1-9.25 1.02-.15.44-1.18.38-1.54 0h-1.54c-.44-.15-.44-.31 0-.51h3.59c.72-1.08 4.02-1.41 5.1-.56h.03Z" class="cls-131"/><path d="M49.21 74.63c1.02 0 2.28-.28 3.05.51h-4.15c-.54.03-.92-.18-.97-.51zm10.73.51v.51H56.3c-.54.03-.92-.18-1-.51zm3.07.51v.51h-1.54v-.51z" class="cls-283"/><path d="M73.33 71.1c.1-.44.26-.44.41 0 1.43-.61 1.87-1.56 1.56-3.15l.51-1.02.51-.51h1.02c-1.08 1.18-1.2 3.1.13 4.46-1.87 1.64-3.82 1.41-5.81 1.97 2.54.44 4.76.05 6.97-.08l.41.72-4.28.59c-.85-.1-1.51-.28-2.02-.51-.49.26-1.15.44-1.54 0-.15.44-1.2.41-1.54 0-1.13-.18-1.46-.51-1.02-1.02v-.51c-1.54-.77-1.64-2.15-.31-4.15-2.02-.2-3.3-.82-3.84-1.87 3.38-.72 7.12-1.08 8.07.95.13.28.13 3.59-.95 4.1.03.44.9.59 1.2.38l.51-.38v.05Z" style="fill:#88807c"/><path d="M77.35 66.46h-.51l.51-.54z" style="fill:#998e8a"/><path d="M72.74 61.31h-.51c-.46-.15-.44-.31 0-.51h.51z" class="cls-124"/><path d="M70.18 60.8h1.02c.46.15.44.31 0 .51h-5.63c.13-1.28 1.41-.51 4.61-.51" class="cls-254"/><path d="M71.21 60.8h1.02v.51h-1.02z" style="fill:#403b38"/><path d="M57.38 62.85v.51h-3.05c.77-.79 2.05-.51 3.05-.51" style="fill:#d4d1cd"/><path d="m63.55 64.95-3.1.97c-.38.51-1.69.56-2.02-.08-2.13-.18-4.28.05-6.48.67l-.54-1.05c-.77.08-1.36.38-1.74.92-3.69-.2-6.4.69-8.17 2.69.59.95.1 1.61-.49 2.38-.28 0-.97.31-1.02-.36-.31-3.71 2.3-4.51 5.15-5.89l18.41-.28z" style="fill:#534c49"/><path d="M74.79 69.53c.87.51 0 2.1-1.05 1.59h-.41c-1.38-3.2 2.18-3.66-.05-5.69.61.05 1.77.2 2.1 1.02l-1.1 1.38c-.36.44-.13 1.43.51 1.69Z" style="fill:#635853"/><path d="m73.74 71.12 1.05-1.59c.26-.49.44-1.02.51-1.56.85.46.41 3.53-.15 3.74-.38.13-.74-.54-1.41-.59" style="fill:#ada5a0"/><path d="M75.82 66.95c.1-.23.28-.41.51-.51z" class="cls-320"/><path d="M76.35 78.24c1.05 0 2.41-.31 2.69 1.05.51 2.38-1.82 2.54-.54 4.15.36-.92 2.43 1 2.54 1.2.74 1.9-.56 3.71-2.15 4.46-.82-.28-1.77.28-2.59 1.02l-1.43-2.2c-.51-.05-.51-.23-.05-.51l1.33-.61c-1.41.36-1.95-.08-1.66-1.33-.9.74-1.31 1.79-1.25 3.15-.59.95-1.28 1.56-2 1.84-.26.23-.23.41.05.54.23.15.23.31 0 .51.23 1-2.43 1.02-2.66.08-.87-.87-.26-1.54 1.82-2 1.02-2.02 1.43-4.38 1.23-7.15.46-1.25.82-2.51 1.08-3.76-.46-.13-.44-.28 0-.49h3.61v.05Z" style="fill:#5d5754"/><path d="M74.46 85.49c.82.46.82.97 0 1.49l-.2 1.49.1.51c-1.25.56-1.95 1.74-3.07 2.56v-.51c-.31-.13-.31-.31-.05-.54l1.49-3.12c.44-.9.79-2.13 1.79-1.87h-.05Z" style="fill:#4c443f"/><path d="m76.12 86.82-1.33.61c0 .15 0 .38.05.51l-.61.54c-.79-.77-.1-2.1.23-2.97.54.13 1.25.79 1.66 1.33v-.03Z" style="fill:#2d2824"/><path d="M71.67 82.47c.31 3.1-.23 5.56-1.59 7.38l-.41-.31c-1.56-1.66-.69-4.79.49-6.74.87-1.43 1.18-2.69.9-3.71l1.13-.33.56-.08c.49-.05 1 .03 1.66.79-1.02.87-1.95 1.87-2.74 2.97z" style="fill:#7d7874"/><path d="M68.59 91.61c-1.25.03-2.43.64-3.74.46-.61-.41 1.13-1.56 1.69-1.87.18-.1.41-.1.64-.08-.51-.05-.41-.36 0-.72 1.31-1.31 2.13-1.28 2.46.13 2.56.08.38-4.79 2.02-7.07.46 2.05.64 4.89-.59 6.91l-2.48 2.23Z" class="cls-293"/><path d="M76.12 86.82c-.49.51-.87.61-1.33.61.03-.49.61-.64 1.33-.61" class="cls-288"/><path d="M71.26 91.02c-.51.18-.74-.51-.05-.54z" class="cls-293"/><path d="M60.68 79.34c.31.79 0 1.49-.92 2.07-.13 1.92.26 6.71 1.74 8.02 1.25 1.1 3.15 1.59 4.53.44q.465-.39.54.18c.26-.33.46-.33.64.08.15 1.23-1.2 1-2.33 1.95-.26-.03-.77-.13-1 0-.72-.13-1.69-.31-2.89-.54-.54 0-1.74.28-2.13-.38l-1.72-2.95c.51-.08 1.02-.33 1.18-.56.03-.05.28-2.48-.9-3.48-.41-.33-.85-.49-1.64-.46 1.97-1 1.25-2.87 2.25-3.79.2-.18.74-.26.9-.64l1.74.1v-.03Z" style="fill:#827c78"/><path d="M63.86 92.07c-.95.41-1.9 0-2.87 0v-.54l2.61-.1c.23 0 .36.46.26.64" class="cls-293"/><path d="M52.77 60.29c-.28.56-.97.51-1.54.51.28-.59.95-.51 1.54-.51m2.56 0c.03-.23.28-.49.51-.49-.03.23-.28.49-.51.49" class="cls-291"/><path d="M50.72 63.87h-3.61c-.54.03-.92-.15-1-.49l3.64-.05c.56 0 .92.18 1 .54z" class="cls-253"/><path d="M26.64 56.7c-.08.18-.18.41-.26.51-.15.18-.72-.05-.72-.2 0-.23.31-.54.46-.79l.51.49Z" style="fill:#655f5c"/><path d="M26.64 58.75c-.36 0-.61-.26-.54-.59z" class="cls-175"/><path d="M72.26 76.17c.87 0 1.95-.26 2.56.54l-2.05.49h-1.54c-.61-.1-1.1-.28-1.54-.51-.92.56-3.05.46-4.1 0v-.51h6.66Z" style="fill:#a7a29f"/><path d="M74.79 74.12c-.67.1-1.61-.26-2.02.54-.13 0-.41-.1-.51 0h-1.54c-.46-.15-.44-.31 0-.51.15-.33.31-.33.51 0l1.54-.51c.72 0 1.61-.15 2.02.51z" style="fill:#b7b1ad"/><path d="M61.47 79.24c.54-.36 1.41-.44 1.74.1.33.44.08 1.28 0 1.23-1.9-1.02 1.2-1.28.36.77-2.15 1.23-2.43 6.3 0 7.66 1.02.13 1.82.41 2.43.87-1.02 1.31-2.43 1.13-3.89.61-4.79-1.74-1.66-6.04-3.66-8.84.54-1.05 1.31-1.77 2.2-2.3z" class="cls-207"/><path d="M72.18 78.78c-.28 1.46-.92 3.02-2.02 4.02l-.67-.2c-.1-1.05-.2-2.15-.31-3.33-.79.38-1.77.36-2.56-.03-.15.44-.33.44-.51 0-.46-.15-.44-.31 0-.51z" style="fill:#7f7875"/><path d="M66.08 78.73v.51c.03 1.54-2.56 1.51-2.87.1l-1.74-.1c.05-.36.44-.54.97-.54h3.61z" class="cls-265"/><path d="M63.01 76.68c2.28.18 4.48.38 6.63.64-3.3.87-6.81.38-10.22.38-1.13-.56-.49-.77.51-1.02H63Z" style="fill:#cecbc8"/><path d="M58.91 76.68h1.02l-.51 1.02h-2.56v-1.02z" style="fill:#b4b1ab"/><path d="M71.21 77.19c-.51 0-1.08 0-1.56.15-1-.1-.97-.49.03-.67.56 0 1.23-.08 1.54.51" style="fill:#dbd7d4"/><path d="M77.92 58.75c-.36.54-1 .51-1.56.51-.9-.08-.92-.33-.05-.59.08-.46.23-.46.46-.03l1.15.13v-.03Z" class="cls-358"/><path d="m76.3 58.67.05.59h-1.56c-.64-.87 1.31-1.72 1.51-.59" class="cls-158"/><path d="M76.74 58.62h-.46c-.56.08-1.18.13-1.51.61l-5.61.61-9.73-1.02-10.22.97.49-.64c.13-.44.28-.44.46 0 3.56.18 5.84-3.1 6.94-2.15 1.18 1 6.48 1.92 8.48 1.77.41-.87 3.46-.82 4.74-.79.13 0 .28.13.41.28.82.26 1.72.36 2.51-.03.15-.44.44-.41.74-.05q1.38-1.8 0-2.79l.13-.67c1.9.18 3.74.56 4.81 2.33-1.13.33-1.77.85-2.18 1.56Z" style="fill:#76706c"/><path d="M60.45 53.12c1.36.2 1.28.69-.03 1.05-.38 1.08.1 1.77 1.13 2.15 1.02.1 2.38 1.13 3.87 1.18l8.55.23c.46.08.46.23.03.49l-.74.05c-.77.41-1.72.31-2.51.03-1.66.72-3.41.38-5.15.51-2.3-1.1-5.79-1.08-9.12-3.02.97-1.08 1.74-1.64 1.95-2.61l2.02-.05Z" style="fill:#95908c"/><path d="M63.01 54.14c1.18.41 3.28.92 4.1 0h.56c0 1.49 1.87 0 4.12 2.33-.92 1.59-2.41-.13-3.12-.08-2.64 1.28-6.22-.26-6.68-2.2.13-.46.31-.46.54-.03h.51-.03v-.03Z" style="fill:#d7d3cf"/><path d="m73.26 54.65.87.08 2.1 1.61c.15 1-1.51 1.79-2.23 1.84v-.49c-.05-.38.36-1.2-.1-1.61-.54-.49-1.33-.74-1.56-1.33l.95-.1z" class="cls-169"/><path d="M66.6 54.14h.51c.13.59.72 1.13.33 2.2-1.02-1.33-2.69-1.92-4.35-1.08-.31-.59-.13-.9-.1-1.13 1.15-.61 2.46-.77 3.59 0" style="fill:#e3dfda"/><path d="m65.57 53.12 1.02 1.02h-4.1c-.1-.56.56-.92 2.05-1.02h1.02Z" class="cls-128"/><path d="m64.55 53.12-2.05 1.05h-2.1v-1.05z" class="cls-167"/><path d="M40.7 73.58c0-.46.08-.44.31 0v.51c-.64.2-1.13-.33-1.61-.44l1.31-.1v.03Z" class="cls-312"/><path d="m53.79 89.05 4.17 1.87.23.87c.05.23.61.36.79.31l-.56.46h-1.05c-1.08-.15-2.07-.31-3.05-.51-.1-.36.1-.77.41-.9.28-.1 1 .23 1.18-.9l-3.66.56c-.67.1-1.08-.9-1.02-1.38l.38-.97 2.18.54z" style="fill:#665c56"/><path d="M54.33 92.04c1 .05 2.28-.28 3.05.49-1.36-.03-2.97.38-4.07-.49z" class="cls-40"/><path d="m53.02 89.43.26.31-.26.26-.26-.26z" class="cls-200"/><path d="M68.65 73.63c1.43.15 1.2.36 0 .97l-5.1.56c-.77-.79-2.02-.51-3.05-.54-.46-.13-.46-.31 0-.51.69-.33 2.07-.87 2.02 0l2.61-.44c.2-1.05 2.84-.92 3.53-.1v.05h-.03Z" style="fill:#f0efed"/><path d="M55.84 74.12c.46-.28.82-.28 1.02 0 .44.15.44.33 0 .51-1.18 0-2.61.33-3.59-.49h2.59-.03v-.03Z" style="fill:#a29d99"/><path d="M58.91 74.12c.46.15.44.31 0 .51h-2.07v-.51c.28-.46 1.64-.46 2.05 0" style="fill:#ccc6c2"/><path d="M59.94 74.12h.51v.51h-1.56v-.51c.15-1.36.64-1.31 1.02 0" style="fill:#eceae6"/><path d="m58.4 66.43.72.1c-.38.2-.85.41-1.25.85.79 1.46 1.64 2.64 1.9 4.2l-.1.77c-.05.33.51.2.72.31 3.43.46 2.23 1.1-.41 1.46h-4.1c.69-.79 1.87-.46 3.1-.67-.9-.59-2.15-.46-3.05-.36-1.66-.67-2.95-1.33-1.13-2.87-.74-2.05.97-4.1 3.12-3.79.1-.46.28-.44.49 0" style="fill:#89837f"/><path d="M65.57 76.68h4.1v.67l-5.66-.13c-.54 0-.92-.2-1-.54z" style="fill:#f3f2f0"/><path d="M62.5 72.58c1.54-.28 3.94-.64 5.12 0 .15-.46.31-.44.51 0h.51l1.02 1.02c-.18.61-.9.74-1.02 0-1.1 0-2.48-.26-3.53.1l-2.61.44h-2.54c.46-.49 1.1-.54 2.1-.64-.54-.44-1.18-.56-1.69-.79l2.15-.08v-.05h-.03Z" style="fill:#b8b2af"/><path d="M69.67 73.61h1.54c.46.13.44.31 0 .51h-.51l-1.54.51-.54-.05v-.97z" class="cls-66"/><path d="M72.77 73.61c-.28.56-.97.49-1.54.51v-.51z" class="cls-343"/><path d="m64.5 66.05 5.86.95c-1.36 1.33-1.79 2.74-2.18 4.46.9.18 1.38.18 2.13.85-.54.41-1.13.33-1.64.31-.15.46-.31.44-.51 0l-.49-1.02-.13.41c-1.66.26-3.33.46-5.02.61.15.74-.54.77-2.15.08-.92 1.23-1.59.51-1.97-2.15-1.77-2.51-1.51-3.84.74-3.97.69-.36 1.49-.54 2.38-.54.77-.2 2.23-.1 2.97 0v.03Z" style="fill:#bbb5b0"/><path d="m60.45 65.92 1.08.1c-.77.2-1.49.67-2.38.54-.36.15-.59.13-.72-.1-.64-.08-.64-.41.03-.61.56.26 1.41.08 2.02.08" class="cls-96"/><path d="M63.55 70.69c-1.08-1.15-1.41-2.43-1.87-3.53 2.3-.49 4.12-.72 5.74.72l-3.87 2.82Z" style="fill:#f1efeb"/><path d="M67.62 72.58H62.5c.67-1.08 2.87.08 5.15-1.02.36.31.38.82-.03 1.02" style="fill:#e0dad6"/><path d="M68.13 72.58h-.51v-1.02c.38-.18.74.69.51 1.02" style="fill:#c1b8b4"/><path d="m69.64 89.54-2.46-.13c-.46-.61-.82-2.46-.72-3.28.13-1.02 2.36-4.28 3.66-3.33l-.26 3.56c-.08 1.18.31 2.23-.23 3.18" style="fill:#8b8682"/><path d="M70.69 74.12v.51h-1.54c.28-.56.97-.49 1.54-.51" class="cls-343"/><path d="M73.26 58.26c-.41.79-2.2.77-2.51.03.67-.28 1.79.03 2.51-.03" class="cls-169"/><path d="M60.42 54.17c0 .82.41 1.64 1.13 2.15l-2.2-.2c-.49-.05-.85-1.02-1.05-1.84l2.1-.1h.03Z" style="fill:#ada7a3"/><path d="M50.15 59.19h-.46l-2.25-2c1.46-2.15 4.33-2.38 6.04-.46-.95 1.38-2.3 1.66-3.36 2.46z" style="fill:#ccc8c4"/><path d="M50.85 57.62c-.79.13-1.46-.77-1.72-1.28l1.84-.2c.36-.05.56 1.38-.13 1.51" style="fill:#e4e3df"/><path d="M65.11 73.71c-.85.28-1.61.44-2.61.44.59-.74 1.72-.64 2.61-.44" class="cls-66"/><path d="M57.91 66.43c-.67.51-1.82.87-2.38 1.69-.54.77.13 1.82.79 2.2l-2.1 1.56c.97.28 1.51.54 1.69 1.18h-.95c-3.92-.38-2.36-5.1.08-6.43.85-.67 2.07-1.08 2.87-.23z" class="cls-96"/><path d="M55.05 66.66c-1.61 1.95-1.72 5.43-1.31 5.69l1.25.74H53.5l-2.1-1.38c.49-3.12 2.87-6.45 3.66-5.07l-.03.03Z" class="cls-235"/><path d="M46.42 72.17c-.56-.1-1.23-.2-1.74 0 .08-.33-.44-.85-1.02-.9-1.02-.1-.77-1.59.28-1.05.95-.23 1.9-.13 2.28.46.23.36.28 1.02.23 1.51l-.03-.03Z" style="fill:#7c7a78"/><path d="m51.41 65.46.1 1.13c-1.08.51-1.13 1.56-.18 3.1-.87 2.15.15 2.74 2.15 3.38-.31-.61.18-.61 1.49.03-.08-.72.46-.46.95 0-.36.13-.79.59-1.56.59l-6.12.1-5.74-.59 1.61.92h-2.56c-.13-.2-.31-.38-.51-.51h-.31c-.23-.56-.77-.61-1.31-.85 1.95-.18 3.94.26 5.3-.61.28-1.49 1.38-1.38 1.74 0 .79-1.23.08-2.43-2.13-3.61-1.1.9-2.05 1.05-2.79.51-.33-1.28.54-1.64 1.51-2.13 2.89-1.49 5.43-1.77 8.4-1.49h-.05v.03Z" style="fill:#625c59"/><path d="M48.21 73.76c-1.2 0-2.48.23-3.64.79-.13.08-.36.05-.51.05q-.66-.225 0-.54c-5.51-1.1 3.23-1.66 3.56-1.43.36.26.49.69.56 1.08v.05z" style="fill:#86817f"/><path d="M44.08 74.12v.54h-1.54c-.46-.15-.44-.31 0-.51 0-.46.49-.49 1.54 0" class="cls-20"/><path d="M42.52 74.12v.51c-.44 0-.79-.15-1.02-.51-.03-1.02.87-1 1.02 0" class="cls-312"/><path d="M41.5 74.12c-.15 0-.36-.05-.51 0v-.51c.51-.15.67 0 .51.51" class="cls-20"/><path d="M58.43 65.85v.61h-.51c-1.13.28-2.1.36-2.87.23-2.28 1.1-2.97 4.12-1.56 6.4l-5.02-1.02 2.23-1.77c-.82-1-1.08-1.9-1.05-3.05 0-.74.92-1.33 1.74-1.79 2.28.23 4.84-.61 7.02.38" style="fill:#6c6461"/><path d="M46.42 72.17c-1-1.05-1.59-1.05-1.74 0-1.15.05-2.71-.54-3.66-.72-.46-.41-.56-.97-.28-1.43.2-.36.49-.69.77-.95l2.61-1.72c2.15.64 3.66 4.23 3.56 4.41-.31.49-.85.46-1.23.38z" style="fill:#6b6866"/><path d="M48.54 72.71c.1.08-.31.79-1.23.38-.23-.28.18-1.18 1.23-.38" class="cls-20"/><path d="M66.08 79.24h.51c.82.38 1.74.41 2.56.03l2.05.72c-1 .95-1.02 1.84-1.05 2.79-1.23 1.13-2.1 2.41-2.95 4.05.44.2 1.15.95.95 1.23l-.95 1.33-.64.64c-.15 0-.41.03-.54-.18-1.82.77-2.56.38-3.71-.54-2.56-2.1-.31-4.46-1.82-7.43 1.15-.33 2.02-.61 2.59-1.38-.41-.1-1.08-.38-1.05-.56.03-.26.69-.08 1.2-.64l2.87-.1v.05h-.03Z" style="fill:#aba49f"/><path d="m67.21 90.12-.64-.08c.03-.28.36-.59.64-.64-.1.15 0 .54 0 .72" class="cls-207"/><path d="M69.16 79.29c-.51.74-2.05.74-2.56-.03h2.56z" style="fill:#bdb5b0"/><path d="M62.52 88.05c-.26-.97.13-1.02.56-.1 1.51-1.25 2.02-1.84 2.33-4.05.05-.36.23-.54.61-.59.28-.85.28-1.72.05-2.59.9-.03 2.79 1.41 2.36 2.3-2.3 3.64-2.36 7.89-4.81 6.17-.36-.26-.92-.54-1.13-1.18l.03.03Z" style="fill:#c5c1bd"/><path d="M65.6 81.75c.23 1.66-.59 7.43-2.38 4.17-1.13-.54-1.08-4 .33-4.61.13 0 .31-.05.44 0 .72-.31 1.69-.44 1.61.44" style="fill:#f4f3f1"/><path d="M63.22 85.92c1.72.2 1.64 2.1-.13 2.05l-.56.1c-.54-1.69-.46-3.71-.46-5.76s1.08-.95 1.49-1c-.74 1.36-.67 3.1-.33 4.61m2.85-5.17c.64.51 1.1 1.1 1.54 1.92l-1.59.64c-.2-.41-.36-.95-.44-1.59-.51-.38-1.05-.28-1.61-.44.41-.74 1.46-.51 2.1-.54Z" style="fill:#dbd7d3"/><path d="m66.06 83.34-.79 4.76c-.9.26-1.51.05-2.15-.13.41-.69.28-1.33.13-2.05.38.08.97.05 1.56-.15.36-.1-.18-1 0-1.56.23-.79 1.1-1.54.85-2.48.54.41.54.92.44 1.59" style="fill:#eae8e6"/></svg>