<?xml version="1.0" encoding="UTF-8"?>
<svg id="Layer_2" xmlns="http://www.w3.org/2000/svg" version="1.1" viewBox="0 0 299.3 390">
  <!-- Generator: Adobe Illustrator 30.3.0, SVG Export Plug-In . SVG Version: 2.1.3 Build 182)  -->
  <defs>
    <style>
      .st0 {
        fill: #2e2b2a;
      }

      .st1 {
        fill: #8d837c;
      }

      .st2 {
        fill: #c8c1ba;
      }

      .st3 {
        fill: #35302d;
      }

      .st4 {
        fill: #474644;
      }

      .st5 {
        fill: #302e2b;
      }

      .st6 {
        fill: #7f7d73;
      }

      .st7 {
        fill: #2f2b2a;
      }

      .st8 {
        fill: #574d4b;
      }

      .st9 {
        fill: #66615e;
      }

      .st10 {
        fill: #272421;
      }

      .st11 {
        fill: #3b3735;
      }

      .st12 {
        fill: #7b736d;
      }

      .st13 {
        fill: #5b4e49;
      }

      .st14 {
        fill: #4d4442;
      }

      .st15 {
        fill: #383432;
      }

      .st16 {
        fill: #626361;
      }

      .st17 {
        fill: #37312e;
      }

      .st18 {
        fill: #383331;
      }

      .st19 {
        fill: #252221;
      }

      .st20 {
        fill: #6f6f6e;
      }

      .st21 {
        fill: #696763;
      }

      .st22 {
        fill: #46413d;
      }

      .st23 {
        fill: #c0b8b1;
      }

      .st24 {
        fill: #8a8280;
      }

      .st25 {
        fill: #4a4441;
      }

      .st26 {
        fill: #4d4743;
      }

      .st27 {
        fill: #363231;
      }

      .st28 {
        fill: #4b4744;
      }

      .st29 {
        fill: #655e5c;
      }

      .st30 {
        fill: #766861;
      }

      .st31 {
        fill: #251f1c;
      }

      .st32 {
        fill: #403c3a;
      }

      .st33 {
        fill: #3e3a37;
      }

      .st34 {
        fill: #504d49;
      }

      .st35 {
        fill: #6f6664;
      }

      .st36 {
        fill: #383330;
      }

      .st37 {
        fill: #574f4d;
      }

      .st38 {
        fill: #2a2725;
      }

      .st39 {
        fill: #887f7e;
      }

      .st40 {
        fill: #1d1c1b;
      }

      .st41 {
        fill: #827977;
      }

      .st42 {
        fill: #443e3b;
      }

      .st43 {
        fill: #736e6b;
      }

      .st44 {
        fill: #585753;
      }

      .st45 {
        fill: #534e4c;
      }

      .st46 {
        fill: #252220;
      }

      .st47 {
        fill: #a99b8f;
      }

      .st48 {
        fill: #615d57;
      }

      .st49 {
        fill: #a29891;
      }

      .st50 {
        fill: #1b1a19;
      }

      .st51 {
        fill: #4f504f;
      }

      .st52 {
        fill: #726760;
      }

      .st53 {
        fill: #6f6a67;
      }

      .st54 {
        fill: #342e2c;
      }

      .st55 {
        fill: #727370;
      }

      .st56 {
        fill: #b9a79d;
      }

      .st57 {
        fill: #867d79;
      }

      .st58 {
        fill: #89807d;
      }

      .st59 {
        fill: #534b48;
      }

      .st60 {
        fill: #423b38;
      }

      .st61 {
        fill: #6b6260;
      }

      .st62 {
        fill: #373230;
      }

      .st63 {
        fill: #a09c97;
      }

      .st64 {
        fill: #544d4b;
      }

      .st65 {
        fill: #6c6664;
      }

      .st66 {
        fill: #6b635e;
      }

      .st67 {
        fill: #1a1817;
      }

      .st68 {
        fill: #2e2b28;
      }

      .st69 {
        fill: #5b5652;
      }

      .st70 {
        fill: #82817d;
      }

      .st71 {
        fill: #10100f;
      }

      .st72 {
        fill: #1c1917;
      }

      .st73 {
        fill: #100f0f;
      }

      .st74 {
        fill: #99938e;
      }

      .st75 {
        fill: #3b3433;
      }

      .st76 {
        fill: #46403e;
      }

      .st77 {
        fill: #837a78;
      }

      .st78 {
        fill: #8d827b;
      }

      .st79 {
        fill: #897d75;
      }

      .st80 {
        fill: #625b58;
      }

      .st81 {
        fill: #433e3b;
      }

      .st82 {
        fill: #1c1b1a;
      }

      .st83 {
        fill: #372d2a;
      }

      .st84 {
        fill: #151413;
      }

      .st85 {
        fill: #474240;
      }

      .st86 {
        fill: #6b5a54;
      }

      .st87 {
        fill: #babeb4;
      }

      .st88 {
        fill: #45403d;
      }

      .st89 {
        fill: #7a7973;
      }

      .st90 {
        fill: #24201e;
      }

      .st91 {
        fill: #3c312d;
      }

      .st92 {
        fill: #090909;
      }

      .st93 {
        fill: #0c0c0b;
      }

      .st94 {
        fill: #7b7270;
      }

      .st95 {
        fill: #cfc8bf;
      }

      .st96 {
        fill: #60544e;
      }

      .st97 {
        fill: #93827a;
      }

      .st98 {
        fill: #2c2826;
      }

      .st99 {
        fill: #766e6a;
      }

      .st100 {
        fill: #413735;
      }

      .st101 {
        fill: #aca199;
      }

      .st102 {
        fill: #56534e;
      }

      .st103 {
        fill: #4b403c;
      }

      .st104 {
        fill: #655f5c;
      }

      .st105 {
        fill: #3b3633;
      }

      .st106 {
        fill: #a29e9c;
      }

      .st107 {
        fill: #afa9a6;
      }

      .st108 {
        fill: #645a55;
      }

      .st109 {
        fill: #33312e;
      }

      .st110 {
        fill: #605651;
      }

      .st111 {
        fill: #504e4c;
      }

      .st112 {
        fill: #392f2c;
      }

      .st113 {
        fill: #867f7b;
      }

      .st114 {
        fill: #605655;
      }

      .st115 {
        fill: #2a2726;
      }

      .st116 {
        fill: #a19c97;
      }

      .st117 {
        fill: #352c28;
      }

      .st118 {
        fill: #5d5754;
      }

      .st119 {
        fill: #373431;
      }

      .st120 {
        fill: #3a3533;
      }

      .st121 {
        fill: #777772;
      }

      .st122 {
        fill: #b8b0a8;
      }

      .st123 {
        fill: #2b2725;
      }

      .st124 {
        fill: #8c847c;
      }

      .st125 {
        fill: #69615d;
      }

      .st126 {
        fill: #171615;
      }

      .st127 {
        fill: #36302d;
      }

      .st128 {
        fill: #6e6966;
      }

      .st129 {
        fill: #9a908c;
      }

      .st130 {
        fill: #3b3734;
      }

      .st131 {
        fill: #7e726b;
      }

      .st132 {
        fill: #4c443e;
      }

      .st133 {
        fill: #2c2625;
      }

      .st134 {
        fill: #2c2623;
      }

      .st135 {
        fill: #3d3b39;
      }

      .st136 {
        fill: #494442;
      }

      .st137 {
        fill: #9e9a91;
      }

      .st138 {
        fill: #4b4341;
      }

      .st139 {
        fill: #262421;
      }

      .st140 {
        fill: #847976;
      }

      .st141 {
        fill: #a08f83;
      }

      .st142 {
        fill: #6b6461;
      }

      .st143 {
        fill: #ccc6be;
      }

      .st144 {
        fill: #5d5855;
      }

      .st145 {
        fill: #6a6360;
      }

      .st146 {
        fill: #d0cac3;
      }

      .st147 {
        fill: #0b0b09;
      }

      .st148 {
        fill: #242120;
      }

      .st149 {
        fill: #34312e;
      }

      .st150 {
        fill: #786c65;
      }

      .st151 {
        fill: #302a28;
      }

      .st152 {
        fill: #bbb6b3;
      }

      .st153 {
        fill: #322c2a;
      }

      .st154 {
        fill: #616361;
      }

      .st155 {
        fill: #312c2a;
      }

      .st156 {
        fill: #504b47;
      }

      .st157 {
        fill: #877f78;
      }

      .st158 {
        fill: #c9bcb3;
      }

      .st159 {
        fill: #33302e;
      }

      .st160 {
        fill: #9a8d87;
      }

      .st161 {
        fill: #bfbcb7;
      }

      .st162 {
        fill: #3c3633;
      }

      .st163 {
        fill: #6f6764;
      }

      .st164 {
        fill: #95877a;
      }

      .st165 {
        fill: #514946;
      }

      .st166 {
        fill: #736967;
      }

      .st167 {
        fill: #3d3936;
      }

      .st168 {
        fill: #2e2a27;
      }

      .st169 {
        fill: #484341;
      }

      .st170 {
        fill: #4c4743;
      }

      .st171 {
        fill: #46403d;
      }

      .st172 {
        fill: #4e4846;
      }

      .st173 {
        fill: #514947;
      }

      .st174 {
        fill: #97928e;
      }

      .st175 {
        fill: #2f2c2a;
      }

      .st176 {
        fill: #aca59c;
      }

      .st177 {
        fill: #33302d;
      }

      .st178 {
        fill: #5d524d;
      }

      .st179 {
        fill: #59524f;
      }

      .st180 {
        fill: #aca8a7;
      }

      .st181 {
        fill: #35302e;
      }

      .st182 {
        fill: #9b9793;
      }

      .st183 {
        fill: #a59d98;
      }

      .st184 {
        fill: #6a6d6d;
      }

      .st185 {
        fill: #b8b2ac;
      }

      .st186 {
        fill: #655e5b;
      }

      .st187 {
        fill: #a9a49d;
      }

      .st188 {
        fill: #65554f;
      }

      .st189 {
        fill: #918785;
      }

      .st190 {
        fill: #524541;
      }

      .st191 {
        fill: #bcb0a2;
      }

      .st192 {
        fill: #2a2825;
      }

      .st193 {
        fill: #a99e97;
      }

      .st194 {
        fill: #5f5755;
      }

      .st195 {
        fill: #48423f;
      }

      .st196 {
        fill: #1c1816;
      }

      .st197 {
        fill: #beb9b3;
      }

      .st198 {
        fill: #595551;
      }

      .st199 {
        fill: #3e3937;
      }

      .st200 {
        fill: #49423e;
      }

      .st201 {
        fill: #181717;
      }

      .st202 {
        fill: #413c39;
      }

      .st203 {
        fill: #a9a49e;
      }

      .st204 {
        fill: #322e2b;
      }

      .st205 {
        fill: #b8b4ae;
      }

      .st206 {
        fill: #3e3734;
      }

      .st207 {
        fill: #3f3a37;
      }

      .st208 {
        fill: #3b3b39;
      }

      .st209 {
        fill: #181615;
      }

      .st210 {
        fill: #3e3a38;
      }

      .st211 {
        fill: #5c5655;
      }

      .st212 {
        fill: #362f2c;
      }

      .st213 {
        fill: #66615c;
      }

      .st214 {
        fill: #7b7370;
      }

      .st215 {
        fill: #b7aea4;
      }

      .st216 {
        fill: #55514d;
      }

      .st217 {
        fill: #2d2a28;
      }

      .st218 {
        fill: #b9b4ae;
      }

      .st219 {
        fill: #887f7b;
      }

      .st220 {
        fill: #a19b96;
      }

      .st221 {
        fill: #433f3d;
      }

      .st222 {
        fill: #383533;
      }

      .st223 {
        fill: #2c2825;
      }

      .st224 {
        fill: #191817;
      }

      .st225 {
        fill: #56514e;
      }

      .st226 {
        fill: #4a4543;
      }

      .st227 {
        fill: #a09b95;
      }

      .st228 {
        fill: #938981;
      }

      .st229 {
        fill: #121110;
      }

      .st230 {
        fill: #bfbdbb;
      }

      .st231 {
        fill: #35312f;
      }

      .st232 {
        fill: #312d2b;
      }

      .st233 {
        fill: #37312f;
      }

      .st234 {
        fill: #605957;
      }

      .st235 {
        fill: #3e3835;
      }

      .st236 {
        fill: #99897d;
      }

      .st237 {
        fill: #4d413b;
      }

      .st238 {
        fill: #2d2928;
      }

      .st239 {
        fill: #67605e;
      }

      .st240 {
        fill: #6e615b;
      }

      .st241 {
        fill: #292624;
      }

      .st242 {
        fill: #88807d;
      }

      .st243 {
        fill: #5d5a57;
      }

      .st244 {
        fill: #453e3c;
      }

      .st245 {
        fill: #433d3b;
      }

      .st246 {
        fill: #433c38;
      }

      .st247 {
        fill: #6d6462;
      }

      .st248 {
        fill: #69635f;
      }

      .st249 {
        fill: #c0b2ab;
      }

      .st250 {
        fill: #796b63;
      }

      .st251 {
        fill: #574e4c;
      }

      .st252 {
        fill: #2e2a29;
      }

      .st253 {
        fill: #5b5955;
      }

      .st254 {
        fill: #3a3532;
      }

      .st255 {
        fill: #5c4d46;
      }

      .st256 {
        fill: #131210;
      }

      .st257 {
        fill: #c3bdb8;
      }

      .st258 {
        fill: #2d2421;
      }

      .st259 {
        fill: #7b7570;
      }

      .st260 {
        fill: #49403b;
      }

      .st261 {
        fill: #4a4643;
      }

      .st262 {
        fill: #39312c;
      }

      .st263 {
        fill: #272422;
      }

      .st264 {
        fill: #56524e;
      }

      .st265 {
        fill: #3f3835;
      }

      .st266 {
        fill: #201b19;
      }

      .st267 {
        fill: #322a24;
      }

      .st268 {
        fill: #2d2a29;
      }

      .st269 {
        fill: #c9c4be;
      }

      .st270 {
        fill: #7d7671;
      }

      .st271 {
        fill: #514844;
      }

      .st272 {
        fill: #514b47;
      }

      .st273 {
        fill: #88827d;
      }

      .st274 {
        fill: #3d3835;
      }

      .st275 {
        fill: #bfb7af;
      }

      .st276 {
        fill: #2c2624;
      }

      .st277 {
        fill: #464542;
      }

      .st278 {
        fill: #3a3633;
      }

      .st279 {
        fill: #2c2724;
      }

      .st280 {
        fill: #463d3a;
      }

      .st281 {
        fill: #a9a09d;
      }

      .st282 {
        fill: #8b8c8b;
      }

      .st283 {
        fill: #746e6b;
      }

      .st284 {
        fill: #63615d;
      }

      .st285 {
        fill: #726b68;
      }

      .st286 {
        fill: #605752;
      }

      .st287 {
        fill: #4a4341;
      }

      .st288 {
        fill: #3c3533;
      }

      .st289 {
        fill: #3a3a36;
      }

      .st290 {
        fill: #534c49;
      }

      .st291 {
        fill: #9a867c;
      }

      .st292 {
        fill: #988c86;
      }

      .st293 {
        fill: #6e6b68;
      }

      .st294 {
        fill: #302b2a;
      }

      .st295 {
        fill: #b7aca6;
      }

      .st296 {
        fill: #383431;
      }

      .st297 {
        fill: #7a736f;
      }

      .st298 {
        fill: #22201f;
      }

      .st299 {
        fill: #56514d;
      }

      .st300 {
        fill: #91928e;
      }

      .st301 {
        fill: #8b827d;
      }

      .st302 {
        fill: #3c3a36;
      }

      .st303 {
        fill: #4e4946;
      }

      .st304 {
        fill: #c1bdba;
      }

      .st305 {
        fill: #6a625e;
      }

      .st306 {
        fill: #cbc5bf;
      }

      .st307 {
        fill: #666868;
      }

      .st308 {
        fill: #726967;
      }

      .st309 {
        fill: #59514e;
      }

      .st310 {
        fill: #97908d;
      }

      .st311 {
        fill: #7a7471;
      }

      .st312 {
        fill: #918782;
      }

      .st313 {
        fill: #908986;
      }

      .st314 {
        fill: #121111;
      }

      .st315 {
        fill: #33302f;
      }

      .st316 {
        fill: #53514e;
      }

      .st317 {
        fill: #534e4b;
      }

      .st318 {
        fill: #6e6664;
      }

      .st319 {
        fill: #807975;
      }

      .st320 {
        fill: #605856;
      }

      .st321 {
        fill: #403632;
      }

      .st322 {
        fill: #827772;
      }
    </style>
  </defs>
  <path class="st200" d="M245.2,6l4,2c.6,0,1.4,0,2,0,.9.6.9,1.3,0,2,1.8.6,1.7,1.2,0,2.1l-16-5.9c-1.9,5.5-10,0-10.1-4-.8-1.1-.1-1.8,2.1-2.1l17.9,5.8h0Z"/>
  <path class="st103" d="M197.3,0C198.8,1.4,199.8,1.4,201.3,0h12c2.3.6,4.2,1.3,5.9,2.3.2,1.6.2,2.8,0,2.9-1.8.5-21,3.4-21.8,2.7-1.1-1-1.8-2.4-2.3-3.8l-2.2-2.5C194,1.1,195.5,0,197.3,0"/>
  <path class="st235" d="M217.3,356c3.1,2.5,5.3,4.9,0,4-2.8,3.4-7.4,0-5.7-4-2.6.6-4.3.6-4.3-2.1l-2-1.9c-.6,1.7-1.3,1.7-2,0-1.8-.6-1.7-1.2,0-2-3-1.7-2.4-2.4,2.1-2,4.2,1.8,8.7,4.6,11.9,8h0Z"/>
  <path class="st195" d="M283.3,32l-2.1,2.1c-4.1,1.8-7.4-1.6-5.8-6.2-1-.8-1.6-2.8-2-3.9-1.9-.7-1.9-1.4,0-2.1,3.9,2.8,7.5,5.9,9.9,10.1h0Z"/>
  <path class="st276" d="M227.3,384l-2.1-2c-.3-3.4-.7-7.8,2-10,2.6,3.6,2.5,8.4,0,12"/>
  <path class="st200" d="M273.4,21.9c-.1.7-.2,1.6,0,2.1-3.9.5-6.6-3.4-8.2-5.8-1.7-.8-1.6-1.5.2-2.2l8.1,5.9h0Z"/>
  <path class="st279" d="M227.3.1l-2.1,2.1c-.2,3.9-4.7,3.4-6.1.2-2.1,0-4.8-.2-5.9-2.3h14c0,0,0,0,0,0Z"/>
  <path class="st134" d="M199.3,346h2l2,2h2.1c0,0-2.1,2-2.1,2-1.9,1.6-7.1.5-8-2v-2c.4-1.7,2.5-1,4,0"/>
  <path class="st100" d="M223.2,362c.2.5,0,1.4,0,2v2c1.4.6,1.3,1.3,0,2-4.1,1.9-7.4-2.8-4.1-6-.7-4.5,1.7-3.2,4,0h0Z"/>
  <path class="st262" d="M265.3,16l-.2,2.2c-.6-.9-3.7-.7-5-1.9-1-.9-1.1-2.5,1.2-2.6,1,1,2.8,1.4,3.9,2.2"/>
  <path class="st202" d="M201.3,0c.2,1.1-.4,1.7-1.1,2C198.5,2.8,197,1.5,197.3,0h4Z"/>
  <path class="st240" d="M249.3,8c-1.6.2-3.4-.4-4-2,1.6.5,3.2.4,4,2"/>
  <path class="st112" d="M255.3,10c0,1.7-2.5,2.6-3.9,2.1v-2.1c.6-1,1.2-1,2,0h2Z"/>
  <path class="st190" d="M199.3,346h-4v-2c1.7.2,3.3.3,4,2"/>
  <path class="st276" d="M225.3,368l-2.1,2.1c-1.7-.7-1.7-1.3,0-2v-2c.6-.9,1.3-.8,1.9,0,.2.5.1,1.4,0,2h0Z"/>
  <path class="st255" d="M41,95.9l2.3-2c-.5.5-1.6,1.8-2.3,2"/>
  <path class="st188" d="M203.3,348c-.7,0-1.7-1.2-2-2,.9.3,1.7,1,2,2"/>
  <path class="st26" d="M223.2,362c-.5-.3-1.3-.6-1.9-1.3-.9-1.1-2.5-.4-2.1,1.3-2.8,2.4-3.7,1.3-2-2,1.7.4,2.4-1.2,1.3-2.1-.7-.6-1-1.4-1.3-1.9,2.6,1.3,4.9,3.3,6,6h0ZM225.2,366h-1.9v-2c.7.5,1.6,1.2,1.9,2"/>
  <path class="st240" d="M253.3,10h-2v-2c.9.2,1.7,1.1,2,2h0Z"/>
  <path class="st171" d="M24.9,103.8l2.3-2c-.5.9-1.5,1.4-2.3,2"/>
  <path class="st188" d="M207.3,353.9c-.8-.2-1.6-1.3-2-1.9.9,0,1.7,1,2,1.9"/>
  <path class="st274" d="M195.3,344c1.8.6,1.7,1.2,0,2,1.8.6,1.7,1.2,0,2-.6,1.7-1.2,1.7-2,0-5.4-.7-10.7-1.4-15.9-2l3.9-4.1,14,2.1h0Z"/>
  <path class="st272" d="M289.2,39.9l-2.2.2c-.8,2.4-2.1,1.5-3.8-2.6-3.6,2.1-5.2-.5-2-3.4l2.1-2.1c2.8,1.9,4.7,4.8,5.9,7.9h0Z"/>
  <path class="st274" d="M171.3,341.9c-1.7,2.8-5.6,2.5-8.4,1.5,2.8-.5,5.2-1.5,8.4-1.5"/>
  <path class="st108" d="M257.3,190c-.9-.4-1.6-1.1-2-2l2,2ZM262,191.6l-2.7.5v-2c.7.7,1.7,1,2.7,1.6"/>
  <path class="st210" d="M209.9,67.7l-2.7.5v-2.1s2.7,1.6,2.7,1.6ZM205.3,66c-.9-.4-1.6-1.1-2-1.9.8.4,1.4,1.2,2,1.9"/>
  <path class="st258" d="M281.2,34.1l2.1-2.1-2.1,2.1Z"/>
  <path class="st40" d="M249.5,268.1c-3.4,8-11.6,8.8-19.5,9-7.9,2.4-18.4,9-7.2,14.5,7.7.9,9.6,4.1,3,8.9,3.4,1,6.1,1.8,7.3,5.5-.7-2.9,4.8-3.1,5.9-.4,5.1-1.1,6.6-.3,4.7,2.5-10.9,2.3-22.3,1.6-32.5-2.1.2-1.6,3.3-.8,3.1-.8-2.6-.2-10.1-1.4-11.6-2-.8-.3-4.1-13.3,1.3-15.5-1.3-6.6,1.9-18.8,9.2-13.4,2.3-.9,5-1.8,8.2-2.6l2-3.7c15.2,2.2,28.3-8.1,28.2-23.8-.9-5.2,0-8.4,2.6-9.8,6-2.1,9.8,14.7,6.1,17.6-1.3,5.4-5.1,17.6-10.8,16.1h0Z"/>
  <path class="st82" d="M90.7,314.5c.7,0,.8.7.4,1.1l-1.2,6.6c3.3,14.9-4.7,9.9-10.3.5-3.6-5.9,1.5-20.7,5.8-25.8-4.3,1-4.5-1.9-.3-3.3,1.8-4.2-.3-7.1-6.4-8.6-4-1.7-3-4.8,3-9.3l11.7-7.6c8.6-1.2,8.8,12.5,7.8,19.5l2.1,3.9c-6.1,7.3-10.3,14.9-12.5,23h0Z"/>
  <path class="st294" d="M91.1,315.5c-1.9,11.9,2.2,23.1,13.8,29,9.5,4.8,20,6.2,30.7,4.1l27.3-5.3c2.9.2,5.9,0,8.4-1.5h10c3.1,1.4,1.7,2.8-3.9,4.1l-22.4,3.9c-.1,5.3-2,5.1-3.6,0-10.2,4.9-21,7.7-32.4,8.5-17.7-6.1-30.3-16.1-37.8-30.3-4.3,3.5-5.3-4.2-4.7-8.5-3.7-1.2-2.8-16.8,2.6-13.5.4-9.6,2.5-12.7,6.3-9.3-2.8,8-6.6,15.4-3.5,25.9l3.2-5.1c.9,5.5.6,9.1,4,12.7.2-6.3-.7-10.8,2.1-14.9h0Z"/>
  <path class="st98" d="M262,191.6c28.5,15.5,42.9,53.5,26.4,83.2-9.9,17.8-26.5,29.5-44.8,33.3-.6-2.1-2.8-2.8-4.7-2.5,3.7-5.4,9.9-8.6,18.7-9.8,6.1-5.7,12.3-8.9,18.5-9.4,17-22.1,15.9-51-.4-73.4l.4-5.6c-6.7.8-18-8.6-19.2-15.3-.4-2,.8-1.7,2.3-.2-.2-1.1.7-1.2,2.7-.5h0Z"/>
  <path class="st10" d="M84.8,71.6c3.3-1.3,4.3-.7,2,2.2l-.5,2.6c-9.7,8.6-18.8,17.7-27.4,27.3,3.3.9.7,4.7-1.6,6.3-1.2,2.6-2.5,1.3-2.8-1.4l-9.8,20.8c-2.2,4.6-3.3,9.9-7.7,12.7-5-.7-2.1-6.6-.2-10.1-5-3.2-.9-11,4.6-9.6l-1.8-4.4c2.6-5.3,6-9.3,10.2-12-1.1-3.3-1.9-6.7-2.5-10.1-3.6,2-4.8,1-1.9-2.1,3.6-2.8,12.7-.2,16.1-3.1,8.3-7.2,14.4-14.8,23.4-19.1h0Z"/>
  <path class="st46" d="M77.5,253.7c.2-1.9.7-1.7,1.5.1,3.8-5.8,7.1-7.2,8.2,0,11.7-3.7,28,16.5,20.8,27.7,4.3,2,7.6,9.5,3.2,10.5-1.8,1.9-5.1,1.9-9.9-.2,2.6-15.2-1.3-24-11.8-26.4l-14.1.9c-4.3.3-6.2-1.8-8.3-2.4-2.9-5.5,13.9-3,13.1-2.8-10.3,3.6-24.3-7-9.1-9.3.8-1.5,1.4-1.4,1.9.4,2.2,0,3.7.4,4.5,1.6h0Z"/>
  <path class="st298" d="M241.1,154.2l4.6.8c3,9.5,4.9,12.2,5.6,8-.7-1-.9-2.1-1.1-3.3-.6-6-1.6-15.3.7-19.8.7-6.2,2.6-6.3,6.6-1.6-5.7,10.2,1.6,28.8-3.6,45.9-2-.9-2.5-3.2-1.4-6.6,2.7,10.9-8.7,10.1-12.6,4.7-5.2-7.3-9.6-40.2-2.7-48.1l2.1-.7c.6,6.9,1.2,13.9,1.8,20.8h0Z"/>
  <path class="st127" d="M191.2,354c1.7-3,9.5-1.4,9.9,2.4,1.4-3.8,4.4-2.3,3.9,1.7,6.4-.6,18,8.6,14,14,2.3,3,4.4,6.3,6.2,9.9,2.6-2.3,2.9-1.2,2.1,2v2c-1.6,2.1-4.1,3.8-6.7,2.4l-1.6-1.9-1.6-6.4c-3.1-9.3-12.2-13.6-20.6-17.5,6.4-2-9.6-4.1-13.2-4-9.7,1.9-19.1,3.1-28.3,3.6l-2.1,1.9c-.3,1.8-2.4,1-4,.1,1.4,2.6-2.6,4.1-4.2,1.8-3-3.1-.9-5.1,6.2-6.1l-.6-2.6c4.4-2.7,10.6-3.5,18.6-2.7l.8-2.7c7-1.5,13.9-.8,21,2.2h0Z"/>
  <path class="st268" d="M203.3,64.1l2,1.9c.5.2,1.5,0,2,0,1,.7,1,1.4,0,2.1l-2-.2c-3.1,2.4-10.4-.8-11-4.5-6.2.9-12.3.2-18.3-2.2-6.5-.9-10.1-2.3-14.9-6.1-.7,6.2-15.9,6.2-17.7.3-1.5,5.7-5.5,5.9-12,.6-2.4,2.3-8.8,1.3-4.2-2.2,25.9-6.2,52.8-2.8,76.2,10.2h0Z"/>
  <path class="st229" d="M237.3,134.1l-1.4,13.4c6.9,22.4-.5,37.5,15,37.3,0-4.3,0-6.6,1.6-9.1,1.6,3.6.9,6.2,1.6,8.4-.4.3-.6,1.1-.4,1.5,3.3,4.3-.3,4.8-4.4,2.4.2,1.7-.3,1.8-1.4.4-13.1-3.7-16.8-6.7-10.8-9-3.3-5.6-5.9-11.4-7.8-17.6-3.3,0-4-9.5,0-9.9.8-5.1,2.2-9.8,4.1-14.1-1.2-.6-1.1-1.3.1-2,.5-2.2,1.4-4.6,4.1-4,1.6.6,1.6,1.4,0,2.1h0Z"/>
  <path class="st233" d="M30.5,103.6c-5.3,5.5-10.5,11.6-15.4,18.2-.5,5.8-2.3,11.9-5.4,18.3l-1.7,17.1-2.4,2.7c1.6,3.2,1.6,5.3-.1,6.1-.2,1.9-.9,2.6-2.1,2.1-.5,1.7-1.1,1.7-1.9,0-5-23.9,3.4-50,23.5-64.1l2.3-2h1.6c3-2.6,3.8-1.9,1.7,1.8h0Z"/>
  <path class="st196" d="M248.6,100.3c.3.4.4,1.3-.4,1.6l3.7,8.2c6.2,3.9,7.9,7.8,5,11.8,1.9.2,1.9.9.3,2,1.4,1.9,1.3,4.8-.2,8.8,1.1-.9,3.3-.5,6.4,1.3,1.7.7,1.7,1.4,0,2.1-1.5,1.5-3.5,2.1-5.6,2.1-2.3,0-4.5.6-6.6,1.6-3.4-.9-3.5-2.6-.1-3.6l-1.9-8.3c-2.4-4.1-4-9.3-4.8-15.7-2.5-4.7-3.7-8.8-3.5-12.4-1.7-3.8-.4-4.9,2.7-2.1,2.5.4,4.3,1.3,5.2,2.5h0Z"/>
  <path class="st231" d="M65.5,299.8c.9.8.8,1.5-.1,2.2-4.3,10.3-4.3,22.7,0,32.6l-.6,4c4-2.2,6.2,2.7,2.2,5.4,5.9,6.2,11.2,14.1.2,7.9-10.2-13.7-12.5-31.6-7.9-48l2-2v-2c.6-.8,1.3-.8,2,0,.5-1.8,1.2-1.9,2.2-.2h0Z"/>
  <path class="st252" d="M209.9,67.7c13.8,6,25.5,17.4,33.4,30.2-.8.2-1.9,1.3-2.7,2.1-4.1.4-11.2-9.2-11-13.5l-2.6-2.4c-.8,1.3-1.4,1.2-2-.3-1.8.7-3.4-.4-5-3.4-7-2.7-11.2-6.2-12.6-10.5-2,1.6-3,.7-2.1-1.8l2,.2c-.3-1.2.6-1.4,2.7-.5h0Z"/>
  <path class="st241" d="M196.8,362.5c-.4-.2-1-.4-1.6-.3-6.6-1.8-13.5-1.7-20.1-.5-4.1,1.7-9,2.1-13.4,2.5l-4.4,1.9h-3.9c-4.3,1.8-5.6,1.1-4-2h4c0-.1,2.1-2,2.1-2,14.3-5,30.3-6.9,46.1-1.7-.9,2.3-3.1,2.1-4.6,2.1h0ZM53.1,222.4c2.8,3.8-.4,5.8-4,7.4,4,1.4,5.1,3.2,1,4.7l2.8,8.4c.6.7,1.7,1.9,2,2.8.4,1.7-.7,3.5-1.3,4.7l-.4-2-2.1-2.3c-8-5.2-8.4-16.9-2.5-25,1.6-2.2.9-5.7,1-7.4,3.3,1.6,2.4,5.8,3.6,8.7"/>
  <path class="st153" d="M5.5,169.7c3.4-.7,3.9-.5,1.8,2.2l-.3,2.2,3,.6c3.4,8.7,8.5,16.5,15.4,23.3,5-1.8,8.9.3,6,5.8l-2.1.2h-2s-4-2-4-2l-11.9-12-8.3-17.9c-.7-1.8-.6-3.2.2-4.1l2.1-2.1c3.7.7,3.4,2.3.1,3.8h0Z"/>
  <path class="st294" d="M85.1,293.6c-7.9-5.2-14.5-3.1-19.6,6.2l-2.2.2c-1,.3-1.1-.5-.2-2.4v-1.6s2.1-2.2,2.1-2.2v-1.7c.1,0,4-4.2,4-4.2,3.5-4.8,7.5-8.9,12.4-12.1l-4.5,5.8c3.3.2,4.4-1.2,7.7-3.6-1.2,8.7,5.8,15,.3,15.7h0Z"/>
  <path class="st68" d="M153.3,366.1c-5.9,3.6-13,6-20,5.9-1.4,1-3,1.5-4,0l-2,2h-6c-3.8,1.6-8.2,1.6-12,0h-4l-2-2c-1.8-.6-1.7-1.2,0-2,2.6.9,5.3,1.8,7.9,1.9.5-1.8,1.3-1.8,2.2-.1.2.3,1.4.4,1.9.2.5-2.9,3.1-3.1,4-.2,1.8,1.6,4.7-.9,6.2-1.5,1.3-5.1,16.4-8.6,19.6-4.3l4.2-1.8c.7,1.5,2.3,2.1,4,2h0Z"/>
  <path class="st202" d="M192.9,1.7c2.8-.9,3.8,0,2.2,2.5,3.9,3.5-6.4,9.2-10.1,11-6,1.5-12,3.4-17.9,5.5-.5,1.7-1,1.6-1.4-.3-.7,3.9-2.3,3.5-2.6-.6,2.4-4.9,8.5-5.8,13.5-8.7l16.3-9.5Z"/>
  <path class="st240" d="M251.3,12.1l3.9-2.1c2.5,0,4.4,2.1,6.1,3.8,1,1.5,2.2,3,3.7,4.4,2.8,1.2,5.6,3.1,8.2,5.8,2-.2,3.5,2.2,2,3.9-.1,3.3-7.2,1-8.1-1.9-4.9.7-6-.9-3.4-4.7-6.8-1.3-14-2.8-21.6-4.5-3.8-1.8-6.5-4.1-8.1-6.9-4.9-2.1-4.2-3.7,1.1-3.7,3-2.2,13.5,2.6,16,5.9"/>
  <path class="st11" d="M127.1,53.9c-.2,1.2.5,2,1.3,2.2,1.1.2,2.1,0,2.9,0,1.7.6,1.7,1.2,0,2-3.6,2.3-8.2,3.8-13.6,4.6l-12.1,4.9-2.4-1.7c-1.8-.4-1.7-1.1,0-1.9-.8-.6-.8-1.3,0-2,7.5-4,15.7-6.2,23.8-8.2h0Z"/>
  <path class="st171" d="M47.3,96c1.8,4.9-.3,7.8-3.5,3.3-2,2-3.5,2.1-4.5.4-.4,1.8-1.2,1.9-2.2.2,0,1.3-.9,2-2.2,1.9,2.9,2.5,1.9,3.6-1.7,2.1-1.3.8-2,1.2-2.7-.3,0-1.1-.6-1.7-1.7-1.7,2.9-3.8,7.6-5.3,12.2-5.9l2.3-2c.4,0,1.7.2,2.1-.1,0,.9,1,2.1,1.9,2.1h0Z"/>
  <path class="st222" d="M101.3,64h2s0,1.8,0,1.8c1.7,3.8-6.4,5.4-9.9,4.3,3.4,5-2.7,7.3-6.5,3.7l-2-2.2c5.3-2.5,10.2-7.5,16.4-7.6h0Z"/>
  <path class="st42" d="M295.4,52l-2.2,2.1c-5.3.8-7.9-9.7-6.2-14,.5-1.8,1.2-1.8,2.2-.2,3.7,3.1,5,7.6,6.3,12.1h0Z"/>
  <path class="st100" d="M227.3,372c.6,4.3,0,7.7-2,10-5.1-.3-4.7-6.5-6.2-9.9.9-1.7,2.3-2.5,4.1-2.1.2-1.8.9-2.5,2.1-2.1,1,1.1,1.7,2.5,2,4h0Z"/>
  <path class="st127" d="M195.2,362.1l-20.1-.5c6.1-2.5,14.3-3,20.1.5"/>
  <path class="st298" d="M255.3,188l2,2c.5.2,1.5,0,2,0,.9.6.9,1.3,0,2l-2.3.2c-2.4,6.1-11.5,1.7-7.8-4.2,1.8,0,3.4-.9,4.4-2.4l1.7,2.3h0Z"/>
  <path class="st130" d="M121.3,374c-2.8,3.1-9.2,3.1-12,0h12Z"/>
  <path class="st202" d="M163,30.4c-2.4-2.3-2.4-6.6-.1-9v9Z"/>
  <path class="st40" d="M207.3,306.2h-6c.3-1.9,1-2.3,2.9-2.4,1.8,0,3.1.3,3,2.4"/>
  <path class="st100" d="M219,386.4c-1.5-1.8-2.1-4.1-1.6-6.4.6,1.8,3,3.6,1.6,6.4"/>
  <path class="st13" d="M3.1,172.1l-1.7-4.1h1.9c0,0-.2,4.1-.2,4.1Z"/>
  <path class="st3" d="M263.2,136.1v-2.1c3.1-.6,5.9-2.2,8.6-3.7-2,3.1-4.9,5.4-8.6,5.9"/>
  <path class="st127" d="M161.6,364.2c-1.1,1.4-2.7,1.9-4.4,1.9.7-2.1,2.7-1.7,4.4-1.9"/>
  <path class="st265" d="M103.3,372c.9.6.9,1.3,0,2-1.7,0-3.4-.4-4-2h4ZM133.3,372c-.6,1.6-2.4,1.9-4,1.9-1.1-.6-1-1.2,0-2h4Z"/>
  <path class="st100" d="M220.6,388.3c2.4-.5,4.6-1.2,6.7-2.4-.5,1.6-1.6,3.2-3.3,3.9-1.5.6-2.4-.4-3.4-1.5h0Z"/>
  <path class="st3" d="M273.4,130.2c2.8-4.9,7.1-9.3,12.1-12l-12.1,12Z"/>
  <path class="st60" d="M23.2,202c-4.9-2.4-9.5-7-11.9-12,4.6,3.1,8.8,7.3,11.9,12"/>
  <path class="st208" d="M65.2,292c.1-2.2,3-3,3.9-4.2-.4,2-1.9,3.5-3.9,4.2M63.1,295.9c.5-.9,1.2-1.6,2-2.2,0,1-1.1,1.9-2,2.2"/>
  <path class="st32" d="M63.3,300h-2l1.8-2.4.2,2.4ZM59.3,304c.2-.8,1.3-1.6,2-2-.4.9-1.2,1.6-2,2"/>
  <path class="st179" d="M103.3,64h-2c.5-.7,1.2-1.5,2-2v2h0Z"/>
  <path class="st149" d="M105.3,374h-2v-2c1,.3,1.7,1,2,2M129.3,374h-2c.2-.9,1.1-2,2-2v2Z"/>
  <path class="st202" d="M165.3,34.3c-.4-.8-1.5-1.6-2.2-2.2.9.6,1.6,1.3,2.2,2.2"/>
  <path class="st99" d="M87.3,165.7c.4,2.8-1.6,5-5.9,6.7.6,4.4-1.2,5.2-4.2,2-2.3.6-5.2,2.5-8.7,5.6-2.3-.2-2.6-1.6-1.5-3.9,1.9-5.9,4.3-11.4,4.5-17.6.3-5.4,1.7-7.6,4.2-6.5.6,9.4,4.1,13,10.5,10.9l1.1,2.8h0Z"/>
  <path class="st247" d="M77.1,174.4c3.2,3.6-4.2,11-8,7.3-2.6,3.8-4.5,4.5-5.8,2.2l.3-3.7,1.7-2.4c.4-.5.6-1.5,1.6-1.7.5,1,2.1,1.8,2.9,1.4,1.9-.9,3.1-6,5.3-4.5l2,1.4h0Z"/>
  <path class="st25" d="M69.2,206c-2.1,2.9-4.1,4.2-6,4-.3-4.7-.9-9.4-2-14,0-4.1-.9-8.7,2-12.1,2.2,0,4.1-.9,5.8-2.2,2,2.2,1.7,5.4-.9,9.3,1.2,5.4,1.5,10.4,1,15"/>
  <path class="st320" d="M63.3,210c1.8.6,1.8,1.3,0,2.1-3.8-1.8-2-8.1-2-12v-4.1c5.3,3,1.8,7.6,2,14"/>
  <path class="st33" d="M57.3,120l3.5,2.7c-3.1,1.3-4.8,3.2-5.3,5.7v1.7s-2.2-2.1-2.2-2.1c-1.7-.4-.9-2.5,0-4v-6c.5-1.8,1.2-1.7,2,0,1.1-1.4,1.7-.8,2,2h0Z"/>
  <path class="st67" d="M54.5,108.6c1.4,1.9,2.1,3,.8,5.4-.4,1.9-1,3.2-2,4,2.7.7,2.7,5.1,0,6l-2,4c.7.3,1.2.6,1.6,1.1.6.8.2,20.2-3.9,18.8,2.1,7.1,1.8,14.9.2,22.1,4.5-1,2.9,8.8,1.7,12,2.4,2.6,3.5.9,4.5-2,4.5-13.8,6.6-28,3-42.1,1-9.4,4.5-12.4,9.1-3.6,1.8.4,1.6.9-.2,1.6l2.1,4.2c5.7,3.4,4.1,12.3,2,18.3,1.8,6.4,3.2,14.5-4.5,17.6,2.6,2.5,1.6,3.5-1.6,1.7l-1.7,2.4c4.1,0,3.2,2.2-.3,3.7.7,3.4.5,9.8-2,12.1,1.3,1.7,2.1,3.2,0,4.1.1,8.7-1.5,16.5-5,23.2l-3.3-.9c-2.5,1-3.3-.8-2.4-5.4l-1.2-3.4c-7.4-.2-15.3-2.9-20.2-7.7v-2c.5-1,1.3-1.1,2.1-.2,3-1.6,6.7-1.2,11,1.1,1-13.8.2-26.4-7.3-38.9-2.8-7.4-5.7-19.9,1.8-23.9,3.6-11.7,8.5-22.9,14.5-33.5h3s0,0,0,0Z"/>
  <path class="st60" d="M29.3,206l-2-2h2s0,2,0,2Z"/>
  <path class="st204" d="M37,142.1c-.5,5.2-3,10.4-.5,16.5,7.8,18.9,6.4,35.4,12.5,51-6.8-.2-13.2-1.7-17.6-5.8l-6-5.8c-4.5-4.6-9.2-11.2-14.3-19.8-1.5-4.9-1.8-9.5,4.4-8.2,1.6,1.2,1.3,1.9-.8,2l2.8,2.5c1.8.4,1.8.8,0,1l3.9,4.7c.7-3.8,2.2-4.7,3.3-1.1,5.9-3,10.3,8.4,2.4,9.1,4.1.7,6.8,2,8,3.7,1.7.7,1.7,1.4-.1,2,2.8,3.1,5.1,1.6,6.2-2.1-1.8-.5-2.4-2.6-1.6-6.2,1.2-5.4-2.7-5.8-8.1-17.5-1.8.3-1.6-1-.2-2.3-2.3-.8-3.5-3.9-2.1-6.1-4.8-1.5-3-15.4-1.6-20.1s3.7-10.2,9-7.8c-1.8,3.4.5,7.4.2,10.1h0Z"/>
  <path class="st38" d="M67.9,131.9c3.1.4,2.9,1.9-.4,2.4-1.3-1.5-3.5-2.9-4.4-1.5-3.6,5.6,6.5,14.9-6.6,49.8l-1.9,25.3h-2.8c0,0-.9-26-.9-26,3.5-12.2,4-24.1,1.6-35.6-1.5-7.7-.5-13.1,3-16.2v-1.7c3.8-13.8,11.7-6.5,12.4,3.5h0Z"/>
  <path class="st27" d="M55.5,130.1c-5.5,12.2,8,18.3-1.9,44.1-.7,1.9,1.3,7.4-2.8,7.8l-1.7-12c1.6-7.2,1.9-14.9-.2-22.1l2.3-19.9c.5-1.8,1.2-1.8,2,0,1.2-1.5,1.9-.8,2.2,2.1h0Z"/>
  <path class="st25" d="M63.3,212.1c1,.5.9,1.1,0,1.9l-4,10.1c1.7.6,1.7,1.3,0,2,2,5.9-7,8.8-10.2,3.7.5-2.4,1.8-6,4-7.4,9.7-6.1,3.6-16.4,8.2-22.3.7,3.6,1.4,7.6,2,12h0Z"/>
  <path class="st45" d="M75.3,148c1.7.4,1.8,2.9.4,4-1.3,1.5-4.1,4.4-4.2,6.5.4-6.2-.3-12.3-2-18.3l-2.1-4.2.2-1.6.4-2.4c-5.8-7.2,0-14,3.3-3.7,4.8,3.5,6.1,10.1,4,19.7h0Z"/>
  <path class="st85" d="M49.2,170l-.2-22.1c3.6,3,3.6,17.2.2,22.1"/>
  <path class="st33" d="M55.3,114l-.8-5.4c.3,2.1,2.3,1.7,2.8,1.4,1.7,1.3.2,4.2-2.1,4"/>
  <path class="st38" d="M53.3,128h-2c.2-1.7.2-3.4,2-4v4h0Z"/>
  <path class="st10" d="M55.3,118h-2c0-1.8.5-3.1,2-4,2.2.2,1.7,2.8,0,4"/>
  <path class="st217" d="M69.4,140.1c-1.8-.6-2.2-2.4-2.1-4.2,1.8.9,1.7,2.7,2.1,4.2"/>
  <path class="st25" d="M63.6,180.2c0-1.1,1.1-1.7,1.7-2.4l-1.7,2.4Z"/>
  <path class="st76" d="M143.9,200.1c7.1,2.5,2.7,8.8-2.7,11.6,1,2.7-1.4,6.9-4.1,8.2,1.5,2.1.6,5.6-2.1,5.9l1,1.9c-6.8,15.4-14.1,37.5,9.3,40,.5-2.9,4.4-8.2,8.1-7.9,4.7-3.5,8.9,1,5.9,5.9.9,1.1,2.3,1.8,4.1,2.2-.6-2.3,3.6-4.7,5.9-3.9.6-1.8,1.4-1.8,2.2,0,4.6-.5,3.4,5.4-.2,6.2-.7,4.2-2.2,7-4.5,8.4-1.6,9.6-5.1,14.2-9.7,3.2.7,11.2-10.3,22-8.8,5.4l-1.5-7.2c-5.5-3.5-6.7,1.1-7.4,6.3,5.3-.4,5,2.9,0,4.3-3.3,2.6-5.4,2.1-3.3-1.5-.7-6.2-2.3-8.6-4.9-7.1,2.4,3.5,2.3,10-2.6,10.4,1.8.4,1.8,1.1.2,2,.1,1.1-1.3,3.6-2.4,3.4-1.6-.2-2.7-2.3-3.1-3.6-1.5-.6-.9-1.5,1.7-2.7-4.4-2.7-2.2-11.9,2.6-12.9,1.5-4.8-.2-10.2-4.7-8.3-5.8,1-7.1-2.4-3.9-10l-1.8-6.3c-1.8-1-1.6-5.5.7-6.2-3.8-5.2-.6-17.7,5.1-20.4-1.4-3.4,0-4,2.5-1.2l1.9-4.6c-4.2-1.7,3.5-8,3.2-7.6-1.9,3-4.9,6.9-7.5,4-3-5.4,3.2-13.2,8.4-15.5l-3.5-2.6c2.3-1.3,4.2-3.3,5.7-6.2,1-2.6,4.3-3.5,9.8-2.6l.4,9h0Z"/>
  <path class="st199" d="M159.3,190c.6,6.7,3.5,8.1,8.4,4.2l1.7,1.9c3.6-.6,3.3,2.7,0,3.7l1.9,8.2c3.6-2.7,8,7.3,3.4,8.1,6.8,9.9,16.7,17.2,28.6,17.7.7-1.7,1.3-1.6,2,.1.5-1.1,1.2-1,2,0l2,1.9c.6-1.7,1.3-1.7,2,0l2,.6c.6-3.6,2.8-3.1,6.6,1.5,1.6.5,1.6,1.1,0,1.8-5,.5-9.8-.6-14.5-1.7-4.4,3.8-12,7.3-17.9,7.5-.5.8-1.5,1.7-2.2,2.3l-1.9,6.4c0,.4,0,1-.2,1.4,3.4,5.8,3.9,10.8,1.6,15-.3,4.9-1.4,8.2-3.6,10-4.1-1.5-4.5-5.1-1.9-8.7-1.5-1.1-2.8.3-3.9,4.2,1.8.3,1.7.9,0,1.7l2,2.3c2.1.7,3.2,3.1,3.4,7.3h2.4c3.9-.8,5.3,7.3.4,6.9-2.2-.8-4.9,1.2-6.9,3.2-1.8.3-2.9-2.5-3.3-3.5-4.7,1.1-4.9-6.4-.5-7.5-.3-4.1-1.8-6.9-4.4-8.5,0-3.1,1-5.7,2.8-7.9l.2-6.2-2-1.5c3.9-7.1,4.5-14.6,1.9-22.5-4.2-6-8.1-16.9-8.1-24-2.8-1.1-5.9-5.5-3.8-8l-2.2-10c-4.7-.7-5.9-11.6.2-12.4,4.2-1.5,5.6,1.8,1.8,4.4h0Z"/>
  <path class="st232" d="M117.2,254.1l1.8,6.8c-2.6,8-1.9,13,2,14.9,2.2-.6,1.1,2.4.2,4.2l-2,6c4.2,0,4.2,3.1,0,4,.8,2.7.2,4-2,4h-2.8c-1.5.2-2.3-1.5-3.2-2,0-.5.5-3.9,0-4.9-.6-1.1-3.7,0-5.6.8,2.8-7.9,2.7-15.5-1.4-23.5-2.7-5.3-10-9.1-17-10.6-6.4-.8-5.5-3.8,0-6.1s15.9,2.8,18.9,8.2l2.2-1.4c3.9,2.5,6.2.9,6.9-4.7-1.6-.8-1.6-1.5,0-2.3.5-3.8,2-3.6,2.7.3-.8,1.6-.5,4.3-.7,6.2h0Z"/>
  <path class="st133" d="M145.2,294.3c1.4,1.9,2.9,3.7,5.1,3.5,2.5-.2,4.9-1,6.8-2.2,2.7-.5,3.8.2,2.9,2.8,0,3.9-1.6,3.8-2.5-.2l-2,2.2c1.8-.1,1.8.4.3,1.5-3.9,3-2.7,9.2-2.7,14-.6-.9-2.5-1.5-3.5-1.8.3-5.1.3-12.1-4.5-14.4-2.5,4.2-4.5,3.2-3.6-1.7-.7,1.8-1.5,1.9-2.4.2h-1.7c-3.8-6.9,2-6.6,8-3.8h0Z"/>
  <path class="st37" d="M139.4,290.5c4.3-4.6,7.1-1.7,5.8,3.8-2.9.6-6.7.3-8,3.9-1.7.1-2.8-1-4-2l-2.1-2.1c-.5.3-1.6.4-2.3.3l-.2-2c3.5-2.5,5.3-4.6,2.6-10.4.2-3.7-.9-7.2.8-12.4,4.3,8.8,3.1,18.4,7.4,20.9"/>
  <path class="st78" d="M287.6,62.1l-2.3,3.9c-.5,1.7-1.2,1.7-2,0,0-1.1.3-3.1-.1-4.6-.4-1.3-1.9-2.8-3.8-3l.2-2.5-.3-3.9c.9-1.7,2.5-2.6,4.4-2.8.8-1.7,1.5-1.5,2,.3.9,4.5,3.6,7.9,2,12.6h0Z"/>
  <path class="st296" d="M267.5,115.9c-1.8,3.3-4.3,6.1-8.4,6,2.1-3.3,4.8-6.1,8.2-8.2l.2,2.2h0Z"/>
  <path class="st314" d="M180.8,189.8c4.4.8,4.6,3.4.8,7.7-4.3,11.4-1,15.1,9.3,20.6.9-4.1,4.7-4.4,11.4-.9,10.2,0,20.4.7,30.5,2.4,8.1,1.8,14.3,5.2,18.4,10.4,4.3-1,5.6.8,2.8,4.4l1.1,8.8c-1.6-.1-3.6.3-3.7,1.1-1.4-1.3-1.8-2.8-.9-6.1-4.9,2.3-7.2-.6-11-2.3-11.5-5.3-6.9-11.5-16.2-8.4,1.1,1.8-1.2,2.5-6.7,2.2-.3,3.9-1,5.9-2.8,2.6-7.2.1-12.6-1.5-16.3-4.9-5.8,1.3-16,1.6-16.4-7.3l-3.6-4.1c-.2,3.9-1.7,3.9-3,.2.9-2.5-1.6-6.3-3.4-8.1-1.1-1.8-1.1-3.2,0-4.1-.8-12.2,2.3-16.9,9.4-14.2h0Z"/>
  <path class="st206" d="M285.7,254.4l2.7.8c-1,11.1-5.2,21.5-12.4,31.3-9.9,10.5-23.2,16-37.2,19.2l-5.9.4c-6.9-2.2-4.7-6.3,6.7-12.4,2-5.2,10.4-8.4,16-5.6,2.3-2.3,4.3-2.9,6.1-1.8,5-4.7,9.7-9.4,14-14.3-3.3-2.4-2.1-6.5,1.6-7.6-1.9-.6-2-1.4-.2-2.3-.9-3.6.9-8.2,5.2-7.9,1.2-3.7,2.8-3.5,3.1.4h0Z"/>
  <path class="st98" d="M239.7,293.6l-1.4,7.4c-.1,1.3-4,1.2-5.6,1.2-1.2,0-1.2,2.4.4,3.8-6.3.4-11-3-19.2-7.2,4.3-2.6,9.5.5,14.2-5.3-6.1,0-10.4-.6-13.6-5.1-3.8.9-3.6-4.4.8-2.9,2.5-14.9,19.1-5.1,34.2-17.5,3.9.3,2.5,2.8.5,5.7-2.6,3.8-13.8,10.5-17.9,8.4-8.6,4.5-7.1,6.8,4.5,7.1l3.2,4.4h0Z"/>
  <path class="st147" d="M217.3,272l4.1-.2c-1.1,3.9-5.9,1.7-8.2,2.6v-2.4c.6-1.8,2.6-.9,4.2,0h0Z"/>
  <path class="st208" d="M85.1,293.6l.3,3.3c-4.6.1-3.6,7.3-6.3,9.3-6.2-.3-4.5-9.3.3-11.7-4.1-1.7-7.7,1-11,8l-3.1-.5v-2.2c.8-7.5,9.7-13,19.9-11-1.4,1.6-1.3,3.5-.2,4.9h0Z"/>
  <path class="st265" d="M151.4,350c2.1,6.3-4.2,7.1-9.3,6.7v3.2c1-1.1,2.1-1.1,2.9.1.1-5.4,5-5.5,6.4-.2-2.6.8-4.7,4-6.2,6.1-5.7,2.5-13.9,4.6-19.7,4.3l-8.3-4.8c-3.2-1.9-8.7,1.7-11.3-1.5,3.6-4.8-4.2-10.6-8.9-13.8-.7,1.2-1.4,2.1-1.8,2-2.3-.7-10.4-9.6-11.6-12.5-1.9-.4-1.9-1,0-1.8-4.4-2.8-9.7-13.1-2.2-9.7l15.9,15.9,11.8,8.2c4.3,3,12.6,2.4,18.2,1.5l24.2-3.8h0Z"/>
  <path class="st307" d="M79.4,294.5c-1.2,3.9-1.6,7.9-.3,11.7-4.7,3.4-1.3,10.1-2.6,13.5.4,6.7,1.1,14,6.9,18.2,0,.5-.1,1.4,0,1.8,1.8,1.5,2.4,3,1.8,4.3-1.2,1.8-3.1,2.5-5.8,2.2-3.9,3.7-8.1-.2-4.1-4l-4-4.4c-3.5,2.7-6.1.2-4.1-3.6-3.8,3.7-4.9-6.5-4-10.2,1-1.1,1.7-3,2.1-5.7,4.7-2.5,6.7-7.9,6-16.4-1.8-3.9,3.7-11.7,7.9-7.4"/>
  <path class="st190" d="M177.4,346c5.3.2,11.6-1.5,15.9,2,0,2.2-4.4,1.4-6,0-5.2,3.5-16.4,4.8-21.9,1.6-.8,3.2-2.5,3.2-4,.3h-6.3c6.7-4,14.7-4.3,22.4-4h0Z"/>
  <path class="st111" d="M81.2,328.1c-2.7.2-2,2.5-1.1,4l3.4,5.8c-7.9-2.9-9.6-11.3-6.9-18.2,0,4,2.3,6.1,4.7,8.5h0Z"/>
  <path class="st108" d="M247.8,188.5c.4-.1,1-.4,1.4-.4,1.7,2.9,5.3,3,7.8,4.2,7.9,3.8,13.5,9.3,19.2,15.3,5.3,6.8.6,9.3-6.7,5.6-.4,1.8-.9,1.7-1.6,0l-1.6,1.9c-5.2-2.2-7.4-1.8-6.6,1.2l8.5,4.9c.5,4.5-2.3,5.8-6.3,4.5,3.4,2.7,3.4,3.9,0,3.6-.8,1.9-1.5,1.9-2.3,0l-4.1-2.3c-2.2-1.7-3.7-4.2-4.3-7.5-7.2-1.1-11.3-7.9-3.3-9.4.2-1.4.8-1.4,1.6-.2-1.8-4.1,2.2-5.2,4.3-1.6,1.6-1.9,1.9-3.9,1.9-6.2-2.4.9-6.5.2-7.8-2.2-1.8-.2-1.8-.8-.2-1.8l-2.1-2.3c-.4,6.2-2.9,4.7-5.9.1-.3,1.7-1,1.8-2.1.4-6.1-2.7-9.1-4-9.1-4-3.9,3.1-7.5,3-10.7-.3-2.1-1.3-1.8-2.9,1.1-5,.4-1.6,2.7-2.5,6.9-2.8,2.2-2.1,6.2-2.5,11.9-1.3,2.2,2.4,5.7,4.2,10.5,5.7h0Z"/>
  <path class="st59" d="M276.1,207.6c20.4,21.6,20.4,57.1,0,78.9-6.5-1.3,13.9-13.8,9.6-32.1,0-2.3-1-2.4-3.1-.4-.6,3.2-2.1,6.9-5.2,7.9-5.1,1.3-7-3.8-2.3-6.1-3.1-.3-3-3.4.2-3.9v-2c3.7-11.3,2.9-21.4-2.3-30.4-6.4,5.1-5.5-.6-3.5-6.5,0-1.9.4-4.3,3-4.6-.1,4.4,5.1,3.8,3.7-.9h0Z"/>
  <path class="st40" d="M217.3,272h-4.1s0-2.1,0-2.1c1.6-.1,3.3.5,4,2.1"/>
  <path class="st44" d="M37.1,114c6,1.4,6.8,2.8,4.3,8.4l-4.6,9.5c-6.5,7.3-8.1,18.1-7.4,27.8.5,3.1-.1,3.8-2.1,2.1-.6,1.8-1.2,1.7-2,0-1,1-1.6.3-1.8-2.1-2.9-4.7-2.8-17.1.5-23.4-3.7-2.2-1.4-5.8,1.5-8.3-6-2.6-.6-9.6,4.6-7.6-1.4-1.2-.8-1.9,1.9-2.1-2.4-3.3-.1-6.9,3.2-8.4.6-1,1.2-1,2,0,1.6,1.2,1.2,2.7-.2,4.1h0Z"/>
  <path class="st245" d="M105.4,70.6c5.9-2.7,9.9-2.8,12.2-.3,2.2,3.9-16.6,11.1-19.1,11.4-7-2.3-12.7-1.4-17.3,2.8,2.6,6.3-6.4,13.8-12.2,15.3,1.2,2.7-1.4,4.7-3.5,2.1-1.9,1.5-4.6,3.4-6.5,1.8,5.4-12.3,16.1-23.3,27.9-29.9l6.5-3.7,3.8.2c4.1-2,6.8-1.9,8.2.2h0Z"/>
  <path class="st255" d="M49.8,106.1c-2.9,3-4.5,2.9-4.7,0-9-.7-10.9-2.8-5.7-6.4,2.6-1.2,5.9-1,7.9-3.7h8.4c-.8,5-4.1,6.9-5.9,10.1"/>
  <path class="st156" d="M65.5,102c1.8.6,1.8,1.3,0,2.1l-8,13.8c1.7.8,1.6,1.5-.2,2.1l-2-2v-4c1.3-.9,1.7-2.5,2-4l1.6-6.3c1.9-1.4,4.3-3.3,6.5-1.8h0Z"/>
  <path class="st132" d="M49.8,106.1c-1.5,2.6-5.3,6.4-5.4,9.7,0,4.2-1.7,4.1-3,6.7.3-1,0-3.6-.9-3.7l-3.5-.3c-2.2-.2-.3-3.4,0-4.4.4-1.5,1.2-2.2,2.2-2.1,2.2-1.6,3.5-3.1,3.8-4.3-3-3.1-1.6-4.2,2-1.6,1.3.4,3.2,0,4.7,0h0Z"/>
  <path class="st115" d="M115.1,249.9l-.3,10.1c-1.3-1.1-2.1-2.3-4.9-3.4,0,3.8,1.6,7.8.3,11.8-6-7.6-10.4-17-19.1-17.5l-4.4-.3c-.6,0-.8.4-.4,1.3l.9,2c-2.8-.6-5.4-2.1-8.2,0-2.1-4.9-3-8.8,3.5-7.9,1-8,17.6-5.2,23.7-2,3,2.7,6,4.6,9,5.9"/>
  <path class="st181" d="M67.3,214c1.8.5,1.8,1.2,0,2l-1.9,2c1.7.6,1.7,1.2,0,2l1.9,6.1c1.6-.8,2.3.6,2.1,4.1,1.2-1.1,3-.2,5.5,2.7,3.5-2.4,3.7-.6,2.2,3.4,1.2,2.6-2.4,3.1-3,2.5-2.2-2.4,7.1.5,5,5.1l2.4,2.1c.1-1.6.5-1.6,1-.1l-3.5,7.9c-.4-.1-1-.2-1.5-.1-2.2-.3-2.7-1.2-.8-2.7-5.3-1.1-14.1-6.6-13.2-12.8h-4.4l-1.8-1.9c-3.9-1.8-3.3-4.1,1.6-6.9l.4-3.2v-2c0,0,4.1-10.1,4.1-10.1v-1.9c3-4.4,4.3-3.8,3.9,1.9h0Z"/>
  <path class="st123" d="M76.7,251l.8,2.7c-1.7.3-3.7,0-4.5-1.6l3.7-1.1Z"/>
  <path class="st315" d="M233.2,97.1c5.7,2.5,9.4,7.9,11.2,16.1,3.1,16.6,5.4,33.1,6.9,49.7-.3,2.7,2.2,7.1-3,10.2-1.7-5.6-.9-9.7-1.2-14.8-2.1.7-3.8,1.1-4.7.7-1.7-.7-1.2-3.7-1.4-4.9-.6-7.5-1.3-15.1-2-22.6l-2.3-1.8c2.6-6.4-4.4-33-13.6-23.7-.1,5.7-5.5,7.2-8.4,1.2-2.5-5.2-2.4-11.6-2-17.3-7.3,6.4-24.2-9.5-23.4-17.7-4.9-6.8,14.3-.3,17.9,1.2,11.5,4.8,15.2,8.6,21.1,19.7l4.9,4h0Z"/>
  <path class="st192" d="M241.1,154.2c-5.1-6.1,1.2-15.8-3.9-20.1,0-.5-.2-1.7,0-2.1-1.3.5-2.7.5-4.1,0-3.5,1.4-3.8,0-.6-2.2,4.5-8.6,1.6-10.7-6.1-3.9l-2.4-1.1c-1.2-5.7-.9-11.3.9-16.9-2.8,2.6-3.8,1.5-1.9-1.9l-1.4-7.7c3.2.9,10.6,1.2,12.2,4.7,7.7,16.4,7.5,33.9,7.1,51.1h0Z"/>
  <path class="st226" d="M229.7,86.4l11,13.5c6.1,7.5,6.8,18.4,8.3,28.1l1.9,8.3c-.2.9,0,2.8.1,3.6,1.9,7.7,1.2,15.1.4,23.1-2.3-1.3-2.6-3.5-2.9-6.7l-3.3-29.9c-1.3-11.6-5-20.9-11.9-29.3-4.1-2.7-11.4-9.3-8.1-13.4.9,0,1.6,0,2,.3l2.6,2.4h0Z"/>
  <path class="st86" d="M217.2,360c.6.4,1.7,1.3,2,2,.9,2.3,2,4.5,4.1,6v2c.3,2.1.5,4.4-1.1,6.1-1.1-2.7-1.9-3.5-3.1-4-2.7-6.3-9.2-9.8-14-14-.2-2.6,1.9-3.2,6.5-2l5.7,4h0Z"/>
  <path class="st30" d="M205.3,352l2,1.9c1.6.5,2.9,1.2,4.3,2.1-1.4,1.7-4.3,1.6-6.5,2-.9-.8-2.8-1.2-3.9-1.7-4.3-2.2-4.7-3,0-4.4.6-1.5,1.2-1.5,2,0h2s0,0,0,0Z"/>
  <path class="st291" d="M201.3,352v4.4c-3.2-1.4-6.6-2.5-10-2.4-1.1-1.1-2.4-2.1-4-2.1-1.7-.6-1.7-1.4,0-2.2,3.9-1.3,10.9-.7,14,2.2"/>
  <path class="st68" d="M153.3,364c.4-.8,1.2-1.5,2.1-1.9-.3.8-1.1,1.8-2.1,1.9"/>
  <path class="st48" d="M189.4,25.5c3.4,1.1,3.3,1.9-.2,2.5,1.4,1.2,2.6.8,4.1.1,5.2-1.2,12.6-1.7,17.9-.1,1.7.6,1.7,1.2,0,2-1.9.9-4.6,1.5-7.9,1.9l-3.9.2-2.2,1.9h-4c-5-4.7-15,.6-20.3-4.1-1-.6-.9-1.2.2-1.8l4.2-2c-.3-1.8.3-1.7,1.4-.2,2.8-5.3,15.9-8.8,10.7-.3h0Z"/>
  <path class="st213" d="M233.2,14.1c1.4-4.1,7.4,0,6.3,3.8-1.2,2.3-2.7,5-4.4,8l-1.9,6.1-1.8,2.2c-.5.3-1.2.4-1.8.4-.4-2.2-.6-5.6-2.5-6.6,1.8-3.4,1.3-7.4-1.7-12-1.4,3-3.9,3.6-4.1-.2l-4,2.2c-.6,1.8-1.2,1.7-2,0-1.9-1.5-.4-3.7,2-4-1.1-.9-.4-1.6,2-2,.6-1.7,1.3-1.7,2,0,3.5,1.2,8,2.5,9-1.8l2.9,3.9h0Z"/>
  <path class="st210" d="M194.3,63.4c-.6,1.9-2.9,2.5-7.2,1.6,8.2,1.5,15,3.1,20.4,4.8,6,3.2,15.6,6.9,17.7,13.9,1.6,5.3,4.6,9.1,8.1,13.4-7.8-1.4-10.9-10.6-14.7-15l-24.4-11c-2.3-1-3.8.2-4.7,1,0,3.4-10.2-1.1-13.6-2.6-1.6-.8-3.4-2.2-4-3.8-7.6,3.6-16.4-.5-10.8-10.6,11.2-.2,22.6,4.1,33.3,8.3h0Z"/>
  <path class="st136" d="M194.3,63.4c3.7,1.4,6.8,4.5,11,4.6.6.7,1.2,1.4,2.1,1.8.3,1.1-.6,2.2-1.3,2.2-1.1,0-2.3-.8-3.5-1.3l-15.6-5.7c3-1.7,5.2-1.3,7.2-1.6"/>
  <path class="st144" d="M232.6,129.8l.6,2.2c-.5,2.3-1.2,4.2-2.1,5.9.4,4.7-.3,9.4-2.1,14.1v9.9c0,0,7.9,18.4,7.9,18.4-1.1,4.4-8.8,3.3-9.9-.8-2.8-.5-3.9-1.4-1.5-3.2-3.1-2.9-3.8-5.6-1.9-7.9-3.1-2.8-4.6-4.4-.6-6.1-.8-5.1-.8-9.9.1-14.2-1.7-.6-1.5-3.2,0-4.1.9-9.9,4.1-15.8,9.9-17.7,2,.3,1,2.3-.5,3.5h0Z"/>
  <path class="st298" d="M247.8,188.5l-22.4-4.4c-1.8-.5-1.8-1.2-.1-2.1-1.8,0-1.9-.7-.3-1.8,0-2.1.7-2.3,2.1-.6,2.4.2,4.8,1.2,8.9.2-3.5-6.5-6.8-11.6-6.8-17.9l8.8,17.3v4c-.1,1.9,7.5.5,9.8,5.2h0ZM229.1,152.1c0-4.9,1-9.3,2.1-14.1.7-1.7,1.3-1.6,2,.1-1.4,4.6-.8,9.9-4.1,14.1h0Z"/>
  <path class="st88" d="M233.3,136c0,.6,0,1.4-.1,2h-2c.4-1.8-.5-5,2.1-6,2.2-.4,2.2.9,0,4"/>
  <path class="st298" d="M237.4,131.9l-4.1,4v-4c.7-.3,2.4-1.3,3-1.9.4-.3,1.3,1.3,1.1,1.8h0Z"/>
  <path class="st90" d="M241.1,30.1c-.5,11.9,13.6,3.4,14,13.6l-4.9-1.7c-.1.5-.6.9-1,1l-4.1.7-2.6.3-3.8-1.7c-3.8-.2-10.1,1-14.7,2.5-11.9,3.8-23.5,0-34.6-1-.2-.6.5-1.6,1.9-1.6l29.5-.5c8.4-.1,14.6-5,16.9-13.7,1.1.6,2.9,1.5,3.3,2.1h0Z"/>
  <path class="st296" d="M242.6,44c-1.4.2-2.8-.5-3.8-1.7h2.9c.6.2,1.2.8.9,1.7h0ZM242.3,37.5l1,1.5-1,1-1-1,1-1.5Z"/>
  <path class="st256" d="M111.2,292c1.6-2.1,4.6-.9,3.2,2.1.3.4,3.1,2.2,2.6,3s-3.7,1.2-5,2.4c-2.6-1.1-3.7-5-8.6-5.5-.3,5.4-2.9,9-5.8,12.1-2.7,1.3-4.5,3.8-6,6.3l-1.1,2c-3.4-6.6,1.4-16.5,8.4-20.3l.2-18.2c0-4.4-3.3-6.2-6.1-7.9l-3.7-2.6c1.6-.1,3.3-2.7,6.4-.1,6.8,5.6,9.1,13.7,6.9,22.9,2.7,2.5,6.3,2.7,8.4,3.8h0Z"/>
  <path class="st82" d="M91.7,312.4c.5-2.4,3.3-6.6,6-6.3l-6,6.3ZM95.3,303l1-1,1,1-1,1-1-1Z"/>
  <path class="st13" d="M45,106.1c-1.3-.4-2.1.2-2,1.6-.6,2.9-2.7,2.7-3.9,0-.8,1.4-2.8,2.2-6.2,2.1.7,4.2-3.9,7.8-8.2,7.6,0,5.5-2.8,10.4-8.3,14.7,2.4.4,3.1,3.1.4,3.9,1.3,2.6.4,4.4-2.7,5.2,2.2,3.7,2.4,5.9.7,6.7-.3,2.1-.1,4.4.5,6.7,3.6.8,4.4,2.7,1.6,5.1,4.9,2.4,3.3,4.9-2,3.7-1.3,2.9-2.9,2-4.6-2.5,2.3,7,5,16.1-4.8,8.8-.4-1,0-2.8-.1-3.8-4.2-12.6.2-34.8,9.6-44.1,3.6-7.4,11.2-13.9,18.2-17.9l1.7-2.1c1.4,0,1.8-.4,2.2-1.9l2.2-.2c-.3.5,0,3.3.9,3.6s2.9-2,3.8-3.2c2.3.8,2,4.3,1,5.9h0Z"/>
  <path class="st255" d="M33.2,103.9l-18.2,17.9c0-3.5,1.6-6.8,4.7-9.4l10.7-8.8,2.7.3Z"/>
  <path class="st207" d="M57.3,236.2l-6-2c1.6,3.4,1.8,6,1.6,8.8-3.6-3.4-4.8-8.3-3.8-13.1,3.7-.7,7.7-.5,10.2-3.7,1.8.7,3.1,2.8,2,4.3l-4,5.8h0Z"/>
  <path class="st123" d="M57.3,236.2c2.8-2.8,3.9-1.6,1.8,1.9,2.3-1.3,3.1-.2,2,2.3,3.8,2,9.2,6.8,10,11.3-.8,1.8-2.7,4.2-2.7,5.6,7.8,4.7,15,1.7,23.1,3.2-7.1,3.6-17.7-1.2-24.3,3.2-6.6-1.9-12-7-13.6-13.5-.2-2.8-.4-5.3-.6-7.5-6.1-9.5,1.7-17.1,4.4-6.7h0Z"/>
  <path class="st123" d="M53.1,248.4c-.6-.8-1.3-1.8-2.1-2.3,1.2.3,2,1.2,2.1,2.3"/>
  <path class="st287" d="M76.7,251c.8,2.1-1.7,2-3.7,1.1-.6.2-1.4-.2-1.9-.4-5.6-1.2-11-5.1-10-11.3-1.3-2.5,0-3.7,2.4-2.3,4.4,3.2,11.5,7.4,13.2,12.8"/>
  <path class="st288" d="M65.5,256.9c-2.5,2.5-3.9.5-5.3-.8-2.4-2.2-4.4-4.1-1.9-8.3,1.3,3.2,2.2,5.3,7.3,9.1"/>
  <path class="st207" d="M63.5,238.2l-2.4,2.3-2-2.3c-.3-1.6,1.4-2.7,2.8-2.1.6.3,1.1,1.5,1.5,2.1"/>
  <path class="st168" d="M256.9,132.7c-2.6-2.3-1.9-6.3.2-8.8,1.2.4,2.3.9,4.2,2.9l-4.4,5.9Z"/>
  <path class="st298" d="M250.9,136.3c-2.1-2.3-1.4-5.5-1.9-8.3,3.1,1.6,2.5,5.5,1.9,8.3"/>
  <path class="st178" d="M105.9,363.9l-2.9.3-1.6-3.6c-2.1-1.5-2.5-3.9-2.6-6.4-3.8,1.4-4.7-1.3-1.9-4,2.9-2.8,4.5,1.6,7.1,3l13.8,7.4c-4.2,3.2-8.1,3.1-12,3.4h0Z"/>
  <path class="st149" d="M103,364.2c.1-3.9,1.7-4,2.9-.3,13.4-2.8,19.9-.7,19.6,6.3,1,3.1-4.7,4-6.2,1.5l-4,.2c-.7,1.5-1.4,1.4-1.9-.2-.4-1.8-1.1-1.7-2.2.1-2.8,1.7-6.3,1.1-7.9-1.9l-6,2.2h-2l-2.6-1.8c-5.7-1-11.3-4-15.2-8.4-7.6-4.1-9.8-14.8-.2-7.8,7.4,5.4,16.5,9.1,25.7,10.1h0Z"/>
  <path class="st266" d="M103.3,370v2c-.4,1.7-2.5,1-4,0h-2c.5-2.6,3.6-2.8,6-2"/>
  <path class="st265" d="M99.1,360.6c.8-1.6,1.6-1.6,2.3,0,5.1-1.5,5.6.2,1.6,3.6-9.9,9.4-9.9-5.3-24.2-5.4-.9-4.3-3.4-6.3-7.7-4.2l6.4,7.3c-4.5-2.2-7.4-6.1-10.3-10,1.3.7,2.6,2.9,5.1.4-3.3-3.3-4.3-5.7-5.3-8.3l2.4-1.5c6.7,6.2,14.3,11.3,22.6,15.1.4-2.8,2.8-1.8,7.2,2.9h0ZM95.3,372.1l-2.6-1.8c1.1.2,2,.8,2.6,1.8"/>
  <path class="st130" d="M119.3,371.7l-4,.2.3-2.9c.1-1.2,1.2-2,2.6-1.1,1.3.8.7,3,1.1,3.8h0ZM113.4,371.7h-2.2c-.4-3.9,2.5-4.1,2.2,0"/>
  <path class="st265" d="M86.3,361.2l1,1.8-1,1-1-1,1-1.8Z"/>
  <path class="st111" d="M71.5,337.8c2.9.9,4.3,2.3,4,4.4,0,1.8,2.5,3.4,4.1,4,2.9-2.8,4-1.5,1.6,1.9,3.5,1.6,4.7,1.6,3.6,0-3.6-1-3.1-3.9.6-4.1l-1.8-4.3,13.4,10.5c.6,1.2,1.1,3,1.9,4,1.4,2.5,1.5,4.6.2,6.4-6.3-1.8-14.6-1.3-20.1-6.2l-12-10.3-2.2-5.4c-.7-4.3.2-5.8,2.7-4.5,1.1.9,2.7,3,4.1,3.6h0Z"/>
  <path class="st32" d="M63.4,324l2.6,5.2c-1.6.8-1.9,2.2-1.3,2.6l2.8,2.3-2.7,4.5c-5.4-13.1-5.2-32.9.6-36.6,1.2.5,2.2,1.1,2.2,1.8.1,1.1-2,16.1-2.5,18.6-.1.6-.8,1.1-1.7,1.6h0Z"/>
  <path class="st210" d="M229.7,86.4c-1.1-.5-2-1.4-2.6-2.4,1,.6,1.9,1.5,2.6,2.4"/>
  <path class="st60" d="M15,163.4c3.9-.3,4.1,1.2.6,3,2.6,2.2,2.6,3.4,0,3.6-6.9,6.6,2.5,16.7,11.6,27.1-.7.8-1.3.9-1.7.9-8.5-5.7-15.3-14.2-18.4-23.9l.3-2.2c-.7-.6-1.5-1.4-1.8-2.2,2.3.4,6.9-2,4.9-4.5l-3.3-4.2c-1.3-1.6,1.6-4.7,4.5-2.6,1.3,1,1.4,4.6,3.3,4.9h0Z"/>
  <path class="st13" d="M7,174.1l.3-2.2c1.3.5,1.2,1.8-.3,2.2"/>
  <path class="st150" d="M225.2,2.2l10.1,4-1.1,3.7c1.4,2,1.8,3.2-1,4.2-4,.1-8.8,1-12-2.1,2.6-2,1.4-2.7-3.8-2.1l-4.1-1.9c-3.6,1.7-8.1,2.8-13.4,3.4,2.7.5,3.6.9,1.3,2.7-.6,1.7-1.2,1.7-2,0-2.6-.1-4.6.6-6.1,2.1.8,1.4,1.3,3,.4,4.2-1.5,1.8-11.7,1.6-14.2,1.4-.6,1.9-1.3,1.9-2.1.2-1.5-1.7-3.6-1.8-6.3-.2-2.1,5-3.7,4.3-3.9-1,2.7-4.5,8.7-4.6,13.5-7.5l14.5-9c7.8-1.1,17,1.8,24.1-1.8,1.4-.7,4.7-.7,6.1-.2h0Z"/>
  <path class="st286" d="M171,21.8c2.1-1.7,3.7-2.9,4.3.2,3,0,2.7,3,0,4,1.4,2.1.2,2.9-2.2,2-.2.5-.1,1.2-.2,1.8-1.8-1.6-4.6-1.7-7.2.1v-9.5c0,0,1.4.3,1.4.3,1.3.2,2.6,1,3.9,1h0Z"/>
  <path class="st179" d="M131.3,58c.7,0,1.9-.2,2.9,0s1.3,1.5.3,2.1l-3.4,1.7c-1.5,3.8-3.9,5.8-7.3,5.8-5.6-.4-11.7.6-18.4,2.9-3.8.2-9.2,3.9-12-.4l9.9-4.3c9-3.9,18-8.3,28-7.8"/>
  <path class="st188" d="M193.3,348h2s8,2,8,2v2h-2l-14-2.2v-1.8c0,0,6,0,6,0Z"/>
  <path class="st255" d="M35,101.8c.7-.8,1.4-1.5,2.2-1.9.8,1.8-.7,3.7-2.2,1.9"/>
  <path class="st79" d="M275.4,27.9c2.2,1.8,4.3,3.7,5.8,6.2l2,3.4,2.5,12-2-.3-4.4,2.8c-2-1.3-3.7-3.4-4.2-5.8l1.9-4.4c-2-1.5-3.9-3.5-5.5-5.8-3.9-1.3-3.9-3.2,0-5.7-.8,1.1-1.8.9-2.5-.3-.4,1.8-1,1.7-1.7,0-1.8-.5-1.7-1.2,0-2-.9-.5-.8-1.1,0-2l8.1,1.9h0Z"/>
  <path class="st316" d="M29,166.1c-.7-3.7.7-3.5,2.4-.1l.2,2.3c3.1,6.9,5.9,13.8,8.1,20.6l-2.4.6c-4.9,3.1-8.3,2.7-10.2-1.2.3-1.5,1-5.3-.5-7.4-.9-1.2-3.1-.3-5.2-.6l-3.9-4.7c.1-.3.1-.7,0-1l-2.8-2.5c.3-.6.8-1.4.8-2v-3.6c2.6-2.5,6-1.6,10.1,2.7l3.3-3h0Z"/>
  <path class="st4" d="M41.4,191.9c-1.6,5.6-3.7,6.4-6.2,2.1v-2c-2-2.5-.8-2.7,2.3-2.5,1-1.5,1.3-2.9.7-3.9-.9-1.7-3.6-3-4.8-4-2.6-4.3-1.2-9.3-1.6-13.4,5.9,5.8,11,15.2,9.7,23.6"/>
  <path class="st33" d="M37.4,189.5c-.6.9-.8,2.1-2.2,2.5-.1-.9-1.2-1.2-1.4-.9-.4.7-1.1,2.8-1.2,4.8-3.6-1.4-6-4.4-5.5-7.6,3.5-.6,7-.2,10.2,1.2"/>
  <path class="st4" d="M31.4,165.9h-2.4c-5.2,2-5.8.6-1.7-4l2.1-2.1,2.1,6.1h0Z"/>
  <path class="st60" d="M21.5,180.2l-3-.5c-1.2-.2-1.3-2.9-.9-4.2,2.5,0,4.2,2.1,3.9,4.7"/>
  <path class="st33" d="M35.1,194c.4.4,2.4,1.8,3.1,1.4,1.1-.5,2.3-2.5,3.1-3.6-.5,2.9-1.8,5.6-3.2,8.3-1.2-3.1-1.8-4.6-3.1-6.1"/>
  <path class="st60" d="M17.6,174.5c-1.9.7-3-.9-2.8-2.5,1.3.2,2.4,1.2,2.8,2.5"/>
  <path class="st177" d="M80.2,124c4.4,2.3,5.4,7.4,1.2,10.4-.2,5.9-1.5,10.5-4.1,13.6-.5,1.8-1.2,1.7-1.9,0-.7-8.1-3.2-15.7-6.9-22.9-2.4,3.3-.3,5.5-.5,6.8l-7.2-7.2c-1.9-2-5,2.1-5.2,3.8l1.8-8.5.2-2.1,8-13.8c.2-.5,0-1.5,0-2.1l3.5-2.1c5.5-8,10.5,1.6,3.4,7.2l2.3,8.1c-1.6,7,.2,10,5.5,8.8h0Z"/>
  <path class="st170" d="M115.3,129.9l2.1,2c-.3-4.5,5-3.8,5.7,0l8.8,6c.7-1.8,5.1-1.4,7.2-.7,8.6,2.5,24.9,12.8,9.2,16-.9,3.8-4,4-9.4.6-2.6,2.8-6.4-.3-7.6-3.5-6.6-3.2-13.4-4.8-20.7-4.6-8.2.7-10.5,5.7-3.6,10.8,2.4-4.4,5.1-5.4,7.8-.5,3.4-.2,7.1.7,10.4,2,5.3.8,5,2.6,0,4.1-1.1,4.4-6.2,4.4-7.4.3-4.1-1.9-8.2,0-12.3,5.7l-2.1-2-15.3,1.9-.8-2.4c-4.3-1.7-8.6.4-14.1,2.4l2.4-16.1-.4-4h1.9c5.9-.9,6.9,7.8,1.6,9.8,3.1,3.7,10.5,0,13.2-7.4-3.4-9.2,1.7-14.4,9.4-18,.3-2.6,6.8-3,10.3-3.1.6,0,1.1.3,1.7.7.5-1.9,1.1-1.9,1.8,0h0Z"/>
  <path class="st62" d="M93.1,174.3c-1.6,5.2-12.5,11.3-17.9,11.1l-1.9,2.6c0,2-.7,2.9-1.9,2.7,4,.6,3.8,2.2-.2,3.1-.3,3.7,1,5.7,4,5.8,1.3,6.5,0,10.6-3.9,12.3-3.1,2.9-3.4-.6-1.9-4-1.8-.3-1.8-1,0-1.9,1.7-7.4-10.5-9.7-.1-24.4,2.8-2.2,5.8-4.3,8-7.3,1.6-.3,3-1,4.2-2,2.1-2.2,3.4-2.3,3.9-.4l4.1-1.9c1.5-2.9,7.8-4.3,10.2-2,2.1,2.6,0,4.7-6.5,6.2h0Z"/>
  <path class="st189" d="M103.4,166.2c1.2,3.4-1.2,4.3-3.8,1.9-3.3,1.2-6.7,2-10.2,2l-4.1,1.9-3.9.4c1.4-2.6,3.7-4.3,5.9-6.7,5.2,2,13.8-4.7,16.1.5h0Z"/>
  <path class="st207" d="M59.4,224.1c.1-3.7,1.2-7.6,4-10.1,0,3.8-.8,7.8-4,10.1M69.2,206c-.1.5,0,1.4,0,1.9.5,3.5-.2,5.5-2,6l-4-1.9v-2.1c1-1.3,1.7-2.6,2.2-4.7.4-1.6,2.7-.6,3.7.7h0Z"/>
  <path class="st71" d="M131.1,183.5c.8-3.9,2.4-3.4,2.5.6,5.9.4,5.3,4.1,0,5.5,5.2,1.1,5.1,2.4,0,4.1l-2.2,8.7c-5.4,5.9-13.7,12.6-22.3,14.1-8.7,1.5-14,1.6-14.3-8.9-5.6-.6-11.1-1.2-15.3-5.5-5.6,3.4-8.4.6-8.4-8.3,0-.9.6-2,.2-3.1,1.2-1.8,1.9-1.6,2.1.5,3.2-6.7,11-9.4,18.2-10.1,3.7-12.3,26.3-.6,35,4,1.8.9,3.2.3,4.5-1.6h0Z"/>
  <path class="st172" d="M122.9,227.4c-.8,7-2.1,14-5.1,20.4l-2.7-.3h-4.4c-7.1-6.6-16.8-8.6-29.3-5.7-3.7-1-5.1-2.9-4.3-5.5.5-1.7,1.2-1.8,2.2-.4,1.3-.9,2.6-.9,4,0-.7-3.9,6.3-2.7,8,.1-.6-4.7,10.6-6.9,12.3-2.2,6.6-7.1,11.9-9.1,16.1-6.1,2.2-3.7,3.3-3.8,3.2-.2h0Z"/>
  <path class="st224" d="M167.4,259.9c1.7.7,1.6,1.4-.1,2.1,0,2.8-3.8,5-6.2,3.7-.4,1.5-1,1.5-1.8,0l-5.9-5.9c-1.3-1.2-1-1.7.9-1.4-3.1-15.1.3-49.2,11.8-18.1,0,6.6.4,13.1,1.4,19.6h0Z"/>
  <path class="st281" d="M157.2,200.3c2.4,5.5,6.1,15.3-1.9,9.6-3.5,2.2-8,4.4-11.8,2-1,3-1.8,3-2.4-.2,2.4-3.1,1.9-8.1,2.7-11.6-1.8-3.3-3.4-10.7,1.7-10.4,2.1-9.4,8.6-2.6,8.7,5l2.8,5.6h0Z"/>
  <path class="st120" d="M122.9,270.3c1.7,0,1.7.5,0,1.4,0,2.1-.6,3.5-1.9,4.1-5.5,1.6-5,8.3-6.5,14.5l-2.3-11c-.3,4.7-3.6,5.4-3.9.1,4.6-2.9,7-6.1,3.8-12.5,6.8-2.4,5.9-7.8,5-12.8,5.1,3.2,1.5,11,5.7,16.2"/>
  <path class="st308" d="M137.5,228.1l2.5,1.1c-.6,6-2.4,12.3-5.2,19,.4,4.8.5,9.5.3,14,5.1-1.9,7.8-.7,8.3,3.7,2.9-2.5,3.9-1.3,1.8,2-6.9,4.2-17.6-4.7-17.8-13.9-.1-10.2,4.5-19.4,7.5-27.9,2.4-3.5,3-1.8,2.5,2.2h0Z"/>
  <path class="st166" d="M127.6,278.6c-2,3.6-1.9,8.8-2.6,12.9l-3.7.5c-1.2.1-2-.8-2-2v-4l2-6c.4-2.3,1.1-4.1,2.2-5.5,1.7-10.3,6.3-3.5,4.1,4.2h0Z"/>
  <path class="st234" d="M127.3,221.6l-1.9,4.6c-.8.6-1.5,1.1-2.5,1.2l-3.2.2c-1.4-2.3-2.2-4.2-2.6-5.9l6-3.9c2.7-1.7,5.4-3.2,7.9-6.3.9,4.9-2.7,6.9-3.6,9.9"/>
  <path class="st214" d="M171.5,264h-2.2c-3.4,2.9-4.5,1.8-2-1.9v-2.1c.1,0-.9-16.7-.9-16.7l2.6-3c-.7-3.7.8-3.7,2.5-.2,1.1,3.3,4.7,7.4,3.4,11.8l-3.3,12.1Z"/>
  <path class="st37" d="M146.8,279.9v4.7c-1.1-1.6-1.2-3.6-4-5.8l-3.4,7.4c0-3.2-.3-7.4,1.3-10.9,1-2.2,4.7-1.6,5.5.7.4,1.1.6,2.3.6,3.9h0Z"/>
  <path class="st232" d="M145.6,189.7c.1,3.8-.9,6.9-1.7,10.4-1.3-.2-3-.8-3.4-2-.3-.9-.2-2.7.8-5.3-2.4-.3-5.2,0-7.6.9v-4.1c.9-3.3,8.2-5.7,11.7-6.1,6,.4,5.4,3.5.3,6.2h0Z"/>
  <path class="st239" d="M154.2,258.4l-.9,1.4c-.1,3.8-4.6,5.8-8.1,7.9l-1.8-2c-3.2-3.1-.2-7.7,4.1-7.7,1.5-7.7,3.3-5.4,6.7.4h0Z"/>
  <path class="st309" d="M127.6,278.6l-.7-6.5-3.5,2.3c-1.4.2-1.6-.7-.5-2.8,0-.5,0-.9,0-1.4l1.3-8.4c5.1,4.6,6.5,11.2,3.4,16.8h0Z"/>
  <path class="st186" d="M143.5,211.9c5.8,3.1,2.2,10.2-4.1,10.2-2.3,2.6-3.1,1.9-2.4-2.1,1.2-3.3,2-5.7,4.1-8.2l2.4.2h0Z"/>
  <path class="st58" d="M128.6,292.3c1.6-3.3,2.5-6.7,2.6-10.4,3.1.7,2.9,3.5,3.5,5.9,1,4.5-2.2,5.7-6.1,4.5"/>
  <path class="st290" d="M169.3,264c-1.3,1.7-4,3.9-5.9,3.9-1.9-.2-2.6-1-2.3-2.2,1.8-1.7,3.9-2.9,6.2-3.7,0,1.3.7,2.2,2,2h0Z"/>
  <path class="st301" d="M139.5,222.1c5.4,2,3.6,6.3-2,5.9l-2.5-2.2,2.1-5.9,2.4,2.1h0Z"/>
  <path class="st65" d="M161,265.7c.9.6,1.7,1.4,2.3,2.2h-4.6c-.9.1-1.1-1.6.6-2.2h1.8Z"/>
  <path class="st172" d="M125.5,226.3c-.4-1.8.1-3.8,1.9-4.6-.5,1.7-.3,3.4-1.9,4.6"/>
  <path class="st92" d="M182.8,174.1c13.8-4.7,29.8,7.6,7.9,9.8,2.7,4.4-6.4,9.9-9.9,5.9-8.7,5.2-5.4,8.6-9.4,14.2-.8-.7-1.5-2.1-2-4.1v-3.7c-4.1-.1-3.3-2.5.2-4.1-5.8,0-5.5-4.6-.2-6.1-4.3-6,7.7-18,13.4-11.8h0Z"/>
  <path class="st148" d="M157.3,178c2.8-2.7,3.9-1.6,1.9,1.8l2.2,2.2c4.1-1.3,6.6-.2,8,3.9l.2,6.1c-2.5,1.9-4.1,4-4.7,6.3-3-.3-4.8-3-5.5-8.2,0-2-1-2.9-1.8-4.4-3.9,1.2-7.9.5-12.1-2.1l-6.4,7.7-2.9-2.2c-.6-.5-1.8-.1-2.4.7v-5.5c4.4-7.7,20.6-20.2,23.6-6.1h0Z"/>
  <path class="st118" d="M177.7,216l3.6,4.1,16.4,7.3-1,1.2c5.9.8,8.1,2.6,6.6,5.3-12.3,7.5-31.4-9.7-28.6-17.7l3-.2h0Z"/>
  <path class="st29" d="M157.4,185.6l-.2,12.4c1,.8,1,1.5,0,2.3-10.2-1.1-4.8-16.3-11.6-10.6l-.3-6.2c3.1-3.8,9.8-2.2,12.1,2.1h0Z"/>
  <path class="st145" d="M197.8,227.4c5.6,2.5,13.3,4.1,19.1,2.2,1.2.2,3.8,0,5.3.3,1.1.3,1.6,2.5,1.2,4-1.6,1-2.1,1.8-1.3,2.5-.6.6-1.2,1.6-2.2,1.7-3,.4-6.4,0-8.6-2.1-.7-2.5-3.7-4-6-2h-2c-1.5-3.4-5.4-4.5-10.1-4,.4-3.9,3.2-2.5,4.6-2.6h0Z"/>
  <path class="st318" d="M171.4,240l-2.5.2c-1.4.4-2.5.6-2.7.3-2.7-4.4-10.2-19.5-5.1-22.4-1-3.4-.9-4.1,2.2-2.1l8.1,24h0Z"/>
  <path class="st35" d="M181.1,280.6l2,6.7v3.5c0,.9-2.8,2-3.5.6-1.8-3.6-1.7-8-2.3-11.4l-2-2.3v-1.7c.6-3.8,1.9-5.1,3.9-4.2-.3,3.3,1,5.6,1.9,8.7h0Z"/>
  <path class="st238" d="M169.6,192l-.2,4.1c-.8-.4-3.6.4-3.6,1.4.1,1.5,2.5,4.1.5,7.2-4.9-2.7-6.9-9.5-7.1-14.6,1.3,1.4,1.8,2.9,2.6,6.2,2.2-2.7,4.7-4,7.6-4.2h0Z"/>
  <path class="st194" d="M179.2,272l-3.9,4.2c-.1-4.3.7-8.4,3.2-12.4,1.3,3.6.9,5.9.7,8.2h0Z"/>
  <path class="st64" d="M163.3,216l-2.2,2.1c-5.6.4-8.2-3-5.8-8.1.9,0,2,.6,4.2-.5-2.2-2.9-2.6-6.1-2.2-9.1v-2.3c2.5,1.2,3.4,3.6,3,6.8-.5,4.4,1.9,7.8,3.1,11.2h0Z"/>
  <path class="st219" d="M211.3,236h-2c0,0-2-2-2-2-.6-.1-1.4,0-2,0,0-1.9,2-2.6,3-2.2l5.3,2.1c1.9.7,1.6,1.9.7,2.2-1,.3-2.1,0-3,0h0Z"/>
  <path class="st238" d="M171.3,204v4.1c-2.3-2.3-1.9-5.1-2-8.2,1.8.7,1.9,2.4,2,4.1"/>
  <path class="st194" d="M177.3,280.1c-.9-.4-2-1.3-2-2.3.7.4,1.8,1.4,2,2.3"/>
  <path class="st167" d="M192.2,288l-3.6,4.5c-2.7-7.8-6.2-16.2-.2-24.6,2.4,8.9-1.6,18.8,3.8,20.1"/>
  <path class="st19" d="M77,236.4c8.6,6.2,29.1-7,38.1,11.2.3.6,0,1.7,0,2.3-1.6,1.7-1.9,3.5-2.7,5.9-6.2-11.2-19.4-13-29.9-9.8-.3.1-.8.3-1,.1l-2.4-2.1c-2.7-1.1-5.4-3.2-7.4-7.3,1.6-.9,3.6-.4,5.4-.4h0Z"/>
  <path class="st76" d="M123.4,274.5c.4,2.1-.4,4.3-2.2,5.5l-.2-4.2c0-1.5.7-3.1,1.9-4.1l.5,2.8Z"/>
  <path class="st120" d="M119.3,286c0-2.3.1-4.6,2-6,.1,2.2.2,4.9-2,6"/>
  <path class="st322" d="M145,299.7c0,3.8,1,7.4-.1,12.9-3.7-2.9-4.3-6.9-5.8-10.5,1.2-1.3,2.2-2.4,2.3-4.2l3.6,1.7h0Z"/>
  <path class="st140" d="M161.2,299.6c.3,4.5,2.4,10.9-4.4,13.7-2.2-4.3-.6-8.1-1.2-11.4l-.3-1.5,2-2.2,2.5.2c.6,0,1,.9,1.3,1.3"/>
  <path class="st290" d="M172.9,286.5c-3-.1-3.9,2.2-2.7,7l-2.9,2.4c0,.7-.5,1.7-.7,2.3-2.4.2-5.6-.6-9.5-2.7-3.4,9.7-13,5.5-11.9-1.2-2.8-3.2-3.3-8.2,1.5-9.7-1-2.2-.9-3.8.1-4.7,4.3,2.6,2.3,8.5,2.9,14.3,3.6-6.7,3.4-13.9,3.9-21.4,2.4.9,4.3.6,6.4-.3,1,5.2.5,9.5,2.3,13.9,2.7-7.2,2.9-14,8.9-16.3l1.6,16.4Z"/>
  <path class="st57" d="M172.9,286.5l.5,7.5c-2-.3-4.5.8-6.1,2-.5-5.4-1-11,1.3-17.1,3.6,3,2.9,5.8,4.3,7.6h0Z"/>
  <path class="st17" d="M166.6,298.3c-.7,1.9-1,4-1.2,6.2-.8-1.9-2.8-3.4-4.2-4.8-1.4.8-1.9.3-1.3-1.3-.7-1.1-1.7-2-2.9-2.8,3.3-2.2,7.1-.2,9.5,2.7"/>
  <path class="st312" d="M146.7,284.6c0,2.5,1.7,8.5-1.5,9.7-1.3-1.8-3.9-2.7-5.8-3.8v-4.3c1.2-10.3,5.2-14.1,7.3-1.6h0Z"/>
  <path class="st129" d="M160.4,291c.1,1.2-3.7,2.6-5.3,2.8-.3-5.2-.3-10.3.8-16.3,2.2,2.8,4.1,9,4.5,13.5h0Z"/>
  <path class="st17" d="M155.4,300.4c-.2-.8,0-2.9,2-2.2-.4,1-1.1,1.8-2,2.2"/>
  <path class="st321" d="M297.3,60l2,4v2c-.3,10.2-1.8,20.2-4.8,29.9l.9,4.1c.6.9-1.2,4.2-3.3.8,1.3.8,2.4,1.8,1.6,3.4-1.1,4-2.7,7.9-6.2,10.2,0-1.6-1-1.6-2.9-.1-1.8,5.2-19.4,22.3-25.1,18.5-.5-.4.6-6.1,1.1-7.4,4.5-1.7,21.7-13.6,14.6-15.6l-2.2,2.1c2.4,4.9-1.3,7.4-5.4,4-1.5-.5-1.6-1.2-.2-2.2-1.8,0-1.7-.4,0-1.3l2.2-2.3c-4.1-.8-1.2-5.4,2.1-5.6l1.7-2.7c-1.8,0-1.8-.5-.2-1.5l2.2-2.7c-2.9,1-2.6-1.8-.6-3.6l2.6-4.4c-1.8.2-1.7-.2,0-1.2l1.7-4.2c-3.9-.3-6.5-3.6-1.9-6.1,4.9-5.2-1.5-11.4,2.1-15.3,2.9,0,3.9,3.7,3,11,2,4.1,3.1,3.1,5.3-.3,2.3-3.6,3.8-6.3,3.7-11l3.9-2.5-2-2c-3.9.2-4-3.2,0-4-1.4-3.2-.9-4.2,2.2-2.1.8,2.6,2.2,5.1,1.8,8.1"/>
  <path class="st151" d="M297.3,94.1l-2,3.9c0,.5-.2,1.6.1,2-5.6-3.6,3.5-13.7,1.8-30.1-.2-2.1.9-3.8,2.1-3.8-.2,9.4,1.1,18.9-1.9,28h0Z"/>
  <path class="st321" d="M295.3,98c-.1-1.4.3-3.4,2-3.9-.5,1.4-.2,3.2-2,3.9"/>
  <path class="st42" d="M299.3,64c-1.6-.6-2.2-2.4-2-4,1.6.6,2,2.3,2,4"/>
  <path class="st83" d="M284.5,114.2c2-1,2.3-.2.9,2.4v1.5c.1,0-12,12-12,12-.4.1-1.2,0-1.6,0-2.7,3.1-5.5,4.4-8.5,3.7-2.3.4-4.6.3-6.4-1.3l.2-8.8c0-.8-.1-1.3-.3-2-.5-3.8,1.1-3.9,2.3,0,2.7-2.1,5.5-4.1,8.4-6l5.4-4,2.2-2.1c1.3-3.4,5.5-3.7,9.3-3.1-4.9,11.6-15.2,18-25.7,24.5,4.8,2.2,7.7-.4,10.7-3.1l15.1-13.8h0Z"/>
  <path class="st3" d="M287.5,114.4c-.8.5-1.4,1.6-2,2.3l-.9-2.4c1.2-1.4.8-5.6,4.7-6.3.5,3.2-.9,4.7-1.7,6.4h0Z"/>
  <path class="st31" d="M292.1,100.8c1.7,2.4,1.7,2.9,1.6,3.4-.7-.5,2.1-.8-1.6-3.4"/>
  <path class="st96" d="M287,40c1.6,4.8,3.4,9.7,6.2,14v4c0,0,2,2,2,2l-.8,16.1c-1.2-4.9-4.6-3.7-4.8-.3-1.6,5-1.1,9.6-4.2,14.1-8.7-9-1.2-21.8-6.2-27.1v-4.3c6.2-5.8,8.2,2.3,4,7.6,1.2,2.6,1.9,3.3,2.2,2.2,0-2.5.6-4.5,2.1-6.1-5.1-2.8-4.7-7.8-2-12.6-5-1.2-6.7-9.2-2.5-12l3.8,2.6h0Z"/>
  <path class="st296" d="M274.7,94c-.2-.9-.2-2.1.1-3s1.5-1.6,2.5-1.4c0,2-.5,4.1-2.6,4.4M277.4,88.4c0-1.7.2-3.5,1.7-4.2.5,1.7,0,3.6-1.7,4.2M273.1,100.3c.4-1.2,1.2-2.1,2.2-2.7.2,1.3-.8,2.7-2.2,2.7"/>
  <path class="st96" d="M281.3,91l1-1,1,1-1,1-1-1Z"/>
  <path class="st83" d="M267.2,112.4c0-1.2,1-2.3,2.2-2.3l-2.2,2.3Z"/>
  <path class="st296" d="M273,111.9c.7-.5,1.9-1.3,2.2-2.1-.5.9-1.3,1.6-2.2,2.1M271.6,104.5c.4-1,.9-2,1.7-2.7l-1.7,2.7Z"/>
  <path class="st42" d="M295.3,60c-.9-.2-1.9-1.1-2-2,.9,0,2,1.1,2,2"/>
  <path class="st157" d="M285.5,68.2c-.5,1.4,1.5,4.4-1.9,6l-.3-8.2h2l.2,2.2Z"/>
  <path class="st49" d="M285.5,68.2l-.2-2.2c0-1.7.4-3.5,2.3-3.9l-2.1,6.1h0Z"/>
  <path class="st228" d="M267.2,26c.2.6,0,1.4,0,2-2.1.1-3.4.8-4,2,3.2.8,5,1.6,2.1,3.9-3.3-1.3-6-4.1-10.1-3.7l-.2-3.3v-2.8c1.2-1.7,3.6.6,3.5,1.9,0,.2-2.5-1.3.6-2l4.6-2.7c1.5,1.4,2.7,2.8,3.4,4.7h0Z"/>
  <path class="st183" d="M267.4,30h1.7c.7,1.2,1.5,1.3,2.5.3,1.6.2,1.9,1.3,1.4,2.4l-1.4,3.3c1.6.4,1.5,1-.1,1.8-2.8.2-4.6-1.4-6-3.9l-2.1-3.9c0-3,2.3-2.2,4,0h0Z"/>
  <path class="st185" d="M277,41.8c1.4,2.3.5,3.2-2,2-2.4-1-3.6-3.5-3.6-6,0-.5,0-1.3.1-1.8,1.8-1,4.3-.7,5.2,1.3.6,1.2.4,3.2.3,4.5h0Z"/>
  <path class="st143" d="M275.1,46.2c-.1-.7-.2-1.7,0-2.4.2-.9,1.1-1.7,2-2,.5.4,1.7,1,2,1.7.7,1.1,0,2.5-.9,2.6l-3.1.2h0Z"/>
  <path class="st23" d="M283.7,49.2l-.4,3.6c-.3,2.4-1.2.4-4-.8-.5-1.5-.4-3.1,1-4,1-.6,3,0,3.4,1.2h0Z"/>
  <path class="st223" d="M194.5,194.1c5.5,3.1,7.8,6.6,6.8,10.6l-.4,5.3c10.5,2.9,21.3,5.6,32.2,8,4.9-3.9,20.4.4,17.3,8l.8,4c-9.4-6.8-19.2-10.1-31.6-10.7-4.4-.2-9.3-2.4-14.2-1-5.4,1.6-9.9-.1-14.5-.2-4.2-1.4-6-3.5-5.6-6.1-2.7-7.5.5-19.9,9.3-17.9h0Z"/>
  <path class="st72" d="M195.5,184.1c2.2,4.5-1,9.3-9.6,14.3-1.8,4.7-2,9.3-.6,13.7,2.2,1.6,4.5,3.5,5.6,6.1-7.3-.1-16.6-6.2-14.2-15.1,1.2-4.4,5.3-8.4,4.1-13.3l9.9-5.9c2.1-.8,3.7-.8,4.9.1"/>
  <path class="st199" d="M181.3,220.1c-1.8-.8-3.1-2.2-3.6-4.1,1.8.7,3,2.2,3.6,4.1"/>
  <path class="st59" d="M276,271.9h-2.6c-3.4,2.2-4.8-1.8-1.9-4-1.9-.1-1.9-.8-.2-1.9.9-1.9,4.5-3,6.3-1.7,1.1,3-1,5.4-1.6,7.6h0Z"/>
  <path class="st162" d="M285.7,254.4l-3.1-.4c.4-2,.1-4.3,1.6-5.9,2.4,1,3.2,3.3,2.7,4.1-.4.5-1.3,1.6-1.2,2.2"/>
  <path class="st264" d="M277.5,264.3l-6.3,1.7c-1.3-.7-1.3-1.4,0-2.1-1.6-5,3.3-6.3,6-2,0,.7,0,1.7.2,2.3h0Z"/>
  <path class="st277" d="M235.4,207.8c1.4,1.4,3.4,2.2,5.8,2.4-.4-3.6,4.6-2.7,6.5-.1-.1,1-.7,4.8.2,4.8h4.4c3.5,3,4.9,8.7,3,12.1l-4.8-.9c-4.7-6.1-13-3.7-17.3-8-3.9-.9-5.2-2.2-4-4-3.7-2.2-3.1-3.8-.1-6.3-.7-5.8,4-4.2,6.2.1h0Z"/>
  <path class="st51" d="M79.4,294.5c-5.2-1-5.6,4.9-7.9,7.4.9,9.8-1.1,15.2-6,16.4,0,1.5.7,2.7,1.2,3.6,1.2,2.1-1.9,3.1-3.3,2.1-.5-7.4,1.3-14.9,1.9-22,4-2.6,6.3-7.6,8.9-11.1,3.8,1,5,1.8,5.2,3.6h0Z"/>
  <path class="st282" d="M65.5,318.3c0-1.8,2.6-4.5,3.4-6.1-.6-4.3,0-7.3,2.6-10.3,4.5,6.5-1.5,14,1.2,22.6-4.9-1.5-5.5-4.6-7.2-6.2h0Z"/>
  <path class="st273" d="M85.4,343.9c.4,1-.4,2.9-.6,4.1,0,1.5-1.2,1.5-3.6,0-.4-.5-.9-1.7-1.6-1.9,0-1.3,1.3-3.6,2.6-3.9.9-.2,2.7,1.3,3.2,1.6"/>
  <path class="st20" d="M75.5,342.2c-2.1-.8-3.6-2.3-4-4.4,1.4.6,4.7-.7,5.7,1.3.6,1.1-1.3,2.4-1.7,3.1"/>
  <path class="st110" d="M155,349.9c2.9-1.3,5-1.2,6.3.1l6,4c1.1-1.5,1.8-1.3,2.2.6l-18,5.3-6.4.2c-1.1-1.2-1.6-1.1-2.9-.1-2.7-.1-4.7-2.8-3.7-4.5,5-.8,9.9-3.2,13.1-5.4h3.6c0,0,0,0,0,0Z"/>
  <path class="st184" d="M145,360h-2.9c.4-1.9,2.7-3.2,2.9,0"/>
  <path class="st236" d="M150.6,355h2.7s-1.3,0-1.3,0h-2.7s1.3,0,1.3,0Z"/>
  <path class="st265" d="M148.3,356l1,1-1,1.6-1-1.6,1-1Z"/>
  <path class="st16" d="M267.2,228c4.7-6.2,7.6-1.3,3.9,4l-1.8,1.9c1.9-2.6,3.2,1.4,3.9,12.1,4.8-3.5,5.4-2.2,2.1,4v2c-1.2,1.5-2.7,2.1-4.6,1.9-1.7-7.3-2.8-15.9-9.5-21.9.7-1.6.5-2.4.5-2.8v-3.6c3.5-3.8,5.3-3,5.5,2.4h0Z"/>
  <path class="st74" d="M237.2,196.2c-.3,4.3-5.6,5.3-7.9,1.8h-3.9c.3,4.4-5.4,4.3-6.1,0l-2-1.9c-2.2-3.1-2.1-4.5.2-4.2,9.6-3.3,20.9-1,19.8,4.4"/>
  <path class="st220" d="M245.3,195.6l2.1,2.3.2,1.8c1.8,1.3,3.9,2.8,6.5,4.4,3.9.6,3.5,3.9-.5,4.1l-4.3,1.6c-3.2-.6-5.2-1.8-6.1-3.8l-3.9-4v1.9c1.9-1.9,2.9-.7,2,2,.5,2.7-4.1,1.2-6-.1-6.3-.6-6.2-2.8,0-3.9l-.6-2.4c2.6-.7,4.1-2,4.7-3.8h5.9c0-.1,0-.2,0-.2Z"/>
  <path class="st319" d="M273,219.6c.4,5.8-1.5,8.6-5.8,8.4-1.6-.2-4-1.4-5.5-2.4,1.3-.9,2.5-1.4,3.9-3.4-4.7-.7-6.2-3.3-6-6,1.5-1.6,4.3-2.6,8.2-3.1h1.6c0,2.5,1.3,5.9,3.5,6.5"/>
  <path class="st14" d="M225.4,184.1c-1.1,2.9-4.7,2.1-6.9,2.8-1.6,4.4-4,6.1-7.3,5.1-2.8,2-5.9,1.8-6.1-1.9-1.9-6.8,14.9-8.9,20.3-5.9"/>
  <path class="st203" d="M267.8,213.2c0,1.3.5,2.5-.4,5.1-3.1-1.9-5.3-2.3-7.8-2.1-4.3-1-2.4-5.7,1.2-4.4,3.2.3,5.5.6,7,1.3h0Z"/>
  <path class="st269" d="M239.4,195.8c1.2,1,2.2,3.3.5,3.8-1.8.5-3.3,1.2-4.6,2.4-4,5.6-11.9.4-6-4,2.8.3,5.6-.4,7.9-1.8.5-.3,1.5-.4,2.1-.4h0Z"/>
  <path class="st270" d="M241.3,206c.6-1.7,1.2-1.7,2,0,2.6,0,5.1,1.4,6.1,3.8l-1.6.2c-1.8.2-4.7-.5-6.5.1-3.2.6-5.2-.2-5.8-2.4-1.6-.3-1.6-1-.1-1.9h6c0,.1,0,0,0,0Z"/>
  <path class="st205" d="M253.6,208.2l.5-4.1c-3.2-2.1-2.4-3.3,1.3-2.2,1.6.8,2.6,1.7,3.5,3.2,1.2,1.9.1,5.1-2,4.3l-3.4-1.2h0Z"/>
  <path class="st306" d="M255.5,202l-1.3,2.2c-2.1-2.2-6-.1-7.9-.6-2.4-.6-.4-4.6,1.4-3.8,2.8,0,5.4,1,7.8,2.2h0Z"/>
  <path class="st297" d="M218.5,186.9c-.2,1.6-.4,3.3-1.1,5l-.2,4.2c-2.5,2.1-4.5.7-6-4.1,1.8-2,4.4-4.2,7.3-5.1"/>
  <path class="st74" d="M247.4,197.9c-.9-.6-1.6-1.4-2.1-2.3,1.2,0,2,1.1,2.1,2.3"/>
  <path class="st285" d="M275.3,250c0-1.7-.6-3.1-2.1-4-2.5-7-2.2-11.7.8-14.1-3.4-2.9-3.7-7-1.1-12.3,9,2.5,4.3,13.3,10.5,20.4-4,3.2-5.5,6.8-8.1,9.9h0Z"/>
  <path class="st284" d="M275.1,255.9c-.1,2.3.7,4.4,2.3,6.1l-6,2c-2.4-3.1-2.7-5.6-.2-7.9.3-5.3,2.2-5.1,3.9-.2h0Z"/>
  <path class="st121" d="M275.3,252l-.2,3.9-3.9.2c.2-.7-.2-1.7-.4-2.1.4-1.9,0-4.2,1.6-6,1.2,2.4,1.9,3.4,3,4.1"/>
  <path class="st148" d="M251.5,244.2c1.6,8-7.8,24.4-16.1,19.9-2.3.2-3.2,0-2.1-2-1.3-1.5-4.7-1.5-10,0-20.8.3-22.9,26.7-19.8,41-3.2.5-5.2,4.7-5.6,7.4-3.8,1.8-8,5.7-10.4,9.1-4.8,6.5-10.1-.3-13.6-.1-13.1,3.3-29,3.5-42.8,0l-9.4,4.5-24-17.8c-3.1-1.1,3.1-13.9,3.7-14.5,1.6-1.5,8.6,2.2,10.4,4.3l2.7-1.8c.3-3.9,1.8-3.9,2.8-.1.8-2.9,2.4-2.1,3.9.1.6-1.5,1.3-1.4,2,0,1.7,0,3.6,0,5.5.2.6-1.1,1.4-1.1,2.3-.3l2.1,2.1c3.4-3.6,4-2.7,4,2h1.7c1.4.1,1.4,1.5,0,3.9-.6,10.7.5,14.6,10.5,11.9,1.3-4.1,2.6-2,3.5,1.8,3.1-.2,6.4-.8,9.8-2,.4-3.6,1.3-6.7,2.6-9.5-2.7-5-2.3-7,1.2-6.2-1.1-1.2-.9-1.9.7-2.3.5-6.4,3-7.9,6.1-2,3.5-3.3,6.4-2.1,10.2.3,1.1-1.4,2.8-2,5.1-1.9-.7-4.9.5-6.4,3.6-4.5,1.9-11.6-.1-19.3-6.3-22.8l-2.9-9.4c-1.7-.2-1.6-.7.2-1.4l1.9-6.4c-2.7-2.8-1.3-4,2.2-2.3,2.8-1.4,5.2-.4,7.1,3,0,0,3.6-3.5,10.8-10.5l1.8-1.8,12.7,3.5c4.3.2,4.8,2.2,1.2,4.6l-2.4,4.5c-4.1,1.1-8.6,3.4-13.5,7.1l-4.4,3.7c3.9.7,3.6,2.2-.6,2.3l-.4,2.2c-1.9,6.3-1.1,5.7,2.5-1.7,4.5-1.9,7.7-4.1,9.4-6.7-2.4-10.5,6.1-6.4,11.6-3.5l8-.5c-4.2-3.9-.7-6.8,4-3.8l2.1-6.1c-3.1-1.7-7-2.7-11.9-3,1-4.1.3-8-1.9-11.7,1.7-6.5,7.2-5.1,16.4,4.1l12.4,4.7c.8,3.3.5,5.9-.8,8h0Z"/>
  <path class="st84" d="M223.2,262c4.7-1.4,8-1.4,10,0,.9,0,1.9,1.1,2.1,2l-.7,3.2c-6.7.7-13.4,1.2-20.2,1.5.9-2.9.2-1.9-1.2,1.2,1.7.6,1.7,1.3,0,2,3.9-.2,3.8,1.4-.1,2.4-5,1.9-7.7,11-3.6,16.5-3.4.5-4.4,1.2-5.6,2.4-1.4,1.3-.2,4.5,2.4,2.6,1.7-1.2,3.2-.8,3.9-.1.6.6.9,3.5,0,3.2s-4.3-2-5.4,0c.9,5.2,8.5,6.1,14.6,4.9-1.9,3.9-5.9,2.2-8.4,2.3l-3.8.2c-2-1.6-4-1.5-6,0-.3,2.2-1.7,3.2-3.6,4.1-.4-.1-1.4,0-2.5-1.5,3.9-2.3,6.6-9.9,1.9-13.8-1.8-1.5-6.4,1.4-8.9,2.8.8-3.6,5-4.9,8.8-6,5-1.6-1.5-14,8.3-24.9,4.6-5.1,11.5-5,18-5h0Z"/>
  <path class="st7" d="M192.2,288c-1.9,1.1-3.1,2.5-3.6,4.5-.5.6-.4,1.8-1.5,2.5-1.6,1-2.5-.2-3.7-.6,3.2-3.4,0-5.9-.4-7-3.6.7-4.5-4.7-2-6.7l1.9-12.8c.6-4.4-1.5-8.5.1-12.2l10.2,12.5c3.8,4.6,2.2,15.6-1.1,19.8h0Z"/>
  <path class="st8" d="M149.5,314c-.3,2.6-1.9,4-3.5,4.3-2.2.4-6.6.5-8.3-1.5-3.5-4.1-1.9-11.2,1.3-14.6,2.2,1.1,4.2.3,6-2.5,9.2-3.6,7.7,9,4.5,14.4"/>
  <path class="st251" d="M165.4,304.4c1,2.5,2.8,7.7,1,11-2.6,4.7-10.8,4.2-13.4.5-2.5-4.5-4.6-17.4,2.7-14,1.7,1.3,3.5.6,5.5-2.2,3.4-3,3.9,1.1,4.2,4.8h0Z"/>
  <path class="st155" d="M179.1,311.5l2.7-1.4c-.8-4.9,0-9.2,2.1-12.9l2.2,7.4c.9-2.5,1.9-4.8,5.1-5.4,2.3,10.1-2.4,16-10.9,20.8-2.4-2-1.3-5-1.1-8.6"/>
  <path class="st138" d="M171.7,297.9c4.4,5.8,6.7,11.7,3.8,15.4-1.3,1.6-2.8,2.5-5.6,2.4-.5-6.5-1.7-12,1.8-17.8h0Z"/>
  <path class="st244" d="M122.2,319.7c-7.5-4.4-5.6-14.7-1.6-22.2,3.9,6.8,3.4,13.4,1.6,22.2"/>
  <path class="st114" d="M131.6,300.2c2.5,5,1.9,11.5-1.2,16-7-4.4-4.2-11.3-1.4-16.1.5-1.4,1.8-1,2.6.1h0Z"/>
  <path class="st173" d="M179.1,311.5c.2-5.6-1.5-11.5,4.8-14.3l.7,12.3c.2,1.2-1,3.9-2.2,4.4-.9.3-2.4-1.1-3.3-2.4h0Z"/>
  <path class="st75" d="M114,311.9c-1.1-3.6-1.5-7.1,0-12.2,1.6,2.8,2.5,6.3,0,12.2"/>
  <path class="st54" d="M194.1,308.1c-1.2-3-1.2-6.2-.8-9.1.6-.5,1.1-1.1,1.2-1.1,1.5,3.4,1.6,8.4-.3,10.2h0Z"/>
  <path class="st120" d="M121.2,292c1.7.6,1.7,1.4,0,2.1h-3.9c-.2-1.8.5-3.4,2-4.1,2.5-1.6,3.4-.6,2,2h0Z"/>
  <path class="st37" d="M124.9,291.5c-.2,1.1-.9,2.1-1.7,2.7h-2s0-2.2,0-2.2c-.4-5.3,1.4-5.3,3.7-.5h0ZM139,302.1c-.3-1.2-.1-2.8,0-4,.6,0,1.8-.4,2.4-.2,3.3,2.7,1.7,6.3-2.3,4.2"/>
  <path class="st76" d="M133.2,296.2l-2.1-2.1c1.6-.9,2.8.7,2.1,2.1"/>
  <path class="st37" d="M131.6,300.2h-2.6c-.3-2.7,2.9-2.5,2.6,0"/>
  <path class="st18" d="M233.3,262h-10c9.9-1.8,14.8-8.3,21.6-16.8.6,8.9-6.6,12.4-11.6,16.8h0Z"/>
  <path class="st126" d="M205.3,238.2c4,3.9-4.8,7-11.2,18.2l-6.7-10.7c3.8-5.9,10.9-9.2,17.9-7.5h0Z"/>
  <path class="st159" d="M223.5,227.4c1.5,1.1,3.5,1.8,4.6,3,1.5,1.6.8,4.4-.5,6.9,3.9.3,7.2.2,10.3,2,1.9,1.1,2.1,3.4,1.2,5.4-.7,1.6-2.4,2.1-3.9,3.5-5.8.5-10.6-.2-14.2-2.3-1.7,0-1.6-.5,0-1.3-.1-1.6-.6-3.1-1.2-4.6-.2-.4,0-1.3,0-1.8-1.4-.9-.7-1.5,2.2-1.7-2.4-.8-2-1.7,1.3-2.5-1.6-1.4-3.4-2.1-5.4-1.9l-1.2-2.4,6.7-2.2Z"/>
  <path class="st7" d="M183.3,254.3c-.4-2.4,0-4.8,1.9-6.4.4,2.4,0,4.9-1.9,6.4"/>
  <path class="st145" d="M209.3,236c-.7-.4-1.5-1.2-2-1.9.9.2,1.7,1.1,2,1.9"/>
  <path class="st0" d="M221,245.9l1.8,2.1c4.7-1.4,7.5,0,8.5,3.9-5.9,5.6-17.7-3.1-19.6,4,.6,2.9-9.2,7.5-10.9,3.9,0-4.9,5.9-7.6,10.6-8.6-2.8-2.6-5.4-1.6-8.5-1.9,5.7-3.7,12-3.4,18.1-4.8,0,.4,0,.9,0,1.3h0Z"/>
  <path class="st209" d="M211.7,256c1.9.4,3.9-.2,5.9,1.6-8.4,3.2-14.4,6.6-19.7,12.8-1-3.2.9-4.7,1.9-6l.4-2.2c.5-.7.6-1.5.6-2.3l10.9-3.9Z"/>
  <path class="st0" d="M199.8,264.3c-1.6-.6-1.2-2.2.4-2.2l-.4,2.2Z"/>
  <path class="st169" d="M235.2,248.1l-4,3.8c-8-1.1-14.3-.9-11.5-3.9.5-.5.9-1.3,1.2-2.2l14.3-4.4c-.7,3.1-1.4,5.3,0,6.7h0Z"/>
  <path class="st293" d="M23.5,159.9c.7,3.2,1.3,3.8,1.8,2.1h2c0,1.6,1.4,2.9,1.7,4.1,1.4,4.5,2.1,9.6-4.7,12.4.6-6.3-4.4-9.8-8.8-12l-.6-3,2-3.7c.4-3.3.6-6.5.5-9.5-2.1-4.1-.4-5.3,3.7-6-1.9-.4-2.5-1.1-1.9-2.2-1-.6-1-1.3,0-2-1.3-3.1-.8-4.6,2.5-3.2-.8-3.8.7-4,2.2-.3l-.5,23.4h0Z"/>
  <path class="st249" d="M27.2,117.9c2.4.4,3.4,1.3,3,2.6-1.6,1.8-4.7,5.2-4.6,7.6-1.7,4.4-3.8,5.7-6.2,3.8,0,3.9-1.5,3.9-2.7,0-.6-6.8,4-10.9,8.3-14.7,1.2-1.2,1.9-1.1,2.4.6h0Z"/>
  <path class="st56" d="M35.3,110.1c-.2,3.1-1.1,6-3.2,8.4-1.3,1.1-3,1-4.9-.5l-2.4-.6c2.7-2.5,4-6.1,8.2-7.6l2.2.3Z"/>
  <path class="st160" d="M24,136.5l-2.2.3c-2.7,2.4-4.2-2.4-2.4-4.8,1.7-1.6,3.6-2.9,6.2-3.8,0,2.7-1.5,6.1-1.5,8.3h0Z"/>
  <path class="st70" d="M25.2,161.9c.4,1.5.5,3.2-1.4,4.3-1-3.1-.4-4.6-.3-6.3l1.8,2.1h0Z"/>
  <path class="st97" d="M39.2,107.7c3.2-.3,3.4,1.2,0,2.3-.6,1.8-1.2,1.7-2,0h-2c0,0-2.2-.2-2.2-.2,1.6-.6,4.3-2,6.2-2.1h0Z"/>
  <path class="st158" d="M32.1,118.4l-1.9,2.1-3-2.6,4.9.5Z"/>
  <path class="st13" d="M39.3,112c-.3,1-1.1,1.7-2.2,2.1.4-1.1.2-3,.2-4.1h2c1.8.6,1.7,1.2,0,2"/>
  <path class="st217" d="M99.7,89.9l2.5,3.8c-3.4,2.2-6.5,5.1-9.3,8.5-4,6.3-6.7,13.4-8.2,21.4l-4.6.4c-2.3,1.4-3.1,3.7-3.7,5.9-11.7-3.6-1.2-11.6-8.7-22.1-.5-2.2,4.1-5.8,5.5-6.7-1.9-1.6-3.4-1.1-4.3-1.2,1.6-6.7,8.3-10,12.2-15.3,6.1-6.8,26.3-5.9,18.5,5.4h0Z"/>
  <path class="st33" d="M57.5,117.9c.4-4.9,2.7-11.5,8-13.8-2,4.9-3.8,10.7-8,13.8"/>
  <path class="st255" d="M43.1,107.7c.5.4,2.5,2.7,2,3.6-.7,1.3-4.8,1.2-5.8.8v-4.3c1,0,2.3-1.8,3.8,0h0Z"/>
  <path class="st61" d="M86.1,231.5c6.3-1.3,12.6,0,5.2,4.5h-8c-1.5-.8-2.6-.9-4,0-.5.3-1.6.4-2.2.4l-7.8-6.1c-.9-2.3-.6-3.4.9-3.5,4.9-4.5,12.4,1.1,15.9,4.8"/>
  <path class="st25" d="M71.2,212v4c1.4,4.9,1,8.5-1,10.7l-.9,3.5-2.1-4.1-1.9-6.1v-2s2-2,2-2c.1-.6,0-1.4,0-2-.2-2.2.3-4.4,2-6-.2,1.6.5,3.3,1.9,4"/>
  <path class="st207" d="M67.1,226.1c-1.1-2-1.9-3.7-1.9-6.1,2.2,1.1,2.5,3.8,1.9,6.1M65.3,218c0-.9,1.1-1.8,1.9-2-.2,1-1,1.8-1.9,2"/>
  <path class="st115" d="M81.4,246.1l-2.4-2.1,2.4,2.1Z"/>
  <path class="st303" d="M189.4,72.2c7.8,5,7.9,11.7,23.4,17.7,2.4,5.4,2,16-5.6,14.1-3,9.1-14.9-9.8-16.2-16.2-5,4.3-9.7-5.6-10.4-10.5-3.8-.5-5.9-2.4-6.2-5.6-.4-1.6-1.4-2.7-2.6-3.5v-2.5c0,0,17.7,6.5,17.7,6.5h0Z"/>
  <path class="st221" d="M223.2,106l1.9,1.9c4.1,6.8-6.1,14.4-11.5,9.6h-2.7c-1.3-4.2-2.5-8.7-3.8-13.5.9-.7,3.8-2,3.2-2.9l-2.8-4.4c3-1.8,5.9-3.8,5.2-6.9,4.1,1.6,4.3,5.3,3.6,10.1l1.7,3.1c.3.5-2.1,1.8-2.4,2,2,3,5.4,2.5,7.5.9h0Z"/>
  <path class="st119" d="M232.6,129.8l.5-3.5c-4.1.2-6.7,3.4-7.8,9.7h-2.5c-4.3-1.2-8.7-1.6-13.1-1.1-4.2,1-4.3-1.9-.1-8.8-3.9-3.9-1.6-9,3.9-8.6l8.4-4.9c1.3-.7,2.7-1.1,3.2-1.9.4-.7.2-2.1-.1-2.8,3.6,3.7,2.4,9.9,2,17,3.1-.8,3.4-5,4.4-6.7,3.9-.8,4.5,2.4,4.3,4.9s.7,6.3-3.1,6.7h0Z"/>
  <path class="st250" d="M187.2,348c1.8.3,1.8.9,0,1.8-.9.7-.9,1.4,0,2.2,1.5-1.9,5.2-.5,4,2.1l-21.8.5-2.2-.6c-3.5-1-5.4-1.8-2-4.3,6.9-3.5,14.6-1.6,21.9-1.6h0Z"/>
  <path class="st164" d="M165.3,349.7l2,4.3-8.1-.3,2.2-3.7c1.2,0,3,.2,4-.3h0Z"/>
  <path class="st141" d="M175.2,351.2c-2.1,1.1-4.4,1.6-8.1,0,1.3-1,3.6-2.6,8.1,0"/>
  <path class="st47" d="M178.6,351h2.7s-1.3,0-1.3,0h-2.7s1.3,0,1.3,0Z"/>
  <path class="st191" d="M187.3,349.8v2.2s-2.9,0-2.9,0c-.9,0-1.7-1.4-.1-2,.8-.3,2.2-.1,3.1-.2h0Z"/>
  <path class="st102" d="M199.1,24.1v1.9c-2.4,2.3-7.4,1.9-9.7-.4-.9-1.4-2.5-3.6-4.5-2.7l-6.3,3c-2.7-.7-2.2-3.9.7-4l13.9-5.6c.6-2.6,2.1-2.6,2.9.2,3.8,1.7,4.4,4,3,7.7h0Z"/>
  <path class="st198" d="M223,25.9c-2,.5-2.7,3-3.9,4.1h-7.9c0,0,0-2,0-2-2.2-1.3,1.9-3.1,4-4,.9-1.6,1.6-1.5,2,.4,2.7-2.2,7-2.7,5.7,1.5"/>
  <path class="st12" d="M215.3,24l-4,4c-5.6-.2-12.6,1.6-17.9.1-1.6.8-3.1,1.5-4.1-.1l.2-2.5c2.8.9,6.7.3,9.6.4.7-.8,1.4-.8,2.2,0,.1-4.2,1.6-5.5,2.8-1.5l5.2,1.4c-1.2-3.8,1.3-4.9,4-1.9.5-1.9,1.2-1.9,2,0"/>
  <path class="st91" d="M179.4,21.8l-.7,4c-.3.1-1,.2-1.4.2-.5,1.8-1.2,1.7-2,0v-4c.6-1.7,1.2-1.7,2,0,.6,0,1.6,0,2.1-.2"/>
  <path class="st124" d="M177.3,26c.5.6.2,3.8-.9,4-.9.2-2.7-1.9-3.3-2,.3-1,1.2-2,2.2-2h2Z"/>
  <path class="st6" d="M193.4,28.1c-.6.6-1.9,2.1-3,1.9-.9-.1-1.1-1.2-1.1-2h4.1Z"/>
  <path class="st89" d="M227.1,28l-4.1-2.1c-1.9-1-3.6-1.8-5.7-1.5-2.6-.8-2.6-1.5,0-2.4,2.6-2.4,5.3-4.4,8.1-6,5.1.2,9.1,6,7.3,11.4-1.1.9-4.5.8-5.5.7"/>
  <path class="st303" d="M143.3,55.5c5.5,5.6,11.7,8.5,18.7,8.4,2.2,1.9,4.6,3.4,7.2,4.6.1,3.4-6.5,5.5-9.9,6.1-6.8,1.2-21.1.9-25.4-4.4-8.7,1.1-12.1-5.2-2.7-8.4l-.6-2c3.3.4,3.5-.2.8-1.8v-2l12-.6Z"/>
  <path class="st81" d="M161,55.1c.6.7,4,3.1,3.7,3.6l-2.2,3.7c2.5,4.3,6.9,2.4,9.3,3.3,2.4,1,2.4,1.7,0,2.5-.4,1.7-1.3,1.7-2.5.3l-16.5-1.4c-7.6-5-12.6-7.5-9.5-11.7l17.7-.3h0Z"/>
  <path class="st317" d="M131.1,61.8c-1.1.6-2,3.8-1.6,6.2,4.6-3,10.6-4.4,13.2-.7-5.9-1.5-6.2,3.8-1.9,3.5,3.2-4.6,6.3-.9,2.5,2.6,8.9.9,17.3-2.6,25.9-4.8.8-.2,1.6-.4,2.5-.3,3.4-.7,5.8,1,2.6,3.5,1,7.3-8.9,8.4-14.4,6.1-.6.6-1.3,1.1-1.9,1.1-15.9-.2-18.7,0-34,6.2-1.3.5-2.4-1-2.9-2.8-.9,1.6-1.7,1.4-2.2-.4-.7-1.5.2-3.8,2.9-6.8l-2.6-4.8c-.3,1.8-.9,1.7-1.8,0l-12.2.3c7.8-4.8,16.8-6.7,25.7-8.8h0Z"/>
  <path class="st81" d="M140.3,62l1,1-1,1.3-1-1.3,1-1Z"/>
  <path class="st15" d="M225.6,176.4l1.5,3.2c-.5,0-1.5,0-2.1.6-8.6-.5-17.3-1.7-26.1-3.6l-3.5-4.2c-3.5-2-1.5-3.2,2.1-3.9l2.1-.3c9,.4,18.1,3.7,26,8.2h0Z"/>
  <path class="st88" d="M233.2,126.3c-6.8,3-5.1,12.2-9.9,17.7-1.8-.4-.9-2.4,0-4-5.4-.2-5.3-2-.4-4,2.8-1.4,2.7-5.4,2.4-9,2-.1,3.3-.1,4-.6,1-.8,1.7-2.2,2.3-4.6,2.3,1.3,1.8,3,1.5,4.6h0Z"/>
  <path class="st119" d="M223.3,144v4.1c0,0-2.1-.2-2.1-.2-7-.5-4.9-10.9,2-7.9v4Z"/>
  <path class="st73" d="M195.4,172.4c10.5.2,20.3,3.6,29.6,7.8l.3,1.8c-3.3,1.2-10.3,1.8-13.8.3l-10.1,1.7c-2.9,3.3-4.9,3.3-5.9,0-1.4.4-3.4,0-4.9-.1,2.8-1.7,5.2-2.2,8.4-2.3-4.3-7.4-9.4-8.7-16.3-7.4-3.4-5.8,5.8-9,7.7-3.5,2.9-1.1,4.6-.5,4.9,1.7h0Z"/>
  <path class="st54" d="M225.3,182v2.1c-7.3-1.7-15,0-20.1,5.9.2,4.4-1.7,5.2-5.9,2.4-10-5.3,5.1-10.5,12.3-10.1l13.8-.3h0Z"/>
  <path class="st296" d="M257.1,39.8c.8-1.7,1.5-1.6,2.1.2.8-1.7,3-1.4,4.1,0,3.3,1.3,1.9,3.3-.1,5.6-2.5,2.8-3.3,1.5.7-.9.8-4.3,2.2-6.1,4.3-5.5l11.4,16.8c3.9,0,3.8,1.6-.2,2.5,2.2,1.7,2.9,3.8,0,4.3.8,5,.9,10,.2,15l-2.3.3c-1.2-.7-1.5,2.7-1,10.1-1.1.6-2,1.3-2.1,2.1-4.2,17.7-16,38.9-25.9,11.6-1-.8-.8-1.3.4-1.6,3.5-3.9,7.2-7.9,11.4-12.1,7.7-17.3,2.6-35.7-14.8-44.5-1.4-4.5,2.4-4.8,4.1-.7,0-.1-.8-1.2-3.3-2,3.1,3.3,4.2.4,2.5-1.3l1.8,2.4.3-1.4c-7.8.9-17.5-3.8-9.5-10.4,9.8-4.8,15.2-1.9,16,9.7h0Z"/>
  <path class="st168" d="M248.6,100.3c-2.1.2-4.1-.6-5.2-2.5,7.5,1.1,9.4-6,16.6-9.6-2,4.6-5.9,9.5-11.4,12.1"/>
  <path class="st168" d="M277.2,78.1l1.9,6.1-1.7,4.2v1.2s-2.6,4.4-2.6,4.4l.6,3.6-2.2,2.7.2,1.5-1.7,2.7-2.1,5.6-2.2,2.3v1.3c-1.4,3.6-4.8,6.4-8.1,8.2h-2.3c-4.2-5.6-8.5-13.1-8.7-20,2.1,2.2,4.2,8.4,7.7,9.2,7,1.6,20.6-14.1,15.7-24.3,1.7.2,2.8.5,3.5,0,1-.7,0-4.4-.5-3.8s-4,.3-3.7-1.1c.8-2.2,4.5-3.5,3.8-8.7,3.8,1.2,2.8,3.4,2.6,4.8h0Z"/>
  <path class="st55" d="M259.3,107.2c-2.5,2-4.1.6-5.2-1.2-4.9-8.1,8.7-12.6,11.1-20.3.5-1.5.5-2.2,1.4-2.9.9-.7,2.6-.2,2.4.4l-1.3,3.8c1.2,7.4-.9,15.9-7.1,18.7-.4.4-.9,1.2-1.4,1.6h0Z"/>
  <path class="st271" d="M265.4,33.9c4.1-2.2,5.5-.4,6,3.9,3.2-.8,4.5,3.3,3.6,6,1.6.8,1.6,1.6,0,2.4,4.6-.8,6,1.1,4.2,5.8,3.6,2.8,3.7,4.1.3,3.9-5.3-3.5-9-8.4-11.5-14.6-2.4,4.6-4.6,7.5-9.4,6.2,3.5-2.1,4.9-4.1,4.7-7.5-1.6-1.2-2.6-1.5-4.1,0l-2.1-.2c-1.1-2.9-1.7-6.1-1.8-9.6,2.4-4.9,5.8-3.7,10.1,3.7"/>
  <path class="st302" d="M247.3,24.2l3.8-2.1c.6,2.2,2,3.8,4.1,4.8,2.8.8,4.1,2.8.2,3.3,3.2,2.5,3.8,6.2,1.8,9.6-4.2-.5-2.8-6.7-3.6-9.5-4.5,1.4-10,4.2-12.4-.2l.2-4.1c-1.1-5.4,3.3-5.5,6-1.8h0ZM263.3,40h-4.1c-.3-1,.3-1.8,1.1-2.1,2-.6,2.9.5,3,2h0Z"/>
  <path class="st302" d="M247.3,35l1-1,1,1-1,1-1-1Z"/>
  <path class="st212" d="M241.3,26c5.3.9,5,2.8-.2,4.1-1.3,3.1-3,6.2-5.1,9.3-14.8,4.6-30.2,6.1-46.5,4.3-.5.3-1.7.2-2.2.3l-8.4-1.6c-1,.2-2.6,0-3.6-.2l-2.5-2.1h-1.3c-10.4-8.8-5.8-12.1,6-7.3,5.4-.2,10.6.2,15.8,1.2,0-4,3.4-3.9,4,0l2.2-1.9c0-2.6,2.9-2.7,3.9-.2l15.9-1.8,2.2-1.8c2.9,2.4,5.6,4.5,8.2,6.4.1-1.7.7-1.8,1.8-.4l1.8-2.2c-3.6-.6-3-2.7,1.9-6.1.7-1.7,1.4-1.6,2.2.1.3-3,3.2-3,4,0h0Z"/>
  <path class="st254" d="M172.9,29.8c4.3-.9,9-1.5,14.2-1.9,2.1,2.6,4.1,3.6,6.2,2.9v3.2c-8.4,0-16.7,1.1-25.7-2.4-.9,5.4,2.5,6.3,3.8,8.6-2.9-.9-4.9-3.2-6.2-5.8l-2.2-2.2v-1.7c-1.3-2.9-1.3-6.1-.2-9l.2-1.5,2.6.6c4.2,2.3,6.6,5.4,7.3,9.4h0ZM187.3,44c-2.9.3-6,.2-8.4-1.6,2.8-.7,6.7-1.1,8.4,1.6M175.3,42.2c-1-.3-2-1.2-2.5-2.1,1.1,0,2,1.1,2.5,2.1"/>
  <path class="st246" d="M201.3,36c2.4-1.9,5.5-.8,4.1,2.3-10.3,2.6-22.4,3.6-32.4-1.5l28.4-.8Z"/>
  <path class="st280" d="M227.1,28c5.4.6,5.7,2.5,2.5,6.6-1.8,1.8-2.7,3.9-6.6,5.1,0-4.1,1.4-5.8.6-6.9-1.1-1.5-2.9-2.9-4.4-2.8-3.9-3.6-.8-5,3.9-4.1,2.9-4.9,5.2-3.3,4.1,2.1h0Z"/>
  <path class="st254" d="M211.2,30c1.9-3.3,7.1-4.6,7.9,0-3.8,3.9-10.9,1.5-15.9,1.8,1.7-2.5,5.1-1.9,7.9-1.9M209.4,36c1.1.6,1.1,1.3,0,2-1.3-.2-2.9,0-4.1.3-.7-2-2.3-2.4-4.1-2.3.4-2.1,2.8-2.4,4.5-1.6l3.6,1.6ZM197.3,34c.3-.9,1.2-1.8,2.2-1.9-.3.8-1.3,1.9-2.2,1.9"/>
  <path class="st280" d="M231.4,34.2c.5-.8,1.1-1.6,1.8-2.2-.2.7-1.2,1.8-1.8,2.2"/>
  <path class="st246" d="M209.4,38v-2c2-.5,2.3,2.2,0,2"/>
  <path class="st289" d="M241.3,26h-4c-.4-1.4-.4-3,1-4,1-.8,2.3-.2,2.5,1.2l.5,2.8Z"/>
  <path class="st193" d="M19.3,140v2c-2,.4-1.4,1.1,1.9,2.2.3,2.8-1.1,5-3.7,6-2.6,2.2-3.2,1-2.6-2.3-.8-2-1.8-4.3-1.7-6.8.1-2.1,1.4-4.3,3.7-5.1,2.6-.9,3.5,1.6,2.4,4h0Z"/>
  <path class="st313" d="M17,159.7c-.8-1.6-1.2-3.3-1.6-5.1-2-2.5-1-5.3,2.1-4.4l4.5,8c-1.9,1.6-3.5,1.6-5,1.6"/>
  <path class="st295" d="M21.8,136.8c-.5,1.3-1.4,2.3-2.5,3.2-1.5-.7-2.2-2.3-2.4-4l-.4-3.9h2.7c0,0,2.4,4.7,2.4,4.7h0Z"/>
  <path class="st292" d="M17.5,150.2c-1.9.7-2.5,2.6-2.1,4.4-1.9.1-2.3-1.9-2-3.4.2-1,1-2.4,1.5-3.4.9.6,2,1.5,2.6,2.3h0Z"/>
  <path class="st52" d="M101.4,360.6c-.7.1-1.6.2-2.3,0l-3.2-3.6c-.7-.8,2.4-2.8,3-2.8.9.3,2.8.6,3.5,1.7.8,1.3.2,3.5-.9,4.7h0Z"/>
  <path class="st131" d="M84.8,348.1c3.7,1.1,9.1,2.1,8.4,8.7-5-2.8-8.9-5.3-12-8.7,1.2-.2,2.5-.3,3.6,0h0Z"/>
  <path class="st122" d="M213.3,8.1c4.6.6,5.9,2,3.9,3.9-.5,1.6-2.9,1.4-4,0,.6,4.4-2,4.4-8,0-.4,2.5-2.1,2.4-5.3-.5,3.4-4.1,8.6-3.7,13.4-3.4"/>
  <path class="st300" d="M221.2,12.1h-2c0,0-2,0-2,0l-3.9-3.9c5.1.3,11-2.2,16.5,2.9-2.7,1.8-5.9,1.2-8.6,1.1"/>
  <path class="st215" d="M199.3,14.1c2.6,4.6,1.1,5.5-3.2,2.3-.6-.5-2.2-.5-2.9-.2-2.2.3-2.4-2.5-.2-2.1,2.4-2.4,5.1-2,6.2,0h0Z"/>
  <path class="st257" d="M177.3,22h-2l-4.3-.2c.7-1.2,2.2-3.4,3.5-3.8,2.2-.6,3.9,2.1,2.8,4h0Z"/>
  <path class="st1" d="M234.2,9.9c3.4-.2,6,3.3,8.4,5,7.6-1.9,16.2,1.5,21.3,6.4,3.4,3.9-1.4,4-4.6,2.7-5.2-1.2-6.6-1.1-4.2,0,.6,1,1,1.8,0,2.8-2.9.1-5.8-.6-7.9-2.7-3.8,0-6.6-3-7.8-6.3-1.8-.8-3.8-3.9-6.3-3.8-.2-.5-1.1-2-1.1-3,0-.7,1.1-1.3,2-1.2"/>
  <path class="st216" d="M239.5,17.9c3.3,1.5,8,1.7,7.8,6.3-2.1.3-4.2.8-6,1.8-1.5-.7-2.8-1.1-4,0h-2.2c.6-1.9-.6-4.4.4-6.7.6-1.3,2.1-2,4-1.4h0Z"/>
  <path class="st275" d="M259.3,24v3c0,2.7-1.2.5-4.2-2.9-4.6,1.8-4.2-3.5-.3-2.1,2.6-.7,4.3.5,4.5,2.1"/>
  <path class="st176" d="M246.1,16.6c0-.7,2.8-1.1,4-.7.6.2,1.4,1.1.4,2-.5.4-1.4,1.8-2.1,1.9s-2.3-1.3-2.2-3.2h0Z"/>
  <path class="st2" d="M267.3,28v2s-4,0-4,0c-.4-.7-2-2.3-1.7-3.3.2-.9,3.4-.9,3.7,0,.2.5,1.2,1,2,1.2h0Z"/>
  <path class="st146" d="M269.1,30l2.5.3c-.2,2.3-2.8,1.9-2.5-.3"/>
  <path class="st278" d="M93.1,104.3c2.1,2.8,3.2,6.6,3.3,11.6,4.8,6.4,6.5,11.9,5.1,16.5,3.3,7.5-13.2,7.2-5.7,16.5.8,10.4-14.8,13.7-15.5,13.5-1.3-.4-1.3-3.4-1.5-4.5l.3-2.6c5.9-2.8,7.5-12.2,3.2-15.6-1.6-1.3-1.8-3.1-1-5.1-1.3-2.9-2.6-7.4-1.2-10.4,4.8-10.2,2.7-18.8,12.8-21.8,1.4.5,1.5,1.2.2,2.1"/>
  <path class="st217" d="M81.3,134.4c1.9,2.3,4.9,1.8,7.3,0,.7,0,3.2,2.4,2.6,2.6-6,2-1.3,8.4-2.9,13.5-1.4,4.5-5.1,7.4-9.4,7.3l-1.6-9.8c-.6-3.6-2-7.8-.3-12.4.7-.9,3.4-1.2,4.4-1.1h0Z"/>
  <path class="st232" d="M125.2,162.2c5.2,2.3,10.2,5,15,8,5-3.4,9.4-5,13.1-4.7,9,6.2,10.3,10.4,4,12.6-1.8-1.7-4.6-3.8-6.7-3.3-7.9,1.5-9.9,11.2-16.9,9.4l-2.5-.6c-3.7.7-7.5-1.2-11.4-5.8l-10.5-4.5c-4.4,3.1-13.2,4.1-16.2,1.1,2.4-1.6,5.4-3,6.5-6.2.6-.9,2.7-1.9,3.8-1.9,1,0,3.1-.5,3.5-1.5.4-.9-.3-3.1-.6-4.4,6-3.5,12.8.9,18.9,1.8h0Z"/>
  <path class="st165" d="M102.3,98.5c14.5,8.9,16.1,15.3,4.9,19.2,1.6,3.6,3.6,6.8,6.1,9.7l.2,2.4c-3.8,1.6-7.9,2.4-12,2.5l-7.2-11.7c-3.3-5.5-3.7-10.9-1.2-16.3,2.4-6.9,11.5-18.3,9.2-5.8h0Z"/>
  <path class="st128" d="M131.4,150.3c3.1,1.6,3.9,3.1.1,3.7,0,3.1-1.3,2.4-4.2-2-2.1,2.7-8.2,1.4-9.5-1.9l-4-.6c-1.8,4-4,6.3-6.7,6.9-4.4,0-6.9-3.5-6.6-7.5.4-5,5.1-4.2,8.3-5.3,10.2-3.4,17.5-2.1,22.6,6.6h0Z"/>
  <path class="st174" d="M117.8,150.1l-.6,3.9c3.8,2,1.7,3.9-2.3,2-2.3,0-5.2,2.1-7.8.5,2.3-2.3,2.3-4.9-2-2.6-1.2-5.1,2.8-4.7,5.5-5.6,3.5-1.1,4.5.7,7.2,1.8"/>
  <path class="st93" d="M131.1,183.5c0,4.9.9,9.6-1.1,15-5.6-19.1-20.6-12.3-29.1-20.3-.9-.9-5.1-.3-5.3.8s.5,2.9,1.4,5.8c-8.9.1-16.1,2.8-23.5,6.5-1.1-.5-1.2-1.6-.2-3.2l1.9-2.6c4.4-5.9,10.6-10.1,17.9-11.1,18.8-2.6,16.2-9.3,19.5-10.2,1.8-.5,4.5-.8,5.6,2.1-4.3.5-6,1-7.5,3.9,9.9,1.9,15.8,6.9,20.4,13.4h0Z"/>
  <path class="st99" d="M89.4,170.1c-.9,1.4-2.5,1.8-4.1,1.9.7-1.8,2.4-1.9,4.1-1.9"/>
  <path class="st71" d="M73.3,188c.4-1,1-1.9,1.9-2.6l-1.9,2.6Z"/>
  <path class="st201" d="M73.5,191.3c-.6-.8-1.6-.7-2.1-.5l1.9-2.7.2,3.2h0Z"/>
  <path class="st163" d="M117.1,221.9c1.2-.9,3.8-1,4.2.9.3,1.4-.6,3.6-1.5,5-2.4,1.6-4.4,1.7-9.4,2.8,2.2,1.3,4.3,1.9,4.2,5.6-3.7-1.6-7.4-2.8-11-2.2-7.4-4.3,7-7.8,6.4-7.4-1.4.9-2.6,1.2-3.1-.6l10.2-3.9h0Z"/>
  <path class="st24" d="M106.9,225.8c.9.2,2.9-1.2,4.8,1.3-3.7,1-7,2.9-8.1,6.7l-12.3,2.2c.7-1.7-.2-3.4-1.4-3.7l-3.8-.8c3.9-1.3,7.5-2.5,11.4-3.4l9.5-2.3h0Z"/>
  <path class="st201" d="M131.4,202.5c-1.6,6.1-4.2,10.7-8.4,15.5,2.7,3.8-.5,7.4-3.9,3l-2.1.9c.9,4.4-2.4,5.7-10.2,3.9-.7,3.6-7.3,7.5-9.5,2.3l-11.3,1.8c-10.6-2.4-14.8-5.7-12.7-9.9l-2.2-3.9c-3,0-2.9-3.2,0-4v-18.1c.6,1.1.4,4.5,1.6,5.3,1.9,1.2,5.4-.1,7.5-3,7.2,13.5,20.6,0,18.7,17.1,9.3,1.1,18.9-2.9,25.7-9.9l6.8-.8h0Z"/>
  <path class="st263" d="M95.5,217.7c1.9-.4,3.2-.7,4.1-.2,1.8,1.1,1.4,2.5,1.1,3.5-1.4,4.7-15.2,4.5-21.1-.2-3.9-3.1-5.5-8.5-4-14.9,5,2.3,8.3,6,10.6,10.5l2.2-5.8c.7-1.8,5.9-1.5,7,.4,1.3,2.1,1.7,3.7,0,6.8"/>
  <path class="st77" d="M73.5,219.9c5,7.9,14.8,9.8,24,8.1-.8,4.2-4.6,5.4-11.4,3.4-2.4-.5-5.2-1.7-9.7-5.2-.9,1.9-.6,3.7-.1,6.2l-6.1-5.9c-1.4-3.6-1.7-7.8,1.1-10.7l2.2,3.9h0Z"/>
  <path class="st62" d="M73.5,219.9c-.7,0-1.9-.4-2.2-1s-.2-2.2,0-3c2.1,0,2.7,2.1,2.2,3.9"/>
  <path class="st41" d="M83.3,235.9h-4c.4-.3.8-1,1.6-1.3,1.2-.4,1.9,1,2.5,1.3"/>
  <path class="st314" d="M155.3,209.9c2.2,2.1,4.8,5.2,5.8,8.1l7.9,22.1c3.2,9.1,4,18.1-1.6,19.7-12.6-4,3-18-9.4-30.1l-3.7,28.6c-2.2-2.1-4.6-3.4-6.7-.4-2.4,4.1-8,6.9-12.4,4.1-4.5-4.2-5.7-11.3-3.4-17.8l5.8-16.2,2-5.9c1.1-3.5,3.5-6.4,4.1-10.2,3-3.4,8.1-5.5,11.8-2h0Z"/>
  <path class="st50" d="M147.5,258c-.2,3-2.3,5.8-4.1,7.7-3.5.2-6-1.4-8.3-3.7,8.4.5,2.1-9.1,10.2-13.7-.3,4-2.3,6.8-1.8,8.2.4,1,3.1,1.9,4.1,1.4h0Z"/>
  <path class="st5" d="M154.2,258.4c-2.6-1.7-5.1-1.1-6.7-.4-.2-7.3.6-14.7,3.1-22.2,1.1,8.5,0,15.6,3.6,22.7"/>
  <path class="st139" d="M191.4,163.8c1.5,2.4.3,5.1-2.2,6.2-.3.1,2.9-4.5,4.1-1.8l4.1.4-2.1,3.9c-4.1,0-9.2-1.9-12.6,1.7-5.9,1.1-9.5,7.2-13.4,11.8-3.5.9-6.7-.6-8-3.9-.6-2.5,0-3.8,1.9-4.1v-2.2c-.6-1.9,0-2.5,1.9-1.6l2.3-2.1c.5-2.1,2.6-3.4,6.2-3.8,4.6-5,11.6-7.8,17.8-4.4h0Z"/>
  <path class="st88" d="M133.2,162.4l1.8,1.6c2.1,1.9,4.4,3.1,8.2,3.6,2.1.3,3.2-2.9,4.4-4.7,2.8-.6,8.4.5,9.7,2.6,3.5,0,6.7.8,9.6,2.6h6.8c-1.7,2-3.9,3.2-6.2,3.9l-2.3,2.1c-.5.5-1.5.9-1.7,1.6v2.2c-.1,0,0,3,0,3,0,.7-1.2,1.3-2,1.1l-2.2-2.2-1.9-1.8c1.9-4.9-4-12.6-9.1-11.6-1.6,2.1-3.2,6.6-7.2,6.9-4.3.4-15.9-8.8-15.8-11.2.8-3.7,7.4-3.2,8,.2h0Z"/>
  <path class="st232" d="M161.4,182c-.4-.8-1.6-1.6-2.2-2.2,1.2.1,2.4,1,2.2,2.2"/>
  <path class="st113" d="M223.3,233.9c-.3,1.1-.5,1.7-1.3,2.5-1.7-.1-3.5,0-4.9-1.7,2.8-1.3,4.6-.8,6.2-.8"/>
  <path class="st90" d="M211.5,182.3l-9.7,2.8c-2.3.7-2.7,5.4-2.6,7.2,1.3,5.4-1.3,6.1-4.7,1.7-7.2,1.2-9.3,11.2-9.3,17.9-3.8-2.8-1.8-7.9-1.8-12.6s5.4-5.1,8.7-8.2c1.1-1.6,0-6.8,3.4-7.2,5.2-1.3,10.4-2.7,16-1.8h0Z"/>
  <path class="st22" d="M206.7,204c-1.6,1.8-4,.2-5.4.7-1.3-1.6-2.8-2.8-4.9-3.9-2.9-1.6-3.1-4.5-1.9-6.7,1.7-.3,3.3-1.5,4.7-1.7,6.1-.4,13.1,9.2,7.5,11.7h0Z"/>
  <path class="st135" d="M255.3,226.9c3-4.8,5.3-3.1,4.1,2.3,2.4,3.1,10.4,22.1,9.6,24.9l-3.9,2.1c-.2,3.6-2.3,6.3-6.3,7.9,2.6,3.9,1.3,5.8-3.9,5.7,3.5,2.3-.4,6.9-3.7,5.5-3.5,6.1-6.7,7.6-9.5,4.5l.6,2.7c1.5,1.9-.5,3.3-1.2.7-.4-.4-1-.4-3-.6,2.1-2,4.4-1.5,4.2,1.2,2.4-3.4,5.3-4.1,9.3-3.7-1.1-2.6,1.2-4.5,3.5-2.2,4.2-2.9,5.7-3.7,5.1,2.1,1.8.6,1.7,2.5-.3,5.9,1.7-7.3,4.6-10.6,8.9-9.9-.3-3.5,1-6.5,4.5-4-.4-3.9,1.3-4,2.6-.1-.8,3.3-.9,5.9-4.3,8.6l-15.6,12.6c-5.5-5.8-12.2,1.1-16.3.5-8.5-1.2-12.8.2-20.8-6.7l12.4-9.2c7.9,3.5,18.5-1.3,18.1-9.7,8.4-9.4,12.8-23.4,4.6-33.7-1-1.3-2.5-2.7-2.8-4.4-2.2-2.1-2.5-3.4-.8-4,1.7-5.3,4.4-4.6,4.8.9h0Z"/>
  <path class="st28" d="M270.7,253.9c2.1.3,2.2,1,.4,2.1,2.5,1.9,2.2,5.2.2,7.9-.7,2.6-1.9,4.2-4.1,2.1l-2,2c1.7-.1,1.3,1.1,0,2.3-3.9,6.7-9-5.9-2.7-6.7.3,0-2.7,4.7-3.8.6l3.1-11.4c1.1-1,4.4.1,5,.4l-7.5-23.9c.5.3,1.7,0,2.3,0,3.2.7,4.4,2,3.8,4,4,6.6,5.7,13.6,5.2,20.8h0Z"/>
  <path class="st264" d="M265.4,270.3c2.4,3.1-1.4,10.1-5.2,9.8l-5.1-2.1-1.3-2.3c2.8-2.4,3.2-4.3,1.1-5.9,1.5-2.2,1.4-5,3.9-5.7l4.3-2.2-.9,5.1c-.3,1.5,1.4,2.9,3.1,3.2h0Z"/>
  <path class="st243" d="M251.2,275.3c.8.9.9,2.5.4,4.8l-11.7,8.2c-.6-1.5-.6-4.1-1.2-4.5-.5-.3,2.1-.6-.6-1.1,2.5,1.4,3.8-.8,3.5-2.8,2.8-1.8,7-1.3,9.5-4.5h0Z"/>
  <path class="st154" d="M255.1,277.9c-.8,1.2-2.5,1.5-3.5,2.2-1.9.9-4-1-2.1-2.3.9-.6,1.1-1.7,1.6-2.5l3.7-5.5c1-.1,2.5-.9,3.4-.5,1,.4,1.9,3.6,1.1,4.3-2.3,1.9-3.4,3-4.3,4.4h0Z"/>
  <path class="st125" d="M267.3,270c4.1-1.2,3.8,3.2,1.5,6l-8.9,9.9c-.7-2.7,0-4.3.3-5.9,2.4-3,1.3-7.5,5.2-9.8v-2.3s1.9,0,1.9,0c1.5.6,1.4,1.3,0,2h0Z"/>
  <path class="st264" d="M273.3,272l-4.5,4-1.5-6c.6-2.7,2.1-4.2,4.2-2.1l1.9,4.1h0Z"/>
  <path class="st36" d="M255.9,282.5c1.4,1.3,1,2.5-.6,3.4-1.1-.3-1.9,0-2,1-1.1.3-1.6-.2-1.6-1.4-2-1.7.5-4.1,1.4-3,.4.5,1.6,2.3,2.8,0h0Z"/>
  <path class="st206" d="M245.6,286.3c1.3-1.4,3.3-.3,3.4.6.1.7-1.4,1.9-1.8,2.5-1,1.2-3.6-.9-1.6-3M255.2,285.9l.6-3.4c3,0,2.2,4.2-.6,3.4M251.6,285.6l1.6,1.4c-.7,1.6-3,.4-1.6-1.4"/>
  <path class="st21" d="M271.3,266c0,.6,0,1.4.2,1.9l-4.2,2.1v-2c-.9-.6-.9-1.3,0-2l4.1-2.1v2.1h0Z"/>
  <path class="st253" d="M241.2,210.2c-1.2.4-3.4,2.4-4.9,1.7-1.5-.6-1.4-2.9-.9-4.1,1.9.4,4.7-.4,5.8,2.4"/>
  <path class="st264" d="M267.3,268h-2c.2-.7,1.3-1.6,2-2v2Z"/>
  <path class="st116" d="M271.1,232.1c.4-3.9,1.9-3.9,2.9-.1.5,4.9-.1,9.1-.8,14.1-2.7-1.8-3.1-5-2.5-9.1-1.5.3-3.5.5-3.5-.4v-5.5c.1-1.1,3-.5,3.9.9h0Z"/>
  <path class="st227" d="M274,231.9h-2.9c.6-1.3.2-3.1-1-3.8-1-.6-2.2,0-2.9-.2-1.2-2.8-2.1-4.3-.8-3.7l4.2,1.8c.3-1.9-.2-5.1,2.3-6.4,1.8,4.2.7,8.9,1.1,12.3h0Z"/>
  <path class="st218" d="M243.2,206h-2c-.4-1-1-1.8-2-2.1-1.3-.6-1.3-1.2,0-1.9,1.3-.6,3.2-.5,3.5,1.2l.4,2.8h0Z"/>
  <path class="st270" d="M239.3,204c-2.9.6-2.9-2.5,0-1.9v1.9Z"/>
  <path class="st66" d="M211.3,191.9v2c-.5,1.1-1.2,1.1-2.1,0,.5,7.9-10.5-.5-4.1-4,2.5-.4,4.2,1.1,6.1,1.9"/>
  <path class="st160" d="M19.3,142c1.4,0,1.8,1,1.9,2.2-1.7.4-5.4.6-6.1-2-.6-2,1.7-2.3,2.2-1.5.3.5,1.2,1,2,1.3"/>
  <path class="st80" d="M174.3,71.7c1.7-.7,12.7,3.1,12.2,5.1-.1.5-1.1,1.2-2.6,1.9l7,9.1c-2.4,4.5,1.3,8.5,3.9,12.1l.8,2.7c-2.6,3.9-5.4,7.8-8.4,11.6-.6-3.3-3.7-4.4-5.4-6.3l-4.6.6-6.7-13.4c-7.1-5.3-8.1-9.1-3.1-11.1-3.9-1.4-6.3-3.4-7.4-6.2l14.4-6.1h0Z"/>
  <path class="st248" d="M159.9,77.8c2.9.8,6,3.8,7.4,6.2-1,1.7-2.8,4.1-4,3.6-8.9-6.9-14.1-7.2-23.8-3.6-1.8,3.8-3.6,3.7-5.3-.5l-8.9,4.6c0,1.8-.5,1.7-1.3,0-2.1,2.5-4.1,3.6-4.7,0-4-1.9-1.5-4.3,2-5.7,6.2.3,19.3-10.1,38.8-4.5h0Z"/>
  <path class="st225" d="M121.1,82.3c-1.3,1.7-2,3.7-2,5.7,3.3-.4,2.5,3,.5,4.9-1.5,2.7-2.9,2.2-2.8-.9-4.3,9.3-7.9,11.4-10.8,6.3.6-8.4,6.9-12.1,13-16.4l2.2.4Z"/>
  <path class="st254" d="M99.7,89.9l-3.5-7c-5.5.7-10.4-.5-15,1.6,1.3-1.7,1.5-4.9,4.1-5.9,1.8-.7,3.9-.6,6.3,0,5.3,1.1,9.3-3,13.9-4.4l12.1-3.8h1.8c1.8.1,4.1,3.7,3.9,4.9-.3,2.2-20.4,19.5-23.5,14.8h0Z"/>
  <path class="st88" d="M119,81.9c-2.7,5.8-7,11.3-13,16.4.1,5.2-1.9,5.1-3.7.2,0-1.4-3.6-3.2-4.4-2.1-1.1,3.6-1.9,6.8-4.9,7.9l-.2-2.1,6.8-12.2,8.1-7.4c1.1,1.6,3.1,3.2,3.8,2.4l3-3.5c3.3-3.9,6.1-7,4.7-11.2.3-1.3,3-2.2,4.2-1.4.9.6,1.1,2.6.4,5,2.6-.6,5.1-2,7.6-.9l-12.5,8.9Z"/>
  <path class="st88" d="M112.3,78l1.6,1-1.6,1-1-1,1-1Z"/>
  <path class="st117" d="M201.3,14.1c2.6-1.9,3.7-1,2,1.9,2.6,2.1,3.9,3.8,0,4,4,.3,6.7,1.2,6.1,5.9h-8c0,.1-2.2-1.8-2.2-1.8-3.2-1.1-4.2-4.6-3-7.7l3.2-2.3h2Z"/>
  <path class="st237" d="M201.3,26h-2.2c0,0,0-1.9,0-1.9.8.3,1.6,1.3,2.2,1.9"/>
  <path class="st137" d="M219.3,18c3.5,1.2.8,2.9-2,4v2.4l-2-.4c-.5-.1-1.5-.2-2,0-1.7-.6-1.7-1.3,0-2v-2c.3-1.3.5-2.2,2-2h2c.6-.8,1.3-.8,2,0"/>
  <path class="st237" d="M213.3,22v2c-1.1.5-2.8,1.9-4,1.9-3.1-.8-6.2-2.2-6.1-5.9l.5-2c2.9,1.4,4.7.8,5.6-2,1.8-2.2,3.1-.2,4.1,6h0Z"/>
  <path class="st87" d="M225.3,16c0,4.2-4.2,6.3-8.1,6l2-4c-.4-1,.3-1.8,2-2.2l4.1.2Z"/>
  <path class="st34" d="M205.1,190c.3,3.1-.4,5.3,1,5.9.9.4,2.5-1.5,3.1-1.8l2.1,2v1.9c-1.5,1.6-1.5,2.3-.2,2.3h3.8c1.3.4,1.4,1.1.2,2l1.9,3.8c.5,3.5-2.1,3.4-7.8-.1l-2.4-1.8c1.7-5.5-3.6-8.4-7.5-11.7l5.9-2.4Z"/>
  <path class="st237" d="M217.3,14l-2,4-2,2c-2.1-2.2-3.7-5.9,0-6,.5-1.6,2.9-1.4,4,0"/>
  <path class="st150" d="M217.3,12h2l-2,2h-4c-1.8-.6-1.7-1.2,0-2h4Z"/>
  <path class="st89" d="M221.3,15.8l-2,2.2h-2c.6-1.6,2.3-2.3,4-2.2"/>
  <path class="st267" d="M213.3,12v10l-4.1-6c-4.1-.7-5.4-2.1-3.9-4h8Z"/>
  <path class="st260" d="M205.3,12l3.9,4c-.6,1.7-1.2,1.7-1.9,0-.6,1.2-1.3,1.1-2,0-.6,1.8-1.3,1.7-2,0,0-.9-1.1-1.8-2-1.9.2-.5.6-2.1-1.3-2.7l5.3.5h0Z"/>
  <path class="st299" d="M207.1,104c1.6.2,4,.9,5.9,2.1l.5,11.5c-.8,2.8-2.1,6-3.9,8.6-2.5,9.9-4.6,10.9-6.4,2.8l-1.7,1.1c.3,4.7-3.3,4.2-3.4-.6-4.4,5.7-11.2,9.8-20.4,12.2,5.7,2.4,11.2,2.7,16.4.9,2.9.3,5.5,1.2,5.4,4-.1,5.4-2.4,13.9-8.7,9.4-2.9-1.4-5.5-3.4-7.6-5.8l-1,2.6c-9.4-3.6-24,.6-22.9,11.3,2.2,3.1,1.1,4-2.1,1.6-2,.6-4.9.2-8.8-.9-3.8,7.4-13.8,7.8-13.6-.6,3.6-2.6,4.9-6,4-10.2.8,0,3.3.5,4.6.1.9-.3,1.4-1.8.9-3.7,3.1-1.5,5.1-.8,8.9-1l-21.6-11.3-8.8-6c-1.7-.6-3.9-.2-5.7,0l-2.1-2c-.4-.2-1.4-.2-1.8,0-3.9.6-3.9-1-.2-2.4,0-9.8,7.5-4.4,12.4.3,5.1.1,8.4,1.6,10.2,4.2,2.9.4,3.5,1.4,1.8,2.9.4,0,1.1,0,1.4-.1,1.4-7.7,9.6-9,24.6-4.1,6.9.4,13.6-1.3,15-8.4l2.9-2.5c-8.4,2.2-8.8-15.2.2-11.7,3.6-3.3,5,2.6,5.4,6.3,5.1-1.5,8.8-4.9,5.6-10l2-4.3c-7.3,3-12.9-11.6-3.9-12.1,1.4,1.8,3.1,3.3,4.5,6.1,2,4.2,6.4,3.6,10,2.7-1,2.8-2,4.6-1.8,6.1.2,1.8,2.5,1.1,3.5,1.2h0Z"/>
  <path class="st9" d="M138.9,153.8l9,6.5c-4,3.4-8.5,4-12.9,3.7-2.3,3.1-3.5,2.1-1.8-1.6-1.8-1.7-1.1-2.4,2.1-2.4-1.7-.6-1.7-1.2,0-2l-2-2c-2.9,2.1-3.9,1-1.8-2v-3.7c2.4.2,5.3,2,7.4,3.5h0Z"/>
  <path class="st165" d="M131.9,137.9c-3.3-1.7-7.3-2.3-8.8-6,3.4,1.1,6.7,3.1,8.8,6M117.4,131.8c-1.1,0-2.3-.6-2.1-2,.9.3,1.7,1.1,2.1,2"/>
  <path class="st261" d="M198.2,129.4c2.3,1.5,3.2,5.1,1,6.9-1.4,1-3.5,1-5.1,4.6h10s-4.8,14-4.8,14l3.6,2.3c-3-4.4-4.8-.5-2.9,1l-1.7-2.1c-2.6,2-5.6,1.8-8.6,2-3.1-1.5-2.4-2.8,1.2-2.2,1.6,0,3.5.6,6.5-.4-2.4-3-2.4-5.8-.1-9.9-5.7,1.9-9.9,3.3-14.8,1.3-8.4-3.4-14.8.9-24.8,2.6,11.8-9.7,26.3-15.7,40.4-20.1h0Z"/>
  <path class="st104" d="M156.8,126.6c2.9-2.3,7.3-2.8,13.1-1.6l8.7-2.8c1.2,1.7,1.5,4.9.4,6.4-.7,1-3.5,1.4-4.9,2.3-10.9,7.1-21-5.7-35,3.7l2.5,2.2c-1.5-1.7-3.2,0-1.4,1.6l-2.5-3.7c-.4.4-1.9.4-2,0-.1-.6,0-2.3.2-2.8,1.1-2.6,3.5-6.6,3.4-10.3,5,4.2,12.5,3,17.6,4.9h0Z"/>
  <path class="st283" d="M183.3,150c.8,1.4,2.9,3.6,2.9,5.1,0,2.3-3.4,2.7-4.9,2.9-1.8-.6-1.7-1.3,0-2.3-3.6,1-6.4.4-8.2-1.7-.4,1.8-1.1,1.7-1.8,0l-4.1,2.2c.8,3.2-3.3,6.1-5.7,7.4-.5,1.6-1.2,1.7-2.1.3-1.8-3.6-4.1-4.8-8.8-5,8-5.6,15.1-7.5,23.1-10.3,3.7-1.3,7.1,1.4,9.6,1.5h0Z"/>
  <path class="st305" d="M187.2,114.3c.6-3.5-.1-6.8-1.2-10.7,4.1-1.1,6.6-1.9,8.8-3.7,3.5,4.9,5.4,10.6-.8,15.1,0,2.7-1.7,2.8-2.8,2.4-2-.6-3.7-1.6-4-3.2"/>
  <path class="st69" d="M165.6,163.9c2.6-1.3,4.5-1.3,5.7,0l-4.5,4.1-5,1.2c-3.3.8-3.5-2-4.6-3.8l2.1-1.6c.4-.3,1.6-.4,2.1-.3.6-4.1,3.5-3.9,4,.3h0Z"/>
  <path class="st152" d="M117.8,150.1c2.3.9,6.8-.8,9.5,1.9,8.9,6.1.4,6.2-6,4l-2-2c-.6,1.8-1.3,1.7-2.1,0l-2-1.4c-.5-.4-2.2-1.4-1.8-1.8,1.5-1.3,3.6-.2,4.5-.8h0Z"/>
  <path class="st310" d="M131.5,154c.4.8,1,1.5,1.8,2l2,2v2c-2.8,1-8.1.5-10-1.9-3.6.2-7.2.6-10.4-2,1.5.3,2.6-.8,2.3-2h2.1l2,2,8.2-.3-2.2-3.7c1,.9,3,1.4,4.2,2h0Z"/>
  <path class="st39" d="M135.3,160c0,1.1-1.1,1.9-2.1,2.4-2.7-2.4-6-.3-8-.2v-4.1c3.5-.2,6.9,1.1,10.1,1.9h0ZM135.3,158l-2-2c.8.6,1.5,1.2,2,2"/>
  <path class="st232" d="M165.1,174.1c.7-.6,1.4-1.8,2.3-2.1l-2.3,2.1ZM163.2,177.9c-.8-.2-2.1-1.7.1-2.2-.2.6-.2,1.6-.1,2.2"/>
  <path class="st105" d="M206.7,204c2.4-2.1,3.5-1.3,2.4,1.8,5.1,1.3,10,3.3,12.3,8.4-.2-5.8,6.4-5.8,7.8-.2l4,4-32.1-2.6-9-7.8,9.2-3c.4-5.5,2.8-4.8,5.4-.7h0Z"/>
  <path class="st22" d="M204.6,208.9h2.7c0,0-1.3.1-1.3.1h-2.7c0,0,1.3-.1,1.3-.1Z"/>
  <path class="st297" d="M211.1,200.1c.4,1.1-.6,2.1-1.1,1.6-1.1-.9-1-2.2-.7-2.8.4-1,1.2-1.3,2-1.1l-.2,2.3Z"/>
  <path class="st259" d="M217.3,196l2,1.9h6.1c.4-2.8,3.2-2.9,3.9,0,0,1.3.7,2.9,1.6,3.5,1.4.9,3,.9,4.4.6-.4.3-.9,1.3-1,1.9-.2.6.1,1.5,1,1.9,0,.6.2,1.6.1,1.9-2.2-.5-4.1-1.1-6.2-.1-2.6,1.6-6,1.1-10.1-1.4-.9,1.6-1.6,1.5-2.1-.3-4.2-1-4.9-2.2-1.9-3.8,1-1,.9-1.6-.2-1.9.2,4-3.1,3.9-3.8-.1-1.7,0-1.1-1.2.2-2.3-1.8-.4-1.7-1,0-1.9.9-.8,1.2-1.4,0-2.1-1.8-.5-1.8-1.1-.1-2,2.4.9,4.7,1.7,6,4.1h0Z"/>
  <path class="st34" d="M229.2,207.7c1.8,1.9,2,4.6.1,6.3l-7.8.2c-3.2-1.8-5.2-5.1-2.4-7.9,1.1-2.1,4.6-3.3,6.3-1.8l3.8,3.2h0Z"/>
  <path class="st161" d="M229.3,198h-3.9c-.2-1.4.2-3.4,1-4,1.1-.8,2.4,0,2.6,1.1l.4,2.9h0Z"/>
  <path class="st197" d="M219.3,197.9c-.8,0-1.6-1.3-2-1.9l2,1.9Z"/>
  <path class="st187" d="M224.6,201h2.7s-1.3,0-1.3,0h-2.7s1.3,0,1.3,0Z"/>
  <path class="st63" d="M211.3,196c-1-.7-.9-1.4,0-2.1,2.1-.2,2.1,2.1,0,2.1"/>
  <path class="st297" d="M215.1,202.1l-.2-1.9c1.8-1.3,3.5,1.6.2,1.9"/>
  <path class="st34" d="M220.3,200l1,1-1,1.6-1-1.6,1-1Z"/>
  <path class="st297" d="M211.3,196c-1.1,0-1.8-1.2-2.1-2h2.2c0,0,0,2,0,2Z"/>
  <path class="st261" d="M209.7,126.1c-1.2,2-.1,6.5.1,8.8-.1,1.3-1.6,2.3-2.1,3.3-2.5,0-4.9-.4-7-1.8-1.1-2.8-.8-4.9.9-6.4-.8-2.1,0-5,3.6-6-.1,3.2-.5,5.1,1.1,8.2,1-2.4,1.4-4.6,3.4-6.1h0Z"/>
  <path class="st109" d="M200.7,136.4c-.4-.2-1.1-.2-1.5,0-1.6-1.9-1.6-4.2-1-6.9,1,1,2.3.7,3.4.6l1.3,3.6c.5,1.5-.5,2.9-2.2,2.9h0Z"/>
  <path class="st299" d="M205.3,135l1-1,1,1-1,1-1-1Z"/>
  <path class="st101" d="M207.3,16h1.9c.7,1.3.2,3.9-1,3.9h-5.1c0,.1,0-3.9,0-3.9h2c.7,1.2,1.3,1.1,2,0h0Z"/>
  <path class="st88" d="M207.7,138.2l3.5,2.2c-3.2,9.9-1.3,15.6,5.6,17.1-.5-5.4.9-8.6,4.4-9.6.7-1.7,1.4-1.6,2,.2-.1,6.2,3.4,14.1.5,20.3l-3,1.8-20.3-4.2-.8,2.1c-.3,1.8-1,1.9-2.1.3-1.9,2.3-3.6,2.8-4.1-.4-1.3-.2-1.9-1.6-1.9-4.4-4.1,3-12.6,5.2-17.8,4.4-3.7,2.2-5.9,2.1-6.8-.1-2.7-1.7-1.2-3.1,4.5-4.1.6-1.8,1.2-1.7,2,0l4.2-1.7c3.5-2.1,6.7-4.3,9.8-6.5l2.5,2.3c2.4-1.1,5.3-1.7,8.6-2,.6-.2.9-.8,1.1-1.2-2.1-1.2-2.1-3.9,0-7.8l-2.8-3.7c-9.4.5-4.9-13.3,2.6-7.1.3-1.9.8-1.8,1.5,0,3.6-3.6,5.1-2.7,7,1.8h0Z"/>
  <path class="st94" d="M223.7,168.4c1,2.3,4.6,5.2,1.9,7.9-.9.6-1.7,1.1-2.4.9-5.5-1.4-17.1-4.9-22.1-6.7-.7-.2-1.1-1.2-1.5-2.4-.9-1.5-2.5-2.2-4.5-3.4,7.4-2.6,12.3.8,18.7,1.9,3.2.5,7.2-1.4,9.9,1.8h0Z"/>
  <path class="st175" d="M222.9,136l.4,4c-2.8,1.7-2.1,5.2-2,7.9v14.6c-7.8-.5-13.4-5-17.3-9.6,4.9-5.1,2.1-10.6,3.8-14.7-3.4-3.5-2.6-4.5,2.1-3.3.2-1.6,1.2-3.6,2.6-4.2.9-.4,3.3.2,4.7.3,1.2-1.9,1-4.4,4-5.8l1.7,10.8h0Z"/>
  <path class="st142" d="M190.9,155.9c-.6,0-1.3,1.4-1.2,2.2-4.3.3-8.2,2.8-12.2,4.2-2.9-1.9.9-4.8,3.9-4.2,1.8-2.8,1.9-4.6.4-5.5l1.5-2.5h6.7c1.8.1,1.7,4.1.9,5.8h0Z"/>
  <path class="st69" d="M177.5,162.3c-1.2.4-2.5,1.7-4.2,1.7-.4-3.1,2.7-4.5,4.2-1.7"/>
  <path class="st15" d="M193.3,168.2l-4.1,1.8c1.4-2.8,1.9-4.1,2.2-6.2,1.5.8,2.1,2.8,1.9,4.4h0Z"/>
  <path class="st242" d="M181.4,155.8c-.2.8-.2,1.6,0,2.3-2.1.3-3.1,2.7-3.9,4.2-1.2.2-3.3.4-4.2,1.7h-2s-5.7,0-5.7,0c-1.6-4.6,1.4-5.9,3.8-1.9,4-4.4,8-6.5,12-6.3h0Z"/>
  <path class="st95" d="M205.3,16h2c.3,2.4-2.3,2.4-2,0"/>
  <path class="st182" d="M131.3,106c-1,1.6-2.9,1.5-4.1,0l-.2-2.2v-1.7c.8-.5,2.6-2.4,3.4-1.8,1.6,1.3,1.1,4.4.9,5.7"/>
  <path class="st304" d="M169.4,162c-1.3.7-3.1.3-3.8,1.9l-4-.3c-1.1-4,1.9-6.8,5.7-7.4l4.1-2.2h1.8c6.1.3,4.8,2.9-3.8,8.1"/>
  <path class="st107" d="M181.4,155.8l-12,6.3c.9-2,2.2-3.6,5.9-4.8l-2.1-3.2c2.7,0,6.6-.7,8.2,1.7h0ZM171.4,154c-1.1,1-2.6,1.9-4.1,2.2.6-1.7,2.4-2.4,4.1-2.2"/>
  <path class="st174" d="M121.3,156c-1-.2-1.8-1-2-2,.9.4,1.6,1.1,2,2"/>
  <path class="st22" d="M217,206l2.1.3c1.8,2.3,2.5,5.1,2.4,7.9-5.1.2-8.4-5.6-12.3-8.4h7.8c0,.1,0,.2,0,.2Z"/>
  <path class="st34" d="M216.3,207.3l1,1.7-1,1-1-1,1-1.7Z"/>
  <path class="st180" d="M135,101.8c-2.2,2.1-3.4-1.2-3.7-3.8.2-2.6,3.1-6.1,6.1-5.8l3.6-2.1,3.7-4.6,2.7,5.4c.5.9,2.4-.3,3.4-2.3,4.4,4.7,7,8.6,12.9,10.4-7.6,3.8-8.4,16.6-20.4,14.2-4.9-1-7.9-6.8-8.2-11.3"/>
  <path class="st248" d="M137.4,92.2l-6.1,5.8h-2l4-6,4.1-2v2.2Z"/>
  <path class="st230" d="M140.8,100.7c-1.7-2.4,6-8.1,7.6-6l6.7,8.6c-4,4.6-9.6,6.4-14.1,5.4-1-2.2-1.1-5.3-.7-6.5.6-.2,1-.9.6-1.6h0Z"/>
  <path class="st311" d="M167.2,84c-.8,4.4,4.8,6.2,6.5,9,3.3,5.4,4.4,11,8,15-4.1,3-2.1,8.1-.2,11.7l-9.3,4.9c-5.7-.2-10.8.4-15.4,1.9-4.8,3.2-18.7,3.7-17.6-4.9-.7,2.1-1.2,3.2-3,1.7l-2.1,1.6c.5,1.9.3,3.8-1.2,4.1-10.2,2.2-22.1-11.4-15.3-21.8-8.7-2.7-9-7.8-.9-15.2.5-.2,2-.7,2.8.9.7-2.4,1.3-4.6,4.2-4.8h1.3c8.2-5.9,16.9-6.2,8.2,3.9,2.4,1.1-1.7,4.8-4,6h-2s-2.2,2-2.2,2l2.1,2c1.7.5,1.6,1.1-.1,1.7-.2,4.4,6.3,14,10.7,11.7l1.8-1.5c9.8,8.1,21.1-4.9,24.4-13.9,1.1-2.9-12.9-16.6-18-12.3-2.3-4-3.6-.8-4.9,2.4,2.1,4.9.3,5.7-3.6,2.1-1.7-.6-1.7-1.3,0-2.2-1.8-2.3-1.5-6.2,2-6,6-5.7,14.2-6.8,21.7-1.6,2,1.3,4.1,1.8,6.2,1.6h0Z"/>
  <path class="st43" d="M116.8,92c.2,3.1-1.2,5.5-3.3,7,.9,1.6,3.3,4.4,4.6,4.2.9-.2,2.2-1.6,4.4-4.1,1.4,11-6.6,15,.2,23.5,1.5,1.9,2.8,4.4,5.7,4.2,1.7-.1,4.2-.7,5.9-1.9.1-.2-.4-.9-1.5-1.7,2.5,2.6,2.2-1.1,2.3-.6l1.3.7,3-1.7c5.8,3.7,3.1,10.8-3.4,10.3-11.1.7-13.7-9.6-22.6-4.5-2.1,1.2-6.5.8-10.7.9,1.2-2.4,4.3-3.5,3.7-4.5l-3.1-4.9c-2-3.2,3.7-6.7,8.6-6.7-2.3-5.6-7.6-6.9-12.8-7.1,2-1.8,3.6-4.1,3.3-6.7l3.7-.2c6.9-.4,7.6-7.1,10.8-6.3h0Z"/>
  <path class="st53" d="M181.5,119.7c-.2,1.5-2,2.2-2.9,2.5-5.5,6.4-13.8,7.3-21.8,4.4.6-2.6,2.1-6.7,3.7-6.2l6.9,2c5.2,1.5,9.7-2,14.1-2.6"/>
  <path class="st43" d="M139.4,84c-1.1,1.7-1.8,3.8-2,6-.7,2-2.4,3.5-4.1,2,1.4-2,3-4.4,1.3-8.3-2.6,3.3-5.9,4.3-9.5,4.4,3.4-4.7,8.8-7.1,14.2-4.1h0ZM123.8,88.1c-.9,1.4-1.5,4.8-4.2,4.8l-.5-4.9h4.7c0,0,0,0,0,0Z"/>
  <path class="st106" d="M137.7,115.5c-11.1.8-9.2-9.1-2.7-13.7l4.2,1.1c1,5.7,6.3,8.9,11,4.9,8.6-7.2,6-9-1.6-13.1-8.1-4.4-5.7-7.5-5.3-7,3.3,3.7,2.9,3.9-2.4,2.4,0-4.7,3.4-6.3,7.3-6.5,4.9-.3,6.3,2.2,9.9,5.9,2.7,2.8,7.2,3.8,7.5,7.7.6,9.1-10.1,23.2-23,24.2-.8-4.1-3.1-4.8-4.9-5.9h0Z"/>
  <path class="st43" d="M127.3,100c-.7,1.4-1.4,1.3-2.2,0,.2-1.3.8-2.1,2.2-2.1.9.6.9,1.3,0,2"/>
  <path class="st43" d="M135,101.8c-1.3,1.7-3,4.5-2.4,7.1.5,2.2,2.9,5.3,5.1,6.6,0,.9,1.9,2.8-.5,5.8-4.9-5.3-8.9-6.4-14.4-8,5.5-2.9,2.7-6.8,4.2-9.5,1.8.5,1.8,1.2.2,2.2,1.7,1.3,2.4,1.3,4.1,0-1.6-2.5-2.9-3.8-4.1-3.9-1.3-.7-1.3-1.3,0-2.1l2-2c.6-.9,1.3-.8,2,0l3.7,3.8Z"/>
  <path class="st239" d="M127.2,102.1c-1.3.5-2.4-.6-2.1-2h2.2s0,2,0,2ZM127.3,100v-2s2,0,2,0c-.5.8-1.2,1.5-2,2"/>
  <path class="st211" d="M131.3,106c-.1.8-.2,1.7-1.1,2.1-1.7.8-2.8-.6-3-2h4.1Z"/>
</svg>