<?xml version="1.0" encoding="UTF-8"?>
<svg id="Layer_2" data-name="Layer 2" xmlns="http://www.w3.org/2000/svg" viewBox="0 0 178.89 397.92">
  <defs>
    <style>
      .cls-1 {
        fill: #7b7674;
      }

      .cls-2 {
        fill: #6f6763;
      }

      .cls-3 {
        fill: #78726f;
      }

      .cls-4 {
        fill: #8e8983;
      }

      .cls-5 {
        fill: #7c7875;
      }

      .cls-6 {
        fill: #7f675a;
      }

      .cls-7 {
        fill: #9d918c;
      }

      .cls-8 {
        fill: #a5a3a1;
      }

      .cls-9 {
        fill: #57504e;
      }

      .cls-10 {
        fill: #474643;
      }

      .cls-11 {
        fill: #6a5a53;
      }

      .cls-12 {
        fill: #524a46;
      }

      .cls-13 {
        fill: #524f4d;
      }

      .cls-14 {
        fill: #e6dcd8;
      }

      .cls-15 {
        fill: #dbd9db;
      }

      .cls-16 {
        fill: #ada299;
      }

      .cls-17 {
        fill: #675951;
      }

      .cls-18 {
        fill: #47403e;
      }

      .cls-19 {
        fill: #70655f;
      }

      .cls-20 {
        fill: #423c38;
      }

      .cls-21 {
        fill: #26211f;
      }

      .cls-22 {
        fill: #dbd3c8;
      }

      .cls-23 {
        fill: #534d49;
      }

      .cls-24 {
        fill: #211c19;
      }

      .cls-25 {
        fill: #cdc0be;
      }

      .cls-26 {
        fill: #564d4b;
      }

      .cls-27 {
        fill: #9e938b;
      }

      .cls-28 {
        fill: #544f4c;
      }

      .cls-29 {
        fill: #6d625d;
      }

      .cls-30 {
        fill: #989490;
      }

      .cls-31 {
        fill: #d8c6b6;
      }

      .cls-32 {
        fill: #c1b7af;
      }

      .cls-33 {
        fill: #a29791;
      }

      .cls-34 {
        fill: #776e6d;
      }

      .cls-35 {
        fill: #c4bab2;
      }

      .cls-36 {
        fill: #b2aaa4;
      }

      .cls-37 {
        fill: #948c87;
      }

      .cls-38 {
        fill: #413a33;
      }

      .cls-39 {
        fill: #423b38;
      }

      .cls-40 {
        fill: #71655d;
      }

      .cls-41 {
        fill: #635b58;
      }

      .cls-42 {
        fill: #443c38;
      }

      .cls-43 {
        fill: #bfbbbb;
      }

      .cls-44 {
        fill: #7a726d;
      }

      .cls-45 {
        fill: #908985;
      }

      .cls-46 {
        fill: #6e635c;
      }

      .cls-47 {
        fill: #ded3ca;
      }

      .cls-48 {
        fill: #d0cccc;
      }

      .cls-49 {
        fill: #4b4340;
      }

      .cls-50 {
        fill: #7d7573;
      }

      .cls-51 {
        fill: #4b4441;
      }

      .cls-52 {
        fill: #655f5a;
      }

      .cls-53 {
        fill: #5a534f;
      }

      .cls-54 {
        fill: #b6b4b6;
      }

      .cls-55 {
        fill: #564e4a;
      }

      .cls-56 {
        fill: #433e3b;
      }

      .cls-57 {
        fill: #7d7973;
      }

      .cls-58 {
        fill: #888581;
      }

      .cls-59 {
        fill: #59524c;
      }

      .cls-60 {
        fill: #969491;
      }

      .cls-61 {
        fill: #a8a5a3;
      }

      .cls-62 {
        fill: #a5a5a2;
      }

      .cls-63 {
        fill: #38332f;
      }

      .cls-64 {
        fill: #6e5b50;
      }

      .cls-65 {
        fill: #45403d;
      }

      .cls-66 {
        fill: #888784;
      }

      .cls-67 {
        fill: #716b66;
      }

      .cls-68 {
        fill: #483f3b;
      }

      .cls-69 {
        fill: #574e4b;
      }

      .cls-70 {
        fill: #4a4442;
      }

      .cls-71 {
        fill: #bbb1aa;
      }

      .cls-72 {
        fill: #938278;
      }

      .cls-73 {
        fill: #78726d;
      }

      .cls-74 {
        fill: #ada49c;
      }

      .cls-75 {
        fill: #5b544e;
      }

      .cls-76 {
        fill: #bbb9b6;
      }

      .cls-77 {
        fill: #453d3a;
      }

      .cls-78 {
        fill: #b9b1ab;
      }

      .cls-79 {
        fill: #69584f;
      }

      .cls-80 {
        fill: #e2e2e3;
      }

      .cls-81 {
        fill: #c8c3bd;
      }

      .cls-82 {
        fill: #5e534e;
      }

      .cls-83 {
        fill: #dbd8d5;
      }

      .cls-84 {
        fill: #807e7b;
      }

      .cls-85 {
        fill: #a5a5a3;
      }

      .cls-86 {
        fill: #3d3937;
      }

      .cls-87 {
        fill: #413d38;
      }

      .cls-88 {
        fill: #5d5754;
      }

      .cls-89 {
        fill: #6e635a;
      }

      .cls-90 {
        fill: #363431;
      }

      .cls-91 {
        fill: #af9e8f;
      }

      .cls-92 {
        fill: #b4a094;
      }

      .cls-93 {
        fill: #39322d;
      }

      .cls-94 {
        fill: #4d4541;
      }

      .cls-95 {
        fill: #625955;
      }

      .cls-96 {
        fill: #706a6a;
      }

      .cls-97 {
        fill: #827770;
      }

      .cls-98 {
        fill: #3b3734;
      }

      .cls-99 {
        fill: #bbb1a7;
      }

      .cls-100 {
        fill: #9b9a97;
      }

      .cls-101 {
        fill: #6e6460;
      }

      .cls-102 {
        fill: #605c59;
      }

      .cls-103 {
        fill: #605753;
      }

      .cls-104 {
        fill: #453c36;
      }

      .cls-105 {
        fill: #9f9893;
      }

      .cls-106 {
        fill: #8c827b;
      }

      .cls-107 {
        fill: #3b3430;
      }

      .cls-108 {
        fill: #979692;
      }

      .cls-109 {
        fill: #615c5b;
      }

      .cls-110 {
        fill: #77736f;
      }

      .cls-111 {
        fill: #beb5ad;
      }

      .cls-112 {
        fill: #5d5855;
      }

      .cls-113 {
        fill: #867e78;
      }

      .cls-114 {
        fill: #4b4946;
      }

      .cls-115 {
        fill: #afa59f;
      }

      .cls-116 {
        fill: #49413f;
      }

      .cls-117 {
        fill: #4f4a48;
      }

      .cls-118 {
        fill: #5d5a56;
      }

      .cls-119 {
        fill: #837f7e;
      }

      .cls-120 {
        fill: #928984;
      }

      .cls-121 {
        fill: #95938e;
      }

      .cls-122 {
        fill: #4a4541;
      }

      .cls-123 {
        fill: #c1b7ae;
      }

      .cls-124 {
        fill: #6b6766;
      }

      .cls-125 {
        fill: #322d29;
      }

      .cls-126 {
        fill: #423e3b;
      }

      .cls-127 {
        fill: #7e7e7a;
      }

      .cls-128 {
        fill: #706d69;
      }

      .cls-129 {
        fill: #918f8a;
      }

      .cls-130 {
        fill: #3b322c;
      }

      .cls-131 {
        fill: #554f4e;
      }

      .cls-132 {
        fill: #5c5350;
      }

      .cls-133 {
        fill: #918c8a;
      }

      .cls-134 {
        fill: #93908c;
      }

      .cls-135 {
        fill: #685e5a;
      }

      .cls-136 {
        fill: #a19e9b;
      }

      .cls-137 {
        fill: #91857e;
      }

      .cls-138 {
        fill: #635f5f;
      }

      .cls-139 {
        fill: #635752;
      }

      .cls-140 {
        fill: #6b635d;
      }

      .cls-141 {
        fill: #9c958d;
      }

      .cls-142 {
        fill: #5c5652;
      }

      .cls-143 {
        fill: #7f7b76;
      }

      .cls-144 {
        fill: #8f8885;
      }

      .cls-145 {
        fill: #dbcbbb;
      }

      .cls-146 {
        fill: #49423e;
      }

      .cls-147 {
        fill: #706a66;
      }

      .cls-148 {
        fill: #7e7a7a;
      }

      .cls-149 {
        fill: #5a504c;
      }

      .cls-150 {
        fill: #a7a6a3;
      }

      .cls-151 {
        fill: #6d645d;
      }

      .cls-152 {
        fill: #7a6960;
      }

      .cls-153 {
        fill: #aa9e95;
      }

      .cls-154 {
        fill: #45423f;
      }

      .cls-155 {
        fill: #9e9b99;
      }

      .cls-156 {
        fill: #2e2f2d;
      }

      .cls-157 {
        fill: #4f4d4b;
      }

      .cls-158 {
        fill: #918f8b;
      }

      .cls-159 {
        fill: #b3b0ad;
      }

      .cls-160 {
        fill: #2f2722;
      }

      .cls-161 {
        fill: #79706e;
      }

      .cls-162 {
        fill: #938f8c;
      }

      .cls-163 {
        fill: #615852;
      }

      .cls-164 {
        fill: #9a938e;
      }

      .cls-165 {
        fill: #39332f;
      }

      .cls-166 {
        fill: #adaaa7;
      }

      .cls-167 {
        fill: #5f534b;
      }

      .cls-168 {
        fill: #8f867e;
      }

      .cls-169 {
        fill: #4c4642;
      }

      .cls-170 {
        fill: #888582;
      }

      .cls-171 {
        fill: #302a26;
      }

      .cls-172 {
        fill: #4b4949;
      }

      .cls-173 {
        fill: #5d5350;
      }

      .cls-174 {
        fill: #71655e;
      }

      .cls-175 {
        fill: #39312e;
      }

      .cls-176 {
        fill: #9e9c99;
      }

      .cls-177 {
        fill: #b7b2ac;
      }

      .cls-178 {
        fill: #615954;
      }

      .cls-179 {
        fill: #35312d;
      }

      .cls-180 {
        fill: #6b5f5a;
      }

      .cls-181 {
        fill: #3e3835;
      }

      .cls-182 {
        fill: #81766f;
      }

      .cls-183 {
        fill: #6f6765;
      }

      .cls-184 {
        fill: #342e2a;
      }

      .cls-185 {
        fill: #4c433e;
      }

      .cls-186 {
        fill: #443e3c;
      }

      .cls-187 {
        fill: #56504b;
      }

      .cls-188 {
        fill: #ebebeb;
      }

      .cls-189 {
        fill: #a9a5a1;
      }

      .cls-190 {
        fill: #514d49;
      }

      .cls-191 {
        fill: #766b66;
      }

      .cls-192 {
        fill: #9d8e84;
      }

      .cls-193 {
        fill: #35312e;
      }

      .cls-194 {
        fill: #56514f;
      }

      .cls-195 {
        fill: #706864;
      }

      .cls-196 {
        fill: #262423;
      }

      .cls-197 {
        fill: #9b9a99;
      }

      .cls-198 {
        fill: #aeaeae;
      }

      .cls-199 {
        fill: #6b6c6a;
      }

      .cls-200 {
        fill: #dfd6ce;
      }

      .cls-201 {
        fill: #5b514c;
      }

      .cls-202 {
        fill: #554c47;
      }

      .cls-203 {
        fill: #787170;
      }

      .cls-204 {
        fill: #675e5a;
      }

      .cls-205 {
        fill: #63605e;
      }

      .cls-206 {
        fill: #534f4a;
      }

      .cls-207 {
        fill: #3d3530;
      }

      .cls-208 {
        fill: #423c39;
      }

      .cls-209 {
        fill: #43403b;
      }

      .cls-210 {
        fill: #3e3a36;
      }

      .cls-211 {
        fill: #423937;
      }

      .cls-212 {
        fill: #1f1b19;
      }

      .cls-213 {
        fill: #ededed;
      }

      .cls-214 {
        fill: #3f3a36;
      }

      .cls-215 {
        fill: #4e4a47;
      }

      .cls-216 {
        fill: #746e6c;
      }

      .cls-217 {
        fill: #9d938d;
      }

      .cls-218 {
        fill: #615b55;
      }

      .cls-219 {
        fill: #7f7977;
      }

      .cls-220 {
        fill: #746e6b;
      }

      .cls-221 {
        fill: #c7bcb3;
      }

      .cls-222 {
        fill: #5e5955;
      }

      .cls-223 {
        fill: #dbd7d4;
      }

      .cls-224 {
        fill: #aaa09b;
      }

      .cls-225 {
        fill: #94918f;
      }

      .cls-226 {
        fill: #706a68;
      }

      .cls-227 {
        fill: #8f8a87;
      }

      .cls-228 {
        fill: #a6a29f;
      }

      .cls-229 {
        fill: #3e3935;
      }

      .cls-230 {
        fill: #4a4743;
      }

      .cls-231 {
        fill: #9e948d;
      }

      .cls-232 {
        fill: #352f2c;
      }

      .cls-233 {
        fill: #c7bdb5;
      }

      .cls-234 {
        fill: #4b433f;
      }

      .cls-235 {
        fill: #9f9c98;
      }

      .cls-236 {
        fill: #413a35;
      }

      .cls-237 {
        fill: #69625d;
      }

      .cls-238 {
        fill: #6f6a64;
      }

      .cls-239 {
        fill: #afa39a;
      }

      .cls-240 {
        fill: #7b7879;
      }

      .cls-241 {
        fill: #aba097;
      }

      .cls-242 {
        fill: #cfc0b7;
      }

      .cls-243 {
        fill: #7b7775;
      }

      .cls-244 {
        fill: #484340;
      }

      .cls-245 {
        fill: #c0b9b4;
      }

      .cls-246 {
        fill: #807673;
      }

      .cls-247 {
        fill: #706865;
      }

      .cls-248 {
        fill: #645851;
      }

      .cls-249 {
        fill: #433935;
      }

      .cls-250 {
        fill: #908c87;
      }

      .cls-251 {
        fill: #534e4b;
      }

      .cls-252 {
        fill: #aaaaa9;
      }

      .cls-253 {
        fill: #c3b8b1;
      }

      .cls-254 {
        fill: #857e78;
      }

      .cls-255 {
        fill: #544d48;
      }

      .cls-256 {
        fill: #d9ccc3;
      }

      .cls-257 {
        fill: #f5f6f7;
      }
    </style>
  </defs>
  <g id="Layer_1-2" data-name="Layer 1">
    <g>
      <path class="cls-218" d="M142.36,32.36c-.78-.64-1.45-1.54-1.75-2.54.74.69,1.41,1.57,1.75,2.54Z"/>
      <path class="cls-218" d="M140.53,28.23c-.86-.55-1.6-1.24-2.15-2.15l2.15,2.15Z"/>
      <path class="cls-73" d="M64.33,6.28c.3-.93,1.05-1.64,2.02-1.97-.44.8-1.17,1.62-2.02,1.97Z"/>
      <path class="cls-208" d="M20.35,332.31c.74-1.85,2.14-3.29,3.94-4.1-.68,1.88-2.06,3.39-3.94,4.1Z"/>
      <path class="cls-73" d="M84.36.66c-1.82.51-3.53,1.73-6.05,1.73,1.15-2.21,3.83-2.52,6.05-1.73Z"/>
      <path class="cls-73" d="M62.35,8.32h-2.2c.73-.2,1.66-1.47,2.17-2.03l.03,2.03Z"/>
      <path class="cls-73" d="M70.34,4.27c.15-.87,1.08-1.9,2.02-1.9-.21.84-1.09,1.89-2.02,1.9Z"/>
      <path class="cls-184" d="M138.8,395.22c-6.57.86-10.05-.15-10.45-3.04-1.38-4.1,6.43-5.5,7.8-1.62.14-4.33,5.6-4.15,6.35.08l.29-2.8c8.64-2.9,17.4-5.45,26.3-7.65l5.36-7.44c-4,.32-4.03-1.28-.03-2.42l-5.42-2.11c-4.88.89-7.81-.39-8.78-3.82-1.24,3.38-3.43,3.67-3.82-.22-2.99-.59-4.32-3.18-4-7.77l1.61-21.29-3.68-3.29c-6.32,2.57-11.6,2.6-15.85.09-28.24-.3-56.55-.62-84.94-.97l.81-2.65c.03-3.2,2.39-2.47,4,0-.93-5.92,10.36-5.92,11.44-.19l1.81-3.99c18.42,1.32,37.04,1.37,55.86.17l2.89,4.01c.28-3.43,1.73-2.12,3.98-.01.64-1.87,1.34-1.88,2.09-.05,1.2-3.21,3.16-3.84,5.88-1.87-1.61-8.52-1.55-17.46.05-26-1.81-.36-1.76-.98,0-1.81.67-4.91,1.34-9.65,2.01-14.23.54-1.76,1.21-1.74,2.01-.04l1.04,40.66,13.66,4.83c5.34,13.21.43,26.8,4.35,30.15,3.65,3.12,15.91,1.92,17.33,13.41.87,7-1.79,12.9-8.94,14.58l-30.99,7.29Z"/>
      <path class="cls-63" d="M26.49,388.29c2.63-4.38,12.62-3.18,12.92,2.18-.17-3.62.75-3.45,2.76.51.24-1.79.86-1.8,1.83-.17,3.04-3.34,6.29-3.3,9.74.11,2.95-2.67,7.13-4.12,12.54-4.35,2.36-3.89,11.72-1.97,16.07-.27,3.66-1.57,10.23-1.56,14,.01-.14-1.69,2.53-1.36,3.38.26l21.73,4.82c3.84-1.72,6.14-1.45,6.89.79,2.45,2.87,6.83,2.5,10.45,3.04l-12.53.99c-21.61-.68-44.28-.66-65.89.47-18.96-1.79-39.26-2.67-56.21-11.78-2.8-3.48-1.51-5.78,2.14-2.69,4.84-2.89,18.5.5,20.18,6.08Z"/>
      <path class="cls-12" d="M60.15,8.31h2.2c1.75.6,1.72,1.3,0,2.1l-4.29,3.76c-.06,5.67-4.87,11.51-10.87,10.72,1.02,2.98-1.48,5.18-4.24,4.01,2.21,2.9,1.04,5.25-2.62,5.43,1.75.55,1.47,4.59.03,5.98l2.01.62c0,31.33,0,62.66.04,94.01l-2.05,1.37c1.56,5.19,1.56,10.8,0,16,1.75.57,1.72,1.24,0,2,.41,3.85,1.79,6.36,4.16,7.53l-3.95,2.54c5.27.91,4.95,2.71-.21,3.94,2.15,2.88,3.83,8.74,0,10l1.8,2.81c-.42,11.77-1.02,23.5-1.8,35.18,1.75.57,1.72,1.23,0,2,1.55,4.11,1.68,10.27,0,14,1.83,8.01,1.64,19.52.11,28-.6,1.75-1.31,1.72-2.11,0-1.72-4.19-1.59-11.6,0-16-1.75-65.82-1.74-137.45,0-203.99l-1.97-1.95c.13-10.53,16.83-28.16,23.77-30.06Z"/>
      <path class="cls-24" d="M38.35,260.31c1.98,1.94,3.38,9.76,0,12,1.81,17.02,2.39,34.26,1.73,51.71l4.21,4.29c-.81-3.64,4.97-2.99,6.05,0-.13.78.71,2,2.13,2l77.96-.06c2.07,0,3.39.83,4.04,1.68-.14,1.2-.3,2.14-.55,2.16-13.3,1.29-27.99,2.3-41.23,2.52-5.44.09-42.74-.81-44.59-2.06-.63-.43-1-1.23-1.3-2.14-6.22.91-12.78-.24-18.46-2.08-.6,1.31-1.27,1.28-2-.02-1.69-.68-1.64-1.4.06-2.18,1.29-1.11,3.97-2.28,5.67-1.87l2.72-2.21c.13-8.64.64-17.21,1.53-25.73l.02-54c.57-1.75,1.24-1.72,2,0v16Z"/>
      <path class="cls-107" d="M38.35,244.31h-2s0-203.99,0-203.99c.6-1.06,1.27-1.04,1.99,0v203.99Z"/>
      <path class="cls-229" d="M142.35,174.31c-.57,1.75-1.24,1.72-2,0-1.63-13.06-1.57-28.75,0-42-1.69-31.3-1.82-66.35,0-98.01.56-1.75,1.23-1.73,2.02-.02l-.02,140.03Z"/>
      <path class="cls-171" d="M26.35,330.31c1.32.59,1.3,1.27.02,2.04,2.23,2.61,1.06,3.42-2.08,1.88l-1.96,4.08c3.45-.14,3.53,3.36.26,10.5,4.77.46,4.79,3.99-.03,5.05l1.25,5.78c3.39,2.06,2.9,3.6-1.49,4.61-.65.84.03,2.22,2.04,4.15,6.2-2.88,13.65-2.7,22.33.54-.53,2.81.93,4.47,4.38,4.99,1.63-3.56,3.18-3.12,3.33.83-5.35,4.48-27.42,2.71-33.52-1.39-.53-.36-.49-1.56-.29-3l-2.15-2.13c-2.88.98-4.13-.6-4.36-3.64-3.28,2.08-4.5.96-2.16-2.31l1.92-.33c1.23-.67,2.07-.54,2.51.38l1.99-2.03c.74-8.07,1.39-16.05,1.97-23.95l.03-4.06,3.94-4.1,2.12-.08-.06,2.18Z"/>
      <path class="cls-193" d="M142.35,284.31l-2.01.04c-.76-10.87-1.42-22.21-2-34.04-1.75-.57-1.72-1.24,0-2,.67-16.07,1.34-32.07,2-48-1.74-7.61-1.65-18.2,0-26h2s0,110,0,110Z"/>
      <path class="cls-184" d="M126.27,396.21c-22.12,1.74-43.8,2.55-65.89.47.09-1.68,1.51-2.49,3.85-2.49l58.21.03c2.19,0,3.67.74,3.82,1.99Z"/>
      <path class="cls-140" d="M100.5,1.69c10.36,2.08,20.31,6.76,27.93,14.62-.6,1.69-1.29,1.66-2.06-.01.47,2.61-.3,2.65-2.32.14-2.39,2.53-6.16-1.26-5.4-4.19-2.2,1.44-4.53.68-4.19-2.1-5.75-.34-14.27-2.48-18.09-5.88l-2.01.05c-1.75-2.62.31-3.5,6.15-2.63Z"/>
      <path class="cls-181" d="M11.92,362.3c.49.68,1.36,2.17,2.16,2.31,2.27,5.68-.67,6.22-5.67,3.79.7,3.97-.39,5.71-4.45,6.28,3.79,1.88,5.11,3.96,2.34,7.54-1.37-.03-2.34,1.04-2.14,2.69-4.66-2.5-4.84-9.42-3.32-14.86,1.08-3.87,6.28-6.91,11.07-7.74Z"/>
      <path class="cls-67" d="M100.5,1.69c-2.36.17-5.05.48-6.15,2.63-.85,2.47-3.43,3-3.98,0-4.36,1.2-10.22,1.94-14.01.02l-2,1.97c-.5,3.02-3.66,3.54-4,0l-2,2.01c-.52,1.63-1.18,1.61-1.98.03l-2.01,1.91c-.45,1.78-1.12,1.8-2,.14v-2.1s-.03-2.03-.03-2.03c.57.09,1.51.19,2.01-.02l2.02-1.97,3.99-.04,2.02-1.9h5.95s6.05-1.72,6.05-1.72c5.61-1.57,11.14.03,16.14,1.04Z"/>
      <path class="cls-107" d="M32.09,326.26c5.35-9.11-.68-21.22,4.24-27.94l-.04,26.17c0,2.3-3.12,2.03-4.21,1.77Z"/>
      <path class="cls-208" d="M18.35,360.32l-.1-20.17c-.01-2.13.76-3.62,2.07-3.78-.05,7.72,1.79,16.58-1.97,23.95Z"/>
      <path class="cls-39" d="M38.34,40.32h-1.99s.02-1.95.02-1.95c.85.04,1.97,1.04,1.97,1.95Z"/>
      <path class="cls-181" d="M16.36,362.34c-1.12-.6-1.09-1.27.01-1.99.45-.29,1.42-.12,1.98-.04-.16.35-1.28,1.86-1.99,2.03Z"/>
      <polygon class="cls-208" points="16.36 362.34 13.84 361.97 16.37 360.35 16.36 362.34"/>
      <path class="cls-185" d="M150.32,331.84c1.76.42,1.71,1.06,0,1.89-5.99,4.4-13.52,5.57-22.59,3.51-11.1,1.6-22.22,2.62-33.38,3.07-2.13,3.21-13.6,3.27-15.98.02-1.76.94-3.1.93-4.02-.02-4.98-1.14-10.22-1.52-15.69-1.15-4.96,1.22-7.65.8-8.09-1.25-5.26.84-9.32.31-12.18-1.59-1.73-.62-1.69-1.28.06-2,1.39-1.79,4.18-2.43,8.37-1.92l37.12.42c5.87.07,9.06.15,14.63,0l35.92-.91c4.66-.12,12.05-2.44,15.85-.09Z"/>
      <path class="cls-173" d="M134.3,286.33c.7-1.71,1.4-1.64,2.09.13-.17,4.06.48,8.1,1.95,12.12-.17.18,0,1.3,0,1.81-1.59,8.59-1.64,17.38-.05,26,0,2.33-4.17,2.63-5.88,1.87.51-1.08,1.83-2.69,1.81-3.95-1.9-.97-2.6-3.47-2.11-7.51l-2.13-1.11c-.97,1.43-1.13,3.44-3.06,4.78-1.43-2.91-2.84-4.37-4.31-5.1s-4.33.56-5.76.68c-.36-1.35.68-3.76,1.12-4.78.64-1.5-.3-2.93-2.22-2.19l-3.53,1.36,2.12-8.13c-3.71.5-1.85-3.77,0-6,1.62-1.48,1.77-2.92.43-4.33-1.78-.38-1.74-1.02-.05-1.92,3.27-5.61,6.52-1.05,9.1,3.47,4.15,2.34,5.01.32,2.57-6.05l3.49-3.18c.9-2.39,2.38-1.71,4.41,2.04Z"/>
      <path class="cls-249" d="M142.5,390.65c-4.42-.16-4.59-4.75-.54-5.98-.99-3.55,3.54-3.65,6.54-2.54.08-1.01.25-1.84.7-2.05,6.1-2.82,19.4-7.58,25.24-7.31,1.76,4.77-.22,10.59-6.05,11.93l-25.9,5.96Z"/>
      <path class="cls-64" d="M156.39,364.19c1.77.31,1.74.87.04,1.67-15.68,6.9-15.19-23.82-3.94-29.62-2.24-.56-2.97-1.39-2.18-2.51v-1.89c1.16.72,5.3.25,5.37,3.1l.7,29.25Z"/>
      <path class="cls-49" d="M174.42,370.34c-11.04,5.48-21.38,10.17-34.02,10-5.68,2.92-8.84-2.13-1.55-4.24,1.21-2.06,3.01-3.97,5.41-5.73,6.12,4.07,12.13-1.24,15.96-5.95,5.09.23,10.82,1.87,14.2,5.93Z"/>
      <path class="cls-180" d="M174.42,370.34c-.15.74-.18,1.86.03,2.42-7.66,5.77-17.29,6-25.95,9.37-4.01.51-6.71-.09-8.1-1.79,3.53-4.23,12.17,1.79,21.98-7.67,3.51-3.38,8.06-3.7,12.03-2.32Z"/>
      <path class="cls-192" d="M136.14,390.57l-7.8,1.62c-9.68,2.01-19.61-1.58-28.62-5.61,1.63-1.94,6.45-1.76,8.59-.26,4.92-.73,10.29-.01,16.11,2.16-1.67-3.14,1.04-3.13,4.02-1.98-.24-3.32,5.75-3.39,8.21-1.83,4.22-.03,3.8,5.67-.52,5.9Z"/>
      <path class="cls-175" d="M160.21,364.41c-.98,10.57-12.32,7.73-21.36,11.69-.99,4.21-2.28,4.61-4.02.55-9,1.66-9.26-.8-.8-7.37l4.29,2.82c2.64-9.66,6.16-11.71,10.57-6.16,2.58.17,5.09.15,7.54-.07l-.04-1.67,3.82.22Z"/>
      <path class="cls-75" d="M140.34,284.35c-.02,4.74,1.19,10.06-2.01,14.23-2.67-3.2-2.22-9.05,0-12.27-1.63-.46-.94-2.55,0-4l-2.03-.9c.65-6.61,1.33-12.97,2.03-19.1-1.95-.55-1.1-4.08,0-6-3.13.26-2.81-4.93,0-6,1.34.22,2.11,1.71,2.1,3.86l-.1,30.18Z"/>
      <path class="cls-5" d="M138.29,326.39c-3.11-6-3.05-19.81.05-26l-.05,26Z"/>
      <path class="cls-127" d="M46.41,324.11c.31-5.77,4.68-5.15,5.93.19,1.05,1.12,1.72,2.51,2.01,4.01h-4s-6.05,0-6.05,0c-2.02-.8-3.98-2.25-2.91-4.27.47-5.55,2.15-5.52,5.02.07Z"/>
      <path class="cls-167" d="M140.11,384.76c.24-1.7.88-1.66,1.85-.09l.54,5.98-6.35-.08.52-5.9c.77-1.92,2.17-1.64,3.45.09Z"/>
      <path class="cls-199" d="M130.33,328.31h-3.98s0-4,0-4c.59-1.15,1.25-1.12,1.97,0,.17,1.57,1.17,2.81,2.01,3.99Z"/>
      <path class="cls-104" d="M16.34,378.28c2.42-1.72,6.41-.37,8.04,1.93l3.97,2.4c-.45-3.11,1-3.1,2.38-.11,2.55,4.18.11,5.99-4.23,5.8-7.01-1.19-14.09-2.14-20.18-6.08-2.04-2.03-2.76-4.63-2.34-7.54,1-5.85,11.05-.17,12.38,3.6Z"/>
      <path class="cls-91" d="M54.3,386.34l2.02-2.03c.6-1.28,1.27-1.25,2.01,0,2.41-.83,6.94-.42,7.95,2.26-5.78,9.72-17.73,3.82-22.29,4.24.12-3.78-.49-3.73-1.83.17l-2.76-.51c-6.73-1.66-5.92-7.64.89-6.32,4.56-1.55,16.07-1.88,12.9,2.99l1.11-.8Z"/>
      <path class="cls-17" d="M40.29,384.15c-1.65,1.67-1.77,4.5-.89,6.32l-12.92-2.18c.1-2.66,2.03-4.54,4.23-5.8.32-1.77.88-1.74,1.68-.04,2.29-1.94,7.06-1.49,7.88,1.7Z"/>
      <path class="cls-16" d="M74.22,382.71c3.11-.11,5.83.47,8.17,1.74,1.75.44,1.69,1.07-.04,1.85l-16.07.27c-2.91.05-5.79-.16-7.95-2.26-1.02-.92-.34-1.57,2.05-1.96,1.08-3.37,11.42-2.15,13.83.36Z"/>
      <path class="cls-231" d="M96.34,384.33c1.75.56,1.72,1.22,0,1.99h-14s.04-1.86.04-1.86c3.5-1.69,10.36-1.84,13.95-.12Z"/>
      <path class="cls-115" d="M108.35,384.31c1.74.6,1.7,1.27-.03,2.02l-8.59.26-3.38-.26v-1.99c2.31-1.89,9.36-1.93,12-.02Z"/>
      <path class="cls-145" d="M43.99,390.81l-1.83.17-.96-2.66c-.91-2.55,1.13-2.31,2.17-2.24,1.61.12,2.76.58,2.99,1.29.7,2.12-1.04,3.41-2.37,3.44Z"/>
      <path class="cls-76" d="M44.36,40.31c5.98.1,5.61,8.92.1,10.06l2.98,2.27c1.55,7.8,3.14,27.43-3.18,31.8l4.02,2.23c1.59,11.06.33,20.89-3.79,29.52,1.54.2,3.85.63,4,1.72.81,6.05.75,21.62-.06,27.68l-4.01,2.74,3.95,1.93c2.47,2.21.95,5.02-2.02,6.05-1.05,1.86-3.33-.05-4-2h-2s0-2,0-2c1.54-5.21,1.54-10.77,0-16V40.32c.57-1.75,1.24-1.72,2,0,.67-1.67,1.34-1.68,2.01,0Z"/>
      <path class="cls-46" d="M62.5,16.06c4.71.47,7.58,11.68,2.16,13.51-1.95,6.82-7.66,12.42-8.53,2.97-1.53-1.3-2.84-2.16-4.58-.86,1.06,1.25.26,1.86-2.4,1.83.39,4.36-4.58,4.59-6.79.8-.55,1.75-1.23,1.74-2.04.03-.01-2.56.59-4.11,2.62-5.43,2.91.27,4.33-1.07,4.24-4.01,2.97-4.14,6.02-8.76,10.87-10.72,1.77-.9,3.25-.27,4.45,1.88Z"/>
      <path class="cls-7" d="M46.22,268.27c-.77,3.5-3.23,3.91-3.85.02-3.24.64-3.23-5.43-1.9-7.98l-.11-28c.57-1.74,1.24-1.72,2.01,0,1.28,8.88,1.83,18.22,1.65,28.01,2.61,3.42,3.34,6.06,2.21,7.94Z"/>
      <path class="cls-107" d="M42.37,268.29c1.86.49,1.82,1.17,0,2.02.27,2.28-.4,2.95-2.01,2-.57,1.75-1.24,1.72-2,0v-12s2.11,0,2.11,0l1.9,7.98Z"/>
      <path class="cls-223" d="M40.35,152.31v-16c3.09,4.26,3.09,11.74,0,16Z"/>
      <path class="cls-224" d="M42.38,222.31c1.66,1.97,1.54,7.67-.01,10.01h-2.01s0-14.01,0-14.01c1.74.63,2.02,2.31,2.02,3.99Z"/>
      <path class="cls-33" d="M47.18,24.89c3.52,3.8-.48,7.82-4.24,4.01,1.37-.89,3.26-2.65,4.24-4.01Z"/>
      <path class="cls-182" d="M42.35,36.32c1.08,1.42,1.55,3.03,0,4h-2s-.03-5.98-.03-5.98l2.04-.03c1.74.58,1.72,1.25,0,2.01Z"/>
      <path class="cls-73" d="M58.06,14.17c-.12-1.81,2.59-3.64,4.29-3.76,4.32,2.77-.29,5.5-4.29,3.76Z"/>
      <path class="cls-51" d="M40.63,298.49c2.85,2.35,4.08,4.95,3.72,7.79,1.1.75.99,1.42-.24,2.03,4.49,1.12,4.84,6.59.23,7.1-.06,3.8-1.04,6.67-2.94,8.63,1.98,1.1,2.35,3.04,2.91,4.27-1.29.13-3.07-.12-4.02-.9-1.29-1.05-1.64-2.83-1.66-5.03l-.27-50.07h2s2.05,2.17,2.05,2.17l-1.77,24.01Z"/>
      <path class="cls-208" d="M46.81,332.41c-2.2.43-6.03,3.24-8.37,1.92-.72,1.24-1.43,1.23-2.11-.04l-5.96-1.95c-.59,1.74-1.27,1.71-2.02-.02-1.31-.58-1.28-1.24,0-1.97,6.11.1,12.19.07,18.46,2.08Z"/>
      <path class="cls-181" d="M28.35,332.31c-.52,1.76-1.19,1.75-1.98.04l-.02-2.04,2,.02v1.97Z"/>
      <path class="cls-218" d="M140.34,132.32c-.57,1.75-1.23,1.72-1.99,0l-2.04-.61c-.02-31.95-.13-63.9-.34-95.87l2.25-1.37,2.13-.17v98.01Z"/>
      <path class="cls-88" d="M140.34,174.31v26c-.57,1.75-1.23,1.72-2,0-1.39-7.46-2.26-16.76-2.01-24.74.01-.44.89-.86,2.01-1.26-2.26-6.46-3.93-16.39,0-22-3.59-2.92-3.14-16.44.01-20h1.99s0,42,0,42Z"/>
      <path class="cls-68" d="M34.4,338.28c3.01-.91,8.37-1.01,9.76,1.84,6.35-1.86,7.91,1.82,4.67,11.04,2.52,7.41,3.25,14.32,2.2,20.74-2.43-4.45.74-3.88.05,2.04l-26.72-5.53c-1.43-.83-1.48-1.56,0-2.4,2.4-3.84,4.48-7.8,6.24-11.89-1.65.11-1.76-.43-.46-1.57l-1.56-8.94c-8.12-7.09-.29-13.28,5.82-5.33Z"/>
      <path class="cls-72" d="M50.57,337.91l21.74.57c1.36.04,2.07.94,2.04,1.83-1.28,1.69-6.07,1.5-8.01.03-3.26,2.74-9.18,2.35-13.29.87l1.79,2.87c-2.29,5.81-2.05,14.83,3.74,17.45,1.67,5.54,5.05-4.46,4.79-9.11-.36-6.62.17-11.42,5.01-3.73,1.54.06,2.76.18,2.84.55.82,3.9.48,13.73-1.61,16.69.49,4.66-.48,7.4-2.92,8.2-4,.02-8.41-.71-12.28.63l-3.33-.83c-.94-.79-2.01-1.29-3.76-1.87-1.42-.47,1.2-3.18,2.37-4.22-5.99-14.2,1.13-24.55-5.52-27.73-.63-3.45,3.46-2.93,6.41-2.22Z"/>
      <path class="cls-79" d="M28.35,332.31l2.02.02,5.96,1.95c.49-.1,1.64-.23,2.11.04l-.06,2c.21,1.33-1.12,1.98-3.98,1.97-2.9-.7-5.07-1.82-8.02-1.37,5.59,4.49,3.92,10.92,3.75,15.63-7.45,1.37-3.9-8.97-3.83-8.31.33,3.53.16,5.7-3.71,4.57l-.26-10.5,1.96-4.08c.58-.46,1.04-1.86,2.08-1.88l1.98-.04Z"/>
      <path class="cls-6" d="M30.13,352.55c.29.51.5,1.06.46,1.57-2.86,12.44-6.63,12.35-8.04-.25l.03-5.05c1.22-1.5,1.79-3.7,2.54-6.6,3.84,2.61,3.17,7.09,5,10.33Z"/>
      <path class="cls-79" d="M30.6,354.12l-.54,8.73c-.12,1.93-2.73,3.69-5.7,3.16-1.8.72-2.47.14-2.04-1.75l.24-10.39c1.48,1.93.57,4.75,4.31,7.33,1.11-3.32,1.89-5.56,3.72-7.08Z"/>
      <path class="cls-208" d="M22.33,338.31c-.04-1.77.69-3.07,1.96-4.08.48,1.77-.21,3.56-1.96,4.08Z"/>
      <path class="cls-181" d="M24.36,366.02v2.4c-1.06-.22-2.13-1.19-3.39-1.97s-.85-2.48,1.36-2.18c.49.8,1.17,1.44,2.04,1.75Z"/>
      <path class="cls-168" d="M138.34,248.31v2s0,6,0,6c-.26,1.29-.48,2.16-2,2-.57,1.75-1.24,1.72-2,0-4.39.33-4.26-5.34.07-5.98l.04-2.07c-7.28-1.27-4.46-6,.2-9.94-5.94-3.56-2.65-19.02-.13-24.11-1.03-7.7.24-11,3.81-9.9,1.62,13.09,1.55,28.45,0,42Z"/>
      <path class="cls-75" d="M138.34,248.31v-42c-5.31-.64-5.08-2.48,0-4-.92-.61-.9-1.28,0-2h2s-.03,45.91-.03,45.91c0,1.38-1.16,2.21-1.97,2.09Z"/>
      <path class="cls-74" d="M114.45,10.15c.92,1.8-.45,2.52-4.12,2.18-1.23,4.42-6.58,2.01-5.84-2.2-5.79,1.32-9.83.71-12.13-1.81-2.56-1.46-1.22-2.81,4.01-4.04,6.33-.14,12.42,3.03,18.09,5.88Z"/>
      <path class="cls-239" d="M124.04,16.44c2.68,1.77,4.26,6.33,1.45,8.14-4.52,3.76-12.96-5.14-9.4-9.92-3.02-2.64-1.02-3.24,2.55-2.4l5.4,4.19Z"/>
      <path class="cls-177" d="M94.35,4.32l2.01-.05-4.01,4.04c-.61,3.72-7.02,5.36-7.87.33-.67,1.24-1.39,1.19-2.14-.06-1.75-.64-1.72-1.38,0-2.22,2.44-.93,5.11-1.61,8.02-2.04h3.98Z"/>
      <path class="cls-111" d="M114.45,10.15l4.19,2.1-2.55,2.4c-2.29,5.26-6.49,3.27-5.75-2.33.72-1.54,2.38-2.18,4.12-2.18Z"/>
      <path class="cls-83" d="M74.35,6.32c.67-.99,1.34-.93,2,.12.5-1.79,4.59-1.53,6-.07v2.22c-.71,4.59-10.76,7.23-14.57,5.44.49,1.73.05,1.74-1.22.24l-2.49,1.85c-.28,1.76-.81,1.68-1.56-.07l-3.03.22c-.64.05-1.35-1.1-1.42-2.1,2.09-.58,4.26-1.73,4.29-3.76l2-.14,2.01-1.91c.51-.21,1.42-.11,1.98-.03l2-2.01h4Z"/>
      <path class="cls-81" d="M90.36,4.33c-2.19,2.11-5.11,2-8.02,2.04l-6,.07c-1.1-.63-1.07-1.33,0-2.09l14.01-.02Z"/>
      <path class="cls-73" d="M64.35,10.28c.45-.74,1.18-1.57,2.01-1.91-.39.75-1.24,1.86-2.01,1.91Z"/>
      <path class="cls-73" d="M68.35,8.33l2-2.01-2,2.01Z"/>
      <path class="cls-73" d="M76.35,6.44l-2-.12c.11-.91,1.07-1.97,2-1.97v2.09Z"/>
      <path class="cls-189" d="M137.95,33.02l.27,1.45.14,97.84v20c-.87,3.54-1.59,5.45-4.16,2.07-1.79-.51-1.81-1.25-.15-2.2-6.97-1.98-3.15-11.46.26-16.16-1.55-.19-3.73-.57-4.01-1.78-1.24-5.43-.07-16.83,1.71-22.34l-1.91-23.51c-.13-2.44-.41-15.18.11-15.87.61-.82,1.85-1.16,3.27-1.37-4.06-6.74-5.46-12.34,1.24-16.83l-4-2.08c-.28-6.39-.18-12.68.29-18.87.37-.41,2.87-2.61,4.15-2.91,1.03-.24,2.22,1.45,2.81,2.55Z"/>
      <path class="cls-201" d="M52.58,260.94c.11-1.72.67-1.76,1.66-.25,9.27,9.32-4.95,23.7,1.33,44.58,2.8.32,5.62-.21,7.06,3.22-4.42-.27-9.67,1.08-9.86,4.24-6.48,2.53-6.6-1.09-5.55-6.61-6.4-4.87-4.93-11.11-2.8-17.83.5-6.54,1.77-13.13,3.81-19.77-5.53-12.96-6.82-27.01-3.9-42.16,6.34-1.28,8.68,4.08,7.03,16.07,2.63,6.72,1,12.77-1.02,19.62-.05.16.41-2.94,2.25-1.11Z"/>
      <path class="cls-212" d="M78.35,160.31l2.04.9c-.7,6.54-1.38,12.9-2.04,19.1,1.71,30.64,1.69,64.93-.04,95.98.59,2.95-2.83,7.5-5.97,7.99-.25,1.19-.59,2.02-1.95,2.03,1.55.55,1.5,1.24-.02,2.05-1.57-.79-2.2-2.49-2.37-4.39l5.78-9.83c.94-.53,1.49-1.09,1.71-2.19.86-4.29.18-20.35-3.14-22.7,4.11-1.24,4.38-5.62.76-7.7,3.4-2.37,3.64-7.01-.76-8.23,2.92-1.7,3.95-5.11,3.09-10.24-4.35-4.3-4.37-7.16-.06-8.58-.54-14.4-.22-28.46.97-42.19-.69-36.44-1.03-54.65-1.03-54.65l1.03-1.34c.57-1.75,1.24-1.72,2,0,.99.03,1.92.16,2.67.6,1.75,1.03.64,36.28.33,40.55l-3,2.85Z"/>
      <path class="cls-20" d="M73.77,274.14c1.76-2.99,2.08-12.29-1.24-13.38-2.15-.67-2.19-1.49-.15-2.45-1.04-.88-.43-1.56,1.84-2.02-2-2.4-4.75-3.48-8.25-3.22-2.28-2.11-1.98-4.91.92-8.42l-.49-4.47c1.44-1.78.6-3.91-2.51-6.4.51-3.11,3.27-4.73,8.3-4.84l2.22-.64c-4.16-1.01-4.17-2.9-.03-3.99-2.81.25-3.45-1.7-2.02-3.98-4.31,3.14-9.59,1.63-14.03-.02-5.31-.68-5.07-2.56.02-4.1,1.45-5.14,5.39-5.8,11.83-1.96,1.55,0,2.96-.67,4.22-1.99-5.32-.55-5.12-2.37-.06-3.94-6.1-1.49-5.16-3.35,0-6.01-1.75-.57-1.72-1.24,0-2-5.31-.64-5.08-2.48,0-4-1.75-.57-1.72-1.24,0-2-5.96-.3-4.94-3.86,0-6-5.52-.87-4.84-1.77,0-4v-4c-5.31-.64-5.08-2.48,0-4l-.07-4.12c.79-1.78,1.48-1.74,2.07.12v99.81c0,1.61-1.15,2.45-2.57,2.02Z"/>
      <path class="cls-19" d="M44.42,288.29l.08,12.92c6.55-.5,2.46,7.34,8.27,11.52-.1,1.69-.99,2.41-2.39,3.68-1.56,2.37-2.88,4.93-3.96,7.69-.52-.02-1.43-.66-2.01-1.08-.81-.58-2.32-.22-3.01,1.01l2.71-15.73c1.2-.63,1.32-1.2.24-2.03-2.11-1.29-5.1-5.43-3.72-7.79.21-5.69.82-11.06,1.8-16.12,4.1-1.62,4.68,3.05,1.99,5.92Z"/>
      <path class="cls-2" d="M114.72,290.06l.05,1.92c2.08.91,1.34,2.97-.43,4.33v6s-3.02,1.89-3.02,1.89c-.44.28-1.65-.96-1.45-1.95.24-.5.37-1.3.34-1.97.82-1.61,1.42-3.33,1.43-5.16.03-6.35.14-14.99,3.08-5.06Z"/>
      <path class="cls-139" d="M59.14,260.54c2.03,1.8,7.57,3.45,13.39.21,4.2-2.22,4.39,10.59,1.24,13.38,3.58,1.28-2.43,9.88-5.78,9.83-6.05,26.59,25.27,44.43,39.63,18.54l2.25-.26c1.72-1.37,3.18-1.06,4.48.06,5.11,2.33,4.4,5.05-2.12,8.13,2.91,6.51-10.07,14.13-16.09,15.71-10.73-1.91-20.84-1.26-30.35,1.98l-11.44.19c-3.21-.98-4.67-1.55-2.01-4.01-4.06-.1-5.7-5.7-1.97-7.89-3.1-3.82-2.27-4.24,2.39-3.68-1.22-6.45-2.17-13.05-2.84-19.81,1.68-10.88,3.12-21.62,4.32-32.23.43-1.95,3.71-1.74,4.9-.15Z"/>
      <path class="cls-55" d="M129.99,315.69l2.08-.14s.72,2.92,2.16,8.75c3.37,1.61,1.55,3.5-1.81,3.95-.55-.25-1.58.05-2.09.05-2.59-.37-3.78-1.9-2.01-3.99-.65-1.18-1.24-1.09-1.97,0,1.82.92,2.37,3.47,0,4.01l-60.55-.19c2.28-2.46,1.39-5.47-.15-9.94,3.95.85,4.89,3.41,6.95,5.48,7.78-2.47,14.82-1.56,23.1.41l16.54-13.64c2.07-4.96,4.55-6.3,7.43-4.01,1.94,4.01,5.38,7.1,10.33,9.26Z"/>
      <path class="cls-21" d="M102.03,274.65c6.62-4.82,15.47,11.92,9.22,14.78.85,3.9.5,7.51-1.04,10.84,1.81.7,1.63,1.36-.34,1.97-3.35,7-8.03,12.49-14.55,14.43-8.61,2.56-15.06-.25-21.73-5.66-8.67-7.04-10.83-18.13-5.59-27.04,2.18-1.14,2.97.32,2.37,4.39,2.24.31,1.31,5.91.02,7.94,2.93,5.13,6.23,9.83,9.9,14.1l4.08,1.9c.55-1.75,1.22-1.73,2-.02,3-1.6,8.31-2.16,12.08-1.95,6.49-7.38,8.69-14.44,7.54-24.23-3.13-2.46-7.54-6.21-7.64-9.91-1.71-1.66-1.49-7.51,0-9.89,2.4-.74,3.63,2.05,3.69,8.34Z"/>
      <path class="cls-29" d="M72.53,260.76c.05,2.75-.71,5.52-3.15,7.3-4.31-6.63-12.75-1.93-10.25-7.52,2.28-1.89,10.26-1.7,13.39.21Z"/>
      <path class="cls-10" d="M50.37,316.42c1.21,2.48,1.77,5.17,1.97,7.89l-5.93-.19c-.54-1.76-2.16-4.73-1.37-7.4.74-2.52,4.49-1.8,5.33-.29Z"/>
      <path class="cls-152" d="M61.7,326.3c-2.78-.18-5.19-1.79-7.35-3.09,2.91-2.16,6.75-1.51,7.35,3.09Z"/>
      <path class="cls-40" d="M150.32,333.73c1.34-.04,2.09,1.37,2.18,2.51-1.43,4.94-2.51,5.09-4.18.06l-2.08,1.91c1.84,6.37-9.24,8.72-9.75,1.79-4.79-.42-9.49-.34-14.11.24-4.47,2.37-9.82,2.39-16.04.06-2.65,1.16-10.57,2.75-12,.01.46-1.64,3.34-2.66,5.76-2.27,9.37,1.51,17.31-.67,26.23-1.45,8.54-.75,16.61.37,23.99-2.85Z"/>
      <path class="cls-27" d="M94.35,340.31h12c1.76.53,1.75,1.22.05,2.05-.63,1.35-1.33,1.32-2.1-.01-2.16.84-4.82,1.49-7.96,1.96-.31,2.25-3.96.94-6,0h-2c-.6,1.15-1.27,1.13-2,0l-3.55.2c-5.12,4.92-7.97,4.9-8.57-.05-1.73,5.41-3.49,5.65-5.47.19-3.77.99-4.02-.57-.39-2.37,3.13-.83,6.47-1.48,10-1.95l15.98-.02Z"/>
      <path class="cls-191" d="M38.39,336.32c4.11-.11,8.71-.93,12.18,1.59-2.59-.07-4.4,1.57-6.41,2.22-2.88.93-6.92-1.15-9.76-1.84.63-1.79,2.23-1.92,3.98-1.97Z"/>
      <path class="cls-35" d="M74.35,340.31l4.02.02c-2.76,2.4-6.52,1.91-10,1.95-.55,1.75-1.23,1.74-2.02.03-1.75-.55-1.72-1.21,0-1.97l8.01-.03Z"/>
      <path class="cls-90" d="M134.23,324.31c-1.82.74-3.55-.31-3.64-1.49l-.59-7.13c.9-1.32,2.09-2.49,4.12-3.52l.12,12.14Z"/>
      <path class="cls-156" d="M128.31,324.32h-1.97c-.33-2.37,2.33-2.37,1.97,0Z"/>
      <path class="cls-95" d="M127.96,222.59c8.5.78,2.58,16.51-1.95,19.77l.31,6.35c3.86.67,3.85,2.29.07,3.49l1.89,2.17c4.15-.56,4.33,2.59.27,3.78l-.22,2.26,3.44,3-1.88,20.87c.16,3.02,2.51,7.01,1.36,11.07-1.25,4.43-9.32,3.55-11.31-.45-1.36-2.74-3.16-4.46-5.21-4.85-1.62-3.39-4.38.31-2.24,1.87.52,4.34-.27,6.69-2.27,8.35,1.45-9.66-.14-19.44-8.18-25.62-1.32-5.39-1.86-10.86-1.6-16.43,0,0,8.11-.09,24.34-.27-6.28-.52-12.4-1.04-18.37-1.58-3-1.53-2.68-3.03.74-3.38l3.59-3.52c13.54,6.26,6.56-14.41,5.6-13.8-4.83,3.03-9.09,5.02-5.96-1.35-1.75-.55-1.73-1.22-.02-2.01-2.59-2.17-3.94-3.67,0-4-4.07.02-4.18-3.16-.14-4.05.2-1.67.81-1.66,1.78-.15l2.36-1.76c.96-5.73,5.18-5.57,6.79-.09,2.1-3.59,3.69-4.19,4.78-1.81,2.73-.55,3.52-.31,2.03,2.14Z"/>
      <path class="cls-149" d="M134.13,262.17c2.35,4.19,1.4,12.45.46,18.26,2.66.5,1.17,3.86-.3,5.9.44,1.37.62,3.19-1.65,3.99-.05-3.31-1.11-4.77-2.76-6.03-9.97-8.73,3.11-16.55-1.57-23.87,2.55-5.3,5.18-4.1,5.82,1.75Z"/>
      <path class="cls-217" d="M138.34,282.31l-1.96,4.15-2.09-.13c.03-1.62-.5-4.52.3-5.9.46-6.21,1.02-12.24,1.69-18.07.55-1.76,1.24-1.75,2.07-.05v20Z"/>
      <path class="cls-106" d="M138.33,298.58c-5.74-2.3-3.04-7.49-1.95-12.12.42-1.78,1.08-1.81,1.96-.15v12.27Z"/>
      <path class="cls-95" d="M114.35,296.31l.43-4.33c2.28-.63,3.6,1.69,1.74,3.28-.57.49-.94,1.22-2.17,1.05Z"/>
      <path class="cls-174" d="M138.85,376.09l-.43,3.11c-.08.6,1.13,1.32,1.98,1.13,2.78-.62,6.54-.77,8.1,1.79l-6.54,2.54c-.48.19-1.32.15-1.85.09-8.48-.69-17.07-1.5-25.78-2.44-4.35-2.28-1.93-3.04,2.02-4,6.16.07,12.4-.86,18.48-1.68l4.02-.55Z"/>
      <path class="cls-77" d="M152.5,336.24c.54,6.34-7.56,12.95-2.35,26.27,1.21,3.09,3.94,3.73,6.29,3.35-2.4,3.13-6.71,4.6-10.95,4.17,1.83-3.97-1.99-5.01-3.27-2.37.08,2.19-.76,3.28-1.31,3.89-.68.77-1.92.39-2.58.55-2.57-2-.28-4.09.48-6.09,2.04-5.37-4.53-9.01-5.15-13.24l-1.49-10.46c-1.63-2.24-.19-3.01,4.33-2.31,2.68,1.1,7.11-.98,9.75-1.79l2.08-1.91,4.18-.06Z"/>
      <path class="cls-253" d="M140.11,384.76c-.93-.1-2.54-.29-3.45-.09l-8.21,1.83c-3.47.27-6.97-.48-10.06-2.19.62,3.41-4.18,1.98-6.04-.02-3.88.03-3.93-1.5-.14-2.61.98-2.52,2.21-2.13,2.12.64l23.98.04c1.62,0,2.42,1.18,1.81,2.4Z"/>
      <path class="cls-221" d="M112.35,384.29l6.04.02c3.68.52,5.7,1.91,6.04,4.17-3.73,4.73-6.04-2.46-16.11-2.16l.03-2.02c.36-2.02,3.05-1.9,4-.02Z"/>
      <path class="cls-256" d="M128.45,386.5c-1.1.24-3.1,1.34-4.02,1.98-2.45-.89-4.63-2.16-6.04-4.17,3.35.01,7.62-.86,10.06,2.19Z"/>
      <path class="cls-36" d="M138.34,262.31l-2.07.05c-1.74-.49-1.43-2.97.07-4.05l2-2v6Z"/>
      <path class="cls-78" d="M138.34,286.31l-1.96.15c.35-1.51-.12-3.53,1.96-4.15v4Z"/>
      <path class="cls-17" d="M28.35,382.61c-1.77.09-4.03-.45-3.97-2.4,1.72.41,3.34.44,3.97,2.4Z"/>
      <path class="cls-233" d="M54.25,382.37c-.26-3.27,5.39-3.01,6.14-.02l-2.05,1.96h-2.01s-2.02,2.02-2.02,2.02c.4,1.42.6,3.1-1.49,4.12-.62-4.29-3.13-6.18-5.56-6.27-2.24-.09-4.98.67-6.97-.03-1.18-4.43,10.08-3.58,13.95-1.78Z"/>
      <path class="cls-16" d="M54.3,386.34c-.11-1.34.9-2.04,2.02-2.03l-2.02,2.03Z"/>
      <path class="cls-241" d="M54.25,382.37c-4.5.02-10.58-1.62-13.95,1.78-2.45-.88-5.02-1.77-7.88-1.7l-.06-2.14c2.27-1.69,22.09-1.43,22.8-.51.3.39-.19,1.4-.91,2.58Z"/>
      <path class="cls-174" d="M112.21,381.68l.14,2.61-4,.02-12,.02-13.95.12c-3.31.03-5.43-1.67-8.17-1.74l37.99-1.03Z"/>
      <path class="cls-161" d="M60.69,183.95c.49,1.14-.3,1.22-2.38.25.75,1.45.7,2.93-.15,4.44,4.69,1.32,9.59,1.3,14.19-.33.57-1.75,1.24-1.72,2,0v6c-1.36.68-1.36,1.34,0,2v4c-1.35.96-1.45,1.65,0,2v6.01c-1.1,1.34-1.09,2.66.06,3.94,0,.71.26,3.19-.54,3.51l-15.5.45c-.22,1.79-.81,1.8-1.75.16-1.65-8.47-3.85-17.85-12.24-20.06l.47-9.24c3.79,1,6.1-1.82,6.58-5.33,4.44-2.93,5.19-6.22,5.49-12.47,3.32,4.57,4.25,9.51,3.78,14.69Z"/>
      <path class="cls-103" d="M56,230.34c3.29,1.05,3.22,2.28-.38,2.38,4.14,4.74,6.18,11.33,6.13,19.79,4.66,2.7-2.67,4.36-5.24,1.54-.91-.76-1.65-.76-2.22.01.52,1.24-.28,1.98-2.4,2.22,1.83.19,1.96.87.45,2.02,3.48.21,3.73,1.53.25,2.63-.72,1.38-2.59,2.36-3.91,2.15,2.85-7.77.95-11.41-.58-16.64-2.66-9.05,2.28-16.89-3.76-20.09-1.63-.55-1.41-2.98.02-4.05l.26-7.61c5.79-2.87,14.2,11.47,11.39,15.64Z"/>
      <path class="cls-114" d="M76.35,116.32v56c-.49-.04-1.58-.28-2.07-.12-5.29-.7-5.04-2.49.07-3.88v-10c-1.75-.57-1.72-1.24,0-2-5.31-.64-5.08-2.48,0-4v-4c-5.28-.58-5.07-2.46-.03-4.03-.04-4.1.83-8.63-1.92-12.01-1.76-.51-1.76-1.17-.06-1.99.86-.62,1.84-1.82,1.84-2.98s-.97-2.34-1.84-2.98c-1.74-.58-1.71-1.26.01-2.02-3.84-3.25-2.78-5.09,1.99-6.01-1.75-.57-1.72-1.23,0-2-5.72-.13-5.46-4.65,0-6-1.75-.57-1.72-1.24,0-2-5.94-.57-5.33-3.55,0-6-1.75-.56-1.73-1.23-.01-2-4.87.67-4.88-2.02-.02-8.07-3.99-2.64-5.18-7.99-3.55-16.04-1.45-5.36-.76-9.27,2.09-11.71-3.96-.48-4.08-1.34-.13-2.41-4.09-4.06-2.1-7.98,1.33-11.94-7.06-.61-3.98-9.59,2.29-5.83,1.66,22.82,1.69,50.25,0,74Z"/>
      <path class="cls-204" d="M56.61,216.38l1.75-.16-.02,4.1c1.75.56,1.73,1.23.01,2,5.55.69,5.89,6.54.34,8.06-.16,2.73-1.39,2.47-2.7-.04.04-.69.07-2.62-.67-2.93l-2.88-1.2-7.84-11.51-.03-12.37c7.64-8.96,10.84,7.14,12.03,14.05Z"/>
      <path class="cls-195" d="M56.61,216.38c-5.09.47-.34-12.59-12.03-14.05l-.21-6.01c1.27-1.53,3.38-2.43,4.98-2.25,4.12.47,10.58,15.11,7.26,22.31Z"/>
      <path class="cls-11" d="M44.33,226.36l.9,33.36c.07,2.57,6.87,6.32,4.54,10.35-6.45,11.16,1.8,15.97-5.36,18.23-.01-2.24.25-4.84-1.99-5.92-1.52-2.17-1.12-7.89,2.03-8.07-1.24-2.09-.83-5.5,1.76-6.03-1.05-2.82-3.83-5.82-3.83-9.97l-.02-25.98v-10.01s1.99,0,1.99,0l-.02,4.05Z"/>
      <path class="cls-55" d="M72.35,184.31h2s0,4,0,4h-2c-4.54,1.65-9.55,1.67-14.19.33-1-.71-2.39-1.15-1.81-3.27.18-.66.96-1.06,1.96-1.17,4.58,1.41,9.44,1.63,14.04.11Z"/>
      <path class="cls-144" d="M58.3,158.68c4.72-1.43,11.13-1.27,16.04-.36,1.72,1.94,1.48,7.59,0,10-2.24,1.77-2.26,3.06-.07,3.88,1.71.49,1.51,2.99.07,4.12-1.09,1.34-1.1,2.68,0,4,1.65.51,1.45,2.94,0,4-.57,1.75-1.24,1.72-2,0-3.69,1.08-8.65,2.1-11.66-.36l-3.89-2.23c-3.93,4.99-8.07,9.85-12.43,14.6,5.77-.04,5.57,4.51.21,6.01,4.79,2.61,6.3,10.94.03,12.37,2.42,4.62,2.33,7.15-.26,7.61-.57,1.74-1.23,1.72-1.98,0l-2.02-3.99v-2c.89-11.57,1.46-23.2,1.71-34.91l2.11-1.14c-1.26-3.79-2.54-7.77-3.82-11.95l.21-3.94,1.37-4.85c.57,1.71,2.44,2.22,5.61,1.52,3.3-5.84,6.88-6.63,10.75-2.37Z"/>
      <path class="cls-224" d="M44.18,180.27c-4.3,15.3.84,28.72-3.83,36.05v-38c1.7-4.5,3.61-2.24,3.83,1.95Z"/>
      <path class="cls-245" d="M44.18,180.27l-3.83-1.95v-10c4.46,1.66,5.04,7.65,3.83,11.95Z"/>
      <path class="cls-228" d="M74.35,156.31v2c-5.41,1.33-10.72,1.48-16.04.36l.05-2.36c2.15-3.28,13.45-3.09,16,0Z"/>
      <path class="cls-52" d="M74.35,176.31v4c-1.67.52-7.78.96-8.06-1.99.29-3,6.37-2.53,8.06-2.01Z"/>
      <path class="cls-222" d="M74.35,168.31l-.07,3.88c-1.94.63-7.52,1.1-8-1.91.27-2.88,6.4-2.49,8.07-1.96Z"/>
      <path class="cls-42" d="M72.35,184.31c-3.52,3.11-10.6,3.21-14.04-.11l2.38-.25,11.66.36Z"/>
      <path class="cls-215" d="M70.29,162.21c2.5.28,1.77,2.95-.43,2.41-4.49.71-3.32-4.08.43-2.41Z"/>
      <path class="cls-136" d="M72.34,124.34c3.69-3.88,4.56,7.88,0,5.95-1.64,1.31-1.62,1.97.06,1.99,4.12-.92,3.59,8.63,1.92,12.01-1.81,1.36-1.8,2.7.04,4.03,1.65.52,1.44,2.95,0,4-2.68,3.31-14.94,3.13-18,0-1.27,1.61-1.55,2.86,0,4.47.01-2.08.69-2.2,2-.47,3.88-.29,3.85,1.28-.05,2.36-3.99-.84-8.03.7-9.38,5.4-3.72-1.24-6.31-1.14-8.35.3l-.22-10.06c.57-1.75,1.24-1.72,2,0,1.18.6,1.15,1.28,0,2.02.56,2.07,1.21,2.75,1.96,2.04-.27-1.35,1.22-1.9,4.46-1.67-.48-2.35.91-6.42,3.53-6.93l-2.4-2.26c1.6,2.29,5.23.43,1.43-2.53.98,2.38,2.04,3.34,2.1,3.34-2.19-1.96-3.77-5.15-4.75-9.59.16-8.04,2.55-12.84,7.16-14.4,5.19-1.23,11.83-2.13,16.49,0Z"/>
      <path class="cls-23" d="M74.35,152.31v4s-16,0-16,0c-.72-.12-1.41.04-2,.47-1.65-.97-1.44-3.45,0-4.47h18Z"/>
      <path class="cls-220" d="M74.32,144.29l.04,4.03c-1.69.52-7.77.99-8.06-2.01.27-2.95,6.38-2.51,8.03-2.02Z"/>
      <path class="cls-157" d="M67.94,137.19c1.63-1.86,3.76-1.08,4.4.07.72,1.28-.3,3.26-2.82,3.31-1.14.03-4.36-.21-1.58-3.38Z"/>
      <path class="cls-244" d="M72.34,130.29l.06,1.99c-2.12.3-4.51.62-6.28-1.17,2.89-1.41,4.6-.81,6.22-.81Z"/>
      <path class="cls-159" d="M46.35,156.31l2.42.39c-1.24,1.01-2.79,1.55-4.46,1.67-.95,1.05-1.6.37-1.96-2.04v-2.02s4,2,4,2Z"/>
      <path class="cls-144" d="M44.31,158.37c1.08,2.44-2.07,3.05-2.02.9l.06-2.94,1.96,2.04Z"/>
      <path class="cls-144" d="M56.35,156.79c-1.6.6-2.71-1.69-2-3.35.28-.66.84-1.35,2.01-1.12v4.47Z"/>
      <path class="cls-176" d="M61.67,62.34c4.26.61,4.9,1.01,5.41,4.82.44,3.28-2.89,24.63-8.81,22.76,3.45,2.36,1.39,3.49-1.91,4.46,6.37.34,9.48,1.72,9.34,4.15,1.75.42,1.7,1.01-.03,1.78-1.34-.78-2.88-.1-3.65.68-3.8,3.84-.21,9.69-2.12,16.05-2.52-1.69-1.36-6.25-1.36-8.93-5.89-.78-10.91,4.28-14.04,8.1l-.22-31.75c.45-3.74,3.05-6.32,7.79-7.71-1.12-7.48.39-12.2,4.53-14.16.53-1.85,3.77-1.67,5.08-.23Z"/>
      <path class="cls-108" d="M50.31,52.01c5.69-1.02,6.26,3.53,1.23,5.93,2.26,1.05,1.81,1.89-1.35,2.55,2.31.58,4.44,1.28,6.4,2.09l-.65,17.45-11.67,4.43.2-34.07c3.37-3.85,5.05-3.39,5.85,1.63Z"/>
      <path class="cls-182" d="M63.91,34.27c10.08,8.89-4.28,22.97-13.6,17.74-1.48.57-4.56-.82-5.85-1.63l-.1-10.06c-1.92-4.47,9.27-5.3,7.14-4.3-1.66.78-2.87-.3-2.36-2.5l2.4-1.83c1.31-4,4.6-3.33,4.58.86,3.06,2.28,6.44.34,8.53-2.97,5.49,1.22,4.71,4.02-.75,4.71Z"/>
      <path class="cls-14" d="M44.36,40.31c-.58.13-1.41,0-2.01,0v-4c5.75-2.06,7.06.6,2.01,3.99Z"/>
      <path class="cls-242" d="M49.15,33.51c1.84.23,3.8.44,5.37,1.93-3.62,3.3-7.05,3.6-10.15,4.88-.02-1.69-.27-3.37-2.01-3.99v-2.01c2.16-.01,4.78-.08,6.8-.8Z"/>
      <path class="cls-25" d="M56.13,32.54c-1-.71-3.51-.7-4.58-.86-.29-1.29.23-5.45,3.01-5.4,2.42.05,2.45,4.77,1.58,6.26Z"/>
      <path class="cls-71" d="M46.22,268.27c.72,1.92-1.37,4.47-1.76,6.03-3.21,2.39-3.91-1.07-2.1-3.99.07-.59.15-1.43,0-2.02l3.85-.02Z"/>
      <path class="cls-137" d="M44.46,274.3l-2.03,8.07c-1.33,5.3,1.13,11.12-1.8,16.12l-.28-26.18,2.01-2c-.19,1.64.38,3.38,2.1,3.99Z"/>
      <path class="cls-120" d="M44.1,308.31l.24-2.03c2.38-.15,2.18,2.52-.24,2.03Z"/>
      <path class="cls-185" d="M36.33,334.28c-2.19.44-4.9.2-5.96-1.95,2.19.03,4.9-.2,5.96,1.95Z"/>
      <path class="cls-37" d="M138.34,174.31v26s0,2,0,2c-1.19,1.86-3.24,2.8-4.44,1.32-2.43-2.99-3.94-24.97.43-27.15-5.93-.41-5.53-6.78.03-8.17,1.77-2.1,3.1-.1,3.98,6Z"/>
      <path class="cls-164" d="M138.34,174.31l-3.98-6c-1.75-.56-1.73-1.22-.02-2-6-.06-5.87-10.51-.16-11.93l4.15-2.07v22Z"/>
      <path class="cls-248" d="M74.22,344.46l2.59.67c-2.01,5.56-2.18,10.44-.5,14.66-.23.78-.14,1.86-.06,2.65.22,3.25-.44,9.18-2.77,11.68l-6.8.03c-.66-13.34,5.71-18.49,1.69-25.45-5.23-1.13-4.83-2.97.37-4.05l5.47-.19Z"/>
      <path class="cls-123" d="M122.38,340.24c3.61-1.52,10.1-2.16,8.11,2.35l-2.34.02c-4,.04-8.01.38-11.79,1.74-3.75-.23-7.07-.89-9.96-1.99l-.05-2.06,16.04-.06Z"/>
      <path class="cls-153" d="M136.5,340l-4.33,2.31c-.48.23-1.14.28-1.68.28-1.7-3.07-5.14-2.36-8.11-2.35,3.88-3.53,9.79-2.42,14.11-.24Z"/>
      <path class="cls-49" d="M132.17,342.31c3.92.36,5.76,3.74,5.49,10.14,7.02,8.48,5.9,11.52.67,19.64-2.37.56-5.77,2.02-8.35,3.38,2.14,2.24,3.95.93,4.86,1.17-2.73,4.87-14.08,4.84-18.48,1.68-1.94,2.67-6.67,2.68-8.1-.1-15.91-.93-31.88-.93-47.91,0l-.6,2.07c-9.34-.46-18.48-1.13-27.42-2.02-.13,3.85-5.83,2.26-7.82-.27-1.3,1.58-5.62.13-5.96-2.19-3.4,1.29-12.62-2.65-10.13-7.41l5.67-3.79,2.78.48c1.07.18,1.75,1.88,1.59,3.17l2.15,2.13c10.57,4.37,22.82,8.18,33.82,4.39-.38-3.13.45-3.75,2.61-1.66,5.4-1.55,8.62-1.21,9.67,1.03,1.4-5.94,4.33-5.33,6.8-.03,1.1-3.98,2.03-7.87,2.77-11.68-1.86-.92-1.84-1.81.06-2.65-3.75-4.77-.83-15.24,6.48-15.28-.49-3.06,2.59-3.14,3.55-.2.67,1.17,1.27,1.08,2,0,.57-1.75,1.24-1.72,2,0,2.94.58,5.61,1.35,8,2.31,4.59-3.46,9.6.47,4.83,5.54,1.37,4.34,1.85,10.96-3.62,8.58-.54-.04-1.12.27-1.16.9l4.37,1.73c-.57,3.08.03,6.54,1.81,10.39,2.69-3.82,4.53-4.56,7.1-.64,4.2-1.78,8.6-3.11,13.22-4-1.25-2.8-.67-6.37,1.66-8.49-3.63-1.84-4.17-5.87-1.62-12.09-2.89-4.36-1.85-5.24,3.23-5.93-.33-1.32.45-1.33,2.34-.02.13-1.7.7-1.76,1.68-.28Z"/>
      <path class="cls-181" d="M20.59,370.38c-.87-.36-1.64-1.42-2.15-2.13l2.15,2.13Z"/>
      <path class="cls-82" d="M18.54,375.8c3.25,1.58,2.51,2.4-2.2,2.47l-12.38-3.6c.2-1.39-.04-2.86.93-4.55.7-1.22,2.54-1.08,3.52-1.73l10.13,7.41Z"/>
      <path class="cls-151" d="M24.51,377.99c1.71.74,1.64,1.47-.13,2.21l-8.04-1.93,2.2-2.47,5.96,2.19Z"/>
      <path class="cls-97" d="M32.33,378.27c1.75.56,1.74,1.24.02,2.04,1.76.57,1.76,1.28.06,2.14l-1.68.04-2.38.11-3.97-2.4.13-2.21c2.05.75,5.58.28,7.82.27Z"/>
      <path class="cls-163" d="M60.35,378.22c15.43-.59,32.26-1.12,47.91,0l8.1.1-2.02,4c-.54,0-1.59.28-2.12-.64-11.95,2.04-24.62,2.39-37.99,1.03l-13.83-.36-6.14.02c-.11-1.4-1.6-2.18-3.73-2.17l-18.17.1-.02-2.04,28.02-.05Z"/>
      <path class="cls-232" d="M108.25,378.23c-11.24-.13-22.77,2.29-35.09,1.16l-12.81-1.17c1.09-3.02,5.19-1.82,7.69-1.83l30.61-.16c3.34-.02,7.98-1.11,9.6,2Z"/>
      <path class="cls-202" d="M82.79,344.51c-4.95,3.24-4.93,9.96-6.48,15.28-1.54.47-3.64.52-5.03-.57l2.94-14.76,8.57.05Z"/>
      <path class="cls-202" d="M73.49,374.12c-.54-2.18-2.32-4.38-2.03-6.2.37-2.35,2.76-4.99,4.8-5.49.88-1.42,3.07-2.78,3.46-1.25.43,5.86-1.12,12.92-6.23,12.93Z"/>
      <path class="cls-202" d="M96.35,344.31l2.01.02v2.29c-2.8.2-6.28.16-8.01-2.31h6Z"/>
      <path class="cls-202" d="M85.23,349.27c.31-1.89,2.75-1.28,3.09-.05.21.76.34,2.13-.81,2.92-.62.43-2.55-1.26-2.28-2.87Z"/>
      <rect class="cls-202" x="82.64" y="370.6" width="1.41" height="1.41" transform="translate(-238.14 167.68) rotate(-45)"/>
      <path class="cls-202" d="M86.35,344.31h2c.33,2.36-2.33,2.36-2,0Z"/>
      <path class="cls-92" d="M56.26,344.35c1.88.38,2.94,5.83,2.44,7.08-.14.36-1.76-6.49.41-7.21,1.15-2.91,4.33-2.87,7.24-1.92l2.02-.03.39,2.37-.37,4.05c-.86-.15-2.01-.52-4.41.13,1.9,5.85,1.36,10.17-1,15.95.16,1.82,1.43,5.09.16,6.03-1.6,1.19-4.5,1.54-7.96,1.15,1.12-7.25-1.56-14.08-5.01-21.56,2.24-2.77,4.31-6.14,2.88-9.19,4.89-.23,5.96.82,3.21,3.14Z"/>
      <path class="cls-47" d="M66.34,340.34v1.97c-2.2,1.28-4.68,1.85-7.23,1.92-.29,3.88-1.85,3.93-2.85.12-.16-.96-1.51-2.28-3.21-3.14,4.78-1.67,8.95-.85,13.29-.87Z"/>
      <path class="cls-247" d="M134.33,176.48l2.64,25.12c.07.67.84.94,1.37.71v4s-3.81,9.9-3.81,9.9c-2.13-.59-2.87-3.1-2.21-7.51-4.19,3.01-16.21-4.9-18.81-9.19-1.3-2.14-1.4-9.39,3.16-8.62,6.03-2.49,5.57-6.6,2.65-11.97,4.26-1.2,8.11-3.25,11.56-6.14l3.45,3.71Z"/>
      <path class="cls-178" d="M134.53,216.21c1.7,6.16,1.52,21.04.13,24.11-1.31,5.06-3.33,6.88-8.35,8.4-6.22-10.5,5.7-18.6,1.64-26.13.19-1.37-.55-2.04-2.03-2.14-1.45.89-3.1,1.79-4.78,1.81-8.28-7.49,4.12-11.88,11.18-13.57,2.36,2.03,1.66,5.51,2.21,7.51Z"/>
      <path class="cls-234" d="M134.46,250.26l-.04,2.07-.07,5.98c1.65.6,1.34,3.04-.21,3.86-1.79-.97-3.7-1.6-5.82-1.75l.22-2.26-.27-3.78-1.89-2.17-.07-3.49c-.1-2.3-.15-4.69,1.53-6.86,3.37,1.88,5.32.22,6.82-1.54-1.19,2.6-.18,7.06-.2,9.94Z"/>
      <path class="cls-75" d="M136.28,262.36c-.12,6.1,1.46,12.6-1.69,18.07l-.46-18.26.21-3.86h2s-.07,4.05-.07,4.05Z"/>
      <path class="cls-75" d="M134.41,252.33l.04-2.07c.54.68.54,1.42-.04,2.07Z"/>
      <path class="cls-254" d="M104.49,10.13l5.84,2.2,5.75,2.33,9.4,9.92c-.25,1.57-1.6,2.85-2.98,3.53-4.85,10.34-14.56.19-17.19-7.75-11.04-9.34-11.32-12.75-.83-10.22Z"/>
      <path class="cls-4" d="M92.36,8.32c4.31-.18,8.1.3,12.13,1.81-1.78.07-4.66-.59-5.52,1.56,3.72,3.76,5.82,5.21,8.86,6.34,1.43,2.05.59,10.24,5.01,10.11l9.67-.03c.13.6.37,1.36.2,1.91,2.49.88,2.06,2.23-.71,2.33,4.66,2.98,6.12,7.85,4.4,14.62,6.03,5.34,6.26,8.33.69,8.96-.78,3.81-2.03,4.42-3.77,1.84-.87,2.19-8,1.79-10.29.2-6.16-8.1-10.23-16.93-10.95-27.13.05-7.65-2.43-12.32-7.45-14.02l-.41-4.31c-.76,1.57-1.41,1.41-1.96-.35,1.06,5.95-4.57,10.23-9.54,6.24l-.27-2.01c-6.67-1.62-4.31-6.73,2.03-7.74l7.87-.33Z"/>
      <path class="cls-66" d="M120.36,126.5c3.8,1.12-1.83,8.45-3.87,9.86-.46.32,5.74-9.9,7.38-5.7-.88,4.25-.16,7.84,3.52,14.51,1.13-4.28,2.51-8,6.9-9.15l-.26,16.16c-2.53,4.07-11.43,5.78-13.21.31-2.72,1.52-7.87,1.15-10.47-.17-5.31-.68-5.06-2.53.03-4.01-1.94-.3-3.32-1.7-4.13-4.21-1.64-1.64-.28-2.89,4.11-3.74-3.13-.72-5.03-1.95-2.04-4.11.13-1.66.86-3.02,2.19-4.08l-6.63-2.33c-.72-5.32,12.1-5,16.48-3.34Z"/>
      <path class="cls-30" d="M128.33,32.26l2.65,1.11c2.35.99,3.69,3.27,3.69,6.81l.02,14.14c-1.67,2.48-4.47,3.5-7.51,1.97,0,1.83.23,2.69.54,3.41.48,1.14.23,2.87-1.34,2.9-3.45-.23-3.58-1.49-.04-2.32-1.73-.48-2.73-1.33-3.02-2.52,1.8-1.29,3.56-2.51,4.76-4.77-10.82-3.92-2.16-11.48-6.09-20.65.76-1.44,1.52-1.48,2.34-.03,4.09,3.21,5.42,3.19,3.99-.06Z"/>
      <path class="cls-84" d="M134.03,152.18l.15,2.2.16,11.93c-8.64,8.51-16.01,5.02-16.02-7.6-1.33-1.01-.66-1.81,2.02-2.4-1.71-.67-1.65-1.34.12-2-1.65-.74-1.48-1.34.36-1.82,4.54.07,9-2.87,13.21-.31Z"/>
      <path class="cls-32" d="M128.33,32.26l2.08,3.88c-3.84.96-5.28-1.62-6.07-3.82.62-.86,1.29-.83,2,0,.62,0,1.43-.29,1.99-.05Z"/>
      <path class="cls-59" d="M138.38,26.08l2.15,2.15c-.02.5-.06,1.12.09,1.59l1.75,2.54c.2.58,0,1.36,0,1.93l-2.02.02c-.47,1.79-1.18,1.82-2.13.17-1.77.14-1.81-.36-.27-1.45l-1.42-2.49c-6.73.83-12.47-4.96-9.1-11.53-.29-1.49.05-2.39,1-2.69l9.95,9.76Z"/>
      <path class="cls-89" d="M126.37,16.3c1.48.17,1.52,1.39,1.06,2.7,0,6.01,9.08,6.25,10.52,14.02-1.71,1.39-4.03,1.51-6.96.36-.68.85-1.57.48-2.65-1.11-.48,1.64-1.14,1.62-1.99.05-2.16-.39-3.37-1.15-3.64-2.3-1.67-.15-1.66-.81-.2-1.91-2.67-4.04-1.55-4.5,2.98-3.53.43-2.77-.41-5.58-1.45-8.14.53-1.03,1.79-1.26,2.32-.14Z"/>
      <path class="cls-38" d="M127.43,19c0-.76-.7-2.01-1.06-2.7h2.06c-.08.98-.41,1.88-1,2.7Z"/>
      <path class="cls-254" d="M126.35,32.31h-2s-2.34.03-2.34.03l.71-2.33c1.56.13,2.91.94,3.64,2.3Z"/>
      <polygon class="cls-22" points="129.67 27.28 131.02 27.28 132.32 27.32 131.02 27.35 129.67 27.35 128.36 27.32 129.67 27.28"/>
      <path class="cls-160" d="M72.38,258.31c-.26.47-.36,1.68.15,2.45l-13.39-.21-4.9.15-1.66.25-.25-2.63c5.52-1.74,14.32-1.64,20.04,0Z"/>
      <path class="cls-125" d="M102.35,216.31c6.31,2.12,4.91,5.44,1.13,9.1,3.67,2.95,3.63,5.67-.1,8.18,1.25,3.59.9,5.83-1.02,6.72,2.6,2.14,3.94,3.68,0,4,5.22-.46,4.51,2.59.04,4.16,3,1.44,3.74,3.57-.05,3.84,3.22.28,3.19,3.33-.05,4,7.37.68,14.86,1.23,22.47,1.64-.37,1.26-1.1,2.22-2.46,2.22l-19.8-.03-.48,14.51c-1.26-2.68-1.51-5.98-3.69-8.34-1.67-20.8-1.63-44.77,0-66,.43-4.6,1.75-6.61,3.95-6.03,4.75,2.58,5.08,5.06,1.01,7.44,0,5.08.84,9.04,2.53,11.86l-3.49,2.73Z"/>
      <path class="cls-133" d="M98.34,200.31v66s.01,9.89.01,9.89c2.95,3.22,1.77,4.45-2.01,2.12-1.74-.58-1.72-1.25,0-2.02-1.72-20.93-1.61-43.38.02-64-1.71-8.63-1.87-21.05.01-29.99.56-1.75,1.22-1.72,1.97,0,4.09,3.2,1.84,12.74,0,17.99Z"/>
      <path class="cls-34" d="M98.45,310.34c-1.8-.48-1.84-1.22-.21-2.22.02-3.61,1.39-7.71,4.13-12.29-.97-4.92-.39-8.16,1.73-9.74.47-1.36,1.1-1.3,1.89.02,4.37,8.19.23,19.47-7.54,24.23Z"/>
      <path class="cls-3" d="M86.58,309.95c3.89-.02,3.75,1.54-.21,2.34l-2,.02-4.08-1.9c-5.09-3.18-9.89-7.92-9.9-14.1.58-1.75,1.26-1.72,2.04,0,2.22,1.69,4.54,4.19,6.95,7.52,4.64,1.55,7.04,3.6,7.2,6.13Z"/>
      <path class="cls-226" d="M105.99,286.11l-1.89-.02c-3.55,2.84-9.01-4.09-7.76-7.76.95-.16,2.01-1.16,2.01-2.12,3.26,2.63,5.62,6.13,7.64,9.91Z"/>
      <path class="cls-50" d="M98.24,308.12l.21,2.22c-3.66,2.24-8.06,1.92-12.08,1.95l.21-2.34c.63-3.72,9.59-4.69,11.67-1.83Z"/>
      <path class="cls-203" d="M74.36,286.2c1.05,3.09.59,8.02-1.94,10.1h-2.04s-.02-7.93-.02-7.93c0-.56-.36-1.66.02-2.05h1.96c.48-1.78,1.15-1.79,2.02-.11Z"/>
      <path class="cls-186" d="M84.37,312.31c-1.85.02-2.81-1.11-4.08-1.9,1.69-.27,3.35.37,4.08,1.9Z"/>
      <path class="cls-148" d="M82.35,40.32c.6-1.15,1.27-1.12,2,0,1.75.57,1.72,1.24,0,2,1.67,23.46,1.65,48.72,0,72,1.66,19.48,1.64,42.11,0,62,1.65.51,1.45,2.94,0,4-.93,1.18-1.72,2.07-2.03,1.92-1.36-.63-1.73-17.39.15-19.77-1.77.15-3.12-.62-4.12-2.15v-44c1.71-20.07,1.69-41.75,0-62-1.31-.59-1.29-1.26,0-2,1.4-1.52,1.35-2.53,0-4-1.31-.59-1.29-1.26,0-2,1.17-.67,1.09-1.27,0-2-1.66-.54-1.44-2.99.04-4.03.58-1.74,1.24-1.7,1.95.04.57-1.75,1.24-1.72,2,0Z"/>
      <path class="cls-194" d="M80.34,276.35c-.62,1.73-1.3,1.69-2.03-.05l.04-95.98c.57-1.75,1.24-1.72,2,0,1.12.2,1.99.4,2,.62.65,30.86.64,63.34,0,94.05,0,.47-.88.92-2,1.37Z"/>
      <path class="cls-196" d="M78.4,40.28l-.04,4.03c1.15.6,1.13,1.27,0,2v2c1.59.89,1.5,2.97,0,4v2c1.76,20.29,1.65,41.74,0,62h-2s0-74,0-74c-5.31-.66-5.07-2.49.02-3.98,3.29-3.12,4.47-1.99,2.03,1.95Z"/>
      <path class="cls-109" d="M82.46,162.47c-.9,6.13-1.61,12.08-2.11,17.85h-2v-20c.65-.24,2.29-1.91,3.12-1.73,1.02.22,1.01,3.04,1,3.88Z"/>
      <path class="cls-1" d="M80.34,276.35c4.26,2.52-2.68,9.21-5.98,9.85l-2.02.11v-2.02c2.26-2.36,3.36-5.85,5.96-7.99l2.03.05Z"/>
      <polygon class="cls-186" points="72.35 286.31 70.38 286.31 72.34 284.29 72.35 286.31"/>
      <path class="cls-101" d="M66.06,224.5c3.44,1.1,6.23,2.37,8.37,3.81.53,1.75-.36,3.45-1.54,3.62-2.15.3-3.79-.21-6.68,1.33,2.03,1.58,5.06,1.28,7.65,1.14,2.08,3.42.27,6.34-2.48,6.07l-4.98-.29c-.61,3.02-2.05,2.51-4.3-1.52-3.52,1.27-4.01-2.57-.85-4.26-2.63-.92-3.49-2.26-2.55-4.03l-.34-8.06c1.78-1.92,9.29-1.59,7.7,2.18Z"/>
      <path class="cls-135" d="M66.41,240.17l7.11,2.81c2.89,1.14.55,6.13-1.9,5.44-1.12-.31-3.27-1.04-5.27,1.22,2.68.6,5.98.29,7.79,1.8.94.79.45,3.66.09,4.83-6.69,1.69-15.84,1.7-22.34,0l2.4-2.22c.63-1.75,1.37-1.73,2.22-.01,1.52.12,4.54,1.69,5.24-1.54-1.8-3.34-1.48-10.38.35-13.85,1.4.29,3.13,1.05,4.3,1.52Z"/>
      <path class="cls-201" d="M74.22,256.29c-.22.69-1.33,1.51-1.84,2.02h-20.04s-.45-2.01-.45-2.01h22.34Z"/>
      <path class="cls-246" d="M72.38,220.33c1.97,1.66.63,2.99-4.03,3.98.59,2.8-.57,2.55-2.29.18-1-2.1-5.67-2.41-7.7-2.18v-2s14.02.02,14.02.02Z"/>
      <path class="cls-69" d="M74.4,224.31c-.28,1.06-.28,2.97.03,3.99l-5.05.11c-2.35.05-2.44-2.07-3.32-3.91l2.29-.18c3.37-2.44,5.39-2.44,6.05,0Z"/>
      <path class="cls-132" d="M74.36,208.32l.06,3.94c-1.73.57-7.84,1.01-8.12-1.93.29-3,6.37-2.53,8.06-2.01Z"/>
      <path class="cls-9" d="M74.35,200.31v2c-1.48,1.9-7.12,3.94-8.22-.32.39-2.21,6.52-2.24,8.22-1.68Z"/>
      <path class="cls-101" d="M74.4,224.31h-6.05s4.03-3.98,4.03-3.98c1.92,0,2.46,2.33,2.02,3.98Z"/>
      <path class="cls-18" d="M74.35,194.31v2c-2.61.12-5.57.7-8.15-1.06,3.3-1.68,5.9-.97,8.15-.94Z"/>
      <path class="cls-64" d="M146.24,338.21l2.08-1.91c-.48.61-1.28,1.67-2.08,1.91Z"/>
      <path class="cls-99" d="M104.31,342.34l-.05,2.03-5.9-.04-2.01-.02c1.65-2.56,5.22-1.98,7.96-1.96Z"/>
      <path class="cls-178" d="M107.13,252.99c-.66,2.69-4.57,2.17-4.79-.67l.05-3.84c.35-1.78,1-1.76,1.92-.08,3.94,1.54,4.61,1.51,2.01-.1-1.61-1.18-2.93-2.5-3.97-3.98v-4c.57-1.75,1.23-1.72,2,0,1.66,1.29,4.33,1.67,2.01.03-2.94-.56-3.13-3.51-2-6.08,1.27-1.6,4.74-1.4,6.01.06-.27.67.21,2.67,2.21,1.67-.53-2.47-.91-7.15,1.47-8.44,1.68-.92,4.78-3.2,6.92-2.35-.83,3.36-3.09,3.77-3.64,4.7-.43.73,7.58,5.79,5.04,23.86-6.11.82-10.47-.12-15.24-.77Z"/>
      <path class="cls-178" d="M106.39,256.37c5.88.08,12.49-1.79,18.37,1.58l-20.49.49c-1.68.04-1.99-1.37-1.98-2.14.04-2.94,3.17-2.64,4.1.06Z"/>
      <polygon class="cls-237" points="107.13 252.99 106.39 256.37 102.29 256.31 102.34 252.31 107.13 252.99"/>
      <path class="cls-237" d="M127.96,222.59c-.52-.56-1.81-1.03-2.03-2.14,1.46-.11,2.94-1.84,3.5-2.89.33-.61,1.61,3.43.98,3.8s-1.15,1.08-2.44,1.22Z"/>
      <path class="cls-178" d="M128.31,260.42c-1.1-.71-.96-1.75.22-2.26l-.22,2.26Z"/>
      <path class="cls-178" d="M128.27,254.38c-.76-.34-1.87-1.3-1.89-2.17.89.31,1.82,1.16,1.89,2.17Z"/>
      <path class="cls-45" d="M72.35,188.31c-3.73,3.18-10.28,3.09-14.19.33l14.19-.33Z"/>
      <path class="cls-204" d="M61.25,234.4c-.29,1.41.23,3.1.85,4.26,2.51,4.69,1.35,9.09-.35,13.85-5.75,1.66-.9-8.24-6.13-19.79,1.64-1.86,3.97.05,5.63,1.68Z"/>
      <path class="cls-135" d="M61.25,234.4c-1.92.26-4.08-.27-5.63-1.68,1.17-.76.5-1.89.38-2.38l2.7.04c.61,1.05,2.94,2.15,2.55,4.03Z"/>
      <path class="cls-201" d="M56.51,254.06h-2.22c-.82-4.07,2.75-4.12,2.22,0Z"/>
      <path class="cls-158" d="M76.37,38.34l-.02,3.98c-2.1,1.01-2.63,3.62-2.29,5.83-.62,6.05-5.4,9.36-14.34,9.95-1.33,1.93-6.5,1.74-8.17-.15l-1.23-5.93,13-7.16c.25-3.06-1.33-8.22.6-10.58,5.79,1.42,7.74,7.04,12.46,4.06Z"/>
      <path class="cls-252" d="M72.73,60.08c-4.6-.55-8.94-1.22-13.02-1.99l14.34-9.95c.64,4.19,1.16,8.77-1.33,11.94Z"/>
      <path class="cls-8" d="M74.34,98.32c-1.63,2.63-6.51,2.42-8.65.21-.58-.54-1.67-1.63-2.41-1.32-1.2.5-2.29,1.26-4.22,3.09.14-2.71-.46-4.57-2.7-5.91l2.05-2.24c6.5.84,11.15.23,13.94-1.83l1.97-.07.02,8.07Z"/>
      <path class="cls-179" d="M72.73,60.08c-.71.8-.41,2.09.13,2.41l-11.19-.16-5.08.23c-2.32.11-5.49.44-6.4-2.09,6.49-2.36,15.59-1.74,22.54-.4Z"/>
      <path class="cls-8" d="M65.66,100.3c2.68-.6,5.58-.6,8.69.01v6c-2.82,1.23-2.82,1.9,0,2v6c-2.81,1.23-2.81,1.9,0,2,0,2.23-.35,4.45-1.99,6.01-5.37.62-10.87,1.29-16.5,2.01l-3.44,15.59,2.96,5.52c.42.78-.99,2.4-1.94,2.88-.57.29-1,.83-1.13,1.45-.53,2.57-1.45,5.24-3.53,6.93l-2.42-.39c.88-1.85,1.86-3.93,2.02-6.05l-3.95-1.93.07-32.14c1.25-7.87,4.34-10.71,11.97-12.82-.1-3.74,7.4-5.69,9.2-3.08Z"/>
      <path class="cls-165" d="M72.35,122.32v2.02s-16.5,0-16.5,0c4.67-3.37,10.95-2.03,16.5-2.01Z"/>
      <path class="cls-159" d="M48.37,150.27c-1.61.7-3.95-.11-3.95-1.93,1.54-.79,4.1-.06,3.95,1.93Z"/>
      <path class="cls-102" d="M74.34,98.32v2c-2.66,2.23-5.84,1.63-8.68-.01l.03-1.78,8.65-.21Z"/>
      <path class="cls-251" d="M74.35,114.32v2c-2.24.03-4.85.74-8.14-.94,2.58-1.76,5.53-1.19,8.14-1.06Z"/>
      <path class="cls-28" d="M74.35,106.32v2c-2.25.03-4.85.74-8.15-.94,2.58-1.76,5.53-1.19,8.15-1.06Z"/>
      <path class="cls-128" d="M59.71,58.09c4.06.09,9.16-1.25,13.02,1.99l-22.54.4,1.35-2.55,8.17.15Z"/>
      <path class="cls-86" d="M102.37,48.27c-1.37,3.89-1.6,8.14-.02,12.05,1.72.58,1.69,1.25-.01,2,5.49.4,4.98,1.86,0,3.98-1.11,2.14-1.12,3.87-.11,6.05,5.97.07,5.61,8.82.11,9.94-1.26,26.02-1.8,52.22-1.61,78.6l-1.65,1.31c-1.13-.28-2.01-.57-2.02-.9-.64-13.91-.34-27.79.06-41.67-2.62-5.77-2.2-8.87,1.24-9.31-1.15-.6-1.13-1.27,0-2-1.74-.59-1.71-1.26.02-2-1.91-20.93-1.9-42.98-.2-63.98-2.45,1.16-3.41-.17-2.89-4.01l-2.82-3.97c-5.92-3-9.06,1.21-12.11,5.96l-1.95-.04c.01-1.29-.75-2.21-2.03-1.95.03-4.37,4.69-6.93,8.66-8.7,3.87-1.72,8.96,0,12.38,3.8,3.67,4.07,4.66,10.1,4.95,14.83Z"/>
      <path class="cls-100" d="M82.46,16.39c1.61.37,1.68,1.05.27,2.01,3.6.76,7.29,2.27,9.94,5.13l2.21-2.21-2.69-1.68c1.48.22,1.06-.99,2.21-.56l.96,1.21c-3.3-6.05,7.85-3.26,3.02,2.05,1.07.69,1.08,1.39.02,2.09,3.73.11,4.22,3.17,3.7,6.43,3.88,2.82,6.36,7.33,7.44,13.53,3.82,4.94,5,9.47,3.51,13.59-.1,1.81-1.29,1.59-2.7.34-4.41-1.24-6.97-2.72-7.82-7.49-1.05-.08-1.1-.93-.16-2.55-2-.49-2.92-2.9-2.75-7.22-5.35-13.79-14.79-12.58-23.24-2.71-2.11,8.54-12.5,2.93-12.46-4.06l.75-4.71c.75-4.71-1.94-9.01-2.16-13.51l1.56.07,2.49-1.85,1.22-.24c7.74-1.83,12.64-1.05,14.69,2.36Z"/>
      <path class="cls-85" d="M82.35,8.59l2.14.06c-1.49,2.27-2.36,5.24-2.03,7.74-3.66.16-7.92.01-10.45,3.01,2.12,1.3,3.96,2.8,3.76,3.77s-3.1,1.81-4.63,2.76l-3.36-11.9c3.81-3.85,9.19-5.59,14.57-5.44Z"/>
      <path class="cls-85" d="M64.06,16.13l2.49-1.85c-.67.7-1.66,1.48-2.49,1.85Z"/>
      <path class="cls-62" d="M110.34,58.31c-1.68,1.24-7.21,2.96-8,0-1.75-1.22-1.67-5.81.17-7.5,3.38,1.55,6.26,4.11,7.82,7.49Z"/>
      <path class="cls-98" d="M102.52,50.82l-.17,7.5c1.75.57,1.72,1.24,0,2-3.11-2.79-3.11-9.21.02-12.05l.16,2.55Z"/>
      <path class="cls-113" d="M128.15,342.61c-.44.35-1.06,1.17-1.14,1.69s.4,1.93,2.34,2.52l-2.82,13.81c.73,7.36-7.02,15.76-8.16,5.64-1.78-.43-3.31.2-4.62,1.91,6.86,8.03-10.68,7.41-4.96-3.94-8.55.81-8.43-2.24-4.09-9.49-3.46-3.04-1.43-10.48.47-7.41,1.38,2.23-3.23,2.98-.94-2.99,3.51-1.31,7.54-1.32,12.11-.02.87-3.74,8.74-3.62,11.79-1.74Z"/>
      <path class="cls-142" d="M104.25,344.37l3.24,2.24c2.07,1.43-1.74,2.43-1.88,3.24.11,1.6,2.78,2.29,3.65,2.74,3.64,1.88-5.68,7.74-4.53,8.6l4.08,3.05-.97,3.49c1.8,4.77.71,6.78-3.27,6.03-5.21-1.01-5.22-7.57-6.18-12.12-.2-.2-1.16-.86-2.41-3.61,1.16,4.44,4.5,2.61,2.2-1.29-.31,2.98,1.18,3.75,1.38,4,5.2.4-5.46-8.69,3.12-13.29-1.25-1.08-2.78-1.2-4.33-.83-3.55.11-3.68-1.42,0-2.29.78-1.58,4.49-1.56,5.9.04Z"/>
      <path class="cls-44" d="M126.54,360.63c-.59,2.87,2.16,6.3,4.7,10.58-8.8,3.49-17.99,4.24-26.68,2.56,1.16-2.82,1.76-6.04-.77-8.94,2.91-1.09,4.01-.56,5.01-.58,1.75,1.31,1.48,4.56,1.88,8.3,2.01-1.4,2.32-2.88,3.07-4.36.6-3.4,1.89-4.41,4.62-1.91,5.39,4.41,1.98-4.17,8.16-5.64Z"/>
      <path class="cls-200" d="M116.36,344.35c-3.99,1.43-8.02-.03-12.11.02-1.73-.62-1.69-1.3.05-2.03h2.1c3.33.03,7.63-.84,9.96,2Z"/>
      <path class="cls-141" d="M118.38,366.27c-1.1,1.4-2.83,2.05-4.62,1.91.55-3.92-.23-8.09,1.61-12.05l3,10.14Z"/>
      <polygon class="cls-105" points="119.67 353.27 121.02 353.27 122.33 353.31 121.02 353.34 119.67 353.34 118.36 353.31 119.67 353.27"/>
      <path class="cls-31" d="M56.26,344.35l2.85-.12c2.92,5.47,5.01,11.14-1.16,16.95-2.61-6.1-2.87-11.67-1.69-16.83Z"/>
      <path class="cls-121" d="M92.27,12.16c.94,3.14,1.59,3.26,1.96.35,5.85.96,7.11,8.8,9.77,12,2.23,2.68,9.8,3.97,7.61,9.29-2.73-.63-7.26-1.77-6.25-6.09-1.03,1.32-2.11,2.25-3.27,3.12-3.15-.67-4.45-3.55-3.7-6.43,1.08-.73,1.08-1.36-.02-2.09.44-.87.06-2.93-.97-3.26-.85-.28-1.94.61-2.05,1.21l-.47,1.04,1.46,1.76c-1.39-1.95-3.28.43-1.11,1.7-.81-2.12-2.15-1.3-2.56-1.25-6,.75-20.21,9.69-14.85-.05.4-.73,1.29-2,2.78-.45.55.57,1.27,2.23,4.39,1.6-2.22-2.53-1.99-4.24-2.26-6.23l9.54-6.24Z"/>
      <path class="cls-4" d="M98.39,24.42c.16-.6.02-1.48-.02-2.09,2.07-.06,2.32,2.19.02,2.09Z"/>
      <path class="cls-100" d="M92.27,12.16c.62-.05,1.56.24,1.96.35l.11,2.75c-.02,1.36-2.01,1.28-1.95-.01l-.11-3.09Z"/>
      <path class="cls-57" d="M120.39,96.55c4,1.43,5.66,5.37,4.98,11.84l3.18,1.85c1.82.48,1.63,1.63,1.06,2.26l-2.58,2.89-3.17,15.29-7.38,5.7,3.87-9.86c-1.81-.63-2.46-1.39-1.95-2.25-4.57-1.5-9.47-1.51-14.06.06-.56,1.75-1.23,1.72-2,0-2-.34-1.8-3,0-4-.52-6.2,9.88-5.77,11.75-.32-.25-4.21.45-7.32,2.08-9.34-3.12-1.69-2.99-2.36.59-2.33-2.57-1.99-3.79-8.9-2.21-11.74.24-2.1,3.98-1.25,5.83-.02Z"/>
      <path class="cls-197" d="M134.29,136.02c-4.95,19.84-20.04,8.26-10.42-5.36l-2.13-1.33c-.89-8.1,1.38-14.46,6.82-19.1l-3.44,1.17c-1.82-6.47-.76-12.03,3.16-16.69-2.92-.2-5.4-2.72-7.45-7.58-10.24-3.01-10.7-18.79,1.56-14.09-.19-3.97.55-7.43,2.21-10.4.38-1.56.99-1.52,1.8-.03-.07-6.15.69-12.37,8.31-8.28-1.81,4.19-.8,8.71-.77,13.92l.36,67.78Z"/>
      <path class="cls-134" d="M128.27,94.71c-1.09,10.75-8.39,3.02-9.73-4.44.2,3.19-5.47,3.03-6.2.04-.11-4.99-1.41-7.8-3.88-8.43-1.32-5.41-.58-9.33,2.23-11.76l-6.57-1.63.66-3.01c5.88-1.01,11.79-2,17.73-2.96.77-1.5,1.46-1.45,2.08.12,1.54,5.51,7.57,4.18,8.44,8.66.14.72-1.79,1.87-3.02.72-.54-.5-1.37-.93-3.47-1.21l-.86,12.3c-1.49-4.8-3.72-5.68-6.92-6.64-1.66-2.92-3.72-.25-3.98,2.91l10.1,5.39,3.38,9.94Z"/>
      <path class="cls-58" d="M128.27,94.71c.64,1.87,1.64,6.16.49,8.38l-2.17,4.16c-.42.8,1.03,2.73,1.97,2.98l-6,4.17,1.54-7.82c-3.8,1.31-6.09,1.99-5.31.77l2.41-3.75c.73-1.13-2.78-5.24-.81-7.06-1.85-.2-2.54-.94-2.05-2.23-5.28-.91-4.95-2.75.2-4.04l3.91,5.03c1.19,1.53,4.5-.17,5.82-.6Z"/>
      <path class="cls-134" d="M128.38,79.67c1.36-2.13,2.85.04,3.19.62.62,1.07.16,1.79-.44,2.12-1.42.8-4.13-.59-2.75-2.74Z"/>
      <path class="cls-129" d="M118.4,124.25c1.33,0,2.45.98,1.95,2.25-5.34.05-11.72.7-16.48,3.34l6.63,2.33c1.93.23,1.92,1.47.86,2.28s-2.13,1.77-3.05,1.81c-2.77.86-2.09,2.23,2.04,4.11-.6,1.32-2.6,3.51-4.11,3.74.45,1.72,1.83,3.12,4.13,4.21l-.03,4.01c-1.66,1.54-7.11,3.25-8-.01-2.8-6.64-1.96-20.28,0-28h2c4.51-1.6,9.51-1.59,14.06-.07Z"/>
      <path class="cls-190" d="M110.35,152.33l10.47.17-.36,1.82c-5.23.64-10.61,1.3-16.12,2-.59,1.32-1.26,1.29-2,0-2.43-.19-2.28-3.09,0-4h8Z"/>
      <path class="cls-118" d="M110.38,148.31c-1.57.17-4.24.79-5.96-.96-.79-.8-.19-2.94,1.83-3.24.77,0,2.23-.07,2.96.42,1.15.77,1.18,2.45,1.18,3.79Z"/>
      <path class="cls-230" d="M108.31,136.25l2.04,4.11c-1.35.05-3.84.45-5.46-.52-1.46-.88-.84-3.44.45-3.48l2.96-.11Z"/>
      <path class="cls-209" d="M110.51,132.17c-2.43.68-5.6.99-6.63-2.33,2.72.05,5.35.37,6.63,2.33Z"/>
      <path class="cls-250" d="M120.35,156.31c-.41.92-1.08,1.69-2.02,2.4-1.58-.83-4.17-.36-5.96-.36-3.22.35-6.16,1.23-8.84,2.64l-1.17-2.67c-1.75-.57-1.72-1.24,0-2h2c5.04-1.23,11.47-2.06,16,0Z"/>
      <path class="cls-87" d="M120.46,154.31l-.12,2h-16c4.39-3.32,10.73-1.93,16.12-2Z"/>
      <path class="cls-238" d="M110.34,58.31l2.7-.34,10.29-.2c1.22-.02,3.03,1.23,3.02,2.52l-18.18-.08c-2.13-.01-3.62.77-3.83,2.11-.57,1.75-1.24,1.72-2.01,0v-2s.01-2,.01-2h8Z"/>
      <path class="cls-98" d="M102.35,90.32c4.67,4.56,4.97,7.92.92,10.09,4.19,3.98,4.64,4.69-.92,7.91,6.01-.73,5.7,10.93,0,12v4s0,28,0,28v4s0,2,0,2c3.09-.31,3.42,1.21,1,4.56,3.36,1.97,3.34,4.64-.08,8.01,4.27,4.08,5.44,10.58-.92,13.43l-.06,9.97-3.95,6.03v-17.99c-1.26-5.01-1.76-13.25-1.25-18.9.04-.46.9-.85,1.98-1.21l1.55-77.74c.03-1.47.76-2.14,1.71-2.17,1.86.39,1.48,6.13.02,8.02Z"/>
      <path class="cls-237" d="M106.31,248.29c-.58.9-1.25.9-2.01.1l-1.92.08-.04-4.16c2.38,0,4.52-.41,8.18.51l-4.22,3.47Z"/>
      <path class="cls-186" d="M84.35,180.31c1.67,10.77,1.55,24.82,0,36,1.64,14.44,1.58,31.37,0,46,1.72,1.95,1.45,7.57,0,10,1.59,1.19,1.72,6.4,0,8-4.67,4.07-6.04,8.21-4.11,12.42l-3.88,3.22c4.55-.74,5.87,1.39,3.97,6.4,4.11-.1,8.77.57,13.99,2.03-2.12-2.01-1.31-2.63,2.45-1.86-1.41-.09-1.36-1.27-.35-2.23l1.99-4.18c-2.97-3.01-3.52-6.55-1.64-10.59-2.76,2.85-3.17-.28-2.49-3.23-5.57-3.01-5.8-14.11-1.93-17.95-1.66-3.98-1.59-10.32-.03-14.03.57-1.75,1.24-1.72,2.01,0,.58,8.47,1.25,17.13,1.99,26v2.02c2.2,2.92,4.78,5.63,7.76,7.76,1.64,8.06-.07,16.27-5.86,22.03-3.54.31-8.18,2.9-11.67,1.83-6.75-2.07-12.06-7.12-14.15-13.65-.33-3.35-.01-7.1,1.94-10.1,2.09-3.21,5.98-5.71,5.98-9.85v-96.03s-.1-14.16-.1-14.16c-.02-2.13.75-3.62,2.22-3.69l-.19,13.83c-.03,2.43.75,3.75,2.07,4.01Z"/>
      <path class="cls-155" d="M95.83,78.16c1.95-.76,2.02.51.51,2.16-1.48,7.26-1.8,14.79-.36,22.08,1.18-.15,1.98,1.15,2.38,3.92l-.02,2c-1.17.67-1.08,1.27,0,2l.72,51.89-.73,20.12h-1.97c-1.42-6.34-2.04-12.94-1.85-19.8-3.01-1.5-2.8-2.96.4-4.38-2.18-.49-4.45-.46-6.81.08.07-37.64.78-75.44,2.12-113.42l2.14-.45,2.46.8c.1,11.05.43,22.05,1,33.01Z"/>
      <path class="cls-219" d="M96.37,182.32v29.99c-.58,1.75-1.26,1.72-2.03,0-1.65-.53-1.44-2.96.02-4-.81-13.73-1.49-26.4-2.02-38-.61,1.73-1.27,1.69-1.97-.05-.68-2.22-1.36-4.87-2.03-7.95-1.31-.6-1.28-1.27.01-2.01,1.33-2.91,4.18-5.16,6.56-2.17.13,7.99,1.45,15.85,1.45,24.17Z"/>
      <path class="cls-216" d="M96.34,276.31c-1.34-.22-2.11-1.72-2.1-3.85l.11-22.15c-1.67-11.43-1.55-26.15,0-38h2.02s-.02,64-.02,64Z"/>
      <path class="cls-257" d="M86.34,88.32c1.19.21,2.13.47,2.22.89,1.21,6.15,1.21,20.91-2.22,25.11-.57,1.75-1.23,1.72-2,0V42.32c.83-.54,1.55-.9,1.91-.68,2.1,1.29,1.41,41.27.08,46.68Z"/>
      <path class="cls-119" d="M78.35,116.32v-62c1.34.23,2.11,1.72,2.1,3.9l-.08,56.11c0,1.44-1.18,2.04-2.02,1.99Z"/>
      <path class="cls-213" d="M86.35,160.31c1.32.59,1.29,1.26,0,2,1.7,3.53,1.56,10.26,0,14-.57,1.75-1.24,1.72-2,0v-62h2c1.08.3,1.92.61,1.93.93.28,13.58-.41,30.01-1,43.73-.02.46-.42.9-.93,1.33Z"/>
      <path class="cls-80" d="M86.34,88.32l-.03-43.91c0-1.38-1.15-2.21-1.96-2.09v-2c.58-1.74,1.25-1.72,2.01,0,.92-.48,1.74-.79,2.22-.51,1.96,1.15,2.01,18.71,2.02,22.85,0,3.67-.22,26.27-1.52,26.55-.81.18-1.76-.27-2.75-.91Z"/>
      <path class="cls-15" d="M86.35,208.31c1.77,1.1,1.49,6.09,0,8-.57,1.75-1.24,1.72-2,0v-36s0-4,0-4h2c1.75,9.61,1.67,22.19,0,32Z"/>
      <path class="cls-243" d="M90.35,34.31c4.88.8,8.93,9.28,1.98,7.99-1.87-.55-3.86-1.21-5.97-1.98h-2.01s-2,0-2,0c-1.25-4.2,4.32-8.53,8-6.01Z"/>
      <path class="cls-170" d="M92.46,34.36l-2.11-.05c-3.74.03-6.68,2.59-8,6.01h-2c.06-2.96,1.65-5.61,4.02-7.07,2.62-1.62,6.37-1.73,8.1,1.11Z"/>
      <path class="cls-119" d="M78.35,52.32v-4c1.07-.24,1.71.36,2.02,1.06.75,1.73-.55,3.19-2.02,2.94Z"/>
      <path class="cls-119" d="M78.35,46.32v-2c2.36-.33,2.36,2.33,0,2Z"/>
      <path class="cls-93" d="M104.35,240.31l2.01.03c.72-.14,2.31-.68,3.84.75.14.65-1.41,1.56-2.85,1.41-1.35-.15-2.87.06-2.99-2.19Z"/>
      <path class="cls-130" d="M104.31,248.38l2.01-.1c.89-.02,2.18-.36,4.11.98-1.74,2.03-4.81,1.28-6.12-.88Z"/>
      <path class="cls-150" d="M72.85,62.49c3.19,8.36,1.44,18.84,1.46,27.76-.5,1.76-1.15,1.76-1.97.07-2.05,3.1-12.42,3.04-14.08-.4,2.35-5.88,3.03-11.88,3.55-18.64.23-3.04,3.3-6.11-.14-8.95,2.31-1.74,8.65-1.68,11.19.16Z"/>
      <path class="cls-23" d="M72.35,90.32c.66,1.18.3,3.91-1.95,3.92l-14.05.14c-.46-1.98,1.43-3.27,1.91-4.46l14.08.4Z"/>
      <path class="cls-205" d="M66.83,82.71c.53-.7,3.22-.7,4.37-.39.8.21,1.93,1.42,1.11,2.93-.96,1.78-2.23.99-3.05,1.21-1.7.47-4.29-1.28-2.43-3.75Z"/>
      <path class="cls-13" d="M70.29,76.22c2.5.28,1.77,2.95-.43,2.41-4.49.71-3.32-4.08.43-2.41Z"/>
      <path class="cls-154" d="M70.29,68.22c2.5.28,1.77,2.95-.43,2.41-4.49.71-3.32-4.08.43-2.41Z"/>
      <path class="cls-61" d="M98.37,106.32c-1.31-.98-1.72-2.5-2.38-3.92-1.45-7.26-1.13-14.84.36-22.08.24-.76-.11-1.77-.51-2.16-.88-12.32-1.03-24.35-.44-36.1l2.78.27.2,63.98Z"/>
      <path class="cls-225" d="M98.17,42.34c-1.16.2-1.93,1.7-1.93,3.84l-.41,31.98c-4.45-11.05,1.81-26.4-3.46-33.8-1.67-.51-1.64-1.2-.04-2.06,1.67-.81,2.56-2.75,1.69-4.44-.78-1.5-2.28-2.65-3.67-3.56.53,0,1.46-.22,2.11.05,2.53,1.05,5.7,4.93,5.71,7.98Z"/>
      <path class="cls-61" d="M98.35,110.32c-2.36.33-2.36-2.33,0-2v2Z"/>
      <path class="cls-110" d="M118.32,158.71l8.08,4.25c-1.48,1.61-3.61,2.69-3.57,5.8,4.3-3.13,7.52-4.42,11.51-2.44l.02,2-.03,8.17c-.86-.1-2.87-.1-4.01.79-.94.73-1.08,2.56-.61,5.34-3.2-1.03-5.58-1.86-8.27-1.81.86,3.29,1.29,4.51,1.81,4.85s2.94-.96,3.94-1.31c2.28,1.79.04,6.08-2.51,7.56-1.91,1.11-5.7-.72-8.01-1.01l-4.35-.56c-1.11,1.41-3.1,2.08-5.94,2-1.2-.42-2.44.8-2.04,2-.5,1.85-1.19,1.79-2.05-.03-3.17-.44-2.9-8.83.06-9.97.57-1.75,1.24-1.72,2,0,3.53,3.17,13.74,2.82,16.38-.11-6.93-.39-14.07-10.1-9.62-13.84l-.76-2.63c-.28,1.78-.85,1.76-1.7.08-2.33-1.15-1.66-2.34,2.02-3.58l-6.71-2.29c.55-2.22,3.35-3.42,8.4-3.59.88-1.84,4.83-1.63,5.96.36Z"/>
      <path class="cls-247" d="M129.09,175.4l-4.03,3.09c-1.38,1.06-3.33-.31-2.94-1.24.71-1.68,1.64-3.02,1-6.33l5.96,4.48Z"/>
      <path class="cls-247" d="M112.32,190.32c.24.79-.26,2.86-1.09,3.06-1.4.33-3.68-.65-4.85-1.06,1.08-2.15,3.76-2.46,5.94-2Z"/>
      <path class="cls-237" d="M116.67,190.88c-2.48,2.58-.83,4.8.06,6.64,1.59,3.26,5.22,4.89,9.2,5.67l6.39,5.51-2.34,6.33c-.74,2.02-5.18.13-6.86-.1-.9,2.6-.78,5.5-1.99,7.33l-6.79.09-2.36,1.76c-.42.07-1.39.33-1.78.15-1.11,1.4-1.07,2.75.14,4.05v4c-.59,1.31-1.26,1.29-2,0-.68-1.13-1.26-1.05-2.03-.03.31.68-.34,1.34-1.96,1.98.84,1.95,1.75,3.92,2,6.08-.61,1.22-1.28,1.18-2.01-.03h-2s0-24,0-24c.85-5.19,1.97-6.1,3.35-2.74l4.65-1.05c-1.97-.93-3.29-2.32-3.99-4.17-3.03-.05-2.96-3.28,0-4.07-.24-1.86,2.11-3.3,4.03-3.96-1.46-1.06-1.4-2.45.16-4.16l-6.21-1.84c-1.84-3.64-.93-4.87,2.04-2l5.94-2c1.16-1.52,3.67-1.34,4.35.56Z"/>
      <path class="cls-94" d="M110.21,224.26l.14,4.05c-1.3.68-6.09.69-6.05-1.98s4.52-2.71,5.91-2.07Z"/>
      <path class="cls-207" d="M108.34,232.31h2s.02,2.01.02,2.01l-6.01-.06c-.47-1.1.74-2.33,1.96-1.98.69-1.04,1.37-1.03,2.03.03Z"/>
      <path class="cls-178" d="M111.99,224.11c.35-.75,1.49-1.74,2.36-1.76-.37.98-1.4,1.61-2.36,1.76Z"/>
      <path class="cls-147" d="M110.55,196.15c.62.64,2.14.8,1.51,2.65-.2.59-1.25,1.17-1.67,1.51-2.55,1-3.9,2.32-4.03,3.96v4.07c1.37,1.33,2.7,2.72,3.99,4.17-1.33,2.16-5.47,2.77-8,3.8l-.06-22.02c.64.07,1.46.14,2.05.03l6.21,1.84Z"/>
      <path class="cls-236" d="M121.68,218.43c-6.12,3.07-12.55,3.24-18.84-.17,6.31-3.04,11.59-3.48,18.84.17Z"/>
      <path class="cls-178" d="M108.34,232.31c-.62,0-1.41.14-2.03-.03-.3-2.33,2.36-2.33,2.03.03Z"/>
      <path class="cls-169" d="M110.39,200.32c.04,1.17-.28,2.85-1.36,3.52-.79.49-1.9.57-2.67.44-1.79.02-2.69-2.33-1.97-3,1.86-1.73,4.45-1.13,6.01-.96Z"/>
      <path class="cls-122" d="M110.34,212.52l-4.89-.25c-1.56,0-2.01-3.65.91-3.92,1.25-.51,3.35-.09,3.93.94.35.62.42,2.63.05,3.23Z"/>
      <path class="cls-211" d="M110.55,196.15c-2.34.79-5.73.73-6.21-1.84,2.46-.49,4.56.14,6.21,1.84Z"/>
      <path class="cls-255" d="M110.35,90.32h2s6.2-.04,6.2-.04l-.2,4.04c-3.34,1.49-7.28,2.13-11.81,1.92-2.94,3.58-4.4-2.97-2.25-5.98-.17-3.09,5.26-2.88,6.06.06Z"/>
      <path class="cls-162" d="M118.35,94.32l2.05,2.23-5.83.02c.43,4.79-.61,4.63-4.19,1.77l-6.23,1.85,2.84,1.02c6.24-4.49,10.82.18,5.53,5.28l-2.04-.04-6.12,1.88h-2s0-18,0-18l1.94-.06c-.23.68-.3,3.21.59,3.47,4.7,1.38,9.29.51,13.47.59Z"/>
      <path class="cls-58" d="M114.56,96.57c2.11,3.51,3.2,7.88,2.21,11.74-1.25.54-4.24-.26-4.27-1.84-.04-2.09.44-4.43-1.16-6.18-2.2,1.8-3.84,1.73-5.48,1.66-.68-.03-1.76-.18-1.72-1.78l6.23-1.85c.96-1.4,2.57-1.76,4.19-1.77Z"/>
      <path class="cls-214" d="M118.4,124.25l-14.06.06c3.52-3.11,10.47-3.11,14.06-.06Z"/>
      <path class="cls-138" d="M84.52,282.68c.56,2.56,1.17,5.18,1.84,7.86,6.58-1.07,8.68-2.75,6.3-5.03h4.13c1.82,2.38,3.2,4.74,3.62,7.94.38,2.91-.77,6.02-3.98,6.84l-11.17-1.9c-3.88-.34-6.84-1.15-8.89-2.44-.92-6.29,2.26-12.78,7.99-15.64,2.56-.22,2.66,1.19.16,2.37Z"/>
      <path class="cls-70" d="M92.37,264.34c.01,6.02-1.81,13.09,1.93,17.95-.54,1.75-1.2,1.73-1.96.01l-3.29-1.58c-2.56-23.44-2.79-46.91-.69-70.41.57-1.75,1.23-1.72,1.99,0,.67,17.83,1.34,35.84,2.01,54.03Z"/>
      <path class="cls-172" d="M96.43,300.29c-1.08.73-.96,1.48.35,2.23.15.92-1.28,1.82-2.45,1.86-6.51-1.86-11.18-2.53-13.99-2.03-2.29-1.32-3.6-3.81-3.97-6.4,3.79-2.48,8.68.1,13.79-.18,1.5-.08,5.18-2.98,6.49-.37.59,1.16-.39,3.82-.22,4.9Z"/>
      <path class="cls-41" d="M92.34,250.31l.03,14.03c-.82.09-2-.74-2-2.13v-51.9c.55-1.75,1.22-1.72,1.98,0,1.62,12.4,1.58,27.42,0,40Z"/>
      <path class="cls-48" d="M86.34,262.31c-.57,1.75-1.23,1.72-1.99,0v-46s2,0,2,0c1.65,14.45,1.47,31.31,0,46Z"/>
      <path class="cls-116" d="M94.34,212.31v38s-2,0-2,0v-40c-1.3-.59-1.28-1.26,0-2,.57-1.75,1.25-1.72,2.02,0l-.02,4Z"/>
      <path class="cls-54" d="M92.34,282.3h1.96s2.49,3.22,2.49,3.22c-.93,5.11-6.79,5.16-10.43,5.01l-1.84-7.86-.16-2.37v-8c.57-1.74,1.23-1.71,1.96.03.36,5.46,2.37,8.78,6.02,9.97Z"/>
      <path class="cls-138" d="M94.33,304.37c-4.75.16-9.78.39-13.99-2.03-.03-.71-.24-1.83.05-3.01.3-1.26,1.6-1.2,1.96-.02,1.06,3.42,8.98,1.84,11.98,5.05Z"/>
      <path class="cls-43" d="M86.31,272.34l-1.96-.03v-10s1.99,0,1.99,0c1.62,2.07,1.37,7.52-.03,10.03Z"/>
      <path class="cls-96" d="M96.78,302.52c-2.64.76-3.06-2.82-.35-2.23l.35,2.23Z"/>
      <path class="cls-198" d="M92.33,42.3c.06.55.17,1.54.04,2.06-.42,1.63-2.21,4.92-1.37,7.16,4.52,12.15-1.16,24.63-.31,36.45s1.13,20.98-1.58,32.77l-1,37.49c1.81.39,1.86,1.09.25,2.08-.59,1.34-1.26,1.31-2.01,0v-46s0-26,0-26c1.34-.22,2.11-1.71,2.11-3.87v-40.26c0-2.15-.76-3.65-2.09-3.86.71-1.83,2.65-2.32,4-1.16,1.05.9,1.65,1.98,1.97,3.13Z"/>
      <path class="cls-227" d="M94.92,158.14c-2.41,1.26-4.46,2.15-6.56,2.17l-.25-2.08c6.18-7.21,3.14-17.04,3.67-26.27l1.04-18.21c5.75,5.42,1.61,13.46,1.72,20.39l.38,24.01Z"/>
      <path class="cls-225" d="M95.99,102.4c-3.02-6.44-2.44-15.63.36-22.08l-.36,22.08Z"/>
      <path class="cls-131" d="M90.37,170.26c1.59,12.44,1.56,27.45-.02,40.05h-1.99c-1.32-.58-1.3-1.25-.01-2-1.63-14.4-1.59-31.39,0-46,3.01,1.54,2.03,5.21,2.03,7.95Z"/>
      <path class="cls-26" d="M94.37,208.31h-2.02c-1.65-11.45-1.53-26.13,0-38l.02-7c.36-.79,1.05-1.07,1.57-1.08l.43,46.07Z"/>
      <polygon class="cls-183" points="92.35 208.31 92.35 210.31 90.36 210.31 90.37 170.26 92.35 170.31 92.35 208.31"/>
      <path class="cls-155" d="M88.35,162.31c-.46,1.82-1.13,1.77-2,0v-2s2.01,0,2.01,0v2.01Z"/>
      <path class="cls-240" d="M88.35,208.31c-.57,1.75-1.24,1.72-2,0v-32s0-14,0-14c.62.05,1.44.07,2,0v46Z"/>
      <path class="cls-124" d="M88.36,210.32l-.18,64.14c-.01,3.89,1.56,6.4,4.15,7.84-2.02-.02-4.38-.6-5.09-2.01-1.33-2.65-.94-5.55-.93-7.95l.03-10.03v-46s0-8,0-8h2s.01,2,.01,2Z"/>
      <path class="cls-235" d="M122.52,62.52c-5.93,2.93-12.19,3.9-18.39,5.98l6.57,1.63c2.53,6.28,1.58,13.5,1.65,20.19-.57,1.75-1.23,1.72-2,0-4.12,0-4.07-3.23,0-4-2.15-2.22-4.16-2.22-6.02,0,4.03,1.17,4.05,3-.04,3.93-.49,1.76-1.14,1.76-1.94.06l-.02-8.02-.11-9.94c-1.06-2.04-1.02-4.02.11-6.05.28-1.12,0-2.79,0-3.98h2.01s18.17.19,18.17.19Z"/>
      <path class="cls-165" d="M126.36,60.29l.04,2.32-1.8.03c-.52,0-1.59-.33-2.08-.12l-16.92,2.48-1.25-2.68c-.62-1.14-1.03-2.11-.72-2.48.74-.88,20.3-1.6,22.73.45Z"/>
      <path class="cls-98" d="M102.23,72.36c-.37-.77-1.88-1.71-1.75-3.07.12-1.23,1.2-2.26,1.86-2.99l-.11,6.05Z"/>
      <path class="cls-65" d="M110.69,70.13c-2.39.69-5.66.9-6.57-1.63,2.25-.83,5.63-.69,6.57,1.63Z"/>
      <path class="cls-166" d="M110.35,86.32v4s-6.06-.06-6.06-.06c.33-1,.15-2.76.04-3.93.19-3.08,5.34-2.98,6.02,0Z"/>
      <path class="cls-112" d="M110.35,86.32h-6.02c-.55-1.5,0-3.58,1.1-3.96,1.49-.52,4.57-.14,5.69.95.55.54-.53,2.55-.76,3.01Z"/>
      <path class="cls-117" d="M111.22,77.26c-1.48.89-3.39,2.17-7.06.28.53-.31,2.14-2.81,7.06-.28Z"/>
      <path class="cls-143" d="M112.36,158.35l-8.4,3.59,6.71,2.29c.17,1.35-1.15,3.13-2.02,3.58-1.61,2.96-1.04,2.93,1.7-.08,1.76,1.96,2.07,4.43,2.94,7.15l1.99-11.09c2.85,3.76,1.1,8.79-.34,13.31l5.8,7.12c-2.32,3.47-13.72,3.09-16.38.11h-2s0-26,0-26l10.01.03Z"/>
      <path class="cls-146" d="M120.73,184.2c.48,1.43-.42,4.07-1.66,4.09l-6.72.11-6.56-.28c-1.25-.05-2.19-1.99-1.44-3.81l16.38-.11Z"/>
      <path class="cls-206" d="M108.64,167.81l1.7-.08c.6,1.44.54,4.12-1.74,4.68-2.11.52-3.61-.2-4.25-1.08s-.14-2.76.95-2.94l3.35-.58Z"/>
      <path class="cls-126" d="M110.67,164.23c-2.4.68-5.78.89-6.71-2.29,2.65-.21,5.83-.17,6.71,2.29Z"/>
      <path class="cls-53" d="M104.76,176.81c.61-.82,3.43-.77,4.4-.51.84.22,1.97,1.43,1.15,2.94-.97,1.78-2.18.97-2.97,1.2-2.14.61-4.14-1.52-2.58-3.63Z"/>
      <path class="cls-60" d="M116.78,108.31l-.59,2.33c-.79,3.3-1.48,6.41-2.08,9.34l-11.75.32v-12c.57-1.75,1.23-1.72,2,0l6.12-1.88c.62-1.73,1.3-1.69,2.04.04,2.66-2.46,3.75-1.49,4.27,1.84Z"/>
      <path class="cls-58" d="M116.18,110.65c.51,3.08,1.62,5.88,3.53,9.08l-5.61.27c-.58-2.16-2.56-4.56-2.56-8.16,0-2,3.65-2.42,4.64-1.18Z"/>
      <path class="cls-210" d="M110.8,115.25c-.84,1.03-3.87,2.18-6.38.25.05-.19,2.06-2.84,6.38-.25Z"/>
      <path class="cls-56" d="M110.46,106.43c-1.64,1.6-3.87,1.87-6.12,1.88,1.07-2.22,3.91-2.42,6.12-1.88Z"/>
      <path class="cls-187" d="M110.37,98.33c-1.33,1.93-3.71,2.61-6.23,1.85.85-2.56,4.03-2.36,6.23-1.85Z"/>
      <path class="cls-188" d="M86.35,290.53c-1.39-.06-4.79,1.02-5.95-1.03-.52-.93.4-3.14,1.49-4.23l2.62-2.6c2.61,1.06,5.54.77,8.92,3.37-2.67,3.15-5.4,2.88-7.08,4.49Z"/>
    </g>
  </g>
</svg>