<svg xmlns="http://www.w3.org/2000/svg" id="Layer_2" data-name="Layer 2" viewBox="0 0 400.59 401.41"><defs><style>.cls-1{fill:#675d5a}.cls-19{fill:#4d3e3a}.cls-31{fill:#968780}.cls-58{fill:#817672}.cls-88{fill:#392d2b}.cls-101{fill:#615552}.cls-103{fill:#413633}.cls-124{fill:#3c3533}.cls-131{fill:#9a8d87}.cls-183{fill:#29211f}.cls-199{fill:#71605a}.cls-209{fill:#3a312f}.cls-221{fill:#473a36}.cls-271{fill:#5d504d}.cls-285{fill:#463d3a}.cls-292{fill:#322a28}.cls-293{fill:#a39893}.cls-302{fill:#2b2421}.cls-304{fill:#2c2321}</style></defs><g id="Layer_1-2" data-name="Layer 1"><path d="M232.51 314.34c11.54 5.17 17.57 15.02 21.42 26.59.11-4.85 1.1-9.48 2.99-13.88-3.12-.52-2.99-9.03 0-9.82q-1.815-2.82.06-2.97l2.6-3.08c2.71 14.93-2.32 26.89 3.11 41.77-16.46-.01-16.43-16.83-24.11-24.7-3.17-3.25-7.18-5.83-8.44-10.13-1.73-5.88-3.06-8.94-.32-8.7 2.28.41 3.96 2.69 2.7 4.92Z" style="fill:#2d2522"/><path d="M321.54 263.25c.07-2-2.12-3.23-6.56-3.69l-.28-1.42c-.88-.23-.84-.55.03-.93 2.5-2.2 6.12-2.64 10.87-1.32l7.17 1.65c-2.19-1.49-2.77-3.1-1.74-4.81-2.88 1.06-4.78-2.94-3.05-5.06-4.53-1.92-10.07-4.96-12.7-8.86-2.52-.89-2.21-1.76.44-1.93l1.96-1.67c4.6 1.83 8.5 4.82 11.95 9.07l6.2 7.64c2.36 4.82 4.67 8.36 10.2 10.13 2.45.79 3.97 4.4 3.71 7.05-5.48 2-10.5.32-15.65-1.1-4.78-1.32-8.65-2.28-12.56-4.75Z" style="fill:#453833"/><path d="M325.75 337.64c1.58-1.38 4.05-1.19 7.42.57l4.54-.21.28-1.1 5.9 1.1c3.02 9.22-19.81 7.86-31.12-3.8-5.63-5.8-7.7-13.51-11.95-20.1-1.72-1.46-4.96-2.14-5.94-4.13 1.05-.61 2.47-.8 3.81-2.31-6.62-3.13-12.93-.87-20.16-2.15.04-1.89 1.61-2.65 4.7-2.28 5.28-4.83 23.43-5.19 20.63 5.26l9.76 18.56c3.3 4.21 7.34 7.74 12.13 10.58Z" class="cls-292"/><path d="M94.8 218.3c2.76.95 2.57 4.47.16 5.74 1.26 4.07-1.13 8.13-5.43 6.59-1.83 4.53-6.94 8.71-11.4 11.69l-2.25-.88c-2.55 1.15-3.1-.19-1.1-2.11l11.1-10.04c.99-1.81 1.29-3.93 1.02-6.05-13.71-.45-23.35 3.96-37.24-.81-3.68-3.04-1.72-3.45 2.26-2.46 1.14-1.41 2.88-1.78 5.2-1.1a168 168 0 0 1 28.73-3.79l2.03 1.85c1.07-4.03 6.93-3.25 6.91 1.36Z" style="fill:#251e1d"/><path d="M221.94 318.09c.36 4.78 1.43 9.26 2.67 14.2 3.26 13.02-5.75 27.38-15.59 37.13-2.17 2.15-3.25 4.33-4.49 6.64-.34 1.76-1.01 3.18-1.99 4.25.68 1.43.12 4.13.14 5.82-.58.24-1.13.4-1.63.29-8.91-1.97 3.74-21.18 7.51-24.12-.26-4.03 4.82-7.75 8.06-10.09-1.04-1.68-.73-3.82.95-6.4l.64-3.92c-1.71-7.4-2.17-14.61-1.37-21.62-3.17-.08-2.27-2.35-.52-4.19-2.81.57-2.99-1.8-.38-2.84.52-.19 1.56.12 1.98.45 1.61 1.25-.22 5.64 1.91 5.32.52-.08 1.27-.47 2.12-.91Z" style="fill:#322925"/><path d="M316.83 98.34c-2.79 1.66-3.41 6.37-3.48 9.7l-.31 14.41c-.12 5.76-2.78 11.8-7.71 15.36-1.29.93-3.81.72-3.97 2.86-.09 1.29.8 2.52 1.03 3.6 2.3.31 4.29.99 6 2.06 2.76 3.17-2.39 3.67-4.76 1.87-.58 2.66-1.82 2.44-3.03.15-1.39 6.09-3.49 4.4-5.88-.27-2.75 1.48-4.12-.82-1.88-2.98-.37-1.06-.42-2.93.65-4.12l4.22-4.71c-.09-1.45 4.17-6.11 5.36-6.85.78-.48 1.82-.31 2.75-.14 2.64-6.76 3.33-14.09 2.07-22.01-.42-4.35 2.43-12.11 6.97-11.28 2.76-1.52 3.84-.18 1.98 2.35Z" class="cls-302"/><path d="M304.73 73.18c2.31.24 2.88 1.45.95 2.86.75 3.74-3.82 3.98-6.25 2.83l-.55 1.73c-9.78 6.45-17.9 14.87-24.37 25.24l-1.79.38c-.09 3.03-3.32 4.59-5.39 2.14-.33-.9-.7-2.21-.55-3.08l14.93-20.08c5.62-7.57 14.04-11.75 23.02-12.02" style="fill:#302725"/><path d="M143.88 47.38c4.75 3.44 10.31 7.64 11.13 13.78-.04 1.27.43 2.59.7 3.86-.69 3.93-2.55 1.08-2.87-1.93h-.86c-.3 2.78-1.67 2.67-2.42.03-1.46-.05-2.42-1.18-2.86-3.39 0 0-.39 5.1-1.16 15.29l-1.95 3.24c2.39 1.66 3.53 8.92.29 9.97.83.39.78.74-.12 1.03-.63-.32-1.02-.91-1.6-2.16-.81 2.37-.37 4.75-.54 7.13-1.61-1.63-2.19-4.3-2.23-7.09l-.52-33.08c-.03-1.88-1.57-4.1-.03-5.37 1.28-1.05 3.42-1.52 5.05-1.33Z" style="fill:#342c2a"/><path d="M68.52 315.17c2.21-.24 1.71.42.39 1.98l.66 2.21c-2.33 2.62-4.82 5.86-4.5 9.53 4.04-3.62 7.98-5.35 11.81-5.18.25-2.91 3.53-2.5 3.93.35-.82 1.33-2.01 1.91-4.34 2.51 1.43.98 2.93 1.38 4.55 1.96-3.92.89-7.97 2.93-10.71 6.19l-10.02 11.93c-4.02-11.61-.59-23.54 6.1-32.73 1.9-2.1 2.81-1.44 2.12 1.26Z" style="fill:#372c29"/><path d="M82.03 112.79c2.19-2.35 5.49 1.78 5.71 4.28a125 125 0 0 1 16.9 12.1l1.22 3.31c2.66-1.01 3.5 1.42 4 3.54.46.76.66 1.74.13 2.44-3.09-1.97-6.06 2.86-8.03 3.35-.46 3.21-7.39 1.2-5.23-1.74 1.02.17 4.77-.44 4.91-1.8-1.27-9.56-12.38-10.82-22.22-20.81-1.85-1.88-3.15-3.5-2.75-6.1-1.58-5.05 3.57-1.39 5.36 1.42Z" style="fill:#211c1a"/><path d="M321.77 165.26c-6-.34 3.9-8.25 6.32-9.93 4.62-2.59 9.52-4.66 14.69-6.18-.9-1.38-.86-2.26.61-2.75-4.91-.72-9.88-1.15-14.91-1.3l-.63-1.08c-4.51-2.86.63-3.23 3.97-2.09L353.7 140c1.83 13.83-20.6 15.7-31.92 25.26Z" style="fill:#2c2420"/><path d="M365.83 212.69c1.41-1.38 3.47-1.89 6.19-1.54 5.61-1.91 11.24-3.64 16.87-5.19l1.02 1.16c1.85-1.94 2.57-1.41 1.85 1.16-3.48 5.24-9.82 5.96-15.51 7.64-3.99 1.17-6.86 2.21-11.05-.5l-7.09-.52c-2.46-1.19-4.22-1.93-6.47-1.93-3.4-2.05-6.51-1.73-10.02-.27l-6 4.33c.69-1.75 1.07-3.54 3.68-4.63.75-.58.34-1.56-.86-1.5-.63-4.43 6.82-5.55 10.46-5.34 4.59.27 13.67 3.94 16.93 7.12Z" style="fill:#3c3430"/><path d="M226.69 76.12c-.71.18-1.4.51-1.96 1.03-.31 2.66-1.23 2.54-1.99 0-1.12-.56-1.89-1.89-2.32-3.98-2.65.48-5.76-3.96-3.93-6.14-3.46-1.4-10.12-8.22-11-11.66-1.2-4.68-1.21-5.4 3.01-8.17l-1.28-2.73 2.54-9.65c-.03-3.71.93-6.56 2.87-8.52-1.26-2.97-.92-5.6 2.18-3.13-.04 8.46.06 17.4-3.28 25.77-4.03 10.08 10.48 12.31 15.17 27.18Z" style="fill:#302625"/><path d="M199.7 343.11c1.77-.17 2.58 2.46 2.24 4.17.73.4.69.74-.1 1.01 2.01 1.7 1.39 2.43-1.18 2.7-.89 5.59-3.35 6.22-5.26.66l-.69.56c-4.18 6.58-3.85 13.63-6.39 11.79-.58-.42-.77-1.17-.79-2 3.93-10.67 3.18-18.85-5.63-25.73.91-.57 1.47-1.21 2.03-2.22l2.91-.08c4.74 2.76 9.02 5.81 12.86 9.14" style="fill:#2d2523"/><path d="M207.06 6.88c.41.71.43 1.07-.42 1.26-.3 1.55-1.02 2.06-2.38 1.45-.62 6.89-2.14 13.42-4.57 19.58l-2.81.89-7.94 8.01c-1.63 1.05-2.1.42-.97-1.21l4.76-6.72c6.22-8.77 7.1-19.73 2.59-29.51 6.62-2.42 9.01 2.6 11.74 6.25" style="fill:#3a2e2b"/><path d="M141.65 323.22c2.88.02 2.61.94-.02 1.98 2.92.68 1.05 5.31-1.74 4.8-3.49 9.34-3.3 11.6.58 6.78l2.09 1c2.32-1.68 3.43.35 1.47 2.36l-5.22 8.14c-.95 1.49-3.77 2.93-5.47 1.21-2.35-2.38-2.37-6.84-1.26-9.93l6.33-17.7 3.25 1.37Z" style="fill:#362e2b"/><path d="m391.76 208.29-1.85-1.16-.66-2.15c1.95-1.28 1.18-2.42-2.33-3.42-2.82.41-4.84 0-6.04-1.21-.74 1.64-1.02 1.69-1.32-.1-2.13 3.87-12.24-1.19-10.7-5.2-2.73-.89-1.93-3.12.9-3.04l4.48 2.72c2.68 2.98 7.57 4.06 11.44 3.45l14.74-2.34c1.11 5.77-3.18 11.28-8.65 12.45Z" style="fill:#433936"/><path d="m23.89 188.44-.68 1.97c-4.76 1.29-8.66 3.65-11.69 7.08 2.56-.65 11.17-.69 12.73 1.11.56.65.58 1.63.57 2.5-.47 2.03-2.32 2.57-4.15 2.23-11.65-3.1-18.33 4.56-20.53.01-.6-1.24.87-2.15 1.55-3.17 3.03.52 5.57-4.71 5.03-6.3 1.2-1.04 2.03-2.94 4.09-3.68l10.93-3.92c1.71-.54 2.17.38 2.14 2.17Z" style="fill:#4b413e"/><path d="M63.61 142.95c2.68-1.7 8.35 4.71 6.7 7.33.48-.19.95-.33 1.42-.3.7.05 9.65 9.11 10.01 9.71l.14 2.39c1.88.6 2.49 1.36 1.85 2.3-.86.72-1.8 1.28-2.92 1.93-1.55-.22-3.38-.55-4.95-2.33l-12.12-13.82c-1.67-1.91-2.36-4.11-2.99-6.26l-.13-.45c-.4-2.84 1.88-3.08 3-.49Z" style="fill:#312825"/><path d="M24.82 201.1c1.88-2.5 8.61 1.32 7.82 4.26l2.17-.77 13.97 12.13c2.21.57 3.26 1.65 3.15 3.25-.5-.13-2.05.11-2.46.64-.25.32.1 1.2.2 1.82-13.04-4.48-19.51-16.58-28.99-19.1.74-1.85 2.46-2.45 4.15-2.23Z" class="cls-292"/><path d="M79.8 109.1c2.68-1.61 4.94 1.87 2.23 3.7l-3.61-2.17c-.47-.28-1.61.42-1.75.75-2.91-1.59-4.08-5.42-3.93-9.23.42-10.4-1.19-20.7-5.19-29.65-1.18-1.67-1.11-2.46.22-2.36 3.18-2.03 6.43 3.2 7.85 6.15l1.65 24.17 2.52 8.64Z" style="fill:#302724"/><path d="M331.94 87.28c-.93.63-2.51-1.57-1.42-2.45l-.02-2.56c4.92-4.1 8.13-12.39 7.28-18.69-.05-.4-1.14-.48-1.99-.45-1.49 1.5-2.14 1.46-1.94-.12l4.08-6.65c6.35-10.39 11.72 12.34-5.99 30.92" style="fill:#473c39"/><path d="M93.84 287.94c.03 2.92.82 5.68-.93 8.25l.59 2.56c-7.63 6.66-15.96 12.13-24.98 16.41l-2.12-1.26c2.59-3.56 5.74-6.53 9.9-9.21l10.91-7.03c3.31-2.14 4.71-6.03 3.52-9.52-.11-2.87 2.22-2.88 3.1-.2Z" style="fill:#2f2928"/><path d="M54.89 253.32c4.34-.37 8.72-.21 13.13.48 4.73-.66 8.99-.32 12.8 1.03.4-.72.71-.66.94.15 2.93-1.32 8.67-3.66 9.97.14-.19.8-1.11 2.02-2.01 2.01-.92 1.46-2.84 2.08-5.78 1.85l-19.56-.16c-4.81.74-11.32 2.22-16.55.99-2.75-3.05 2.46-6.73 4.6-8.55 2.28-1.89 3.55-.56 2.47 2.06Z" style="fill:#39322f"/><path d="M84.82 66.98c.56 1.69-.02 1.76-1.2.42-3.06 3.06-11.22-1.27-13.98-4.45-.96 1.38-2.81 1.45-5.56.23.08 1.83-.1 2.72-2.21 3.07-1.8-1.39-5.36-2.65-7-3.91-.74-2.98 2.91-4.65 4.55-5.32 1.17-.48 21.37 4.51 25.41 9.96Z" style="fill:#49403d"/><path d="M343.89 338.01h-6.18c-4.64 2.58-11.43-3.32-9.64-7.95-3.1.66-6.05-7.26-4.78-9.61-1.72-.59-1.5-1.4.41-1.26 1.08-2.23 1.42-4.66 1.02-7.28l.98-.68c.39-.2 1.16-.21 1.46.02 1.37 1.06.17 18.74 12.72 25.78 1.08.61 3.71.07 4.01.99Z" style="fill:#3d3330"/><path d="M245.59 72.87c2.9-.69 3.46 2.01 1.01 3.48-.45 1.69-2.29 3.17-4.14 2.72 1.01 2.48-2.99 7.38-5.78 6.95-.73 6.23-2.35 8.27-4.84 6.13.13-.32.07-1.39-.24-1.56-1.18 0-2.14.11-2.81-.17-1.05-.43-2.06-1.77-2.07-3.25l-.04-7.03 3.36 9.06c2.14-1.61 3.11-3.98 4.24-6.51 2.27-5.08 6.36-8.52 10.2-11.6 2.33-1.58 2.95-.2 1.12 1.78Z" style="fill:#322b28"/><path d="M131.06 94.94c2.18 1.77 1.33 2.92-1.33 2.17l-2.38.83c-6.09-2.46-12.72-2.88-19.9-1.26-3.3-.06-5.18-1.24-5.64-3.56-2.37-1.48-1.58-2.65 1.11-2.04 12.2.73 17.02-4.74 28.12 3.86Z" style="fill:#352c2b"/><path d="M194.65 392.16c1.09 1.2.63 1.88-1 1.9l-3.69-3.04c-1.6-2.68-4.02-5.51-4.01-9.04l.03-15.76c2.67 1.13 1.71 4.42 2.51 6.98l6.16 18.97Z" style="fill:#39302d"/><path d="M75.88 241.44c-.66 4.1-5.09 6.75-8.97 5.47-1.93 4.07-7.05 7.25-12.02 6.41l-2.47-2.06 5.65-4.8 16.71-7.13z" class="cls-124"/><path d="M57.72 190.6c1.45-1.32 2.15-1.52 2.05.62 1.88 2.33-1.39 4.89-3.64 3.21-2.96 2.31-12.04 2.13-14.28-1.5-1.14 2.47-5.08.4-5.15-2.13-2.74-.71-2.59-1.86.12-2.56-2.67-.1-2.54-1.06-.03-1.89l6.8 1.93c4.86 1.38 9.54 2.49 14.12 2.32Z" style="fill:#524642"/><path d="M170.69 84.08c-.45.12-.88.19-1.32.41-.49.25-.8.89-.74 1.57l-.95.98q-6.42-1.755-10.05-7.68c-2.66 1.4-5.23-3.62-2.99-5.46-1.17-1.16-1.45-2.1-.84-2.8-.54-2.88 1.25-3.36 2.97-1.09l13.93 14.08Z" style="fill:#413531"/><path d="m102.94 91.08-1.11 2.04c-.8 2.32-2.31 2.27-2.97-.04-3.21 1-10.37-7.49-7.15-9.99-3.39-.36-6.39-9.86-3.82-12.09-.83-.4-.78-.75.12-1.04 6.44 7.51 7.69 15.69 14.92 21.12Z" style="fill:#423936"/><path d="m369.75 192.01-.9 3.04c-.34.86-.68.83-1.03-.05-1.71-.28-3.36-.64-4.93-1.43-1.94-.98-12.91-8.9-14.08-10.12-.4-.42-1.52-2.54-1.13-3.23q.27-1.65 2.04-1.92c8 2.53 13.09 9.51 20.03 13.71" style="fill:#342b28"/><path d="M66.62 133.99c.55 2.38-1.44 3.96-5.99 4.75 1.7 2.04 1.7 3.6-.02 4.7l.13.45c-4.91-1.85-10.04-4.18-12.41-9.76 6.54-1.8 13.07-2.44 18.29-.15Z" style="fill:#352d2b"/><path d="M159.71 324.2c.09-1.56 2.62-1.53 3-.04l-18.69 15.98-1.47-2.36c-1.21-2.07 1.61-4.37 3.24-5.56.49-2.62 5.67-6.48 8.29-5.77-.78-1.78.5-3.34 3.83-4.68.13-.82.33-.84.59-.05-.42 1.05.03 2.51 1.21 2.49Z" style="fill:#2f2724"/><path d="m89.71 257.13.2 2.21c-8.18 3.12-17.13 2.37-25.55-.51 3.13-.48 5.87-2.06 9.55-1.99l15.8.3Z" style="fill:#1f1714"/><path d="M347.63 178.13c-.66.86-1.96 1.53-3.91 2.02-.12.54-.26.96-.45.99-3.07.39-9.46.47-11.55-.99-.03 1.51-1.64 1.5-2 0-1.95-.36-3.34-1.05-4.17-2.06.41-1.09 1.51-1.99 3.14-1.99l16.03.04c1.56 0 2.62.93 2.91 1.97Z" style="fill:#3b3431"/><path d="m80.84 178.31-.27 1.64c-3.57.34-6.72 1.23-9.45 2.66-1.13 2.96-2.63 4.08-4.5 3.37-.62 3.22-3.49 7.28-6.86 5.25l-2.05-.62c4.2-5.52 8.75-11.09 14.86-14.34 1.72 2.69 5.33 2.04 8.26 2.04Z" style="fill:#453b39"/><path d="M323.53 291.06c-.26 1.45-.93 2.83-2.02 4.14l-2.5-.6-4.7-7.62c-2.98-2.35-4.84-4.83-5.57-7.45.99-.67 1.57-1.39 2.11-2.61 5.42 3.4 10.13 8.06 12.68 14.15Z" style="fill:#3d3432"/><path d="M330.85 88.42c-3.34 4.84-9.17 7.02-14.02 9.92-.51-1.1-1.05-1.76-1.98-2.35-.3-.66-.51-1.2-.37-1.32 3.59-2.93 9.05-6.66 13.06-9.05.21-.13.66.15 1.18.55 1.46-1.21 2.85.81 2.12 2.25Z" style="fill:#322c2a"/><path d="M214.8 23.17c-1.47.36-2.21 1.68-2.18 3.13-2.66.62-3.69-.85-3.08-4.42-.29-3.21-1.24-6.17-2.87-8.85-3.21-.17-3.2-4.68-.02-4.89l.42-1.26c3.72 4.96 7.77 9.75 7.73 16.29" style="fill:#413937"/><path d="M268.95 65.25c-1.72-.5-2.32-1.91-2.44-3.36.7-1.87 1.01-4.87-1.07-6.12-.59-.35-2.55.25-2.74-.58-.74-1.81 1.6-6.41 3.55-5.8 4.94 3.78 4.45 11.07 2.7 15.86" style="fill:#2c2624"/><path d="M325.7 311.22c-.04 2.81 1.06 6.54-2 7.96-.87-.32-.84-.66.03-1.03l-1.24-2.4c.58-5.84.24-11.32-.99-16.46-2.97-.2-2.77-3.4 0-4.1.66-1.64 1.12-2.63 2.43-1.09 1.42 1.46 1.98 3.56 1.94 6.01l-.18 11.1Z" style="fill:#2f2624"/><path d="m331.82 141.93-2.59.16c-.87.06-1.92.55-1.38 1.92-1.5 1.81-8.32 1.71-10.13.11-2.37-.35-4.08-1.06-5.11-2.14 5.84-3.2 13.39-3.1 19.21-.05" style="fill:#48403d"/><path d="m93.84 287.94-3.1.2c-1.71-5.05-2.33-10.2.11-14.99 1.81.87 2.87 2.74 2.9 5.05l.1 9.74Z" style="fill:#1e1714"/><path d="m321.54 263.25-21.89.33c6.24-3.65 15.68-4.25 21.89-.33" class="cls-302"/><path d="M70.97 135.91c4.77 2.1 9.5 4.02 14.71 4.2-1.38 1.88-3.77 2.35-6.03 2.14-1.84 2.12-4.51 1.71-4.69-1.32-5.05.52-7.56-.52-7.53-3.13.9-1 2.14-1.59 3.54-1.89" style="fill:#3b322e"/><path d="M312.61 141.99c2.11-.19 4.26 0 5.11 2.14-.07.95-1.07 1.37-3.02 1.28l-2.03.79c-1.45 2.29-2.81 2.45-4.29.13-2.51.77-5.39.77-6-2.06 2.15.15 3.73-.92 5.58-2.03 1.53-.92 3.48-.15 4.63-.25Z" style="fill:#1f1815"/><path d="m36.79 186.35.03 1.89c-.1.7-.22 1.26-.42 1.29-1.52.23-11.47.68-11.86.24-.31-.36-.5-.82-.65-1.32-.71-.2-1.44-.38-1.83-.94-.21-.29-.3-.8-.31-1.24 4.92-1.77 10.05-1.34 15.05.08Z" class="cls-304"/><path d="M253.59 63.77c2.23-.72 2.3-.5.98 1.4 3.34 3.23-6.39 11.83-8.98 7.7l-1.12-1.78z" style="fill:#483f3b"/><path d="M138.62 102.19c.22.54-.37 1.52-.96 1.81-3.61 2.55-6.17-1.51-6.04-4.79-1.99 2.06-3.46.24-1.89-2.1l1.33-2.17c2.7 2.1 6.1 3.66 7.56 7.25" style="fill:#29211e"/><path d="M1.69 200.18c1.57-2.37 2.91-4.47 5.03-6.3.72-.02 2.04 1.4 1.71 1.91l-4.74 7.32c-.85.47-2.55-2.17-2-2.93" style="fill:#2c221f"/><path d="M330.73 65.07c2.65-.79 2.75.72.7 2.16 2.22 3.4-2.48 8.44-5.76 5.76-1.97.03-2.94-.06-1.58-1.87 1.91-2.26 4.2-4.45 6.64-6.06Z" style="fill:#554a45"/><path d="M318.71 71.18c3.01 1.59.45 3.26-2.15 2.78-1 1.11-7.86 1.06-8.37.58-.3-.29-.43-.76-.51-1.29 2.91-2.98 7.29-2.04 11.03-2.07" style="fill:#8a7269"/><path d="M272.61 309.98c-4.7 0-9.73-3.03-10.85-7.79 4.01 1.84 7.78 4.63 10.85 7.79" style="fill:#453a38"/><path d="M99.76 263.02c.38 0 .88.07 1.33.34.5.3.75 1.06.58 1.74-5.01 2-4.74 5.9-7.15 2.84 1.49-1.73 2.11-4.92 5.24-4.92" style="fill:#211a18"/><path d="m351.64 212.97-10.02-.27c1.47-1.12 2.36-2.71 4.7-2.61 2.19.09 4.4.68 5.31 2.88Z" style="fill:#453a36"/><path d="M86.01 174.39c-2.25 2.56-7.32 3.98-10.42 1.51 2.56-2.85 6.83-1.76 10.42-1.51" style="fill:#372f2d"/><path d="M282.9 310.07c-.85 1.88-2.55 2.27-4.64 2.16-1.33-.07-3.02-.27-3.23-2.25 2.63 0 5.33-.86 7.87.09" style="fill:#312b29"/><path d="M315.68 178.15c-4.05 2.96-6.21-3.1-2-4.14 1.55-1.15 3.15-2.28 5.24-2.75-1.31 2.14-2.64 4.46-3.23 6.89Z" style="fill:#51433e"/><path d="m188.95 38.07-3.08 5.54c-1.37-.56-1.99-1.48-2.37-2.31l4.47-4.45.97 1.21Z" style="fill:#332b29"/><path d="m293.61 309.9-6.85.17c-.05-.98.56-2.65 2.05-2.77 2.11-.17 3.82 1.28 4.8 2.6" style="fill:#2d2624"/><path d="M335.78 63.13c2.39 1.59.36 4.12-2.02 4.02-.07 2.81-1.49 2.7-2.34.08l-.7-2.16 3.12-2.06z" style="fill:#342723"/><path d="m67.77 70.14-.22 2.36c-1.78-1.88-4.7-4.09-5.7-6.25 2.33-2.57 7.15.73 5.92 3.89" style="fill:#1e1613"/><path d="M258.9 61.8c-.9.05-.95-.24-.22-.83.2-1.05.5-3.32 2.13-3.74.7-.04 1.72.99 1.51 1.53l-3.42 3.05Z" style="fill:#423732"/><path d="m258.68 60.97.22.83c-1.1.98-2.25 1.66-1.92 3.32-.29 2.79-1.65 2.69-2.41.05-.45 0-.91-.77-.98-1.4 1.42-1.14 3.02-2.83 5.08-2.81Z" style="fill:#2e2520"/><path d="m347.63 178.13 2.08.16c.12.29.09.9-.15 1.27-.36.57-1.2.75-1.89.66.36 2.13-3.3 1.54-3.96-.06.51-1.69 2.23-2.15 3.91-2.02Z" style="fill:#181211"/><path d="M88.01 69.96 87.89 71c-1.41 3.96-7.22-.89-4.28-3.6.3-.32.72-.33 1.2-.42.69.93 2.3 1.93 3.2 2.98" style="fill:#362823"/><path d="m204.53 380.27-2 .05c-1.09-2.29 1.29-2.94 1.99-4.25v4.2Z" style="fill:#4a3c37"/><path d="m323.53 291.06.41 3.05c-.65.43-1.44.94-2.43 1.09.24-.85.06-2.21.37-3.3.15-.53.78-1.08 1.66-.84Z" style="fill:#211816"/><path d="m330.52 84.83 1.42 2.45-1.08 1.14c-.37-1.05-1.07-1.89-2.12-2.25-1.18-1.25.62-2.39 1.79-1.34Z" style="fill:#201916"/><path d="m162.71 324.16-3 .04c-.24-.69-.07-1.75.54-2.01.74-.32 2.08-.1 2.44.44.21.32.12 1.13.03 1.53Z" style="fill:#17110f"/><path d="M212.8 306.95c1.3-1.64 3.51-2.41 6.64-2.31a47.6 47.6 0 0 1 15.5-2.13l2.19-2.48c11.01-2.16 19.84-8.76 28.56-15.3.93-.7 1.91-.96 3.1-.6q5.19-7.335 7.44-3.15c-3.07 5.27-6.92 9.99-11.53 14.13-.38 1.24-.42 2.67-.13 4.28 1.91-.33 3.98.4 6.23 2.19l6.88 1.78.87 2.19c4.76-.41 9.51-.9 14.25-1.46 8.76 1.29 10.17 7.61 2.1 5.92l-1.27-.08c-2.96-1.25-4.37-1.78-6.85.17-1.14.03-2.74.42-3.86 0-2.28 1.12-5.92 1.59-7.87-.09h-2.41c-4.14-1.72-8.04-4.25-10.85-7.79l-4.15-1.91 1.97 10.89c-.09 3.07-.95 4.1-2.6 3.08q-2.385-.915-3.42-4.59l-3.27-3.16c-4.91 4.07-15.89 8.03-20.48 2.91-.28.87-.47 1.56-.57 2.08 2.35 3.16 2.64 5.36.89 6.61-2.43-.74-4.63-2.55-7.6-2.8-.76.14-.9 2.24-.59 2.78-1.58 5.04-3.33 3.92-5.25-3.35l-.76-1.51c-.37 1.73-1.76 2.41-3.25 3.12-8.2 3.91-23.91.89-32.32-1.96-.52-.02-1.87 3.53-1.6 5.28.58 3.82 3.37 8.66 5.65 11.92l-.48 2.46c2.12 2.22.69 3.7-2.03 2.22-7.31-5.71-9.01-14.94-8.6-24.59l-10.59 12.48c-1.27-1.16-1.46-1.18-3 .04-2.19 2.48-2.59 1.65-1.21-2.49-.48-1.83.41-3.87 2.65-6.11l1.06-3.79c-6.38 3.29-11.66-.02-15.82-9.95 1.48 8.75-.09 15.87-4.74 21.36-1.6 2.41-3.57 1.5-3.25-1.37 1.72-4.8.38-15.93-.58-23.82-2.01-1.01-5.31 1.23-6.16 3.08-7.46 16.22-23.14 25.33-41 25.21l-9.64 2.19c-8.24.96-7.13-3.26-.22-4.47l.83-2.16c11.07-1.08 21.75-3.26 32.02-6.55l.16-2.25c6.04-5.92 11.33-12.75 15.87-20.47l-.1-3.44c-2.5 1.07-6.97-1.22-5.65-4.17l-2.05.64c-3.6-4-7.17-8.03-10.73-12.07l.56-2.39c-2.46-2.28.18-6.42 3.33-5.37 1.56.11 2.81.77 3.89 1.85 13.32 13.38 22.35 22.24 40.05 30.18 8.95 4.02 16.99 5.88 25.89 7.81l27.93 1.28Z" style="fill:#1e1816"/><path d="M268.95 65.25c-4.31 11.78-7.02 23.86-6.08 36.85.11 1.49.38 2.7 1.44 3.19.72.34 1.68.22 2.48-.01 2.66.14 2.76 1.71.55 3.08.7.79.76 1.64.13 1.59-2.1-.17-.11-1.11 1.71-.67 2.55.62 7.37 3.58 9.72 5.2 5.78 4 14.89 13.71 19.36 19.42l-.54 2.37.79 2.11a542 542 0 0 0-5.66 6.72c-.15 1.93-.91 1.9-1.3-.04-3.94-1.77-4.6-5.57-4.99-9.02-2.05 2.13-7.61-3.72-5.81-6.2-2.24.71-4.52-.72-6.86-4.31-1.02-.79-1.49-2.25-1.4-4.38-.8 1.68-2.53.32-1.93-1.23l-2.3.57c-3.59-2.87-6.38-6.02-8.36-9.43-2.25 2.46-7.12-1.38-5.11-4.26l-.5-2.32c1.8-.45 3.29-1.17 4.46-2.18-2.89-.4-2.5-4.73-1.07-6.42.02-7.48.37-14.44 2.66-21.78.52-1.68 3.94-10.89 4.4-11.3.48-.43 1.11-.7 1.77-.93 1.91-.41 2.59 1.81 2.44 3.36Z" style="fill:#342927"/><path d="M308.8 174.16c2.48 1.52 3.4 5.24.75 6.97 2.04-.11 2.34.88.9 2.95.18 5.33 1.04 10.34 2.58 15.01 2.5 1.18 2.44 3.28 2.33 5.76l-2.14 14.69q3.3-.3 5.34 1.62c-.25-2.17 1.24-3.3 3.14-2.06 5.37-2.09 10-5.47 14.5-8.99l2.24.81c4.67-1.29 2.44 1.74-.61 3.51l-2.21 2.62c-1.72 4.36-6.56 7.26-11.27 8.7l-13.52 4.13c1.69 3.11 4.37 4.35 6.85 5.34 1.34 2.48.42 3.17-1.96 1.67-1.66 2.77-4.61 2.76-3.89-.9-1.34.41-2.39.2-3.16-.63-1.14 1.92-2.37 2.58-3.69 1.97-2.67.45-2.52-1.6-.97-3.23l-2.21-.75c1.31-16.01 2.62-32.07 3.93-48.17l2.09-1.01c-1.74-1.54-2.24-5.45-1.91-7.77-2.63.15-2.76-2.85-1.1-4.52-1.64-.86-2.8-5.64-2.71-7.5.17-3.63 3.56-1.86 5.24 1 1.4 2.38 3.96 7.69 1.47 8.79Z" class="cls-304"/><path d="M181.33 51.96c-1.62 7.1-.98 13.38 1.93 18.82l-.99 2.34.89 5.53c-2.68 9.77 2.32 12.97 15.01 9.59l1.54 1.87c7.53-1.01 15.09-.91 22.69.3l2.47-1.22c-1.16-.23-1.23-.56-.18-1.14-1.98-.42-2.86-1.46-1.02-2.26-.46-3.59-.11-6.47 1.05-8.65-.41-2.15.45-2.6 1.96-1.03.37 1.16 0 2.86 0 4.02.05 4.46 1.22 7.69 3.51 9.7 3.02-1.62 4.2-.09 1.65 2.32 1.95.35 3.81 1.36 5.6 3.02 2.87.84 10.19 3.14 5.22 5.97-.89.51-3.49-.24-3.87-1.32-2.35 2.39-5.21 3.58-5.96-.5-.42.16-.84.29-1.27.32-1.61.13-11.23-.48-8.81-4.48-2.63 0-5.99-.12-7.94-2.03-.09.78-.33 1.94-.89 2-3.97.43-13.73.43-17.73.02l-1.44-2q-4.875-.915-9.87-.33c-2.72 2.32-10.5.98-12.88-1.99-2.71.71-3.76-.08-2.09-2.57-2.28-.56-2.71-1.3-1.29-2.21-2.57-2.64-.8-4.16 2.06-1.98 1.65 1.67 3.51 3.34 6.39 4.73 2.13-6.7.28-12.94-.08-19.67l-.79-14.88c-.17-3.27 2.9-6.39 3.75-9.11 6.95-6.26 7.04 5.73 1.36 6.82Z" class="cls-183"/><path d="M266.51 61.89c-3.15 8.37-6.38 16.86-7.7 26.25l-.07 14.18q-3.3 4.335-10.47-1.89a85 85 0 0 0-9.2-4.49c-2.77-.97-5.21-2.62-2.43-4.89l6.06-9.38c3.25 2.06 6.37 2.73 9.37 1.99l1.59 1.49 1.68 1.14c-1.29-5.6-.14-9.9 3.45-12.89l-1.09-2.18c1.54-1.77 2.61-3.7 3.2-5.78-1.57.69-2.88.59-3.92-.31-3.3-.32-.6-3.45 1.92-3.32.73-1.53 1.37-3.05 1.91-4.57.44-.5 1.18-1.65 1.9-2.03 4.04-5.37 9 5.33 3.81 6.7Z" style="fill:#6c5b56"/><path d="M143.76 89.27c1.64 1 2.46 2.93 2.45 5.77q2.235 3.72.84 6.27c3.04-.74 4.25 2 1.59 3.59 2.69 1.03 1.64 3.08-1.15 2.68-.18 2.61-3.49 4.37-5.91 4.59l-.23 1.28c-5.92 4.56-11.81 9.23-17.68 14l-.07 2.33c-3.53 3.03-6.7 6.44-9.52 10.24l-2.41-.4c-1.77 2.01-2.48 1.38-1.7-1.16-2.09-.86-1.92-1.12-.13-2.44-.46-.67-1.12-1.69-.76-2.19 2.66-3.65 16.73-20.82 19.39-22.58.66-.44 1.63-.13 2.42.14l-.68-2.09 7.43-5.29c-1.44-1.52-1.12-2.12.96-1.81.74.72 2.84 1.85 4.3.84-.57-2.95-1.51-6.04-1.31-8.79-2.16-4.08-.47-12.54 2.15-4.97Z" style="fill:#312624"/><path d="M298.55 263.39c-1.46 1.79-1.01 5.18 1.35 6.66l10.95 6.87c1.86 2.59.77 4.02-2.11 2.61l-2.25 1.09-11.73-5.02c-3.05-.97-4.32-2.54-3.83-4.72-1.76.98-2.48.92-2.16-.2-5.74 7.6-11.39 15.3-16.96 23.1-2.17.27-3.88 1.85-5.14 4.73l-2.13.87c-.7-.91-2.07-1.24-2.01-2.76.2-4.65 8.77-9.33 12.55-16.31-2.95.72-4.22 2.91-6.31 3.81-.43-.25-.82-.53-1.04-.9-.39-.66 1.27-3.52 1.89-4.52 1.28-2.03 8.64-9.09 10.91-7.39.13-2.51 3.96-7.87 6.68-6.38q2.16-.36 5.01 1.26c2.88-3.82 4.99-4.75 6.33-2.8" class="cls-302"/><path d="M198.56 361.37c.8.28 1.28.79 1.37 1.59q-6.435 7.575-5.55 16.23c.7-4.14 2.37-7.44 4.93-10.69 1.92-2.44 6.31-7.57 9.24-6.19l-7.62 13.99c-1.92 3.4-.84 7.75 1.74 9.84l.06 5.27c-1.09.79-2.2.78-3.03-.3-.13 4.75-4.9 5.88-5.05 1.06l-1.41-.03c-3.81-8.1-6.23-16.74-7.26-25.91l1.55-4.22 1.6-.1 3.23-9.66 2.35-.03c.51-.66 1.51-.06 3 1.82-1.22 2.99-.94 5.44.85 7.34Z" style="fill:#4e3f3a"/><path d="M304.97 237.32c2.85.16 2.65 2.01.04 2.99-1.76 4.8-3.27 9.67-4.52 14.61 1.23.72 2.25 1.55 3.06 2.5 3.86-.12 7.58.13 11.15.73l12.24 3.39c-.7 2.55-3.33 1.83-5.41 1.72-7.17-1.89-14.75-1.54-21.89.33l-1.1-.2c-2.89-.52-2.82 5.49-7.16 4.72-1.54-.28-3.1-1.41-4.17-3.18l-1.02-.91c2.93-4.85 5.66-9.83 8.2-14.93l.27-1.3c1.47-1.12 2.45-2.41 2.94-3.88-.45-.3-.86-.62-1.16-1.03-.37-.5 4.57-9.63 5.14-9.68.92-.09 1.73.32 2.43.89l.97 3.23Z" style="fill:#241e1b"/><path d="m109.98 138.46 1.7 1.16c1.49.76-2.08 10.16-2.52 10.51-.84.67-1.57 1.16-2.72 1.1 1.99 1.45.76 4.34-1.32 4.16-.6 2.65-1.4 3.66-4.06 2.37l-1.02.32c-.91 4.92-5.67 14.51-11.21 13.11-3.28-1.05-6.21-2.53-8.02-4.89-.76-2.78.32-3.08 2.92-1.93l1.11-.81c8.56 4.16 8.03-8.26 7.04-13.76l1.71-1.57c-.42-3.16 2.56-3.78 3.97-1.15 3.35-.16 4.32-.95 2.93-2.38l1.47-2.9c-.22-3.91 6.12-7.9 8.03-3.35Z" style="fill:#362c27"/><path d="M107.92 255.07c-1.43 1.38-3.28.95-5.54-1.26.03 1.59-.53 2.7-1.68 3.32l-10.79 2.2c-2.67-.3-2.68-1.21-.2-2.21q-.435-1.47 2.01-2.01c-.36-2.54 1.3-2.91 3.03-1.21-.55-1.3.11-2.55 1.98-3.73-3.55-5.27-6.39-11.1-8.51-17.5l1.31-2.05c2.4-1.73 4.9-3.59 5.43-6.59l2.29.29 9.7 23.2c2.69 3.37 3.01 5.89.98 7.55Z" style="fill:#2d2422"/><path d="M203.66 35.17c4.07.25.84 7.35-2.59 5.56l-3.28 1.64c-1.32 2.65-2.9 3.64-4.75 2.99-2.55-.72-5.56 6.53-6.21 9.12-1.21 4.81.05 8.52 1.63 13.03-.14 1.73-1.12 2.98-2.78 3.48-6.7 2-5.01-15.29-4.34-19.03l2.75-7.54c-2.19-.34-3.06.41-4.11.72.58-1.84 2.36-2.67 3.53-3.84 1.97-.68 3.79-1.76 5.44-3.24-.39-1.51 5.99-8.55 6.55-8.5.47.04.93.25 1.39.5l.85-1.11c2.32.8 4.29 2.87 5.92 6.22" style="fill:#907c72"/><path d="M106.78 267.04c2.73 2.91 1.54 6.76-2.39 5.16-1.51-.18-1.87-1.02-1.92-2.3-7.3 5.9-4.33 12.89-.31 19.81 1.01 2.45 1.75 4.57-1.23 5.39 3.05.4 1.01 7.51-1.95 7.25q-5.91 8.295-6.06-6.15c-1.01-2.15-.95-6.87.93-8.25l-1.34-.43c-.54-4.79-1.09-9.58-1.66-14.36 1.04-2.04 2.22-3.52 3.67-5.22 1.59-.69 3.51-1.92 5.76-3.68l1.39.84c-.72-5 8.84-2.42 5.11 1.94" style="fill:#433734"/><path d="M300.6 148.35c1.97.7 2.92 3.11 1.86 4.98 4.21 1.69 6.85 5.53 7.91 11.52-1.54 2.94 1.07 5.62 4.12 3.67 3.2-4.92 5.63-6 7.29-3.25.38 2.46-1.79 4.24-2.87 5.99-1.88 2.39-3.63 3.31-5.24 2.75.05 3.01-4.14 2.93-4.87.15.73-3.95-1.31-8.72-5.68-10.08-.33 3.25.7 5.73 1.68 7.79-.82 2.68-2.16 2.19-2.25-.55l-1.99-.87a87 87 0 0 0-7.16-20.48l1.32-1.88 2.47 2.96c.95-1.11 2.06-2.23 3.41-2.69Z" style="fill:#322724"/><path d="M101.05 157.76c3.1-.84 3.02 4.24.84 5.68-.41 2.92-1.64 7.61-5.17 6.65.52 3.19-.12 5.4-1.92 6.64 1.22.42 1 2.95-.25 3.24-1.88 2-4 .71-4.82-1.75-1.91 2.03-3.02 3.17-4.06-.02-1.02 1.65-3.89 2.05-4.83.11-2.69.53-9.63 1.39-8.26-2.04l3.02-.36c3.54-.13 7.01-.63 10.42-1.51l2.81-3.19c5.42-3.7 8.5-9.33 11.2-16.41 1.19.89.89 1.87 1.04 2.98Z" style="fill:#201b19"/><path d="M113.45 262.04c1.96-.61 3.61 2.55 1.6 3.79-1.47 1.76-2.57 3.39-3.33 5.37-2.24 2.59-5.1-1.25-4.94-4.16-.66-.56-.7-2.32-1.8-2.67-1.23-.38-2.28.31-3.31.73-1.49.3-2.01-.57-1.91-2.08.42-1.95 1.25-3.89.94-5.88 1.49-1.3 2.91-.66 4.26 1.93.67-2.04 1.65-3.37 2.96-3.99 3.13-1.37 7.01 4.42 5.53 6.97Z" style="fill:#2e2724"/><path d="M322.73 178.15q2.325.585 3 2.01c2.22 1.19 1.12 1.66-1 2-.62 3.18-5.82 2.6-7.02-.09-.3 1.67-1.86 2.43-4.67 2.27l-1.43 1.22c3.24 1.46 4.44 11.64 1.42 13.52-1.54-.59-2.16-2.22-2.3-3.87l-1.18-14.09c.22-3.03 3.82-3.16 6.13-2.98h7.05Z" style="fill:#312724"/><path d="M96.72 140.07c.97 1.86 3.26 2.23 5.23 1.74 1.32 1.22.89 3.07.06 4.17-1.16 1.54-2.92 1.23-4.46 1.1l-.47-1.5c-5.71-.11-11.46-.43-17.26-.96l-.16-2.37.41-1.3 5.62-.84c3.67-.39 7.38-.53 11.03-.04" style="fill:#4b3f3b"/><path d="M70.97 135.91q.54 2.565-3.54 1.89c-.34 2.13-1.6 4.56-3.82 5.15l-3 .49c-.78-2.67-2.29-4.6-4.27-7.46 4.36.28 7.94.83 10.28-1.99z" style="fill:#5c4c46"/><path d="m155.71 65.02 1.06 4.98-2.97 1.09c-1.95-.4-3.87-6.71-1.82-8.01l.81-1.44c.88-1.56.62 2.1 1.49 3.33.21.3 1.07.27 1.43.05" style="fill:#2f2421"/><path d="m324.08 71.13 1.58 1.87c1.13 2.88-6.82 4.78-8.08 2.05-1.05-.15-1.39-.51-1.03-1.09 1.16-.57 1.95-1.57 2.15-2.78l5.37-.05Z" style="fill:#362722"/><path d="M307.68 73.25c2.66 1.62 5.89.88 8.87.71.38-.02 1 .76 1.03 1.09.43 2.84-1.88 2.86-2.72.22-2.67 1.65-7.01 3.62-9.18.77-.09-.95-.42-1.97-.95-2.86.79-.02 2.27-.35 2.95.07" style="fill:#1f1512"/><path d="M325.56 178.1c1.62-.03 3.25.68 4.17 2.06.07 1.67-3.5 1.61-4 0-1.39 0-2.62-.63-3-2.01z" style="fill:#1b1614"/><path d="M202.73 391.41c.03 3.04.66 6.28-.07 10-4.68-.18-6.93-4.07-9-7.35-.05-.8.09-1.7 1-1.9 4.51 4.15 1.62-1.79 4.69-6.14 1.1 2.38 1.97 4.16 3.39 5.38Z" style="fill:#2d2321"/><path d="m290.93 270.87-.07 2.32c3.68 1.78 5.04 3.8 4.09 6.07 5.01 2.84 6.84 5.63 7.62 11.51.29 2.18-.32 4.72-2.87 4.41l-.89 2-26.47.06c9.22.45 18.54.6 27.96.46l1.37 2.23c1.2-3.22 6.04-.51 4.1 2.43 2.06-.07 3.13.84 3.75 2.68 2.72 8.91 6.09 17.24 10.12 25 2.39-.43 4.23 2 4.17 4.26 2.77-1.75 4.53 1.46 1.94 3.34-5.95-1.21-11.55-4.99-14.65-10.97l-9.11-17.54c-.72-1.38.9-4.35-.22-5.38-4.23-3.87-13.77-3.99-17.18 1.41l-6.05.36c-5.08-.9-10.67-1.81-13.98-6.15.03-4.04 4.63-5.09 6.61-7.75 5.61-7.57 9.81-15.75 17.01-21.97 1.12-.96 2.12.7 2.76 1.23Z" style="fill:#443a37"/><path d="M104.38 272.19c2.91.51 1.97 3.66-.89 3.65.91 5.42 3.2 13.72 5.61 18.57 2.07 4.16 16.02-.05 17.94-5.43l2.55.19c.59.29 1.44.55 1.78 1.02.59.8.69 2.47-.03 3.51l-9.82 14.25c-2.2 3.19-4.54 6.16-7.87 7.39-9.73 5.67-9.25-2.42-2.15-7.4-3 1.09-7.86 2.22-7.73-1.79-3.93-.74-1.9-5.07.96-6.75-1.6-1.3-2.87-2.73-3.81-4.3 1.53-5.71-7.99-12.12-4.07-21.07 1.22-2.78 3.97-6.39 7.92-7.59.35 2.75-.23 4.25-.39 5.76Z" style="fill:#64534c"/><path d="M113.66 315.34c-1.4 2.26-4.03 4.16-7.15 4.65l-25.7 4.05-3.93-.35c-4.74 2.04-10.67-3.76-4.17-5.39l1.02-2.13c7.58-2.85 15.48-4.2 23.13-4.96-1.88-2.23 4.64-7.17 6.91-5.08 4.79 2.37 8.18-1.45 12.84-1.76-2.2 4.5-5.89 7.05-9.46 10.5 2.74 1.4 4.7.56 6.5.46Z" class="cls-19"/><path d="m215.93 313.24.38 2.84c-.47 2.48-2.92 6.19-4.99 7.54-1.49.97-17.54 2.18-19.76 1.67l-2.86-1.89c-2.1 2.08-5.41-.78-4.07-3.3l-2.34.09c-.73-2.52-.61-1.53.37 2.96 3 3.08 6.37 6.03 10.12 8.84-.28 1.09 0 2.18.82 3.25 1.88-2.41 7.78 3.22 6.18 5.79q1.335 1.875-.09 2.07c-5.77-2.04-11.28-4.77-15.77-9.06-3.96-3.8-8.84-15.9-4.47-22.23 12.33 5.04 24.81 5.63 36.47 1.42Z" class="cls-209"/><path d="M158.5 321.71c-.13.08-.41.09-.59.05-2.52 1.14-3.79 2.71-3.83 4.68-1.99 2.6-4.76 4.81-8.29 5.77-.49.94-.9.95-1.21-.04-1.39-.99-1.73-2.75-1.03-5.28l-1.92-1.69c.16-.45.19-1.47.02-1.98-.74-2.31.99-4.65 2.09-6.95 2.57-5.35-1.74-15.98 2.47-16.45 3.59-.4 4.25 9.55 10.53 11.55 2.68.85 4.94-1.87 6.86-3.57 1.99 5.96-1.2 10.76-5.11 13.91Z" style="fill:#614f48"/><path d="M123.94 285.01c1.36 1.54 4.61 2.26 5.65 4.17-7.27 7.91-10.74 10.79-21.97 7.17l-4.44-13.69c-.8-2.48-.2-4.73.31-6.81l2.25.49c2.13 7.84 8.86 11.99 16.2 7.67l2 1.01Z" style="fill:#433836"/><path d="M111.72 271.19 123.94 285c-3.84 3.16-10.47 3.78-14.62.57-3.13-2.41-4.85-6.43-5.83-9.73l.89-3.65c1.86-1.01 2.53-3.04 2.39-5.16l4.94 4.16Z" style="fill:#342d2a"/><path d="m256.98 314.26-.06 2.97c-1.02 1.28-2.58.67-4.67-1.81-2.4 7.7-14.81 2.22-19.75-1.08-1.34-1.34-2.77-2.58-2.7-4.92 7.06.64 14.61.58 19.95-5.54 4.39 2.29 7.3 6.08 7.22 10.38Z" style="fill:#453936"/><path d="M292.86 111.03c1.75.94 2.73 2.86 2.96 5.78.69 2.82 1.99 4.25 3.88 4.3 2.03-1.91 7.26-6.7 8.89-1.62.69 2.14-1.79 7.65-2.77 9.8-2.33 2.55-4.52 6.3-8.11 6.98l-10.09-11.01c-6.21-6.81-12.73-12.58-22.33-15.1.54-1.09 1.44-1.29 2.05-1.81l5.39-2.14 1.56.64 11.12-14.05 2.46.16c.93-.02 2.13.28 2.24 1.08.13 5.83.36 11.63 2.75 16.99" style="fill:#504340"/><path d="M236.65 91.04c.45 4.2 8.4 4.25 16.29 9.93 1.96 1.42 3.49 2.32 5.81 1.34l.02 1.53c.01 1.44-2.87 1.24-3.98 2.97-1.04 2.88-4.41 2.12-4.02-.92-1.23 1.32-3.14 1.25-2.92-.92-1.42 2.72-7.7.13-7.18-2.8-1.19 1.32-2.27.88-1.95-.89-1.92-.35-1.86-1.13.08-1.45 1.36.05 3.5.48 3.63-2.06-5.31.23-9.36-2.16-10.58-5.62 2.47-1.32 3.68-3.77 4.84-6.13 2.75 1.25 2.05 3.35-.04 5.03Z" class="cls-103"/><path d="M344.84 203.02c.24-.89.59-.9 1.05-.07 1.79-2.7 4.14-2.69 5.71.2.7-2.89 12.25 2.93 12.67 3.51.5.7.53 1.57.44 2.39 3.1 1 3.48 2.21 1.13 3.65l-8.43-2.19c-6.45-3.98-13.07-4.05-18.96.41l-5.09 3.85c-3.58 2.71-7.41 4.77-11.66 4.34.48-1.58 2.52-2.04 3.7-3.16l10.25-9.7c-1.07-2.65.68-3.97 3.22-3.23.06-.71.29-.65.68.05 1.69-.67 3.59-.68 5.29-.03Z" style="fill:#483c38"/><path d="M311.83 235.98c.59 1.03 2.92 1.08 3.89.9l-.44 1.93c4.33 3.43 6.71 7.38 7.13 11.86a96 96 0 0 1-8.3 3.51l.62 3.03c-2.59.45-6.33.71-8.88-.14l-1.42-.62c1.61-4.15 3.46-8.33 5.53-12.56-2.11-3.94-5.56-10.59 1.87-7.92Z" style="fill:#5c4e4a"/><path d="M311.83 235.98c-1.42-.05-2.49.57-2.82 1.76-.44 1.59 1.46 2.11 2.23 3.28 2.08 3.17-.77 8.75-3.26 11.18-1.79 1.75-2.71 2.69-2.13 4.86-1.81 1.04-4.24.32-5.01-1.71-.28-.74 3.13-13.29 4.17-15.05-.31-.85.2-2.17-.04-2.99.65-.86 1.34-2.55 2.51-3.36 2.08-1.44 3.55.63 4.35 2.02Z" style="fill:#443732"/><path d="m313.67 174.01-.19 2.63c-.07.99.97 1.62 2.2 1.51-1.28 2.01-3.67 2.68-6.13 2.98-.19-2.31-1.22-4.44-.75-6.97z" style="fill:#1a1412"/><path d="M307.81 184.15c-1.89-.05-2.63-1.38-2.89-2.75-.35-1.83-.67-3.85.98-5.02 1.69 2.11 2.13 4.95 1.91 7.77" style="fill:#342a27"/><path d="M193.04 45.36c2.66 1.88.67 4.41-2.16 4.78 2.08 1.64 1.38 6.26-1.19 7.05 1.16-.12 1.92.52 2.3 1.94 3.28-.69 5.15.12 5.6 2.44 1.82-1.4 2.74-.82 3.78.95.55-7.37 10.81-1.48 7.25 2.63q.315 2.985-1.17 4.98l-1.84 1.47a73 73 0 0 0-11.02-4.82l3.02 9.2c-.62 2.45-2.52 3.38-5.72 2.8 5.28 3.29 5.27 5.54-.01 6.72-.46 3.5-7.63 2.57-9.09-.66l-.51-11.71c-3.93-6.46-3.39-14.42-.93-21.16l1.05 15.39c.05 1.06 2.14 2.04 2.82 1.8.61-.22 1.21-.81 1.36-1.59.16-.85-7.77-11.55 5.17-24.82 1.14.36 1.33 1.77 1.31 2.6Z" style="fill:#695b56"/><path d="m194.76 93.17-10.14.07c-.37.4-.13 1.64.09 1.87-1.72 3.02-9.73 3.63-12.94 2.25 1.59 1.92.5 2.44-3.26 1.56.12.48.19.94.09 1.36-.21.93-17.06 6.17-18.01 6.12l-1.95-1.5c-.41-1.32-.85-2.56-1.59-3.59-.53-1.9.82-3.19 4.04-3.86 2.28-1.06 17.92-7.83 18.92-7.62.79.17 1.49.32 2 1.02 2.93-.95 7.27 1.73 10.61 1.71 4.31-.03 8.6-1.42 12.14.62Z" style="fill:#3b2f2c"/><path d="M148.08 88.27c2.3.91 4.58 2.15 6.83 3.7 3.68-4.82 9.85-8.06 15.01-3.7l2.09 2.57-24.96 10.47c-2.5-3.45-3.77-7.84-3.29-12.04l.12-1.03c.46-2.92 3.54-2.79 4.2.03" style="fill:#554642"/><path d="M191.87 85.5c3.02-1.8 6.54-2.35 10.55-1.65 3.72-.55 6.49.21 8.32 2.28.12-.76.43-1.48 1.15-1.86 1.1-.59 8.59 1.68 10.21 2.55 1.1-1.91 2.15-.87 2.59 1.25l.18 1.14-1.31 1.13c-7.98-1.01-15.93-1.08-23.85-.2l-12.01 1.08c-1.98.18-3.92-.3-5.07-1.45-1.21-1.22-2.16-3.41-1.91-5.61l1.54-11c2.08 3.43 3.73 6.93 2.2 12.3l7.41.07Z" class="cls-103"/><path d="M217.89 78.34c1.68.33 2.59 1.52 2.74 3.58q-.525-3.705 2.1-4.77h1.99l-.04 10.9-13.95-1.93c-4.97-1.12-3.79-4.61.32-6.3-2.57-2.13-6.23-5.22-2.64-7.58-.81-1.76-.27-2.62 1.43-3.11 4.54-1.31 10.99 4.79 8.05 9.2Z" style="fill:#564a46"/><path d="m168.63 86.06 1.29 2.21c-6.5-.23-9.51-.72-14.09 6.08-3.8-.87-5.99-3.52-7.74-6.08-2.66-.15-2.64-.76-.16-1.83.4-2.16 2.13-2.02 5.2.41.37-1.43 1.24-2.32 2.6-2.66q.48-2.7 1.92-4.83l11 6.7Z" style="fill:#73615b"/><path d="M224.87 89.19c1.06 6.73-13.56-.12-25.16.92 8-2.92 16.75-2.42 25.16-.92" style="fill:#302a29"/><path d="m252.25 315.42 1.97 1.01c.01 3.6.41 7.03 1.21 10.27l1.49.35-1.02 18.61c-6.84-4.26-6.47-14.38-9.39-17.3l-14.01-14.02c6.99.71 14.16 5.42 19.75 1.08" style="fill:#5a4a44"/><path d="M256.92 317.23v9.82c-1.47 1.3-1.53 3.5-3.81 5.1l-.86-16.72c.5-.39 1.12-2.25 2.29-.9l2.37 2.7Z" style="fill:#6d5c55"/><path d="M258.79 73.4c-1.2 2.13-4.33 5.22-6.87 5.36-1.42.08-6.18-.6-5.32-2.42l-1.01-3.48c4.1-.82 7.21-3.97 8.98-7.7l2.41-.05c.82-1.08 5.25-2.96 5.74-1.24 1.04 3.99-2.86 6.94-3.93 9.52Z" style="fill:#ad978b"/><path d="M253.66 85.15c-3.71 1.74-7.81 1.52-10.63-2.21-1.2 4.14-2.95 7.12-6.38 8.11-.18-1.66-.23-3.34.04-5.03 1.35-2.73 3.58-5 5.78-6.95 4.52-2.84 16.24-.96 11.2 6.08Z" style="fill:#76665f"/><path d="M253.66 85.15c-.26-1.78-.68-3.64-1.79-4.76-3.04-3.06-6.93.94-9.41-1.33 1.05-.94 1.94-3.75 4.14-2.72 1.59.74 3.31 1.27 5.52.19l6.66-3.13c-3.05 7.33-1.26 15.01-2.26 22.94-2.72-3.67-2.36-7.68-2.87-11.19Z" style="fill:#937f75"/><path d="M315.28 238.81c5.24 1.34 9.43 5.05 12.7 8.86l-.51 1.33c-4.15 1.05.89 4.07 3.56 3.74 1.75 2.47 5.3 4.34 5.84 8.64-7.43-3.73-14.73-4.04-22.15-4.16-1.63-1.72-4.19-1.78-7.03-2.19 1.68-2.95 4.66-2.53 7.71-3.01.67-.1 1.22-2.7 1.87-2.51s2.57 1.28 3.73.51c-1.46-6.61-9.63-10.13-5.73-11.2Z" style="fill:#726159"/><path d="M327.98 247.67c1.36 1.58 1.91 3.2 3.05 5.06l-2.43 2.57c-2.89-1.82-5.49-4.25-5.63-8 1.8-.24 3.21.41 5.01.36Z" style="fill:#8d776c"/><path d="m305.85 257.07 8.88.14-.03.93c-4.1-1.13-10.86 1.33-14.96-1.29s1.48-9.66 5.27-16.56c.52 1.42-.57 2.55-1.6 3.87 4.03 8.73-5.11 12.78 2.44 12.9Z" class="cls-304"/><path d="M337.7 338.01c-4.04 4.78-9.21.19-11.96-.37-.4-1.18-1.11-2.87-1.94-3.34 0-2.43 1.68-5.06 4.26-4.24 1.94 3.67 5.73 7.87 9.64 7.95" style="fill:#54443e"/><path d="M87.88 216.93c-6.62.63-13.52-.07-20.32 2.09-5.34 1.7-10.53 2.68-15.64.95-1.1-.37-3.18-.64-4.34-1.65l-14.95-12.97c-2.1-3.25 1.04-6.54 4.9-5.09 3.16 3.55 6.86 6.49 11.1 8.8-.32-3.1 8.63-2.88 9.19.1l3.57-2.2c6.01-1.08 11.55-3.57 16.64-7.46 1.33.63 2.53 1.15 3.61 1.55l2.78-11.11 2.28-.85 2 1.13c-.34 8.27-.12 16.5.67 24.68l-1.5 2.02Z" style="fill:#504542"/><path d="m89.53 230.63 6.73 16.01 3.08 3.47c-1.12 2.34-2.92 2.97-4.59 3.8-4.5-1.28-8.61-.82-13 1.07-.25 0-.65.04-.94-.15-5.22.44-5.14-1.37-4.21-5.79-1.83.95-3.45 1.02-4.87.2-1.56 1.05-4.04 2.09-4.76-.18-2.48.25-1.59-.75-.07-2.14 3.16-1.65 6.11-3.5 8.97-5.47 3.33-2.3 7.15-4.58 9.63-8.45 1.15-1.79 3.02-1.64 4.02-2.36Z" style="fill:#524540"/><path d="M94.55 179.97c4.48.74 4.77 7.04.2 7.24-2.53 3.51-.31 8.59-.24 12.94l.29 18.15c-1.3-2.68-4.55-1.59-6.91-1.36-1.11-3.32-1.22-6.82-1.21-10.78l.04-17.06c-3-.38-2.11-6.68.82-6.83-2.18-1.86-.21-3.66 2.2-4.04 1.76.01 3.39.74 4.82 1.75Z" style="fill:#2a201e"/><path d="m216.3 316.08.52 4.19-.67 2.84c1.36 7.37-.46 11.46-5.45 12.26a50 50 0 0 0-11.8-3.25c-4.33 1.12-12.57-3.56-10.2-8.73l19.7-.77c3.33-.12 4.79-5.77 7.91-6.55Z" style="fill:#493e3c"/><path d="M216.61 352.22c-1.65 1.77-2.88 2.13-3.67 1.08l-1.39-2.82c2.41-10.2 1.7-13.01-2.13-8.42l-2.44.31-1.33.14a93 93 0 0 0-3.91-8.3q-2.73-.495-2.82-2.07c5.44-4.02 11.78 3.73 14.26.51 2.7-3.49-.1-10.62 3.66-12.37l3.14 18.81c.86 5.15-.84 9.2-3.36 13.13Z" style="fill:#645550"/><path d="M216.61 352.22c-2.27 3.54-4.91 7.14-8.06 10.09-8.12 7.61-12.45 10.02-12.83 24.33-4.36-5.61-4.84-12.89-1.19-18.76l4.04-6.5c-1.92-2.13-.12-3.66 2.28-2.18.46-1.77 1.68-2.04 3.63-.81l6.12-5.68 2.33.59c.85-.77 2.52-.87 3.67-1.08Z" style="fill:#604f49"/><path d="M131.63 99.21c1.73 1.92 3.69 3.77 6.04 4.79 1.31 4.98-4.82 5.12-6.75 7.38-1.38.75-3.12 1.02-5.21.8-3.59 2.26-7.73 3.05-12.42 2.38-1.67 3.33-1.99 7.44-.96 12.34-.57 3.94-3.7 8.8-6.4 4.16-1.93-.58-2.67-2.56-.06-3.06-1.36-1.29-1.52-3.25-.47-5.88 1.37-6.37-6.72-14.49-9.38-5.85l-2.27-.68c-2.56 2.23-8.37-2.4-6.39-5.35-1.34-2.46-2.16-4.87 1.5-4.38.68-2.9 5.46-2.67 5.9.48 1.59-2.49 6.95-.42 7.96 1.87l.43-1.09a95 95 0 0 1 17.57-1.61c-10.18-.58-3.02-9.08 3.83-8.07 3.41 2.46 5.78 3.05 7.1 1.78Z" style="fill:#554846"/><path d="m130.91 111.38-21.05 24.64c-2.56.39-2.83-2.4-4-3.54-.63-.78-.61-1.26.07-1.43 1.21.37 2.54 0 3.22-.98.56-.81 1.25-1.89 1.18-3.19l-.46-9.52c-.09-1.87 1.32-3.65 2.26-4.42 2.61-2.15 6.6 1.69 10.83-1.52 2.45-1.85 5.43-1.97 7.96-.04Z" style="fill:#514441"/><path d="m330.52 84.83-1.79 1.34-13.87 9.82c-10.8 7.64.96 22.33-9.04 33.3l1.47-7.8c.22-1.03-.92-1.67-1.33-2.03-.54-.48-2.01-.96-2.31.76-.15.87-.47 2.37-1.5 2.7-.87.28-2.07-.81-2.44-1.82q-4.02-2.385-3.09-9.3c-.06-4.36.95-8.58 3.04-12.66-1.08-1.61-.47-2.07 1.16-.96 1.48.35 2.25 1.4 2.3 3.13 6.38-7.16 13.9-13.23 22.55-18.21l.38-2.19.34-2.23c4.46-1.95 7.71-4.43 6.4-9.35-.08-.29 0-.62.14-.94.2-.45.5-.85.83-1.25-.13-1.43 1.41-2.9 2.02-4.02.88-1.61 1.63-3.19 3.95-3.96.51 9.85-1.69 20.02-9.22 25.66Z" style="fill:#4e3e3a"/><path d="M303.62 148.21c1.29.86 2.78 1.09 4.45.7l.52 1.46c9.39-1.26 22.45 2.24 7.92 9.88l-1.18-1.09c-1.27-.62-2.38-1.85-3.32-3.69-3.8.48-6.99-.23-9.56-2.14-1.17-1.35-2.68-2.25-1.86-4.98.94-.32 2.06-.25 3.03-.15Z" style="fill:#594c47"/><path d="M312.68 146.2c2.84 1.12 1.01 3.5-1.49 3.55-.31.68-1.17.89-2.59.62-1.65-.47-4.05.08-4.97-2.16 1.86.41 4.17.12 4.76-1.87 1.39-.42 2.79-.22 4.29-.13Z" style="fill:#84756c"/><path d="M308.74 279.53c6.11 3.35 10.08 9.79 12.77 15.67v4.1c1.21 4.91 1.53 10.21.94 15.9l1.28 2.96-.03 1.03-.41 1.26c-1.02 3.69-3.45 1.02-4.87-1.35l2.81 9.28-1.6 1.66c-7.19-3.2-6.07-14.72-13.87-27.68.29-2.21 2.26-3.2 4.31-3.28 1.57-1.17 3.27-.55 5.11 1.86.77-8.67-8.01-14.89-15.49-17.85l-4.73-3.82c-2.32-3.52-7.71-4.48-5.89-7.25.3-.45.87-.85 1.87-1.15 4.58 3.81 12.52 5.76 17.81 8.65Z" style="fill:#6f5f59"/><path d="M200.66 350.99c2.46 1.56 2.53 6.5.18 8.2l-2.28 2.18c-1.25 0-2.85-.36-3.49-1.15-1.5-1.87 2.42-6.76-.36-8.01-1.42-.64-1.41-3.94-.28-3.91 1.81.05 2.07 2.8 2.22 3.86.23 1.52 2.45 1.48 3.2.52.34-.44.52-.88.8-1.69Z" style="fill:#423735"/><path d="m67.44 137.8 7.53 3.13-.82 2.33c1.99 1.42 2.82 3.07 2.5 4.96 5.09-.12 10.18-.18 15.29-.17.19-2.65 1.16-2.43 1.65.19 1.25 5.36 1.68 12.68-2.36 17.37-1.74 2.03-6.04.06-7.5-1.22-.58-.51-1.4-1.6-1.85-2.3l.62-1.99c-2.36-2.86-8.91-8.71-12.19-9.81l-6.7-7.33c-.05-2.38 1.26-4.84 3.82-5.15Z" style="fill:#6c5d56"/><path d="M74.97 140.93c1.44.61 3.28.42 4.69 1.32 6.53 4.14 15.85-.81 21.66 3.43l-3.77 1.4c-1.37-.11-2.83.53-3.97 1.15l-1.65-.19c-5.16-.3-10.26-.24-15.29.17-2.3-1.9-4.7-3.58-5.95-7.04l4.27-.25Z" style="fill:#89776e"/><path d="M314.86 75.27q.78 3.39-3.93 5.91l-.57 2.39c-8.07 1.96-13.41 4.16-15.67 12.39 2.97.4 1.61 5.16-1.25 4.99v6.47c2.43.74 1.75 2.8-.58 3.62-6.57-5.59-3.56-12.24-4.99-18.07-2.13-2.54 4.15-7.78 6.48-9.71 4.05-1.5 5.75-2.96 5.09-4.39l6.25-2.83c2.89-1.31 6.05-.52 9.18-.77Z" style="fill:#7d6c66"/><path d="M299.44 78.87c.84-.08 1.71.05 1.83.99.13 1.06-.22 1.94-1.62 2.16-3.88.63-5.38 3.76-7.67 6.33l-4.1 4.61-14.08 17.16c-1.51-.35-1.37-2.86-1.06-3.91 7.23-11.92 13.92-21.55 26.71-27.34Z" style="fill:#83716b"/><path d="M107.92 255.07c.07 2.67-.09 6.06-4.08 6.25-1.14-1.72-1.84-3.3-3.14-4.19-.6-2.05-1.13-4.43.78-6.32z" style="fill:#171210"/><path d="M94.75 253.91c-.94.46-1.94 1.22-3.03 1.21l-9.97-.14c4.19-5.26 13.33-4.74 13-1.07" style="fill:#64534b"/><path d="M149.57 63.12q-1.02 6.825 2.19 14.7c3.21 2 4.53 4.13 3.97 6.37.37 1.48-.82 5.03-2.99 4.75-1.67-.21-3.19-2.83-4.81-2.51l-1.34.04c-.63-2.79-1.63-5.53-2.99-8.22-.2-7 .2-14.11 1.61-21.63 3.58.69 4.39 4.16 4.36 6.48Z" style="fill:#7e6961"/><path d="m147.92 86.44.16 1.83-4.2-.03-.29-9.97c1.81 0 3.27 1.16 3.59 3.3l.74 4.88Z" style="fill:#6a5750"/><path d="m151.98 63.08 1.82 8.01.84 2.8c-4.76 2.35-6.96-7.61-5.08-10.77z" style="fill:#63544e"/><path d="M212.62 26.3c.12 7.15-2.13 14.06-4.13 20.91-1.31.97-2.37 2.22-3.17 3.73-2.33-1.53-3.85-4.15-4.58-7.88-2.74-.57-2.4-1.96.34-2.33 1.14-1.09 3.24-3.92 2.59-5.56-4.45-1.99-2.15-9.95 2.28-7.83.4-4.43.33-8.92-.24-13.47l.96-.84c4.31 1.96 2.48 9.58 5.95 13.27" style="fill:#5f504c"/><path d="M206.65 8.14c-.26 1.56-.33 3.31.02 4.89l-.95 3.48c.54 3.81.61 7.42.22 10.84-2.86 2.41-3.57 4.57-2.28 7.83-4.13-.05-4.05-4.39-6.77-5.11 4.18-6.95 6.2-14.88 4.98-23.16l4.78 1.24Z" style="fill:#7b655c"/><path d="m201.07 40.73-.34 2.33 1.33 1.83-3.43 7.55c2.58 5.96 2.24 9-1.03 9.11-2.08-.88-5.01-.31-7.48-.44-.63-1.78-.37-2.81-.42-3.94.09-1.5 1.23-2.41 3.42-2.74l.79-1.53c-1.2-.55-2.21-1.48-3.01-2.77l2.16-4.78 2.93-3.91c1.4-1.88 3.74-2.01 5.1-.72Z" style="fill:#a08e86"/><path d="M98.98 302.35c3.87 3.15-3.83 9.74-7.25 7.01.02.81.03 2.03-.52 2.23-3.42 1.28-13.76 3.8-17.48 4.48-.26.05-.62-.45-1.01-1.09-.37 2.44-1.54 3.36-3.81 2.16l-.39-1.98c6.65-8.95 18.39-10.09 24.4-18.97 2.73.21 3.04 3.52 1.94 7.8l4.12-1.65Z" class="cls-19"/><path d="M72.72 314.99c2.59.52 2.58 1.62-.01 3.32-.34 1.08-1.09 2-.76 3.64 2.32-.32 4.07.41 4.93 1.75l-13.69 8.76c-1.43-6.6 1.9-11.39 5.72-15.31 1.08-1.11 2.34-1.72 3.81-2.16" style="fill:#5d4a43"/><path d="M87.35 110.23c1.99 2.2 3.63 3.96 6.39 5.35 2.93-2.31 11.52 2.41 8.86 6.66-1.26 2.02-1.85 1.69-3.58.11l-2.18.43-9.09-5.71c-2.72-.38-3.58-3-5.71-4.28-.16-1.62-1.58-2.48-2.23-3.7-4.49-7.45-.64-17.11 4.37-5.64 2.23 2.06 3.29 4.32 3.17 6.77Z" style="fill:#77645d"/><path d="m99.01 122.35 2.39-.36c1.72 1.94 3.2 3.94 4.46 6-.33.81.02 2.2.06 3.06l-.07 1.43c-4.48-4.37-9.4-8-14.82-11.63-1.6-1.07-2.87-2.23-3.3-3.77 3.94.56 8.18 2.54 11.27 5.28Z" style="fill:#382b27"/><path d="m317.72 144.13 10.13-.11 20.23.4c-1.33 3.34-3.84 3.39-5.3 4.73-9.66 2.89-17.27 6.48-23.71 14.69-1.09.85-2.09 1.3-3.3.32-1.68 2.37-2.54 2-2.18-.88-1.74-1.84-.96-4.24 1.74-4.13 2.65-.5 5-1.85 5.96-5.35-5.26-2.82-9.07-2.41-12.7-3.44l2.59-.62c2.15-1.34 2.65-2.52 1.49-3.55.76-1.87 3.23-2.06 5.04-2.07Z" style="fill:#75645c"/><path d="M342.78 149.15c-5.3 4.86-13.19 4.34-18.87 12.21l-2.25 1.49c-.46.31.01 1.82.11 2.41-.8-.25-2.09.04-3.01.88l-7.58 6.95c-2.86-6.99-4.11-14.47-8.73-19.77l9.17.05c2.66.08 4.24 3.54 3.7 5.77-.3 1.24-.76 3.44-1.74 4.13.43.91 1.17 1.18 2.18.88l11.7-10.21c4.3-3.75 10.12-3.92 15.31-4.8Z" style="fill:#4b3d38"/><path d="M389.91 207.12c-9.9 1.8-14.4 8.08-24.08 5.57l-1.13-3.65q4.725-3.105 11.37-2.61c2.59-2.45 5.28-4.11 7.82-1.12l.31-1.41c1.65.49 1.49.02-.48-1.4-1.03 3.51-5.49.86-2.85-2.16l16.01 1.12c-3.13 1.21-5.29 3.11-6.97 5.66" style="fill:#5d4942"/><path d="M208.48 47.21c-2.36 2.67-2.38 6.23-.06 9.27l8.05 10.56c-1.13 2.88-7.88 1.12-7.86-1.89-.78-2.12-2.46-3.6-4.89-4.97-.39 2.44-.25 4.18-2.39 6.28-1.12-1.68-2.09-4.18-3.75-4.89 2.57-2.7-1.98-7.54-.72-10.23l3.86-8.26c.97-.06 1.69-.28 3.02-.89-.25 3.08.25 5.21 1.49 7.39 1.21-1.77 2.2-2.1 3.24-2.35Z" style="fill:#504240"/><path d="m208.61 65.14 7.86 1.89c1.47 1.93 3.09 3.84 3.93 6.14 2.5 2.93.32 10.32-2.51 5.16-.42-3.3-3.33-6.05-6.05-8.03l-3.43 1.94c-2.43.53-2.45-.2-.97-2.11-.63-.95-.97-2.2-.88-3.43.08-.93.97-1.64 2.05-1.56" style="fill:#8a7770"/><path d="m222.73 77.15-.08 8.94c-4-1.15-4.34-4.5-4.76-7.76l1.56.52c.87-1.99 1.08-3.81.95-5.69 1.62.73 2.34 2.24 2.32 3.98Z" style="fill:#796861"/><path d="m212.93 353.29-7.36 6.63c-1.29 1.17-3.79-.78-4.73-.74-.65-2.73-.67-5.5-.18-8.2.17-.96.65-1.88 1.18-2.7l1.83-1.37c-.04-3.23 1.06-4.75 3.31-4.57 1.06-2.66 4.07-4.64 7.81-4.99.25 5.5-.54 10.74-1.85 15.93Z" style="fill:#4e413e"/><path d="M201.72 334.2c2 .01 3.79 1.37 4.25 3.75l1 4.41-2.59 6.51c-.46 1.16-2.22.07-2.55-.57-.05-.26-.06-.81.1-1.01-.11-2.07-.82-4.15-2.15-6.23l-6.18-5.79c-3.75-5.03-1.04-5.38 8.12-1.06Z" style="fill:#7e6f67"/><path d="M201.93 347.28c-.42-1.57-1.28-2.92-2.24-4.17l.09-2.07c1.78 1.67 3.75 4.1 2.15 6.23Z" style="fill:#504440"/><path d="m103.77 306.14-6.91 5.08c-3.03 1.33-8.21 2.12-5.13-1.86 3.71-1.1 6.19-3.1 7.25-7.01l1.95-7.25c3.14.15 5.46 1.98 6.61 5.78-.97.4-2.77.6-3.32 1.39-.78 1.14-.54 2.84-.44 3.88Z" style="fill:#8c7870"/><path d="M85.67 178.2c2.71 1.74 1.14 3.13-4.7 4.14-3.64 1.88-6.45 5.07-8.44 9.56-1.63 2.97-3.28 3.8-4.95 2.48-4.82-.42-3.29-5.51-.96-8.41 1.71-1.82 2.64-6.2 6.17-6.73 2.84-.43 5.73.57 8.05-.94 1.05-.69 3.58-.12 4.83-.11Z" style="fill:#6a5951"/><path d="m89.73 178.22-2.2 4.04c-.68 1.5-2.22 2.32-4.63 2.47q-7.935 7.23-13.77 17.34l-2.46.03c-1.42-.39-2.43-1.38-3.05-2.97-1.08-2.3 1.45-5.56 3.96-4.77 7.45-2.53 5.48-12.99 14.28-13.14 1.96-.03 3.81-1.36 3.81-3.04l4.06.02Z" style="fill:#907f79"/><path d="m96.59 177.07-1.79-.34c.19-2.46.6-4.62 1.92-6.64 1.42 1.96 1.78 5.5-.14 6.98Z" style="fill:#382e2a"/><path d="M144.58 332.18c.46.13.88.13 1.21.04-.67 1.71-1.71 4.58-3.24 5.56-2.65 1.69-4.53 3.82-6.36 7.55-1.95-5.49-.74-11.66 3.7-15.33 1.46.55 3.02 1.28 4.69 2.18" style="fill:#45332d"/><path d="M144.58 332.18c-1.53.85-2.4 2.43-4.66 2.96l-.03-5.14 1.74-4.8c1.37-.46 2.75-.69 4.01-.48-.15 3.28-.04 5.45-1.05 7.46Z" style="fill:#705b52"/><path d="m379.55 200.24 1.32.1c-.84.84-.55 1.7.37 1.92.85.21 1.91.42 2.47.24 2.85-.35 2.82 2 .17 2.82-1.65.56-3.76.14-5.75-.62-.68.98.55 1.87 1.04 2.07.39.17-.57 1.53-.96 1.37-3.08-1.28-9.85 2.55-13.51.9l-13.11-5.9c-6.49-2.37-1.17-10.16 5.01-5.71l5.31-1.4q3.855.615 7.74 4.5c4.95 3.4 8.26 3.3 9.91-.29Z" style="fill:#816c64"/><path d="m367.82 194.99 1.03.05c2.91 2.86 6.57 4.9 10.7 5.2.51 1.08.65 3.19-.4 4.12-2.56 2.26-12.57-1.36-17.25-8.33-.94-.14-.89-.44.04-.88-.29-2.18 1.67-2.24 5.87-.16Z" style="fill:#8f766b"/><path d="m36.82 188.24-.12 2.56-1.17 2.04c-8.45-.06-9.79.35-4 1.21l.9 2.24c4.22-.35 6.36.47 6.42 2.48 2.86-.72 8.44 1.33 6.63 4.8 3.92 1.52 4.98 3.35 3.16 5.51-5.13-.06-9.83-3.08-12.72-8.05-2.02 1.3-1.97 3.1-3.28 4.34l-7.82-4.26c-5.01-2.73-10.21-2.62-16.8-.62 1.97-7.66 9.37-10.25 15.87-12.04l12.93-.2Z" style="fill:#695853"/><path d="M81.88 162.08c-4.85-2.49-7.97-7.86-11.57-11.8 1.66-5.11 8.48 5.52 17.67 11.33-2.4 1.29-4.31.79-6.1.47" style="fill:#7f6d66"/><path d="M69.63 62.95c3.6 2.73 8.98 7.87 8.94 12.23 3.98 2.87 5.94 7.21 5.87 13.01l.51 6.99c2.26 2.36 5.66 7.62 3.89 10.66-.75 1.41-1.07 2.88-1.5 4.38-2.85-3.15-6.11-5.87-7.02-11.29-1.31 3.55-1 6.82-.53 10.16-1.42-2.62-4.42-5.82-4.6-9.22l-1.12-21.14c-.22-4.13-3.77-6.24-6.3-8.6-1.92-1.79-3.77-3.03-5.92-3.89.24-.81.07-2.92.24-3.88 1.85-2.7 5.52-.06 7.54.59" style="fill:#62504a"/><path d="m66.91 246.91.07 2.14c.29 1.62 1.88 1.69 4.76.18.98-1.15 4.01-2.48 5.46-2 2.9.98-.06 5.24 1.28 6.66.47.5 1.62.74 2.34.93-7.61 1.55-22.82 1.14-25.93-1.5z" style="fill:#50403b"/><path d="M83.61 67.4c.86 1.74 2.08 3.64 4.28 3.6l3.82 12.09c-.37 2.92-3.98 2.84-4.66.06a78 78 0 0 1-8.47-7.97c-3.63-2.9-6.73-7.6-8.94-12.23l13.98 4.45Z" style="fill:#8b756c"/><path d="M323.29 320.45c2.56 2.9 3.18 6.58 4.78 9.61-1 2.07-2.41 3.5-4.26 4.24-2.12-.83-3.58-2.03-4.17-4.26-1.38-5.16-4.65-9.86-2.65-16.29 3.46 3.4 4.18 7.73 6.3 6.69Z" style="fill:#63544f"/><path d="M101.82 93.12c3.09.71 6.93 3.01 10.67 1.77 6.03-2.01 12.39-1.31 17.24 2.22l1.89 2.1c.82.86.62 2.45-.45 2.9-2.37.99-5.56-3.35-8.84-2.88-1.85.26-3.49 1.74-5.95 3.54l9.26 1.52c.47.31.63 2.47.09 3.06l-23.04.85c-2.81-.19-2.59-1.42.06-2.16.41-1.55 1.71-2.58 3.92-3.08 4.85-2.53 4.45-3.42-1.19-2.69-4.05-.22-6.15-1.65-6.29-4.3-3.77 1.44-4.27-3.13-.35-2.88.82.08 1.97-.19 2.97.04Z" style="fill:#a29089"/><path d="M67.58 194.38c-.95 1.87-2.16 3.58-3.96 4.77 1.22 2.71-1.06 3.03-2.87 1.1.27 3.01-5.45 2.66-5.84-.21-3.84-.94-5.06-2.28-3.66-4q2.955-.405 4.89-1.62l3.64-3.21c2.05-1.81 4.81-3.06 6.86-5.25.02 2.97-.75 6.04.96 8.41Z" style="fill:#7b6962"/><path d="M36.7 190.8c2.28-.1 3.55 1.97 5.15 2.13 2.81.63 4.52 3.5 1.81 5.36-.57 1.99-3.24.56-2.74-1.25-2.78 0-5.61-.25-8.5-.76l-12.18-2.63c5.64-3.41 11.24-2.63 16.45-2.85Z" style="fill:#96837a"/><path d="M56.13 194.43c1.09 2.04-2.11 2.99-4.55 2.76.97 1.53 2.32 1.92 3.32 2.86-.8 3.14-10.7 1.35-11.23-1.75l-1.81-5.36 14.28 1.5Z" style="fill:#917e78"/><path d="m154.64 73.89 2.99 5.46c.68 1.24 1.07 2.47 2.49 3.44-1.99 1.3-3.03 1.19-4.4 1.39l-6.31-5.8-1.35-9.78c-.35-2.54-.63-5.41 1.5-5.48-.07 4.36 1.51 8.07 5.08 10.77" style="fill:#a79187"/><path d="M91.71 83.09c1.25 3.96 4.83 6.63 7.15 9.99-.41.44-.7 1.09-.69 1.54.02.54.39 1.03 1.04 1.35 1.17 1.95.17 2.44-1.65 3.06-5.78 1.95-10.89-7.97-10.04-12.85-2.84.37-3.06-1.92-.47-3.02l4.66-.06Z" style="fill:#a08b83"/><path d="m343.72 180.15 3.96.06 13.57 9.46c2.46 1.72 3.94 4.42 6.58 5.32l-5.87.16c-1.92 1.75-4.62.38-4.02-2.3-3.26-.34-6.44-1.68-9.55-4.02.32.79.1 1.6-.67 2.43 4.2 1.86 4.77 5.97.32 7.16-1.85-.63-3.1-2.31-3.77-5.02l-5.49-5.83-2.45-.55c.73-1.91.56-3.52-.51-4.86-.77 2.19-3.56 2.34-4.09-.02-2.66-.32-2.54-1.24 0-2h12Z" style="fill:#857169"/><path d="M157.91 321.76c.95 3.15-2.81 3.34-3.83 4.68-1.32-.43-2.48-1.41-1.81-2.56s1.42-1.97 2.32-2.43c.99-.5 2.33-.37 3.33.31Z" style="fill:#6e5b52"/><path d="M324.72 182.16c.86-1.23 2.28-1.55 2.63.16 2.98.56 5.45 1.54 7.39 2.94 1.1 1.33 1.42 3.01.96 5.03.52 2.49 2.12 12.46-1.6 12.69-.97.06-1.79-.44-2.47-1.09.1-5.06-1.36-10.22.18-15.4-4.32.14-7.83-.93-11.14.43-.24.1-.71.12-1.06.12-2.78-.75-4.56-2.91-1.92-4.98l7.02.09Z" style="fill:#847069"/><path d="M329.72 180.16h2v1.99c.46 2.59-2.68 1.15-4.36.18l-2.63-.16 1-2h4Z" style="fill:#56433f"/><path d="M323.73 318.16c-1.26-.26-2.64-1.56-2.6-3.35l.37-15.51c1.2.36 2.03 1.34 2.23 2.9z" style="fill:#655550"/><path d="M333.76 67.15c.36.92 2.02 2.28 1.8 3.74-.89 5.71-4.93 8.57-9.5 10.03 1.26 2.83-6.63 5.22-8.08 2.59-1.31.45-2.31-.04-2.99-1.46-1.72.59-3.07.3-4.06-.87.29-2.52 2.1-4.29 3.93-5.91l2.72-.22 8.08-2.05c2.79-.71 4.52-3.25 5.76-5.76l2.34-.08Z" style="fill:#987e73"/><path d="M310.07 299.08c-2.34 1.46-6.66-1.7-8.48-3.65-.48 2.63-1.41 2.37-1.89-.24 2.6-6.55-1.03-10.29-4.74-15.92 13.15 4.1 24.56 11.5 22.39 26.27z" style="fill:#594a47"/><path d="m299.7 295.19 1.89.24c2.54 1.08 2.57 3.32.07 4.5-15.75-2.7-31.44 4.43-32.86-4.79z" style="fill:#655650"/><path d="M310.07 299.08c-.3 2.27-2.27 3.24-4.31 3.28-.72-1.19-2.71-2.19-4.1-2.43-.3-1.5-.33-3.02-.07-4.5 3.51-.49 6.09 1.52 8.48 3.65" style="fill:#86766f"/><path d="M96.86 311.23c-6.1 4.49-14.3 1.77-24.15 7.09.29-.93.04-2.23.01-3.32l19.01-5.62c-.03 1.06.86 1.75 1.64 1.9 1.21.23 2.5.11 3.48-.04Z" style="fill:#6b5b53"/><path d="M188.7 323.4c2.62 3.94 5.24 7.98 10.2 8.73l2.82 2.07c-3.93-.03-9.17-3.68-8.53-1.34l.41 2.39-9.92-8.11c-.77-.63-2.03-1.57-1.73-2.29l.72-1.7c-2.23-2.29-.97-4.99 1.97-3.05l4.07 3.3Z" style="fill:#6b5d57"/><path d="M184.63 320.1c-1.4.48-1.5 1.95-1.97 3.05-2.55-.44-4.45-5.97-2.04-6.98s2.97 3.09 4.01 3.93" style="fill:#524743"/><path d="M299.7 121.11c-.59.76-.86 1.66-1.43 3.2-3.54-3.56-5.51-8.36-5.41-13.27.07-3.42-.27-6.67.58-10.08l2.36.42c.83-2.08 2.11-2.82 3.85-2.22-.99 7.23-1.77 14.95.05 21.96Z" style="fill:#98867f"/><path d="M338.77 187.57c1.65 1.4 6.14 5.33 6.16 7.4.02 1.77-4.21 7.14-6.06 8.03-.63 1.5-2.13 2.19-3.22 3.23-1.37.16-3.35.4-4.4-.93-.63-.79.39-2.5.4-3.4 6.75-1.85-.45-10.08 3.11-16.64-1.7-2.01-1.52-2.57 1.06-3.09 3.89.02 7.79-.76 12.28 1.16-5.71 3.59-12.26-.65-9.32 4.24Z" style="fill:#b39b89"/><path d="M357.93 192.85c1.21.75 3.08 1.01 4.02 2.3-.09.33-.09.68-.04.88-.38 2.11-2.18 3.03-3.81 3.28-2.27.36-4.03-.13-5.7-2.06-.94.51-1.63 1.2-2.37 2.25.76 1.2 1.34 2.32 1.56 3.64l-5.71-.2c-2.67-1.35-.58-5.22 2.14-4.52 1.13-2.35 1.86-4.91-.32-7.16 1.3-1.84 3.56-1.53 6.78.92l3.44.67Z" class="cls-199"/><path d="m348.02 198.42-2.14 4.52-1.05.07a7.42 7.42 0 0 0-5.29.03l-.68-.05c.37-2.9 2.13-5.2 4.29-8.13l-4.38-7.3c4.8 1.87 8.8 5.43 9.25 10.85Z" style="fill:#9a867a"/><path d="m344.84 203.02-5.29.03c1.32-1.32 3.96-1.34 5.29-.03" class="cls-199"/><path d="M207.44 70.13c.42.64 1.01 1.31.97 2.11-.16 3.49 3.37 5.45 6.63 8.23l-5.92 2.47 1.62 3.18-18.87-.63c.75-1.34 1.73-2.01 3.01-3.03-2.49-.29-3.71-1-4.62-2.46-.53-.84-1.13-4.04.52-3.76l5.11.87-4.27-12.97c6.73.51 10.96 4.43 15.82 5.97Z" style="fill:#463d3b"/><path d="M189.69 57.18c-.12-2.47.16-4.77 1.19-7.05l4.94.07c.28 2.33.19 4.7-1.61 5.88-1.16.76-2.98 1.09-4.52 1.1" style="fill:#c5b7af"/><path d="m87.53 182.27-.82 6.83-4.07 16.25c-1.89-1.05-2.64-2.44-4.46-4.23-5.65 5.38-13.03 8.13-20.35 8.05-1.85-1.95-.92-3.23 2.82-3.86-2.03-2.03-.32-3.64 2.16-2.29-.2-2.62 2.3-2.65 3.85-.91l10.66-15.31c2.44-3.5 6.34-5.15 10.21-4.54Z" style="fill:#5c504e"/><path d="m60.65 205.31-2.82 3.86-9.19-.1-3.16-5.51c4.25-2.08 11.5-1.22 15.17 1.76Z" style="fill:#73655f"/><path d="M71.74 249.23c-.8.94-1.24 1.86-2.25 2.29-1.78.75-2.97.43-4.14-1.15.79-.86 1.23-1.08 1.63-1.32 1.54-.18 3.09-.14 4.76.18" style="fill:#6d5851"/><path d="M99.21 95.96c9.67 5.41 14.8-.04 16.68 1.55.41.35.85 1.02.36 1.65-.36.46-1.87.62-2.47 1.04-3.71 2.62-6.57 5.96-11.02 5.83-1.52 1.11-3.23.45-5.15-1.98-.69 1.28-1.65 2.04-2.87 2.27-1.73-.63-4.24-.11-5.9-.48-1.53-3.43-4.54-6.71-3.89-10.66-.78-3.1-2.14-10.27 2.56-9.01l5.48 9.64c1.66 2.92 4.78 1.06 6.21.15Z" style="fill:#c9bbb3"/><path d="M105.86 127.99c-3.67.2-4.74-3.77-6.85-5.64 1.59.29 3.14-2.87 2.06-3.24-3.01-1.03-5.11-2.42-7.33-3.53 1.58-.64 1.97-3.49 2.78-4.93 5.44-1.52 11.09 3.67 11 9.5-.05 3.08-.67 5.46-1.66 7.84" style="fill:#665752"/><path d="m102.76 106.04-.06 2.16c-2.89.11-5.31-.9-7.96-1.87-.14-1.39 1.51-6.21 2.89-4.96z" style="fill:#95837d"/><path d="m326.05 80.92 3.77 1.8-18.81 12.76-7.48 8.97c-2.52-1.03-2.89-4.07-2.71-6.26-1.67-1.92-.36-5.51 2.18-5.96 3.58-3.67 7.67-6.78 12.24-9.33l2.72.62 8.08-2.59Z" style="fill:#3f322f"/><path d="M303 92.23c-.33 2.08-.67 4.72-2.18 5.96l-1.16.96-5.62 8.54-.59-6.74 1.25-4.99c1.37-4.17 3.86-8.03 7.97-9.95 7.88-3.7 5.02 3.34.34 6.22Z" style="fill:#c3b0a7"/><path d="m311.18 149.75 1.49-3.55 23.13-.05c.84 0 1.82 1.19 1.87 1.81l-19.91.46c-1.91.04-4.42 2.98-6.59 1.33Z" style="fill:#aa968a"/><path d="M91.94 148.05c-6.27 2.48-10.55 4.08-15.29.17 4.58-3.47 10.88-3.56 15.29-.17" style="fill:#b7a59c"/><path d="M317.97 83.51c-4.55 2.89-9.53 6.72-14.97 8.72.38-2.41 1.69-4.17 3.78-5.86-6.55.69-7.66 7.31-12.09 9.59.52-2.06-.95-5.63 1.2-7.61 4.31-3.98 10.13-5.05 15.03-7.17 1.3-.56 2.68-1.25 4.24-1.09 1.34.14 2.27 1.65 2.8 3.42Z" style="fill:#b39f97"/><path d="m206.67 13.03 1.8 8.08c.57 2.56-.89 4.85-2.53 6.23-4.14-7.44-1.85-15.61.72-14.31Z" style="fill:#9b857a"/><path d="M315.77 164.17c-.75.99-1.17 3.65-2.99 3.96s-2.72-2.39-1.85-3l2.65-1.84c.68.58 1.38.78 2.18.88Z" style="fill:#584c46"/><path d="m383.89 205.31-.17-2.82c.95-.31 3.91-.53 4.09.48.52 2.91-2.76 1.94-3.92 2.34" style="fill:#8a7268"/><path d="M66.66 202.11c-.74 1.06-2.91.71-3.85.91-2.61 1.28-3.8-.5-2.07-2.78.93.03 2.1-.6 2.87-1.1 1.01-.34 2.29-.2 2.95.73.43.61.38 1.59.1 2.23Z" style="fill:#b0a099"/><path d="m43.67 198.3 11.23 1.75 5.84.21 2.07 2.78-2.16 2.29c-5.11-.03-10.09-.67-15.17-1.76-1.42-2.39-4.43-3.5-6.63-4.8-1.91-1.67.31-3.05 2.08-1.71l2.74 1.25Z" style="fill:#a8978f"/><path d="m40.93 197.04-2.08 1.71c-2.04-1.21-4.17-1.99-6.42-2.48 4.12.14 7.33-1.98 7.97-.48l.53 1.24Z" style="fill:#8f7c75"/><path d="m87.05 83.15.47 3.02c-1.85 2.37-2.05 5.92-2.56 9.01-3.08-4.1-2.35-9.6-3.91-14.57-.57-1.83-2.27-3.75-2.46-5.43 4.38.47 7.84 3.89 8.47 7.97Z" style="fill:#ab9890"/><path d="M357.93 192.85c-3.55 2.62-5.9-.53-10.22-1.59-.99-1.03-2.95-4.11-1.04-5.15 4.54.96 7.92 4.68 11.26 6.74" style="fill:#61514d"/><path d="m331.72 182.15 4.09.02c-.07 1.13-.52 2.1-1.06 3.09-2.9.45-5.7-.45-7.39-2.94l4.36-.18Z" style="fill:#b09f96"/><path d="M319.63 187.05c.22-.85.58-.88 1.06-.12l2.25.47c2.84 6.76 4.44 13.52 4.82 20.27-3.07 4.59-6.13 9.08-9.2 13.48-2.1.75-5.03.78-8.05-.25 2.84-7.24 3.3-14.49 2.53-21.81l-1.42-13.52c1.89-2.67 6.53-1.01 8.02 1.48Z" style="fill:#403635"/><path d="m331.65 201.9 1.25.67c.38 1.27 1.29 2.49 2.75 3.66l.59 2.2c-4.13 4.93-8.97 8.48-14.54 10.66-.28.91-2.22 1.73-3.14 2.06-3.52-5.43 9.76-10 7.26-17.96l-5.12-16.26c-1.55-4.88 11.27-1.62 11.92-1 .6.57.63 14.98-.96 15.97ZM317.7 182.07l1.92 4.98c-2.74.01-5.36-.79-8.02-1.48-.08-.73-1.17-2.02-.08-2.65 1.89-1.08 4.35-.87 6.17-.85Z" class="cls-271"/><path d="M319.95 194.39c.69-.66 1.55-.26 1.77.27.45 1.04-1.34 2.43-1.51 2.37-.72-.28-.81-2.11-.26-2.63Z" style="fill:#534745"/><path d="m121.75 268.32 3.74 1.22c9.45 10.37 20.81 18.98 33.76 24.5l2.41 3.12c13.55 5.1 28.03 6.94 42.78 8.33l8.35 1.47-27.76.73c-2.11.03-4.48-2.83-7.34-1.73-2.45.93-4.3-1.02-6.3-1.63-22.57-6.89-41.41-20.77-56.35-38.48l-1.6-3.79c-1.7-2.38-1.77-3.87 1.43-3.71 1.65.08 8.92 7.85 6.88 9.98Z" style="fill:#574b47"/><path d="M280.87 267.19c.77 1.04.66 2.42-.33 4.12l-8.71 7.96c-1.57 1.44-2.39 3.54-3.06 4.84-9.38 9.05-21.03 16.14-33.84 18.39-2.16-.31-4.29.5-6.62-.97l2.34-2.95c.43-.55-.47-1.88-1.12-2.72l-.2-2.31q8.175-3.315 16.29-6.81l2.24.88c2.65 1.86 5.25 1.8 7.82-.2 4.54-2.44 8.29-5.79 11.24-10.04l-.19-1.84 9.87-8.91 2.3.66c1.28-1.53 1.94-1.57 1.96-.11Z" style="fill:#5a4e4b"/><path d="m291.55 145.06 1.3.04c.04 1.16 1.39 2.26 1.88 2.98 3.2 6.58 8.24 19.4 7.83 23.23.54.08.98.19 1.05.41.54 1.8-.37 13.9-.83 16.6.31 3.73-.6 6.01-2.73 6.87-3.08-5.14-5.19-12.05-5.2-18.15l-4.93-17.83c-2.65 1.26-3.63-1.85-1.21-3.37-2.95-1.2-5.7-5.5-3.94-8.48.32-3.45 4.82-5.39 6.79-2.3Z" style="fill:#7d6e67"/><path d="M270.56 119.94c-.35 2.04 2.26 3.63 1.93 1.23l8.26 8.68c1.38 2.01.17 3.78-2.09 4.11-.64 1.26-1.61 1.08-2.91-.55l-1.5-.02-3-.56c-4.44-5.23-10.03-9.35-16.24-12.24l-1.31-2.75c-2.24-1.08-2.51-1.93-.82-2.55-1.78-1.65-1.32-2.2.85-2.88-.11-2.2 5.98-.77 5.97-.44 0 .12-1.81.45.18-.9 2.9.18 3.03 1.58 5.35 3.79l5.31 5.07Z" style="fill:#8c7d76"/><path d="M278.66 133.96c2.17-.58 4.33.41 6.48 2.98l1.42-.89 2.95 4.26c1.26 1.82 2.7 2.81 2.04 4.76-2.37-.07-4.4 1.42-6.79 2.3l-2.27.31-9-11.97.76-2.31c.3-1.68 1.58-1.73 2.53-.95l1.87 1.51Z" style="fill:#92847c"/><path d="M254.79 106.81c1.19 1.34 3.4 3.92 5.11 4.26l.79 1.84c-2.75.62-4.97.52-6.94-.5-.76 2.12-4.69-.12-4.04-2.09q-2.295-1.515-.93-2.28c-.77-1.81.14-2.37 2-2.15 1.31.56 2.61.74 4.02.92Z" style="fill:#a49690"/><path d="M286.56 136.05c.14.77.51 1.81.23 3.27-3.83-.7-5.67-3.36-8.13-5.36.03-1.49.55-3.03 2.09-4.11z" style="fill:#9f918a"/><path d="m270.56 119.94 1.93 1.23.36 1.44c.12.45-.03 1.25-.56 1.27 0 0-3.29-1.71-3.32-3.09-.02-.93.8-1.25 1.59-.85" style="fill:#a99b93"/><path d="M304.8 171.87c.64 1.35.91 3.21 1.1 4.52.01 2.98.26 5.23 1.91 7.77l-3.05 37.99c-.34 4.25-1.8 8.43-.75 11.94-2.32.98-2.53 2.44-3.19 4.62-.54 1.77-3.18 3.26-3.21 5.21-.42 3.8-1.66 4.77-4.12 1.23-4.08 8.05-8.94 15.44-14.57 22.16l-8.76 7.3c-1.21 1.01-1.82 2.51-3.22 2.8-2.68 1.11-3.27.21-1.3-1.94-1.93-.03-1.91-.77-.01-1.37l.51-2.35c15.84-14.52 26.73-34.81 29.01-56.33l2.25-3.1q1.065-8.265 1.29-16.56l1.37-.55 2.51-23.87 2.25.55Z" style="fill:#695c57"/><path d="m194.76 93.17 20.06-.02c2.36 1.45 5.01 2.12 7.94 2.03 1.33.86 3.13 2.93 5.12 2.7l3.37-.39c.66-.08 1.41.9 1.59 1.84 1.22 4.1-2.78 3.5-5.99 2.98l-1.05 1.96-7.25-.74c-.66 2.42-2.61 2.77-2.93.15-2.45.27-4.49 0-6.11-.82a269 269 0 0 0-12.68.04l-1.02-1.05c-4.98.15-7.07-1.33-6.29-4.41l-1.75-.91c-1.04.35-2.05-.13-3.05-1.43-1.68.06-3.11-.72-2.18-1.66 1.24-1.25 10.08-.88 12.24-.28Z" style="fill:#ad9f98"/><path d="M232.84 99.32c1.91 1.01 3.94.39 5.96.5l-.08 1.45c-.42.85.23 1.14 1.95.89l7.18 2.8c.47.75.78 1.77.92 3.07l.93 2.28c-.85 1.01-2.45.79-4.78-.67l-3.12-.68c.97 2.79-3.79 1.18-5.38.07-3.96.16-8.54-.75-11.56-3.64-.31.87-.67.86-1.08 0-2.92.78-4.66.16-5.23-1.88l5.95-.36c.49-1.66.8-2.89 1.82-3.97 2.39 1.85 5.04 2.14 6.51.12Z" style="fill:#978b84"/><path d="M222.76 95.17c-2.52 1.64-7.32 1.38-7.94-2.03 3.01 0 5.34.34 7.94 2.03" style="fill:#4a3f3b"/><path d="M101.71 200.15c1.52-1.25 2.38-1.12 2.97.69.28 17.58 4.98 36.23 15.15 50.79l1.06 4.52c2.87-.55 3.17 1.34.45 2.37l4.28 5.57-.63 1.23c.18 2.33-1.15 2.89-3.23 2.98l-7.16-8.36c-.42-.37-1.63 1.49-1.14 2.08l-5.53-6.97c-.07-2.89-1.84-4.41-2.97-7.11l-10-23.93c-.63-1.51-.13-4.09-.16-5.74l-2.04-2.34c-.25-9.28-.48-18.55-.7-27.8l2.69-.94c2.35 2.66 3.31 6.22 2.89 10.67l1.65.77c.82 2.65 1.63 3.14 2.42 1.5Z" style="fill:#504643"/><path d="m147.86 116.41-1.69 3.5c-11.73 9.12-21.72 19.93-29.96 32.42l-2.44-.09c-1.69 1.6-7.61 2.32-7.33-1 1.94-3.36 2.38-8.85 5.24-11.61 4.01-3.87 7.13-9.78 11.99-12.16 5.5-4.33 10.94-8.69 16.34-13.08l2-.09c1.42-6.28 11.44-3.6 5.85 2.12Z" style="fill:#a2958f"/><path d="m176.03 100.9-.23 3.57.06 2.17a64.8 64.8 0 0 1-12.38 3.47c-1.24 1.97-3.56 3.25-6.93 3.84-3.3 2.41-6.19 3.23-8.69 2.46l-.21-4.12c-1.93.76-4.49.85-5.64 2-2.73.65-2.85-.88-.42-2.11.72-2.7 3.42-3.88 5.91-4.59a360 360 0 0 0 21.39-7.12l-.38-1.55 3.26-1.56c2.58-.6 4.88.83 4.26 3.54" style="fill:#bbafa7"/><path d="M168.51 98.92c1.29-.1 3.04.16 3.48 2.7-11.6.93-20.05 10.95-24.48 5.96l1.15-2.68 19.86-5.98Z" style="fill:#c7beb9"/><path d="m141.59 112.17.42 2.11c-5.37 5.37-11.52 9.83-18.34 13.17l9.58-9.78c2.61-2.51 4.9-5.15 8.33-5.51Z" style="fill:#ab9f9a"/><path d="m287.22 264.93-6.68 6.38c-1.16-1.12-.64-2.82.33-4.12-.33-.34-.58-.64-.51-.75 2.4-4.14 6.22-10.45 9.13-14.12 1.29-2.72 2.92-3.8 4.91-3.22 1.69 2.01.06 2.85-.96 4.68l-6.22 11.16Z" style="fill:#655953"/><path d="m297.6 243.91-.06 3.52c-.02 1.2-1.62 1.88-3.16 1.65l-13.53 18.1-1.96.11 15.12-27.28 2.31 6.4 1.26-2.5Z" style="fill:#574a46"/><path d="M113.76 152.23c2.65 1.72-.91 9.4-3.95 8.89l-3.02.67c-1.17 2.62-3.19 4.71-4.9 1.66l-.84-5.68c2.51-1.32 3.88-3.93 5.38-6.54 2.01.94 4.66-.98 7.33 1" class="cls-31"/><path d="m101.71 200.15-.02 8.94c0 .82-.96 1.89-1.46 1.83-2.07-.28-.45-6.44-2.03-11.88l-1.07 9.71c-.23 0-.89.28-1.23.44l-.32-13.99c-.07-2.89-1.4-5.5-.83-8 1.56-2.17 1.56-5.16-.2-7.24l.25-3.24c.63-2.59 1.51-2.29 1.79.34l1.44 1.35c.39-5.44 2.95-8.5 7.65-5.08.82 4.14.45 8.64-1.1 13.52.18 5.2-.78 9.64-2.88 13.3Z" style="fill:#7c6e6a"/><path d="M109.81 161.12c.69.34 1.64.84 1.61 1.47-.09 2.03-3.06 11.27-5.75 10.75-1.91 1.3-4.34.4-5.27.94-1.45.85.42 4.87-.97 5.9-.61.45-2.32.39-3.1-.73-.43-.62-.26-1.29.24-2.39-.26-2.17-.22-4.5.14-6.98l2.76-4.22.37-2c.22-1.19 1.26-.48 2.03-.42 2.99.23 3.82-4.23 4.07-7.47 1.95 1.56 1.84 4.04 3.85 5.15Z" style="fill:#8d7e78"/><path d="m123.26 251.9 2.09.15c10.11 14.26 24.07 25.97 40.09 32.78l.26 2.45c3.03-.32 8.26.87 8.85 3.96l4.22.8c4.88-1.18 7.46-.38 7.76 2.41 20.41.76 42.77-4.07 60.54-14.85l3.72-.16c-.22-2.47 1.76-4.65 5.96-6.54 2.93-2.96 5.54-3.95 7.82-2.96 3.69-.9 3.73 2.22 1.04 4.14v1.37l-.47 2-14.97 10.94-2.31-.77c-5.68 4.25-14.23 4.94-18.33 8.23l-18.79 3.32c-13.1 2.32-25.74-1.02-38.02-3.82-2.44-1.35-6.45-2.45-9.21-1.99l-24.65-12.81c-8.36-8.45-12.54-12.67-12.54-12.67l1.4-1.86c-2.41-2.14-4.53-4.64-6.37-7.51.1-.76-.2-1.66-.45-2.37-2.85-3.72-1.55-8.21 2.37-4.26Z" style="fill:#1c1614"/><path d="M127.71 266.04c2.1 6.1 9.14 6.35 11.64 12.57l28.44 14.73c1.34.7 4.44-.4 4.93 2.03l-7.03-1.6c-.52-.12-2.01-.04-2.37.3-.44.42-.55 1.4.1 2.52-.13 1.27-1.22.94-1.76.57-15.55-5.85-29.17-16.3-39.91-28.83-.09-1.84 1.55-2.68 3.23-2.98.85-1.46 1.8-.4 2.73.71Z" class="cls-285"/><path d="m172.73 295.36 2.91-1.36c17.68 5.96 34.72 3.93 52.17.14l1.74 1.72c3.18-.92 3.94 1.97 2.32 4.43 1.66.07 2.63.28 3.07 2.21l-9.33 2.58c-4.32 1.2-8.68 2.59-12.81 1.86-16.6-.59-31.79-1.56-48.14-6.85-1.41-.46-2.32-1.68-2.99-2.95l.85-1.58c-1.5 2.2-2.25-1.08-.48-2.81.95-.92 9.01 1.67 10.69 2.61" style="fill:#4b423f"/><path d="M206.38 303.39c-4.29.33-7.66 1.59-10.8-.97l7.12-.36c4.67-.24 9.66-2.32 14.41.51l-10.72.83Z" class="cls-285"/><path d="M265.63 275.45c0 .89.83 1.36 1.3 1.94 2.82 3.47-8.32 12.44-18.04 14.92-.12-2.06-.23-3.16-1.02-4.69l14.5-10.85c1.14-.85 2.07-1.41 3.26-1.33Z" style="fill:#4f4541"/><path d="M253.71 117.84c7.92 3.24 15.34 8.62 20.55 15.55l10.5 13.97c1.82 2.42 2.94 5.7 3.94 8.48-1.74 2.02-4.31 1.9-6.16.04l-2.56-.64a70.3 70.3 0 0 0-9.28-11.4l.34-2.68c-3.74-2.34-7.38-5.06-10.91-8.16l-.41-2.64c-.56.38-1.05.64-1.31.49-1.19-.69-5.76-4.4-7.04-5.55-.33-.3-.49-.78-.61-1.32l-9-4.2-.28-2.31c-.19-3.58 3.23-1.85 5.22-.25.83-3.59 5.25-1.89 7.02.63ZM300.04 195.19l-.91 14.29c-.08 1.3-.72 2.33-1.75 2.83l-2.05-.77-.57-20.19c-.06-3.81-.74-4.86-2.04-3.13-1.69-.21-2.19-3.82-.87-4.95-.89-.29-.89-.66-.04-1.12-.64-7.07-1.84-14.13-3.59-21.18l1.7-1.75c5.56 7.58 6.58 17.11 7.64 26.86.29 2.44 4.52 5.43 2.5 9.12Z" class="cls-88"/><path d="m288.7 155.84 1.21 3.37 3.3 17.34c.41 2.16-.22 4.33-1.41 5.59-.77.17-1.95.33-2.19-.18-1.13-2.49-8.51-22.76-8.48-24.04.02-.81.77-1.48 1.4-2.04 2.04-.97 4.23-.81 6.16-.04Z" style="fill:#2d2221"/><path d="M241.8 108.97c3.69.62 10.59 2.81 11.09 6.32l.82 2.55c-2.47-1.01-4.51-.68-7.02-.63-3.23-1.62-6.47-3.32-9.7-5.08l-.63-2.12c-.85-.33-.82-.66.06-.97 1.17.73 4.09.5 5.38-.07" class="cls-221"/><path d="m249.7 110.32 4.04 2.09c.32 1.04-.01 2.15-.85 2.88l-11.09-6.32c2.39-1.06 5.41.06 7.9 1.35" style="fill:#ab9b94"/><path d="M238.72 101.27c.81-.03 1.31.64 1.95.89-.38.65-.87 1.53-1.97 1.92-.86.31-1.54-.18-1.79-.51-.22-.3-.33-1.2-.02-1.7s1.04-.62 1.83-.6" style="fill:#a69c97"/><path d="M250.77 105.89c-.46.95-1.12 1.7-2 2.15-.83.19-1.94-.33-1.95-1.29 0-.49.54-1.22 1.03-1.78.68.27 2.18.61 2.92.92" style="fill:#b4a8a0"/><path d="M297.38 212.3c-1.27 22.62-12.37 43.78-28.51 59.87-1.17 1.16-2.24 1.54-3.26 1.91-.01-1.37.26-2.99-1.04-4.14l.39-3.56c6.77-7.77 13.16-15.88 18.83-24.31-3.06-2.44 1.05-7.95 3.78-8.76-.53-.18-.95-.39-1-.67-.38-1.93 2.05-19.04 2.89-20.29.46-.69 1.4-.9 2.23-1.06-1.47-3.39-1.48-8.05.71-10.78l-.49-11.18.8-1.13c-.16-1.08-.13-2.4.57-2.95s2.39 0 2.44.8l1.65 26.25Z" style="fill:#2b221f"/><path d="m184.7 95.1 3.56-.23c1.02-.07 1.82 1.18 1.25 2.57l-1.57 2.06c1.07 2.34.57 3.91-2.11 3.74.07 2.17-3.33 3.09-4.17.82-2.87-.62-4.75-1.68-5.64-3.17-1.54-.36-3.22-2.37-4.26-3.54 3.98-1.91 8.48-1.96 12.94-2.25" style="fill:#c4b9b3"/><path d="M209.5 102.87c1.91.21 1.83.95-.12 1.36-.07.78-.32 1.83-.89 1.89-1.79.16-16.3-.06-16.83-.72-.3-.37-.49-.84-.64-1.34-3.26-3.65 1.42-3.85 4.78-2.2 4.89-1.02 9.26-.99 13.7 1.01" style="fill:#483b37"/><path d="M218.55 103.53c1.79.13 3.89.19 5.23 1.88.56 2.8-1.56 3.95-6.34 3.43-.12.29-.41.61-.86.95.02 3.89-5.76 1.69-4.69-1.66-.55-1.39-1.38-2.69-2.49-3.89l.12-1.36 9.05.66Z" style="fill:#4c3f3b"/><path d="M189.51 97.45c1.69 2.13 4.36 2.79 6.29 4.41-1.64.34-4.33-.29-4.78 2.2.13 2.77-2.24 2.97-3.19.31-1.37.96-2.14.54-2-1.12.38-.66.84-1.86.57-2.47-.4-.91-1.32-1.4-2.77-2.07 1.85-1.21 3.86-1.19 5.87-1.26Z" style="fill:#bbafa8"/><path d="M236.35 110.01c4.2.39 8.25 3.86 10.33 7.2l-5.22.25c-.8 2.77-2.95 2.46-3.49-.35-2.98-.06-6.02-.94-9.14-2.63-3.53-.03-6.32-.76-8.38-2.19-1.45-.52-2.99-1.25-3.88-2.49-1.73-2.2 2.7-1.25 7.21-4.38h1.08c3.43 2.12 7.27 3.66 11.5 4.61Z" style="fill:#392e2b"/><path d="m236.42 109.04-.06.97c-2.77-.26-6.1 1.18-9.04-.58l-2.45-4.03c4.12-.01 8.22 1.44 11.56 3.64Z" class="cls-221"/><path d="M183.08 109.34c-.12 2.37-1.51 2.94-4.18 1.72.17.76.36 1.89-.14 2.18-.93.54-10.51 4.22-11.08 4.05-.84-.24-1.52-.64-2.01-1.4l-1.95 2.92c-13.41 6.17-25.7 15.46-34.32 27.44l-2.97.67c-2.22 6.22-5.18 12.15-8.29 17.99-.56 1.04-1.67 1.59-2.76 1.98 1.15 5.77-.88 12.84-5.07 16.98-2.35 23.63 2.36 45.11 13.31 66.01l-.37 2.01c-1.5-.14-2.32.37-2.49.92-.37 1.25-.21 2.42.12 3.34-7.79-9.01-12.38-20.17-15.13-32.15-1.75-7.66-3.59-14.88-2.99-22.83.05-.64-.69-1.14-1.06-1.03.02-9.09 1.05-18.17 3.97-26.81l4.14-12.22 3.95-8.89 9.5-12.58c7-9.26 15.03-17.28 24.59-23.25 4.68-2.92 10.17-6.01 15.62-6.3l17.09-3.99 2.34 1.22c2.67.09 2.64 1.02.17 2Z" class="cls-183"/><path d="M127.71 266.04c-.84.1-2.39-.02-2.73-.71-1.11-2.28-4-3.96-3.65-6.8 3.39 1.78 5.2 4.09 6.37 7.51Z" style="fill:#28201e"/><path d="M185.84 103.25c.81-.16 1.6.4 2 1.12 1.8 2.99-2.99 5.28-4.92 2.97-6.09 2.68-12.82 2.41-19.43 2.76l12.31-5.64c-.64-2.78 4.46-2.01 5.87-.39z" class="cls-221"/><path d="M176.03 100.9c2.21.51 5.27.28 5.64 3.17l-5.87.39c-.88-.41-1.33-.8-1.73-1.2-.57-.57-.57-1.95.19-2.33.39-.19 1.46.09 1.77-.04Z" style="fill:#cec0b9"/><path d="M125.54 228.48c1.79-.21 2.72 1.03 2.78 3.72.89.63 19.14 2.57 21.48.83l1.81 2c2.46-.25 3.76 2.28 2.18 4.19l2.18-.14 3.52 6.85c1.64-1.15 3.71-1.21 6.2-.19 5.47-1.49 10.86-1.8 16.15-.93 8.69-4.66 18.27-5.51 28.74-2.54 2.91-.44 4.87.2 5.89 1.91 1.58 1.75 1.36 2.08-.25 3.31-3.7 2.85-16.91 6.73-20.74 2.49-2.08 1.53-4.68 2.48-7.29 1.89a47 47 0 0 0 2.02 9.61c-6.3 2.34-2.21 3.97 2.27 4.62 3.71.54 7.63.03 7.56-4.56l1.78-1.31c-.09-.89.17-.91.75-.16l4.08-2.47c4.1.63 8.17.57 12.22-.18.31-3.04 6.95-5.01 9.09-3.01.57-1.74 2.15-2.27 4.73-1.59 1.9-.35 2.63-1.62 2.2-3.79-3.09-.48-2.98-3.13.08-3.65.22-1.38 1.48-2.17 3.79-2.36.06-2.1.81-3.4 2.25-3.88 6.56-.71.82 10.37-1.89 13.17 1.75 1.85 1.09 2.48-1.36 2.02l-4.02 4.72c-2.41 1.91-8.37 6.01-10.08 2.34-4.52 2.38-9.56 3.48-15.13 3.3.32 6.89 8.7 10.69 15.26 9.06l1.88 1.53c1.4.53 2.75 1.84 4.03 3.92 5.83-2.19 11.77-3.92 17.83-5.2l1.24 2.03c1.96.47 2.28 1.53 1.99 3.4-14.2 10.43-31.93 14.55-49.78 16.21-5.49.51-9.75.68-14.48-1.2l.89-2.19 9.57-.81a388 388 0 0 0-33.74-7.95c-13.42-5.79-33.46-21.17-39.54-34.48-.36-.8.32-1.85.91-2.66 2.34-1.23 4.72.32 7.15 4.65l13.51 11.38c.54 2.01 2.34 3.55 5.39 4.61.29-.37.6-.71.98-.9.55-.29 8.92 7.19 9.35 7.74l.29 2.19 13.09 3.98c8.09-2.78 17.34.29 24.37 4.95 3.07 2.91 17.89 1.07 18.69-2.18.24-.99-16.02-8.06-18.75-7.66-6.42.86-12.2-.19-17.31-3.15-3.89-.11-5.54-1.5-4.96-4.18 11.14-11.32-9.28-14.95-17.95-14.54-.3.01-.62-.31-.94-.73-8.04 4.18-14.94 3.93-20.7-.73-4.62-6.39-9.8-12-15.55-16.83.24-1.46 2.43-.67-.61.57-1.16-.37-2.44-.79-3.09-1.79-4.2-6.43-7.8-31.17-4.73-37.94 2.03-4.48 5.54-1 7.44 2.01 3.62 9.73 5.38 19.95 5.27 30.67Z" style="fill:#453c3a"/><path d="M127.64 221.13c2.41.83 1.74 2.35-.82 1.99.16 2.56-.26 4.35-1.28 5.36-5.27-10.72-1.03-26.57-10.62-33.65-2.31 14.35-.54 28.64 5.73 40.7 3.17-.76 6.44 8.95 3.96 10.85 2.48 6.8 7.25 12.85 13.49 17.4 5.28 3.85 9.62 8.2 14.44 12.56 4.86 4.4 11.85 5.33 18.08 6.81l33.14 7.86c-5.58 3.74-11.48 2.23-17.24 3.45-3.59-1.42-8.49-.83-11.98-3.21 2.02-1.76 1.31-2.85-2.13-3.26l-6.72-.71-20.51-11.69c-7.37-6.05-18.17-17.31-21.93-23.69-12.19-20.71-19.11-44.74-12.93-68.03l2.16.83c-.05 1.58.51-.21 1.68-5.36 3.84-11.16 12.23-7.51 5.26 3.02 9.5 9.51 10.93 26.17 8.21 38.76Z" style="fill:#544a48"/><path d="M283.79 242.07c-4.54 10.53-11.84 19.14-19.22 27.87l-13.78 9.5c-.88-.1-1.62-.55-1.82-1.05-.35-.85-.3-1.62-.17-2.36-1.64-1.44-1.21-3.08 1.29-4.91l15.48-13.18 2.37.61 8.5-10.19c2.66-6.65 5.11-8.75 7.35-6.29" style="fill:#574b46"/><path d="M174.55 291.25c-3.53-.03-6.1-2.4-8.85-3.96 5.45-3.26 10.84-.55 16.57 3.41-2.52.77-5.09.58-7.72.56Z" style="fill:#5c514e"/><path d="M271.03 141.16c4 4.82 8.86 8.94 11.51 14.72l9.26 26.26.04 1.12-.73 1.06c.55 2.67 2.43 16.54.85 17.51-2.26 1.39-4.09-2.01-4.57-3.95-2.05.29-2.35-1.44-1.13-3.16-1.58-6.82-2.71-13.81-3.4-20.97-.66-4.45-2.4-7.11-5.21-7.97-1.63-1.35-2.23-3.34-1.79-5.95-3.6 1.92-4.78 5.7-3.57 11.34-.73 3.32-2.9 6.26-5.55 2.94-2.4-.56-3.81-3.09-4.24-7.61-1.68-3.32-1.68-5.76 0-7.33-2.74-2.64-7-7.36-1.92-9.02 1.36-1.52 3.36-1.26 6.01.78-1.91-2.84-2.85-5.44-2.83-7.82-4.91.35-7.61-8.3-1.39-8.37 2.93 2.71 5.82 4.86 8.66 6.43Z" class="cls-101"/><path d="M259.72 130.35c4.51 2.68 8.04 6.85 11.32 10.81-.41.97-1.04.9-1.63.51l-8.83-5.74c.15 3.18 1.56 5.33 3.19 7.16 1.12 2.1-.25 3.48-4.11 4.13-1.2 2.61-3.3 1.56-2.88-1.23-2.12-3.02-3.68-6.69-4.68-11-4.41-2.95-6.65-6.2-6.7-9.74l1.34-1.02c.23-.88.55-.89.96-.04l3.75 1.1c2.72 2.5 5.48 4.18 8.28 5.07Z" style="fill:#8a7b75"/><path d="m237.98 117.1 3.49.35 4.78 2.12c2.28 1.01 3.8 2.41 4.51 4.4.51 1.49-.51 1.56-3.07.21l-.96.04c-1.78 2.71-6.78.05-9.17-1.46-5.64-3.59-6.42-7.85.41-5.67Z" class="cls-31"/><path d="M250.76 123.97c3.55-.25 6.74 3.54 8.96 6.38-.34.72-.65 1.06-1.04 1.27-1.01.53-1.77-.08-2.63-.75l-8.36-6.68 3.07-.21Z" style="fill:#8f7f79"/><path d="m286.26 194.71 5.05 6.29-.65-16.77c-.03-.72.68-1.29 1.18-.97-.87 1.63.48 3.67.87 4.95 2.33 7.58.4 15.51-1.02 23.1-3.28 0-5.37-2.67-6.26-8l-1.82 2.38c1.67 4.34-1.56 15.65-6.86 12.52-1.48 1.26-2.02.7-1.12-1.07-4.37.84-2.72-3.52-1.53-6.34.39-13.26 1.53-26.51 3.47-39.82 1.47-2.32 3.42-1.51 4.63.68 1.08 7.78 2.44 15.46 4.06 23.06Z" style="fill:#564b4a"/><path d="m275.63 217.13 1.12 1.07c1.45.19 2.55 1.42 3.28 3.68 6.22-9.83 8.43-6.38 6.62 10.36l.92 1.07-3.78 8.76c-1.23.09-3.24 1.03-3.69 2.37-2.25 6.72-7.51 10.15-12.16 14.11l-1.45-1.87c2.62-4.63 5.62-9.02 8.98-13.17.65-2.81 1.7-4.91 3.17-6.3q-.945-2.4.81-4.71l.03-2.08c-3.58 2.09-6.23 1.6-7.96-1.46-2.5-9.93-5.12-1.96-4.68 4.11 2.89 1.1-1.05 8.25-3.91 7.35l-1.87-1.43c-2.02 1.54-7.76 4.74-9.08 1.12-.87-2.39 5.19-12.69 7.84-13.93-1.58-1.49-1.12-2.33 1-1.87q.36-2.7 1.95-2.31c.96-3.59 10.22-7.32 12.85-4.87Z" style="fill:#483f3c"/><path d="m291.69 211.3-4.12 22.01c-.45.21-1.02.81-1.71.89-1.49-5.86-.51-11.1-.44-17.08l-5.24 8.28c-2.49-2.32-3.29-4.76-3.43-7.19 4.59-2.18 6.02-7.65 4.99-12.92l4.72-7.27c.76 5.36 2 9.72 5.24 13.28Z" style="fill:#504543"/><path d="m191.02 104.06 18.36.17 6.52-.19c-.64 2.49-2.42 2.99-4.03 4.08-.24.77-.6 1.92-1.21 1.96-2.14.14-18.14-.21-18.98-.65.34-1.38.06-1.18-.85.6-.88 1.81-4.21 1.9-4.87-.11-1.18.1-2.14-.1-2.88-.59l-.17-2c1.76-.77 3.57-1.54 4.92-2.97l3.19-.31Z" style="fill:#3c302d"/><path d="M237.98 117.1c-1.4.17-2.61.56-3.66 1.8 4.7 2.31 8.32 4.39 12.42 5.33-.53 5.18 6.03 7.16 7.45 10.41 1.63 3.73 2.06 7.71 2.59 11.35-.25 2.52-1.01 2.33-2.13.13-2.47.07-3.23-.86-1.83-3.12l-20.53-19.81c-1.35.03-2.51.45-3.69 1.13l-2.25.31-6.15-8.31c-3.13.08-5.3-.61-6.52-2.07l6.78-1.98c6.2-1.45 12.69.83 17.52 4.82Z" style="fill:#91817a"/><path d="M132.41 193.66c-.12 9.44-1.23 18.73-3.33 27.86l-1.44-.39c.08-6.19 1.25-12.8-.82-19.08l-3.47-10.52c-1.29-3.92-3.66-6.57-7.03-9.09 2.53-2.59 4.82-4.87 3.98-8.66-6.43 4.66-4.89 15.07-8.05 21.59-1.84-4.02-1.2-7.84-1.92-11.49 1.51-5.7 3.11-11.42 5.07-16.98.74.35 1.45.43 1.73-.12 1.69-3.29 3.35-6.55 4.88-9.92 1.15-2.29 2.71-3.95 3.86-1.08 6.08-.76 5.52 6.65 4.96 11.13-.46 3.7-2.26 7.43-4.39 10.46 7.21-2.01 11.71-1.39 10.84 7.42-1.67.08-2.33 1.5-1.99 4.26-.2 3.1-1.17 4.63-2.89 4.61Z" class="cls-1"/><path d="M137.49 164.01c1.32 1.18 1.16 3.12-.47 5.85 2.82-.44 12.97-1.33 14.94-.21 1.71.97 1.8 2.06 1.33 3.92-2.25 2.85-4.51 5.92-2.62 9.54.91 3.12-1.46 4.78-7.09 4.97-1.26.87-2.49 1.33-3.67 1.36l-2.23 1.31c-.44 3.74-1.79 5.57-4.05 5.51-2.64 1.41-2.34-.42-1.22-2.6 2.9-3.87 3.59-10.28 2.26-15.15-4.94-.5-8.37 1.53-13.38 1.53 11.36-9.87 8.23-25.79 3.94-24.02-.73.3-1.27.6-1.78 1.93-3.6 9.46-7.95 14.92-8.04 8.94 2.57-7.27 6.56-13.8 11.05-19.97l-1.19 8.85c7.23-1.11 12.56-1.68 19.35 1.46-4.75 1.58-5.87 3.62-7.12 6.77Z" style="fill:#7d716d"/><path d="m178.91 111.06 7.95 4.91-1.15 1.96-8.56-.17c-2.19 1.08-3.98 1.22-5.4.42 1.42 3.04-2.61 3.9-4.03 1.19-.99-.9-1.58-1.97-2.05-3.49l13.22-4.84Z" class="cls-131"/><path d="m256.05 219.15 1.74 1.44c-1.19 2.42-.51 4.29 2.02 5.59-.71 4.84-4.15 8.64-6.85 13.01-.42.68 1.4 1.9 2.3 1.22l2.69-2.02c1.09-.82 2.28-1.33 3.28-1.28 1.61.08 2.08 1.89 1.7 3.31 2.93 1.26-.3 9.35-3.3 9.03-.5-.22-.48-.99.07-2.31-1.14-.24-2.22-.89-3.23-1.92-4.72-.47-7.3-2.43-7.73-5.89l-4.18 9.91c-1.83 2.96-3.63 3.99-5.41 3.08l2.92-6.72c1.25-2.75.62-4.85-1.03-6.45-1.22.51-2.65.62-4.28.33-5.94 3.55-12.18 5.73-18.74 6.54l-1.54-1.83c-12.35 1.45-19.95-6.02-34.27 2.51-11.46-2.2-16.51 3.83-20.36-.71-.51 2.18-.24 3.55-2.17 4.65l-5.87-11.43c-1.15-2.05-.27-3.01 2.07-2.9.51-7.42 4.73-9.13 8.28-2.03-3.84-10.87 2.82-11.54 9.92-4.56l4.73 2.04c8.7.83 17.03 2.06 25 3.68 4.76 4.88 13.48.8 18.77-1.8l17.69-16.56c6.04-1.86 11.45 7.77 3.41 7.01.19 5.6 1.05 6.76 2.6 3.51l1.47-.4c-2.46-2.68 1.29-8.66 3.23-11.18 6.81-8.85 11.79-4.2 5.09 3.13Z" style="fill:#574e4b"/><path d="m161.29 276.04 1.32-1.73c1.73.74 14.83 4.23 12.6.39-4.78-2.96-8.94-6.41-12.5-10.34l1.84-3.16c-2.79.93-4.91.5-6.37-1.28q-1.02-7.575-9.33 1.98c2.06 1.77 2.66 3.48 1.81 5.13-1.41.2-3.19-.14-4.53-1.27L130.4 252.5c-2.22-1.87-3.03-5.11-5.79-6.11l-3.96-10.85c.11-.6-.28-1.39.19-2.55 4 1.11 6.31 4.12 8.88 7.2l8.16 9.8c3.35 4.02 8.23 4.15 13.43 2.68 10.09-2.85 22.27-1.9 29.81 6.11 2.78 2.95-1.31 7.56-3.79 11.2 4.25-1.85 8.57 2.98 11.59 3.24 7.48-.03 13.85-1.14 20.54 3.38 3.37 2.28 7.55 3.74 11.85 5.38-8.05 8.54-19.62 8.3-28.43 2.01-7.52-5.37-21.82 0-31.59-7.94Z" class="cls-124"/><path d="M278.63 237.21c1.55 8.43-8.13 13.07-10.69 21.35l-15.55 13.21c-1.64 1.39-2.84 2.64-3.59 4.27-8.35-.58-16.91 7.36-20.9 4.57-1.28-.89-1.97-3.47-2.19-5.32-.26-.78-.3-1.74.24-1.92 4.39-1.43 9.1-2.79 13.75-2.9l.36-1.54c10.61-2.45 16.34-9.6 19.56-19.49l3.3-9.03 3.91-7.35c-1.1-6.14 3.31-7.39 6.56-2.01 3.63.52 7.76 2.03 5.24 6.14Z" class="cls-209"/><path d="M233.62 214.74c5.07 1.99 2.18 7.8-3.52 7.31-4.65 2.96-9.08 6.39-13.3 10.29-4.95.4-9.6 1.56-13.94 3.47q-2.625-4.065-6.27-2.4c-14.11-.46-26.41-7.14-38.41-13.72l-.31 12.14q-1.83 1.485-2.01 4.5c-.51 1.14-.59 2.45-2.07 2.9-.67-1.3-2.24-2.59-2.18-4.19-2.92-.1-2.69-3.4.13-3.95-2.88-1.13-2.41-10.28-1.86-13.24.25-1.34.47-2.49 2.03-2.76-2.5-3.83 2.75-7.21 7.19-6.27 3.99 2.19 7.91 4.56 11.75 7.09 3.49 3.8 8.86 7.7 12.28 1.81 1.47-1.03 3.05-.98 4.27.36 1 9.99 14.88 6.48 21.16 4.5 7.69-3.27 15.41-6.42 23.16-9.44l1.9 1.61Z" style="fill:#69615f"/><path d="M241.04 239.15c.19 1.77.33 4.49-1.22 5.63-1.14.84-3.46.82-4.83.61-.09.9-.51 1.61-1.4 1.8-8.95 1.96-15.46 3.4-24.34 6.6-2.38-.51-7.79 1.98-6.13 4.48l-1.29 1.96c.73 2.22-.39 6.6-3.58 7.47-4.59 1.26-11.24.26-14.17-3.9-.98-1.39 2.92-3.17 5.09-3.02-2.88-3.19-4.35-7.8-2.06-11.23 2.99 1.31 6.26.08 8.77-2.61 1.86 2.73 4.08 3.78 7.82 3.06 4.89-.94 10.42-1.17 12.77-5.84l7.57-.89 11.41-5.43c2.33-1.11 4.04-.21 5.58 1.28Z" class="cls-124"/><path d="M161.29 276.04c-3.5-.88-5.65-3.78-8.11-6.37l-2.51-2.65c-1.63-1.72-2.38-3-5.15-4.32 3.35-4.03 6.84-7.73 12.53-9.22l2.23 6.35 8.24-1.33c-.1 2.45-2.08 3.6-4.33 5.64l13.86 10.14-3.43 5.09-13.33-3.35Z" style="fill:#36302e"/><path d="M259.7 247.14c-.25 3.44-1.23 5.49-2.92 6.17-3.57-4.8-8.09-3.28-12.26 1.22-5.13 5.53.97 6.35 5.81 4.22l1.5 1.74c.55.76.86 1.68.3 2.21-4.09 3.87-16.24 8.72-20.85 5.08-3.56-2.81 4.05-10.83 6.52-13.43.17-.62.8-1.76 1.36-2.02 6.64-3.08 4.67-15.35 11.79-17.45-.2 2.48-.52 4.53.24 6.29.91 2.11 8.67.53 8.51 5.98Z" style="fill:#9a8a80"/><path d="M259.63 249.45c-.38 12.85-8.51 17.1-19.93 21.03l-4.79.5c-9.39 4.32-16.25 3.44-20.6-2.64 1.9-3.42 5.03-5.74 9.39-6.94 6.01-.52 9.4-5.19 14.09-7.06-1.1 4.11-3.66 7.75-6.34 11.7 8.01 2.58 16.09.64 20.37-5.56-2.31-2.05 2.11-8.29 4.95-7.18l2.92-6.17-.07 2.31Z" style="fill:#695c56"/><path d="M235 245.39c-.18 1.12-.42 2.67-.08 3.65l-1.01 2.02c-2.12.74-4.1 1.86-5.93 3.37-2.65 1.42-6.12 2.22-9.09 3.01l-5.79.83c-4.72-1.25-6.37-.45-10.5 1.82l-.75.16c-.36-1.11-2.05-3.59-.97-5 9.05-4.44 27.82-10.8 34.13-9.85Z" style="fill:#342e2c"/><path d="M223.7 261.4c-1.8 2.68-4.53 3.99-7.89 6.94 9.86 8.04 14.78-.9 23.89 2.14l-13.99 4.82c-4.17 1.44-8.88 1.09-13.18-1.31-3.47-1.94-6.16-5.95-6.85-11.04z" style="fill:#544845"/><path d="M148.33 230.26c1.19-2.65 3.25-2.06 3.42.81l-.13 3.95c-5.5-.36-8.01 2.96-16.34-.41l-7.24-.56c-2.36-.18-1.77-4.13-2.48-5.58-.3-1.98-.03-4.03 1.28-5.36 2 .1 2.27 1.01 2.44 2.77 4.14 2.73 9.33 3.38 15.58 1.94l3.48 2.43Z" class="cls-1"/><path d="M234.91 249.04c.71.43 1.65 1.06 1.88 1.77.42 1.32-.52 2.25-1.32 2.92-2.66 2.22-5.63.39-7.49.69.16-3.8 3.56-5.52 6.93-5.38M218.89 257.43c-2.49.66-4.78 2.4-8.23 2.13-2.87-.23-5.65.26-8.07.52 1.66-1.27 2.74-2.99 4.07-5.83 3.83 2.53 7.87 3.44 12.23 3.18" class="cls-124"/><path d="m133.63 196.26 2.11.59c.62 8-.29 16.14-2.74 24.41 1.9-1.69 3.64-1.18 4.9.92.11-5.38-.29-10.74-1.19-16.06l1.71-2.45c-.88-3.8-.4-5.29 1.45-4.47l2.1.93 1.61 15.85c1.83-.62 3.22-.23 4.17 1.16.79 1.84-.26 3.47-3.15 4.88l4.9 6.19-1.18 2.06c-7.85-2.04-20.12 4.5-21.5-7.14l.82-1.99c.9-.97 1.93-2.28 1.94-4.14l.02-17.76c0-3.24 1.57-3.93 2.81-5.58z" style="fill:#6b625f"/><path d="M252.81 143.01c.59 1.08 1.95 1.53 1.83 3.12 1.19 1.1 1.01 2.27-.55 3.52 2.97 3.03 5.78 6.2 8.41 9.51l4.25 14.94c2.74.79 2.55 1.4-.12 2.3 1.04 1.64 1.51 3.6 1.51 5.53 0 4.08-2.46 15.24-7.45 14.14-.86 5.43-6.53 10.91-11.96 12.04-8.09 1.68-7.43-3.37-3.89-8.7l-2.1-.15c-2.89 1.62-3.25-11.06-2.88-12.05.88-2.38 7.96-4.67 8.36-.97-.28 3.61.18 4.46 1.37 2.55-1.44-2.42-1.27-5.04.48-7.86 0-5.03.52-9.96 1.57-14.79-2.11-4.03-1.91-6.68.62-7.96-4.41-1.45-8.22-9.19-7.97-13.83.46-8.59 4.55-5.66 8.53-1.33Z" class="cls-58"/><path d="M286.26 194.71c-1.66-2.06-3.51-2.96-3.94-6.51-.72-5.91.57-11.93-2.77-17.82-1.05 7.4-1.12 13.29-2.47 19.92l-.96 20.35c-.11 2.37-2.69 4.4-.49 6.49l-12.85 4.87c-.49-.19-.86-.36-.85-.48.27-1.8 1.57-8.3 3.11-8.48.53-.06 1.08 0 1.63.12 3.31-11.79 3.24-24.96-.04-36.78.06-.69.31-1.6.12-2.3 6.73-.36 1.36-8.4 4.47-13.03 1.01-1.5 4.52-4.52 6.44-2.84.78.69-.1 3.89.24 5.06.29.99 2.58 1.38 3.68 2.02 4.62 9.26 5.38 19.36 4.69 29.41Z" style="fill:#514644"/><path d="m256.77 146 2.88 1.23c2.73-2.17 4.19 1.7.93 2.9-1.26 2.92 1.07 6.05 1.92 9.02-4.29-2.22-8.31-5.4-11.04-9.85l3.19-3.18c.57-.11 1.58-.36 2.13-.13Z" style="fill:#706662"/><path d="M260.58 150.13c.32-.75-.2-2.59-.93-2.9-.21-2.88 2.41-2.28 4.11-4.13 2.71 3.05 5.95 6.15 4.8 11.05z" style="fill:#7e7169"/><path d="M266.67 213.17c-2.31 2.85-4.5 4.97-3.89 8.84l-1.95 2.31-2.04-1.56c1.33-3.98 2.64-7.82 3.94-11.53-.64-.72-1.31-.33-2.02 1.19 2.54 2.19-.93 10.74-4.65 6.74.39-1.86 2.08-3.4 1.48-6.51-4.37 1.73-6.37 5.72-8.11 10.21l-1.68 4.34c-2.43 1.58-4.19-.37-4.07-3.1 1.11-.9 2.54-2.54 2.13-3.61-.57-1.48-3.83-2.56-5.05-1.37L226 233.46c-4.49 4.36-11.16 5.54-17.12 6.35-3.56.48-4.72-2.3-6.75-2.92-11.39-3.48-24.33.92-33.25-8.91-.9-.99-4.69-1.23-4.26.17l2.17 7.07c.51 1.67-3.63 1.38-4.55.27-.6-.72-1.02-1.51-1.06-3.24-.4-.75-3.35-.23-3.82.81l-1.48 3.27.03-19.16c1.85.44 5.37.9 6.34 2.1 2.07 2.56 3.41 2.13 6.13 3.45l13.29 6.44 7.15.81c4.31 2.2 8.37 1.9 12.64.06l1.57 4.48c3.33-3.64 7.18-3.19 11.58-3.62 6.2-.61 9.6-12.54 19.38-10.96.23-1.83-.06-3.36-.34-5.16l-.09-2.25c4.65-3.84 9.23-2.9 13.73 2.81 2.77-6.36 9.28-12.15 16.45-11.21 5.17-2.45 4.54 5.75 2.95 9.07Z" style="fill:#615855"/><path d="M278.63 237.21c-.87-4.77-5.25-2.74-9.23-8.16a33 33 0 0 0-2.57 4.03c-1.32-2.21-2.23-5.44-1.33-8.09.66-1.95 3.15-2.83 4.5-2.52 3.65.84 2.47 6.68 4.26 7.68 1.22.68 4.21-2.98 6.32-1.37s.99 5.67-1.96 8.43Z" style="fill:#3d3533"/><path d="M260.82 224.31c-.42.5-.91 1.23-1 1.87l-5.39.73 1.63-7.76c2.93-.37 4.96-4.16 4.65-6.74.28-1.75.72-2.78 2.02-1.19l-.34 6.5c-.13 2.45-2.13 4.26-1.56 6.59Z" style="fill:#84766f"/><path d="M213.68 114.26c2.62-.22 6.76-1.19 8.59 1.34l6.33 8.73 1.2-.58c1.84 1.72 3.38 4.05 4.61 6.98 9.83-.79 18.68 10.42 3.28 9.56-17.32-3.93-11.97 5.92-3.89 14.58 2.9 1.64 4.2 3.39 3.89 5.24l-.3.99c-3.67-.31-5.99.42-6.99 2.2-4.1 1.8-17.49-5.39-18.55-8.48-.94-2.75 3.18-8.51 6.14-9.57l-.79-2.29c4.41-3.65 5.91-7.35 4.51-11.08l1.11-1.88-2.42.16c-6.49-4.63-15.01-2.34-21.17 1.93l-2.43-.71-7.33-4.8.26-2.59c-1.12-1.21-.85-2.52.8-3.92-1.17-1.32-2.06-2.71-2.66-4.15 3.76-5.66 4.81 2.83 11.9 6.49-1.02 1.35-2.31 1.84-2.74 3.96 3.58-2.24 8.5-2.29 12.02-3.56.1-5.72 6.21-5 5.71-6.17-.13-.31-1.05-.82-1.95-.94-1.72-.54-.74-2.44.86-1.45Z" class="cls-131"/><path d="m186.86 115.97 1.01-.05c2.42-.11 4.66 2.16 4.83 5l-2.97 3.07c-3.35.49-6.93.22-10.73-.81a30.9 30.9 0 0 0-6.78 5.26l-2.24-.22c-1.31 1.44-2.04 1.94-2.32-.24l-.58-2.27c2.59-2.28 4.15-4.79 4.68-7.51 1.69-1.66 4.02-2.58 6.96-2.48l8.15.26Z" style="fill:#c0b4ae"/><path d="M211.88 108.13c1.24.37 2.84 2.47 4.69 1.66.76-.33 2.44-.46 3.52-.31.65.09.62 1.99.37 2.8l-.14 1.08-6.64.89c-1 .71-.4.99 1.82.86q2.13 3.18-3.81 5.61l-1.21 3.14c-.47.45-11.75 4.28-12.35 4.03-2.52-1.02-3.52-2.43-1.8-4.7a37.5 37.5 0 0 0-5.93-7.9c-.04.74-.88.95-2.52.62-.25.89-.59.89-1.01.05l-7.88-2.51-.08-2.4c1.29-.47 2.38-1.82 4.18-1.72 1.06.06 1.85.25 2.88.59.04 1.9 4.68 2.07 4.87.11-.34-.41-1.01-1.03-.88-1.49.14-.5.95-1.11 2-1.08l19.92.65Z" style="fill:#867974"/><path d="M185.96 109.93c1.45.47 3.33.16 4.87.11.51.07.92.36.93.89.05 1.8-6.36 2.29-8.19-.54 1.12-.6 1.84-.32 2.39-.46" style="fill:#998c86"/><path d="M209.37 120.43c-5.18 2.46-10.3.6-13.93-2.87 5.12-3.4 10.88-2.43 13.93 2.87" style="fill:#7c706d"/><path d="M252.81 143.01c-2.18-.38-3.86-1.51-5.73-2.95-3.44 10.16 5.15 14.23 5.17 18.11-.1 1.01-.57 2.02-1.54 2.15-2.41.33-17.38-8.44-16.96-10.52.15-.77.97-1.23 1.71-1.57-.12-1.46.78-2.4 2.7-2.81-3.35-3.46-11.85-4.23-4.23.78l.74 2.05c-.16 1.46 0 2.66.47 3.62l8.59 5.71c.97 3.6-1.04 4.6-3.01 2.42.24 1.63-2.49 1.56-3.03.12l-4.33-3.58c-5.42-4.46-9.26-10.1-8.7-17.85l20.01-.61c-1.91-4.42-6.21-5.95-11.09-4.7l-4.99-9.05c-.58-1.24.1-2.34 1.07-2.66.75-.25 2.93-.81 3.79-.02l15.51 14.29z" style="fill:#8a7c76"/><path d="M156.55 165.27c1.55-1.67 4.19-3.36 5.47-.63.55-3.05 6.25-.73 7.65.62 1.68 1.62 1.83 6.63-1.04 6.97.76 1.37.58 1.65-.89.99-1.8.33-2.96-.02-2.9-2.16q-3.99.15-7.05 5.22l-3.96 1.78c2.74 1.28-.47 6.13-3.17 5.06-.96.07-2.09-.35-2.39-1.01-1.39-3.07 1.3-7.25 4.09-10.56-6.94-.18-12.9-1.15-18.4 1.48-.32-3.89 2.42-6.24 3.52-9.01 2.73-1.93 5.36-3.84 8.36-5.01 2.8-3.88 4.58-8.35 5.34-13.39l1.47-.65c4.13 1.94 2.36 11.48-.63 14.16l4.53 6.16Z" style="fill:#a3958f"/><path d="m167.66 127.98.32 1.35c-7.27 9.38-13.33 21.92-10.07 33.95l-1.36 2c-2.06-1.32-6.89-3-6.35-6.74 1.2-1.82 5.01-4.26 4.11-7.47-.56-1.97-2.13-3.98-1.66-6.1-.86-.73-1.22-2.33-1.09-4.8 2.59-8.36 9.81-14.91 16.18-20.77 1-.47 3.07-.26 4.03-1.19 1.01 1.19 1.89 1.87 2.66 3.87-3.81 1.1-4.86 4.31-6.76 5.91Z" style="fill:#bdb0a8"/><path d="M165.69 115.9c2.69.23 3.32 1.09 2.05 3.49l-.02 2.74-11.73 13.12c-.89 2.77-2.37 4.41-4.44 4.91.18 6-1.89 14.06-5.71 18.84-.14 3.05-5.61 6.54-8.36 5.01-1.7-2.04-1.04-4.2 1.96-6.49l-4.77-.62c-3.73.27-7.37-.11-10.93-1.12q.285-4.395 2.7-8.85c3.37-4.64 6.87-9.33 11.63-13.48 8.44-7.36 17.51-13.86 27.61-17.55Z" style="fill:#8f817a"/><path d="M143.91 141.95c-.15 3.58-7.5 9.93-9.75 10.29-1.15.18-3.95-.88-4.2-2.34 1.69-4.15 4.49-8.35 8.3-11.15 1.49-1.09 5.72 1.5 5.65 3.2" style="fill:#a19087"/><path d="M152.65 144.95c-1.72 5.34-1.06 11.81-6.8 14.04l5.71-18.84c1.73 1.07 1.44 3.24 1.09 4.8" style="fill:#9d9089"/><path d="M160.01 178.29c3.49 6.17 1.13 11.97-2.59 17.38l2.76 1.98c.32 7.76 7.51 13.04 14.11 15.8 4.36-3.27 10.2-3.3 14.83-.27 4.74 4.55 9.96 6.98 15.65 7.3.18-2.18.96-3.83 2.35-4.93 6.06-.16 11.76-1.94 17.09-5.35 5.15-.85 9.97-2.15 14.45-3.89-1.93-1.92 1.66-7.2 4.07-7.06.33-1.62 4.4-4.72 6.17-2.22-1.89 3.01-4.45 5.39-5.16 9.18 3.44.28 7.14.07 9.57-2.46l7.37-7.69c2.12.74 4.28 6.11 3.04 8.04-.3 1.27-1.43 1.69-2.97 2-6.47 1.3-10.57 6.24-12.85 13.05l-8.16-7.89-6.12 3.49c-12.24 2.51-25.75 15.37-44.58 10.77-1.76-.66-2.49-4.61-3.2-6.69-2.2 0-2.92 2.44-3.79 3.58-5.25 1.35-9.84-1.5-12.93-5.77l-6.74-4.07c-2.07-1.25-4.24-2.52-6.58-1.9-1.57.42-3.85 2.44-3.87 4.4-.51 2.75-1.86 2.56-2.41-.14-2.49-1.3-2.21-3.81.85-7.51-1.7-4.32-1.46-9.04.71-14.15-4.69-3.6-9.84-2.51-9.26 4.3l-1.94 1.63c-1.28.91-1.63 3-1.45 4.47-2.45 1.21-3.09-5.05-2.93-7 .1-1.15 2.65-8.06 4.42-7.22 2-4.7 8.2-2.25 10.76-6.33l3.17-5.06c2.44-2.16 6.73-4.6 6.18.24Z" style="fill:#736a67"/><path d="M139.91 189.44c-.61 1.44-.38 3.23-1.82 5.3-1.69 2.42-.52 6.59.33 8.93.92 7.69 2.34 15.17 1.1 23.67-2.07-1.16-2.71-2.85-4.08-5.68-1.57 1.39-2.35 2.91-4.7 3.66-.37-10.86 6.41-21.47 2.89-29.06 2.24-3.43 2.92-6.55 1.83-11.47z" style="fill:#988b85"/><path d="M247.74 227.19c-.38.99-.11 2.73-1.12 3.48-.89.66-2.19.86-3.28.35-.94-.43-2.64-4.51.32-6.94 1.65.66 2.78 1.88 4.07 3.1Z" style="fill:#7a6d66"/><path d="m151.92 215.07-.17 16-3.42-.81c-1.4-3.12-4.07-5.14-6.89-8.37l6.33-4.76c-1.46-2.15-.58-2.48 1.75-2.2l2.41.14Z" style="fill:#8d807a"/><path d="m256.77 253.31-4.95 7.18c-3.46.63-6.73 1.89-10.87 1.11-1.11-7.03 5.02-14.15 12.23-13.01 1.49.23 2.89.62 3.37 1.39.62.99.42 2.34.22 3.34Z" style="fill:#b09e92"/><path d="M149.51 214.93c-.07 1.14-1.09 1.7-1.75 2.2-1.94.4-3.52 1.16-5.95 1.09l-1.94-19.03c-.18-1.81.04-4.83.81-6.86 1.15-3.06 5.37-3.5 7.81-2.69 11.31 3.77-2.35 8.76 4.5 18.18-2.62 2.15-3.33 4.64-3.48 7.1Z" class="cls-1"/><path d="m252.25 158.16.09 18.52c.02 3.38-.14 6.18-2.36 8.72 1.17 1.49 2.21 3.19 1.06 4.66-1.07 1.38-3.81 3.02-4.53 1.33s.32-4.48-.59-5.6-4.37.88-4.26 2.28l1.06 11.17c-.57 2.84-2.36 4.74-4.07 7.06-8.04 3-17.86 4.66-26.59 5.56-1.64.17-3.3-.09-4.89-.49-2.31 4.87-5.06 6.82-8.26 5.84-6.08-3.76-11.05-8.83-14.89-15.19-3.91 7.61-15.85 9.7-20.03.95-.68-8.39-2-16.62-3.98-24.68-1.51-1.63-4.46-.55-6.18-.24 1.38-2.2 3.04-3.57 4.98-5.99.81-1.01 1.47-3.79 3.17-2.75l2.86 1.74c.51 1.1-.47 1.76-.51 1.68-1.33-2.49 3.86 1.92 3.27 4.46l2.22 1.07c1.27 5.72 5.23 11.26 10.94 13 7.05-5.05 16.04 3.35 19.54 9.6-2.58 2.95-.05 4.3 7.6 4.05 8.49-2.29 17.02-4.52 25.58-6.7 3.3-2.43 2.92-7.43 2.34-11.19l1.57-1.84c-.06-2.49 2.13-3.6 6.57-3.31.59-1.81 1.49-3.02 2.72-3.65-2.36-1.03-2.66-3.08-.93-6.15 2.41-2.88 3.4-5.81 2.98-8.78-1.87 1.62-7.5 1.59-8.02-1.18-2.82-.17-2.63-1.3 0-2.11l1.27-.2c3.87-.61-7.4-3.32-10.23-10.34 1.46-.38 2.29-.69 2.91-1.21.07-.89.35-.87.8-.03-.63 3.55 3.34 3.4 5.26 4.76 3.9 2.77 6.68 6.12 11.52 5.18Z" style="fill:#918581"/><path d="m266.67 213.17-.85-5.99c-.21-1.61-1.02-2.61-2.1-3.08-2.09-2.07-3.34-5.04-3.04-8.04 5.01-5.23 5.34-12.62 5.95-19.66 2.57 1.64 3.9 5.27 3.98 8.77l.42 17.54c.09 3.61-2.35 7.99-4.36 10.47Z" class="cls-101"/><path d="m262.73 211.22-2.02 1.19c-.13-1.07-.56-3.99.94-4.24 1.5-.09 1.12 2.29 1.08 3.06Z" style="fill:#706764"/><path d="M222.83 130c-2.01 1.1-4 1.85-6.14 1.98l-2.51.95c-8.69-2.86-11.86 2.73.33.45l1.3 1.97-.4 3.95c-.33 3.26-7.94-1.83-9.06 4.45l-1.84 10.29-5.28 1.6-3.46 8.31c.47 6.24-6 10.58-11.68 11.12q-3.135-8.595-10.41-10.83l-.92-2.15-3.85-1.94c-3.01-.66.89-5.62 2.77-5.79 7.89-.28 15.6-1.6 23.13-3.94 0 0-.58-4.27-1.75-12.81.28-3.91 1.53-5.99 3.75-6.23 5.33-4.04 11.88-6.66 18.87-5.47 3.18.69 5.5 1.99 7.15 4.09" style="fill:#c3b8b1"/><path d="M218 145.25c-1.55 2.36-1.57 5.76-5.25 7.86 4.99 4.34 9.54 8.04 16.01 8.42l8.93-1.42 3.03-.12v2.11q-1.275 2.79-6.36 1.95c3.28 3.64 3.81 6.34 1.6 8.1 2.96 3.71-8.12 11.29-8.39 5.02-3.76-11.3-17.54-12.67-20.16-18.78-1.38-3.22-.29-8.79 2.35-11.12 2.18-1.85 5.78-1.42 8.23-2.02Z" class="cls-293"/><path d="M189.73 123.99c2 2.59 6.23 3.54 7.07 7.39l-2.81 1.46a94 94 0 0 1-13.82-5.83c-10.19 7.02-13.31 15.23-13.94 27.77.88-1.48 1.69-2.13 3.54-1.49 1.38-1.88 2.05-1.97 2.03-.28 1.91.23 1.82.96-.13 1.35l-2.77 5.79c-1.89-.95-4.53.06-6.42 1.19-3.92 1.38-4.42-4.98-4.38-8.03.09-8.08 5.19-20.65 11.88-25.08 4.31-7.43 17.11-7.65 19.76-4.23Z" style="fill:#e1d7d1"/><path d="m169.98 128.22-3 5.17c-5.33 9.18-9.82 21.69-4.49 27.95-.3.95-.39 1.98-.47 3.29-2.04.23-3.22 2.08-5.47.63-4.96-11.19 2.35-29.9 11.11-37.29l2.32.24Z" style="fill:#cfc3bc"/><path d="m235.47 148.22-.8.03c-1.65.06-3.96-.87-4.88-3.36-.56-.75-2.92-1.06-3.33-3.1 5.64-2.51 12.45-.7 15.28 5.37l-6.26 1.06Z" class="cls-58"/><path d="M246.68 178.21c-1.36 1.27-3.51 1.5-6.43.7-4.45.15-5.09 1.42-1.95 3.8l-.92 2.46c1.32 3.88 1.52 13.06-3.34 14.94-5.27 2.04-10.84 1.5-16.11 4.27-6.33 3.34-14.48 3.19-20.96.6-.79-.67.51-3.6 1.71-4.11-3.68-4.21-7.67-7.78-13.07-9.81l-5.07 2.51c-7.21-2.73-11.94-9.17-12.94-16.4-1.85-2.36-1.8-3.68.13-3.98.37-.18.82-.56.89-.99 3.58 5.47 6.84 11.33 11.94 16.06 9.13-4.48 12.71 4.2 20.89 6.09 2.19.5 5.23 1.48 4.8 3.7-1.23.16-2.64-.84-3.16-.59-.64.31-.93 1.64-.85 2.22.41 3.12 7.84-1.3 17.57-.55-3.5-7.35-3.13-15.85 4.06-20.52.33 3.6-1.73 6.47.63 9.22 2.9-2.93 4.13-7.5 3.08-10.66 1.27 2.32 6.83-1.1 8.39-5.02 1.39-.85 3.33-1.26 5.82-1.24 1.48-5 3.8-7.55 6.96-7.63 6.38 3.67-3.04 6.98-2.06 14.93Z" style="fill:#a59b96"/><path d="m164.84 171.04 2.12.46c.65.14.8.96.78 1.7l-.13 3.98c-2.06-1.38-3.46-3.37-4.71-5.77.87-.35 1.42-.3 1.94-.37" style="fill:#837671"/><path d="M238.66 206.3c-.63.85-1.01 2.75-3.08 2.85-11.67.56-17.52 9.53-27.75 8.04-1.08 1.04-.72 3.31-.28 4.95-16.11 3.17-18.19-15.71-32.93-6.8-6.26-1.12-13.24-7.53-15.72-12.98-.61-1.34.22-3.74-.58-4.05l-4.11-1.59c4.39-5.74 6.94-11.61 5.8-18.43 7.1 7.63 3.29 21.83 6.96 26.18 2.48 2.94 10.67 2.71 13.18-.45 1.67-2.1 1.75-4.84 1.88-8.07l8.02 10.85c3.07 4.15 6.76 7.38 11.55 9.48l4.47-7.44c4.33 1.95 7.98.71 12.33.1l20.27-2.64Z" style="fill:#7f7673"/><path d="M240.72 162.11c2.8-.03 5.5-.27 8.02 1.18-2.53 2.11-3.32 5.12-4.91 8.21-1.35 2.6-6.08 2.17-7.86.66-.4-3.5-2.65-6.24-5.29-9.56 3.45-1.05 6.78-.45 10.05-.48Z" style="fill:#aea29c"/><path d="M246.68 178.21c.18 1.47.03 3.45-.84 4.59-1.86 2.4-5.67.28-8.45 2.37-.68-2.01-2.82-3.17-4.69-5.23 4.16-3.79 9.64-3.61 13.98-1.72Z" class="cls-293"/><path d="M216.69 131.98c.39 1.33-.78 2.32-.88 3.37-4.05 0-7.87 1.15-12.43-.06.34-2.08 1.76-4.17 3.63-4.84 3.43-1.22 7.03-.03 9.68 1.53" style="fill:#d1c4bc"/><path d="M218 145.25c-1.41 1.85-3.43 2.86-6.05 3.01-6.01 6.66-3.04 12.53 8.9 17.6l4.75 4.07c3.03 2.81 3.68 5.22 1.98 7.24 3.46.64 2.57 4.92 1.32 7.53-2.87 5.96-6.97 6.59-7.57-.76-2.82 4.6-1.48 9.59-.05 14.44 0 .6-.08 1.15-.36 1.55-.68.96-17.74 3.21-18.98 2.33-2.14-1.52-2.18-4.01-.44-5.83l-4.81-1.75c-5.3-4.87-10.82-6.43-16.57-4.69-5.25-4.15-11.31-10.88-11.5-17.77l.77-4.98c-2.15-.68-5.29-2.84-7.38-2.61-2.41-1.67-2.41-2.63.47-3.29-.08-1.96.17-3.2 1.71-2.05 3.25-1.74 4.82-1.45 4.72.86 1.73-2.41 4.48-.89 3.85 1.94l1.87 1.51c-1.86 7.7-.17 12.68 5.07 14.95 9.92.49 18.38 4.96 25.38 13.42l5.54 2.6s2.46-7.16 7.39-21.47l-8.31-.04c-6.32 10.15-17.99-.39-13.93-9.11l-1.43-1.77c1.2-5.52 4.01-8.8 8.45-9.83.04-10.04 3.61-14.72 10.72-14.02-.05-1.81.29-2.75 2.31-2.99-2.7-1.12-1.57-2.8.88-3.37.39-2.82 3.97-3.59 6.14-1.98 5.05 6.41-2.39 11.53-4.83 15.25Z" style="fill:#b0a49f"/><path d="M195.76 163.96c.1 4.95 2.69 10.18 7.88 11.88 2.29-1.26 3.48-3.12 5.19-4.73h12.54c-4.31 8.45-7.06 16.51-9.15 25.8-13.4-1.7-14.76-15.95-29.47-15.91-3.56 0-8.26-1.7-9.55-5.2-1.68-4.57-.83-9.35-.46-13.7 5.97.61 10.46 4.69 11.97 11.64 4.76-2.42 9.16-5.26 11.04-9.77Z" style="fill:#b9ada8"/><path d="M167.63 163.29c.28 1.15-3.79 1.78-3.94-.23-.08-1.11 3.41-2.01 3.94.23" class="cls-293"/><path d="M196.81 131.38c-2.66 6.01-2.75 12.59 1.6 19.37-8.08 4.92-17.83 5.34-26.73 3.61l.13-1.35c.36-.87-.32-.78-2.03.28-1.39 1.93-2.72 4.67-6.21 5.02l2.99-17.48c.64-3.75 4.06-6.55 6.41-9.39l6.17-7.45c5.48 3.65 11.37 6.3 17.67 7.4Z" style="fill:#e9e4df"/><path d="m171.8 153.02-2.03.28c2.2-3.06.22-5.32-.25-8.67-.41-2.86 2.76-8.56 5.19-10.3 5.28-3.76 12.05-2.22 17.94-1.25l-4.63 12.39c-1.33 3.56-4.34 5.45-8.02 6.1l-8.19 1.45Z" style="fill:#f8f6f2"/><path d="M191.55 149.69c-2 .63-3.11-4.71-.39-5.19 1.4-.25 2.71 4.46.39 5.19" style="fill:#a59b98"/></g></svg>