<?xml version="1.0" encoding="UTF-8"?>
<svg id="Layer_2" data-name="Layer 2" xmlns="http://www.w3.org/2000/svg" viewBox="0 0 221.03 350.99">
  <defs>
    <style>
      .cls-1 {
        fill: #8c8885;
      }

      .cls-2 {
        fill: #7c7875;
      }

      .cls-3 {
        fill: #706c69;
      }

      .cls-4 {
        fill: #777471;
      }

      .cls-5 {
        fill: #565250;
      }

      .cls-6 {
        fill: #87827f;
      }

      .cls-7 {
        fill: #6c6966;
      }

      .cls-8 {
        fill: #6f6969;
      }

      .cls-9 {
        fill: #544f4e;
      }

      .cls-10 {
        fill: #817e7b;
      }

      .cls-11 {
        fill: #4a4644;
      }

      .cls-12 {
        fill: #888481;
      }

      .cls-13 {
        fill: #787470;
      }

      .cls-14 {
        fill: #94908d;
      }

      .cls-15 {
        fill: #6a6663;
      }

      .cls-16 {
        fill: #63605f;
      }

      .cls-17 {
        fill: #575454;
      }

      .cls-18 {
        fill: #787676;
      }

      .cls-19 {
        fill: #777473;
      }

      .cls-20 {
        fill: #383433;
      }

      .cls-21 {
        fill: #5a5553;
      }

      .cls-22 {
        fill: #7a7674;
      }

      .cls-23 {
        fill: #3c3b39;
      }

      .cls-24 {
        fill: #625d5c;
      }

      .cls-25 {
        fill: #8c8785;
      }

      .cls-26 {
        fill: #4a4544;
      }

      .cls-27 {
        fill: #6c6968;
      }

      .cls-28 {
        fill: #95908e;
      }

      .cls-29 {
        fill: #898683;
      }

      .cls-30 {
        fill: #403e3d;
      }

      .cls-31 {
        fill: #585452;
      }

      .cls-32 {
        fill: #adaaa6;
      }

      .cls-33 {
        fill: #73706f;
      }

      .cls-34 {
        fill: #827e7c;
      }

      .cls-35 {
        fill: #4f4b49;
      }

      .cls-36 {
        fill: #706b69;
      }

      .cls-37 {
        fill: #625e5a;
      }

      .cls-38 {
        fill: #706c6a;
      }

      .cls-39 {
        fill: #625f5e;
      }

      .cls-40 {
        fill: #9d9b97;
      }

      .cls-41 {
        fill: #5f5b58;
      }

      .cls-42 {
        fill: #7a7673;
      }

      .cls-43 {
        fill: #42423f;
      }

      .cls-44 {
        fill: #5c5856;
      }

      .cls-45 {
        fill: #75706e;
      }

      .cls-46 {
        fill: #373535;
      }

      .cls-47 {
        fill: #787372;
      }

      .cls-48 {
        fill: #989492;
      }

      .cls-49 {
        fill: #534f50;
      }

      .cls-50 {
        fill: #615f5e;
      }

      .cls-51 {
        fill: #827f7c;
      }

      .cls-52 {
        fill: #504b4a;
      }

      .cls-53 {
        fill: #807e7d;
      }

      .cls-54 {
        fill: #a29e9c;
      }

      .cls-55 {
        fill: #928d8b;
      }

      .cls-56 {
        fill: #484343;
      }

      .cls-57 {
        fill: #989491;
      }

      .cls-58 {
        fill: #767372;
      }

      .cls-59 {
        fill: #6f6c6b;
      }

      .cls-60 {
        fill: #a7a3a0;
      }

      .cls-61 {
        fill: #43403e;
      }

      .cls-62 {
        fill: #696564;
      }

      .cls-63 {
        fill: #7a7775;
      }

      .cls-64 {
        fill: #b9b4b2;
      }

      .cls-65 {
        fill: #7a7675;
      }

      .cls-66 {
        fill: #403d3c;
      }

      .cls-67 {
        fill: #807c79;
      }

      .cls-68 {
        fill: #8d8987;
      }

      .cls-69 {
        fill: #5d5857;
      }

      .cls-70 {
        fill: #595452;
      }

      .cls-71 {
        fill: #4d4947;
      }

      .cls-72 {
        fill: #888482;
      }

      .cls-73 {
        fill: #6e6967;
      }

      .cls-74 {
        fill: #85817e;
      }

      .cls-75 {
        fill: #676260;
      }

      .cls-76 {
        fill: #423f40;
      }

      .cls-77 {
        fill: #4b4746;
      }

      .cls-78 {
        fill: #4b4747;
      }

      .cls-79 {
        fill: #8f8b89;
      }

      .cls-80 {
        fill: #635e5c;
      }

      .cls-81 {
        fill: #6a6462;
      }

      .cls-82 {
        fill: #4f4b4b;
      }

      .cls-83 {
        fill: #7c7775;
      }

      .cls-84 {
        fill: #514f4f;
      }

      .cls-85 {
        fill: #7d7978;
      }

      .cls-86 {
        fill: #5f5a58;
      }

      .cls-87 {
        fill: #4c4947;
      }

      .cls-88 {
        fill: #676360;
      }

      .cls-89 {
        fill: #555150;
      }

      .cls-90 {
        fill: #858383;
      }

      .cls-91 {
        fill: #676463;
      }

      .cls-92 {
        fill: #787472;
      }

      .cls-93 {
        fill: #767371;
      }

      .cls-94 {
        fill: #756f6e;
      }

      .cls-95 {
        fill: #635f5d;
      }

      .cls-96 {
        fill: #9c9997;
      }

      .cls-97 {
        fill: #888381;
      }

      .cls-98 {
        fill: #716d6c;
      }

      .cls-99 {
        fill: #b8b4b1;
      }

      .cls-100 {
        fill: #706e6c;
      }

      .cls-101 {
        fill: #353331;
      }

      .cls-102 {
        fill: #474645;
      }

      .cls-103 {
        fill: #aea9a6;
      }

      .cls-104 {
        fill: #74706e;
      }

      .cls-105 {
        fill: #9d9996;
      }

      .cls-106 {
        fill: #535250;
      }

      .cls-107 {
        fill: #5b5858;
      }

      .cls-108 {
        fill: #666261;
      }

      .cls-109 {
        fill: #5b5755;
      }

      .cls-110 {
        fill: #c1bdbb;
      }

      .cls-111 {
        fill: #494746;
      }

      .cls-112 {
        fill: #9e9996;
      }

      .cls-113 {
        fill: #797573;
      }

      .cls-114 {
        fill: #312f2d;
      }

      .cls-115 {
        fill: #6f6b68;
      }

      .cls-116 {
        fill: #7b7876;
      }

      .cls-117 {
        fill: #6c6766;
      }

      .cls-118 {
        fill: #736d6b;
      }

      .cls-119 {
        fill: #8e8b88;
      }

      .cls-120 {
        fill: #878381;
      }

      .cls-121 {
        fill: #b8b5b2;
      }

      .cls-122 {
        fill: #95918f;
      }

      .cls-123 {
        fill: #65615f;
      }

      .cls-124 {
        fill: #888686;
      }

      .cls-125 {
        fill: #43403f;
      }

      .cls-126 {
        fill: #6e6c6c;
      }

      .cls-127 {
        fill: #5c5958;
      }

      .cls-128 {
        fill: #cac7c5;
      }

      .cls-129 {
        fill: #4d4948;
      }

      .cls-130 {
        fill: #746f6c;
      }

      .cls-131 {
        fill: #a8a4a0;
      }

      .cls-132 {
        fill: #716d6a;
      }

      .cls-133 {
        fill: #6c6765;
      }

      .cls-134 {
        fill: #9b9794;
      }

      .cls-135 {
        fill: #aca8a5;
      }

      .cls-136 {
        fill: #7f7b78;
      }

      .cls-137 {
        fill: #686565;
      }

      .cls-138 {
        fill: #94908e;
      }

      .cls-139 {
        fill: #736f6c;
      }

      .cls-140 {
        fill: #5c5857;
      }

      .cls-141 {
        fill: #272623;
      }

      .cls-142 {
        fill: #3b3938;
      }

      .cls-143 {
        fill: #494745;
      }

      .cls-144 {
        fill: #4a4846;
      }

      .cls-145 {
        fill: #86827f;
      }

      .cls-146 {
        fill: #3d3c3b;
      }

      .cls-147 {
        fill: #837f7c;
      }

      .cls-148 {
        fill: #8f8c8a;
      }

      .cls-149 {
        fill: #3d3a39;
      }

      .cls-150 {
        fill: #bab6b3;
      }

      .cls-151 {
        fill: #4f4a4a;
      }

      .cls-152 {
        fill: #858483;
      }

      .cls-153 {
        fill: #565151;
      }
    </style>
  </defs>
  <g id="Layer_1-2" data-name="Layer 1">
    <g>
      <path class="cls-142" d="M21.82,168.74c.93.7.92,1.41,0,2.12,1.77.2,1.71.73,0,1.55l-1.99,4.45c1.9,2.32.39,3.21-2.12,3.82,1.56,4.71-2.45,14.38-5.98,17.95-.09,2.02-.72,3.38-1.88,4.09,2.74,1.87,1.02,10.54-2.79,10.94-.1,7.47.1,14.77.59,21.91l-2.51,1.24.75,17.91c3.36-.37,2.41,4.4-.02,5.98,1.37.61,1.35,1.27,0,2l2.24,4.03c1.66.78,1.56,1.44-.24,2l1.91,6.38c1.79-.07,1.72.41.04,1.37l2.03,4.23,2.09,2.07c1.51.98,1.26,1.52-.63,1.67,3.06,2.84,5.85,5.81,8.39,8.91l-1.9,5.25c9.06,6.86,6.25,16.51-2.22,3.4l-9.92-21.03-2-4.24c-.44-.93-.37-2.47-.19-3.52l-1.72-4.51L.24,248.53c-1.78-29.35,6.65-56.76,19.47-81.87,3.16-2.83,4.35-1.65,2.11,2.07Z"/>
      <path class="cls-146" d="M121.69,20.77c14.17,36.72,33.42,70.85,54.6,104.01.23,4.6-1.59,3.22-4.28.16-2.76,1.7-10.19-10.13-8.14-12.71-4.2-1.93-6.87-5.97-8.01-12.11-3.67.6-4.72-2.5-3.74-5.57-4.22-5.14-25.3-40.33-23.96-43.51.37-.89,1.05-1.64,1.82-2.37l-1.74-2.45c-1.68-.25-1.66-.82-.08-1.68-2.45.83-4.43-1.36-5.94-6.59-4.83-3.55-5.63-6.64-2.39-9.27-4.06-.75-5.35-5.69-1.89-7.99.58-1.73,1.23-1.7,1.93.04.51-.97,1.13-.91,1.85.04Z"/>
      <path class="cls-50" d="M113.73,2.84c1.68,7.02,2.43,14.1,2.26,21.22,1.35,1.21,2.63,2.75,3.83,4.63l8.33,15.86c.66,4.45-.76,6.33-5.34,4.71-.41,1.74-.84,1.55-1.3-.32-4.08-2.29-3.83-5.49.36-7.44-2.05-1.36-4.71-1.97-8-1.84l-2.39-3.99c-3.91,2.08-1.83-5.68-1.78-5.3.3,2.56-.21,8.24-2.54,9.8,2.49,4.37-.21,4.25-4.55,2.19-3.64,1.38-3.32-1.43-.72-3.62l1.83-2.04c.1-4.62-.52-7.94-1.86-9.96l-2.3-.88c2.79-5.16,4.19-10.2,4.18-15.12,2.34-5.15,3.94-13.22,8.82-10,.66.44.94.93,1.16,2.1Z"/>
      <path class="cls-23" d="M101.86,26.74c1.76.53,1.76,1.22.06,2.06l-7.24,16.76c.93.65,1.13,2.49.47,5.43-2.31-.7-4.37.66-5.83,4,5.96,2.9.53,6.17-3.56,7.22,1.53.73,1.41,1.36-.27,1.9l-1.92,2.55c1.95,1.5.15,6.27-1.02,8.79-1.91,4.11-6.71,13.74-10.68,13.01-2.39,3.06-3.68,2.18-2.63-1.65L103.75,10.73c1.36-.15,2.65,1.64,1.99,3.72l-3.88,12.28Z"/>
      <path class="cls-20" d="M208.6,292.85c-12.13,25.17-32.97,41.5-58.62,52.06l-.59-4.85c-.09-1.84.67-2.32,2.28-1.43l4.63-1.53c-2.25-3.44,6.7-6.66,9.01-3.97,3.29-1.94,4.77-4.25,4.45-6.91,2.44-3.01,14.08-12.32,17.91-11.12,4.25-8.19,9.08-16.07,14.49-23.62l3.41-.71c3.26-4.23,4.63-2.96,3.03,2.09Z"/>
      <path class="cls-143" d="M217.82,216.74l2.07,5.97-.03,10.02c1.57,3.81,1.57,8.18,0,12l.03,12-1.79,6.27c-.41,10.84-5.03,20.59-9.49,29.85l-3.03-2.09c-.7-.86-1.31-1.75-1.6-2.73-.38-1.29,6.81-22.73,8.01-25.51.32-.75,1.42-1.16,2.74-1.48-3.14-15.27-1.31-29.87,1.16-44.32-1.79-3.01-1.7-5.83,2.01-3.91.21,1.13.08,2.81-.07,3.92Z"/>
      <path class="cls-111" d="M217.88,212.82c-1.84.73-1.96,2.28-2.01,3.91-.49,1.77-1.16,1.77-1.99.08-3.38-1.25-4.73-6.54-1.33-8.46l-2.79-1.12c-5.75-16.35-11.7-32.5-17.84-48.45-1.71-.53-1.61-1.07.17-1.63-1.9-3.56-2.58-5.94,1.68-4.4,11.16,18.52,20.21,38.75,24.1,60.08Z"/>
      <path class="cls-142" d="M61.88,105.12c1.79-.02,1.71.47,0,1.38l-2.12,2.32c4.43,1.59,2.18,6.78-2.49,5.91.71.69,1.34,1.42,1.68,2.26.61,1.51-14.32,26.44-19.42,23.55.72,1.75.22,3.41-.52,5.01-2.52,5.51-8.1,16.51-12.88,17.31l-2.22-4.39,31.79-49.69,1.98-2.37.03-1.74c4.15-4.86,8.38-6.19,4.16.45Z"/>
      <path class="cls-101" d="M80.11,342.86c1.48-5.59,11.83-4.22,11.89,1.91.02-1.75.58-1.65,1.6,0l4.24,2.16c.04-2.2,2.66-1.78,4-.18,1.75.56,1.72,1.23,0,1.98,1.75.56,1.73,1.22,0,1.99h-3.97c-2.57-1.34-5.49-1.6-8.36-1.34-16.05-1.94-30.99-8.78-43.74-18.38-2.23-3.24-1.13-4.41,2.23-2.35,10.57,3.65,21.28,8.38,32.1,14.21Z"/>
      <path class="cls-114" d="M149.98,344.91c-.67-.35-1.58-.14-2.13-.18l-4,1.99-2.02.04-5.87,2.08c-11.2,3.25-22.61,1.86-34.1,1.88v-1.99c2.51-.67,5.18-1.33,7.99-2,.42-1.83,2.94-1.59,4,0,4.12-1.79,11.64-1.58,16.01.02l4-2.02c.55-1.75,1.23-1.74,2.02-.02l5.96-1.95c.55-1.75,1.22-1.74,2.02-.03l4.09-2.3c-.35-1.7.17-1.76,1.46-.37.65.02,3.29.31,3.98,1.72.39.8-2.08.91-3.39,3.13Z"/>
      <path class="cls-149" d="M25.51,302.07c1.82,1,1.85,1.81-.04,2.43,6.31,8.33,13.77,15.53,22.39,21.6l.14,2.56-2.23,2.35c-10.78-8.12-22.36-16.61-28.2-28.98,2.01,1.36,3.73,3.04,5.9,5.28.83-5.12-2.71-6.19-3.69-8.68,3.29-5.58,6.59-2.45,5.71,3.45Z"/>
      <path class="cls-84" d="M119.74,16.68l-1.82,4.01c1.7,2.11,1.13,5.97,1.89,7.99-1.8.46-3.7.4-4.63-.26-1.24-.88-2.37-2.88-2.35-4.93l.89-20.67,6.02,13.85Z"/>
      <path class="cls-106" d="M176.29,124.78l11.48,17.98c1.04,3.22.41,4.65-1.89,4.28-3.22,3.4-9-7-7.33-10.6-3.08,1.93-8.75-8.64-6.54-11.5,1.23.4,2.64.85,4.28-.16Z"/>
      <path class="cls-144" d="M193.79,152.74c-1.35,1.28-1.53,2.88-1.68,4.4-4.67,2.01-9.36-6.4-6.22-10.1-.07-1.61.34-3.23,1.89-4.28l6.02,9.98Z"/>
      <path class="cls-43" d="M68,95.18c1.76.31,1.74.87.04,1.65l-2.19,1.9c1.75.57,1.72,1.24,0,2l-2,2c2.73,2.76,1.69,3.92-1.97,2.38.69-1.68-1-2.86-2.1-1.7-.59.62-1.43.99-2.06,1.25l4.15-5.92,1.94-2,.06-2.05c4.01-4.8,8.06-5.79,4.13.48Z"/>
      <path class="cls-102" d="M71.88,88.45c4.45.94.07,10.16-3.87,6.72.67-1.52-.97-2.93-2.18-1.75-.57.55-1.3.96-1.95,1.27l5.37-7.89,2.63,1.65Z"/>
      <path class="cls-30" d="M26.13,162.86c2.62,2.65,1.38,5.71-2.33,5.86-.61.85-1.27.83-1.98.01-.28-.98-1.21-1.78-2.11-2.07,1.12-2.2,2.21-4.31,4.15-5.94.84-.49,1.6.22,2.27,2.13Z"/>
      <path class="cls-77" d="M97.89,350.72c-3.11,0-5.83-1.04-8.36-1.34,2.77-1.04,6.66-1.29,8.36,1.34Z"/>
      <path class="cls-20" d="M141.83,346.75c-.95,2.8-4.2,1.6-5.87,2.08.98-2.3,3.67-2.05,5.87-2.08Z"/>
      <path class="cls-46" d="M119.84,18.73v2s-1.93-.04-1.93-.04c-.76-.94.35-4.13,1.82-4.01.25.57.1,1.43.1,2.05Z"/>
      <path class="cls-66" d="M5.48,273.23c-1.02-1.32-1.43-2.87-1.72-4.51,1.99.62,2.01,2.82,1.72,4.51Z"/>
      <path class="cls-66" d="M7.67,280.99l-2-4.24c1.75.57,2.47,2.4,2,4.24Z"/>
      <path class="cls-20" d="M147.85,344.72c-.62,1.63-2.36,1.96-4,1.99.64-1.64,2.32-2.12,4-1.99Z"/>
      <path class="cls-141" d="M26.13,162.86c-1.5.16-2.55-.78-2.27-2.13l.06-2.26c.98-.17,2.42.49,2.32,1.29l-.11,3.1Z"/>
      <path class="cls-84" d="M121.69,20.77l-1.85-.04v-2c.85.47,1.51,1.17,1.85,2.04Z"/>
      <path class="cls-102" d="M61.87,98.75l1.94-2c-.02.71-1.2,1.65-1.94,2Z"/>
      <path class="cls-43" d="M55.71,108.77l1.98-2.37c-.47.92-1.09,1.75-1.98,2.37Z"/>
      <path class="cls-71" d="M33.73,283.17c6.59.75,12.03,7.22,5.27,11.24-2.49,4.74-3.98,3.89-5.08-1.19-2.21-2.07-5.16-2.24-6.18.33,3.1,4.32,3.15,6.95-2.22,8.52-1.41-1.91-3.5-3.09-5.71-3.45-1.95-5-5.74-8.74-6.49-14.16l2.55-1.07c-3.09-8.5-6.38-18.24-1.25-26.66.25-.41,1.4-.28,2.8,0l2.5-2.13c-4.69,1.63-5.67-1.54-2.42-4.7-.78-4.53.83-5.34,4.83-2.43,3.38,7.75,5.51,16.19,6.4,25.31,1.58,4.11,3.25,7.57,5.01,10.39Z"/>
      <path class="cls-108" d="M14.06,233.7c2.06,4.53,6.37,15.53-.59,16.64,5.24,1.37-.64,17.77-5.35,16.4-1.67-1.06-2-3.11-.26-4.01-1.25-.56-1.23-1.21-.03-1.96-.42-.45-.75-.9-.73-1.34.18-5.14.64-12.11,1.38-17.12.1-.67-.04,13.1-2.59,12.42-4.05-8.15-2.3-29.74,1.17-41.07l5.12-.86c.24-3.19.6-7.15,3.76-8.04,2.89.67,3.57,3.21,2.05,7.61,3.07,3.65,2.85,8.41-.67,14.27.82,3.71,1.11,5.68-3.25,7.06Z"/>
      <path class="cls-53" d="M27.78,172.82c-1.94,3.04-3.87,5.65-5.78,7.82-1.99,3.36-3.19,4.19-4.28.04.55-1.29,1.18-2.85,2.12-3.82l1.99-4.45v-1.55s1.99-2.13,1.99-2.13c.35-2.22,1.21-4,2.33-5.86l13.39-22.32c7.79-2.75,4.68,3.97,1.78,8.8-4.82,7.85-9.33,15.68-13.53,23.48Z"/>
      <path class="cls-109" d="M17.49,249.9l2.42,4.7-2.5,2.13c-5.36,4.83-1.9,13.09-.63,19.62.66,3.42.08,6.13,3.2,8.66-.06,1.64-3.15,4.04-3.81,2.82-.88-1.62-1.79-2.54-2.85-3.37l.63-1.67-2.09-2.07-2.03-4.23-.04-1.37-1.91-6.38.24-2c3.44-3.48,5.17-11.27,5.35-16.4.63-5.27,1.53-4.96,4.02-.44Z"/>
      <path class="cls-98" d="M7.83,260.77c-.61,1.28-1.27,1.24-1.96-.06l.02-5.98.84-19.08c6.64,3.44,2.86,8.19,2.82,11.48-.07,5.35,1.96,10.04-1.72,13.64Z"/>
      <path class="cls-152" d="M21.99,180.64c1.34,6.12-3.49,17.4-8.19,22.05-.54,1.46-1.19,1.45-1.94.04-1.18-.31-1.22-1.68-.12-4.1.86-5.86,3.59-12.38,5.98-17.95l4.28-.04Z"/>
      <path class="cls-90" d="M13.8,202.69c.01,3.01-.53,6.38-1.62,10.11-.91,4.71-.81,9.55-3.43,14.26l-1.68-13.4c1.11-3.64,3.03-7.04,2.79-10.94.58-1.58,1.25-1.55,2.01,0l1.94-.04Z"/>
      <path class="cls-66" d="M9.78,275.11c-2.08-1.35-1.89-4.04-1.91-6.38,2.26,1.14,1.84,4.12,1.91,6.38Z"/>
      <path class="cls-66" d="M8.12,266.74c-1.36.98-3.59-2.66-2.24-4.03.59-1.3,1.25-1.27,1.98.01l.26,4.01Z"/>
      <path class="cls-66" d="M11.85,280.72c-1.25-1.15-1.98-2.48-2.03-4.23,1.23,1.08,1.9,2.61,2.03,4.23Z"/>
      <path class="cls-126" d="M19.83,176.86c-.13-1.79.52-3.48,1.99-4.45,0,1.84-.77,3.19-1.99,4.45Z"/>
      <path class="cls-126" d="M11.86,202.73h-2.01c-.09-1.48,1.48-3.01,1.88-4.1l.12,4.1Z"/>
      <path class="cls-126" d="M21.82,170.86c0-.64.17-1.51,0-2.12h1.98c-.13.8-1.26,1.74-1.98,2.12Z"/>
      <path class="cls-109" d="M7.86,262.73h-1.98c.35-.37,0-1.51,0-2.01l1.96.06.03,1.96Z"/>
      <path class="cls-71" d="M13.93,282.79l-2.09-2.07,2.09,2.07Z"/>
      <path class="cls-137" d="M128.14,44.55c.28.4.08,1.28.08,1.68l1.74,2.45,22.15,45.87-1.48,2.39c-1.55-2.57-3.23-3.04-5.04-1.4l-11.22-26.16c.17,3.86.07,4.57-2.5,1.42-2.14-.37-2.96-2.3-1.99-4.26-1.76-.35-1.72-.93-.01-1.71l-1.92-1.89c-5.35-.63-7.84-9.22-5.15-13.67,1.37-2.32,2.55-4.8,5.34-4.71Z"/>
      <path class="cls-107" d="M152.11,94.56c3.1.45,2.77,4.1,3.74,5.57,2.5,4.82,3.78,9.07,3.82,12.73,1.85-.08,2.1.6.81,2.01-4.32.5-8.34-2.23-12.07-8.2l-2.84.76c-2.94.93-3.57-.32-1.69-2.71-3.02-4.72-5.28-10.47-6.77-17.25-3.17-5.84-4.87-11.14-5.1-15.9l2.37-2.19,12.08,20.95c1.43,2.48,3.66,3.94,5.66,4.23Z"/>
      <path class="cls-27" d="M163.87,112.24l8.14,12.71,6.54,11.5c2.2,3.15,1.15,4.25-2.58,4.53-4.96,3.71-12.83-10.64-8.24-14.5-5.36,1.75-7.57-5.23-7.88-9.61-1.3-1.1-1.09-1.76.62-1.99l-.81-2.01c-1.03-5.03,1.05-3.53,4.2-.62Z"/>
      <path class="cls-16" d="M163.87,112.24l-4.2.62c-1.65-4.1-4.74-7.77-3.82-12.73l8.01,12.11Z"/>
      <path class="cls-50" d="M129.96,48.69c-.95-.33-1.73-1.51-1.74-2.45.59.72,1.32,1.6,1.74,2.45Z"/>
      <path class="cls-85" d="M121.5,48.94l1.3.32c2.12,4.49,5.01,8.65,5.15,13.67l1.92,1.89v1.71s2,4.26,2,4.26c.43,0,1.86.73,2.5-1.42,1.66,12.78,7.67,21.88,9.5,35.34,2.04,3.7,1.22,4.46-2.45,2.26.12,1.79-.38,1.74-1.42.09-3.14.57-3.24-.95-.24-2.46-1.21-6.19-3.65-10.3-7.34-12.31,1.44-4.88-1.35-7.14-6.28-5.6-3.87,2.12-4.97-.98-3.3-9.29-2.97-1.87-3.29-3.44-.95-4.71-1.05-.51-1.07-1.16-.13-1.92-1.4-1.01-1.17-1.69.57-2.05-4.29-1.07-6.32-3.53-2.18-6.49-1.68.61-1.72.18-.32-1.16-2.98-2.28-3.53-4.5-1.64-6.66-12.17-1.94.87-18.2,3.29-5.48Z"/>
      <path class="cls-91" d="M101.89,38.74c-.2-1.03.88-2.08,1.83-2.04-.11.9-1.02,1.75-1.83,2.04Z"/>
      <path class="cls-19" d="M85.91,71.94c5.62.08,5.42,2.99.22,4.78-.63,4.78-2.34,9.82-5.14,15.13-3.22-.63-5.62,1.77-7.2,7.22,3.35,4.7-4.34,16.68-9.76,16.89-1.06,1.37-1.8,1.42-2.39-.22-.7,5.65-5.42,5.28-4.36-1.02l2.49-5.91,2.12-2.32v-1.38s1.97-2.38,1.97-2.38l2-2v-2s2.19-1.9,2.19-1.9l-.04-1.65c3.19-.91,2.9-4.91,3.87-6.72l11.7-21.8,1.92-2.55c-.05-.51.05-1.46.27-1.9,6.26-7.72,4.24,4.83.13,9.74Z"/>
      <path class="cls-100" d="M83.58,66.66l1.92-2.55c.13,1.28-.62,2.44-1.92,2.55Z"/>
      <path class="cls-58" d="M214.72,261.05c-.27,10.23-4.36,20.52-9.15,29.71-4.59,8.8-10.78,17.29-17.9,24.33-5.39-.1-4.77-3.17,1.88-9.2l4.31-7.15c-.92-.63-.79-1.25.25-1.86-1.46-.48-1.49-1.17-.17-2.05,2.63-6.02,5.55-12.16,8.77-18.4-2.77-3.17.05-12.8,5.45-11.97-3.71-3.83-1.3-8.83,3.53-9.73,2.23.03,3.25,2.14,3.04,6.33Z"/>
      <path class="cls-117" d="M187.67,315.09c-5.38,7.26-14.01,14.35-22.36,18.03-4.44-.77,1.83-5.43,4.34-6.26.98-.32-15.46,11.9-17.7,6.2-.78-2.28,1.06-4.03,5.52-5.22-.37-3.31,1.64-5.06,6.01-5.26l17.55-14.16,2.92,1.04,7.75-10.69,2.15-.04c-1.25,9.32-9.61,11.76-6.18,16.36Z"/>
      <path class="cls-47" d="M165.31,333.12l-9.01,3.97-4.63,1.53c-.59.59-1.53,1.05-2.28,1.43-.45.23-1.04.32-1.46.37-9.81,1.34-1.81-11.68,4.02-7.36l17.7-6.2-4.34,6.26Z"/>
      <path class="cls-62" d="M156.3,337.09c-1.45.64-2.85,1.58-4.63,1.53,1.25-1.24,2.82-1.81,4.63-1.53Z"/>
      <path class="cls-39" d="M201.83,196.39c6.01-2.92,9.91,10.44,6.01,14.11,2.16-.85,3.27.25,3.34,3.3,3.67,12.41,1.17,30.86.45,4.57l2.27-1.56,1.99-.08-1.16,44.32c-.48-2.37-1.28-4.7-3.04-6.33-2.83,1.33-2.86-.26-.07-4.75-3.35-5.84-5.31-5.11-5.86,2.18l-3.93,1.08c.56,1.04-.29,1.16-2.54.37-.28,1.76-.78,1.68-1.48-.07-3.82-.06-3.73-1.76.05-2.79l-.06-4.04.26-2.6c-3.81-2.8-3.21-7.08,1.79-12.82-2.7-5.31-3.27-11.72-1.71-19.22-4.26,1.77-6.27-.47-6.02-6.72-4.57-6.06-5.01-10.24-1.33-12.53,5.32-6.81,8.33.24,8,6.85l3.06-3.26Z"/>
      <path class="cls-124" d="M212.56,208.35c.38,6.06-1.68,7.85-4.72,2.15-1.01-4.89-1.8-10.38-6.01-14.11-1.49-.22-2.99-.71-3.61-2.02-3.06-6.41-8.91-20.95-10.54-27.6l2.82-3.82c-2.62-3.23-2.9-5.66,1.43-4.17,8.46,13.9,18.15,34.48,20.63,49.57Z"/>
      <path class="cls-33" d="M185.88,147.04c2.24,3.24,2.98,7.57,6.22,10.1l-.17,1.63c-.92.85-1.94,2.85-1.43,4.17-7.25,4.6-18.68-16.21-14.52-21.97-.09-1.68.34-3.52,2.58-4.53l7.33,10.6Z"/>
      <path class="cls-18" d="M213.89,216.81c-.62,5.17,1.51,10.77-1.4,16.21l-4.66-22.52c1.88.25,3.56-.55,4.72-2.15.46,2.82,1.72,5.17,1.33,8.46Z"/>
      <path class="cls-59" d="M61.63,115.75c1.72.52,1.07,1.54.13,2.98,1.84.43,1.69,1.01-.22,1.73,1.64.91,1.07,1.66-1.73,2.25.74.8,1.28,1.49,1.11,1.82-3.99,7.66-10.67,17.65-16.18,24.41.25,5.5-2.39,11.38-7.9,17.65-.91,6-4.49,13.34-9.07,6.24,5.91-19.75,17.89-25.46,11.75-32.28l17.74-25.81c.99,1.57,3.03,1.24,4.36,1.02Z"/>
      <path class="cls-43" d="M59.76,108.82l2.12-2.32-2.12,2.32Z"/>
      <path class="cls-24" d="M109.96,312.83c-.36,2.4-.46,4.04,2.53,4.95-9.62,7.72-3.5,20.68,8.06,20.06l1.5,1.37c.58,6.36-11.03,3.52-16.22,1.42-1.01,1.58-4.6,3.26-5.25,1.61-.26-.67,10.71,1.42,11.96,2.3.1-1.78.56-1.68,1.35.09,1.73.64,1.69,1.34-.05,2.09h-4c-2.44,1.15-5.94,2.04-8,.01l-4,.18-4.24-2.16c-.47.09-1.13.11-1.6,0-2.9-1.08-4.06-1.76-4.7-4.7-6-1.43-18.4-5.28-18.92-11.4l-2.34-2.26c-1.82-.17-1.86-.56-.12-1.16-1.12-4.4.17-5.16,3.86-2.28,4.4-2.86,10.32-6.52,16-6.11l.25,12.01c.81-5.94,10.89-4.38,11.58,1.45l2.73-4.12c-1.92-4.22-1.51-6.66,1.23-7.31-.7-4.67.65-7.43,4.05-8.31,2.62-5.85,6.68-3.76,4.34,2.25Z"/>
      <path class="cls-133" d="M65.92,325.24c.02.41,0,.84.12,1.16l2.34,2.26,11.87,5.82c3.59,2.38,7.36,2.53,11.15.69l.6,9.59c-3.84-.83-7.97-2.14-11.89-1.91-6.9-2.67-12.94-6.06-18.1-10.16-15.04-7.26.19-19.93,3.91-7.46Z"/>
      <path class="cls-26" d="M47.91,322.69c5.53.15,10.22,3.48,14.09,10.01,6.43,2.96,13.18,4.68,18.1,10.16-6.02.35-10.33-3.57-15.98-6.33-5.63-2.75-11.57-4.14-16.12-7.88-8.48-6.97-17.53-14.4-22.53-24.15.58-2.73,1.33-2.86,2.5-.27,5.31-2.11,10.65,6.66,11.34,10.88,4.66.85,7.53,3.38,8.6,7.57Z"/>
      <path class="cls-77" d="M109.85,346.72c-1.63,2.54-5.26,2.45-8,2v-1.98s8-.01,8-.01Z"/>
      <path class="cls-77" d="M97.85,346.92c-1.74.08-3.47-.56-4.24-2.16,1.78-.33,3.76.3,4.24,2.16Z"/>
      <path class="cls-62" d="M157.48,327.84c-1.52,1.4-3.53,4.22-5.52,5.22-1.21.61-3.2.7-4.44,2.11-.96,1.09-.47,3.73.42,5.26l-4.09,2.3-2.02.03-5.96,1.95-2.02.02c-1.42,1.08-3.04,1.56-4,0-4.15,1.71-11.65,1.6-15.95-.09l-1.35-.09c-4.86-.36-7.1-1.67-6.71-3.91,5.48.37,11.55,1.7,16.22-1.42-.01-1.67,1.36-1.77,4.1-.3.46-1.79,1.17-1.83,2.13-.18,3.74-5.25,6.16-5.81,7.26-1.69.15-3.53,7.05-8.76,10.5-5.98-2.16-7.03,8.67-8.85,11.43-3.21Z"/>
      <path class="cls-77" d="M129.85,344.72c1.75.57,1.72,1.25,0,2.03l-16.01-.02.05-2.09,15.95.09Z"/>
      <path class="cls-20" d="M141.83,342.75c-1.06,2.15-3.77,1.93-5.96,1.95,1.06-2.16,3.77-1.92,5.96-1.95Z"/>
      <path class="cls-20" d="M147.93,340.42c-.95,1.46-2.42,2.27-4.09,2.3,1.04-1.2,2.43-2.04,4.09-2.3Z"/>
      <path class="cls-20" d="M133.85,344.72c-.64,1.75-2.31,2.03-4,2.02v-2.03s4,0,4,0Z"/>
      <path class="cls-9" d="M33.92,293.22c-.34,1.7-2.3,1.08-2.16,1.09,8.7.91,4.02,13.25-3.79,9.92l-2.5.27c.17-.83.12-1.73.04-2.43,2.42-4.73,2.18-10.18-2.15-15.18,6.14-2.02,9.2,2.46,10.56,6.33Z"/>
      <path class="cls-102" d="M65.85,98.73c.43-.93,1.2-1.63,2.19-1.9l-2.19,1.9Z"/>
      <path class="cls-102" d="M63.85,102.73l2-2-2,2Z"/>
      <path class="cls-86" d="M33.92,293.22c1.75.09,3.35.65,5.08,1.19,4.89.76,8.24,2.82,10.04,6.18-.3-4.69,2.05-4.41,7.06.82,7.61,2.85,15.3,5.99,23.07,9.41.5-1.8,1.2-1.74,2.08.02,4.22-.86,5.3-.9,4.55,4.05-.24.67-.53,1.23-.98,1.44-3.54,1.62-14.37,6.45-14.91,2.66l-5.3-1.4c-3.93,2.59-8.15,1.67-12.67-2.74-.36,3.29-1.1,5.95-4.02,7.85-8.73-1.66-14.2-10-19.95-18.46,2.38-2.52,5.36-4.87,6.48-8.62-3.2.47-3.9.37-4.9-.26-2.15-1.33-.87-3.52,1.35-2.94l3.02.79Z"/>
      <path class="cls-70" d="M22.54,244.33c1.32-.25,2.42-.34,2.77.13,3.81,5.16,10.68,28.4,11.5,35.45l-3.08,3.26-10.93,1.12c-1.46.15-2.08-2.88,0-3.62l8.02-2.83-7.42-1.93c6.55-1.36-.9-9.71-.93-21.04,0-1.46,2.15-4.01-.94-5.07-1.1-.38-2.48-.65-4.05.1-.92.44-2.45.34-4.02.44l.59-16.64c4.88-4.71,6.98-1.94,6.3,8.29,1.3.19,2.03.97,2.18,2.34Z"/>
      <path class="cls-9" d="M47.58,296.61c1.52.36,2.27,1.22,1.72,2.66,1.74.22,1.57.67-.26,1.31-1.1-.13-3.18-1.5-4.75-.71-1.12.57-1.41,2.05-1.31,2.79.23,1.66-3.63,3.04-4.7,1.41l.72-9.67c.31-4.1-3.91-7.76-5.27-11.24.2-3.16,2.2-4.87,5.09-4.22,7.95,1.8,14.05,12.46,8.76,17.66Z"/>
      <path class="cls-70" d="M17.41,256.73l2.5-2.13c.72,1.39-.84,2.63-2.5,2.13Z"/>
      <path class="cls-35" d="M31.58,196.45l1.48,1.72s-3.06,11.53-9.19,34.58l-1.9,10.13c1.73-.45,1.86.06.56,1.45-7.62,1.75-.67-9.07-8.48-10.63.17-4.84-2.26-6.64.94-11.95,2.69-4.46.6-12.39.93-16.98-1.26-2.91,1.13-9.75,4.61-7.81,3.49,1.63,5.66,1.11,6.53-1.55l4.5,1.05Z"/>
      <path class="cls-126" d="M27.78,172.82c1.41.64,3.45,1.64,3.34,2.79-.48,5.16-4.84,21.63-10.57,21.35-2.94,1.77-3.18,5.13-4.61,7.81-1.31,2.45-3.25,5.4-3.76,8.04-.91-3.76.4-6.8,1.62-10.11l8.19-22.05c1.15-3.11,1.61-8.37,5.78-7.82Z"/>
      <path class="cls-93" d="M131.87,70.8l-2.97-.07c-.82-.02-1.52-1.72-.97-2.69.34-.6,1.1-1.16,1.96-1.5,1.58.78,2.21,2.54,1.99,4.26Z"/>
      <path class="cls-93" d="M129.87,64.83c-.75-.19-1.89-1.14-1.92-1.89,1.09-.11,1.91.6,1.92,1.89Z"/>
      <path class="cls-16" d="M145.56,107.43c1.64.07,1.57.56.02,1.44l2.48,1.85c2.93-2.52,3.96-1.4,1.75,1.87-.65,1.07.11,2.44,2.28,4.1.25-1.77.8-1.7,1.61.03,2.22,1.26,3.83,1.2,6.16.14,4.84.11,6.01,6.33,7.88,9.61-1.09,4.59-3.23,8.02-6.42,10.29-4.37-1.17-12.45-11.3-11.38-15.92l-2.26-1.99c-1.81.23-2.43-.07-1.87-1.86-1.32-1.51-1.92-2.97-1.8-4.38-1.78-.34-1.76-.98-.09-1.9l-2.33-1.96c-1.88.04-1.85-.57-.16-1.75.16-1.24,1.19-2.14,2.45-2.26.12.91,1.05,2.02,1.69,2.71Z"/>
      <path class="cls-49" d="M160.48,114.87c.18.44-.37,1.41-.62,1.99-1.8,3.32-3.85,3.28-6.16-.14l-1.61-.03c-2.13-1.17-2.89-2.54-2.28-4.1l-1.75-1.87-2.48-1.85c-.14-.4-.22-1.16-.02-1.44l2.1-11.81c4.13,8.15,6.65,14.79,12.81,19.25Z"/>
      <path class="cls-140" d="M167.74,126.47l8.24,14.5c5.12,9.02,8.51,17.53,14.52,21.97l5.87,15.29c2.44,6.36,5.32,11.89,5.46,18.15.14,6.16,1.16,13.03,5.97,17.55l-3.32,2.58c-1.33,1.03-2.97.58-3.05-.6-.05-.69,2.01-3.77,1.6-4.41-2.01-3.16-8.02-8.08-7.58-13.14.3-3.5-1.43-5.55-4.67-5.56-1.89.91-2.87.65-3.54-.89-3.75-8.52-6.81-16.71-8.46-25.93-1.34.61-2.42,1.04-2.56.83-5.13-7.62-11.58-19.63-15.74-28.03-.21-.43.23-1.18.85-2.02.58-2.45-1.24-6.37-.19-7.96.97-1.48,5.11-1.9,6.61-2.33Z"/>
      <path class="cls-72" d="M140,107.07l1.42-.09c-.07.57-.01,1.2.16,1.75l2.33,1.96.09,1.9,1.8,4.38,1.87,1.86c.33.89.58,1.77.51,2.62-.04.53-7.6,1.63-7.86-.76-1.17,2.74-2.04,5.51-2.61,8.31-5.03,3.12-6.57.01-2.14-3.94-4.51.02-5.33-2.71-2.46-8.19l-3.76-15.31,2.57-1.41c3.03-2.5,4.76,2.49,5.84,5.94,1.53,4.88-1.9,1.29-.46.1.39-.32,1.44.15,2.69.86Z"/>
      <path class="cls-116" d="M105.7,56.69c2.61,1.09,4.57,4.37,7.93,2.27,2.85-3.02,4.93-2.31,6.23,2.11l.32,1.16c-.48,3.83-4.84,4.7-13.09,2.61-3.93,3.27-7.04,3.08-9.33-.58-1.77-.11-1.74-.62-.06-1.48,1.67-3.34,4.57-5.5,8.01-6.09Z"/>
      <path class="cls-72" d="M139.77,104.61c-3.09-.85-5.5-3.41-7.23-7.68l-2.75-2.1c-3.26,1.3-4.43-3.73-.97-5.06,2.06-.79-.08,6.15-2.76-1.11-1.72-.63-1.66-1.28.09-1.95,3.26-3.74-1.38-9.79,2.69-9.12,3.38.55,8.77,15.89,10.92,27.03Z"/>
      <path class="cls-122" d="M139.77,104.61l.24,2.46c-.97,1.29-1.82,2.51-3.57,3.6-.55-4.69-1.8-8.07-4.49-10.5-.22,1.61-.93,1.77-2.09.56-2.46-1.77-2.86-4.57-.06-5.9.47-1.64,2.02-1.64,2.95-1.42,3.7.86,3.37,6.49,7.03,11.2Z"/>
      <path class="cls-100" d="M121.9,72.7c-2.23.24-2.21-1.87-.13-1.92l.13,1.92Z"/>
      <g>
        <path class="cls-91" d="M111.47,35.66c6.32.74,4.15,5.54-1.44,5.13-1.2.68-1.23,1.31-.1,1.88,2.79-2.91,5.4-3.76,7.83-2.57.63,1.37,1.07,1.72,2.42.99l1.67.41c.95,2.11.23,5.22-.36,7.44-1.4-1.04-2.37-2.83-5.92-1.94,2.34,2.72,2.03,4.99,2.63,7.41.62,3.12-.91,4.63-4.59,4.55-1.05,5.11-9.77,2.98-7.93-2.27-2.31-2-5.45-1.65-9.42,1.04-4.09-.1-5.95-3.65-3.27-3.89s1.22,4.16-3.68,1.14c4.24-8.61,6.47-18.65,12.6-26.2,3.04,3.05-1.58,13.35-4.25,17.01-.21.29,3.16-6.39,4.93-3.45,8.31-4.39,3.25-22.45,9.16-12.82-1.68,2.94-.95,4.53-.29,6.12Z"/>
        <g>
          <path class="cls-17" d="M121.86,41.5l-1.67-.41c-.98,1.04-1.98.29-2.42-.99-1.65,1.04-2.61,3.25-2.54,6.24-2.93-.61-3.74-2.21-5.29-3.67-1.26-.58-1.19-1.21.1-1.88.89-1.28,2.08-3.57,1.44-5.13,4.5-.52,8.55,1.76,10.38,5.84Z"/>
          <path class="cls-63" d="M103.72,36.7l-1.83,2.04.72,3.62c-1.69.89-2.44,5.82-6.91,4.04,2.89-5.96,6.41-11.71,6.23-17.61l-.06-2.06,3.57-4.27c1.06,5.97-1.19,9.77-1.71,14.23Z"/>
          <path class="cls-100" d="M105.7,56.69c.19,3.27-2.48,5.3-8.01,6.09l-4.27,2.23c-1.36,7.45-3.86,9.76-7.51,6.93-.1-2.14,1.29-4.53,3.1-7.67.49-.86-1.99-2.64-3.23-2.07l3.56-7.22c1.54-1.17,2.53-2.37,3.57-4.06,2.48,4.35,5.65,2.97,7.93,1.77,3.15-1.67,4.5-3.63,5.16-8.52,2.7.88,3.57,4.75,2.65,6.34s-2.49,4.08-2.93,6.18Z"/>
          <path class="cls-100" d="M119.86,61.08c-1.19-1.22-4.77-3.01-6.23-2.11l4.59-4.55,1.64,6.66Z"/>
          <path class="cls-50" d="M109.93,42.67c-2.74.19-2.12-2.54.1-1.88-.27.46-.17,1.41-.1,1.88Z"/>
          <polygon class="cls-17" points="114.85 48.43 115.96 49.73 114.85 50.73 113.85 49.73 114.85 48.43"/>
          <path class="cls-50" d="M117.76,40.11l2.42.99c-.98,2.64-3.31.88-2.42-.99Z"/>
        </g>
      </g>
      <path class="cls-82" d="M83.63,98.63c-.83-.19-2.38-1.01-2.96-1.91s1.56-3.22-1.67-5.92c-.43,4.46-3.58,6.08-5.21,8.28-.75-5,3.54-8.03,5.72-12.44,1.98-3.99,2.27-8.69,6.62-9.92,9.66-1.42,4.23,22.9-2.5,21.91Z"/>
      <path class="cls-108" d="M208.15,264.45c-3.14,11.66-8.32,28.05-14.22,30.37-1.81-.44-1.86-1.16-.23-2.17,1.5-1.24,1.08-2.37.21-4.06-1.23.72-1.37-.1-.41-2.46-1.51-1.59-1.04-3.26,1.4-5.01-4.06,7.27-8.33,7.96-12.82,2.09-5.45-2.54-4.5-7.65,1.74-6.58l4.16-6.59c-1.54-5.6,0-8.34,4.63-8.21-3.08-4.93-.67-10.19,5.17-8.29l1.48.07c7.3-1.24,9.73,4.59,8.87,10.85Z"/>
      <path class="cls-69" d="M211.61,249.97l.07,4.75c.98,3.84-2.78,6.95-3.53,9.73-7.23-3.49-2.99-9.69-8.87-10.85.69.03,1.98-.05,2.54-.37,1.43-4.68,4.7-5.77,9.79-3.26Z"/>
      <path class="cls-129" d="M211.61,249.97c-.92,1.11-3.19,4.45-4.27,3.75l-2.69-1.75c-.65-.43-2.27.75-2.84,1.27,2.22-5.67,1.58-10.03.79-16.87-.42-3.6,3.02-9.24-1.63-13.43,1.51-1.56,2.84-1.85,5.16-1.59,3.64,9.06,5.33,19.03,5.47,28.62Z"/>
      <path class="cls-3" d="M197.78,246.69c-1.71-1.98-1.69-.64.06,4.04.08.8.2,2.01-.05,2.79-.54,1.72-1.94,3.09-3.45,4.51,2.61,1.82,2.33,3.9,1.8,5.82-.64,2.35-2.77,2.66-6.53,1.5.95,2.01,2.03,4.85.68,6.59-1.59,2.05-4.22,3.54-6.47,4.68-2.01-.31-1.58-1.58,1.3-3.81-5.68-1.61-5.06-8.75-1.28-12.23-2.46-2.72-1.63-5.34,2.5-7.86,1.15-4.82,2.95-8.06,5.4-9.7,1.61-9.52,1.99-19.28,1.13-29.27,1.32-1.61,3.1-2.1,5.24-1.69,2.03,2.73,4.74,4.87,2.33,9.58-1.61,3.15,1.74,7.81.39,10.05l-2.77,4.57c-1.57,2.59,4.53,6.84,3.06,8.97-.59.86-2.02,1.47-3.36,1.46Z"/>
      <path class="cls-125" d="M63.73,122.65c-.77,4.57-6.81,8.27-8.89,11.8.74,6.11-1.41,11.23-8.35,13.77-2.59,3.42.95,6.17,4.39,3.54,2.37-1.89,3.99-5.14,6.78-5.26,1.42,1.06.2,3.28-3.65,6.67l1.57,2.14c-6.42,9.79-12.31,19.57-17.67,29.33-1.35,1.58-1.64,4.05-.88,7.38-1.85,2.74-3.67,4.21-5.46,4.43-4.96,4.57-5.98,11.45-8.49,17.83-1.49-1.43-3.99-2.35-5.13-2.46,5.69.55,2.33-14.01,2.59-14.88l7.23-24.13c5.3.59,3.84-5.36,5.62-8.19l26.42-41.93c1.41-1.22,2.7-1.76,3.92-.05Z"/>
      <path class="cls-88" d="M69.91,318.98c5.29.81,5,2.63-.13,3.98-.93.75-2.62,2.59-3.86,2.28l-6.38-1.59c-2.09,4.73.46,6.87,2.47,9.05-5.33-2.46-11.6-4.44-14.09-10.01-1.28-2.16-1.4-4.62.78-8.98l-8.43-.33c3.91-3.24,4.46-3.76,5.08-8.01l15.93,11.11,1.53-5.66c.16-.6,1.58,2.15,1.74,2.61,2.04.58,3.59.84,4.37,1.7.83.92,1.18,3.12.99,3.85Z"/>
      <path class="cls-3" d="M95.91,298.51c-1.17,4.01-4.25,6.53-3.9,12.22,5.14-1.59,9.42-1.11,13.61-.15l.22,9.37c-2.1-.12-3.08-.62-4.28-1.06-.48,1.35-1.34,2.33-2.85,2.26-3.77-.18-15.17-2.72-12.92-6.27-1.12-1.16-4.77-.52-4.55-4.05l.28-8.64c-1.68-3.57-1.33-5.21,1.05-4.93,1.1-2.72,3.36-3.45,5.12-.81,2.04-6.74,12.02-4.65,8.21,2.05Z"/>
      <path class="cls-89" d="M85.8,314.88c6.57,6.83,9.19,1.13,15.77,4.01,1.37,4.08.82,12.03-3.96,11.43l-2.32-1.35c-.62-5.01-3.71-5.05-9.26-.1-.93,3.63-4.63.31-1.94-1.42-2.08-4.21-1.16-5.61.68-9.58-6.41,3.43-10.3,4.93-14.98,5.08l.13-3.98c4.27,2.77,6.11-6.1,15.89-4.1Z"/>
      <path class="cls-11" d="M97.61,330.32l-11.58-1.45c1.02-3.07,1.3-5.97,0-9.79l7.49,2.21c1.87.55,4.31,1.89,5.13,3.43.75,1.4-.32,3.92-1.04,5.59Z"/>
      <path class="cls-148" d="M105.83,340.62l6.71,3.91c-4.82-.33-9.95.86-14.37-.47.86-2.93,2.26-5.48,3.65-4.74s2.59,1.19,4.01,1.29Z"/>
      <path class="cls-88" d="M68.38,328.67c-1.04-.51-1.91-1.14-2.34-2.26l2.34,2.26Z"/>
      <path class="cls-75" d="M37.92,184.64c2-.93,2.07.51.21,4.31,2.52-2.41,3.53-1.31,1.72,1.66,1.63.63,1.61,1.38.02,2.22-7.18,13.22-11.83,27.9-13.96,44.05,1.38.05,2.51.21,2.79.79,1.96,4.12,10.1,25.77,9.22,27.57-.38.79-1.27,1.33-2.31,1.79,1.96.1,3.31,1.91,4.05,5.42l3.96,4.74c4.28,1.24,6.27,3.07,5.98,5.51l2.73.72c.23,6.41,1.48,12.4,3.76,17.98l-7.06-.82c.02-.4.13-1.07.26-1.31.39-1.58-.2-2.18-1.72-2.66.13-4.37-.7-12.29-5.25-14.53-3.29,1.4-6.68.89-8.6,1.08-4.61-11.6-.59-23.82-11.18-38.84l-.56-1.45,1.9-10.13c-.78-16.94,4.57-23.3,7.7-36.29,2.68-2.47,3.38-7.34,2.89-11.24,1.42-.73,2.49-.67,3.45-.57Z"/>
      <path class="cls-13" d="M82.04,287.13c3.46-2.66,4.76-1.52,3.89,3.43,1.68,4.39-1.65,6.4-4.08,2.15-1.37-1.07-3-1.8-1.96.03,2.96.36,3.45,1.46,2.69,4.52l.64,9.16c.1,1.41,2.03,2.61,1.58,3.31-.5.79-3.25,1.37-3.55,1.09-.64,0-1.51-.08-2.08-.02-1.85-.77-1.87-1.51-.01-2.23-2.78-1.92-3.78-3.5-3.02-4.75-4.71-1.32-12.32-7.61-14.33-11.58-2.49-4.92-.36-12.5,5.4-13.21-.71-5.27,1.34-5.24,3.38-.31,3.4,3.28,7.21,6.09,11.45,8.41Z"/>
      <path class="cls-3" d="M56.39,280.63l1.82,1.96c-.82,11.53,6.04,18.78,20.59,21.75l.35,4.23c-.19.61-.05,1.51.01,2.23-6.16,3.85-12.13-1.42-16.93-6.41-1.38-1.43-5.92-.87-6.14-3-4.66-5.1-5.52-12.11-6.49-18.69-1.85-5.52,8.22-11.95,6.79-2.08Z"/>
      <path class="cls-86" d="M49.29,299.27l-1.72-2.66c1.68-.85,4.09,1.14,1.72,2.66Z"/>
      <path class="cls-70" d="M21.98,242.88c.33-3.33-.97-7.79,1.9-10.13.16,3.46.74,7.63-1.9,10.13Z"/>
      <path class="cls-96" d="M147.68,118.85l2.26,1.99,11.38,15.92,17.45,29.22,3.43,13.37-2.39,1.39c.32,3.87-1.22,3.86-2.31-.02-4.66-3.17-6.96-9.01-6.9-17.5l-7.03-13.11c-5.01-.61-13.02-12.77-9.87-17.41-3.91.31-6.36-.62-7.34-2.78l-4.58,1.01c-4.05.65-3.96-7.08-1.43-10.23l7.35-1.86Z"/>
      <polygon class="cls-107" points="159.86 116.86 156.93 122.87 153.7 116.72 159.86 116.86"/>
      <path class="cls-85" d="M145.81,116.99l-3.09-2.2c-.63-.45-.18-2,1.29-2.18,1.63.73,2.06,2.71,1.8,4.38Z"/>
      <path class="cls-85" d="M143.92,110.7c-1.09-.19-2-.92-2.33-1.96,1.36-.36,2.27.61,2.33,1.96Z"/>
      <path class="cls-107" d="M148.06,110.72c-1.13-.1-2.11-.78-2.48-1.85l2.48,1.85Z"/>
      <path class="cls-107" d="M152.09,116.69c-1.24-.03-1.99-.76-3.32-1.81-1-.79-1.14-2.36,1.03-2.29l2.28,4.1Z"/>
      <path class="cls-85" d="M149.94,120.84l-2.26-1.99c1.19-.3,2.61.64,2.26,1.99Z"/>
      <path class="cls-34" d="M190.77,192.8c.21,6.48,3.36,13.87,7.36,19.26-4.09,5.15-5.6,12.04-2.12,18.4,4.02-1.16,4.35,3.03.85,2.92-3.1,3-3.33,6.84-5.1,9.64-3.12-1.89-1.41-5.76.38-8.74l-2.72-1.03c.1-11.41-1.1-22.21-3.61-32.38-.92-.26-1.66-.58-1.83-1.08-1.61-4.97-4.08-14.48-4.17-19.05l-1.04-14.76,12,26.83Z"/>
      <path class="cls-138" d="M141.77,130.94l4.55-.18c.41,7.35,1.55,14.86,3.4,22.53,6.85-1.23,10.92,13.14,10.16,19.28,3.46,4.76,3.44,7.46-.05,8.11-6.36,3.15-7-8.19-7.28-13.51-4.79,1.85-6.34-.29-4.24-4.84-5.39-1.98-6.41-3.14-2.48-7.26-8.1-3.12-8.08-14.45-7.94-22.39l-.16-3.67c-.14-3.22-.68-7.48,2.61-8.31-1.2,4.02-.73,7.06,1.43,10.23Z"/>
      <path class="cls-85" d="M129.79,94.83c.41,1.64.08,4.14.06,5.9l-4-1.96c-4.16-.27-3.88-2.09.47-2.37.46-2.17-3.25-5.07-.25-7.75,1.92-.14,4.07-.39,5.78.99-1.96,1.12-2.62,1.87-3.19,2.65-.75,1.04.49,1.95,1.13,2.53Z"/>
      <path class="cls-153" d="M128.98,107.53l2.16,8.2c.38,1.46.71,3.8-.57,4.8-.91.71-3.4.17-4.36-.08-.57.83-1.16.72-1.76-.18l-6.44-9.13,1.71-2.58c-3.33-9.28,5.78-11.63,9.26-1.03Z"/>
      <path class="cls-151" d="M59.99,145.14c-1.19-.65-1.18-1.55-.13-2.41v-4c1.27-1.85,2.58-2.51,3.95-1.99,4.17,1.98.24,8.58-3.82,8.41Z"/>
      <path class="cls-82" d="M91.29,128.69c.85,1.22,1.44,2.27,1.14,2.73-5.2,7.96-20.23,21.38-16.72,3.59l-2.02-1.61c-1.05,3.59-3.12,6-6.22,7.22,2.66,4.72-.16,8.8-5.41,6.28-2.77,5.46-5.45,7.54-8.05,6.26l3.65-6.67.02-1.85c1.05-.94,1.76-.84,2.31.5,2.71-1.74,3.69-5.28,3.82-8.41-1.18-.67-1.12-1.37.08-2.09l.11-1.66c1.59-1.03,1.6-2.75,2.04-4.41l1.79-6.72-2.54-1.79,2.82-.53,1.06.84c2.42-2.67,7.16-8.36,9.82-11.25l-.36-6.72c-.07-1.26,3.51-2.11,5.13-1.2,7.53-13.63,24.55-13.04,15.13,4.77,1.71,13.27-.82,20.84-7.6,22.7Z"/>
      <g>
        <path class="cls-76" d="M83.63,98.63c3.87-.02,3.93,1.5.13,2.59-.21,6.8-1.83,10.45-4.89,10.97-2.7,6.46-5.94,9.19-9.71,8.19l-1.34,1.48c4.95,2.13,3.32,6.64-1.79,6.72-1.52,1.21-2.2,2.68-2.04,4.41,1.73.47,1.65,1.02-.11,1.66l-4.03,4.09c2.77-.04,2.25,2.76,0,4-.33,1.24-.83,2.06-2.17,1.91,1.76.42,1.71,1.04-.02,1.85l-9.82,10.1c-1.58.13-4.62-1.44-4.99-2.95-.45-1.85,17.03-28.61,20.88-30.99-1.58-.47-2.31-1.2-2.19-2.19.28-.36.24-1.25.22-1.73.27-1.82,1.02-2.74,2.26-2.76,1.66-6.16,5.88-11.65,9.76-16.89,4.05-10.59,9.61-14.65,9.84-.45Z"/>
        <g>
          <path class="cls-82" d="M61.76,118.73l-.13-2.98c.75-.13,1.82.16,2.39.22-.31,1.15-1.28,2.15-2.26,2.76Z"/>
          <path class="cls-82" d="M63.73,122.65l-3.92.05,1.73-2.25c1.47-.16,2.41.9,2.19,2.19Z"/>
          <path class="cls-125" d="M63.99,132.98c-1.55-.27-1.82-1.69-1.28-2.39.9-1.14,2.26-1.84,3.31-2.02,4.01,2.55,2.57,5.85-2.04,4.41Z"/>
          <path class="cls-125" d="M63.8,136.74l-3.95,1.99c.7-1.9,2.14-3.35,4.03-4.09l-.08,2.09Z"/>
          <path class="cls-125" d="M59.99,145.14l-2.31-.5c.57-.8,1.31-1.45,2.17-1.91l.13,2.41Z"/>
        </g>
      </g>
      <g>
        <path class="cls-52" d="M193.5,286.12l.41,2.46c1,1.5,1.35,3.08-.21,4.06l.23,2.17c-5.44,2.48-6.66,10.08-9.98,14.64-8.36,6.88-15.66,14.95-26.48,18.38-3.49.63-8.69.58-11.43,3.21-4.49-1.62-8.86,2.05-10.5,5.98l-7.26,1.69c-1.33-2.92-2.05-2.91-2.13.18-1.04.09-3.22-.28-4.1.3-8.63.52-20.34-6.36-20.38-5.41.04-.8,1.72-1.67,2.11-3l6.18-17.97c5.83-.29,3.96,3.52,1.71,1.65-2.7-2.24,4.88-5.84,6.19.47,2.53-.36,4.77-1.37,6.72-3.04l1.64,3.09c11.06-1.34,1.72,11.47-3.14,3.72l-1.14,1.13c3.09,1.56,5.44,1.6,7.06.1,7.76-5.71,12.71-6.16,14.86-1.34l2.27-1.72c.15-1.79.73-1.82,1.71-.21,3.07,2.62,6.52,1.4,10.34-3.67,6.85,1.34,16.01-3.1,9.63-9.39-.55-5.11.2-11.34,6.17-8.49,2.22-5.69,7.06-10.27,11.94-4.6,1.88-3.64,3.06-5.44,7.58-4.41Z"/>
        <g>
          <path class="cls-21" d="M194.1,296.87l-2.4,1.91c-.92,4.92-4.52,8.02-7.75,10.69-2.68-1.85-2.81-4.03-.99-6.5s8.67-10.3,10.96-8.14l.17,2.05Z"/>
          <path class="cls-108" d="M193.86,298.73l-2.15.04c.16-.72,1.84-1.7,2.4-1.91l-.25,1.86Z"/>
          <path class="cls-61" d="M128.28,338.72l-2.13.18c-6.13-6.13-15.99,2.15-12.95-8.07-1.86-2.15-4.63-4.5-3.68-6.81.74-1.8,2.78-3.21,5.45-5.31,5.66,12.77,22.42,9.81,13.31,20Z"/>
          <path class="cls-56" d="M146.05,331.04c-3.17,3.04-6.07,4.95-10.5,5.98-1.52-.89-2.79-4.34-1.01-5.37.9-.52,2.34-.19,4.02-2.16l3.31-3.87c1.1-1.29,2.54-.1,3.08,1.04.79,1.66,1.01,2.85,1.1,4.38Z"/>
          <path class="cls-21" d="M193.5,286.12l-9.2,14.34c-1.18,1.84-5.55.33-5.87-.82-.2-.72-.04-2.44.64-2.78.74-.37,2.32-.65,4.59-.62l-2.39-5.76-7.29,4.66c-3.86-.54-3.81-2.12.05-2.91-5.04-2.17-3.35-7.52,1.74-7.01,1.31-4.65,2.05-5.04,6.31-2.02,2.21-1.06,5.01-6.84,5.27-2.92.1,1.6.19,2.75,1.65,4.68,3.01-4.29,6.26-9.27,12.17-10.29-.22,5.68-5.78,8.51-7.67,11.46Z"/>
          <path class="cls-21" d="M193.7,292.65l.21-4.06c1.16.6,1.9,1.8,1.8,2.91s-1.14,1.6-2.01,1.16Z"/>
          <path class="cls-123" d="M155.73,298.28c.94,4.28,1.58,8.49.64,12.78,2.06,4.28-5.6,10.18-8.53,5.62l-1.71.21-2.27,1.72c-4.19-2.66-3.77,2.77-13.01,3.48-1.67.13-3.98,2.14-5.17,1.67-1.38-.55-3.15-2.76-3.74-3.91-.2-.38-.64-.66-1.13-.69-.96,1.8-3.23,1.79-4.09.46,2.53-2.89,4.07-3.01,5.41-2.24.15.61.5,1.08.95,1.34,1.69,1.08,4.71,1.67,5.4-2.19l-10.62-1.58c.27-.48.21-.99,0-1.2-.25-.25-.48-.92-2.61-1.81,2.1,1.8,5.42.37,1.33-3l2.35,3.62c1.64.57,3.73.54,4.87-.94l-2.86-3c-.38-.4-.63-1.23.27-1.44,1.21-.29,2.13-.12,2.74-.04,2.96-2.46,17.26-.83,21.1,1.09,5.27,2.64,2.58,4.47.96,3.78-.78-.34,2.34-2.99,4.46-2.42-.22-2.32.85-4.77,3.44-4.84-3.59.05-4.21-1.3-1.88-4.04-2.41-4.54.13-6.07,3.7-2.43Z"/>
          <path class="cls-5" d="M147.84,316.68c3.77-.46,5.91-3.45,8.53-5.62,3.06-2.53,7.18-4.08,9.48-7.65.75-1.68,1.4-1.58,1.97.21,3.43.37,7.38-.76,10.75,3.06l-16.67,14.14c-2.62,1.59-5.16-1.35-2.31-3.12,3.77-8.55-3.33,3.13-8.78,3.83-2.21.29-3.45-2.67-2.97-4.85Z"/>
          <path class="cls-5" d="M143.86,318.61c.51-.73,1.32-1.6,2.27-1.72.32,1-1.63,2.13-2.27,1.72Z"/>
        </g>
      </g>
      <path class="cls-81" d="M57.9,156.99c3.1,2.37,2.01,3.53-1.64,1.77l-12.65,26.58c-1.47,3.36-3.3,4.56-5.48,3.6l-.21-4.31c-.23-4.58,11.39-27.81,16.09-31.48l8.05-6.26,3.09,3c-3.46.73-5.88,3.09-7.25,7.09Z"/>
      <path class="cls-31" d="M127.35,270.83c5.98-.41,9.26,9.41,8.5,13.94.91,3.26,0,2.79-2.34.37l-2.1.14-4.1,2.03c.83,10.27-1.66,14.23-7.47,11.9.17-1.21-.69-2.83-1.94-2.74-.39-4.19-.26-8.77.38-13.73l-3.92-.59c-7.34-5.31-6.74-.5,1.79,14.45.51.88,2.18,2.22,2.06,3.19-.13,1.04-2.43,3.04-3.4,3.22-1.45.26-4.17-6.48-9.05-9.7-1.63-2.68-3.8-4.3-6.51-4.86-1.15-2.12-4.02-11.35-3.81-12.79.47-3.15,2.3-5.82,5.49-6.46,6.43,2.94,11.1,2.24,14.01-2.11-.12-14.18,18.31-11.18,12.42,3.74Z"/>
      <path class="cls-11" d="M117.9,296.48l-1.75.13c-5.57.43-11.3-9.43-10.95-16.77-1.66.91-2.12.95-2.7.4-.97-.92-.93-2.26-.58-2.94.75-1.47,2.1-.9,3.9-1.1l6.62-.74c1.62-.18,2.91,2.61,3.9,4.87,2.4-3.67,3.04-2.06,4.12-1.15,4.09,3.43,1.98,14.44-2.57,17.31Z"/>
      <g>
        <path class="cls-44" d="M116.16,296.61c.24-1.78.83-1.78,1.75-.13,4.62-3.3,5.24-1.82,1.94,2.74,2.21.1,3.36,1.29,3.71,3.32,5.61-.16,5.54,2.67.4,4.61.08,1,.05,1.83-.35,2.08-1.54.97.24-4.43,1.01.84s-2.2,5.79-5.68,2.5l-1.07,1.19c1.9-.15,1.83.27,0,1.2-2.37-.35-4.66.91-7.6,1.89.39-2.39.12-3.05-.3-4.01-.9-2.03-2.58-1.85-4.34-2.25-6.23,5.61-18.83,6.13-16.64-6.39.63-3.58,3.05-6.48,6.92-5.68,2.16-5.3,6.35-3.43,5.7,2.16,2.35,1.23,3.74-1.22,4.16-7.36,2.64-.27,7.9,4.19,9.59,6.83.11.17-1.5-1.87.81-3.54Z"/>
        <polygon class="cls-123" points="114.85 304.2 115.85 305.72 114.85 306.72 113.85 305.72 114.85 304.2"/>
      </g>
      <path class="cls-37" d="M88.15,292.23l-.45,4.22c-1.3.98-3.54,2.27-5.12.81-.36-.23-2.54-.86-2.91-1.6-.33-.65,0-2.03.22-2.92.55-1.39,1.2-1.37,1.96-.03,1.7-.03,3.49-.49,4.08-2.15l2.23,1.67Z"/>
      <path class="cls-6" d="M41.94,194.79c1.76.42,1.71,1.06-.01,1.88-3,7.4-2.75,15.53-1.69,23.02-3.39,2.17-5.49,5.94-6.31,11.3.49,6.87,2.05,14.04,4.68,21.51,3.25,2.54,4.44,5.25,3.55,8.14,3.58,1.53,1.59,6.4-2.08,6.27-.33,4.45-2.01,3.54-4.47.14l-3.22-13.45c-3.96-5.89-5.72-10.15-6.48-16.7,2.09-16.11,6.74-30.8,13.96-44.05l-.02-2.22c.53-3.84,2.04-3.67,2.57.24,5.19,1.28,4.74,3.06-.49,3.94Z"/>
      <path class="cls-42" d="M60.2,270.99c1.99,4.45,2.54,10.07-3.8,9.64-.23-1.79-2.12-2.56-3.57-1.85.2,1.6-.06,2.43-.36,2.82-.48.63-2.07,1.18-2.86,1.1l-8.25-3.06-5.75-12.61c1.28-.17,3.27-.54,4.47-.14l7.65,5.19c.88-3.88,2.85-5.73,5.92-5.53-2.89-3.3-2.66-4.57.68-3.82-1.46-2.13-1.36-3.06,1.27-2.5,7.36,4.79,8.89,8.38,4.59,10.75Z"/>
      <path class="cls-83" d="M52.02,170.46c-2.7,4.9-3,8.94-.91,12.12l-4.9,2.29c3.42,5.01,2.18,6.97-3.8,5.97l-2.57-.24c-.83-.08-1.68-.81-1.72-1.66l6.72-8.98c3.08-8.1,5.84-15.17,11.42-21.2,5.78,2.08,1.48,12.71-4.24,11.69Z"/>
      <path class="cls-83" d="M39.87,192.83l-4.74,10.89-5.77,20.29c-1.17,4.13.78,9.9-3.45,12.87-.91-7.89,1.55-13.72,4.06-22.03l6.06-20.07c.62-2.04,2.3-2.34,3.85-1.96Z"/>
      <path class="cls-67" d="M83.47,250.78l1.17,2.05c-4.39,5.33-6.12,14.55,2.46,10.01,1.19-5.23,2.95-5.04,4.32.11,1.81.27,1.88.91.29,1.9.62,5.46.29,10.8-.97,16.02l-4.58-.65c-1.6,2.03-1.64,5.3-4.11,6.89-2.58,1.1-5.75,1.06-7.75.27-3.97-1.57-4.61-5.35-3.7-8.68-1.02-.62-1.81-1.25-1.85-1.92-.38-6.63,5.57-3.01-1.53,2.23.75,2.76-1.76,5.61-2.4,7.56-.86,2.62,1.87,7.21,4.35,7.35,1.2.07,2.56-1.66,2.78-2.3.58-1.68,4.14-1.21,3.84,1.07-.14,1.11-3.85,2.14-4.28,3.11-.49,1.11,1.2,3.27,2.29,3.85.94.5,3.3-.12,5.05-.73,2.24,2.22,1.17,6.87.31,9.62-1.23-3.55-5.98-1.92-8.11-3.01l-12.01-6.12c-1.28-.65-8.74-11.49-2.65-18.81,1.86-2.24-.28-7.83,3.8-9.64-.66-4.3,2.05-6.49,8.14-6.56-2.22-2.54-.6-5.49,4.86-8.83-4.73-4.61-6.55-8.86-5.47-12.77-5.05-2.1-5.09-3.69-.12-4.78-8.26-6.74-.42-17.36,8.02-9.08l-1.98,5.95c2.88.29,4.24-.37,4.1-1.98-3.33-5.59,2.34-9.29,7.43-5.32,6.8-2.43,8.77,9.09,2.61,10.51-.93,4.54-2.36,8.76-4.31,12.66Z"/>
      <path class="cls-104" d="M70.6,278.72l-3.38.31c-.63-2.32-.93-4.43-.62-6.37.43-2.72,1.62-3.61,3.89-3.02,1.85.49,3.35,1.77,5.13,4.1l-5.02,4.98Z"/>
      <path class="cls-15" d="M81.85,292.71l-1.96.03c-.98.58-2.89-.62-2.49-1.14.8-1.03,2.94-1.34,3.49-.91s1.15.85.97,2.02Z"/>
      <path class="cls-128" d="M153.68,132.7c3.98,4.99,8.6,10.65,9.87,17.41,5,3.89,13.99,36.36,9.4,38.8-1.66.88-3.53.59-5.23,0-3.1.76-4.18-4.82-1.26-6.18-3.68-2.7-5.52-5.7-6.59-10.15-5.8-4.67-6.35-13.21-10.16-19.28-1.48-7.05-2.86-14.22-4.12-21.5,1.63-2.84,4.32-2.53,8.09.91Z"/>
      <path class="cls-110" d="M177.49,180.71c1.12.24,1.67,1.66,1.64,4.24,5.03,6.73,7.68,41.04,5.73,47.5-3.05,10.08-9.46-.91-11.64-7.09,1.2-7.62.82-14.97-1.13-22.05-3.42-5.23-4.88-10.03-4.37-14.4,4.9-4.2,2.3-8.35,1.19-13.72-.82-3.97,3.14-10.13-1.17-14.41-3.19-3.18-3.55-7.22-4.2-10.67,6.26,5.51,12.82,22.47,13.94,30.61Z"/>
      <path class="cls-99" d="M166.46,182.72c0,1.57.54,4.68,1.26,6.18,5.22,10.75,10.19,21.68,6.95,35.24,2.26-.36,3.73-2.44,8.04-1.34-1.33,2.45-3.84,3.59-3.95,5-.13,1.62.44,5.46,4.44,5.77l-1.48-25.19c-.23-3.98-1.59-5.13.67-8.88,1.56-2.58-1.25-9.69-3.43-11.79-3.07-2.96-1.24-5.21-1.49-7l2.31.02c.79,6.08,5.99,9.94,6,20.13,3.51,6.86,5.16,39.47-.62,42.91-3.36,2-15.24-4.02-14.73-9.28.06-10.73-.16-21.42-.66-32.08-2.88.59-4.37.41-5.73-1.86-1.89-3.17-7.24-17.64-2.63-19.71.51-4.43,3.32-1.1,5.02,1.88Z"/>
      <path class="cls-64" d="M153.68,132.7h-2.97c-5.89.06,2.05,9.1-1,20.59-1.09-1.74-4.28-2.35-4.01-6.82.32-5.37-1.23-11.58-3.93-15.53l3.09-9.29,8.83,11.05Z"/>
      <path class="cls-54" d="M192.13,234.28c-4.49,24.02-12.01,28.92-22.58,14.71,1.88-1.36,1.41-2.67-1.39-3.94l-.42-10.3c-3.24-5.92-3.71-12.27-1.4-19.05-1.78-7.6-.63-12.03,3.46-13.28,5.27,7.6-1.04,19.73,3.91,34.24l11.73,4.2c2.95-14.24.39-27.01.37-39.99,2.1,1.65,5.37,3.2,4.6,5.93-2.04,9.71,1.41,18.78,1.73,27.48Z"/>
      <path class="cls-12" d="M109.33,144.72l.82,3.97c3.05.45,1.57,7.05-.71,8.48-2.86,2.53-5.78,1.78-8.77-2.26-5.21,3.31-6.5,6.42-3.87,9.32l-2.93,3.98c2.36,1.47,3.12,4.22.31,5.23.42,5.34-1.45,5.47-3.96.8-2.06,4.2-6.2-.23-4.42-3.54-4.34,1.61-5.75,1.04-4.22-1.71-.97-.96-.87-1.8.29-2.54-2.93-1.51-1.95-5.39,2.92-11.65.77-5.69,1.66-10.58,6.82-13.98-1.04-3.24,2-4.63,4.24-2.12,5.21-6.78,18.56-.52,13.45,6.02Z"/>
      <path class="cls-22" d="M128,141.07l3.58.25c1.44,4.54,2.38,8.71,2.83,12.53,4.51,3.28,2.37,6.94-6.41,10.97,2.85,4.04-3.93,4.39-6.02,1.95-1.63-.23-1.66-.83-.2-1.75-.77-3.11-.04-6.78,2.21-11-5.15-6.58-9.05.38-7.25,7.08-2.07,1.71-4.51.41-7.3-3.91l.71-8.48c4.24-1.64,7.21-5.19,10.17-9.49,3.07.02,5.63.81,7.67,1.85Z"/>
      <path class="cls-22" d="M148.3,162.33l-4.44,2.5c-.51,3.71-1.93,3.41-2.97-.14-5.19-2.07-6.71-4.81-4.56-8.23-2.69-4.93-6.65-14.15-1.97-17.96l3.52-5.82c4.66,5.02,6.94,11.97,4.28,18.59,6.11.87,4.91,7.79,6.14,11.06Z"/>
      <path class="cls-38" d="M140.89,164.69c-2.43,1.23-6.15,1.23-11.15,0-.25,1.78-.84,1.78-1.74.12-.06-2.98,1.99-4.85,6.44-6.32-1.99-1.34-3.71-2.85-3.7-4.43,0-.99,1.32-3.08.65-4.73l-3.39-8.27c2.58,1.32,4.7-.33,6.36-2.56l1.27,10.15c1.55,4.04,3.24,6.14,9.85,6.32-2.43,2.66-4.28,2.79-8.04,4.38,2.44,1.31,3.52,3.05,3.45,5.35Z"/>
      <path class="cls-65" d="M109.52,136.71c1.81,1.52,2.68,5.04,4.09,7.51-1.9.79-3.2.59-4.28.51.94-8.02-4.11-2.91-13.45-6.02-2.01-1.3-1.22-2.9,2.39-4.83-.62-3.23,1.96-6.04,7.74-8.44-.03,4.4,1.14,8.16,3.51,11.26Z"/>
      <path class="cls-73" d="M109.52,136.71c-2.47-1.52-3.71-3.88-4.19-8.61-5.56,2.6-6.5,7.27-9.45,10.61-1.1,1.13-2.7,2.01-4.24,2.12-2.91,4.69-5.7,6.62-8.39,5.79-7.59-1.86,4.06-10.81,8.69-11.74,3.04-.99,3.8-1.74,2.3-2.23-1.79-.2-1.8-.78-.17-1.72-1.51-3.36,3.11-6.34,5.8-3.85,2.39-1.59,5.4-3.48,4.74-7.31,9.69-1.85-1.29,4.91,4.9,16.94Z"/>
      <g>
        <path class="cls-24" d="M122.35,68.73c.03.58-.31,1.49-.57,2.05-.96.79-.96,1.3.13,1.92,4.19,5.2-.19,13.18,4.25,14l-.09,1.95c1.87,1.51,1.85,5.89.25,7.75-7.62,4.77-13.12-11.04-7.34-15.78l-2.1-3.66c-3.74-.97-3.34-2.43.63-2.76-4.54-3.34-4.52-5.18.05-5.52.02-4.49,3.23-3.97,4.79.04Z"/>
        <path class="cls-100" d="M120.17,62.24c.58,2.14,2.04,4.18,2.18,6.49l-4.79-.04c-.91,1.47-2.81,1.53-5.69.18l-4.21.5c-1.88,11.16-5.8,15.9-11.76,14.24l1.71,1.71-1.8.96-1.12-1.21c-1.55.89-1.82.42-.93-1.26l-1.6-1.64,1.6-.76c.46.63.82.88,1.61.87-8.68-2.54-5.53-18.91,2.39-18,5.16-3.38,14.75,2.46,22.42-2.02Z"/>
        <path class="cls-78" d="M117.51,74.21l-.63,2.76c7.1,5.32-.76,13.49-9.45,4.98-8.02-7.86,5.18-21.11,10.07-7.73Z"/>
        <path class="cls-127" d="M97.69,62.78l.06,1.48c-5.5,4.69-3.63,11.36-2.39,18-.87.28-1.37.91-1.61,1.53l.93,1.26c.2-.62.59-1.09,1.21-1.45,5.59-3.25,5.89-10.41,9.05-15.87,2.51-4.33,10.09-.39,12.62.96l-.05,5.52c-1.9-2.46-7.2-5-8.93-.93-.35,2.11,1.8,7.12,3.79,7.98,1.81.77,4.42.77,5.17.06s.07-3.83-.66-4.35c1.23-.23,2.73-.7,5.16.34-3.03,6.74-1.71,15.38,4.27,19.1-.55.75-.72,1.92-.47,2.37,1.47,2.66,2.36,5.83,3.13,8.76-1.57-1.13-2.92-2.67-4.26-4.56l-5.01,5.59c-3.93-2.26-3.77-6.65-4.64-11.34-.52-2.8-5.49-3.21-7.3-1.69-8.98,7.55-7.19,19.12-7.9,31.55l-5.8,3.85c-3.67,4.01-4.43,2.78-2.78-2.23.82-2.95,3.42-4.02,5.67-5.23l-.69-19.51,4.06-2.23c.8-.44.08-2.37-1.21-2.05-.73.18-1.74.51-2.91.38.16-1.46.55-2.18,1.03-2.73.96-1.09.15-2.48-.59-2.54-4.7-.4-7.86,9.27-12.89,6.44l-.13-2.59c.45-1.97,1.63-3.45,3.29-4.99-6.55-3.21,5.65-8.68-.78-16.92l-.22-4.78c3.38-1.75,4.73-5.87,4.52-11,2.88-.66,5.28.37,7.27,1.84Z"/>
      </g>
      <g>
        <path class="cls-62" d="M119.71,108.56c2.99,2.47,2.08,3.73-1.71,2.58,1.97,6.15,2.95,9.23,2.95,9.23-.03,3.53,1.27,7.04,3.89,10.54,1.83-5.9,6.47-11.72,10.75-5.83.12,1.35.67,3.02,2.14,3.94,2.56.21,3.2,3.1.16,3.67,2.04,4.71,2.21,7.41-3.52,5.82-.59,7.29-2.62,9.66-6.36,2.56-5.74,3.59-11.69,6.13-17.85,7.63-5.34.44-5.48-1.44-.82-3.97.35-3.04.41-5.71.19-8.02-1.75-7.08-4.96-10.29-9.65-9.63-1.29-.29-2.35-.67-2.6-1.35-.43-1.17,1.36-22.11,4.26-23.85-1.61-3.47-.52-6.47,2.67-8.52,12.43-7.98,17.82,4.73,15.5,15.2Z"/>
        <path class="cls-24" d="M129.85,100.73l2.09-.56c-1.54,5.35,2.31,9.65,2.81,15.36l.84,9.55c-2.24-.61-4.3.82-5.26,2.91-.55,1.19-1,3.67-1.27,5.45-2.53,1.37-6.52,2.48-9.5,2.4,1.24-17.83-8.53-23.59-1.55-24.7,5.01-3.29,10.36,4.93,6.44,9.13-2.47,2.84-1.89,2.9,1.76.18l1.35-2.57c-2.38-5.08-1.9-8.53,1.43-10.36-1.26-3.27-3.07-4.67-5.44-4.18-.56-1.49.21-3.02,2.31-4.58,2.08-3.58,3.28-1.73,4,1.96Z"/>
        <rect class="cls-73" x="110.14" y="127.02" width="1.41" height="1.41" transform="translate(-57.85 115.79) rotate(-45)"/>
      </g>
      <path class="cls-62" d="M126.2,120.45l-1.52,2.33c-.44.67-1.46,2.01-2.07,1.85-1.94-.5-1.74-2.39-.73-2.95l2.56-1.41,1.76.18Z"/>
      <path class="cls-44" d="M83.8,152.77c-3.72,2.76-4.84,1.58-2.02-2.13,1-.94,2.42-1.16,4.28-.65-.12,2.02-.88,2.95-2.26,2.79Z"/>
      <path class="cls-44" d="M94.07,130.92l.17,1.72c.38,1.15-.39,1.89-2.3,2.23-3.89,3.38-8.77,6.21-8.69,11.74,1.69.74,1.6,1.42-.18,2.06.39,1.18-.05,1.83-1.29,1.96-1.33,3-1.24,5.08.28,6.23,1.22,2.26.3,4.73-2.75,7.4l2.58,2.18c-.25.66-.13,1.96-.29,2.54,2.1,8.33-15.22,17.05-17.86,5.95-1.57-.66-1.5-1.39.08-2.18l1.97-5.96c-1.01-.5-1.78-.97-1.74-1.36.48-4.77,2.89-19.84,4.55-21.92.48-.6,1.58-.7,2.86-.66-1.1-5.46.32-8.08,4.26-7.84.97,2.02,1.63,4.21,3.81,6.24,5.63-3.68,10.31-7.29,11.77-12.56l2.78,2.23Z"/>
      <path class="cls-147" d="M71.45,142.85l-5.67,23.94-1.97,5.96c.08.61.17,1.6-.08,2.18,4.04,2.79,2.09,15.11-1.75,17.62,2.92,2.34,1.68,3.19-1.98,2.29-2.72-2.16-5.09-5.37-7.11-9.62,2.68-3.86,4.37-7.35,5.06-10.47l-2.69-.83c1.49-5.37,3.35-10.79,5.58-16.26l-2.94-.69,4.16-10.09c2.06-1.61,4.27-3.88,5.41-6.28,5.05-6.9,7.48-5.82,3.98,2.23Z"/>
      <path class="cls-8" d="M75.71,135.01l-4.26,7.84c.37-.71.67-3.38-.51-3.61-.8-.16-2.76,1.25-3.48,1.39l13.42-28.31c2.08,4.08.89,7.89-.79,10.61-2.64,4.26-2.5,8.64-4.38,12.09Z"/>
      <path class="cls-74" d="M183.85,260.58c2.43,3.91.89,8.23,1.28,12.23-3.34,1.19-6.13,3.86-9.61,2.29-9.24,6.18-11.41-10.07-5.22-13.66-1.22-1.79-2.12-3.72-.25-5.14.89,1.2,1.36,2.73,2.79,3.75.77-2.04,2.86-2.88,3.26-2.18l2.26,4.03,2.67-1.99c.68-.51,2.27.1,2.83.68Z"/>
      <path class="cls-108" d="M197.78,246.69c1.06,1.23,1.17,2.94.06,4.04-.96-1.9-2.48-3.63-4.15-5.32,2.25-2.02,4.23-.44,4.09,1.28Z"/>
      <path class="cls-41" d="M145.36,256.53c.08-1.1.19-1.96.39-1.99,5.83-.68,18.71-1.76,19.74,4.44,1.57.36,1.57.98.1,1.83-1.33,5.79-3.86,11.3-7.58,16.53.61,1.99,1.59,3.94,2.93,5.87-3.4,1.76-6.43,2.27-12.04-1.57-1.75,3.8,1.85,3.83,3,4.88,3.76.08,3.8,1.22.67,3.1-2.83-.74-4.87-1.67-6.73-2.9-2.35,3.05-3.04,1.02-3.84-2.24-4.03-5.13-7.15-10.91-9.36-17.33l1.31-3.84.17-7.86c.73-1.42,1.66-.89,2.79,1.6,1.11.29,2.01.64,2.14,1.17,2.15,8.65-3.43-2.35.56-3.72,2.14-.74,4.73,0,5.75,2.03Z"/>
      <path class="cls-22" d="M167.9,252.69l2.4,8.74-1.77,6.72c-.64,2.43,4.99,6.04,6.99,6.94-1.58,2.52.41,4.39-1.09,8.83-1.55-2.18-4.27-5.47-5.54-4.82l-7.93,4.1c-1.97-.51-4.12-.65-5.7-2.91-.95-1.37-.89-3.86,2.76-2.96.75-2.93,2.14-2.81,3.89-.34.52-1.27,1.25-1.32,2.17-.23-2.09-1.52-3.2-3.68-3.35-6.49,3.23-2.81,4.85-5.96,4.87-9.47-.28-.32-.28-1.3-.1-1.83-5.57-1.27-7.16-5.64-1.7-8.53-.29-3.73,1.01-3.39,2.62.01,1.02.34,1.12,1.69,1.48,2.23Z"/>
      <path class="cls-131" d="M57.95,174.77c-2.72,15.56-13.24,9.6-5.93-4.32,2.53-2.77,3.58-8.05,4.24-11.69l1.64-1.77c1.86-2.01,2.27-5.7,7.63-5.78l-3.25,13.15c-.87,3.5-4.87,7.11-4.33,10.41Z"/>
      <path class="cls-87" d="M142.01,284.49c2.51,1.68,3.02,5.42-.32,6l-3.78.16c-1.78-1.98-2.47-3.93-2.06-5.87-.89-1.24-2.66-2.26-4.75-3-.85-3.98-2.06-7.62-3.75-10.94,2.14-2.69,3.38-6.32,6.6-7.52,3.66,1.41,2.64,7.09,5.15,9.79l4.5,4.86c1.29,1.39-1.48,4.47-1.58,6.52Z"/>
      <g>
        <path class="cls-139" d="M137.91,290.65c.06-5.35,1.98-5.14,3.78-.16,1.67,3.04,2.4,2.18,2.19-2.57l1.96-1.2c2.74-1.51,4.95.71,6.73,2.9,1.25,2.12,1.26,5.27.02,9.45-3.03-1.07-3.22-.53-.57,1.63.64-.17,1.77.48,1.93,1.11s.17,2.32-.04,2.94c-2.41.91-3.34,2.17-3.44,4.84l-.73,4c-.47,2.57-3.31-1.12-4.42-1.24l-14.51-2.76c-.86,1.25-2.81,6.17-5.26,3.65-.14-1.64.93-3.61.65-4.27-.32-.75-1.48-1.55-2.25-1.81l-.4-4.61c1.73-2.83,2.6-4.96,2.62-6.39-.45-7.98,1.3-11.6,5.24-10.85.48-1.78,1.19-1.8,2.1-.14,1.9,1.01,3.36,2.84,4.4,5.5Z"/>
        <g>
          <path class="cls-123" d="M131.41,285.29c-6.37,5.96,1.56,11.94-.42,14.62-1.35,1.82-5.04,2.37-7.44,2.62l-4.19,2.9c-.5-3.17.26-4.73.48-6.21,4.99-3.04,4.7-9.13,5.33-15.04.71-1.59,5.93-.38,6.25,1.11Z"/>
          <path class="cls-123" d="M145.85,286.72c.2,1.73.21,4.44-.27,6.46-.35,1.47-3.67,2.89-5.12,3.09-1.82-2.24,1.16-4.46,1.23-5.79l.32-6c1.47.3,2.84,1.06,3.84,2.24Z"/>
          <path class="cls-145" d="M136.64,295.03c.8-.06,1.9,1.33,2.42,1.8,1,.93,1.1,3.14-.18,3.91-.9.54-5.44.04-4.93-.87l2.7-4.84Z"/>
          <path class="cls-22" d="M153.91,304.75c-.57,1.67-3.16,3.32-3.44,4.84-.78-1.01-.72-4.33.28-5.17.65-.54,2.54,0,3.16.33Z"/>
          <path class="cls-123" d="M137.91,290.65c-2.06-1.25-3.35-3.35-4.4-5.5l2.34-.37c1.18,1.65,1.68,3.9,2.06,5.87Z"/>
        </g>
      </g>
      <path class="cls-135" d="M53.21,219.12c-1.45,3.87-3.71,7.06-6.77,9.54-1.05,3.76-2.61,3.5-2.9-.43-1.89-1.92-3.91-3.33-6.06-4.24l.24,2.68c4.33.62,3.74,3.44-.66,3.68,0,1.79-.54,1.86-1.59.32l-1.51.32c-3.91-3.83,1.82-7.6,2.21-10.7,1.13-8.9-.81-17.38,5.78-23.62.58-1.09,1.65-1.42,2.6-.48,5.23,5.19-.22,4.04-2.59-1.4l.49-3.94c1.58-1.69,2.97-3.77,3.8-5.97,10.23-6.27,11.92,11.64,12.2,20.27.14,4.29-.24,15.96-5.21,13.98Z"/>
      <path class="cls-112" d="M35.44,230.67c4.3,3.82,7,9.14,8.11,15.95l2.36.41c6.08-5.4,7.64,1.45,4.01,5.95.79,3.96.39,4.7-1.21,2.23,2.4,4.9.54,7.67-5.59,8.33l-.96-2.92c-4.95-1.21-4-5.84-5.55-10l-5.98-16.01c-.7-1.87,1.77-3.36,3.31-3.63l1.51-.32Z"/>
      <path class="cls-121" d="M41.93,196.67v-1.88c4.74-.85,7.4,1.69,9.4,5.69,1.88,3.77-.57,6.55-2.17,10.18-.91,2.06,1.13,7.56-2.76,8.26-.31-1.34-.69-5.09-1.67-5.45s-2.76,1.09-5.08,1.11c2.8-4.43,4.31-9.07,1.28-13.04,1.59-1.03,2.36-2.17,2.51-3.25.08-.58-.99-1.57-1.51-1.62Z"/>
      <path class="cls-55" d="M54.33,262.74l-.68,3.82c-8.04,5.41-12.57,5.53-13.58.34l2.08-6.27c1.07.59,4.95.34,4.93-1.15l-.07-4.75c-.01-.95,1.41-1.87,2.9-1.74,2.38,1.77,4.49,6.6,4.41,9.75Z"/>
      <path class="cls-6" d="M62.44,230.65c2.69.79,2.4,3.68-.52,4.08-1.4.76-3.54.68-6.42-.24l2.35,3.51c-2.33,7.12-3.71,13.68-1.7,21.09,1.66.65,1.41,1.03-.54,1.15-.23.92-1.13,1.7-1.27,2.5-2.78-2.01-3.91-6.66-4.41-9.75-.17-1.03.16-3.16-.71-4.47-.58-.86-1.82-1.56-3.29-1.49-1.75-.6-1.73-1.31-.01-2.13,1.72-2.29,2.18-6.03,1.38-11.22l2.22-1.04c2.46-4.02,5.19-6.71,8.19-8.05,2.89-.55,4.33,3.24,4.76,6.06Z"/>
      <path class="cls-97" d="M53.65,266.56l-2.48,10.25c-5.57.01-12.86-4.59-11.09-9.91.81.26,2.38,1.41,3.31,1.11,1.63-.53,3.13-2.43,3.26-6.02,2.91.88,4.73,3.07,7.01,4.57Z"/>
      <path class="cls-118" d="M68.34,264.43c-2.35,2.83-4.53,5.72-8.14,6.56-.29-3.96-2.65-6.86-4.59-10.75,3.51-4.3,10.6-.23,12.73,4.19Z"/>
      <path class="cls-14" d="M57.95,174.77c.73,1.3,2.79,2.94,1.85,4.6l-3.25,5.73c1.5,2.97,3.57,6.45,3.45,9.75,2.88-.02,2.8,1.03-.24,3.13,1.52,7.02,1.92,18.17.81,25.52-.07.49-1.32.81-2.89,1.08-.68,2.54-5.19,4.82-3.78,10.49l-4.4-2.44c-3.84-3.73.22-9.77,3.71-13.52,8.64-12.01,2.63-31.59-6.98-34.25,1.91-5.09,1.83-10.06,5.8-14.42l-1.24,11.49,7.17-7.17Z"/>
      <path class="cls-80" d="M67.72,242.83c2.6,3.32,7.74,7.02,9.09,11.3,1.79,5.66-6.21,7.57-8.48,10.3-4.86.75-8.36-1.78-12.73-4.19.33-.04.33-.81.54-1.15-1.38-4.55-2.09-19.29,2.52-20.31.71-.16,10.1,1.62,9.06,4.04Z"/>
      <path class="cls-25" d="M97.62,244.49c1.49,1.59,3.35,3.82,3.75,5.76.22,1.07-3.92,14.88-9.67,14.62l-.29-1.9c-2.22-1.09-3.27-2.9-3.16-5.43-4.01,1.39-4.4,3.16-1.16,5.32-.31,1.67-1.4,2.29-2.46,2.21-.83-.07-3.77-.21-4.64-.99.37-4.1.99-10.38,3.47-13.28,1.2-1.03,4.19-1.23,4.23-3.5l.08-5.43-1.07-.28.38-3.84c.96,2.18,1.73,2.69,1.73,2.72,3.51-2.19,6.37,1.43,8.81,4.04Z"/>
      <path class="cls-118" d="M66.16,238.52l1.44-.47.12,4.78c-1.3-1.66-5.59-1.98-7.43-1.03-6.05,3.13-1.34,13.33-4.15,17.29-4.4-3.92-2.66-7.02-2.43-12.3.2-4.75-1.65-8.39,1.79-12.3,3.31.49,6.86,1.83,10.66,4.03Z"/>
      <path class="cls-28" d="M91.42,262.96l-4.32-.11c-2.51.59-4.6.48-5.81-.95,1.85-3.57,2.37-6.59,4.43-7.77,1.48-.85,4.5-.88,6.52,1.19,1.43,1.47.02,5.4-.82,7.64Z"/>
      <path class="cls-110" d="M166.46,182.72l-5.02-1.88c-.44-.19-1.11-.15-1.62-.17l.05-8.11c3.29,2.65,6.56,5.96,6.59,10.15Z"/>
      <g>
        <path class="cls-1" d="M192.13,234.28c.1,2.79.27,6.21-.38,8.74-1.66,6.47-3.6,12.53-7.9,17.56-1.86,7.35-13.48,4.73-13.8-4.28-1.22-.14-1.93-1.34-2.15-3.6-2.28.96-2.74-.1-1.48-2.23-2.83-1.69-4.63-3.72-5.39-6.11,1.25-6.47,3.49-9.67,6.72-9.61,2.24,2.66,2.89,5.57,3.55,9.57.78,4.69,7.22,11.34,12.08,8.48s2.31-15.75,8.75-18.52Z"/>
        <path class="cls-136" d="M170.05,256.29c-.1,1.5-.46,3.48.25,5.14-2.91-2.21-2.89-5.8-2.4-8.74.92.79,2.25,2.13,2.15,3.6Z"/>
        <polygon class="cls-74" points="178.84 254.32 179.84 255.73 178.84 256.73 177.84 255.73 178.84 254.32"/>
      </g>
      <path class="cls-57" d="M109.44,157.18c2.14,3.62,4.06,4.38,5.77,2.29,2.92,1.31,5.11,3.16,6.57,5.55.27.54.3,1.2.2,1.75,1.39.86,2.27,1.53,2.64,2.01,10.17,5.91-.74,11.45-4.58,1.42-3.92,1.21-8.67.72-14.25-1.46,1.39,4.45-.47,7.84-5.58,10.16-4.49,3.46-5.96.92-2.64-3.7-2.31-2.63-2.22-4.12.28-4.46l-1.9-2.2c-.85,1.64-1.54,1.51-2.08-.31-.23-3.39-3.85-6.03-5.78-8.65,6.36-2.02,8.23-9.25,16.22-10.31,1.06,5.04,3.28,6.7,5.12,7.92Z"/>
      <path class="cls-115" d="M91.64,140.82l-9.75,25.63c-1.56,2.5-9.09,1.38-7.9-1.47,1.59-3.43,7.17-4.94,8.07-8.12-2.44-2.3-1.5-4.55,1.74-4.09-.1-.48-.71-2.41,2.26-2.79-1.77.74-2.64.49-2.99-1.31l.18-2.06c2.53-2.54,4.76-5.54,8.39-5.79Z"/>
      <path class="cls-29" d="M138.07,200.67c-1.77,3.19-3.96,2.51-6.56-2.04-3.33.18-3.8-1.48-1.58-3.98l-1.55-4.16c-1.59-5.44-.3-10.61,3.4-14.81-3.26-1.34-5.64-3.64-7.15-6.9-1.82,2.34-4.02.04-2.64-2.01,2.22.7,4.63.03,6.02-1.95l1.74-.12c17.73-1.83,30.64,16.08,7.71,19.44l-.35,6.07c2.62,4.02,2.94,7.51.96,10.47Z"/>
      <path class="cls-29" d="M121.78,165.01c-6.32,1.45-11.09-3.13-12.34-7.83.58-.7,3.26.08,2.8.58-.53.57-1.13,3.24,1.92,2.63-2.45-5.2-2.3-9.98,2.69-11.98,3.61-1.44,9.51-1.44,11,4.73,1.01,4.22-3.05,9.77-6.07,11.87Z"/>
      <path class="cls-127" d="M91.94,134.87l2.3-2.23c1.41-.33,3.05-.29,4.02,1.7l-6.32.54Z"/>
      <path class="cls-73" d="M86.06,149.98l-4.28.65c.45-.54,1.23-1.25,1.29-1.96,1.88-1.26-.81,2.91,2.99,1.31Z"/>
      <path class="cls-73" d="M81.78,150.63c-.23,1.36.76,2.39,2.02,2.13.32,1.49-1.43,2.99-1.74,4.09-1.4.3-2.41,1.02-3.64,1.96-1.15-4.17.17-8.19,3.36-8.19Z"/>
      <path class="cls-7" d="M63.82,172.76c-2.19-1.93-.39-4.94,1.97-5.96-.44,1.88.64,5.05-1.97,5.96Z"/>
      <path class="cls-132" d="M163.79,250.45l1.7,8.53-20.13-2.45c-5.43.57-5.66-.03-1.57-3.74l20-2.34Z"/>
      <path class="cls-15" d="M143.79,252.79l1.57,3.74c-1.02-.11-3.23.35-3.57,1.26l-1.89,5.09c-.65,1.76-3.28,0-3.52-1.28-.27-1.38-.09-3.03.54-4.54.42-2.14-1.74-4.48-3.67-6.73,4.92-2.8,7.31,2.85,10.54,2.47Z"/>
      <g>
        <path class="cls-38" d="M185.13,272.8c.11,1.11-.78,2.84-1.3,3.81-1.15,2.12-1.75,4.37-1.74,6.58-3.69,1.77-7.64,4.94-8.05,9.03l-1.22,2.27c-3-.1-5.32,2.87-6.97,8.91,4.17,5.46-4.07,11.19-9.48,7.65-2.03-.13-2.27-8.95-2.11-11.28.04-.53.67-1.02,1.48-1.5-1.04-2.58.11-4.95,3.46-7.11-3.86-.03-6.57-.09-7.28-4.64-11.41.1-4.21-14.04,3.97-3.67l5.07.36c-.66-4.77,9.33-8.36,14.56-8.12,1.96-4.27,6.21-6.71,9.61-2.29Z"/>
        <path class="cls-95" d="M174.03,292.22l-.05,2.91c-2.81,1.8-4.78,5.44-6.17,8.49l-1.97-.21c2.03-2.14-.1-5.91.07-8.19.37-5.03,5.64-4.38,8.12-3Z"/>
        <path class="cls-22" d="M155.73,298.28c-1.29.65-2.85.94-3.7,2.43-.55.64-2.57,1.71-2.77.86l-.88-3.76c-.78-3.35,3.15-5.48,4.21-8.18-.98-.76-.98-2.1-.67-3.1l15.92,1.37c-1.9,5.35-7.12,7.85-12.1,10.38Z"/>
        <polygon class="cls-22" points="158.84 298.24 159.84 299.72 158.84 300.72 157.84 299.72 158.84 298.24"/>
      </g>
      <g>
        <path class="cls-92" d="M101.6,300.67l-5.7-2.16c-1.28-.49-1.98-2.54-3.15-2.82-1.28-.31-4.13.06-5.06.76-5.59-.39-4.92-3.35.45-4.22-.76-5.27,8.35-8.53,13.07-5.03,3.16,2.34,6.96,15.26.38,13.47Z"/>
        <path class="cls-15" d="M134.12,255.45c1.82,1.87,1.82,6.32-.17,7.86,1.6,4.85-1.21,9.28-6.6,7.52-1.48-2.92-3.16-5.6-3.39-9.75-5.76,1.35-6.9,5.15-8.63,8.94-2.18,4.78-10,1.92-13.22,2.96-9.68,3.12,3.93,15.49,3.65,20.34-.23,4.02,2.55,6.03,5.68,8.81l-6.75,1.81c-1.38.37-2.55-2.08-3.08-3.27,1.74-3.15,2.84-9.51-.89-11.11-1.1.36-4.46,1.7-5.29,1.25-.77-.42-.95-1.99-.44-4.06-2.98,1.1-4.71,3.47-6.83,5.48-2.4,3.02-3.57,2.07-2.23-1.67-1.37-1.04-3.12-1.76-3.89-3.43-3.45-3.79-1.3-8.48,4.11-6.89l4.26-3.38c-.51-10.19,7.85-18.69,17.55-12.06-.63-4.06,1.95-9.82,5.66-11.93,4.17-6.02,20.29-7.26,20.5,2.59Z"/>
        <path class="cls-92" d="M117.6,246.68c-.14,2.49-1.46,4.55-3.98,6.19,1.39,3.28-.14,7.56-2.9,10.38.95,1.48,2.09,2.09,3.42,2.61-5.02,5.31-8.79,2.32-12.92-.02-3.44-1.95-7.22,2.88-8.22,5.33-1.72,4.24-.89,7.65,3.87,11.5-4.44,2.76-6.31,4.46-10.88,5.4l3.4-6.35c.44-.82-2.67-1.84-3.24-1.47l3.95-5.01c1.45-1.84-2.08-4.95-4.47-5.74,4.73-.27,4.85-3.6,6.08-4.62,3.76-6.37,5.73-13.16,5.91-20.38-2.68-2.85-3.41-5-2.18-6.46,3.52-6.72,7.99-5.61,13.41,3.31,9.99-.54,12.91,1.24,8.76,5.34Z"/>
        <polygon class="cls-92" points="116.85 260.73 117.85 261.73 116.85 263.06 115.85 261.73 116.85 260.73"/>
      </g>
      <path class="cls-103" d="M45.9,244.91v2.13c-1.55,1.9-2.35,4.05-2.32,7.44-1.7-.41-4.05-2-3.82-2.73l1.44-4.68c-2.94-5.79-7.78-10.36-5.76-16.39l1.59-.32c.56-5.43,8.18-3.88,3.5-.78l2.98-1.34,2.9.43c1.4,3.11,2.5,13.23-.53,16.24Z"/>
      <path class="cls-105" d="M49.49,232.64c-1.63,2.34,1.19,6.56.11,10.77-.3,1.18-2.03,2.09-3.7,1.49-.03-5.37-1.25-11.04.53-16.24.57-1.67.47-3.58-2.27-6.59,3.25-2.29,6.36-2.06,9.04-2.96,1.13.68,1.97,2.24,1.95,3.16-.03,1.64-1.92,2.72-3.72,4.23-1.41,1.18-1,4.78-1.95,6.14Z"/>
      <path class="cls-150" d="M43.53,228.24c.58.73.32,3.47-.59,3.29l-5.89-1.17.66-3.68-.24-2.68c.57-2.66,3.48-3.9,4.5-2.4,1.74,2.56,1.94,4.53,1.57,6.64Z"/>
      <path class="cls-103" d="M37.7,226.68c-1.76-.41-1.37-1.86-.24-2.68l.24,2.68Z"/>
      <path class="cls-67" d="M61.92,234.73c1.73.91,3.2,2.09,4.24,3.8-4.01,1.17-7.65-1.33-10.66-4.03.8-.91,1.23-2.49,3.04-1.54l3.39,1.78Z"/>
      <g>
        <path class="cls-113" d="M87.91,181.55l-4.01,8.88c-1.1.69-1.34,1.55-.38,2.49,1.8.47,1.68,1.01-.18,1.62l2.53,4.26c1.78.35,1.75.98.06,1.86-2.11,2.41-2.04,4.03.21,4.86,3.14,3.73,1.57,6.8-4.71,9.22,1.54,2.4,2.94,5.06,4.18,7.98,5.48,1.21,4.99,3.93-.44,4.88-2.51,1.32-5.48,2.84-7.43,5.32,1.25,2.43-.12,3.09-4.1,1.98-.79-1.89-1.11-4.38-2.71-5.51-2.38.71-5.58,1.42-4.85,3.76l1.52,4.89c.06,1.08-.46,1.18-1.44.47-3.08-.43-4.5-1.7-4.24-3.8-.16-1.29.11-2.84.52-4.08-3.15-4.3-2.71-12.49-.15-16.91,2.78-4.83,6.87-14.1-.83-15.8-.31,1.77-.88,1.75-1.7.06l.24-3.13c1.14-.15,1.97-1.1,1.98-2.29,3.01-3.45,5.59-7.55,7.74-12.3l6.68-1.97c2.38-5.2,6.22-4.11,11.51,3.26Z"/>
        <g>
          <path class="cls-94" d="M77.75,232.93c1.89.87,3.69,4.25,1.84,8.47-2.23-3.32-3.31-4.97-5.94-6.49-.02.01-.17-3.19.69-3.96.45-.41,1.63.64,2.38,2.59.14.37.99.76,1.03-.61Z"/>
          <path class="cls-7" d="M85.82,170.7c1.95,3.8,2.65,7.42,2.1,10.85-3.43-2.37-4.65-4.58-7.79-3.57.07,5.22-2.48,9.56-6.12,9.55,3.95-3.02,4.83-5.13-.31-5.82-3.76,3.39-4.41,7.76-4.06,13.12-3.34.14-5.52-1.03-7.64-2.27-2.03-5.79-.62-12.08,1.75-17.62,6.71,3.69,13.5-.35,17.86-5.95l4.22,1.71Z"/>
          <path class="cls-147" d="M62.29,213.73c-.25,5.78,1.94,11.54.15,16.91-3.19-.66-4.95-3.12-4.76-6.06,2.23-8.34,1.43-18.12,2.08-26.6l1.7-.06c6.87.62,4.76,11.92.83,15.8Z"/>
          <path class="cls-51" d="M85.93,200.67c4.31,3.03,4.36,8.25,1.32,12.43,1.28,4.16-3.07,3.63-5.81,1.64,1.1-1.54,2.17-2.52,5.53-4.92l-13.31-6.07c3.99-4.64,8.35-3.31,12.27-3.09Z"/>
          <path class="cls-7" d="M62.29,213.73c.22-5.18.71-10.71-.83-15.8.97-1.78,2.86-2.64,5.17-1.62,3.81,1.69,3.64,15.71-4.34,17.42Z"/>
          <path class="cls-67" d="M87.23,218.24l-1.62,4.5c-2.69-.88-5.12-.87-7.76-.78l3.58-7.2c3.9.2,5.83,1.36,5.8,3.49Z"/>
          <circle class="cls-67" cx="75.85" cy="226.73" r="2.23"/>
        </g>
      </g>
      <path class="cls-134" d="M108.67,210.81c-2.71,3.92-2.26,7.92,1.21,3.78-1.2-5.69,5.73-8.34,9.42-4.12l4.45-1.28c6.2-4.48,11.29,6.7,4.19,9.8-.53,2.62-10.81,18.3-11.75,18.95-1.41.97-8.2-.32-10.08-1.46l-3.27-7.79c-10.73,7.59-4.39-7.55-15.6-10.45-1.84-.48-5.09-.34-5.8-3.49,2.17-.39,4.14-.83,5.81-1.64,4.68-2.28,11.9.45,8.94-3.27-.52-.65-1.8-1.3-4.05-2.11,1.81-1.51,3.95-2.29,6.17-2.98l3.06,1.31c1.48-13.54,18.71.52,7.29,4.75Z"/>
      <g>
        <path class="cls-120" d="M159.82,180.68c.22-1.83.77-1.68,1.62.17,2.32,7.14,4.07,15.41,8.35,21.58l-1.66,24.36c-.16,3.36,2.24,5.8-.4,7.97l-3.14.61c-1.4,8.57-4.72,12.25-9.94,11.02l-.56,1.58c-1.21,3.51-6.59,3.78-9.96,2.68-2.72-.22-5.84-1.13-9.37-2.73-2.81-7.45-5.49-9.81-8.03-7.06.11,6.73-4.51,11.53-9.14,5.84-1.64-5.32-8.75-2.89-13.88-1.78-1.22-1.63.56-4.25,1.14-5.01s-1.3-3.42-3.69-2.77c-1.99.61-3.02,5.1-3.56,7.37-4.2,2.88-6.67-.43-8.81-4.04l-1.03,1.41c8.08.41,3.58,13.58-4.31,8.93-.79-3.18,2.34-7.97-.77-11.71-.02-1.73,4.12-2.68,4.58-4.13.71-2.24-1.1-5.67-2.09-7.33l.44-4.88c-4.74-1.71-3.14-5,1.62-4.5,4.75-6.67,10.17,2.27,11.77,7.86,6.99-1.88,12.86,5.67,7.11,10.38,7.1,3.39,11.66,1.6,13.68-5.38,3.68-6.02,7.05-8.14,10.12-6.35l2.09,1.87c5.52,6.24,9.93,8.64,13.23,7.19l3.62,3.08.42-1.17c-4.91-.37-5.95-2.78-4.27-7.15l-1.32,1.29c7.15,7.21-4.25,7.7-8-.84l-3.68-2.4-2.09-1.87c-7.72-2.86,9.52-10.64,11.8-5.74,4.4-1.44,9.22-1.8,14.47-1.08.42,7.14,8.16-2.06,4.25-8.27-4.85-2.92-6.12-6.27-3.82-10.06-4.11-8.9-8.92-19.57-8.72-29.27.03-1.5,2.79-2.51,4.67-3.15,2.28,6.69,1.97,10.31,7.28,13.51Z"/>
        <path class="cls-136" d="M167.74,234.75c-2.29,2.52-2.91,8.48-2.69,11.61,1.57-.18,4.34.74,4.77,1.27.34.42-1.16,1.46-1.71,1.8l-1.7,1.03h-2.62s-1.72,4.2-1.72,4.2c-7.14.84-13.24.22-18.28-1.87-1.67-.85-1.5-1.57.35-2.16,3.3-.83,6.75-.93,9.96-2.68l-2.69-2.04c1.42,1.93,3.16.17,1.62-1.13l1.63,1.6,7.35-9.73c0-1.3-.94-4.5.76-6.2.82-.82,3.19-.01,4.02,2l.95,2.31Z"/>
        <path class="cls-45" d="M144.15,250.63c-.1.6-.27,1.46-.35,2.16-.73,2.35-3.02,3.77-6.87,4.26-.97-.24-2.05-.94-2.79-1.6-4.98-4.4-13.78-2.97-20.5-2.59-.67-1.57-1.41-2.38-.33-3.74,1.36-1.73,2.81-2.12,4.31-2.44,1.73-.37,3.47-.81,5.36-2.32-1.71-4.7,1.47-8.14,5.79-8.78,6.92-1.04,7.35,13.26,15.4,15.06Z"/>
        <path class="cls-79" d="M131.5,198.63c2.37.37,4.57,1.06,6.56,2.04l4.04,6.48c.45,2.93.57,5.77.36,8.52l-.77,3.33c-6.67,3.05-12.32.18-11.8,5.74-7.39,3.68-8.53,14.37-15.27,15.53-2.98.51-7.34-.96-8.53-3.79,2.89-.91,5.88-1.51,9.07.17-.64-6.11,3.06-9.14,7.3-11.03.24-1.81.21-4.05,1.05-4.72,1.01-.81,3.31-1.93,4.41-1.9,4.03-6.48,2.72-12.59-1.77-19.12.15-4.76,1.98-4.56,5.33-1.25Z"/>
        <path class="cls-79" d="M132,226.61c-1.11.79-2.81-.54-2.09-1.87,1.19-.43,2.35.39,2.09,1.87Z"/>
        <path class="cls-79" d="M132,226.61c1.29-.91,3.47-2.08,4.74-1.63,1.89.67,3.07,2.78,4.07,5.3-.25,2.72,4.03,3.54,2.86-.43l-1.59-.88c-.52-1.48,1.99-1.36,1.27-2.55l1.65,2.14c2.83,1.13,3.99,4.21,4.27,7.15l3.53,2.09c-2.69-2.81-5.24-1.45-1.89,2.01l-2.05-2.93c-2.4.93-5.22,1.07-7.31,2.84l3.51,2.64c1.29.97.22,2.19-.44,2.43-7.41,2.68-1.86-12.19-14.6-12.93,1.4-1.51,1.91-3.35,2-5.24Z"/>
      </g>
      <path class="cls-12" d="M97.85,170.73c-.76-.62-1.39-1.36-1.9-2.2.98.37,1.67,1.18,1.9,2.2Z"/>
      <g>
        <path class="cls-119" d="M97.57,175.19c.28,1.52,1.82,2.79,2.64,3.7.55,2.15,1.33,4.06,2.34,5.73,3.81.73,3.39,2.2-.63,2.18-2.68,3.38-3.82,7.83-3.43,13.34,5.58.53,5.17,3.32-.17,4.61l-.82,4.23c6.14,5.88-6.89,10.77-10.25,4.13-2.08-3.78-2.52-7.93-1.32-12.43l-.06-1.86-2.53-4.26c.16-.37.2-1.16.18-1.62-.94-.88-.71-1.81.38-2.49,4.62-3.18,4.2-10.07,3.76-14.75l2.57-1.43,3.96-.8c1.08-4.12,2.84-2.13,3.38,1.75Z"/>
        <g>
          <path class="cls-10" d="M90.23,174.24l.96,13.46c.15,2.05-2.74,4.04-4.16,4.2-.95.11-2.33-.76-3.13-1.48-1.3-.55-3.91-5.42-1.98-7.03,1.13-.94,2.26-2.41,6-1.85-3.28-3.66-3.34-6.58-7-8.01l4.91-2.84,4.42,3.54Z"/>
          <path class="cls-4" d="M97.85,170.73l-.28,4.46c-.18-.99-2.39-1.94-3.38-1.75l-.31-5.23,2.08.31,1.9,2.2Z"/>
          <path class="cls-51" d="M85.87,198.81c-.64-.14-2.27-1.07-2.97-1.89-.48-.57-.42-1.6.44-2.38,1.79.68,2.47,2.42,2.53,4.26Z"/>
          <path class="cls-51" d="M83.52,192.92c-2.17-.31-1.68-2.76.38-2.49l-.38,2.49Z"/>
          <path class="cls-40" d="M101.92,186.8l.43,10.27c.07,1.58-.58,2.66-1.27,2.96s-1.76.3-2.59.11c-3.45-3.99-4.56-10.15-4.15-15.14,3.51,1.77,5.59,1.92,7.58,1.8Z"/>
          <polygon class="cls-57" points="94.85 174.73 96.05 175.73 94.85 176.73 93.85 175.73 94.85 174.73"/>
        </g>
      </g>
      <path class="cls-79" d="M129.92,194.65c-2.14-.35-1.97-2.52-1.55-4.16.95,1.05,1.08,3.13,1.55,4.16Z"/>
      <g>
        <path class="cls-2" d="M140.89,164.69l2.97.14c-.16-1.64,1.32-2.48,4.44-2.5,1.53,1.13,3.4,2.38,4.24,4.84-2.95,7.94,3.58,21.96,8.73,32.97-.8,1.23-2.24,2.87-2.41,3.75-.18.94,11.55,5.61-.14,24.14-2.34-1.5-3.78-1.75-6.33-1.7,2.52-2.97.83-8.49-2.79-8.38l-3.76,3.59c-.66.63-3.22-2.18-4.15-2.55-5.12-.91-4.44-2.95.77-3.33,2.06-2.06,2.21-1.03,1.83,1.8,2.55-3.26,3.32-5.68,1.2-9.09-1.08.06-2.21-.35-3.38-1.24-5.33,3.01-7.4-2.27-4.04-6.48-3.77-6.05-7.64-11.26-3.12-19.31,3.45-1.22,8.1-1.4,11.67-4.2-4.7-13.04-10.83-8.56-16.87-12.46,3.36-1.95,7.39-.18,11.15,0Z"/>
        <g>
          <path class="cls-38" d="M148.3,162.33c-.21,2.49-2.58,2.59-4.44,2.5l-.74-3.08c-.19-.78,1.86-1.59,2.61-.18.28.53,1.08,1.3,2.58.76Z"/>
          <path class="cls-130" d="M144.29,217.48c-3.17-4.65-2.77-7.68,1.2-9.09,2.14.24,3.82,2.51,5.3,3.74,1.06-.95,3.11-3.32,4.23-3.36,2.01-.08,6.43,6.11,6.47,5.02-.15,4.17-8.7.17-17.19,3.69Z"/>
          <path class="cls-120" d="M145.49,208.39c.26,2.7-.05,5.47-1.2,9.09-.27-1.67-1.39-1.71-1.83-1.8-1.14-1.48-4.81-3.18-3.46-5.22.87-1.32-.47-4.34,3.1-3.3.22-.2,1.95-2,2.74-1.97s.65,3.05.64,3.21Z"/>
          <path class="cls-36" d="M149.79,190.76c-1.91,2.89-2.04,4.47-2.89,7.12-.56,1.75-6.08.26-5.94-1.22l.64-7.05c2.33-1.43,2.34.98,2.95,1.41,1.18.83,3.37.16,5.23-.26Z"/>
          <path class="cls-29" d="M144.63,180.91c.23-1.49,2.98-.59,3.19.75.12.75.09,2.36-.73,2.86-.66.4-2.86-1.07-2.46-3.6Z"/>
          <polygon class="cls-138" points="148.85 164.52 149.84 165.73 148.85 166.73 147.85 165.73 148.85 164.52"/>
        </g>
      </g>
      <g>
        <path class="cls-132" d="M164.07,276.77c-.99-1.01-1.71-.93-2.17.23-.39.23-.81.88-1.61,1.08-.68.17-1.78.07-2.28-.74-.78-2.56-2.27-2.9-3.31-3.1-1.62-.32-2.49-4.76-.58-5.12,5.9-1.11,10.27-2.95,11.46-8.31,2.39,2.74-1.33,7.3-.92,9.88,1.13,3.22,1.4,5.87-.61,6.08Z"/>
        <path class="cls-41" d="M164.07,276.77l-2.17.23c-.7-2.35,2.16-2.94,2.17-.23Z"/>
        <path class="cls-41" d="M157.17,272.88c-1.85-.88-.72-2.96,1.35-2.31.67,1.15-.16,1.91-1.35,2.31Z"/>
        <path class="cls-22" d="M157.17,272.88l1.35-2.31c1.85.88.72,2.96-1.35,2.31Z"/>
      </g>
      <path class="cls-68" d="M108.67,210.81c-.27,1.04.73,2.83,1.21,3.78.12,1.17.04,2.25-.13,3.07-.29,1.45-1.96,1.72-2.83,1.11-.62-.43-1.45-1.93-1.98-2.83-3.28-.83-2.64-2.35-2.09-3.39,1.38-2.62,3.59-3.28,5.81-1.75Z"/>
      <g>
        <path class="cls-60" d="M120.04,170.19c.43,3.44,3.27,4.87,6.58,2.86,3.23,6.05,3.24,12.87.02,20.45,2.13,4.76,5.11,14.03-2.89,15.69-.25,2.63-1.87,4.88-3.65,7.93-.93,1.6-2.82,1-3.46-.34-.56-1.16-.38-2.42.82-5.32l-7.58,3.12c-3.99,1.91-5.14-1.39-1.21-3.78.96-3.01-.31-6.9-4.93-7.76.6,1.54,2.09,3.77,1.73,4.81-.48,1.37-3.68,1.1-4.77,1.05-1.73-.09-3.54-1.43-2.38-4.15l.17-4.61c-.84-6.89.3-11.34,3.43-13.34,2.84-.68,5.46.58,7.87,3.79,10.88-3.71.76-17.15-3.07-7.96l-4.17,1.99c-.88.2-3.04.08-3.76-1s1.24-3.69,1.42-4.73l2.48-5.48-2.6-6.51c5.4-4.79,14.79-.72,19.96,3.28Z"/>
        <path class="cls-48" d="M128.37,190.49l1.55,4.16c1.16.8,2.39,2.42,1.58,3.98-.87.2-2.69.28-2.68,1.91,2.94.34,4.4,2.11,4.83,3.29.36.99.17,2.89-.95,4.85l4.51,5.41c-4.2,3.05-6.37,4.97-9.28,4.9.28-3.86-.96-7.71-4.19-9.8.21-2.71.82-5.16,2.63-8.68-5.12-.52-7.4.96-10.31,1.49-.38-3.51.3-5.33,1.56-6.38,1.13-.94,3.57.27,4.84,3.13.69.66,3.73-2.26,3.24-2.96l-2.84-4.04c-.53-.76,3.42-2.3,4.08-3.24.83-1.19-1.78-3.36-1.72-5.08l.2-5.64c.07-1.97-6.72-3.79-6.16-5.99.19-.76.42-1.13.78-1.61,1.3,1.07,2.46,4.15,6.9,1.84-1.66-.51-2.46-1.74-2.32-3.26,4.11.62,8.25,2.2,12.98,5.7-4.61,6.29-7.82,10.4-9.24,16.02Z"/>
        <path class="cls-32" d="M101.92,186.8l.63-2.18c.32-2.61,0-5.7,1.49-7.06,2.59-2.38,13.12-2.71,12.88-.9l-.66,4.96c-.09.69,3.82-.97,4.65-.61.59.25-3.67,13.93-11.53,13.51-3.51-.19-5.31-4.2-7.46-7.72Z"/>
        <polygon class="cls-134" points="104.85 198.73 105.85 199.73 104.85 201.41 103.85 199.73 104.85 198.73"/>
      </g>
    </g>
  </g>
</svg>