<svg xmlns="http://www.w3.org/2000/svg" id="Layer_1" data-name="Layer 1" viewBox="0 0 100 100"><defs><style>.cls-3{fill:#706c69}.cls-6{fill:#87827f}.cls-7{fill:#6c6966}.cls-9{fill:#544f4e}.cls-11{fill:#4a4644}.cls-12{fill:#888481}.cls-15{fill:#6a6663}.cls-16{fill:#63605f}.cls-17{fill:#575454}.cls-20{fill:#383433}.cls-21{fill:#5a5553}.cls-22{fill:#7a7674}.cls-24{fill:#625d5c}.cls-29{fill:#898683}.cls-38{fill:#706c6a}.cls-41{fill:#5f5b58}.cls-43{fill:#42423f}.cls-44{fill:#5c5856}.cls-50{fill:#615f5e}.cls-51{fill:#827f7c}.cls-57{fill:#989491}.cls-62{fill:#696564}.cls-66{fill:#403d3c}.cls-67{fill:#807c79}.cls-70{fill:#595452}.cls-71{fill:#4d4947}.cls-72{fill:#888482}.cls-73{fill:#6e6967}.cls-74{fill:#85817e}.cls-77{fill:#4b4746}.cls-79{fill:#8f8b89}.cls-82{fill:#4f4b4b}.cls-84{fill:#514f4f}.cls-85{fill:#7d7978}.cls-86{fill:#5f5a58}.cls-88{fill:#676360}.cls-91{fill:#676463}.cls-92{fill:#787472}.cls-100{fill:#706e6c}.cls-102{fill:#474645}.cls-103{fill:#aea9a6}.cls-107{fill:#5b5858}.cls-108{fill:#666261}.cls-109{fill:#5b5755}.cls-110{fill:#c1bdbb}.cls-118{fill:#736d6b}.cls-120{fill:#878381}.cls-123{fill:#65615f}.cls-125{fill:#43403f}.cls-126{fill:#6e6c6c}.cls-127{fill:#5c5958}.cls-132{fill:#716d6a}.cls-134{fill:#9b9794}.cls-136{fill:#7f7b78}.cls-138{fill:#94908e}.cls-142{fill:#3b3938}.cls-147{fill:#837f7c}</style></defs><g id="Layer_1-2" data-name="Layer 1-2"><path d="M24.73 48.07q.39.3 0 .6c.5.06.49.21 0 .44l-.57 1.27c.54.66.11.91-.6 1.09.44 1.34-.7 4.1-1.7 5.11-.03.58-.21.96-.54 1.17.78.53.29 3-.79 3.12-.03 2.13.03 4.21.17 6.24l-.72.35.21 5.1c.96-.11.69 1.25 0 1.7.39.17.38.36 0 .57l.64 1.15c.47.22.44.41-.07.57l.54 1.82c.51-.02.49.12.01.39l.58 1.21.6.59c.43.28.36.43-.18.48.85.79 1.65 1.64 2.39 2.54l-.54 1.5c2.58 1.95 1.78 4.7-.63.97l-2.83-5.99-.57-1.21c-.13-.26-.11-.7-.05-1l-.49-1.28-1-5.75c-.51-8.36 1.89-16.17 5.55-23.33.9-.81 1.24-.47.6.59Z" class="cls-142"/><path d="M53.18 5.92c4.04 10.46 9.52 20.19 15.56 29.63.07 1.31-.45.92-1.22.05-.79.48-2.9-2.89-2.32-3.62q-1.8-.825-2.28-3.45c-1.05.17-1.34-.71-1.07-1.59-1.2-1.46-7.21-11.49-6.83-12.4.11-.25.3-.47.52-.68l-.5-.7c-.48-.07-.47-.23-.02-.48-.7.24-1.26-.39-1.69-1.88-1.38-1.01-1.6-1.89-.68-2.64-1.16-.21-1.52-1.62-.54-2.28.17-.49.35-.48.55.01.15-.28.32-.26.53.01Z" style="fill:#3d3c3b"/><path d="M50.91.81c.48 2 .69 4.02.64 6.05.38.34.75.78 1.09 1.32l2.37 4.52c.19 1.27-.22 1.8-1.52 1.34-.12.5-.24.44-.37-.09-1.16-.65-1.09-1.56.1-2.12-.58-.39-1.34-.56-2.28-.52l-.68-1.14c-1.11.59-.52-1.62-.51-1.51.09.73-.06 2.35-.72 2.79.71 1.25-.06 1.21-1.3.62-1.04.39-.95-.41-.21-1.03l.52-.58c.03-1.32-.15-2.26-.53-2.84l-.66-.25c.79-1.47 1.19-2.91 1.19-4.31.67-1.47 1.12-3.77 2.51-2.85.19.13.27.26.33.6Z" class="cls-50"/><path d="M47.53 7.62c.5.15.5.35.02.59l-2.06 4.77c.26.19.32.71.13 1.55-.66-.2-1.25.19-1.66 1.14 1.7.83.15 1.76-1.01 2.06.44.21.4.39-.08.54l-.55.73c.56.43.04 1.79-.29 2.5-.54 1.17-1.91 3.91-3.04 3.71-.68.87-1.05.62-.75-.47l9.83-21.68c.39-.04.75.47.57 1.06z" style="fill:#3c3b39"/><path d="M77.94 83.43c-3.46 7.17-9.39 11.82-16.7 14.83l-.17-1.38c-.03-.52.19-.66.65-.41l1.32-.44c-.64-.98 1.91-1.9 2.57-1.13.94-.55 1.36-1.21 1.27-1.97.7-.86 4.01-3.51 5.1-3.17 1.21-2.34 2.59-4.59 4.13-6.73l.97-.2c.93-1.21 1.32-.84.86.6" class="cls-20"/><path d="m80.57 61.75.59 1.7v2.85c.44 1.09.44 2.33 0 3.42v3.42l-.5 1.79c-.12 3.09-1.43 5.87-2.7 8.5l-.86-.6c-.2-.25-.37-.5-.46-.78-.11-.37 1.94-6.48 2.28-7.27.09-.21.4-.33.78-.42-.89-4.35-.37-8.51.33-12.63-.51-.86-.48-1.66.57-1.11.06.32.02.8-.02 1.12Z" style="fill:#494745"/><path d="M80.59 60.63c-.52.21-.56.65-.57 1.11-.14.5-.33.5-.57.02-.96-.36-1.35-1.86-.38-2.41l-.79-.32a498 498 0 0 0-5.08-13.8c-.49-.15-.46-.3.05-.46-.54-1.01-.74-1.69.48-1.25 3.18 5.28 5.76 11.04 6.87 17.12Z" style="fill:#494746"/><path d="M36.14 29.95c.51 0 .49.13 0 .39l-.6.66c1.26.45.62 1.93-.71 1.68.2.2.38.4.48.64.17.43-4.08 7.53-5.53 6.71.21.5.06.97-.15 1.43-.72 1.57-2.31 4.7-3.67 4.93l-.63-1.25 9.06-14.16.56-.68v-.5c1.19-1.38 2.4-1.76 1.19.13Z" class="cls-142"/><path d="M41.34 97.68c.42-1.59 3.37-1.2 3.39.54 0-.5.17-.47.46 0l1.21.62c.01-.63.76-.51 1.14-.05.5.16.49.35 0 .56.5.16.49.35 0 .57h-1.13c-.73-.38-1.56-.46-2.38-.38-4.57-.55-8.83-2.5-12.46-5.24-.64-.92-.32-1.26.64-.67q4.515 1.56 9.15 4.05Z" style="fill:#353331"/><path d="M61.24 98.27c-.19-.1-.45-.04-.61-.05l-1.14.57h-.58l-1.67.6c-3.19.93-6.44.53-9.72.54v-.57q1.08-.285 2.28-.57c.12-.52.84-.45 1.14 0 1.17-.51 3.32-.45 4.56 0l1.14-.58c.16-.5.35-.5.58 0l1.7-.56c.16-.5.35-.5.58 0l1.17-.66c-.1-.48.05-.5.42-.11.19 0 .94.09 1.13.49.11.23-.59.26-.97.89Z" style="fill:#312f2d"/><path d="M25.78 86.06c.52.28.53.52-.01.69a28.7 28.7 0 0 0 6.38 6.15l.04.73-.64.67c-3.07-2.31-6.37-4.73-8.03-8.26.57.39 1.06.87 1.68 1.5.24-1.46-.77-1.76-1.05-2.47.94-1.59 1.88-.7 1.63.98Z" style="fill:#3d3a39"/><path d="m52.63 4.75-.52 1.14c.48.6.32 1.7.54 2.28-.51.13-1.05.11-1.32-.07-.35-.25-.68-.82-.67-1.4l.25-5.89 1.72 3.95Z" class="cls-84"/><path d="m68.74 35.55 3.27 5.12c.3.92.12 1.32-.54 1.22-.92.97-2.56-1.99-2.09-3.02-.88.55-2.49-2.46-1.86-3.28.35.11.75.24 1.22-.05" style="fill:#535250"/><path d="M73.72 43.52c-.38.36-.44.82-.48 1.25-1.33.57-2.67-1.82-1.77-2.88-.02-.46.1-.92.54-1.22l1.72 2.84Z" style="fill:#4a4846"/><path d="M37.89 27.12c.5.09.5.25.01.47l-.62.54c.5.16.49.35 0 .57l-.57.57c.78.79.48 1.12-.56.68.2-.48-.28-.81-.6-.48-.17.18-.41.28-.59.36l1.18-1.69.55-.57.02-.58c1.14-1.37 2.3-1.65 1.18.14Z" class="cls-43"/><path d="M38.99 25.2c1.27.27.02 2.89-1.1 1.91.19-.43-.28-.83-.62-.5-.16.16-.37.27-.56.36l1.53-2.25.75.47Z" class="cls-102"/><path d="M25.96 46.4c.75.75.39 1.63-.66 1.67-.17.24-.36.24-.56 0-.08-.28-.34-.51-.6-.59.32-.63.63-1.23 1.18-1.69.24-.14.46.06.65.61Z" style="fill:#403e3d"/><path d="M46.4 99.92c-.89 0-1.66-.3-2.38-.38.79-.3 1.9-.37 2.38.38" class="cls-77"/><path d="M58.92 98.79c-.27.8-1.2.46-1.67.59.28-.66 1.05-.58 1.67-.59" class="cls-20"/><path d="M52.66 5.34v.57h-.55c-.22-.28.1-1.19.52-1.15.07.16.03.41.03.58" style="fill:#373535"/><path d="M20.07 77.84c-.29-.38-.41-.82-.49-1.28.57.18.57.8.49 1.28m.63 2.21-.57-1.21c.5.16.7.68.57 1.21" class="cls-66"/><path d="M60.64 98.21c-.18.46-.67.56-1.14.57.18-.47.66-.6 1.14-.57" class="cls-20"/><path d="M25.96 46.4c-.43.05-.73-.22-.65-.61l.02-.64c.28-.05.69.14.66.37z" style="fill:#272623"/><path d="M53.18 5.92h-.53v-.58c.24.13.43.33.53.58" class="cls-84"/><path d="m36.14 28.13.55-.57c0 .2-.34.47-.55.57" class="cls-102"/><path d="m34.38 30.99.56-.68c-.13.26-.31.5-.56.68" class="cls-43"/><path d="M28.12 80.68c1.88.21 3.43 2.06 1.5 3.2-.71 1.35-1.13 1.11-1.45-.34-.63-.59-1.47-.64-1.76.09.88 1.23.9 1.98-.63 2.43-.4-.54-1-.88-1.63-.98-.56-1.42-1.64-2.49-1.85-4.03l.73-.3c-.88-2.42-1.82-5.2-.36-7.6.07-.12.4-.08.8 0l.71-.61c-1.34.46-1.62-.44-.69-1.34q-.33-1.935 1.38-.69c.96 2.21 1.57 4.61 1.82 7.21.45 1.17.93 2.16 1.43 2.96" class="cls-71"/><path d="M22.52 66.58c.59 1.29 1.81 4.42-.17 4.74 1.49.39-.18 5.06-1.52 4.67-.48-.3-.57-.89-.07-1.14-.36-.16-.35-.34 0-.56-.12-.13-.21-.26-.21-.38.05-1.46.18-3.45.39-4.88.03-.19-.01 3.73-.74 3.54-1.15-2.32-.66-8.47.33-11.7l1.46-.25c.07-.91.17-2.04 1.07-2.29.82.19 1.02.91.58 2.17.87 1.04.81 2.4-.19 4.07.23 1.06.32 1.62-.93 2.01" class="cls-108"/><path d="M26.43 49.24c-.55.87-1.1 1.61-1.65 2.23-.57.96-.91 1.19-1.22.01.16-.37.34-.81.6-1.09l.57-1.27v-.44l.57-.61c.1-.63.34-1.14.66-1.67l3.81-6.36c2.22-.78 1.33 1.13.51 2.51-1.37 2.24-2.66 4.47-3.85 6.69" style="fill:#807e7d"/><path d="m23.5 71.2.69 1.34-.71.61c-1.53 1.38-.54 3.73-.18 5.59.19.97.02 1.75.91 2.47-.02.47-.9 1.15-1.09.8-.25-.46-.51-.72-.81-.96l.18-.48-.6-.59-.58-1.21v-.39l-.56-1.82.07-.57c.98-.99 1.47-3.21 1.52-4.67.18-1.5.44-1.41 1.15-.13" class="cls-109"/><path d="M20.74 74.29c-.17.36-.36.35-.56-.02v-1.7l.25-5.44c1.89.98.81 2.33.8 3.27-.02 1.52.56 2.86-.49 3.89" style="fill:#716d6c"/><path d="M24.78 51.46c.38 1.74-.99 4.96-2.33 6.28-.15.42-.34.41-.55.01q-.51-.135-.03-1.17c.25-1.67 1.02-3.53 1.7-5.11h1.22v-.01Z" style="fill:#858483"/><path d="M22.44 57.75c0 .86-.15 1.82-.46 2.88-.26 1.34-.23 2.72-.98 4.06l-.48-3.82c.32-1.04.86-2.01.79-3.12.17-.45.36-.44.57 0h.55Z" style="fill:#858383"/><path d="M21.3 78.38c-.59-.38-.54-1.15-.54-1.82.64.32.52 1.17.54 1.82m-.47-2.39c-.39.28-1.02-.76-.64-1.15.17-.37.36-.36.56 0l.07 1.14Zm1.06 3.99c-.36-.33-.56-.71-.58-1.21.35.31.54.74.58 1.21" class="cls-66"/><path d="M24.16 50.39c-.04-.51.15-.99.57-1.27 0 .52-.22.91-.57 1.27m-2.27 7.37h-.57c-.03-.42.42-.86.54-1.17zm2.84-9.08c0-.18.05-.43 0-.6h.56c-.04.23-.36.5-.56.6" class="cls-126"/><path d="M20.75 74.85h-.56c.1-.11 0-.43 0-.57l.56.02v.56Z" class="cls-109"/><path d="m22.48 80.57-.6-.59z" class="cls-71"/><path d="M55.02 12.69c.08.11.02.36.02.48l.5.7 6.31 13.07-.42.68c-.44-.73-.92-.87-1.44-.4l-3.2-7.45c.05 1.1.02 1.3-.71.4-.61-.11-.84-.66-.57-1.21-.5-.1-.49-.26 0-.49l-.55-.54c-1.52-.18-2.23-2.63-1.47-3.89.39-.66.73-1.37 1.52-1.34Z" style="fill:#686565"/><path d="M61.85 26.94c.88.13.79 1.17 1.07 1.59.71 1.37 1.08 2.58 1.09 3.63.53-.02.6.17.23.57-1.23.14-2.38-.64-3.44-2.34l-.81.22c-.84.26-1.02-.09-.48-.77-.86-1.34-1.5-2.98-1.93-4.91-.9-1.66-1.39-3.17-1.45-4.53l.68-.62 3.44 5.97c.41.71 1.04 1.12 1.61 1.21Z" class="cls-107"/><path d="m65.2 31.98 2.32 3.62 1.86 3.28c.63.9.33 1.21-.74 1.29-1.41 1.06-3.66-3.03-2.35-4.13-1.53.5-2.16-1.49-2.25-2.74q-.555-.465.18-.57l-.23-.57c-.29-1.43.3-1.01 1.2-.18Z" style="fill:#6c6968"/><path d="m65.2 31.98-1.2.18c-.47-1.17-1.35-2.21-1.09-3.63l2.28 3.45Z" class="cls-16"/><path d="M55.54 13.87c-.27-.09-.49-.43-.5-.7.17.21.38.46.5.7" class="cls-50"/><path d="m53.13 13.94.37.09c.6 1.28 1.43 2.46 1.47 3.89l.55.54v.49l.57 1.21c.12 0 .53.21.71-.4.47 3.64 2.19 6.23 2.71 10.07.58 1.05.35 1.27-.7.64.03.51-.11.5-.4.03-.89.16-.92-.27-.07-.7-.34-1.76-1.04-2.93-2.09-3.51.41-1.39-.38-2.03-1.79-1.6-1.1.6-1.42-.28-.94-2.65-.85-.53-.94-.98-.27-1.34-.3-.15-.3-.33-.04-.55-.4-.29-.33-.48.16-.58-1.22-.3-1.8-1.01-.62-1.85-.48.17-.49.05-.09-.33-.85-.65-1.01-1.28-.47-1.9-3.47-.55.25-5.19.94-1.56Z" class="cls-85"/><path d="M47.54 11.04c-.06-.29.25-.59.52-.58-.03.26-.29.5-.52.58" class="cls-91"/><path d="M42.99 20.5c1.6.02 1.54.85.06 1.36-.18 1.36-.67 2.8-1.46 4.31-.92-.18-1.6.5-2.05 2.06.95 1.34-1.24 4.75-2.78 4.81-.3.39-.51.4-.68-.06-.2 1.61-1.54 1.5-1.24-.29l.71-1.68.6-.66v-.39l.56-.68.57-.57v-.57l.62-.54v-.47c.9-.26.81-1.4 1.09-1.91l3.33-6.21.55-.73c-.01-.15.01-.42.08-.54 1.78-2.2 1.21 1.38.04 2.77Z" style="fill:#777473"/><path d="m42.32 18.99.55-.73c.04.36-.18.7-.55.73" class="cls-100"/><path d="M79.69 74.37c-.08 2.91-1.24 5.85-2.61 8.46-1.31 2.51-3.07 4.93-5.1 6.93-1.54-.03-1.36-.9.54-2.62l1.23-2.04c-.26-.18-.23-.36.07-.53-.42-.14-.42-.33-.05-.58.75-1.72 1.58-3.46 2.5-5.24-.79-.9.01-3.65 1.55-3.41-1.06-1.09-.37-2.52 1.01-2.77.64 0 .93.61.87 1.8Z" style="fill:#767372"/><path d="M71.98 89.77c-1.53 2.07-3.99 4.09-6.37 5.14-1.26-.22.52-1.55 1.24-1.78.28-.09-4.4 3.39-5.04 1.77-.22-.65.3-1.15 1.57-1.49-.11-.94.47-1.44 1.71-1.5l5-4.03.83.3 2.21-3.05h.61c-.36 2.64-2.74 3.34-1.76 4.65" style="fill:#6c6766"/><path d="m65.61 94.91-2.57 1.13-1.32.44c-.17.17-.44.3-.65.41-.13.07-.3.09-.42.11-2.79.38-.52-3.33 1.15-2.1l5.04-1.77-1.24 1.78Z" style="fill:#787372"/><path d="M63.04 96.04c-.41.18-.81.45-1.32.44.36-.35.8-.52 1.32-.44" class="cls-62"/><path d="M76.01 55.95c1.71-.83 2.82 2.97 1.71 4.02.62-.24.93.07.95.94 1.05 3.54.33 8.79.13 1.3l.65-.44.57-.02-.33 12.63c-.14-.68-.36-1.34-.87-1.8-.81.38-.81-.07-.02-1.35-.95-1.66-1.51-1.46-1.67.62l-1.12.31c.16.3-.08.33-.72.11-.08.5-.22.48-.42-.02-1.09-.02-1.06-.5.01-.79l-.02-1.15.07-.74c-1.09-.8-.91-2.02.51-3.65-.77-1.51-.93-3.34-.49-5.48-1.21.5-1.79-.13-1.72-1.91-1.3-1.73-1.43-2.92-.38-3.57 1.52-1.94 2.37.07 2.28 1.95l.87-.93Z" style="fill:#625f5e"/><path d="M79.07 59.36c.11 1.73-.48 2.24-1.34.61-.29-1.39-.51-2.96-1.71-4.02-.42-.06-.85-.2-1.03-.58-.87-1.83-2.54-5.97-3-7.86l.8-1.09c-.75-.92-.83-1.61.41-1.19 2.41 3.96 5.17 9.82 5.88 14.12" style="fill:#888686"/><path d="M71.47 41.89c.64.92.85 2.16 1.77 2.88l-.05.46c-.26.24-.55.81-.41 1.19-2.07 1.31-5.32-4.62-4.14-6.26-.03-.48.1-1 .74-1.29z" style="fill:#73706f"/><path d="M79.45 61.77c-.18 1.47.43 3.07-.4 4.62l-1.33-6.42c.54.07 1.01-.16 1.34-.61.13.8.49 1.47.38 2.41Z" style="fill:#787676"/><path d="M36.07 32.98c.49.15.3.44.04.85.52.12.48.29-.06.49.47.26.3.47-.49.64.21.23.36.42.32.52-1.14 2.18-3.04 5.03-4.61 6.95.07 1.57-.68 3.24-2.25 5.03-.26 1.71-1.28 3.8-2.58 1.78 1.68-5.63 5.1-7.25 3.35-9.2l5.05-7.35c.28.45.86.35 1.24.29Z" style="fill:#6f6c6b"/><path d="m35.54 31 .6-.66z" class="cls-43"/><path d="M49.84 89.13c-.1.68-.13 1.15.72 1.41-2.74 2.2-1 5.89 2.3 5.72l.43.39c.17 1.81-3.14 1-4.62.4-.29.45-1.31.93-1.5.46-.07-.19 3.05.4 3.41.66.03-.51.16-.48.38.03.49.18.48.38-.01.6h-1.14c-.7.33-1.69.58-2.28 0l-1.14.05-1.21-.62c-.13.03-.32.03-.46 0-.83-.31-1.16-.5-1.34-1.34-1.71-.41-5.24-1.5-5.39-3.25l-.67-.64q-.78-.075-.03-.33c-.32-1.25.05-1.47 1.1-.65 1.25-.81 2.94-1.86 4.56-1.74l.07 3.42c.23-1.69 3.1-1.25 3.3.41l.78-1.17c-.55-1.2-.43-1.9.35-2.08-.2-1.33.19-2.12 1.15-2.37.75-1.67 1.9-1.07 1.24.64" class="cls-24"/><path d="M37.29 92.66c0 .12 0 .24.03.33l.67.64 3.38 1.66c1.02.68 2.1.72 3.18.2l.17 2.73c-1.09-.24-2.27-.61-3.39-.54-1.97-.76-3.69-1.73-5.16-2.89-4.28-2.07.05-5.68 1.11-2.13Z" style="fill:#6c6765"/><path d="M32.16 91.93c1.58.04 2.91.99 4.01 2.85 1.83.84 3.76 1.33 5.16 2.89-1.72.1-2.94-1.02-4.55-1.8-1.6-.78-3.3-1.18-4.59-2.25-2.42-1.99-4.99-4.1-6.42-6.88.17-.78.38-.81.71-.08 1.51-.6 3.03 1.9 3.23 3.1 1.33.24 2.15.96 2.45 2.16Z" style="fill:#4a4544"/><path d="M49.81 98.78c-.46.72-1.5.7-2.28.57v-.56h2.28Zm-3.42.06c-.5.02-.99-.16-1.21-.62.51-.09 1.07.09 1.21.62" class="cls-77"/><path d="M63.38 93.4c-.43.4-1.01 1.2-1.57 1.49-.34.17-.91.2-1.26.6-.27.31-.13 1.06.12 1.5l-1.17.66h-.58l-1.7.56h-.58c-.4.31-.87.45-1.14 0-1.18.49-3.32.46-4.54-.03l-.38-.03c-1.38-.1-2.02-.48-1.91-1.11 1.56.11 3.29.48 4.62-.4 0-.48.39-.5 1.17-.09.13-.51.33-.52.61-.05q1.605-2.25 2.07-.48c.04-1.01 2.01-2.5 2.99-1.7-.62-2 2.47-2.52 3.26-.91Z" class="cls-62"/><path d="M55.51 98.21c.5.16.49.36 0 .58h-4.56l.01-.6 4.54.03Z" class="cls-77"/><path d="M58.92 97.65c-.3.61-1.07.55-1.7.56.3-.62 1.07-.55 1.7-.56m1.74-.66c-.27.42-.69.65-1.17.66.3-.34.69-.58 1.17-.66m-4.01 1.22c-.18.5-.66.58-1.14.58v-.58z" class="cls-20"/><path d="M28.18 83.54c-.1.48-.66.31-.62.31 2.48.26 1.15 3.77-1.08 2.83l-.71.08c.05-.24.03-.49.01-.69.69-1.35.62-2.9-.61-4.32 1.75-.58 2.62.7 3.01 1.8" class="cls-9"/><path d="M37.27 28.13a.98.98 0 0 1 .62-.54zm-.57 1.14.57-.57z" class="cls-102"/><path d="M28.18 83.54c.5.03.95.19 1.45.34 1.39.22 2.35.8 2.86 1.76-.09-1.34.58-1.26 2.01.23 2.17.81 4.36 1.71 6.57 2.68.14-.51.34-.5.59 0 1.2-.25 1.51-.26 1.3 1.15-.07.19-.15.35-.28.41-1.01.46-4.09 1.84-4.25.76l-1.51-.4c-1.12.74-2.32.48-3.61-.78-.1.94-.31 1.7-1.15 2.24-2.49-.47-4.05-2.85-5.68-5.26.68-.72 1.53-1.39 1.85-2.46-.91.13-1.11.11-1.4-.07-.61-.38-.25-1 .38-.84l.86.23Z" class="cls-86"/><path d="M24.93 69.61c.38-.07.69-.1.79.04 1.09 1.47 3.04 8.09 3.28 10.1l-.88.93-3.11.32c-.42.04-.59-.82 0-1.03l2.28-.81-2.11-.55c1.87-.39-.26-2.77-.26-5.99 0-.42.61-1.14-.27-1.44-.31-.11-.71-.19-1.15.03-.26.13-.7.1-1.15.13l.17-4.74c1.39-1.34 1.99-.55 1.79 2.36.37.05.58.28.62.67Z" class="cls-70"/><path d="M32.07 84.5c.43.1.65.35.49.76.5.06.45.19-.07.37-.31-.04-.91-.43-1.35-.2-.32.16-.4.58-.37.79.07.47-1.03.87-1.34.4l.21-2.76c.09-1.17-1.11-2.21-1.5-3.2.06-.9.63-1.39 1.45-1.2 2.26.51 4 3.55 2.5 5.03Z" class="cls-9"/><path d="m23.47 73.14.71-.61c.21.4-.24.75-.71.61" class="cls-70"/><path d="m27.51 55.97.42.49s-.87 3.28-2.62 9.85l-.54 2.89c.49-.13.53.02.16.41-2.17.5-.19-2.58-2.42-3.03.05-1.38-.64-1.89.27-3.4.77-1.27.17-3.53.26-4.84-.36-.83.32-2.78 1.31-2.23.99.46 1.61.32 1.86-.44l1.28.3Z" style="fill:#4f4b49"/><path d="M26.43 49.24c.4.18.98.47.95.79-.14 1.47-1.38 6.16-3.01 6.08-.84.5-.91 1.46-1.31 2.23-.37.7-.93 1.54-1.07 2.29-.26-1.07.11-1.94.46-2.88l2.33-6.28c.33-.89.46-2.38 1.65-2.23" class="cls-126"/><path d="m56.08 20.17-.85-.02c-.23 0-.43-.49-.28-.77.1-.17.31-.33.56-.43.45.22.63.72.57 1.21Zm-.57-1.7c-.21-.05-.54-.32-.55-.54.31-.03.54.17.55.54" style="fill:#767371"/><path d="M59.98 30.61c.47.02.45.16 0 .41l.71.53c.83-.72 1.13-.4.5.53-.19.3.03.7.65 1.17.07-.5.23-.48.46 0 .63.36 1.09.34 1.76.04 1.38.03 1.71 1.8 2.25 2.74-.31 1.31-.92 2.28-1.83 2.93-1.25-.33-3.55-3.22-3.24-4.54l-.64-.57c-.52.07-.69-.02-.53-.53-.38-.43-.55-.85-.51-1.25-.51-.1-.5-.28-.03-.54l-.66-.56c-.54.01-.53-.16-.05-.5.05-.35.34-.61.7-.64.03.26.3.58.48.77Z" class="cls-16"/><path d="M64.23 32.73c.05.13-.11.4-.18.57-.51.95-1.1.93-1.76-.04h-.46c-.61-.34-.82-.73-.65-1.18l-.5-.53-.71-.53c-.04-.11-.06-.33 0-.41l.6-3.36c1.18 2.32 1.89 4.21 3.65 5.48Z" style="fill:#534f50"/><path d="m66.3 36.03 2.35 4.13c1.46 2.57 2.42 4.99 4.14 6.26l1.67 4.36c.7 1.81 1.52 3.39 1.56 5.17.04 1.76.33 3.71 1.7 5l-.95.74c-.38.29-.85.17-.87-.17-.01-.2.57-1.07.46-1.26-.57-.9-2.28-2.3-2.16-3.74.09-1-.41-1.58-1.33-1.58-.54.26-.82.19-1.01-.25-1.07-2.43-1.94-4.76-2.41-7.39-.38.17-.69.3-.73.24-1.46-2.17-3.3-5.59-4.48-7.99-.06-.12.07-.34.24-.58.17-.7-.35-1.81-.05-2.27.28-.42 1.46-.54 1.88-.66Z" style="fill:#5c5857"/><path d="m58.4 30.5.4-.03c-.02.16 0 .34.05.5l.66.56.03.54.51 1.25.53.53c.09.25.17.5.15.75-.01.15-2.17.46-2.24-.22-.33.76-.58 1.56-.74 2.37-1.43.89-1.87 0-.61-1.12-1.28 0-1.52-.77-.7-2.33l-1.07-4.36.73-.4c.86-.71 1.36.71 1.66 1.69.44 1.39-.54.37-.13.03.11-.09.41.04.77.25Z" class="cls-72"/><path d="M48.63 16.15c.74.31 1.3 1.25 2.26.65q1.215-1.29 1.77.6l.09.33c-.14 1.09-1.38 1.34-3.73.74-1.12.93-2.01.88-2.66-.17-.5-.03-.5-.18-.02-.42.48-.95 1.3-1.57 2.28-1.74Z" style="fill:#7b7876"/><path d="M58.33 29.8c-.88-.24-1.57-.97-2.06-2.19l-.78-.6c-.93.37-1.26-1.06-.28-1.44.59-.23-.02 1.75-.79-.32-.49-.18-.47-.36.03-.56.93-1.07-.39-2.79.77-2.6.96.16 2.5 4.53 3.11 7.7Z" class="cls-72"/><path d="m58.33 29.8.07.7c-.28.37-.52.72-1.02 1.03-.16-1.34-.51-2.3-1.28-2.99-.06.46-.26.5-.6.16-.7-.5-.81-1.3-.02-1.68.13-.47.58-.47.84-.4 1.05.25.96 1.85 2 3.19Z" style="fill:#95918f"/><path d="M53.24 20.71c-.64.07-.63-.53-.04-.55z" class="cls-100"/><path d="M50.27 10.16c1.8.21 1.18 1.58-.41 1.46q-.51.285-.03.54c.79-.83 1.54-1.07 2.23-.73.18.39.3.49.69.28l.48.12c.27.6.07 1.49-.1 2.12-.4-.3-.68-.81-1.69-.55.67.77.58 1.42.75 2.11.18.89-.26 1.32-1.31 1.3-.3 1.46-2.78.85-2.26-.65-.66-.57-1.55-.47-2.68.3-1.17-.03-1.7-1.04-.93-1.11s.35 1.19-1.05.32c1.21-2.45 1.84-5.31 3.59-7.46.87.87-.45 3.8-1.21 4.85-.06.08.9-1.82 1.4-.98 2.37-1.25.93-6.4 2.61-3.65-.48.84-.27 1.29-.08 1.74Z" class="cls-91"/><path d="m53.23 11.82-.48-.12c-.28.3-.56.08-.69-.28-.47.3-.74.93-.72 1.78-.83-.17-1.07-.63-1.51-1.05-.36-.17-.34-.34.03-.54.25-.36.59-1.02.41-1.46 1.28-.15 2.44.5 2.96 1.66" class="cls-17"/><path d="m48.06 10.46-.52.58.21 1.03c-.48.25-.7 1.66-1.97 1.15.82-1.7 1.83-3.34 1.77-5.02l-.02-.59 1.02-1.22c.3 1.7-.34 2.78-.49 4.05Z" style="fill:#7a7775"/><path d="M48.63 16.15q.075 1.395-2.28 1.74l-1.22.64c-.39 2.12-1.1 2.78-2.14 1.97-.03-.61.37-1.29.88-2.19.14-.25-.57-.75-.92-.59l1.01-2.06c.44-.33.72-.68 1.02-1.16.71 1.24 1.61.85 2.26.5.9-.48 1.28-1.03 1.47-2.43.77.25 1.02 1.35.75 1.81s-.71 1.16-.83 1.76Zm4.03 1.25c-.34-.35-1.36-.86-1.77-.6l1.31-1.3.47 1.9Z" class="cls-100"/><path d="M49.83 12.16c-.78.05-.6-.72.03-.54-.08.13-.05.4-.03.54" class="cls-50"/><path d="m51.23 13.8.32.37-.32.28-.28-.28z" class="cls-17"/><path d="m52.06 11.43.69.28c-.28.75-.94.25-.69-.28" class="cls-50"/><path d="M42.34 28.1c-.24-.05-.68-.29-.84-.54s.44-.92-.48-1.69c-.12 1.27-1.02 1.73-1.48 2.36-.21-1.42 1.01-2.29 1.63-3.54.56-1.14.65-2.48 1.89-2.83 2.75-.4 1.21 6.52-.71 6.24" class="cls-82"/><path d="M77.82 75.34c-.89 3.32-2.37 7.99-4.05 8.65-.52-.13-.53-.33-.07-.62.43-.35.31-.68.06-1.16-.35.21-.39-.03-.12-.7-.43-.45-.3-.93.4-1.43-1.16 2.07-2.37 2.27-3.65.6-1.55-.72-1.28-2.18.5-1.87l1.19-1.88q-.66-2.4 1.32-2.34c-.88-1.4-.19-2.9 1.47-2.36l.42.02c2.08-.35 2.77 1.31 2.53 3.09" class="cls-108"/><path d="m78.8 71.22.02 1.35c.28 1.09-.79 1.98-1.01 2.77-2.06-.99-.85-2.76-2.53-3.09.2 0 .56-.01.72-.11q.615-1.995 2.79-.93" style="fill:#5d5857"/><path d="M78.8 71.22c-.26.32-.91 1.27-1.22 1.07l-.77-.5c-.19-.12-.65.21-.81.36.63-1.62.45-2.86.23-4.81-.12-1.03.86-2.63-.46-3.83.43-.44.81-.53 1.47-.45 1.04 2.58 1.52 5.42 1.56 8.15Z" style="fill:#4d4948"/><path d="M74.86 70.28c-.49-.56-.48-.18.02 1.15.02.23.06.57-.01.79-.15.49-.55.88-.98 1.28.74.52.66 1.11.51 1.66-.18.67-.79.76-1.86.43.27.57.58 1.38.19 1.88-.45.58-1.2 1.01-1.84 1.33-.57-.09-.45-.45.37-1.09-1.62-.46-1.44-2.49-.36-3.48-.7-.77-.46-1.52.71-2.24.33-1.37.84-2.3 1.54-2.76.46-2.71.57-5.49.32-8.34.38-.46.88-.6 1.49-.48.58.78 1.35 1.39.66 2.73-.46.9.5 2.23.11 2.86l-.79 1.3c-.45.74 1.29 1.95.87 2.56-.17.25-.58.42-.96.42Z" class="cls-3"/><path d="M36.67 34.94c-.22 1.3-1.94 2.36-2.53 3.36.21 1.74-.4 3.2-2.38 3.92-.74.97.27 1.76 1.25 1.01.68-.54 1.14-1.46 1.93-1.5.4.3.06.93-1.04 1.9l.45.61c-1.83 2.79-3.51 5.58-5.03 8.36-.38.45-.47 1.15-.25 2.1q-.795 1.17-1.56 1.26c-1.41 1.3-1.7 3.26-2.42 5.08-.42-.41-1.14-.67-1.46-.7 1.62.16.66-3.99.74-4.24l2.06-6.87c1.51.17 1.09-1.53 1.6-2.33l7.53-11.95c.4-.35.77-.5 1.12-.01Z" class="cls-125"/><path d="M38.43 90.88c1.51.23 1.42.75-.04 1.13-.26.21-.75.74-1.1.65l-1.82-.45c-.6 1.35.13 1.96.7 2.58-1.52-.7-3.3-1.26-4.01-2.85-.36-.62-.4-1.32.22-2.56l-2.4-.09c1.11-.92 1.27-1.07 1.45-2.28l4.54 3.17.44-1.61c.05-.17.45.61.5.74.58.17 1.02.24 1.25.48.24.26.34.89.28 1.1" class="cls-88"/><path d="M45.84 85.05c-.33 1.14-1.21 1.86-1.11 3.48 1.46-.45 2.68-.32 3.88-.04l.06 2.67c-.6-.03-.88-.18-1.22-.3-.14.38-.38.66-.81.64-1.07-.05-4.32-.77-3.68-1.79-.32-.33-1.36-.15-1.3-1.15l.08-2.46c-.48-1.02-.38-1.48.3-1.4.31-.77.96-.98 1.46-.23.58-1.92 3.42-1.32 2.34.58" class="cls-3"/><path d="M42.96 89.71c1.87 1.95 2.62.32 4.49 1.14.39 1.16.23 3.43-1.13 3.26l-.66-.38q-.27-2.145-2.64-.03c-.26 1.03-1.32.09-.55-.4-.59-1.2-.33-1.6.19-2.73-1.83.98-2.93 1.4-4.27 1.45l.04-1.13c1.22.79 1.74-1.74 4.53-1.17Z" style="fill:#555150"/><path d="m46.32 94.11-3.3-.41c.29-.87.37-1.7 0-2.79l2.13.63c.53.16 1.23.54 1.46.98.21.4-.09 1.12-.3 1.59Z" class="cls-11"/><path d="m48.66 97.04 1.91 1.11c-1.37-.09-2.83.25-4.09-.13.25-.83.64-1.56 1.04-1.35s.74.34 1.14.37" style="fill:#8f8c8a"/><path d="M37.99 93.64c-.3-.15-.54-.32-.67-.64z" class="cls-88"/><path d="M29.32 52.6q.855-.39.06 1.23c.72-.69 1.01-.37.49.47q.69.27 0 .63c-2.05 3.77-3.37 7.95-3.98 12.55.39.01.72.06.79.23.56 1.17 2.88 7.34 2.63 7.85-.11.23-.36.38-.66.51.56.03.94.54 1.15 1.54l1.13 1.35c1.22.35 1.79.87 1.7 1.57l.78.21c.07 1.83.42 3.53 1.07 5.12l-2.01-.23c0-.11.04-.3.07-.37.11-.45-.06-.62-.49-.76.04-1.25-.2-3.5-1.5-4.14-.94.4-1.9.25-2.45.31-1.31-3.3-.17-6.79-3.19-11.07l-.16-.41.54-2.89c-.22-4.83 1.3-6.64 2.19-10.34.76-.7.96-2.09.82-3.2.4-.21.71-.19.98-.16" style="fill:#676260"/><path d="M41.89 81.8c.99-.76 1.36-.43 1.11.98.48 1.25-.47 1.82-1.16.61-.39-.3-.85-.51-.56 0 .84.1.98.42.77 1.29l.18 2.61c.03.4.58.74.45.94-.14.23-.93.39-1.01.31-.18 0-.43-.02-.59 0-.53-.22-.53-.43 0-.64-.79-.55-1.08-1-.86-1.35-1.34-.38-3.51-2.17-4.08-3.3-.71-1.4-.1-3.56 1.54-3.76-.2-1.5.38-1.49.96-.09.98.94 2.07 1.75 3.26 2.4" style="fill:#787470"/><path d="m34.58 79.95.52.56c-.23 3.28 1.72 5.35 5.87 6.2l.1 1.21c-.05.17-.01.43 0 .64-1.76 1.1-3.46-.4-4.82-1.83-.39-.41-1.69-.25-1.75-.85-1.33-1.45-1.57-3.45-1.85-5.32-.53-1.57 2.34-3.4 1.93-.59Z" class="cls-3"/><path d="m32.56 85.26-.49-.76c.48-.24 1.17.32.49.76" class="cls-86"/><path d="M24.77 69.2c.09-.95-.28-2.22.54-2.89.05.99.21 2.17-.54 2.89" class="cls-70"/><path d="m60.59 33.86.64.57 3.24 4.54 4.97 8.32.98 3.81-.68.4c.09 1.1-.35 1.1-.66 0-1.33-.9-1.98-2.57-1.97-4.99l-2-3.74c-1.43-.17-3.71-3.64-2.81-4.96-1.11.09-1.81-.18-2.09-.79l-1.3.29c-1.15.19-1.13-2.02-.41-2.91l2.09-.53Z" style="fill:#9c9997"/><path d="M64.06 33.29 63.23 35l-.92-1.75 1.76.04Z" class="cls-107"/><path d="m60.05 33.33-.88-.63c-.18-.13-.05-.57.37-.62.46.21.59.77.51 1.25m-.53-1.79a.81.81 0 0 1-.66-.56c.39-.1.65.17.66.56" class="cls-85"/><path d="M60.7 31.54a.81.81 0 0 1-.71-.53zm1.14 1.7c-.35 0-.57-.22-.95-.52-.28-.23-.32-.67.29-.65l.65 1.17Z" class="cls-107"/><path d="m61.23 34.43-.64-.57c.34-.09.74.18.64.57" class="cls-85"/><path d="M72.86 54.93c.06 1.85.96 3.95 2.1 5.49-1.17 1.47-1.6 3.43-.6 5.24 1.15-.33 1.24.86.24.83-.88.85-.95 1.95-1.45 2.75-.89-.54-.4-1.64.11-2.49l-.77-.29c.03-3.25-.31-6.33-1.03-9.23-.26-.07-.47-.17-.52-.31-.46-1.42-1.16-4.13-1.19-5.43l-.3-4.21 3.42 7.64Z" style="fill:#827e7c"/><path d="m58.9 37.3 1.3-.05c.12 2.09.44 4.23.97 6.42 1.95-.35 3.11 3.74 2.89 5.49.99 1.36.98 2.13-.01 2.31-1.81.9-1.99-2.33-2.07-3.85-1.36.53-1.81-.08-1.21-1.38-1.54-.56-1.83-.89-.71-2.07-2.31-.89-2.3-4.12-2.26-6.38l-.05-1.05c-.04-.92-.19-2.13.74-2.37-.34 1.15-.21 2.01.41 2.91Z" class="cls-138"/><path d="M55.49 27.02c.12.47.02 1.18.02 1.68l-1.14-.56c-1.19-.08-1.11-.6.13-.68.13-.62-.93-1.44-.07-2.21.55-.04 1.16-.11 1.65.28-.56.32-.75.53-.91.75-.21.3.14.56.32.72Z" class="cls-85"/><path d="m55.26 30.63.62 2.34c.11.42.2 1.08-.16 1.37-.26.2-.97.05-1.24-.02-.16.24-.33.21-.5-.05l-1.83-2.6.49-.74c-.95-2.64 1.65-3.31 2.64-.29" style="fill:#565151"/><path d="M35.6 41.35c-.34-.19-.34-.44-.04-.69v-1.14c.36-.53.74-.72 1.13-.57 1.19.56.07 2.44-1.09 2.4" style="fill:#4f4a4a"/><path d="M44.52 36.66c.24.35.41.65.32.78-1.48 2.27-5.76 6.09-4.76 1.02L39.5 38c-.3 1.02-.89 1.71-1.77 2.06.76 1.34-.05 2.51-1.54 1.79-.79 1.56-1.55 2.15-2.29 1.78l1.04-1.9v-.53c.3-.27.51-.24.66.14.77-.5 1.05-1.5 1.09-2.4-.34-.19-.32-.39.02-.6l.03-.47c.45-.29.46-.78.58-1.26l.51-1.91-.72-.51.8-.15.3.24c.69-.76 2.04-2.38 2.8-3.21l-.1-1.91c-.02-.36 1-.6 1.46-.34 2.15-3.88 6.99-3.72 4.31 1.36.49 3.78-.23 5.94-2.17 6.47Z" class="cls-82"/><path d="M42.34 28.1c1.1 0 1.12.43.04.74-.06 1.94-.52 2.98-1.39 3.13-.77 1.84-1.69 2.62-2.77 2.33l-.38.42c1.41.61.95 1.89-.51 1.91-.43.34-.63.76-.58 1.26.49.13.47.29-.03.47l-1.15 1.17c.79-.01.64.79 0 1.14-.09.35-.24.59-.62.54.5.12.49.3 0 .53l-2.8 2.88c-.45.04-1.32-.41-1.42-.84-.13-.53 4.85-8.15 5.95-8.83-.45-.13-.66-.34-.62-.62.08-.1.07-.36.06-.49.08-.52.29-.78.64-.79.47-1.76 1.68-3.32 2.78-4.81 1.15-3.02 2.74-4.17 2.8-.13Z" style="fill:#423f40"/><path d="m36.11 33.83-.04-.85c.21-.04.52.05.68.06-.09.33-.36.61-.64.79m.56 1.11h-1.12l.49-.63c.42-.05.69.26.62.62Z" class="cls-82"/><path d="M36.74 37.89c-.44-.08-.52-.48-.36-.68.26-.32.64-.52.94-.58 1.14.73.73 1.67-.58 1.26m-.05 1.07-1.13.57c.2-.54.61-.95 1.15-1.17zm-1.09 2.39-.66-.14c.16-.23.37-.41.62-.54l.04.69Z" class="cls-125"/><path d="m73.64 81.52.12.7c.28.43.38.88-.06 1.16l.07.62c-1.55.71-1.9 2.87-2.84 4.17-2.38 1.96-4.46 4.26-7.54 5.24-.99.18-2.48.17-3.26.91-1.28-.46-2.52.58-2.99 1.7l-2.07.48c-.38-.83-.58-.83-.61.05-.3.03-.92-.08-1.17.09-2.46.15-5.79-1.81-5.81-1.54.01-.23.49-.48.6-.85l1.76-5.12c1.66-.08 1.13 1 .49.47-.77-.64 1.39-1.66 1.76.13.72-.1 1.36-.39 1.91-.87l.47.88c3.15-.38.49 3.27-.89 1.06l-.32.32c.88.44 1.55.46 2.01.03 2.21-1.63 3.62-1.76 4.23-.38l.65-.49c.04-.51.21-.52.49-.06.87.75 1.86.4 2.95-1.05 1.95.38 4.56-.88 2.74-2.68-.16-1.46.06-3.23 1.76-2.42.63-1.62 2.01-2.93 3.4-1.31.54-1.04.87-1.55 2.16-1.26Z" style="fill:#504b4a"/><path d="m73.81 84.58-.68.54c-.26 1.4-1.29 2.28-2.21 3.05-.76-.53-.8-1.15-.28-1.85s2.47-2.93 3.12-2.32z" class="cls-21"/><path d="M73.74 85.11h-.61c.05-.19.52-.47.68-.53z" class="cls-108"/><path d="m55.06 96.5-.61.05c-1.75-1.75-4.56.61-3.69-2.3-.53-.61-1.32-1.28-1.05-1.94.21-.51.79-.91 1.55-1.51 1.61 3.64 6.39 2.79 3.79 5.7Z" style="fill:#43403e"/><path d="M60.12 94.31c-.9.87-1.73 1.41-2.99 1.7-.43-.25-.79-1.24-.29-1.53.26-.15.67-.05 1.15-.62l.94-1.1c.31-.37.72-.03.88.3.23.47.29.81.31 1.25" style="fill:#484343"/><path d="m73.64 81.52-2.62 4.09c-.34.52-1.58.09-1.67-.23-.06-.21-.01-.7.18-.79.21-.11.66-.19 1.31-.18l-.68-1.64-2.08 1.33c-1.1-.15-1.09-.6.01-.83-1.44-.62-.95-2.14.5-2 .37-1.32.58-1.44 1.8-.58.63-.3 1.43-1.95 1.5-.83.03.46.05.78.47 1.33.86-1.22 1.78-2.64 3.47-2.93-.06 1.62-1.65 2.42-2.19 3.26m.06 1.86.06-1.16c.33.17.54.51.51.83s-.32.46-.57.33" class="cls-21"/><path d="M62.88 84.98c.27 1.22.45 2.42.18 3.64.59 1.22-1.6 2.9-2.43 1.6l-.49.06-.65.49c-1.19-.76-1.07.79-3.71.99-.48.04-1.13.61-1.47.48-.39-.16-.9-.79-1.07-1.11a.4.4 0 0 0-.32-.2c-.27.51-.92.51-1.17.13.72-.82 1.16-.86 1.54-.64.04.17.14.31.27.38.48.31 1.34.48 1.54-.62l-3.03-.45c.08-.14.06-.28 0-.34-.07-.07-.14-.26-.74-.52.6.51 1.54.11.38-.85l.67 1.03c.47.16 1.06.15 1.39-.27l-.81-.85c-.11-.11-.18-.35.08-.41.34-.08.61-.03.78-.01.84-.7 4.92-.24 6.01.31 1.5.75.74 1.27.27 1.08-.22-.1.67-.85 1.27-.69-.06-.66.24-1.36.98-1.38-1.02.01-1.2-.37-.54-1.15-.69-1.29.04-1.73 1.05-.69" class="cls-123"/><path d="M60.63 90.22c1.07-.13 1.68-.98 2.43-1.6.87-.72 2.05-1.16 2.7-2.18.21-.48.4-.45.56.06.98.11 2.1-.22 3.06.87l-4.75 4.03c-.75.45-1.47-.38-.66-.89 1.07-2.44-.95.89-2.5 1.09-.63.08-.98-.76-.85-1.38m-1.12.55c.15-.21.38-.46.65-.49.09.28-.46.61-.65.49" style="fill:#565250"/><path d="M35.01 44.73c.88.68.57 1.01-.47.5l-3.6 7.57c-.42.96-.94 1.3-1.56 1.03l-.06-1.23c-.07-1.3 3.25-7.92 4.58-8.97l2.29-1.78.88.85c-.99.21-1.68.88-2.07 2.02Z" style="fill:#6a6462"/><path d="M54.79 77.16c1.7-.12 2.64 2.68 2.42 3.97.26.93 0 .79-.67.11l-.6.04-1.17.58c.24 2.93-.47 4.05-2.13 3.39.05-.34-.2-.81-.55-.78-.11-1.19-.07-2.5.11-3.91l-1.12-.17c-2.09-1.51-1.92-.14.51 4.12.15.25.62.63.59.91-.04.3-.69.87-.97.92-.41.07-1.19-1.85-2.58-2.76-.46-.76-1.08-1.23-1.85-1.38-.33-.6-1.15-3.23-1.09-3.64.13-.9.66-1.66 1.56-1.84q2.745 1.26 3.99-.6c-.03-4.04 5.22-3.19 3.54 1.07Z" style="fill:#585452"/><path d="m52.1 84.47-.5.04c-1.59.12-3.22-2.69-3.12-4.78-.47.26-.6.27-.77.11-.28-.26-.26-.64-.17-.84.21-.42.6-.26 1.11-.31l1.89-.21c.46-.05.83.74 1.11 1.39.68-1.05.87-.59 1.17-.33 1.17.98.56 4.11-.73 4.93Z" class="cls-11"/><path d="M51.61 84.5c.07-.51.24-.51.5-.04 1.32-.94 1.49-.52.55.78.63.03.96.37 1.06.95 1.6-.05 1.58.76.11 1.31.02.28.01.52-.1.59-.44.28.07-1.26.29.24s-.63 1.65-1.62.71l-.3.34c.54-.04.52.08 0 .34-.68-.1-1.33.26-2.17.54.11-.68.03-.87-.09-1.14-.26-.58-.74-.53-1.24-.64-1.77 1.6-5.36 1.75-4.74-1.82.18-1.02.87-1.85 1.97-1.62.62-1.51 1.81-.98 1.62.62.67.35 1.07-.35 1.19-2.1.75-.08 2.25 1.19 2.73 1.95.03.05-.43-.53.23-1.01Z" class="cls-44"/><path d="m51.23 86.67.28.43-.28.28-.28-.28z" class="cls-123"/><path d="m43.63 83.26-.13 1.2c-.37.28-1.01.65-1.46.23-.1-.07-.72-.25-.83-.46-.09-.19 0-.58.06-.83.16-.4.34-.39.56 0 .48 0 .99-.14 1.16-.61l.64.48Z" style="fill:#625e5a"/><path d="M30.46 55.5c.5.12.49.3 0 .54-.85 2.11-.78 4.42-.48 6.56-.97.62-1.56 1.69-1.8 3.22.14 1.96.58 4 1.33 6.13.93.72 1.26 1.5 1.01 2.32 1.02.44.45 1.82-.59 1.79-.09 1.27-.57 1.01-1.27.04l-.92-3.83c-1.13-1.68-1.63-2.89-1.85-4.76.6-4.59 1.92-8.78 3.98-12.55v-.63c.15-1.09.58-1.05.73.07 1.48.36 1.35.87-.14 1.12Z" class="cls-6"/><path d="M35.66 77.21c.57 1.27.72 2.87-1.08 2.75-.07-.51-.6-.73-1.02-.53.06.46-.02.69-.1.8-.14.18-.59.34-.81.31l-2.35-.87-1.64-3.59c.36-.05.93-.15 1.27-.04l2.18 1.48c.25-1.11.81-1.63 1.69-1.58-.82-.94-.76-1.3.19-1.09-.42-.61-.39-.87.36-.71 2.1 1.36 2.53 2.39 1.31 3.06Z" style="fill:#7a7673"/><path d="M33.33 48.56c-.77 1.4-.85 2.55-.26 3.45l-1.4.65c.97 1.43.62 1.99-1.08 1.7l-.73-.07c-.24-.02-.48-.23-.49-.47l1.91-2.56c.88-2.31 1.66-4.32 3.25-6.04 1.65.59.42 3.62-1.21 3.33Zm-3.46 6.38-1.35 3.1-1.64 5.78c-.33 1.18.22 2.82-.98 3.67-.26-2.25.44-3.91 1.16-6.28l1.73-5.72c.18-.58.66-.67 1.1-.56Z" style="fill:#7c7775"/><path d="m42.29 71.45.33.58c-1.25 1.52-1.74 4.15.7 2.85.34-1.49.84-1.44 1.23.03.52.08.54.26.08.54.18 1.56.08 3.08-.28 4.56l-1.3-.19c-.46.58-.47 1.51-1.17 1.96-.74.31-1.64.3-2.21.08-1.13-.45-1.31-1.52-1.05-2.47-.29-.18-.52-.36-.53-.55-.11-1.89 1.59-.86-.44.64.21.79-.5 1.6-.68 2.15-.25.75.53 2.05 1.24 2.09.34.02.73-.47.79-.66.17-.48 1.18-.34 1.09.3-.04.32-1.1.61-1.22.89-.14.32.34.93.65 1.1.27.14.94-.03 1.44-.21.64.63.33 1.96.09 2.74-.35-1.01-1.7-.55-2.31-.86l-3.42-1.74c-.36-.19-2.49-3.27-.75-5.36.53-.64-.08-2.23 1.08-2.75-.19-1.23.58-1.85 2.32-1.87q-.945-1.08 1.38-2.52c-1.35-1.31-1.87-2.52-1.56-3.64-1.44-.6-1.45-1.05-.03-1.36-2.35-1.92-.12-4.95 2.28-2.59l-.56 1.7c.82.08 1.21-.11 1.17-.56-.95-1.59.67-2.65 2.12-1.52 1.94-.69 2.5 2.59.74 2.99-.26 1.29-.67 2.5-1.23 3.61Z" class="cls-67"/><path d="m38.63 79.41-.96.09c-.18-.66-.26-1.26-.18-1.81.12-.77.46-1.03 1.11-.86.53.14.95.5 1.46 1.17l-1.43 1.42Z" style="fill:#74706e"/><path d="M41.83 83.39h-.56c-.28.17-.82-.17-.71-.32.23-.29.84-.38.99-.26s.33.24.28.58" class="cls-15"/><path d="M62.3 37.81c1.13 1.42 2.45 3.03 2.81 4.96 1.42 1.11 3.99 10.36 2.68 11.05-.47.25-1.01.17-1.49 0-.88.22-1.19-1.37-.36-1.76-1.05-.77-1.57-1.62-1.88-2.89-1.65-1.33-1.81-3.76-2.89-5.49-.42-2.01-.81-4.05-1.17-6.13.46-.81 1.23-.72 2.3.26" style="fill:#cac7c5"/><path d="M69.08 51.48c.32.07.48.47.47 1.21 1.43 1.92 2.19 11.69 1.63 13.53-.87 2.87-2.7-.26-3.32-2.02.34-2.17.23-4.27-.32-6.28-.97-1.49-1.39-2.86-1.25-4.1 1.4-1.2.66-2.38.34-3.91-.23-1.13.89-2.89-.33-4.11-.91-.91-1.01-2.06-1.2-3.04 1.78 1.57 3.65 6.4 3.97 8.72Z" class="cls-110"/><path d="M65.94 52.06c0 .45.15 1.33.36 1.76 1.49 3.06 2.9 6.18 1.98 10.04.64-.1 1.06-.7 2.29-.38-.38.7-1.09 1.02-1.13 1.42-.04.46.13 1.56 1.26 1.64l-.42-7.18c-.07-1.13-.45-1.46.19-2.53.44-.74-.36-2.76-.98-3.36-.87-.84-.35-1.48-.42-1.99h.66c.23 1.74 1.71 2.84 1.71 5.74 1 1.95 1.47 11.25-.18 12.23-.96.57-4.34-1.15-4.2-2.64.02-3.06-.05-6.1-.19-9.14-.82.17-1.25.12-1.63-.53-.54-.9-2.06-5.03-.75-5.62.15-1.26.95-.31 1.43.54Z" style="fill:#b8b4b1"/><path d="M62.3 37.81h-.85c-1.68.02.58 2.59-.28 5.87-.31-.5-1.22-.67-1.14-1.94.09-1.53-.35-3.3-1.12-4.42l.88-2.65 2.52 3.15Z" style="fill:#b9b4b2"/><path d="M73.25 66.75c-1.28 6.84-3.42 8.24-6.43 4.19.54-.39.4-.76-.4-1.12l-.12-2.93c-.92-1.69-1.06-3.5-.4-5.43q-.765-3.255.99-3.78c1.5 2.17-.3 5.62 1.11 9.76l3.34 1.2c.84-4.06.11-7.7.11-11.39.6.47 1.53.91 1.31 1.69-.58 2.77.4 5.35.49 7.83Z" style="fill:#a29e9c"/><path d="m49.66 41.23.23 1.13c.87.13.45 2.01-.2 2.42-.81.72-1.65.51-2.5-.64-1.48.94-1.85 1.83-1.1 2.66l-.83 1.13c.67.42.89 1.2.09 1.49.12 1.52-.41 1.56-1.13.23-.59 1.2-1.77-.07-1.26-1.01-1.24.46-1.64.3-1.2-.49-.28-.27-.25-.51.08-.72-.83-.43-.56-1.54.83-3.32.22-1.62.47-3.01 1.94-3.98-.3-.92.57-1.32 1.21-.6 1.48-1.93 5.29-.15 3.83 1.72Z" class="cls-12"/><path d="m54.98 40.19 1.02.07q.615 1.935.81 3.57c1.28.93.68 1.98-1.83 3.13.81 1.15-1.12 1.25-1.72.56-.46-.07-.47-.24-.06-.5-.22-.89-.01-1.93.63-3.13-1.47-1.87-2.58.11-2.07 2.02-.59.49-1.28.12-2.08-1.11l.2-2.42c1.21-.47 2.05-1.48 2.9-2.7.87 0 1.6.23 2.19.53Z" class="cls-22"/><path d="m60.76 46.25-1.26.71c-.15 1.06-.55.97-.85-.04-1.48-.59-1.91-1.37-1.3-2.34-.77-1.4-1.89-4.03-.56-5.12l1-1.66c1.33 1.43 1.98 3.41 1.22 5.3 1.74.25 1.4 2.22 1.75 3.15" class="cls-22"/><path d="M58.65 46.92q-1.035.525-3.18 0c-.07.51-.24.51-.5.03-.02-.85.57-1.38 1.83-1.8-.57-.38-1.06-.81-1.05-1.26 0-.28.38-.88.19-1.35l-.97-2.36c.74.38 1.34-.09 1.81-.73l.36 2.89c.44 1.15.92 1.75 2.81 1.8-.69.76-1.22.79-2.29 1.25.7.37 1 .87.98 1.52Z" class="cls-38"/><path d="M49.71 38.95c.52.43.76 1.44 1.17 2.14-.54.23-.91.17-1.22.15.27-2.28-1.17-.83-3.83-1.72-.57-.37-.35-.83.68-1.38-.18-.92.56-1.72 2.21-2.4 0 1.25.32 2.32 1 3.21Z" style="fill:#7a7675"/><path d="M49.71 38.95c-.7-.43-1.06-1.11-1.19-2.45-1.58.74-1.85 2.07-2.69 3.02-.31.32-.77.57-1.21.6-.83 1.34-1.62 1.89-2.39 1.65-2.16-.53 1.16-3.08 2.48-3.34.87-.28 1.08-.5.66-.64-.51-.06-.51-.22-.05-.49-.43-.96.89-1.81 1.65-1.1.68-.45 1.54-.99 1.35-2.08 2.76-.53-.37 1.4 1.4 4.83Z" class="cls-73"/><path d="M53.37 19.58c0 .17-.09.42-.16.58-.27.23-.27.37.04.55 1.19 1.48-.05 3.76 1.21 3.99l-.03.56c.53.43.53 1.68.07 2.21-2.17 1.36-3.74-3.15-2.09-4.5l-.6-1.04c-1.07-.28-.95-.69.18-.79-1.29-.95-1.29-1.48.01-1.57 0-1.28.92-1.13 1.36.01Z" class="cls-24"/><path d="M52.75 17.73c.17.61.58 1.19.62 1.85h-1.36c-.26.41-.8.42-1.62.04l-1.2.14c-.54 3.18-1.65 4.53-3.35 4.06l.49.49-.51.27-.32-.34c-.44.25-.52.12-.26-.36l-.46-.47.46-.22c.13.18.23.25.46.25-2.47-.72-1.58-5.39.68-5.13 1.47-.96 4.2.7 6.39-.58Z" class="cls-100"/><path d="m51.99 21.14-.18.79c2.02 1.52-.22 3.84-2.69 1.42-2.28-2.24 1.48-6.01 2.87-2.2Z" style="fill:#4b4747"/><path d="m46.34 17.89.02.42c-1.57 1.34-1.03 3.24-.68 5.13a.72.72 0 0 0-.46.44l.26.36c.06-.18.17-.31.34-.41 1.59-.93 1.68-2.97 2.58-4.52.72-1.23 2.87-.11 3.6.27v1.57c-.56-.7-2.07-1.42-2.56-.26-.1.6.51 2.03 1.08 2.27.52.22 1.26.22 1.47.02s.02-1.09-.19-1.24c.35-.07.78-.2 1.47.1-.86 1.92-.49 4.38 1.22 5.44-.16.21-.21.55-.13.68.42.76.67 1.66.89 2.5-.45-.32-.83-.76-1.21-1.3l-1.43 1.59c-1.12-.64-1.07-1.89-1.32-3.23-.15-.8-1.56-.91-2.08-.48-2.56 2.15-2.05 5.45-2.25 8.99l-1.65 1.1c-1.05 1.14-1.26.79-.79-.64.23-.84.97-1.15 1.62-1.49l-.2-5.56L47.1 29c.23-.13.02-.68-.34-.58-.21.05-.5.15-.83.11.05-.42.16-.62.29-.78.27-.31.04-.71-.17-.72-1.34-.11-2.24 2.64-3.67 1.83l-.04-.74c.13-.56.46-.98.94-1.42-1.87-.91 1.61-2.47-.22-4.82L43 20.52c.96-.5 1.35-1.67 1.29-3.13.82-.19 1.5.11 2.07.52Z" class="cls-127"/><path d="M52.62 30.93c.85.7.59 1.06-.49.74.56 1.75.84 2.63.84 2.63 0 1.01.36 2.01 1.11 3 .52-1.68 1.84-3.34 3.06-1.66.03.38.19.86.61 1.12.73.06.91.88.05 1.05.58 1.34.63 2.11-1 1.66-.17 2.08-.75 2.75-1.81.73-1.64 1.02-3.33 1.75-5.09 2.17-1.52.13-1.56-.41-.23-1.13.1-.87.12-1.63.05-2.28-.5-2.02-1.41-2.93-2.75-2.74-.37-.08-.67-.19-.74-.38-.12-.33.39-6.3 1.21-6.79-.46-.99-.15-1.84.76-2.43 3.54-2.27 5.08 1.35 4.42 4.33" class="cls-62"/><path d="m55.51 28.7.6-.16c-.44 1.52.66 2.75.8 4.38l.24 2.72c-.64-.17-1.23.23-1.5.83-.16.34-.28 1.05-.36 1.55-.72.39-1.86.71-2.71.68.35-5.08-2.43-6.72-.44-7.04 1.43-.94 2.95 1.4 1.83 2.6-.7.81-.54.83.5.05l.38-.73c-.68-1.45-.54-2.43.41-2.95-.36-.93-.87-1.33-1.55-1.19-.16-.42.06-.86.66-1.3.59-1.02.93-.49 1.14.56" class="cls-24"/><path d="m49.81 36.39.28-.28.28.28-.28.28z" class="cls-73"/><path d="m54.47 34.32-.43.66c-.13.19-.42.57-.59.53-.55-.14-.5-.68-.21-.84l.73-.4z" class="cls-62"/><path d="M42.39 43.52c-1.06.79-1.38.45-.58-.61.28-.27.69-.33 1.22-.19-.03.58-.25.84-.64.79Z" class="cls-44"/><path d="m45.31 37.3.05.49c.11.33-.11.54-.66.64-1.11.96-2.5 1.77-2.48 3.34.48.21.46.4-.05.59.11.34-.01.52-.37.56-.38.85-.35 1.45.08 1.77.35.64.09 1.35-.78 2.11l.74.62c-.07.19-.04.56-.08.72.6 2.37-4.34 4.86-5.09 1.7-.45-.19-.43-.4.02-.62l.56-1.7c-.29-.14-.51-.28-.5-.39.14-1.36.82-5.65 1.3-6.25.14-.17.45-.2.81-.19-.31-1.56.09-2.3 1.21-2.23.28.58.46 1.2 1.09 1.78 1.6-1.05 2.94-2.08 3.35-3.58l.79.64Z" class="cls-44"/><path d="m38.87 40.7-1.62 6.82-.56 1.7c.02.17.05.46-.02.62 1.15.79.6 4.3-.5 5.02.83.67.48.91-.56.65-.77-.62-1.45-1.53-2.03-2.74.76-1.1 1.25-2.09 1.44-2.98l-.77-.24c.42-1.53.95-3.07 1.59-4.63l-.84-.2 1.19-2.87c.59-.46 1.22-1.11 1.54-1.79 1.44-1.97 2.13-1.66 1.13.64Z" class="cls-147"/><path d="m40.08 38.46-1.21 2.23c.11-.2.19-.96-.15-1.03-.23-.05-.79.36-.99.4l3.82-8.07c.59 1.16.25 2.25-.23 3.02-.75 1.21-.71 2.46-1.25 3.44Z" style="fill:#6f6969"/><path d="M70.89 74.24c.69 1.11.25 2.34.36 3.48-.95.34-1.75 1.1-2.74.65-2.63 1.76-3.25-2.87-1.49-3.89-.35-.51-.6-1.06-.07-1.46.25.34.39.78.79 1.07.22-.58.81-.82.93-.62l.64 1.15.76-.57c.19-.15.65.03.81.19Z" class="cls-74"/><path d="M74.86 70.28c.3.35.33.84.02 1.15-.27-.54-.71-1.03-1.18-1.52.64-.58 1.21-.13 1.17.36" class="cls-108"/><path d="M59.93 73.09c.02-.31.05-.56.11-.57 1.66-.19 5.33-.5 5.62 1.26.45.1.45.28.03.52q-.57 2.475-2.16 4.71c.17.57.45 1.12.83 1.67-.97.5-1.83.65-3.43-.45-.5 1.08.53 1.09.85 1.39 1.07.02 1.08.35.19.88-.81-.21-1.39-.48-1.92-.83-.67.87-.87.29-1.09-.64a16.7 16.7 0 0 1-2.67-4.94l.37-1.09.05-2.24c.21-.4.47-.25.79.46.32.08.57.18.61.33.61 2.46-.98-.67.16-1.06.61-.21 1.35 0 1.64.58" class="cls-41"/><path d="m66.35 71.99.68 2.49-.5 1.91c-.18.69 1.42 1.72 1.99 1.98-.45.72.12 1.25-.31 2.52-.44-.62-1.22-1.56-1.58-1.37l-2.26 1.17c-.56-.15-1.17-.19-1.62-.83-.27-.39-.25-1.1.79-.84.21-.83.61-.8 1.11-.1.15-.36.36-.38.62-.07-.6-.43-.91-1.05-.95-1.85.92-.8 1.38-1.7 1.39-2.7-.08-.09-.08-.37-.03-.52-1.59-.36-2.04-1.61-.48-2.43-.08-1.06.29-.97.75 0 .29.1.32.48.42.64Z" class="cls-22"/><path d="M35.02 49.79c-.77 4.43-3.77 2.74-1.69-1.23.72-.79 1.02-2.29 1.21-3.33l.47-.5c.53-.57.65-1.62 2.17-1.65l-.93 3.75c-.25 1-1.39 2.03-1.23 2.97" style="fill:#a8a4a0"/><path d="M58.97 81.05c.72.48.86 1.54-.09 1.71l-1.08.05c-.51-.56-.7-1.12-.59-1.67-.25-.35-.76-.64-1.35-.85-.24-1.13-.59-2.17-1.07-3.12.61-.77.96-1.8 1.88-2.14 1.04.4.75 2.02 1.47 2.79l1.28 1.38c.37.4-.42 1.27-.45 1.86Z" style="fill:#4c4947"/><path d="M57.8 82.81c.02-1.52.56-1.46 1.08-.05.48.87.68.62.62-.73l.56-.34c.78-.43 1.41.2 1.92.83.36.6.36 1.5 0 2.69-.86-.3-.92-.15-.16.46.18-.05.5.14.55.32s.05.66-.01.84c-.69.26-.95.62-.98 1.38l-.21 1.14c-.13.73-.94-.32-1.26-.35l-4.13-.79c-.25.36-.8 1.76-1.5 1.04-.04-.47.26-1.03.19-1.22-.09-.21-.42-.44-.64-.52l-.11-1.31c.49-.81.74-1.41.75-1.82-.13-2.27.37-3.3 1.49-3.09.14-.51.34-.51.6-.04.54.29.96.81 1.25 1.57Z" style="fill:#736f6c"/><path d="M55.95 81.28c-1.81 1.7.44 3.4-.12 4.17-.38.52-1.44.68-2.12.75l-1.19.83c-.14-.9.07-1.35.14-1.77 1.42-.87 1.34-2.6 1.52-4.28.2-.45 1.69-.11 1.78.32Zm4.12.41c.06.49.06 1.26-.08 1.84-.1.42-1.05.82-1.46.88-.52-.64.33-1.27.35-1.65l.09-1.71c.42.09.81.3 1.09.64" class="cls-123"/><path d="M57.44 84.05c.23-.02.54.38.69.51.28.26.31.89-.05 1.11-.26.15-1.55.01-1.4-.25l.77-1.38Z" style="fill:#86827f"/><path d="M62.36 86.82c-.16.48-.9.95-.98 1.38-.22-.29-.21-1.23.08-1.47.19-.15.72 0 .9.09" class="cls-22"/><path d="M57.8 82.81c-.59-.36-.95-.95-1.25-1.57l.67-.11c.34.47.48 1.11.59 1.67" class="cls-123"/><path d="M33.67 62.43a6.3 6.3 0 0 1-1.93 2.72c-.3 1.07-.74 1-.83-.12-.54-.55-1.11-.95-1.73-1.21l.07.76c1.23.18 1.07.98-.19 1.05 0 .51-.15.53-.45.09l-.43.09c-1.11-1.09.52-2.17.63-3.05.32-2.54-.23-4.95 1.65-6.73.17-.31.47-.4.74-.14 1.49 1.48-.06 1.15-.74-.4l.14-1.12c.45-.48.85-1.07 1.08-1.7 2.91-1.79 3.4 3.32 3.48 5.78.04 1.22-.07 4.55-1.48 3.98Z" style="fill:#aca8a5"/><path d="M28.61 65.72c1.23 1.09 1.99 2.6 2.31 4.54l.67.12c1.73-1.54 2.18.41 1.14 1.7.23 1.13.11 1.34-.34.64q1.02 2.1-1.59 2.37l-.27-.83c-1.41-.34-1.14-1.66-1.58-2.85l-1.7-4.56c-.2-.53.5-.96.94-1.03l.43-.09Z" style="fill:#9e9996"/><path d="M30.46 56.03v-.54c1.35-.24 2.11.48 2.68 1.62.54 1.07-.16 1.87-.62 2.9-.26.59.32 2.15-.79 2.35-.09-.38-.2-1.45-.48-1.55s-.79.31-1.45.32c.8-1.26 1.23-2.58.36-3.72.45-.29.67-.62.72-.93.02-.17-.28-.45-.43-.46" style="fill:#b8b5b2"/><path d="m33.99 74.85-.19 1.09c-2.29 1.54-3.58 1.58-3.87.1l.59-1.79c.3.17 1.41.1 1.4-.33l-.02-1.35c0-.27.4-.53.83-.5.68.5 1.28 1.88 1.26 2.78" style="fill:#928d8b"/><path d="M36.3 65.71c.77.23.68 1.05-.15 1.16-.4.22-1.01.19-1.83-.07l.67 1c-.66 2.03-1.06 3.9-.48 6.01.47.19.4.29-.15.33-.07.26-.32.48-.36.71-.79-.57-1.11-1.9-1.26-2.78-.05-.29.05-.9-.2-1.27-.17-.25-.52-.44-.94-.42-.5-.17-.49-.37 0-.61.49-.65.62-1.72.39-3.2l.63-.3c.7-1.15 1.48-1.91 2.33-2.29.82-.16 1.23.92 1.36 1.73Z" class="cls-6"/><path d="m33.8 75.94-.71 2.92c-1.59 0-3.66-1.31-3.16-2.82.23.07.68.4.94.32.46-.15.89-.69.93-1.72.83.25 1.35.87 2 1.3" style="fill:#888381"/><path d="M37.98 75.34c-.67.81-1.29 1.63-2.32 1.87-.08-1.13-.75-1.95-1.31-3.06 1-1.23 3.02-.07 3.63 1.19" class="cls-118"/><path d="M35.02 49.79c.21.37.79.84.53 1.31l-.93 1.63c.43.85 1.02 1.84.98 2.78.82 0 .8.29-.07.89.43 2 .55 5.18.23 7.27-.02.14-.38.23-.82.31-.19.72-1.48 1.37-1.08 2.99l-1.25-.7c-1.09-1.06.06-2.78 1.06-3.85 2.46-3.42.75-9-1.99-9.76.54-1.45.52-2.87 1.65-4.11l-.35 3.27 2.04-2.04Z" style="fill:#94908d"/><path d="M37.81 69.18c.74.95 2.21 2 2.59 3.22.51 1.61-1.77 2.16-2.42 2.93-1.38.21-2.38-.51-3.63-1.19.09-.01.09-.23.15-.33-.39-1.3-.6-5.5.72-5.79.2-.05 2.88.46 2.58 1.15Z" style="fill:#635e5c"/><path d="M46.32 69.66c.42.45.95 1.09 1.07 1.64.06.3-1.12 4.24-2.76 4.17l-.08-.54c-.63-.31-.93-.83-.9-1.55-1.14.4-1.25.9-.33 1.52-.09.48-.4.65-.7.63-.24-.02-1.07-.06-1.32-.28.11-1.17.28-2.96.99-3.78.34-.29 1.19-.35 1.21-1l.02-1.55-.3-.08.11-1.09c.27.62.49.77.49.77 1-.62 1.81.41 2.51 1.15Z" style="fill:#8c8785"/><path d="m37.36 67.95.41-.13.03 1.36c-.37-.47-1.59-.56-2.12-.29-1.72.89-.38 3.8-1.18 4.93-1.25-1.12-.76-2-.69-3.5.06-1.35-.47-2.39.51-3.5.94.14 1.95.52 3.04 1.15" class="cls-118"/><path d="m44.56 74.92-1.23-.03c-.72.17-1.31.14-1.66-.27.53-1.02.68-1.88 1.26-2.21.42-.24 1.28-.25 1.86.34.41.42 0 1.54-.23 2.18" style="fill:#95908e"/><path d="m65.94 52.06-1.43-.54c-.13-.05-.32-.04-.46-.05v-2.31c.95.75 1.88 1.7 1.89 2.89Z" class="cls-110"/><path d="M73.25 66.75c.03.79.08 1.77-.11 2.49-.47 1.84-1.03 3.57-2.25 5-.53 2.09-3.84 1.35-3.93-1.22-.35-.04-.55-.38-.61-1.03-.65.27-.78-.03-.42-.64-.81-.48-1.32-1.06-1.54-1.74.36-1.84.99-2.76 1.91-2.74.64.76.82 1.59 1.01 2.73.22 1.34 2.06 3.23 3.44 2.42s.66-4.49 2.49-5.28" style="fill:#8c8885"/><path d="M66.96 73.02c-.03.43-.13.99.07 1.46-.83-.63-.82-1.65-.68-2.49.26.23.64.61.61 1.03" class="cls-136"/><path d="m69.46 72.46.28.4-.28.28-.28-.28z" class="cls-74"/><path d="M49.69 44.78c.61 1.03 1.16 1.25 1.64.65.83.37 1.46.9 1.87 1.58.08.15.09.34.06.5q.6.375.75.57c2.9 1.68-.21 3.26-1.3.4-1.12.34-2.47.21-4.06-.42.4 1.27-.13 2.23-1.59 2.89-1.28.99-1.7.26-.75-1.05-.66-.75-.63-1.17.08-1.27l-.54-.63c-.24.47-.44.43-.59-.09-.07-.97-1.1-1.72-1.65-2.46 1.81-.58 2.34-2.64 4.62-2.94.3 1.44.93 1.91 1.46 2.26Z" class="cls-57"/><path d="m44.62 40.12-2.78 7.3c-.44.71-2.59.39-2.25-.42.45-.98 2.04-1.41 2.3-2.31-.7-.66-.43-1.3.5-1.17-.03-.14-.2-.69.64-.79-.5.21-.75.14-.85-.37l.05-.59c.72-.72 1.36-1.58 2.39-1.65" style="fill:#6f6b68"/><path d="M57.85 57.17c-.5.91-1.13.72-1.87-.58-.95.05-1.08-.42-.45-1.13l-.44-1.19c-.45-1.55-.09-3.02.97-4.22-.93-.38-1.61-1.04-2.04-1.97-.52.67-1.15.01-.75-.57.63.2 1.32 0 1.72-.56l.5-.03c5.05-.52 8.73 4.58 2.2 5.54l-.1 1.73c.75 1.15.84 2.14.27 2.98Zm-4.64-10.16c-1.8.41-3.16-.89-3.52-2.23.17-.2.93.02.8.17-.15.16-.32.92.55.75-.7-1.48-.66-2.84.77-3.41 1.03-.41 2.71-.41 3.13 1.35.29 1.2-.87 2.78-1.73 3.38" class="cls-29"/><path d="m44.71 38.42.66-.64c.4-.09.87-.08 1.15.48l-1.8.15Z" class="cls-127"/><path d="m43.03 42.73-1.22.19c.13-.15.35-.36.37-.56.54-.36-.23.83.85.37" class="cls-73"/><path d="M41.81 42.91c-.07.39.22.68.58.61.09.42-.41.85-.5 1.17-.4.09-.69.29-1.04.56-.33-1.19.05-2.33.96-2.33Z" class="cls-73"/><path d="M36.69 49.22c-.62-.55-.11-1.41.56-1.7-.13.54.18 1.44-.56 1.7" class="cls-7"/><path d="m65.18 71.35.48 2.43-5.74-.7c-1.55.16-1.61 0-.45-1.07l5.7-.67Z" class="cls-132"/><path d="m59.48 72.02.45 1.07c-.29-.03-.92.1-1.02.36l-.54 1.45c-.19.5-.93 0-1-.36-.08-.39-.03-.86.15-1.29.12-.61-.5-1.28-1.05-1.92 1.4-.8 2.08.81 3 .7Z" class="cls-15"/><path d="M71.26 77.72c.03.32-.22.81-.37 1.09-.33.6-.5 1.25-.5 1.87-1.05.5-2.18 1.41-2.29 2.57l-.35.65c-.85-.03-1.52.82-1.99 2.54 1.19 1.56-1.16 3.19-2.7 2.18-.58-.04-.65-2.55-.6-3.21.01-.15.19-.29.42-.43-.3-.74.03-1.41.99-2.03-1.1 0-1.87-.03-2.07-1.32-3.25.03-1.2-4 1.13-1.05l1.44.1c-.19-1.36 2.66-2.38 4.15-2.31.56-1.22 1.77-1.91 2.74-.65" class="cls-38"/><path d="M68.09 83.25v.83c-.81.51-1.38 1.55-1.77 2.42l-.56-.06c.58-.61-.03-1.68.02-2.33.11-1.43 1.61-1.25 2.31-.85" style="fill:#635f5d"/><path d="M62.88 84.98c-.37.19-.81.27-1.05.69-.16.18-.73.49-.79.25l-.25-1.07c-.22-.95.9-1.56 1.2-2.33-.28-.22-.28-.6-.19-.88l4.54.39c-.54 1.52-2.03 2.24-3.45 2.96Zm.89-.01.28.42-.28.28-.28-.28z" class="cls-22"/><path d="m47.46 85.66-1.62-.62c-.36-.14-.56-.72-.9-.8-.36-.09-1.18.02-1.44.22-1.59-.11-1.4-.95.13-1.2-.22-1.5 2.38-2.43 3.72-1.43.9.67 1.98 4.35.11 3.84Z" class="cls-92"/><path d="M56.72 72.78c.52.53.52 1.8-.05 2.24.46 1.38-.34 2.64-1.88 2.14-.42-.83-.9-1.6-.97-2.78-1.64.38-1.97 1.47-2.46 2.55-.62 1.36-2.85.55-3.77.84-2.76.89 1.12 4.41 1.04 5.79-.07 1.15.73 1.72 1.62 2.51l-1.92.52c-.39.11-.73-.59-.88-.93.5-.9.81-2.71-.25-3.17-.31.1-1.27.48-1.51.36-.22-.12-.27-.57-.13-1.16-.85.31-1.34.99-1.95 1.56-.68.86-1.02.59-.64-.48-.39-.3-.89-.5-1.11-.98-.98-1.08-.37-2.42 1.17-1.96l1.21-.96c-.15-2.9 2.24-5.32 5-3.44-.18-1.16.56-2.8 1.61-3.4 1.19-1.72 5.78-2.07 5.84.74Z" class="cls-15"/><path d="M52.02 70.28c-.04.71-.42 1.3-1.13 1.76.4.93-.04 2.15-.83 2.96.27.42.6.6.97.74-1.43 1.51-2.5.66-3.68 0-.98-.56-2.06.82-2.34 1.52-.49 1.21-.25 2.18 1.1 3.28-1.26.79-1.8 1.27-3.1 1.54l.97-1.81c.13-.23-.76-.52-.92-.42l1.13-1.43c.41-.52-.59-1.41-1.27-1.64 1.35-.08 1.38-1.03 1.73-1.32 1.07-1.81 1.63-3.75 1.68-5.81-.76-.81-.97-1.42-.62-1.84 1-1.91 2.28-1.6 3.82.94 2.85-.15 3.68.35 2.5 1.52Zm-.22 4 .28.28-.28.38-.28-.38z" class="cls-92"/><path d="M31.59 69.77v.61c-.44.54-.67 1.15-.66 2.12-.48-.12-1.15-.57-1.09-.78l.41-1.33c-.84-1.65-2.22-2.95-1.64-4.67l.45-.09c.16-1.55 2.33-1.11 1-.22l.85-.38.83.12c.4.89.71 3.77-.15 4.63Z" class="cls-103"/><path d="M32.61 66.28c-.46.67.34 1.87.03 3.07-.09.34-.58.6-1.05.42 0-1.53-.36-3.15.15-4.63.16-.48.13-1.02-.65-1.88.93-.65 1.81-.59 2.58-.84.32.19.56.64.56.9 0 .47-.55.77-1.06 1.21-.4.34-.28 1.36-.56 1.75" style="fill:#9d9996"/><path d="M30.91 65.03c.17.21.09.99-.17.94l-1.68-.33.19-1.05-.07-.76c.16-.76.99-1.11 1.28-.68.5.73.55 1.29.45 1.89Z" style="fill:#bab6b3"/><path d="M29.25 64.58c-.5-.12-.39-.53-.07-.76z" class="cls-103"/><path d="M36.15 66.87c.49.26.91.6 1.21 1.08-1.14.33-2.18-.38-3.04-1.15.23-.26.35-.71.87-.44l.97.51Z" class="cls-67"/><path d="m43.56 51.72-1.14 2.53c-.31.2-.38.44-.11.71.51.13.48.29-.05.46l.72 1.21c.51.1.5.28.02.53q-.9 1.035.06 1.38c.89 1.06.45 1.94-1.34 2.63.44.68.84 1.44 1.19 2.27 1.56.34 1.42 1.12-.13 1.39-.72.38-1.56.81-2.12 1.52.36.69-.03.88-1.17.56-.23-.54-.32-1.25-.77-1.57-.68.2-1.59.4-1.38 1.07l.43 1.39c.02.31-.13.34-.41.13-.88-.12-1.28-.48-1.21-1.08-.05-.37.03-.81.15-1.16-.9-1.23-.77-3.56-.04-4.82.79-1.38 1.96-4.02-.24-4.5-.09.5-.25.5-.48.02l.07-.89c.32-.04.56-.31.56-.65.86-.98 1.59-2.15 2.21-3.5l1.9-.56c.68-1.48 1.77-1.17 3.28.93" style="fill:#797573"/><path d="M40.66 66.36c.54.25 1.05 1.21.52 2.41-.64-.95-.94-1.42-1.69-1.85 0 0-.05-.91.2-1.13.13-.12.46.18.68.74.04.11.28.22.29-.17" style="fill:#756f6e"/><path d="M42.96 48.63c.56 1.08.75 2.11.6 3.09-.98-.68-1.32-1.3-2.22-1.02.02 1.49-.71 2.72-1.74 2.72 1.13-.86 1.38-1.46-.09-1.66-1.07.97-1.26 2.21-1.16 3.74-.95.04-1.57-.29-2.18-.65-.58-1.65-.18-3.44.5-5.02 1.91 1.05 3.85-.1 5.09-1.7l1.2.49Z" class="cls-7"/><path d="M36.26 60.89c-.07 1.65.55 3.29.04 4.82-.91-.19-1.41-.89-1.36-1.73.64-2.38.41-5.16.59-7.58l.48-.02c1.96.18 1.36 3.4.24 4.5Z" class="cls-147"/><path d="M42.99 57.17c1.23.86 1.24 2.35.38 3.54.36 1.19-.87 1.03-1.66.47.31-.44.62-.72 1.58-1.4l-3.79-1.73c1.14-1.32 2.38-.94 3.5-.88Z" class="cls-51"/><path d="M36.26 60.89c.06-1.48.2-3.05-.24-4.5.28-.51.81-.75 1.47-.46 1.09.48 1.04 4.48-1.24 4.96" class="cls-7"/><path d="m43.36 62.18-.46 1.28c-.77-.25-1.46-.25-2.21-.22l1.02-2.05q1.665.09 1.65.99" class="cls-67"/><circle cx="40.12" cy="64.6" r=".64" class="cls-67"/><path d="M49.47 60.06c-.77 1.12-.64 2.26.34 1.08-.34-1.62 1.63-2.38 2.68-1.17l1.27-.36c1.77-1.28 3.22 1.91 1.19 2.79-.15.75-3.08 5.21-3.35 5.4-.4.28-2.34-.09-2.87-.42l-.93-2.22c-3.06 2.16-1.25-2.15-4.44-2.98-.52-.14-1.45-.1-1.65-.99.62-.11 1.18-.24 1.66-.47 1.33-.65 3.39.13 2.55-.93-.15-.19-.51-.37-1.15-.6.52-.43 1.13-.65 1.76-.85l.87.37c.42-3.86 5.33.15 2.08 1.35Z" class="cls-134"/><path d="M64.05 51.48c.06-.52.22-.48.46.05.66 2.03 1.16 4.39 2.38 6.15l-.47 6.94c-.05.96.64 1.65-.11 2.27l-.89.17c-.4 2.44-1.34 3.49-2.83 3.14l-.16.45c-.34 1-1.88 1.08-2.84.76q-1.155-.09-2.67-.78c-.8-2.12-1.56-2.79-2.29-2.01.03 1.92-1.28 3.28-2.6 1.66-.47-1.52-2.49-.82-3.95-.51-.35-.46.16-1.21.32-1.43s-.37-.97-1.05-.79c-.57.17-.86 1.45-1.01 2.1-1.2.82-1.9-.12-2.51-1.15l-.29.4c2.3.12 1.02 3.87-1.23 2.54-.23-.91.67-2.27-.22-3.34 0-.49 1.17-.76 1.3-1.18.2-.64-.31-1.62-.6-2.09l.13-1.39c-1.35-.49-.89-1.42.46-1.28 1.35-1.9 2.9.65 3.35 2.24 1.99-.54 3.66 1.62 2.03 2.96q3.03 1.455 3.9-1.53c1.05-1.72 2.01-2.32 2.88-1.81l.6.53c1.57 1.78 2.83 2.46 3.77 2.05l1.03.88.12-.33c-1.4-.11-1.7-.79-1.22-2.04l-.38.37c2.04 2.05-1.21 2.19-2.28-.24l-1.05-.68-.6-.53c-2.2-.81 2.71-3.03 3.36-1.64 1.25-.41 2.63-.51 4.12-.31.12 2.03 2.32-.59 1.21-2.36-1.38-.83-1.74-1.79-1.09-2.87-1.17-2.54-2.54-5.58-2.48-8.34 0-.43.79-.72 1.33-.9.65 1.91.56 2.94 2.07 3.85Z" class="cls-120"/><path d="M66.3 66.88c-.65.72-.83 2.42-.77 3.31.45-.05 1.24.21 1.36.36.1.12-.33.42-.49.51l-.48.29h-.75l-.49 1.2c-2.03.24-3.77.06-5.21-.53-.48-.24-.43-.45.1-.62.94-.24 1.92-.26 2.84-.76l-.77-.58c.4.55.9.05.46-.32l.46.46 2.09-2.77c0-.37-.27-1.28.22-1.77.23-.23.91 0 1.15.57l.27.66Z" class="cls-136"/><path d="M59.58 71.4c-.03.17-.08.42-.1.62-.21.67-.86 1.07-1.96 1.21-.28-.07-.58-.27-.79-.46-1.42-1.25-3.93-.85-5.84-.74-.19-.45-.4-.68-.09-1.07.39-.49.8-.6 1.23-.7.49-.11.99-.23 1.53-.66-.49-1.34.42-2.32 1.65-2.5 1.97-.3 2.09 3.78 4.39 4.29Z" style="fill:#75706e"/><path d="M55.98 56.59c.68.11 1.3.3 1.87.58L59 59.02c.13.83.16 1.64.1 2.43l-.22.95c-1.9.87-3.51.05-3.36 1.64-2.11 1.05-2.43 4.09-4.35 4.42-.85.15-2.09-.27-2.43-1.08.82-.26 1.68-.43 2.58.05-.18-1.74.87-2.6 2.08-3.14.07-.52.06-1.15.3-1.34.29-.23.94-.55 1.26-.54 1.15-1.85.77-3.59-.5-5.45.04-1.36.56-1.3 1.52-.36Z" class="cls-79"/><path d="M56.12 64.56c-.32.23-.8-.15-.6-.53.34-.12.67.11.6.53m0 0c.37-.26.99-.59 1.35-.46.54.19.87.79 1.16 1.51-.07.77 1.15 1.01.81-.12l-.45-.25c-.15-.42.57-.39.36-.73l.47.61c.81.32 1.14 1.2 1.22 2.04l1.01.6c-.77-.8-1.49-.41-.54.57l-.58-.83c-.68.26-1.49.3-2.08.81l1 .75c.37.28.06.62-.13.69-2.11.76-.53-3.47-4.16-3.68.4-.43.54-.95.57-1.49Z" class="cls-79"/><path d="M46.39 48.64q-.33-.27-.54-.63c.28.11.48.34.54.63" class="cls-12"/><path d="M46.31 49.91c.08.43.52.79.75 1.05.16.61.38 1.16.67 1.63 1.09.21.97.63-.18.62-.76.96-1.09 2.23-.98 3.8 1.59.15 1.47.95-.05 1.31l-.23 1.21c1.75 1.68-1.96 3.07-2.92 1.18-.59-1.08-.72-2.26-.38-3.54l-.02-.53-.72-1.21c.05-.11.06-.33.05-.46-.27-.25-.2-.52.11-.71 1.32-.91 1.2-2.87 1.07-4.2l.73-.41 1.13-.23c.31-1.17.81-.61.96.5Z" style="fill:#8e8b88"/><path d="m44.22 49.64.27 3.83c.04.58-.78 1.15-1.19 1.2-.27.03-.66-.22-.89-.42-.37-.16-1.11-1.54-.56-2 .32-.27.64-.69 1.71-.53-.93-1.04-.95-1.87-1.99-2.28l1.4-.81 1.26 1.01Z" style="fill:#817e7b"/><path d="m46.39 48.64-.08 1.27c-.05-.28-.68-.55-.96-.5l-.09-1.49.59.09z" style="fill:#777471"/><path d="M42.98 56.64c-.18-.04-.65-.3-.85-.54-.14-.16-.12-.46.13-.68.51.19.7.69.72 1.21Zm-.67-1.68c-.62-.09-.48-.79.11-.71z" class="cls-51"/><path d="m47.55 53.22.12 2.93c.02.45-.17.76-.36.84s-.5.09-.74.03c-.98-1.14-1.3-2.89-1.18-4.31 1 .5 1.59.55 2.16.51" style="fill:#9d9b97"/><path d="m45.54 49.78.34.28-.34.28-.28-.28z" class="cls-57"/><path d="M55.53 55.46c-.61-.1-.56-.72-.44-1.19.27.3.31.89.44 1.19" class="cls-79"/><path d="m58.65 46.92.85.04c-.05-.47.38-.71 1.26-.71.44.32.97.68 1.21 1.38-.84 2.26 1.02 6.26 2.49 9.39-.23.35-.64.82-.69 1.07-.05.27 3.29 1.6-.04 6.88-.67-.43-1.08-.5-1.8-.48.72-.85.24-2.42-.79-2.39l-1.07 1.02c-.19.18-.92-.62-1.18-.73-1.46-.26-1.26-.84.22-.95.59-.59.63-.29.52.51.73-.93.95-1.62.34-2.59-.31.02-.63-.1-.96-.35-1.52.86-2.11-.65-1.15-1.85-1.07-1.72-2.18-3.21-.89-5.5.98-.35 2.31-.4 3.32-1.2-1.34-3.72-3.09-2.44-4.81-3.55.96-.56 2.11-.05 3.18 0Z" style="fill:#7c7875"/><path d="M60.76 46.25c-.06.71-.74.74-1.26.71l-.21-.88c-.05-.22.53-.45.74-.05.08.15.31.37.74.22Z" class="cls-38"/><path d="M59.62 61.96c-.9-1.32-.79-2.19.34-2.59.61.07 1.09.72 1.51 1.07.3-.27.89-.95 1.21-.96.57-.02 1.83 1.74 1.84 1.43-.04 1.19-2.48.05-4.9 1.05" style="fill:#746f6c"/><path d="M59.96 59.37c.07.77-.01 1.56-.34 2.59-.08-.48-.4-.49-.52-.51-.32-.42-1.37-.91-.99-1.49.25-.38-.13-1.24.88-.94.06-.06.56-.57.78-.56s.19.87.18.91Z" class="cls-120"/><path d="M61.19 54.35c-.54.82-.58 1.27-.82 2.03-.16.5-1.73.07-1.69-.35l.18-2.01c.66-.41.67.28.84.4.34.24.96.05 1.49-.07" style="fill:#706b69"/><path d="M59.72 51.54c.07-.42.85-.17.91.21.03.21.03.67-.21.81-.19.11-.81-.3-.7-1.03Z" class="cls-29"/><path d="m60.92 46.87.28.34-.28.28-.28-.28z" class="cls-138"/><path d="M65.26 78.85c-.28-.29-.49-.26-.62.07-.11.07-.23.25-.46.31-.19.05-.51.02-.65-.21-.22-.73-.65-.83-.94-.88-.46-.09-.71-1.36-.17-1.46 1.68-.32 2.93-.84 3.27-2.37.68.78-.38 2.08-.26 2.81.32.92.4 1.67-.17 1.73" class="cls-132"/><path d="m65.26 78.85-.62.07c-.2-.67.62-.84.62-.07m-1.97-1.11c-.53-.25-.21-.84.38-.66.19.33-.05.54-.38.66" class="cls-41"/><path d="m63.29 77.74.38-.66c.53.25.21.84-.38.66" class="cls-22"/><path d="M49.47 60.06c-.08.3.21.81.34 1.08.03.33.01.64-.04.87-.08.41-.56.49-.81.32-.18-.12-.41-.55-.56-.81-.93-.24-.75-.67-.6-.97.39-.75 1.02-.93 1.66-.5Z" style="fill:#8d8987"/><path d="M52.71 48.49c.12.98.93 1.39 1.87.81.92 1.72.92 3.67 0 5.83.61 1.36 1.46 4-.82 4.47-.07.75-.53 1.39-1.04 2.26-.26.46-.8.28-.99-.1-.16-.33-.11-.69.23-1.52l-2.16.89c-1.14.54-1.46-.4-.34-1.08.27-.86-.09-1.97-1.4-2.21.17.44.6 1.07.49 1.37-.14.39-1.05.31-1.36.3-.49-.03-1.01-.41-.68-1.18l.05-1.31c-.24-1.96.09-3.23.98-3.8.81-.19 1.56.17 2.24 1.08 3.1-1.06.22-4.89-.87-2.27l-1.19.57c-.25.06-.87.02-1.07-.28s.35-1.05.4-1.35l.71-1.56-.74-1.85c1.54-1.36 4.21-.21 5.69.93" style="fill:#a7a3a0"/><path d="m55.09 54.27.44 1.19c.33.23.68.69.45 1.13-.25.06-.77.08-.76.54.84.1 1.25.6 1.38.94.1.28.05.82-.27 1.38l1.28 1.54c-1.2.87-1.81 1.42-2.64 1.4.08-1.1-.27-2.2-1.19-2.79.06-.77.23-1.47.75-2.47-1.46-.15-2.11.27-2.94.42-.11-1 .09-1.52.44-1.82.32-.27 1.02.08 1.38.89.2.19 1.06-.64.92-.84l-.81-1.15c-.15-.22.97-.66 1.16-.92.24-.34-.51-.96-.49-1.45l.06-1.61c.02-.56-1.91-1.08-1.76-1.71.05-.22.12-.32.22-.46.37.3.7 1.18 1.97.52-.47-.15-.7-.5-.66-.93 1.17.18 2.35.63 3.7 1.62-1.31 1.79-2.23 2.96-2.63 4.56Z" style="fill:#989492"/><path d="m47.55 53.22.18-.62c.09-.74 0-1.62.42-2.01.74-.68 3.74-.77 3.67-.26l-.19 1.41c-.03.2 1.09-.28 1.32-.17.17.07-1.05 3.97-3.28 3.85-1-.05-1.51-1.2-2.13-2.2" style="fill:#adaaa6"/><path d="m48.38 56.62.28.28-.28.48-.28-.48z" class="cls-134"/></g></svg>