<svg viewBox="0 0 1000 800" xmlns="http://www.w3.org/2000/svg">
  <path d="M 0 0 L 0 0 L 5 16.822359630123174 L 10 7.839420200716631 L 15 14.539190003370095 L 20 6.1454235837300075 L 25 14.295316580464714 L 30 12.20884285503871 L 35 10.94807104514075 L 40 10.345116651276385 L 45 14.680696802361126 L 50 17.1196804502506 L 55 3.301425039210244 L 60 20.3579159587116 L 65 21.336575704722236 L 70 11.508067659724475 L 75 4.47166439056673 L 80 20.680237475617105 L 85 11.819349502507066 L 90 23.187603327014585 L 95 10.714865541237941 L 100 8.52201467821942 L 105 20.388473786297254 L 110 1.982445343451218 L 115 22.060663249703794 L 120 16.52939600436639 L 125 18.97586459485865 L 130 21.553758871950777 L 135 19.16346668959477 L 140 16.09236715177758 L 145 17.36277257246911 L 150 3.1000115417620577 L 155 9.718325985468255 L 160 16.287896610174357 L 165 6.234172872336785 L 170 18.903961880314455 L 175 12.787146641744584 L 180 17.37237889588414 L 185 14.397148030011522 L 190 6.782913955134973 L 195 6.58073115229854 L 200 14.802156341384034 L 205 9.281075907655918 L 210 20.696425728510803 L 215 9.26551933182509 L 220 5.136072944440002 L 225 11.327455163545892 L 230 19.187250312866126 L 235 16.74644032725155 L 240 14.815094889218017 L 245 8.363042535989962 L 250 9.15406588525002 L 255 5.195122166833244 L 260 17.69937404423331 L 265 16.779492543410015 L 270 13.10896262892129 L 275 6.429769873470832 L 280 9.129280736560759 L 285 12.472994811196259 L 290 11.434360125399508 L 295 7.7123311148170615 L 300 4.991426525822931 L 305 12.47987120698781 L 310 15.730781741922328 L 315 20.902271695697436 L 320 11.028831491848905 L 325 20.957071228340283 L 330 9.145148146817519 L 335 12.58262770017609 L 340 11.696007109358106 L 345 16.46942443858279 L 350 13.848807491094703 L 355 16.03609573192956 L 360 14.120860378634461 L 365 13.99097568993966 L 370 13.031507604644048 L 375 8.008204892103095 L 380 8.94045235061185 L 385 16.218717213773743 L 390 15.716161760929026 L 395 18.763873906946174 L 400 8.31744446506491 L 405 17.737239810894607 L 410 16.516799359794163 L 415 11.337543330528206 L 420 23.643265535724822 L 425 15.662004564460403 L 430 14.94147664535376 L 435 6.342296969332892 L 440 6.775226315794498 L 445 11.043107748346301 L 450 14.305740289416917 L 455 11.67298692355871 L 460 13.912760889870697 L 465 12.041404626421581 L 470 17.691178351060444 L 475 7.754190205737359 L 480 21.70174279841831 L 485 14.437972866126074 L 490 9.104791696015582 L 495 12.25632333305839 L 500 15.796966911202617 L 505 1.390077171659243 L 510 10.957606490574108 L 515 17.852325758303778 L 520 21.053468776581212 L 525 18.39779452437142 L 530 19.515101424908607 L 535 3.966350391110609 L 540 13.134676049539848 L 545 16.354140371099675 L 550 13.425127759119277 L 555 14.982074911122254 L 560 17.90988843818809 L 565 10.340410133458136 L 570 12.277297420550894 L 575 13.740671997145455 L 580 8.888382962650212 L 585 5.501025612402373 L 590 12.414972928067982 L 595 10.913882893601112 L 600 6.856113875104484 L 605 13.60381056989354 L 610 9.087042053624828 L 615 7.833212061459562 L 620 14.176217698495748 L 625 5.160676901818988 L 630 17.10259381706237 L 635 10.043590140203378 L 640 6.752000977717216 L 645 14.228014486625398 L 650 13.319353316892375 L 655 19.957132763892673 L 660 14.463383432348564 L 665 9.693139528853862 L 670 10.286192411210777 L 675 4.280772882329984 L 680 7.1759458572705626 L 685 7.235218724767947 L 690 20.49093647380687 L 695 10.060257846300829 L 700 16.218265954084927 L 705 14.849491215145463 L 710 13.716574229763934 L 715 10.990381779074596 L 720 5.636937494041376 L 725 20.394709645315743 L 730 10.28553496396853 L 735 9.582251829542656 L 740 16.591902390682662 L 745 22.41488943141121 L 750 8.477296426608518 L 755 16.55588278849791 L 760 14.964120323184034 L 765 11.561735527837982 L 770 16.52411963788836 L 775 15.647111123125796 L 780 7.265313631860408 L 785 19.000795810625277 L 790 13.468478851996224 L 795 17.541936006509786 L 800 19.2939632474463 L 805 14.255289285492836 L 810 11.144566768789446 L 815 5.638732163261011 L 820 10.819007741483802 L 825 6.2766314608597895 L 830 15.46198987383832 L 835 5.963319369193414 L 840 22.004381611295685 L 845 10.821542100377428 L 850 6.954721062702447 L 855 7.552018235201103 L 860 16.61596575599134 L 865 19.425282060728932 L 870 4.7598253269643465 L 875 25.068232870316933 L 880 13.429240924106125 L 885 10.791939422342693 L 890 5.5123871828755 L 895 5.953795099712806 L 900 15.868788100190159 L 905 16.00383566610617 L 910 3.059531645685638 L 915 12.449587000734255 L 920 12.201523883886694 L 925 15.789994878618927 L 930 15.6225777744271 L 935 10.838840408223405 L 940 18.818619306307482 L 945 11.256076400786696 L 950 9.825434830881932 L 955 21.26969613232859 L 960 17.217549150545892 L 965 14.55215255501571 L 970 12.208883218551136 L 975 18.3552886900452 L 980 6.751430406193322 L 985 11.701168217805389 L 990 14.438011424681463 L 995 18.10712538606822 L 1000 5.262096241685867 L 991.4779853217806 0 L 979.6115262137027 4 L 998.0175546565488 8 L 977.9393367502962 12 L 983.4706039956336 16 L 981.0241354051414 20 L 978.4462411280492 24 L 980.8365333104052 28.000000000000004 L 983.9076328482224 32 L 982.6372274275309 36 L 996.8999884582379 40 L 990.2816740145317 44 L 983.7121033898256 48 L 993.7658271276632 52 L 981.0960381196855 56.00000000000001 L 987.2128533582554 60 L 982.6276211041159 64 L 985.6028519699885 68 L 993.217086044865 72 L 993.4192688477015 76 L 985.197843658616 80 L 990.7189240923441 84 L 979.3035742714892 88 L 990.7344806681749 92 L 994.86392705556 96 L 988.6725448364541 100 L 980.8127496871339 104 L 983.2535596727485 108 L 985.184905110782 112.00000000000001 L 991.63695746401 115.99999999999999 L 990.84593411475 120 L 994.8048778331668 124 L 982.3006259557667 128 L 983.22050745659 132 L 986.8910373710787 136 L 993.5702301265292 140 L 990.8707192634392 144 L 987.5270051888037 148 L 988.5656398746005 152 L 992.2876688851829 156 L 995.0085734741771 160 L 987.5201287930122 164 L 984.2692182580777 168 L 979.0977283043026 172 L 988.9711685081511 176 L 979.0429287716597 180 L 990.8548518531825 184 L 987.4173722998239 188 L 988.3039928906419 192 L 983.5305755614172 196 L 986.1511925089053 200 L 983.9639042680705 204 L 985.8791396213655 208 L 986.0090243100603 212 L 986.968492395356 216 L 991.9917951078969 220.00000000000003 L 991.0595476493882 224.00000000000003 L 983.7812827862263 227.99999999999997 L 984.283838239071 231.99999999999997 L 981.2361260930538 236 L 991.6825555349351 240 L 982.2627601891054 244 L 983.4832006402058 248 L 988.6624566694718 252 L 976.3567344642752 256 L 984.3379954355396 260 L 985.0585233546462 264 L 993.6577030306671 268 L 993.2247736842055 272 L 988.9568922516537 276 L 985.6942597105831 280 L 988.3270130764413 284 L 986.0872391101293 288 L 987.9585953735784 292 L 982.3088216489396 296 L 992.2458097942626 300 L 978.2982572015817 304 L 985.5620271338739 308 L 990.8952083039844 312 L 987.7436766669416 316 L 984.2030330887974 320 L 998.6099228283408 324 L 989.0423935094259 328 L 982.1476742416962 332 L 978.9465312234188 336 L 981.6022054756286 340 L 980.4848985750914 344 L 996.0336496088894 348 L 986.8653239504602 352 L 983.6458596289003 356 L 986.5748722408807 360 L 985.0179250888777 364 L 982.0901115618119 368 L 989.6595898665419 372 L 987.7227025794491 376 L 986.2593280028545 380 L 991.1116170373498 384 L 994.4989743875976 388 L 987.585027071932 392 L 989.0861171063989 396 L 993.1438861248955 400 L 986.3961894301065 404 L 990.9129579463752 408 L 992.1667879385404 412 L 985.8237823015043 416 L 994.839323098181 420 L 982.8974061829376 424 L 989.9564098597966 428 L 993.2479990222828 432 L 985.7719855133746 436.00000000000006 L 986.6806466831076 440.00000000000006 L 980.0428672361073 444.00000000000006 L 985.5366165676514 448.00000000000006 L 990.3068604711461 451.99999999999994 L 989.7138075887892 455.99999999999994 L 995.71922711767 459.99999999999994 L 992.8240541427294 463.99999999999994 L 992.764781275232 468 L 979.5090635261931 472 L 989.9397421536992 476 L 983.7817340459151 480 L 985.1505087848545 484 L 986.283425770236 488 L 989.0096182209254 492 L 994.3630625059586 496 L 979.6052903546843 500 L 989.7144650360315 504 L 990.4177481704573 508 L 983.4080976093173 512 L 977.5851105685888 516 L 991.5227035733915 520 L 983.4441172115021 524 L 985.035879676816 528 L 988.438264472162 532 L 983.4758803621116 536 L 984.3528888768742 540 L 992.7346863681396 544 L 980.9992041893747 548 L 986.5315211480038 552 L 982.4580639934902 556 L 980.7060367525537 560 L 985.7447107145072 564 L 988.8554332312106 568 L 994.361267836739 572 L 989.1809922585162 576 L 993.7233685391402 580 L 984.5380101261617 584 L 994.0366806308066 588 L 977.9956183887043 592 L 989.1784578996226 596 L 993.0452789372976 600 L 992.4479817647989 604 L 983.3840342440087 608 L 980.5747179392711 612 L 995.2401746730357 616 L 974.9317671296831 620 L 986.5707590758939 624 L 989.2080605776573 628 L 994.4876128171245 632 L 994.0462049002872 636 L 984.1312118998098 640 L 983.9961643338938 644 L 996.9404683543144 648 L 987.5504129992657 652 L 987.7984761161133 656 L 984.2100051213811 660 L 984.3774222255729 664 L 989.1611595917766 668 L 981.1813806936925 672 L 988.7439235992133 676 L 990.1745651691181 680 L 978.7303038676714 684 L 982.7824508494541 688 L 985.4478474449843 692 L 987.7911167814489 696 L 981.6447113099548 700 L 993.2485695938067 704 L 988.2988317821946 708 L 985.5619885753185 712 L 981.8928746139318 716 L 994.7379037583141 720 L 980.7252751134365 724 L 995.9973307870314 728 L 991.0631425797874 732 L 990.2264009474493 736 L 984.4360076250268 740 L 980.9621066549335 744 L 986.8606973995247 748 L 984.0250209800843 752 L 985.5846468115215 756 L 986.0856518285459 760 L 986.8074101783577 764 L 980.6731206316817 768 L 989.3917141706359 772 L 991.6678761749245 776 L 981.8113882567013 780 L 988.481802035642 784 L 990.1428547149499 788 L 984.2181799247373 792 L 991.6119385777074 796 L 991.3029136258592 800 L 1000 795.3999867214134 L 995 782.2925561044485 L 990 782.4016379638806 L 985 790.2541830595737 L 980 787.3066152581487 L 975 782.5563576272486 L 970 789.2670696458845 L 965 786.447824231027 L 960 783.6935378697058 L 955 779.8874868822895 L 950 784.5988660015701 L 945 788.3849692233889 L 940 790.9757394980625 L 935 793.7021249330519 L 930 793.7792174472679 L 925 784.6251029057385 L 920 784.477993270516 L 915 793.2855258451582 L 910 786.3789187208567 L 905 790.3155533541258 L 900 791.3029136258592 L 895 791.6119385777074 L 890 784.2181799247373 L 885 790.1428547149499 L 880 788.481802035642 L 875 781.8113882567013 L 870 791.6678761749245 L 865 789.3917141706359 L 860 780.6731206316817 L 855 786.8074101783577 L 850 786.0856518285459 L 845 785.5846468115215 L 840 784.0250209800843 L 835 786.8606973995247 L 830 780.9621066549335 L 825 784.4360076250268 L 820 790.2264009474493 L 815 791.0631425797874 L 810 795.9973307870314 L 805 780.7252751134365 L 800 794.7379037583141 L 795 781.8928746139318 L 790 785.5619885753185 L 785 788.2988317821946 L 780 793.2485695938067 L 775 781.6447113099548 L 770 787.7911167814489 L 765 785.4478474449843 L 760 782.7824508494541 L 755 778.7303038676714 L 750 790.1745651691181 L 745 788.7439235992133 L 740 781.1813806936925 L 735 789.1611595917766 L 730 784.3774222255729 L 725 784.2100051213811 L 720 787.7984761161133 L 715 787.5504129992657 L 710 796.9404683543144 L 705 783.9961643338938 L 700 784.1312118998098 L 695 794.0462049002872 L 690 794.4876128171245 L 685 789.2080605776573 L 680 786.5707590758939 L 675 774.9317671296831 L 670 795.2401746730357 L 665 780.5747179392711 L 660 783.3840342440087 L 655 792.4479817647989 L 650 793.0452789372976 L 645 789.1784578996226 L 640 777.9956183887043 L 635 794.0366806308066 L 630 784.5380101261617 L 625 793.7233685391402 L 620 789.1809922585162 L 615 794.361267836739 L 610 788.8554332312106 L 605 785.7447107145072 L 600 780.7060367525537 L 595 782.4580639934902 L 590 786.5315211480038 L 585 780.9992041893747 L 580 792.7346863681396 L 575 784.3528888768742 L 570 783.4758803621116 L 565 788.438264472162 L 560 785.035879676816 L 555 783.4441172115021 L 550 791.5227035733915 L 545 777.5851105685888 L 540 783.4080976093173 L 535 790.4177481704573 L 530 789.7144650360315 L 525 779.6052903546843 L 520 794.3630625059586 L 515 789.0096182209254 L 510 786.283425770236 L 505 785.1505087848545 L 500 783.7817340459151 L 495 789.9397421536992 L 490 779.5090635261931 L 485 792.764781275232 L 480 792.8240541427294 L 475 795.71922711767 L 470 789.7138075887892 L 465 790.3068604711461 L 460 785.5366165676514 L 455 780.0428672361073 L 450 786.6806466831076 L 445 785.7719855133746 L 440 793.2479990222828 L 435 789.9564098597966 L 430 782.8974061829376 L 425 794.839323098181 L 420 785.8237823015043 L 415 792.1667879385404 L 410 790.9129579463752 L 405 786.3961894301065 L 400 793.1438861248955 L 395 789.0861171063989 L 390 787.585027071932 L 385 794.4989743875976 L 380 791.1116170373498 L 375 786.2593280028545 L 370 787.7227025794491 L 365 789.6595898665419 L 360 782.0901115618119 L 355 785.0179250888777 L 350 786.5748722408807 L 345 783.6458596289003 L 340 786.8653239504602 L 335 796.0336496088894 L 330 780.4848985750914 L 325 781.6022054756286 L 320 778.9465312234188 L 315 782.1476742416962 L 310 789.0423935094259 L 305 798.6099228283408 L 300 784.2030330887974 L 295 787.7436766669416 L 290 790.8952083039844 L 285 785.5620271338739 L 280 778.2982572015817 L 275 792.2458097942626 L 270 782.3088216489396 L 265 787.9585953735784 L 260 786.0872391101293 L 255 788.3270130764413 L 250 785.6942597105831 L 245 788.9568922516537 L 240 793.2247736842055 L 235 793.6577030306671 L 230 785.0585233546462 L 225 784.3379954355396 L 220 776.3567344642752 L 215 788.6624566694718 L 210 783.4832006402058 L 205 782.2627601891054 L 200 791.6825555349351 L 195 781.2361260930538 L 190 784.283838239071 L 185 783.7812827862263 L 180 791.0595476493882 L 175 791.9917951078969 L 170 786.968492395356 L 165 786.0090243100603 L 160 785.8791396213655 L 155 783.9639042680705 L 150 786.1511925089053 L 145 783.5305755614172 L 140 788.3039928906419 L 135 787.4173722998239 L 130 790.8548518531825 L 125 779.0429287716597 L 120 788.9711685081511 L 115 779.0977283043026 L 110 784.2692182580777 L 105 787.5201287930122 L 100 795.0085734741771 L 95 792.2876688851829 L 90 788.5656398746005 L 85 787.5270051888037 L 80 790.8707192634392 L 75 793.5702301265292 L 70 786.8910373710787 L 65 783.22050745659 L 60 782.3006259557667 L 55 794.8048778331668 L 50 790.84593411475 L 45 791.63695746401 L 40 785.184905110782 L 35 783.2535596727485 L 30 780.8127496871339 L 25 788.6725448364541 L 20 794.86392705556 L 15 790.7344806681749 L 10 779.3035742714892 L 5 790.7189240923441 L 0 785.197843658616 L 11.371118431620744 800 L 7.467353035108317 796 L 9.322044213267873 792 L 20.390871378178872 788 L 6.904271603639245 784 L 15.557530276928446 780 L 16.413736395089984 776 L 13.425922032847666 772 L 9.379245943964634 768 L 12.696705219013893 764 L 3.9366719384270255 760 L 16.968553684605467 756 L 3.900055959616111 752 L 13.681031906389762 748 L 7.640358435044163 744 L 8.545332947769566 740 L 17.969758113749776 736 L 12.063874649649051 732 L 11.028654684141657 728 L 22.52553200886723 724 L 4.60001327858663 720 L 17.707443895551478 716 L 17.598362036119397 712 L 9.745816940426266 708 L 12.693384741851332 704 L 17.443642372751356 700 L 10.732930354115524 696 L 13.55217576897303 692 L 16.30646213029422 688 L 20.112513117710478 684 L 15.401133998429941 680 L 11.615030776611093 676 L 9.024260501937533 672 L 6.297875066948109 668 L 6.220782552732089 664 L 15.374897094261541 660 L 15.52200672948402 656 L 6.71447415484181 652 L 13.621081279143255 648 L 9.684446645874232 644 L 8.697086374140781 640 L 8.388061422292594 636 L 15.781820075262658 632 L 9.857145285050137 628 L 11.518197964358023 624 L 18.18861174329868 620 L 8.332123825075541 616 L 10.608285829364188 612 L 19.32687936831826 608 L 13.192589821642287 604 L 13.914348171454094 600 L 14.415353188478548 596 L 15.974979019915736 592 L 13.139302600475276 588 L 19.03789334506655 584 L 15.563992374973168 580 L 9.773599052550708 576 L 8.936857420212618 572 L 4.0026692129686126 568 L 19.27472488656349 564 L 5.262096241685867 560 L 18.10712538606822 556 L 14.438011424681463 552 L 11.701168217805389 548 L 6.751430406193322 544 L 18.3552886900452 540 L 12.208883218551136 536 L 14.55215255501571 532 L 17.217549150545892 528 L 21.26969613232859 524 L 9.825434830881932 520 L 11.256076400786696 516 L 18.818619306307482 512 L 10.838840408223405 508 L 15.6225777744271 504 L 15.789994878618927 500 L 12.201523883886694 496 L 12.449587000734255 492 L 3.059531645685638 488 L 16.00383566610617 484 L 15.868788100190159 480 L 5.953795099712806 476 L 5.5123871828755 472 L 10.791939422342693 468 L 13.429240924106125 463.99999999999994 L 25.068232870316933 459.99999999999994 L 4.7598253269643465 455.99999999999994 L 19.425282060728932 451.99999999999994 L 16.61596575599134 448.00000000000006 L 7.552018235201103 444.00000000000006 L 6.954721062702447 440.00000000000006 L 10.821542100377428 436.00000000000006 L 22.004381611295685 432 L 5.963319369193414 428 L 15.46198987383832 424 L 6.2766314608597895 420 L 10.819007741483802 416 L 5.638732163261011 412 L 11.144566768789446 408 L 14.255289285492836 404 L 19.2939632474463 400 L 17.541936006509786 396 L 13.468478851996224 392 L 19.000795810625277 388 L 7.265313631860408 384 L 15.647111123125796 380 L 16.52411963788836 376 L 11.561735527837982 372 L 14.964120323184034 368 L 16.55588278849791 364 L 8.477296426608518 360 L 22.41488943141121 356 L 16.591902390682662 352 L 9.582251829542656 348 L 10.28553496396853 344 L 20.394709645315743 340 L 5.636937494041376 336 L 10.990381779074596 332 L 13.716574229763934 328 L 14.849491215145463 324 L 16.218265954084927 320 L 10.060257846300829 316 L 20.49093647380687 312 L 7.235218724767947 308 L 7.1759458572705626 304 L 4.280772882329984 300 L 10.286192411210777 296 L 9.693139528853862 292 L 14.463383432348564 288 L 19.957132763892673 284 L 13.319353316892375 280 L 14.228014486625398 276 L 6.752000977717216 272 L 10.043590140203378 268 L 17.10259381706237 264 L 5.160676901818988 260 L 14.176217698495748 256 L 7.833212061459562 252 L 9.087042053624828 248 L 13.60381056989354 244 L 6.856113875104484 240 L 10.913882893601112 236 L 12.414972928067982 231.99999999999997 L 5.501025612402373 227.99999999999997 L 8.888382962650212 224.00000000000003 L 13.740671997145455 220.00000000000003 L 12.277297420550894 216 L 10.340410133458136 212 L 17.90988843818809 208 L 14.982074911122254 204 L 13.425127759119277 200 L 16.354140371099675 196 L 13.134676049539848 192 L 3.966350391110609 188 L 19.515101424908607 184 L 18.39779452437142 180 L 21.053468776581212 176 L 17.852325758303778 172 L 10.957606490574108 168 L 1.390077171659243 164 L 15.796966911202617 160 L 12.25632333305839 156 L 9.104791696015582 152 L 14.437972866126074 148 L 21.70174279841831 144 L 7.754190205737359 140 L 17.691178351060444 136 L 12.041404626421581 132 L 13.912760889870697 128 L 11.67298692355871 124 L 14.305740289416917 120 L 11.043107748346301 115.99999999999999 L 6.775226315794498 112.00000000000001 L 6.342296969332892 108 L 14.94147664535376 104 L 15.662004564460403 100 L 23.643265535724822 96 L 11.337543330528206 92 L 16.516799359794163 88 L 17.737239810894607 84 L 8.31744446506491 80 L 18.763873906946174 76 L 15.716161760929026 72 L 16.218717213773743 68 L 8.94045235061185 64 L 8.008204892103095 60 L 13.031507604644048 56.00000000000001 L 13.99097568993966 52 L 14.120860378634461 48 L 16.03609573192956 44 L 13.848807491094703 40 L 16.46942443858279 36 L 11.696007109358106 32 L 12.58262770017609 28.000000000000004 L 9.145148146817519 24 L 20.957071228340283 20 L 11.028831491848905 16 L 20.902271695697436 12 L 15.730781741922328 8 L 12.47987120698781 4 L 4.991426525822931 0 Z" fill="black" />
</svg>