<svg xmlns="http://www.w3.org/2000/svg" id="Layer_1" data-name="Layer 1" viewBox="0 0 100 100"><defs><style>.cls-4{fill:#514b4a}.cls-7{fill:#615d5c}.cls-13{fill:#464141}.cls-17{fill:#383432}.cls-20{fill:#383331}.cls-23{fill:#5c5a59}.cls-28{fill:#4a4746}.cls-30{fill:#605a58}.cls-32{fill:#292424}.cls-34{fill:#5b5553}.cls-38{fill:#4d4746}.cls-41{fill:#544f4c}.cls-42{fill:#656362}.cls-49{fill:#6e6765}.cls-50{fill:#1b1a19}.cls-52{fill:#6c6562}.cls-53{fill:#585454}.cls-56{fill:#635e5d}.cls-57{fill:#3b3736}.cls-58{fill:#413e3c}.cls-61{fill:#585452}.cls-68{fill:#706b69}.cls-73{fill:#494443}.cls-74{fill:#3c3634}.cls-76{fill:#453f3d}.cls-77{fill:#595352}.cls-79{fill:#4c4746}.cls-82{fill:#787372}.cls-87{fill:#3c3735}.cls-88{fill:#494544}.cls-93{fill:#9d9693}.cls-96{fill:#575352}.cls-98{fill:#8b8988}.cls-100{fill:#484444}.cls-110{fill:#77706e}.cls-111{fill:#817d7c}.cls-115{fill:#605b59}.cls-116{fill:#393634}.cls-117{fill:#403d3c}.cls-119{fill:#625e5d}.cls-120{fill:#474241}.cls-121{fill:#645d5b}.cls-126{fill:#403c3b}.cls-127{fill:#171515}.cls-128{fill:#4d4846}.cls-131{fill:#4b4746}.cls-132{fill:#6b6766}.cls-136{fill:#979595}.cls-141{fill:#4e4846}.cls-143{fill:#47413e}.cls-146{fill:#7c7978}.cls-147{fill:#767270}.cls-148{fill:#776f6d}.cls-156{fill:#5e5957}.cls-160{fill:#5e5755}.cls-163{fill:#514a47}.cls-168{fill:#3f3a37}.cls-170{fill:#929090}.cls-183{fill:#45413f}.cls-184{fill:#4e4745}.cls-190{fill:#272221}.cls-194{fill:#54504e}.cls-203{fill:#423e3d}.cls-206{fill:#4d4848}.cls-208{fill:#43403f}.cls-221{fill:#494543}.cls-225{fill:#4b4542}.cls-226{fill:#4b4645}.cls-233{fill:#36302f}.cls-234{fill:#a29d9a}.cls-235{fill:#6d6866}.cls-236{fill:#564f4d}.cls-244{fill:#72706f}.cls-257{fill:#2f2928}.cls-261{fill:#5b5351}.cls-271{fill:#867f7d}</style></defs><g id="Layer_1-2" data-name="Layer 1-2"><path d="M88.25 9.42c-.55 1.23-1.28.83-1.1-.5l.59-.11.51.6Z" class="cls-68"/><path d="M88.89 9.93c-.73.75-1.04.48-.64-.51l.62.04c-.02.15-.03.35.02.47" style="fill:#66605e"/><path d="M95.83 17h-.54c-.42-.17-.41-.36.02-.56.29-.03.53.27.52.56m.54 1.08c-.23-.1-.45-.31-.53-.54.22.13.41.32.53.54m.55 1.09c-.23-.12-.42-.31-.54-.54.23.12.42.31.54.54" class="cls-68"/><path d="M96.49 49.63c.08-.28.18-.54.43-.7 0 .23-.27.51-.43.7" class="cls-131"/><path d="M95.83 17c0 .16-.04.38.01.54l.53.54v.54l.54.54v.54l.53.54c.04.16.03.37.01.54l.54 1.08v.54l.54 1.08v.54l.54 1.08v1.08l.54 1.08v1.08l-.3 9.64c-.04 1.65-.45 2.95-1.26 3.91q-.45 1.545-1.29 1.56c-.38-.14-.67-.28-.66-.4.08-1.35.79-5.61 1.07-7.08l.55-.82c-.34-1.15-1.07-1.88-2.18-2.18-.73-2.08.04-4.89 1.25-2.11.44.29.89.28 1.33 0-.74-1.47-1.82-3.9.41-4.66-.63-.44-.8-.8-.53-1.1-1.14-.13-1.39-.27-.51-1.09-1.37-.11-1.54-.65-.51-1.64-1.09-.32-1.53-.79-.57-1.64-.87-.33-1.75-1.29-1.11-2.14-.84.31-1.03-.05-.57-1.07-.32-.15-.32-.33-.03-.54.17-.34.37-.33.58 0q.24-.48.54 0V17Z" class="cls-235"/><path d="M3.76 47.89c1.35 1.36 2.44 3.01 3.29 4.96.47-.02.46.11.02.37l1.59 2.91c.5 0 .48.11 0 .33l.56.7c1.36-.2 1.71-.02 1.06.54.88.65 4.24 4.35 4.13 5.12-.04.25-.18.48-.37.71.49.12.5.31.05.57-.48.09-1.01-.28-1.59-1.12l-1.16-1.02-.5-1.04-1.65-1.67-.03-.45-1.08-1.17-.02-.42-.55-.68c-2.15-2.69-3.86-5.82-4.79-9.15-.25-.41-.42-.86 0-1.15.13-.47.3-.45.51 0 .96.05 1.36 1.09.52 1.64Z" class="cls-117"/><path d="M15.19 64.64c1.3-.54 1.84.31 1.66 1.59.89.06 1.49.65.56 1.18-.11.41-.43.3-.62-.07-.78-.24-1.5-.78-2.15-1.63l-.54-1.07q-.42-.24 0-.54c.18-.38.55-.2 1.09.54" class="cls-117"/><path d="m39.34 86.97 1.19-.3 4.96 3.5c2.61.64 4.2 1.98 4.75 4.04l.68-.32c.13-.52.31-.51.54-.01l.51-.57c-.38-1.54.12-1.59 1.11-.51.47.15.47.34 0 .54.26.4-.17.78-.54 1.08l-.55.02c-.71.91-1.85.99-2.89.63-.11 0-.29.01-.38-.04l-.65-.53-.43-.02.02-.59c-.54-.55-1.1-.74-1.69-.58-3.1-2.23-6.73-4.05-9.12-6.97l.54-.56c1.29-.67 2.04-.31 1.96 1.21v-.02Z" class="cls-116"/><path d="M21.22 70.45c.84-.3 1.58.47 2.2 2.32 2.08 1.85 4.02 3.84 5.84 5.95l2.22 2.2c1.11-1.18 1.97-.47 1.46 1.08.6-.51 1.15.02 1.65 1.6-.15-1.04.28-1.06.64-.03 1.85.56 2.57 1.29 2.16 2.2-.17.37-.35.35-.55-.01h-.55l-1.07-.53-1.11-1.11c-1.99-1.08-8.43-6.91-9.14-8.1l-4.09-4.05c-.62-.53-.78-.98-.5-1.36-.07-1.05.36-1.1.84-.14z" style="fill:#373533"/><path d="M91.12 58.75c-2.68 3.61-5.54 7.12-8.79 10.2-.24-.25-.43-.23-.57.04-.11.55-.63.96-1.06.56-.29.11-.29-.11 0-.65-.98.23-.96-.12-.06-.63.2-1.12 1.01-2.04 2.43-2.74.42-1.02 1.22-2.55 2.35-1.93l3.07-3.23c-.91-1.27-.6-1.64.87-1.13q.465-1.245 1.2-.93c.59-.88.95-.6.57.42v.02Z" style="fill:#3d3937"/><path d="M99.62 29.99c.56 2.67.38 5.46.2 8.17-.67 3.46-1.27 7.1-2.9 10.3-.4.05-.59-.33-.56-1.16-.08-1.9.49-3.7 1.71-5.39 1.65-6.23.49-9.6 1.55-13.55v1.62Z" class="cls-131"/><path d="M34.16 5.03c.76.22.77.41 0 .62l-.28.64c-2.29-.33-4.55-.55-6.77-.66.04.96-1.46.72-1.73-.11.36 1.77-.9 2.97-2.05 1.27-1.24-.24-1.03-.97-.51-.42.6.64-2.79 1.21-3.28-.19-.16.36-.34.35-.54 0 4.72-1.97 10.18-2.07 15.19-1.14" style="fill:#7f7977"/><path d="M96.93 48.47v.46l-.44.7c-.95 3.46-3.28 6.32-5.36 9.13l-.57-.42-.3-.43c1.81-3.31 3.66-6.47 5.57-9.49l.56-.55c-.51-.17-.51-.35-.02-.55.47.19.57.7.56 1.16Z" style="fill:#3d3a38"/><path d="m94.23 14.76 1.08 1.16v.54c0 .45-.36.39-.72.09q-.525.72-1.86-.84c-2.51.71-4.47-1.01-2.15-2.37-.17-.78-.58-1.54-1.22-2.27-1.14.4-1.37-.29-.47-1.12l-.02-.47c1.96 1.56 4.3 2.97 5.36 5.29Z" style="fill:#77716f"/><path d="M82.34 68.95c-2.43 2.67-4.86 5.3-7.6 7.61l-.57-.55.06-.48c.98-1.57 2.75-2.82 4.33-3.9-.9-.81.67-2.34 1.6-1.99l.55-.08 1.06-.56c.16-.31.35-.32.57-.04Z" class="cls-116"/><path d="m60.66 87.31.55.64c-2.07 1.69-4.1 3.55-6.45 4.8-.87.25-1.15.22-.64-.58-.47-.12-.46-.3 0-.51.07-1.31.46-1.69 1.7-1.04.25-1.21 2.17-3.41 3.73-3.3.17-.94.34-.96.62-.04l.48.03Z" style="fill:#3b3634"/><path d="m68.77 80.87.55.58c-.88.93-1.67 1.34-2.85 2.01-1.95 1.95-4.04 3.23-6.29 3.82l-.62.04c-1.13-.32-1.1-1.07-1.05-2.1-1.12-1.55.8-2.53 1.9-1.29l.44-.6c1.17.24 2.25-.14 3.27-1.14.5.45 1 .34 1.53-.34.08-1.06.51-.97.65.12l.17-1.07c.1-1.04.51-1.02.7.04.61-.91 1.63-2.18 2.42-1.01.46.52-.16.98-.81.96v-.02Z" class="cls-88"/><path d="M80.16 5.61c2.73.3 5.33 1.7 7.58 3.21l-.59.11-.28.67a102 102 0 0 0-8.33-3.05l-.06-.84.04-.67.54.05 1.1.53Z" style="fill:#7f7876"/><path d="M66.47 83.46c-1.36 1.84-3.41 3.09-5.26 4.49l-.55-.64-.48-.03z" style="fill:#3b3735"/><path d="m74.18 76.01.57.55-5.42 4.88-.55-.58c.09-.43.47-.73.81-.96 0-.47.06-.48.21-.04q1.905-2.685 4.44-4.35l-.06.48z" style="fill:#3f3a39"/><path d="M56.32 10.55c-.56 2.02-2.67 6.15-5.16 5.64-.16.46-.26.39-.32-.14-.51.07-.83-.24-.57-.72l6.05-5.38c.36.18.35.37 0 .59" style="fill:#757170"/><path d="m1.65 28.91-.27.64c.94.44.75.8-.27.99.81.96 1.75 3.82 0 4.33L.02 33.79c0-2.03.12-3.97.57-5.94.1-.45.28-.44.51-.01 1.14-.63 1.37.25.54 1.08h.01Z" class="cls-96"/><path d="M41.66 8.28c.25.19.23.4-.02.6-.91 1.01-1.88 1.48-2.91 1.38-.89-.9-1.56-2.21-1.57-3.47-.21-.39.1-.47.94-.26 1.24.5 2.41.92 3.56 1.75" style="fill:#797272"/><path d="M63.31 6.03c.95-.24 1.24-.06.56.69 0 .3-.03.56-.17.64-.3.19-3.87 1.96-4.09 2.02-.14.04-.35-.2-.59-.53l-.52.57c-.25.59-.98 1.06-1.65 1.07-.36-.16-.35-.34 0-.54v-.54c1.81-1.62 4.23-2.44 6.45-3.39Z" style="fill:#7c7675"/><path d="m38.09 6.54-.94.26c1.53 1.33-.23 3.1-1.42 1.56-1.18-.44-1.34-1.02-.48-1.73-.51.43-1.7-.28-1.1-.98v-.62c1.45.27 2.68 1 3.94 1.51" style="fill:#827c7a"/><path d="M48.74 14.85c-.15.32-.33.31-.54-.01 0 1.64-.95 1.62-1.1 0-1.34-.24-2.05-.95-1.54-2.21q-3.015-.39-1.68-2.1-.51-.255 0-.57c1.89 1.29 3.48 3.07 4.87 4.89Z" style="fill:#7b7674"/><path d="M20.37 70.59c.81 2.26 3.34 3.33 4.58 5.41-2.96-2.44-5.59-5.25-8.15-8.09l.6-.5c1.69-.44 3.41 1.65 2.96 3.18z" class="cls-126"/><path d="M5.97 15.91c1.35.9.97 1.1-.53 1.09.63.81-.59 3.08-1.59 2.76-.75.67-.86.36-.6-.59.65-1.32 1.32-2.59 2.18-3.79.96-.75 1.25-.44.54.54Z" style="fill:#6b6764"/><path d="M3.85 19.76c.9.45.55 2-.5 2.09.13.94.06 2.11-1.12 1.66-.18.47-.37.46-.58-.01-.02-.15-.04-.4.01-.54l.52-.54c-.05-1.23.55-2.21 1.07-3.26l.6.59Z" style="fill:#63605e"/><path d="M75.81 4.53c-.58.57-1.38.56-2.17.56-.07 1.21-.61 1.07-1.08 0 .15 1.04-.28 1.06-.65.03-1 1.2-2.04 1.83-2.7.03-1.04.13-1.06-.28-.02-.61h6.62Z" style="fill:#625d5b"/><path d="m69.2 4.53.02.61.04.3c-.11.37-.45.63-1.01.78-1.2.3-1.82.13-1.84-.5-.91.53-1.16.19-.47-.62l3.26-.58Z" style="fill:#7b7876"/><path d="M9.77 12.13c.78-.7 1.07-.4.5.5 2.64 1.17-.26 3.57-1.15 1.64-1.06-.19-1-.99.11-1.06l-.53-.54c-.15.47-.34.47-.55 0v-.53l1.09-.55c.76-.72 1.04-.41.54.54" style="fill:#635e5e"/><path d="m65.93 5.11.47.62c.1 1.26-1.55 1.71-2.53.99l-.56-.69c.86-.37 1.64-.75 2.62-.92" style="fill:#8b8482"/><path d="m2.21 25.11-.52 1.67c1.06.3.47 1.68-.58 1.05H.6c.03-.13-.01-.4-.03-.54l.54-1.08c-.09-.94.05-1.89.54-2.71h.58c1.09.08.99 1.45-.02 1.62Z" style="fill:#595654"/><path d="M17.89 6.71c.47.15.47.34 0 .55-.15.44-.33.43-.55 0-.99 1.37-1.72 1.75-2.2 1.12a3.1 3.1 0 0 0-.63-.7c1.07-.58 2.15-1.15 3.39-1.48.47.12.46.3-.01.51" style="fill:#86817f"/><path d="m43.87 9.94-.54.55q-1.245 1.77-1.08-.54c-.36.45-.55.28-.56-.51-.49-.11-.5-.3-.06-.56l.02-.6 2.21 1.66z" style="fill:#837e7c"/><path d="M7.07 13.76c1.24.31.42 2.15-.6 2.28-.24.4-.4.35-.5-.13.13-.26-.17-.6-.54-.54.52-.74.98-1.51 1.63-2.16.35.16.34.34 0 .54h.01Z" style="fill:#75716f"/><path d="M50.27 15.34c.32.06.57.39.57.72-.82 1.41-4.21.94-2.64-1.22.14-.02.41-.05.54.01.49.24.99.4 1.53.49" style="fill:#676462"/><path d="m54.76 92.74-1.12.6c-.18.27-.37.25-.56-.01v-.54c-.7-1.35-.02-1.65 1.04-.62l.64.58Z" style="fill:#282322"/><path d="M47.65 93.87q-.255.345-.54 0l-1.14-.59c.02-.48.53-.69.87-.49.41.24.73.66.82 1.07" style="fill:#2a2625"/><path d="M49.1 95.05c.97 0 2.06-.17 2.89-.63-.15.69-.74 1.07-1.39 1.1-.59.03-1.08-.12-1.5-.47" class="cls-57"/><path d="M18.97 6.17h.54c.48.16.47.35 0 .58-.17.44-.35.41-.55-.05-.42.52-.87.67-1.08 0v-.51c.34-.08.74-.03 1.08-.03Z" style="fill:#7e7978"/><path d="M8.15 12.67c.75.8.43 1.11-.54.54-.16.36-.34.35-.54 0l.54-.54z" style="fill:#605b5a"/><path d="M.57 27.29c-.06-.45.1-.92.54-1.08.04.45-.09.93-.54 1.08" class="cls-147"/><path d="M2.73 47.39c-.43-.21-.53-.68-.54-1.15h.54z" class="cls-194"/><path d="M56.86 9.96c-.16.37-.34.36-.54 0l.54-.54z" class="cls-170"/><path d="M8.15 12.67h-.54l.55-.53v.53z" class="cls-82"/><path d="M1.66 22.96c.09-.23.31-.43.52-.54 0 .2-.33.49-.52.54" class="cls-244"/><path d="m8.07 57.21-.55-.68c.28.15.45.4.55.68m1.1 1.59c-.45-.29-.82-.69-1.08-1.17.6.1 1.04.57 1.08 1.17m1.68 2.11c-.69-.38-1.3-.97-1.65-1.67.79.27 1.29.92 1.65 1.67" class="cls-203"/><path d="M12.51 62.98c-.51-.19-.93-.55-1.16-1.02.58.14.75.74 1.16 1.02" class="cls-4"/><path d="m15.02 63.66-.2.41c.81-.61 1.06-.24.37.57l-1.09-.54-.05-.57c.26-1.42.74-1.29.97.13m-.92.44v.54c-.73-.32-1.28-.91-1.59-1.66zm2.69 3.24c.4.15.4.35.02.57-.76-.68-1.67-1.2-2.17-2.2z" style="fill:#444140"/><path d="M35.21 85.21c-.49-.25-.91-.58-1.11-1.11.49.27.91.55 1.11 1.11m1.63 1.11-.56-.57h.55c.38.16.37.35 0 .57" class="cls-28"/><path d="m52.53 94.4.54-1.08h.56c-.28.44-.57 1.06-1.11 1.07Zm-4.9.07-.52-.59h.54c.04.17 0 .4-.02.58Zm1.08.54-.65-.53c.3.01.56.25.65.53" class="cls-57"/><path d="M69.37 9.47c1.19-.85 5.35-1.22 5.76.55.62.31 1.55.68 2.19.51.62-.07 1.33 0 1.73.53 1.16-.02 2.38.27 3.29 1.06l-.62.5-5.43-1.01-.52.73c-5.61-.78-10.69-.8-15.4 2.95l-.72-.37c-.6-.09-.65-.3-.15-.61-1.41-.8-1.06-1.85.55-1.71-.63-1.51 2.53-2.82 3.4-1.5 1.36-1.48 3.03-2.43 4.8-1.81.21-1.51.99-1.26 1.12.19Z" style="fill:#3f3b39"/><path d="M90.59 13.33c.25.31-.19 1.31.45 1.76.37.26 1.17-.17 1.61-.91l1.95 2.35c.47-.01.5.15.12.47q-.555.975.03.54c.4.25.39.73.57 1.07-.12 1.16-.07 1.37 1.11 2.14.3.58.39 1.05.57 1.64l-.07.58c-1.07.11-1.96 0-2.67-.34-1.09-4.53-2.36-6.04-3.83-4.52-1.26.32-3.85-2.5-3.83-3.85.79-.63 1.58-1.28 1.69-2.19-1.16-1.32-.23-2.37 1.08-1.01.76.77 1.17 1.53 1.22 2.27" class="cls-111"/><path d="M82.34 12.13c1.52.31 2.93 1.3 4.25 2.13 1.53.95 2.56 2.6 3.83 3.85.48.11.47.28 0 .5l.53.95c.44.24.4.44-.09.6.63.65 1.23 1.53.18 1.66l-.68.28c-1.2-1.89-2.46-3.75-3.77-5.57l-1.65-1.67c-.11.47-.27.45-.45-.02l-.57-.54c-.15.47-.34.47-.54 0l-.54-.54c-.15.47-.34.47-.54 0l-.54-.53c.04.84-.64.67-1.03-.04q-2.25-.15-4.47-.75l.03-.83c2.04-.17 4.02.1 6.05.52" style="fill:#393534"/><path d="M77.53 5.02h.99c.58.08.52.46-.04.68A4.8 4.8 0 0 0 78 7.34c1.3.77 1.79.79 1.49.06.1-.24.21-.45.37-.5.41-.13 7.82 2.51 6.83 4.01l1.03 1.17c.1-.53.29-.53.56-.03 1.77.9-.06 3.17-1.69 2.19-1.14.45-3.95-.98-4.25-2.13l-3.29-1.06c-.51-.37-1.08-.55-1.73-.53-.45.97-2.54.73-2.19-.51-.2-.71.11-.78.68-.88-1.64.1-4.22-.5-2.8-2.34.27-1.18.65-.92 1.17.09-.14-1.3 1.28-1.38 1.61-.1l1.22-.58c-2.42.31-1.73-1.86.5-1.18" style="fill:#6f6d6c"/><path d="M77.53 5.02c-.19-.08-.96.02-1 .29-.04.24.51.65.5.89l-1.22.58-1.61.1c-.83-.18-1.27-1.26-.56-1.8.65-.25 1.37-.44 2.17-.56.61.01 1.19.21 1.72.49Z" style="fill:#847c79"/><path d="M78.48 5.7c1.34.71 2.74 1.12 4.36 1.69l4.31 1.53c.37.13.69.46 1.1.5l.64.51c.12.3.44.77.47 1.12-.43-.13-1.03.61-1.08 1.01-.17-.03-.44-.04-.56.03-.8.02-1.2-.39-1.03-1.17-2.2-1.46-5.11-3.35-7.2-3.51-.02.81-.52.79-1.49-.06-.2-.35-.87-.76-.63-1.45.11-.33.86-.37 1.11-.19Z" style="fill:#998f8b"/><path d="M79.49 7.41c1.19.85 2.71 1.2 2.83 3.14-2.05-.45-3.48-1.72-4.33-3.21.45-.04 1.18-.16 1.49.06h.01Z" style="fill:#5c595a"/><path d="M87.72 12.1c-.4.24-.8.42-1.4 1.27-.12-.81-.1-1.74.37-2.44.65.02 1.11.52 1.03 1.17" class="cls-111"/><path d="M76.86 8.69c.09-.32.43-.5.74-.4.16.05.3.16.37.32.12.42-.05.64-.29.81-.34.25-1.13-.05-.83-.73z" style="fill:#807e7e"/><path d="M79.05 11.06c-.63 0-1.26 0-1.73-.53.33-.09.74-.61 1.23-.31.26.17.44.51.51.83h-.01Z" style="fill:#605f5e"/><path d="M77.03 6.21c-.02.42-.74.55-1.22.58.17-.53.73-.71 1.22-.58" style="fill:#9d9390"/><path d="M98.02 25.11c-.16.32.01.69.53 1.1l-.41 4.66c-.81.95-1.2-1.06-1.1-1.07.35-.04.66.99-.24 1.08-.16-.27-1.03-.24-1.03.07 0 2.65 3.49 2.21 1.96 4.23.04 2.01-1.03 2.29-1.15.23a9.5 9.5 0 0 0-1.78-.57l-.7-.44c-.07-2.63-.18-5.18-.34-7.64.21-.98 1.07-1.7 2.58-2.17-.22-.8.53-1.07 1.16-.56l.51 1.09Z" class="cls-146"/><path d="M90.41 51.65c.15-.47.34-.47.55 0 .77 1.43.34 1.85-1.08 1.08-.94.15-1.51-1.45-.02-1.63z" class="cls-156"/><path d="M96.36 47.3c-.05.12 0 .43.02.55l-.56.55c-.67 1.26-1.45 2.39-2.35 3.4l-.49-.69c-.39.91-.88.91-1.46 0-.19-.15-.34-.3-.34-.44.03-1.1.81-.68-.14.26-.13.13-.36.16-.62.17-.16.33-.35.32-.55 0-.12-1.59 1.47-4.73 2.66-5.92.22-.57.52-.94 1.12-.66 1.03 1.08 1.58 1.15 1.65.19q.525-.405 1.08-1.11c-.07-.45.07-.48.4-.13l1.29-1.56c-.47 1.78-.87 3.69-1.71 5.39" class="cls-156"/><path d="M98.14 30.87c-.03.31-.1.64-.16 1-.04.27-.53.5-.8.28-.37-.3-.4-.9-.37-1.27-.03-.56-.02-1.07.45-1.49.27.86.5 1.16.88 1.48" class="cls-115"/><path d="M97.51 24.03c-.34.31-.72.5-1.16.56-2.37 1.48-2.54-2.78.57-1.62l.07-.58c.15.5.48 1.06.51 1.64zm-1.09-3.28c-.64.08-1.43-.23-1.73-.8-.25-.46-.04-1.3.62-1.34zm-1.67-3.21c.11.24-.11.54-.28.53-.43-.02-.5-.48-.27-.69.13-.11.18-.19.52-.39l.03.54Zm3.27 7.57.53 1.1c-.44-.31-.8-.53-1.7-.68.28-.56.74-.52 1.17-.42" class="cls-68"/><path d="M95.29 17h-.57l-.12-.47.71-.09z" style="fill:#595453"/><path d="m9.33 55.25.48.11.34-.38q.705 1.11 1.2.42l.74-.43c1.08 2.18 2.09 4.31 3.02 6.39 1.58.43 1.42 1.79-.09 2.29l-.97-.13-4.82-6.37-.56-.7c.01-.1.03-.24 0-.33-.5-.5-.64-.96-.45-1.38.6-1 1.13-.7 1.12.51" class="cls-4"/><path d="M10.24 54.43c.55-.59 1.48.27 1.1.97.08.17.03 1.16-.24 1.22-.36.08-1.01.45-1.32.2.44-.53.47-.85.48-1.04s-.22-.42-.46-.42l-.48-.11c-.35-.23-.73-.41-1.12-.51-.4-.33-.78-.84-1.13-1.53-.04-.12-.02-.25-.02-.37-.76-.66-1.19-1.73.05-1.72-.42-.73-.46-1.73.51-1.67 1.45.15 2.73 3.35 2.62 4.99Z" class="cls-56"/><path d="M4.9 48.36q1.155-1.455 1.59 2.76c-.11-1.04.3-1.05.61 0-.17.49-.05 1.21-.05 1.72-1.34-.09-1.78-2.4-3.29-4.96.31.12.81.47 1.14.47Zm3.31 6.39.45 1.38c-.99-.62-1.23-1.84-1.59-2.91.67.25.91.86 1.13 1.53m1.02 2.41-.56-.7c.24.19.42.44.56.7" class="cls-128"/><path d="M46.37 89.61c.31-1.16 1.35-1.09 3.12.23l.92.78c.48.11.47.28 0 .5l.47.66c1.25-1.53 2.89.57 1.07 1.52l-.51.57c-.16 0-.4-.06-.54.01l-.68.32c-1.26.38-1.71-1.69-2.44-2.03-1.02-.48-2.32-.73-3.22-1.52-1.62-1.42-3.85-1.99-5.23-3.67-.84-.79-1.18-1.21.11-1.21.89-.97 1.52-1.17 1.89-.58l1.41-.17c1.47 1.31 2.68 2.85 3.62 4.6h.01Z" style="fill:#504d4d"/><path d="M54.13 91.66v.51l-1.05.62-1.11.51c.06-.75-.38-1.24-1.07-1.52l-.47-.66v-.5c.07-2.35 4.32-6.06 3.55-1.3.62.76 1.14 1.68.17 2.35h-.02Z" style="fill:#3c3938"/><path d="M40.11 84.67c.65.22.43.59-.66 1.09-.24.39-.27.76-.11 1.21-.37-.45-1.46-.67-1.96-1.21-.7-.75-1.89-1.09-2.16-2.2 1.46-2.06 3.51-.23 4.89 1.11" class="cls-28"/><path d="M36.84 86.32v-.58h.54c.17.39-.18.69-.54.57" style="fill:#211d19"/><path d="M51.45 93.87c.13-.22.31-.41.51-.57.02.37-.15.57-.51.57m-1.22.32.68-.32c.04.51-.45.5-.68.32" class="cls-57"/><path d="M32 79.17c.12-.48.3-.49.55-.04.38-.15.61.09.85.41-.58-.19-.77-.46-.56-.79-.78-.8-.41-1.09.53-.39l6.03 3.45.25 1c.42.21.6.39.33.8.86.36 1.24 1.33.14 1.06-.52.13-1.31.32-1.82-.04-.44-.3-.58-.99-.59-1.54-.71 1.21-1.73.68-2.47.47l-.64.03c-.56-.98-1.11-1.51-1.65-1.6-.38-.42-.98-.78-1.46-1.08-.47-.36-.61-.72-.45-1.06-.68-.6-.76-.98-.26-1.16-.04-1.05.38-1.03.61.04l.63.43H32Z" style="fill:#585655"/><path d="M24.5 73.34c1.61-.92 2.8.46 2.53 2.19 1.21-.77 2.81 2.35 2.22 3.19-1.73-1.13-7.34-6.62-8.03-8.27-.92-.57-2.24-2.41-1.74-3.68-.52-3.1 3.75-1.01 3.4 1.12 1.65 1.32 2.19 3.13 1.62 5.45" class="cls-126"/><path d="M19.48 66.77c1.39.76 1.22 2.44 1.74 3.68l-.84.14c-.5-1.39-2.39-1.91-2.96-3.18l-.56-1.18c-.18-2.06 2.8-1.27 2.63.54" class="cls-120"/><path d="M34.58 83.6c-.72-.35-1.14-1.03-1.65-1.6.43-.39.61-.81.87-1.71.45.92 1.11 1.15 1.98 1.39-.52.33-1.27.38-1.53.63s.05.98.34 1.3Z" class="cls-28"/><path d="M31.02 79.86c.08.36.39.65.45 1.06-.9-.55-1.75-1.22-2.22-2.2q.675-1.08 1.77 1.14" class="cls-203"/><path d="M89.88 57.6c.42.36.25.92-.53 1.66-.37.28-.66.73-.87 1.13-1.49.36-2.47 2.03-3.49 3.14l-.87-1.06c-.12-.15-.6.38-.75.53-1.29-.78.28-4.87 1.66-3.64.7-.73 1.42-1.16 2.19-1.28 2.21-1.63 3.1-1.78 2.66-.47Z" class="cls-132"/><path d="M90.55 58.33c-.24.44-.83.65-1.2.93.05-.6.24-1.14.53-1.66-.81-.9-.64-1.27.55-1.06-.39-.5-.02-1.05 1.09-1.64-1.19-.99.29-3.12 1.45-3.78.42.04 1.23-.19 1.5-.54.17-.22-.05-.73.02-1.25.07-.58.89-.8 1.32-.92-.42 2.06-1.91 3.68-2.97 5.65l-2.3 4.27z" class="cls-61"/><path d="M82.34 68.95c-.17.08-.44.03-.57.04-.08-.72.69-.63.57-.04" style="fill:#282423"/><path d="M25.36 5.51c.67.86 2.31.91 4.14.32.11-.46.8-.21.84.32.44 1.11 1.86 1.58 4.25 1.41.63-.42.92.08 1.14.8 1.6.05 1.48 1.07.07 1.53 2.03-.03 2.71 1.9.55 1.35-.78.33-1.9.09-3.38-.71a6.9 6.9 0 0 0-3.37-.17l-.34-.5c-.06 1.15-.89 1.1-1.09-.04-.15.36-.34.35-.54.01-.15.48-.32.47-.54 0-.47.38-1.01.8-1.65.62-.74-.14-1.5-.95-1.67-1.69-1.74 1.19-2.6-1.83-.46-1.99 1.06.05 1.32-.91 2.05-1.27Z" style="fill:#a6a6a5"/><path d="M23.31 6.78c-.41.33-.12 1.84.46 1.99.22.46.09.67-.4.6 1.27 1.77-.05 1.59-1.69 1.12-3.45 1.55-3.74-1.27-1.1-2.57l-1.04-.37c.77-.13.77-.4-.01-.79v-.58c1.17 0 2.28-.3 3.7-.56.21.53.08.87.09 1.18" style="fill:#979492"/><path d="m34.15 5.65 1.1.98c.32.49.2.69-.22 1.03-.22.18-5.89-.34-4.69-1.5l-.84-.32c-.86.4-2.04.75-2.41-.21.9-1.33 3.55.45 7.06.03" style="fill:#aca29e"/><path d="M27.09 5.62c.8.05 1.65-.08 2.41.21-.71 1.49-3.84.98-4.15.6-.14-.18.04-.68 0-.92l1.73.11z" style="fill:#ccc4c1"/><path d="m95.82 48.41.56-.55z" class="cls-131"/><path d="M2.18 31.07c.22.3.41.29.58-.02 1.17-1.16 1.86-.16.51.84l.58.5c-.36-.48-.86 0-.35.37l-.48-.52c.72.7 1.37 1.62 1.98 2.74 1.3-.21 1.36 3.42.08 3.69.21 1.81-2.24 1.54-1.95-.36-1.01.7-1.34.02-.43-.81-.5-.68-1.01-1.33-1.52-1.96l-.06-.67v-4.33c.13-.41.68-.84 1.26-.79.25.02.15.89-.2 1.33Z" class="cls-147"/><path d="M5.06 38.66c1.09-.56 1.42.2.54 1.03.98 1.09.91 1.64-.21 1.63-.62.09-1.32.09-2.1.02l-.67.08-.05-.33c-.54-.99-.87-2.81.55-2.8.5.65 1.24.92 1.95.36" class="cls-42"/><path d="M1.11 34.87c1.04-.19 1.07.24.06.67 1.15.21 1.12 2.09.12 2.63.8.21 1.22 1.18 1.28 2.93.45-.11.45 0 .05.33 3.05 1.29.8 6 .4 2.07l-.52.41c1.32.68 1.56 1.46.74 2.34h-.51c-.15.46-.33.45-.54 0v-.54l-.58-1.06-.02-.46L1.06 43l-.07-1.49-.46-1.21-.07-1.52-.44-2.81V33.8c.4-.83.76-.47 1.09 1.08Z" style="fill:#514c4c"/><path d="M.47 38.76c-.6-.81-.45-1.84-.45-2.81.83.66.4 1.88.45 2.81" class="cls-96"/><path d="M1 41.49c-.28-.34-.44-.77-.46-1.21.56.12.44.75.46 1.21" style="fill:#54504f"/><path d="M1.6 44.17c-.36-.3-.5-.72-.53-1.19.52.14.51.71.53 1.19m.59 1.52c-.41-.18-.55-.62-.57-1.06.5.08.57.6.57 1.06m2.65 1.08q1.32 1.38.06 1.59c-.17.51-.55.35-1.14-.47-.3-.51-.33-1.12-.52-1.64-.28-.77-.63-1.51-.74-2.34 0-.06-.06-.17-.16-.35-.6-.31 1.02.22.08-.96l.6.9c.06.25.06.63.56 1.13.49-1.17.08-2.45-.96-3.19.05-.95.34-.99.67-.08 1.75-.43 2.68 2.38 1.56 3.78.23.45.22.99-.02 1.63z" class="cls-194"/><path d="M2.69 37.5c.17 1.45-.45 1.79-1.4.67-.11-.89-.04-1.75-.12-2.63.46-.25 1.26-.26 1.42.25.17.56.15 1.14.1 1.71" style="fill:#686260"/><path d="m3.12 38.3-.55 2.8c-1.07-.59-1.14-1.84-1.28-2.93.54-.06 1.02-.3 1.4-.67l.43.81Z" class="cls-194"/><path d="M90.59 13.33c-.59-.56-1.32-1.31-1.22-2.27.71.22 1.42 1.09 2.02 1.84.14.21-.46.65-.8.44" style="fill:#a49995"/><path d="M78.56 71.63c-1.27 1.58-2.84 2.64-4.33 3.9-1.55 1.32-2.66 3.26-4.44 4.35-1.31-.37-.83-1.7.55-1.4-.69-1.14 1.09-2.55 2.09-3.27.71-.51 1.89-1.08 2.27-.87l1.65-1.57c.6-.57 1.37-.99 2.2-1.13" class="cls-88"/><path d="M74.74 76.57c-.37.11-.57-.2-.57-.55.38-.11.68.2.57.55" style="fill:#25211e"/><path d="m59.55 81.92 1.14.58c.4.03.42.2.11.49 1.11.81.96.97-.41.94-.91-.39-1.46.67-1.9 1.29.51 1.58-1.26 2.22-1.84.84q-.525.135-.87.78c-.07.58-.31 1.48-.71 2.68 1.35-.48 1.5-.05.75 1.1-.52.56-.89 1.04-1.7 1.04-1.14-1.95-.3-5.56-1.6-3.49-.56.89.54 1.09-2.12 2.45-2.27 1.16-2.39-1.3-4.04-1.01-1.4-1.3-1.86-2.57-1.38-3.78l3.34 1.62q.96-.195 2.28-.24c2.85-1.76 5.61-3.64 8.28-5.66l.67.38Z" class="cls-100"/><path d="M59.56 87.32c-.64 1.79-2.63 2.1-3.73 3.3-.38-.26-.58-.73-.75-1.1-.5-1.26 2.14-3.37 1.57-2.31-.45.83-.76.67-.86-.37-.44-1.72 2.02-.66 2.72-1.62.53.03.96.43 1.07.86.12.48.08.87-.02 1.24" style="fill:#605d5e"/><path d="M61.21 87.94c-.39.11-.68-.26-.55-.64.36.02.63.26.55.64" style="fill:#231e1d"/><path d="M65.51 79.34c-.09.47-.23.45-.4-.04-.86.63-1.26 1.16-1.22 1.59q.66.195 1.23.78c.29-.4.47-.34.52.17-.66 1.58-2.27 1.99-3.7 3.03-.35.25-.81 1.13-1.47.87-.36-.14-1.03-.51-.43-1.2.89.55 1.44-.44.37-.61.03-.18.21-.78.41-.94-.5-1.17.32-2.62 1.43-3.21l1.44-.88c1.79-2.63 4.4-1.36 1.82.45Z" class="cls-23"/><path d="M69.25 78.15c.77-1.03.84-.87 1.09.33l-.55 1.4-.21.04-2.42 1.01c-.77-.21-1.24-.91-1.65-1.59-.02-.46.13-1.01-.24-1.76-.76 1.04-1.78 2.19-3.03 2.2-.23-.31-.4-.57-.34-.63.99-1.11 3.46-3.38 4.65-3.18l.98.82c.71-.72 1.28-.26 1.71 1.37" class="cls-53"/><path d="m67.17 80.93-.7-.04-.17 1.07-.65-.12-.52-.17c-.67-.05-.71-.41-.14-.81l.14-1.25c-.49-.09-.49-.2 0-.31l.4.04c.91.08 1.42-.62 2.85-.75-.69 1.01-1.19 1.48-1.2 2.33h-.01Z" style="fill:#797776"/><path d="M66.3 81.97c-.3-.36-.32-1.09.17-1.07.19.37.22.84-.17 1.07" class="cls-23"/><path d="M69.32 81.45c-.36.08-.63-.22-.55-.58.38-.06.63.24.55.58" class="cls-190"/><path d="M58.55 9.9c-.28.75-1.03 1.48-2.24 2.19.09.55.28.57.58.05-.16-.79 1.49-1.83 2.24-1.57.04-.48.18-.47.41-.01 1.46.07 1.47 1.16.51 2.03a7.4 7.4 0 0 0-.55 1.71 61 61 0 0 0-5.51 4.96l-.83-.08c-2.61 3.14-5.85-.02-4.53-2.83 1.08.55 1.92.5 2.53-.15l5.16-5.64c.12-.39.31-.4.54-.05l1.65-1.07c.48.06.49.22.04.47Z" class="cls-170"/><path d="M48.2 14.84c.41 1.03 1.59 1.67 2.64 1.22l.32.14c.32.28.39 1.28.05 1.23-.92-.18-1.58-.38-2.47-.28l2.27 3.06 2.15-1.02.37.68q-1.53 1.545-1.95 3.81c-.12 1.01-.51.98-.73-.05-.78-.29-1.49-.58-2.14-.88-.07.48-.23.48-.47.03-1.09.7-1.42.14-.55-.85-.94-1.83-2.25-3.42-3.92-4.77l.09-.53c.14-1.03.84-1.52 2.11-1.45-.03-1.47.2-1.45 1.14-.35.3.23.74.31 1.1 0Z" style="fill:#8a8989"/><path d="m56.86 10.5-.54.05v-.59h.54z" class="cls-119"/><path d="M8.04 20.88c1.12.18.38 1.62-.53 1.56.32 1.78-.51 3.44-2.27 1.98a54 54 0 0 1-1.35 6.02l-1.13.6c-.15.48-.34.48-.58.02 0-.36-.67-.68-1.07-.54 0-.59.13-1.18.54-1.63l1.47-5.66.7-.31c-.14-.78.19-1.91 1.07-1.6.27-.53.68-1.02 1.17-.58.67-.77 1.36-.67 1.98.12z" class="cls-244"/><path d="M3.82 22.94c.2 2.11-1.01 4.21-1.59 6.74-.36.58-1.18-.07-.58-.77l-.54-1.08c.46-.19.41-.79.58-1.05l.52-1.67c-.05-.45-.14-1.17.02-1.61.21-.57.85-1.11 1.12-1.66.94-.47.94.29.47 1.09Z" class="cls-147"/><path d="m41.63 8.89.06.56c.22.62.41.79.56.51l1.08.54c.17-.34.35-.33.54.01l1.68 2.1c-.11.82-.68.65-1.13.04-.49.88-.02 1.39 1.4 1.53l.13.99c-.09.25-.12.83-.46 1.03-.46.28-1.06.3-1.65.41l-.5.22c-2.04-2.07-4.37-3.7-6.99-4.88v-.71c.61-.07.58-.62.19-.7-.24-.05-.73-.4-.74-.65.57-1.91 2.81-1.85 2.92.38.56-.59.67-1.03.9-2 .87.09 1.39.38 2.01.62" style="fill:#9e9d9c"/><path d="M38.72 10.27c-.86-.83-2.12-.74-2.92-.38l-.07-1.53c.78.24 1.23-.98 1.42-1.56 1.39.56 2.1 1.82 1.57 3.47" style="fill:#938f8f"/><path d="M68.24 6.23c.04 1.07-1.65 2.19-2.76 1.48-.04.5-.18.5-.42.04-.29-.37-.54-.37-.77.01.1 1.16-.81 1.46-1.46.51-.46 1.51-1.61 2.56-3.29 2.28h-.41c-.94.52-1.22.19-.57-.65l-.04-.47.52-.57c1.62-.66 3.08-1.88 4.84-2.14.92-.14 1.91-.16 2.53-.99l1.84.5z" style="fill:#b7aca8"/><path d="M58.51 9.43c-.04-.39.23-.45.52-.57z" class="cls-136"/><path d="M35.25 6.63c.43.39.46 1.16.48 1.73-3.33-1.35-8.43.45-5.39-2.21.81.96 1.74.88 3.17.66.28-.04 1.02.35 1.36.33.22-.01.47-.17.38-.51" style="fill:#8c8a89"/><path d="M44.42 12.66c.38.29.76.32 1.13-.04.57.72 1.6 1.06 1.54 2.21-.29.12-.85.25-1.14.35-.64.15-.91-.6-1.62-.83l-.86-.28c-.27-.09-.17-.92-.06-1.15.17-.35.6-.41 1-.26Z" style="fill:#949191"/><path d="M43.87 10.51h-.54c-.08-.37.2-.64.54-.57z" style="fill:#6d6865"/><path d="m16.81 67.91-.02-.57.62.07c.11.4-.27.63-.6.5" style="fill:#272222"/><path d="m13.08 12.67.59.47-3.44 3.41c.32-.32.36-.01.11.91.97.5-1.23 3.76-2.3 3.41-.4-.02-.83.19-1.09 1.02-.53-.33-.7-.71-.9-1.14-.49.14-.74-.21-.75-1.06l-.46-.4c.69-.8.89-1.57.59-2.3l.53-1.09c.15.03.38.05.5.13.87-1.12 1.19-.89 1.14.48.44-.37.63-.76.57-1.15-1.07-.41-.58-1.4.51-1.1.06-.48.21-.46.43 0 .34 0 1.36.14 1.61-.18.22-.28-.34-1.01-.47-1.46.97.54 1.96.76 2.81.04h.02Z" style="fill:#868585"/><path d="M5.31 19.7c.55.59.28 1.35-.42 1.64-.22.54-.45 1.27-1.07 1.6-.1-.28-.44-.7-.47-1.09.26-.54.14-1.63.5-2.09.68-.88 1.12-1.76 1.59-2.76.28-.28 1.21 0 1.03.54-.28.85-.98 1.46-1.16 2.16" style="fill:#968e8b"/><path d="M24.43 67.2c.24 1.2-.42.35-.37.39 1.22 1.03 2.82 2.8.86 3.51.2.31.38.3.54-.02-.69-1.38.48-1.76.64-.11.59.27.95.68.47 1.19 0 1.25-1.03 1.32-2.07 1.17-.9-.63-1.45-1.63-1.51-2.74 1.1.98 1.78.16 1.1-.73-.67-.19-1.09.04-1.97.3.71-1.36.33-1.92-.19-2.79-.55-.93-1.5-1.71-2.45-.61-.86-.11-1.63-1.01-2.63-.54-.76-.29-1.33-.86-1.66-1.59l-.37-.57a8.6 8.6 0 0 1 1.89-2.66c.91-.81.22-1.08-.85-1.39l-.58-1.95c-.67-.11-.91-.8-.1-1l.52-.53c2.7 3.3 5.54 6.47 8.52 9.52l.21 1.14Z" class="cls-4"/><path d="m9.23 13.21-.11 1.06h-.43c-.92 1.28-1.45 1.04-1.12-.5-.34-.18-.32-.37.03-.56.22-.14.41-.32.54-.54h.55l.53.53Z" style="fill:#b1a9a7"/><path d="m9.23 13.21-.53-.54c.32 0 .57.22.53.54" class="cls-82"/><path d="M1.69 26.78c-.17-.63-.08-1.36.52-1.67.08.64-.2 1.2-.52 1.67" class="cls-244"/><path d="M20.57 7.91c-.63 1.29-1.98 1.79-3.21.98-.25 0-.64.18-1.13-.29.57-.32 1.01-.75 1.11-1.36.13-.06.4-.02.55 0l1.08-.55c.17 0 .38 0 .55.05.42.22.69-.06.89.09.21.17.21.88.16 1.07Z" style="fill:#bbb2af"/><path d="M18.97 6.71c-.05.2-.25.59-.5.83-.15.14-.49.1-.58-.28v-.55z" class="cls-93"/><path d="M42.25 9.96c.05.94-.3 1.88-.92 2.78-.39-1.41.13-2.33.36-3.29.3-.05.55.2.56.51" style="fill:#8b8787"/><path d="m8.69 14.27-.51 1.1c.04.42-.15.8-.57 1.15-.41 0-.81-.26-1.14-.48l.6-2.28c.13-.36.31-.34.51.01.31.29.7.49 1.12.5" style="fill:#a09896"/><path d="M7.57 13.77h-.51v-.55h.54z" style="fill:#5b5755"/><path d="M76.29 11.61c1.1.93 3.06.3 4.44 1.58q-.165.36-1.14.57h-.61c0 .48-.13.46-.38 0l-1.22-.52c-.25.47-.62.79-1.14.75-2.97-.21-5.89-.47-8.82-.77-.65 1.02-1.02 1.05-2.09.2-4.21 2.2-7.62 5.05-10.24 8.55.24 1.42-3.04 4.35-4.28 3.28-.93.22-1.08 0-.33-.64-.11-.37.03-.59.4-.68-.48.08-.47-.03-.02-.3l.73.05-.11-1.8c2.41-3.01 5.13-5.33 8.18-6.95.75-.24 1.57-.77 2.43-1.34 5.81-3.82 10.5-1.66 14.2-1.97Z" class="cls-50"/><path d="M59.65 14.92c-3.06 2.6-5.95 5.34-8.07 8.75.1-.56.02-1.63-.52-1.77-.4-.1-1.22.58-2.05-.38 1.87-.19 3.16-.9 4.16-2.34 1.51-2.2 3.91-3.84 6.34-4.87-.02.12-.05.36.15.61" style="fill:#504c4a"/><path d="m64 9.51-.55 1.58-3.4 1.5c-.48-.51-.48-1.32-.51-2.03.69-1.19 2.01-1.82 3.29-2.28q.705.585 1.17 1.23" class="cls-136"/><path d="M96.92 22.97c-.37.35-.83.48-1.67.72.44.4.84.54 1.1.9.15.45.05 1.3-.59 1.53-.78.28-1.47.34-1.99.64-.57.47-.9-.77-.61-1.33-.84-1.66-1.6-3.42-2.3-5.28l.09-.6-.53-.95v-.5c0-.69.37-1.52.88-1.71.9-.35 1.67.03 2 .93l1.84 4.95c.8-.17 1.54.05 1.78.7" style="fill:#979695"/><path d="m80.73 13.19 1.03.04.54.53h.54l.54.54h.54l.57.54.45.02 1.65 1.67c2.74 1.77 2.9 3.78 4.44 5.29 1.04.53 1.73 2.56 1.49 3.71 1.06 1.53 1.57 3.38 1.53 5.53-.04 2.76-.35 5.48-.93 8.14.35.17.34.35-.01.55l-.58 1.6c.22.23.4.45.37.65-.35 2.58-2.57 7.69-3.88 10.05-.09.16-.45.18-.87.15.01.5-.11.48-.34 0l-.53.76c.48.04.45.17-.04.38l-2.76 3.19c.44.19.42.37-.04.55q-.255.33-.54 0c-.72.72-.99.43-.51-.48l-.21-.73 2.94-3.72c-1.18-1.01-1-1.46.55-1.42l2.11-3.96c-.47-.05-.43-.16.04-.34L90.54 43l-.36-.71c1.98-5.17 1.21-10.85.22-16.11l.6-.52c-2.07-4.94-4.52-8.63-9.26-11.34-.16.47-.34.47-.55 0l-1.08-.54c-.16.34-.34.33-.54 0 .16-.49.66-.58 1.14-.57z" style="fill:#161514"/><path d="M93.16 25.43c.26 1.02-.16 1.09-.63.1-.39-1.17-1.63-2.35-1.49-3.71.06-.53.31-1.1-.18-1.66 1.77 1.1 2.06 3.35 2.3 5.28m-2.21-5.88c-.44-.06-.53-.54-.53-.95.41.11.59.54.53.95" class="cls-88"/><path d="M82.3 13.76c-.23-.12-.42-.31-.54-.53.25 0 .48.3.54.53m1.09.54c-.23-.12-.42-.31-.54-.54.23.12.42.31.54.54m1.11.54c-.21-.06-.47-.33-.57-.54.24.12.44.31.57.54m2.1 1.68c-.67-.43-1.27-.96-1.65-1.67.8.03 1.4.87 1.65 1.67" class="cls-50"/><path d="M73.02 6.8c.26.93 1.45 1.05 2.14 1.71.34-.08.74-.26.92-.15.42.25.56 1.09.35 1.33-.23.27-.95.39-1.3.33-.74-.37-2.05.14-2.8 0l-2.96-.55c.02-1.61.73-4.14 2.54-4.35l.65-.03c.84.12 1.19 1.29.46 1.71" style="fill:#7b7978"/><path d="m73.64 5.09.56 1.8-1.18-.09-.46-1.71z" style="fill:#978e89"/><path d="M71.91 5.12c-1.28 1.6-.69 3.52-2.54 4.35l-1.12-.19c-3.72.99-1.25-2.31 1.08-3.08-.58-.02-.54-.35-.08-.75l-.04-.3z" style="fill:#9a9796"/><path d="m71.48 6.44.27-.27.27.27-.27.27z" style="fill:#5e5a59"/><path d="M93.77 26.76c1.15 2.5 1.15 5.43 1.04 8.08-.61 1.4-1 2.85-1.14 4.35-.16.47-.34.46-.54 0 .09-4.44.7-9.75-.6-13.67l.63-.1.61 1.33Z" class="cls-183"/><path d="M92.99 51.12c.22 1.45-.77 2.62-1.45 3.78-.73 1.1-2.37 1.2-3.29.53-.21-1 .73-2.25 1.65-2.7.48-.24.84-.61 1.08-1.08l.55-.54c.47-.37 1.05-.45 1.46 0Z" style="fill:#807f7d"/><path d="M90.41 51.65c-.34 0-.61-.2-.55-.55h.55c.43.18.43.37 0 .55" class="cls-77"/><path d="M93.67 40.82c.76-.02.52.62-.01 1.08l-.53.54c1.43.19 1.37.68-.01 1.08l-.52.54c1.06-.06.68.59-.07 1.11l-2.66 5.92c-.37.56-.6.99.02 1.63-.62.86-1.19 1.74-1.65 2.7.24.55.07 1.27-.51 2.15.45.58.18.81-.5.49-.7.69-.58 1.85-.84 2.81-.41-.94-.74-1.4-1.35-1.53-1.06.27-.94-.5-.03-.92.58-.55 1.14-1.02 1.69-1.42-.26-1.16.94-4.18 1.82-4.58.05-.02-.09 1-.37-.23 1.96-3.43 3.85-6.88 4.39-10.85l.58-1.6v-.55h.55c.59.1.31 1.1 0 1.62Z" class="cls-77"/><path d="m95.8 41.46-.66 2.66c.75.02.95-.38 1.23-.51.02.21-.02.52-.12.68-.21.31-.62.39-.95.44-.03.48-.18.49-.44.06-.27.17-.48.12-.65-.16-.24.44-.42.4-.56-.09-.18.5-.65.79-1.12.66l.07-1.11.52-.54v-1.08l.54-.54v-1.08l.56-2.15c.87.63.78 2.19-.04 3.07.81.45 1.26-.02 1.62-.28z" style="fill:#797573"/><path d="m94.86 44.77.44-.06c.46.42 1.06 1.14.82 1.58-.38.7-.89 1.43-1.71 1.99l-.77-3.77.56.09c.13.31.38.3.65.16Z" style="fill:#706c6c"/><path d="m91.52 51.11-.55.54h-.55c-.01-.14-.05-.42 0-.55.56-1.15.9-2.45 2.41-3.59.19 1.58-.7 2.53-1.31 3.6" style="fill:#4a4444"/><path d="M97.75 35.18c1 3.32-.66 5.5-.97 8.3-.08.08-.28.11-.4.13-2.18 2.28-3.23-.89-.57-2.15-.7-1.69-1.07-5.04.79-6.05.13.18.42.39.6.35.24-.06.49-.4.55-.58" style="fill:#888787"/><path d="m97.19 36.09.27.67-.27.27-.32-.27z" class="cls-146"/><path d="M11.94 54.34c.18-.42.37-.42.58 0 1.04 1.33 1.76 2.59 2.15 3.8.86.24 1.68 1.66 1.53 2.25.87 1.46.35 2.68-1.09.98-.63-.7-1.54-1.1-2.43-1.84-.33-.28.06-1.41.29-1.73-1 .09-1.77.04-2.35-.46.9-.33 1.21-.71 1.35-1.1.19-.52-.26-.7-.63-.83-.33-.12-.8-.71-1.1-.97-.59-2.24-.03-2.27 1.7-.09Z" style="fill:#46403f"/><path d="M16.71 61.4c.31.61 1.14 1.28 1.68 2.17-1.49-.68-2.52-.36-3.58.5.08-.11.2-.28.2-.41l.09-2.29c.35 0 .73-.09 1.02-.35.13-.12.17-.43.07-.63.23-1.22 1.91.93.52 1.01" style="fill:#676363"/><path d="M9.33 55.25c.11.07.34.12.48.11-.2.15-.35.09-.48-.11" class="cls-128"/><path d="M8.66 48.96c1.32 1.73 2.41 3.53 3.28 5.39-.52-.26-.95-.64-1.44-1.13-.33.64-.21.96-.26 1.22-.64-1.65-1.24-3.75-2.62-4.99-.69.76-.97.48-.57-.49-.47-.17-.46-.35 0-.55-.75.04-.57-.85 0-1.14-.99-.32-.86-.71.21-.72 1.17-.9 2.34 1.54 1.38 2.42h.02Z" class="cls-221"/><path d="m7.06 48.95.57.49c0 .61-.32 1.13-.51 1.67h-.61c-.53-1.33-1.18-3.81.56-2.17" style="fill:#726f6d"/><path d="M5.4 41.33c.47.17.47.37 0 .59l.68.52c1.13.72 2.77 3.23 1.2 4.09l-.21.72c-.29.47-.5.45-.61-.08-.48 1.92-1.02 1.79-1.61-.42-.14-.37-.82-.87-.75-1.31.05-.3.71-.96.7-1.27-.03-1.36-.99-2.03-1.5-2.83-.17-.24.03-1.19.51-1.17.64.08 1.21.83 1.58 1.14v.02Z" style="fill:#7b7877"/><path d="m6.45 47.19.61 1.21v.55c-.64-.17-.97.27-.85.59.19.52.3 1.19.28 1.59-1.38-1.25.06-2.76-1.59-2.76 0-.43.11-1.14-.06-1.59.19.21.58.85.94.86.21 0 .38-.52.67-.44" class="cls-56"/><path d="M42.87 83.51c.24-.27.44-.47.5-.43 1.62.98 4.3 2.91 4.96 4.36-.99-.18-1.73-.58-2.89-1.13l.94 3.3c-1.65-.95-3.64-3.2-5.03-4.43-.85.43-1.09.06-.74-1.12l-.63-.44c-.18-.22-.25-.56-.33-.8l.46-.63c1.52 1.42 2.45 1.86 2.77 1.33" style="fill:#393636"/><path d="M41.34 85.18c-.67.32-1.26.51-1.89.58l.66-1.09c.29-.11.5-.29.3-.54l-.44-.53c1.09-.18.95 1.15 1.37 1.56z" class="cls-58"/><path d="M50.89 91.78c-.21-.09-.47-.44-.47-.66z" class="cls-100"/><path d="M42.87 83.51c-.06.34.28.74-.25 1.25-.94-.84-1.86-1.77-2.97-1.95-.89-.14-5.42-2.76-6.28-4.45-.04-2.08 2.25-.16 2.09-.13-.71.12-.73-.16-.14-.71.27-.22.5-.38.58-.33 2.14 1.47 5.17 3.85 7.09 5.6.1.09 0 .38-.12.73" class="cls-58"/><path d="M28.72 75.36c.5.17.66.41.49.71 1.61.67 2.13 1.55 1.55 2.64l.26 1.16-1.77-1.14a9.4 9.4 0 0 0-2.22-3.19c-.9-1.26-1.07-2.25.74-2.26 1.3-.05 2.24 1.48.95 2.09Z" style="fill:#585555"/><path d="M32.83 78.75c-.04.1-.09.53.56.79l-.85-.41-.55.04-.63-.43-.61-.04c-.2-.88-1.67-1.5-1.55-2.64l.19-.27c2.16-1.35 6.13.46 3.44 2.95Z" class="cls-203"/><path d="m32.54 79.13.85.41c-.63-.78-.74-.37-.85-.41m-.54.04a.645.645 0 0 1-.63-.43c.24.1.45.24.63.43" class="cls-206"/><path d="M26.56 72.17c.49-.64 1.31.44 1.2 1.1l-.74 2.26c-.8-.74-1.63-1.56-2.53-2.19.14-1.01 1.2-1.27 2.07-1.17" style="fill:#61605f"/><path d="m85.01 58.43.03.92c-.34 0-.97.32-.96.66.01.39.77.91.92 1.17-.78.58-1.47 1.09-1.62 1.82-.27.27-.77.59-1 1.03.44.49-.1 1.28-.68 1.32-.15-.08-.48.22-.47.41-.2.57-.47.55-.68-.03-.31-.36-.66-.55-1.5-.68.74-.66.89-1.27 1.17-1.97-1.21-.95 1.4-3.76 2.51-3.32 2.96-4.33 4.02-5.03 3.2-2.08l-.92.76Z" style="fill:#787573"/><path d="M90.44 56.54c-.27.24-.38.75-.55 1.06-1.34-1.53-1.16 1.4-2.31 1.13-.19-.04-.33-.48-.35-.67l.5-.49c.09-1.95 3.32-2.8 2.71-1.03" style="fill:#807c7a"/><path d="M90.44 56.54c0-.53-.55-.8-1.09-.57-.83.35-1.16 1.15-1.63 1.61-.05-.78.18-1.47.51-2.15 1.13.12 2.29.05 3.29-.53-.34.59-.58 1.17-1.09 1.64Z" class="cls-132"/><path d="M36.35 11.25c1.43.69 3.39 1.4 4.62 2.66 1.1 1.12 1.71 2.09 2.88 2.71.38.2 4.21 3.77 3.83 5.3l-1.73-.35c-3.53-4.16-6.96-6.64-11.82-8.92-.55-.26-.91-.63-1-1.29l-4.49-.15c-.75-.47-.54-.91.62-1.34l3.36-.09c1.28-.04 2.62.94 3.73 1.47" class="cls-221"/><path d="M25.44 10.47c.6.07 1.15-.14 1.65-.62h.54c.23.3.41.3.54-.02l1.09.04.03 1.19c1.62-1.1 2.8-.04 3.84.3-2.92.4-5.87.68-8.86.86l-.37-.5c-.86-.15-1.59-.37-2.2-.68-.48-.14-.48-.32-.02-.54.76 0 1.41-.41 1.69-1.12.8.24 1.49.6 2.08 1.1Z" style="fill:#484341"/><path d="M25.44 10.47c-.43.53-1.04.47-1.32.03s-.51-.78-.76-1.12c.08-.19.25-.38.4-.6.9.23 1.63.68 1.67 1.69z" style="fill:#605c5a"/><path d="M27.09 9.85c-.1.35-.44.8-.97.91-.23.05-.46 0-.67-.3.52-.27 1.08-.61 1.65-.62h-.01Zm.54-.01h.54c.22.69-.68.82-.54 0" class="cls-221"/><path d="M20.57 7.91c-.22.77-.07 2.01-1.41 2.63 1.36-.07 1.77-.26 2.51-.05l.02.54c-2.85.91-5.53 2.25-8.03 4.01-1.06 1.31-2.17 2.11-3.33 2.41-2.62-1.25 1.92-2.25 2.74-4.79.18-.57 1.28-1.06.43-2.5 1.58.24 2.72-.45 3.86-1.26.94-.68 2.08-1.15 3.21-.98Z" style="fill:#7f7e7e"/><path d="M8.17 23.48c1.15-.21.98.9-.04 1.16l-.39 1.27c-.09 2.5-.25 5.07-.5 7.74l.57 6.34-.59.8c-1.19 1-1.52.28-1.63-1.1-.19-.23-.37-.78-.54-1.03l-.08-3.69c-1.58-.61-1.22-5.59.45-5.98.27-.45.27-.85 0-1.19-.48-.05-.48-.21-.04-.45.15-.76.18-1.51.08-2.24-.32.14-.4-.1-.24-.7 1.23.12 1.72-1.28 2.27-1.98.99-.27.91.13.66 1.04h.02Z" style="fill:#45403f"/><path d="m2.18 31.07.58-.02c.02.21 0 .47-.03.82-.02.3-.52.41-.53.01z" style="fill:#484544"/><path d="M7.24 40.79C8.3 41.7 9 43.11 9.34 45c1.58 3.88 3.57 7.58 5.94 11.03l-.66.48c-.86-.04-1.55-.77-2.09-2.18-1.41-1.65-2.7-3.45-3.86-5.38-.3-.89-.71-1.89-1.38-2.42-.21-.17-.28-.94-.16-1.17.15-.31-.37-.9-.73-.5-.25.28-.38.98-1.17.67.51-1.16 1.12-2.08.86-3.09l-.68-.52v-.59l.21-1.63c.35.43 1 .84 1.63 1.1h-.01Z" class="cls-115"/><path d="M83.91 57.06c.28.16.28.34.02.55-.05.75-.45 1.46-1.2 2.15a8.15 8.15 0 0 0-2.51 3.32c-.83.26-1.47.91-2.15 1.66-3.76 4.05-7.61 7.67-11.5 11.23l-4.31 3.82c-.71.58-1.25 1.32-1.62 2.23l-1.08-.08-8.49 5.65c-.8.55-2.03 0-2.74-.14l-5.46-3.93-7.55-6c-1.45.55-1.56.2-.65-1.03-.62-.85-.29-1.12.63-.56l.52-.51c3.9 3.18 7.87 6.34 11.9 9.49l1.47 1.93c.35-1.15.97-1.41 1.89-.48 2.73-3 5.86-5.59 9.37-7.78 7.42-6.16 13.32-12.4 19.8-19.3q1.44-2.055 3.15-2.7z" style="fill:#0e0d0c"/><path d="M55.08 89.51c-.16 0-.72-.04-.65-.25l.28-.9c.12-.4.06-1.3.25-1.61.11-.19.76-.12.84.08.09.22.49.28.48.08 0-.22.32-.8.63-.56.69 1.16-.69 2.93-1.82 3.15Z" style="fill:#696768"/><path d="M62.25 79.78c-.77.68-.34 2.73-1.43 3.21l-.11-.49c-.52.12-1.03-.01-1.14-.58.81-.76 1.28-2.14 2.7-2.15h-.02Z" class="cls-88"/><path d="M60.7 82.5c-.36.28-.94.8-1.67.35.15-.17.62-.61.53-.92.28-.02.54-.02.81.04.19.05.31.28.33.53" class="cls-23"/><path d="M65.11 79.31c-.01.1-.03.23 0 .31.01.53-.14 1.12-.67 1.26-.14.44-.32.44-.55.03-.29-.04-.86.01-1.09-.28.81-1.03 1.49-1.39 2.31-1.32" style="fill:#7b7976"/><path d="m64.98 80.87.14.81c.06.84-.67.84-.79.21-.04-.24-.19-.66-.44-.99l.55-.03c.16-.29.34-.28.54 0" style="fill:#838282"/><path d="M64.98 80.87h-.54l.67-1.25c.24.41.14.88-.14 1.25z" class="cls-23"/><path d="m59.12 10.57-2.24 1.57c-.2.46-.4.44-.58-.05.16-1.27 1.5-1.48 2.24-2.19l.57.67z" class="cls-136"/><path d="m56.31 12.1.58.05c-.12.11.06.65-.02.8s-.3.4-.78.29c-.68-.15.15-.51.23-1.13h-.01Z" style="fill:#b2adaa"/><path d="m47.67 21.92.55.85c.37.99 1.12 1.6 2.24 1.84l.33.64c.12.31.2.57.11.64-1.92 1.68-3.9.11-4.71-1.91-2.49-1.13-4.4-3.11-5.74-5.92q-1.515-.315-2.94-2.25l-2.84-1.91c-2.32-.5-4.79-.55-7.41-.16l-.74-1.11.1-.61c2.2-.07 4.36-.29 6.48-.65 5.78 1.87 10.65 5.88 14.55 10.55z" style="fill:#23211f"/><path d="m50.85 23.62.02.3c-.94.94-2.74.09-2.17-1.18.38-.27.98-.45 1.43-.39.63.08.86.75.72 1.27" style="fill:#c5c1bd"/><path d="M50.87 23.92c-.08.26-.2.5-.4.68-.57.05-1.25.03-1.74-.28-.45-.29-.58-1.03-.5-1.55l.47-.03c.12.51.46 1.04.94 1.21.4.14.86.07 1.23-.03" class="cls-57"/><path d="M21.7 11.04c.78-.08 1.73-.19 2.2.68-1.04.65-2.33 1.13-3.87 1.41l-3.65 1.74-5.56 4.27c.35 1.04-1.29 4.53-2.64 4.34-.28-.28-.47-.63-.66-1.04l.53-1.56 2.3-3.41c2.58-3.84 6.76-5.96 11.36-6.43z" class="cls-17"/><path d="M6.06 20.76c-.12.58-.83.54-1.17.58.07-.57.28-1.1.42-1.64.5.14.77.58.75 1.06" style="fill:#5d5b59"/><path d="M45.55 12.62c.06.31.09.94-.34 1.08-.03 0-.75-.47-.8-1.04.31.11.75.05 1.13-.04Z" style="fill:#b0a9a6"/><path d="M65.06 7.75c-.18-.03-.61-.08-.77.01-.1-.8.86-.86.77-.01" class="cls-98"/><path d="M14.51 7.67c.98-.42 1.29-.14.63.7 2.07.64-.26 1.47-1.72 1.39-.01 1.25-1 1.63-1.98.74-.33-.2-.38-.44-.13-.73.76-1.17 2.09-1.51 3.2-2.11Z" class="cls-110"/><path d="M11.44 10.52c.27 1.46-.22 1.96-1.68 1.61l-.54-.54c.35-.71.9-1.3 1.59-1.69.21.01.42.22.62.62" class="cls-82"/><path d="M11.44 10.52c-.42.06-.71-.25-.62-.62.13-.08.34-.1.49-.11.14.19.18.46.13.73" class="cls-30"/><path d="M17.37 8.9c.27 1.63-.97 2.02-2.39 2.32-.25 1.11-.74 1.87-1.9 1.45-1.42 1.55-1.84 1.94-2.81-.04l-.5-.5c.41-.63.99-1.25 1.68-1.61.78-.41 1.49-1.25 2.6-1.31.36-.02.82.14.98-.17.11-.22.1-.54.12-.66.69-.39 1.46-.81 2.2-1.12.63.06.64.6.02 1.64" class="cls-93"/><path d="M11.22 11.3c.52-.51 1.2-.17 1.19-.01 0 .24-.47.65-.75.83-.41.27-1.09-.18-.44-.82" style="fill:#bab1ae"/><path d="M7.61 16.52c.02-.44.22-.86.57-1.15.57 0 .51.36.25.58-.28.25-.49.57-.82.57" style="fill:#6c6b69"/><path d="m11.64 19.71.31.56c-5.06 8.18-4.19 17.7-.16 26.15l-.55 1.42q1.665.585 1.92 3.15c3.17 3.67 6.34 7.35 9.52 11.03l.5 2.06c4.35 3.14 8.33 6.8 12.17 10.67.29.29.17.76-.07 1.16l-.63.56c-.78 1.1-1.13.84-1.4-.35-1.91-.36-2.66-1.13-2.26-2.3-.75-.34-1.17-.74-1.27-1.22q-1.935-.555-3.12-3.27c-.8 1.35-2.22-1.23-2.19-2.15-2.96-2.91-5.75-5.96-8.24-9.51-.25-.35-.84-.46-1.01-.63-.65.48-.91.19-.57-.54-.02-.45-.18-1.03-.56-1.54-3.35-4.36-5.38-9.16-6.81-14.19-.93-4.83-.67-10.27.52-14.88l.39-1.27.04-1.16 2.64-4.34c.98-1.06 1.23-.84.83.57z" style="fill:#161413"/><path d="m24.43 67.2 2.19 2.15c1.07 1.09 1.24 1.7.5 1.84-.15.87-.65.49-1.02-.21-.11-.43-.61-.24-.64.11-.15.36-.33.35-.54.02.25-1.23-.41-2.6-1.5-3.38 0-.38.58-.64 1.01-.53" style="fill:#5b5655"/><path d="M27.12 71.19c.95.03 1.88 1.22 2.25 2.07 2.73 1.5 2.3 3.55-.66 2.1.05-.92-.3-1.55-.95-2.09-.39-.33-.66-.85-1.2-1.1-.3-.14-.42-.89-.47-1.19l1.02.21z" class="cls-208"/><path d="M16.71 61.4c-.08-.16.12-.65.07-.82s-.39-.32-.59-.19c-.24.15-.38.53-1.11.46.64-1.2.21-2.04-.42-2.71.16-.42.37-.44.61-.07 1.39 1.43 2.7 2.89 3.88 4.91L16.7 61.4z" style="fill:#6a6462"/><path d="m14.61 56.52.57.54.1 1c-.25.12-.47.09-.61.07-1.1-1.17-1.78-2.32-2.15-3.8.65.78 1.45 1.57 2.09 2.18Z" style="fill:#6a6463"/><path d="m24.92 71.1.54-.02c.19.75-.7.77-.54.02" class="cls-208"/><path d="m77.38 13.23 1.22.52h.38c5.95 2.15 8.63 6.64 11.31 12.03.28.56.26.98-.32 1.43.22 1.42 1 9.77-1.08 9.21-.27-.07-.52-.22-.76-.39-1.09.24-1.38-3.63.04-3.35-.47-.18-.42-.31.09-.41l.25-1.71c-.4-.51-1.34-.47-2.83.12L85 29.54c-1.35-.91-.47-1.92 1.11-1.58-.47-1.09.58-1.85 1.68-1.73-1.12-.54-2.16-2.19-1.1-3.28-.74.42-1.03-.49-.65-1.13-1.61-.04-3.39-1.86-4.23-3.18-.87.59-1.12.27-.53-.63-.4.04-.58-.2-.66-.57.22 2.12-3.23 1.52-2.65-.4-1.82-1.14-4.02-1.48-6.59-1.02-1.14-1.24-2.42-1.84-3.84-1.79l.04.51c.92-.04 1.49.59.6 1.14.62.99.67 1.61-.47 1-.62.68-.94.42-.6-.42-.47-.16-.46-.33 0-.53-2.38-1.1-4.94-.21-7.68 2.68h-.44l-.53.55c-.14.48-.32.48-.54.02l-1.18 1.03c.48.03.45.14-.05.33-.45 1.19-1 1.66-1.63 1.42.24-2.1 1.93-3.4 3.67-4.73 7.33-5.62 9.34-5.07 18.63-3.99h.02Z" style="fill:#35312f"/><path d="M50.81 25.24c1.89-.62 2.85-1.97 4.28-3.28l1.63-1.42c.75.54-1.31 3.85-1.97 4.49-1.67 1.62-7.88 5.67-8.18 1.73-2.02-1.27-3.88-2.88-5.61-4.82-.73-1.5-.89-2.8-.48-3.89l7.67 7.08c.98.92 1.94.34 2.66.11" class="cls-57"/><path d="M78.6 13.75c-.48 0-.98-.09-1.22-.52.49.06.97-.03 1.22.52m1.54.01 1.08.54h.55c4.76 2.72 7.17 6.4 9.26 11.34.58 1.93.34 3.84.59 6.02.45 3.98.43 7.73-1.06 11.33l-1.72 3.43c-.01.11 0 .25-.04.34l-2.11 3.96c-.21.45-.49.95-.55 1.42-2.87 4.18-6.43 7.9-10.31 11.17l-1.27-.34c-.23-1.17.62-3.9 1.93-3.61.85-2.48 2.43-4.72 4.74-6.74l1.67-3.76c1.71-.17 2.96-.58 3.79-2.2l-.51-.64c4.04-5.29 4.5-12.39 3.8-18.81-1.53-5.97-5.58-10.52-10.99-13.46h1.15z" style="fill:#221f1e"/><path d="m69.25 5.45.08.75c-.47.63-.84.8-1.09.03.24-.28.61-.7 1.01-.78" style="fill:#55504c"/><path d="M69.34 6.2c.04.92-1.26 1.37-1.61 1.94-.24.5-.36.83-.38 1.03-.03.24.72.19.91.1-1.3 1.18-3.27 1.13-4.8 1.81-1.49-.72-1.01-1.4.55-1.58-.17-.79.79-1.4 1.49-1.79.62-1.05 1.83-1.04 2.76-1.48.29-.14.78-.08 1.09-.03z" class="cls-98"/><path d="M65.06 7.75c.14 0 .36-.02.42-.04.05.38.06.82-.2 1.19-.24.35-.8.58-1.29.6-.51.3-1.01.42-1.22.12-.31-.45-.13-1.19.05-1.35.47-.17 1.03-.27 1.46-.51.17-.48.52-.43.77-.01z" style="fill:#7c7c7e"/><path d="M66.33 7.8v1.07l-.02-.35V7.8z" style="fill:#adabaa"/><path d="M83.4 56.58c-1.62 3-4.56 5-6.84 7.73C71.82 69.98 61.46 79 55.13 83.5c-1.26.9-2.85 2.65-4.05 2.84-.16-.21-.3-.42-.36-.65-.64-2.3 7.16-7.35 9.25-8.3 3.43-2.9 6.89-5.9 10.35-8.99.58-1.59 1.24-2.7 3-3.16-.48-.22-.17-.4.35-.59-1.08-.62.03-1.3.88-1.69l5.05-4.28 6.53-6.55c-.25 1.83-1.91 2.9-2.74 4.44h.01Z" class="cls-127"/><path d="M86.7 57.01c-.36-.37-.56-.89-.61-1.58-.45-.87.41-1.57 1.16-2.12l.04-.38.53-.76c.09.02.25.05.34 0 .39-.17 1.05-.05 1.16.36a13.8 13.8 0 0 0-2.61 4.46v.02Z" style="fill:#625d5a"/><path d="M91.03 25.63c-2.1-2.41-2.82-6.53-5.97-8.7-1.24-.85-2.86-1.11-3.29-2.64 4.78 1.99 7.8 6.48 9.26 11.34" class="cls-50"/><path d="M88.84 46.41c.22-1.27.77-2.56 1.72-3.43-.46 1.12-.32 2.74-1.72 3.43m-2.15 4.3c.64-1.35.78-3.16 2.11-3.96-.58 1.4-.83 3.07-2.11 3.96" class="cls-127"/><path d="M92.54 41.34c.08-.55-.1-1.29.58-1.6-.01.6.06 1.33-.58 1.6" class="cls-183"/><path d="M81.22 14.3c-.44 0-.91-.11-1.08-.54.45 0 .91.1 1.08.54" class="cls-50"/><path d="M86.09 55.44c.54.44.01.79-1.6 1.07.73-1.14 1.4-2.7 2.76-3.19-.6.57-1.03 1.3-1.16 2.12" class="cls-127"/><path d="M86.7 57.01c-.27.74-.96 1.3-1.69 1.42.4-.64 1.38-1.38.84-2.55-1.22 1.34-1.58 3.14-3.12 3.88.26-.79.69-1.49 1.2-2.15l.53-.55.04-.55 1.6-1.07c.55.31.67.99.61 1.58Z" class="cls-132"/><path d="M87.29 52.94c-.04-.35.17-.68.53-.76zm-3.36 4.67-.02-.55h.54c-.01.19-.33.45-.53.55Z" class="cls-127"/><path d="M96.59 35.41c-.39 2.01-.31 4.12-.79 6.05-.54 1.44-1.15 1.82-1.82 1.15.46-1.46.54-2.77.24-3.94-.55-.59-.46-2.21.54-2.18v-.54c-.81-.04-.47-.59.05-1.1.4-.15.74-.66.97-.87.39-.37.97.09 1.02.61.02.24-.15.56-.2.83h-.01Z" style="fill:#6d6968"/><path d="M94.75 35.95v.54c-.39.62-.64 1.42-.53 2.18s.26 1.76-.55 2.15V39.2l-.05-2.7c-.02-1.03.56-1.42 1.19-1.66l-.06 1.1Z" class="cls-156"/><path d="M95.02 37.04v.72l.01.35-.02-.35v-.72Zm-.26-.55v-.54c.33.1.33.44 0 .54" class="cls-146"/><path d="M90.97 51.65c.12-.24.35-.38.55-.54-.13.24-.26.52-.55.54" class="cls-61"/><path d="M93.12 42.44a.84.84 0 0 1 .53-.54c0 .25-.28.49-.53.54m-.52 1.63c-.01-.26.27-.52.52-.54 0 .25-.29.49-.52.54m1.61.54.65.16c-.09.16-.27.27-.41.27-.17 0-.35-.25-.24-.43" class="cls-156"/><path d="M12.52 54.33c-.17.04-.46.07-.58 0-1.28-1.64-2.61-3.39-3.28-5.39 1.47 1.49 3.01 3.41 3.86 5.38Z" class="cls-235"/><path d="M7.07 48.4c-.18.14-.98.03-1.01-.24-.02-.23.42-.72.4-.97.25.07.44.09.61.08v1.14Z" class="cls-115"/><path d="M6.08 42.45a.86.86 0 0 1-.68-.52c.29 0 .61.23.68.52" class="cls-42"/><path d="m31.01 73.83 3.66 2.65c.16.35.36.8.65 1.03.06.38.61.58.47 1.39-1.05-.35-1.72-.67-2.42-.54-.2.04-.47.24-.53.39l-1.76-1.62c.94-.48 1.34.04 1.71.3.14.1.53-.63.15-.89l-3.72-.48c-.06-.21-.35-.55-.49-.71.35.29 1.99.18 1.63-.44l-.97-1.66c.11-.46.17-.45.16.02.22-.32.71-.14 1.47.55h-.01Z" class="cls-206"/><path d="M80.64 68.29c-.8.97-1.72 1.88-2.77 2.72-1.01-.05-1.51.53-1.51 1.75.21.69-.94 1.58-1.65 1.57-1.64-.36-.77-1.85-.65-1.18.34 1.94-1.99 2.85-3.61 2.3-.4-.13-.4-.31-.03-.53-.45-.28-.98-.02-1.6.79-.28 1.92-1.12 1.59-2.26.25l.54-1.36c4.2-4 8.32-8 12.36-11.99l.76.47c.8.41.9 1.29.33 2.64.2.28.43.28.68.03-.91-.69-.57-1.05.47-.41.67-.36.9-.52.68-1.32-1.1-1.19-.42-1.75 1-1.03.42-.7 1.15-1.45 1.93-1.08.05-.91.5-1.25 1.35-.86.39-1.25.77-1.59 1.83-.67-1.61 3.11-7.73 7.88-7.85 7.9Z" class="cls-7"/><path d="m80.64 68.29.06.63-.54.73-1.6 1.99c-.72.65-1.46 1.03-2.2 1.13-.83-.41-1.07-1.11-.55-1.81.66-.88.99-1.28 1.92-.71.71-.67 1.65-1.75 2.91-1.96" style="fill:#706d6d"/><path d="M80.71 69.56c-.13.07-.4.07-.55.08l.54-.73v.65z" class="cls-7"/><path d="m80.54 65.72.68.03c.04 1.3-3.32 2.94-2.96 3.07-.24-.09-.63-.76-.67-1.17.15-.59 1.02-1.34 1.57-1.76.17.05.46.43.5.6.05.22.28.31.43.08.18-.27.31-.54.46-.86h-.01Zm1.16-.39.68-1.32c.49.09.74.67.24 1.16-.22.22-.46.46-.92.15" style="fill:#524e4e"/><path d="m74.71 74.33-4.37 4.14c-.47.12-.72-.02-1.09-.33-.89-.77-.87-1.12.06-1.06-.28-.7.43-1.41 1.14-1.64.78-.87 1.68-1.25 3.32-1.1l-1.04-.94c.64-.68 1-1.25 1.94-1.78.25 1.14.1 1.9.03 2.7h.01Z" style="fill:#706e6e"/><path d="M70.42 74.92c-.62.67-.99 1.39-1.11 2.17l-.06 1.06c-.9-.74-2.37-.58-2.69-2.19l.99.46c.41.19.58-.45.82-.7l2.46-2.47c-.13.78-.43 1.15-.4 1.66Z" class="cls-119"/><path d="M73.46 71.19c-.46-.59 1.27-1.96 1.82-1.38.33.78-.48 2.12-1.82 1.38" style="fill:#706c6a"/><path d="M70.45 75.45c-.2.63-.6 1.24-1.14 1.64-.67-.41-.48-1.04-.05-1.4.44-.36.75-.59 1.16-.78l.03.53Z" class="cls-53"/><path d="M33.13 11.37c-1.54 1.63-5.04-.14-6.58 1.26l-.95 1.08a61.4 61.4 0 0 0-9.29 1.92c-1.27 1.39-3.15 3.17-4.66 4.09l-.83-.57c3.2-3.98 7.92-7.39 13.08-7.42l9.24-.35Z" style="fill:#161513"/><path d="M7.76 25.91c.09-.36-.35-1.15.39-1.27-.01.44-.14.85-.39 1.27" class="cls-17"/><path d="m5.24 24.42.24.7c.35.44.32 1.19-.08 2.24l.04.45c.35.35.18.79 0 1.19l-.45 5.98c-.87.58-1.39-.03-1.78-.72-.34-.6-.33-1.31-.19-2.02.03-.14.12-.27.26-.35.11-.35-.12-.87-.51-.84-.1-1.48 1.55-4.37 2.48-6.63z" style="fill:#878584"/><path d="M5.4 27.36c-.93-.48-.37-1.57.08-2.24.85-.3 1.4.44.83 1.15-.27.34-.51.77-.91 1.09m.04 1.63V27.8c.31.06.57.43.41.64z" class="cls-244"/><path d="m31.39 69.58.7-.18c3.86 3.69 7.86 7.24 11.98 10.64l.21 1.52c1.45.46 2.89 1.35 4.32 2.68 1.5 1.22 1.7 2.09.59 2.6L35.3 75.93l-4.22-3.91-7.88-7.92c.42-1.23 1.58-.83 3.48 1.19l2.35.61q.405 2.085 2.37 3.69h-.01Z" style="fill:#1c1817"/><path d="M72.56 65.26c.29-.32.54-.41.77-.02-1.08 1.83-2.45 3.63-4.24 5.14l-8.78 7.44c-.98.83-2.05 1.24-3.03 1.95l-4.06 2.94c-1.01.73-1.25 2.87-2.14 3.63-.51.08-1.23 1.01-1.89.48 0-1.22-.69-2.21-1.78-3l-3.12-2.28c-1.56-2.57 3.49-1.31 3.21.94l1.78 1.6c.65-.38 1.15-1.19 1.5-2.44l1.25-.27c0-.93.61-1.62 1.82-2.05 1.95-2.01 4.12-3.09 6.5-3.23.1-1.24 1.67-2.63 2.83-3.01 2.11-1.1 3.92-2.67 5.43-4.72.2-1.32.81-2.18 1.84-2.6-.05-.27.35-.44 1.22-.54-.04-.91.84-1.01.9.04z" style="fill:#201c1b"/><path d="M26.55 12.63c2.84.13 5.64-.13 8.15 1.26-2.97 1.48-6.46 2.73-9.96 1.59-.6.58-.7 1.12-.28 1.62 1.61-.36 1.88.73.44 1.5.63.48.89.81.08 1.16.93 1.13 0 2.31-.82.92-.42 1.41-1.21.6-1.53-.57l-.38-.47c-1.55.13-1.49-1.12-.02-1.5-.26-.18-.26-.37-.02-.59.17-2.59-1.21-2.87-4.12-.83-.78.33-1.31.19-1.58-.41-.85.21-.92-.14-.21-.67 3.26-1.62 6.58-3.16 10.24-3h.01Z" style="fill:#403b3b"/><path d="M40.48 18.05c.58 1.12 1.37 2.24.85 3.66 1.73-.24 1 3.26 4.5 2.44.51 1 .63 1.81.74 2.6.03.53-.21.9-.56 1.26-.18.18-3.42-2.84-3.75-3.43q-.585-.225 0-.54l-.63-.5c-.47.13-.47.01-.06-.32l-.5-.83c-.26.89-.58.72-.96-.5-1.55.5-2.33-2.02-1-2.82-1.46-1.43-3-2.77-4.62-4.01l.22-1.18c2.39.64 4.58 1.86 5.78 4.16" style="fill:#433f3e"/><path d="M29.74 72.61c.5.57.43.79-.2.67l-.16-.02c-1.05-.14-1.79-1.12-2.25-2.07.45-.76-.46-1.23-.5-1.84 1.07 1.05 2.3 1.97 3.12 3.27" class="cls-4"/><path d="m31.01 73.83-1.47-.55.2-.67c.25.39 1.06.71 1.27 1.22" class="cls-208"/><path d="M86.07 21.82c-.14.78.08 1.16.65 1.13.55.97 1.55 2.21 1.1 3.28-1.5.36-2.07.93-1.68 1.73l-1.11 1.58c-.27 1.46.09 2.52 1.1 3.18.85-.1 1.16.42.4 1l-.76 1.02c-2.04.03-3.86.9-5.48 2.6-.79 1.99-2.5 2.25-5.15.77-.52.6-3.33 2.84-3.88 2.58-.4-.19-.66-.56-.84-.96-1.04.16-1.06-.25-.04-.61-.9-1.49-1.06-3.19.89-3.44 1.12-1.94 2.56-2.91 4.3-2.92 0-.79.48-1.1.99-.56.35 3.12 1.72 2.75 4.12-1.1l.53-1.33c-1.16-.96-1.01-2.15.43-3.54a81 81 0 0 1-.84-6.49c-1.2-1.03-.32-1.63 1.04-1.1 1.9.03 3.34 1.63 4.23 3.18" class="cls-38"/><path d="M86.69 46.65c-.25.66-1.48 2.25-2.11 2.05-2.87-.9 1.04-4.19 2.2-5.05-.34-.41-.55-.95-.64-1.59-2.16 1.7-2.61-2.05.13-1.84-1.56-.36-1.2-1.18.34-1.48-1.26-.86-.85-1.49.6-1.17-1.05-.85-.28-2.16.93-1.54 1.71-.65 1.68-5 1.84-8.82 1.35 5.26 1.71 10.93-.92 16.11-.61 1.19-2.15 2.25-2.37 3.33" style="fill:#302b2a"/><path d="M67.14 15.92v.53c.61 1.83-.26 2.11-2.64.83l-1.59.72c.22 1.7-.5 2.39-1.8 1.11-.75 1.36-1.47 2.77-2.15 4.23-.85-.24-1.2.33-1.05 1.69-1.04.47-1.92 1.22-2.67 2.25-1.25 1.07-2.3 2.34-3.15 3.8-3.65 2.35-5.47 2.37-5.47.05-.61.09-.98-.76-.53-1.26.23-1.52.95-1.33 2.2-.93 2.12-1.17 4.23-2.41 6.31-3.71.04-2.63 9.55-11.22 11.01-10.56.62.28 1.14.69 1.52 1.25z" class="cls-79"/><path d="M67.14 15.92c-.6-1.1-1.45.17-2.06.16-3.71-.05-8.32 4.95-10.03 9.58-3.13 1.26-4.44 3.68-7.17 4.61-.57-.7-1.26-.78-1.79-.42-.51.03-.49-.11-.02-.4l-.6-.63c-1.43.14-1.88-.55-1.46-1.88-1.08.96-1.38.55-.69-.7-1.2.24-2.19-.83-1.07-1.66 1.85.96 2.53 3.03 4.31 2.18l2.54.96c1.06-1.16 2.6-1.27 3.76-1.96 1.92-1.16 3.58-3.31 3.86-5.22l.05-.33 1.18-1.03.54-.02.53-.54 6.44-5.12 1.68 2.43Z" class="cls-13"/><path d="M85.02 29.54c1.08.05 2.21.37 3.54-.23.43.88.38 2.07-.29 2.97-.51-.34-1.07-.37-1.67-.08.15.46 0 .64-.48.53-1.22.18-2.26.84-4.09.41 1.05-.55 1.82-1.41 2.22-2.36-.22-.13-.76-.37-.77-.54-.02-.18.12-.55.28-.61.25-.1 1.12.12 1.26-.08Z" class="cls-76"/><path d="M67.73 16.88c1.37-.02 1.81 2.32-.06 1.92-.31.93-.82 1.59-1.52 1.98-1.33 1.12-2.02 1.13-2.05.02-.53-.03-.56-.21-.12-.54l-.3-1.01c.88-.31 1.1-.91.67-1.8l-.38.6c-.21.45-.38.42-.52-.07h-.55c.91-1.92 3.23.11 4.23-1.53.37-.04.47.18.6.42Z" class="cls-49"/><path d="M88.18 32.68c-.15 1.09-.34 2.22-.04 3.35-.51.19-.71 1.09-.93 1.54-2.81 1.83-2.49-2.34-.69-3.85-.22-.26-.31-.68-.4-1 .13-.21.29-.38.48-.53 1.01-.84 1.22-.8 1.58.49" style="fill:#4f4a47"/><path d="M69.92 18.76c1.67.65 1.95 1.35 1.18 3.09.1 1.08-.36 1.11-.68.04l-1.12-.79c-1.51 1-3.53-1.25-1.62-2.3.51-.58.42-1.26.06-1.92.39-.12.52-.59.47-1 1.18-.81 2.61 2.19 1.71 2.88" class="cls-73"/><path d="M87.81 26.23c-.36.86-.91 1.39-1.68 1.73-1.2.04-.92-.39-.79-1.03.16-.78.5-1.27 1.15-1.16.41.07.87.04 1.32.46" style="fill:#5c5654"/><path d="M88.27 32.27c-.08.1-.08.29-.09.41-.58.09-1.2 0-1.58-.49.05-.65.42-1.09 1.44-1.95.44.62.31 1.32.23 2.03" style="fill:#5d5653"/><path d="M86.71 22.95c.05.35-.22.53-.43.56-.63.09-.8-.44-.79-.84.02-.5.09-.81.57-.86l.65 1.13Z" style="fill:#5c5753"/><path d="m58.49 19.16.53-.54c-.08.22-.34.54-.53.54m-1.72 1.04c.07-.48.69-1.01 1.18-1.03-.17.54-.61.92-1.18 1.03" class="cls-57"/><path d="m73.68 64.65-.35.59-.77.02c.12-.51.64-.72 1.12-.61m-7.63-1.09c-.61.79-.81 1.71-.62 2.76-2.07 1.65-2.56 3.29-1.49 4.91-.77 1.43-1.94 2.8-3.53 4.14l-.07.72c-.75 1.56-2.4 1.35-3.26 2.04-1.52 1.21-3.06 2.76-5.06 3.25-.15.92-2.22.85-2.41.34-.64-1.73-.08-3.28 1.82-2.3-.68-1.26-.31-1.84 1.1-1.73-1.43-.5-.12-3.07 1.45-2.63.48-.51.54-.97.18-1.37 1.49-1.51 1.7-2.54.63-3.1.51-1.89 4.54-3.04 5.97-5.16.86-1.27 1.09-1.36 2.22-1.85 1.54-.68 2.71-2.28 4.27-3.51.23 2.3.11 3.4-1.18 3.5h-.02Z" class="cls-32"/><path d="M66.57 65.09c.05.13.27.44.44.46.24.02.46 0 1.12-.2.36-.11.37.77.7.77.47 0 1.3-.29 1.62-.36-.64.34-.16 1.51-.3 2-2.13 2.51-6.76 6.1-5.98 6.05-.25.02-.72-.5-.99-.74 2.4-3.09 2.83-3.68 1.29-1.78l-.52-.07c-.88-.34-1.72-.82-2.3-1.56 1.76-3.76 5.19-4.87 1.42-4.64.76-.79 2.1-1.41 2.99-1.47.01.29-.2.91-.31 1.37-.05.22.59.32.82.17" style="fill:#252120"/><path d="M63.17 73.07c-.89.85-2.31 1.92-2.83 3.01-1.66-.07.86-1.74 3.6-4.86 1.25-1.42 2.45-3.15 4.34-3.7-1.52 2.53-3.41 3.92-5.11 5.55" style="fill:#393432"/><path d="M34.7 13.89c.76.38 3.92 3.85 4.39 5.19-.71.75-1.61.59-2.71-.47-1.24 3.06-2.71 3.85-4.41 2.39l-2.64.96c-3.13.12-1.25-2.36.45-2.77-.72-1.13-2.1-1.7-4.16-1.69-.37-1.03-.76-1.16-1.17-.4-.55-.19-1.17-2.01-.45-2.03l5.33-.21c1.81-.72 3.49-1.9 5.36-.96Z" class="cls-4"/><path d="m21.62 17.49.6.64.02 1.5c.34.78.27 1.49-.61 1.21.27 1.86-1.29 1.68-1.57-.08-.3.94-1.42 1.81-2.31 2.19-.05.48-.19.47-.41 0l-.37.54c-.27.39-.48.37-.65-.07-1.26 2.42-2.99.19-.9-.54-.31-.39-.21-.54.3-.47.82-.99 1.59-1.34 2.31-1.06.23-.9.09-1.49-.41-1.78.81-1.07 1.41-1.37 1.8-.91l.62-.57c-.21-1.17 1-1.75 1.56-.6z" style="fill:#b9b3b0"/><path d="M29.78 19.18c-.66.52-1.01.65-.99-.21-1.14.37-2.06.41-2.78.14-.32.93-.86.28-1.12-.51-.01-.39-.17-1.2-.44-1.5 0-.27-.18-.65.11-1.27 2.27 1.23 4.57 1.59 6.89.74-.46 1.5-1.27 1.82-1.66 2.62Z" style="fill:#aba5a2"/><path d="M22.2 17.53c-.21.24-.41.23-.58-.04l-.93-.5c-1.36 1.19-2.29 1.38-2.79.56l-.15.63c-1.85.69-3.23 2.12-4.12 4.3l-.71-.1c-.7-.55-.55-1.62.44-3.21l3.15-2.88 4.96-1.43c.87.47.69 1.66.73 2.67" style="fill:#625958"/><path d="m22.63 20.1.13 1.78v.54c-1.62.37-2.01-.17-1.12-1.58.46-.23.62-.71.61-1.21.15.09.37.28.38.47" style="fill:#a7a19f"/><path d="M26.01 19.1c1.06-.16 1.01.33-.17 1.47l-.87-.82-.08-1.16z" style="fill:#8b8584"/><path d="M22.22 18.13c-.24-.04-.63-.4-.6-.64.18-.03.42.02.58.04l.02.59Z" class="cls-234"/><path d="M42.25 24.58c.02.65.61 1.18 1.07 1.66-.22 1.78-2.11 2.06-2.15.02-.7-.58-1.06-.98 0-1.13l.54-1.08c.16-.28.34-.27.54 0v.54Z" style="fill:#7a7471"/><path d="m41.05 22.39.5.83.06.32c.27.09.28.26.09.5l-.54 1.08c-1.19.74-1.89-1.86-1.04-2.7l-.04-.53.96.5z" style="fill:#75716e"/><path d="m41.55 23.22-.5-.83c.31.16.44.5.5.83m.69.82h-.54l-.09-.5c.31-.02.63.19.63.5" class="cls-13"/><path d="m34.15 46.23.56.53c1.4-.35 1.65.4 1.16 1.65l.34 1.15c.47.14.44.31-.03.5-.67 1.32-2.06-.26-1.33-1.24-.4-.43-.81-.57-1.21-.43.29 1.41.45 2.8.48 4.15q1.44-.495 3.09.33c.55 1.4 1.19 2.07 1.91 2.01 1.27 1.88 2.73 3.62 4.36 5.19.53-1.78 1.46-2.62 2.79-2.5 1.21 2.82 1.43 4.99 1.48 8.05 0 .22-.41-4.33.44-4.05.6-2.29 1.21-2.77 1.84-1.43 1.43.04 2.28.43 2.56 1.17-1.38 2.5-.46 2.69 2.77.58.99-1.65 2.19-3.08 3.59-4.28l.64.54c1.16.86.83 1.23-.54.81l.61.47c-.45-.05-.31.26-.64.14a.5.5 0 0 0-.21-.18l.63.4c2.28-.96 2.72 2.11.64 2.27-2.85 5.52-6.65 5.17-7.11 5.46-.6.39-.64 1.51-.92 2.04-.52 1-1.64-.31-2.18-.46-.99-.27-1.93 1-2.46 1.5-.71-1.14-1.37-1.64-2.6-1.05-.59-1.16-1.11-2.27-1-3.77-1.6 1.21-4.18-1.85-4.4-2.5l-1.96-5.78c-2.37 1.78-5.29.92-6.54-1.5-.54-1.04-1.73-1.4-2.67-.83-.56.33-.82 1.26-1.62 2.18-.83-.68-.11-1.29-.09-1.62.02-.48-.63-.89-1.03-.81-.86-.02-.83-.91.02-1.1.15-.41.36-.58.65-.51q3.66-1.5 4.98-5.79l1.89-1.31c-.26-1.06.83-.83 1.15.04z" class="cls-233"/><path d="M30.99 42.32c.6 1.5.56 2.28-.12 2.36q-.48.33-1.71-.78l-.48.16c-.16.47-.33.46-.53 0-3.04 4.29-4.92 4.7-5.62 1.22 1.2-1.77.9-2.42-.91-1.95-1.63 1.69-2.55 1.75-2.76.19l.08-.47c.04-.51-.36-.5-1.18.05l-.43.49c-.96 1.16-1.62.34-2.02-.97l-1.33-2.69c-2.77.75-1.89-4.46-.79-6-.99-.56-1.18-1.09-.09-1.04l-.09-2.32c-1.72-.99.15-2.63 1.26-3.25l.41-1.1c.01-.31.16-.32.42-.1l2.77-.39c-.54-.13-.55-.32-.05-.57 2.28-2.22 2.23 2.01-.26 2.98-.34 1.81-.94 5.07-.67 7.11.13.97.27 1.63.83 2.47 1.99 2.96 3.79 2.29 5.77-.22 1.34 1.79 2.87 2.94 4.58 3.44 1.72-.03 2.69.43 2.91 1.39h.01Z" style="fill:#423d3b"/><path d="M28.15 44.04q1.98 2.01-2.19 3.33c1.1.78.84 1.3-.5 1.06-.47.14-1.16.46-1.69.25-.44-.17-.74-.88-1.4-1.31-.51 1.13-1.2 1.94-1.85 2.38-.71.47-2.26.64-2.73-.24-.99-1.9.21-4.44 1.08-6.02 1.08.9 1.19-1.33 3.18-1.34 1.04 0 1.84 0 2.7 1.13-.39.74-1.24 1.91-1.25 2.74 2.15 2.62 2.54-2.01 4.66-1.98" class="cls-20"/><path d="M52.52 77.68c-.79 1.27-2.05.88-1.57-.56-.72-1.03.16-2.68 1.54-2.63 0-.65.25-.41.65.1-.67-1.95.06-2.53 1.67-3.51-.02-.15-.09-.35-.05-.5 1.56-.38 2.19-1.9 4.4-2.08-.88 1.86-.42 3.63-.44 5.67-1.03-.6-1-2.49-1.75-2.47-3.44 1.45-1.03 4.91-4.21 3.78l-.24 2.21Z" class="cls-190"/><path d="M54.82 71.08c.12 1.07-.59 1.71-1.48 2.35 1.09.45.72 1.36-.19 1.16-.57-.46-.93-.72-1.69-.74-.33-.09-.58-.24-.57-.61-.02-.19-.47-.66-.69.06 1.16-1.82 3.08-1.98 4.62-2.22" class="cls-32"/><path d="M52.49 74.49c-.47.91-.78 1.94-1.54 2.63-.44.57-.81.5-1.1-.16.07-.28 0-.67-.04-.95l.04-1.09c.48 0 .82-.65 1-1.1.2-.21.4-.19.6.03.54-.15 1.11.05 1.03.64z" class="cls-32"/><path d="m18.95 43.03-1.18.05c.51-.58.86-1.22 1.61-1.79.34.92-.13 1.33-.43 1.74" class="cls-20"/><path d="M16.31 15.62c.2.18.33.55.21.67.49.84-2.28 3.33-3.15 2.88-1.11 2.85-2.19 5.65-2.85 8.66-.89 4.02-1.16 7.07.3 11.07-.2 1.78-.2 2.25 1.1 3.53 2.04 1.62 3.42 1.95 4.15 1l1.28.13c-.73-.62-.48-.96.43-.49.75-.65 1.14-.67 1.18-.05.45.18.41.34-.08.47q.825 1.485-.33 3.78c-.28 2.64.93 2.41 3.65-.69 1.14.44 2.23 1.05 3.27 1.84 1.48.34.99 2.1-.43 2.17-.9.44-1.35 1.87-.64 2.67.32.5.67 1.03 1.06 1.61l.51-.66c1.12.39 2.38.27 3.78-.37 1.38 1.06 2.73 2.17 4.06 3.33 2.5-.61 4.15-.31 4.96.91.48 2.86 1.64 5.06 3.48 6.61 1.86.15 2.89 1.3 3.07 3.46 1.4.66 2.74.6 4.04-.18 1.3.81 2.3.35 3.01-1.38 1.92-.35 3.54-1.15 4.86-2.41.72-1.22 1.66-1.95 2.82-2.18 1-.3 1.47-1.09 1.41-2.34l.95-.61c-.08-.11-.32-.47-1-.51.96.35 1.46-.17.1-.77.66.58 1.07.81 1.06.8-.75-2.79 2.18-2.13 1.93.49 1.64-1.08 3.39-1.99 5.26-2.74 2.08-1.77 3.7-3.93 4.84-6.49 2.91.85 3.84 2.06 2.78 3.62.09 1.61-1.12 2.73-3.62 3.37-1.89 2.76-3.71 5.57-5.43 8.44l-1.75-.23c-.25 2.58-3-.45-.51-1.54.87-2.83-4.46 1.83-4.99 3.18l-6.29 3.84c.46.04.45.21.05.5q-1.785 1.95-4.62 2.22l-3.83.59-5.43-3.52c-.74.38-1.17.35-1.91.21s-3.91-3.81-4.26-4.85l-1.68.3c1.23 1.36 1.52 2.53.84 3.49 1.1.83 1.73 1.72 1.88 2.66l-.81.23c-1.51-1.71-3.05-3.18-4.62-4.43-2.22-.93-2.42-2.78-.59-5.55-1.86-1.99-2.43-1.45-1.72 1.62-.87 1.28-2.29.98-4.25-.9-3.62-4.06-7.21-8.15-10.77-12.26-.27-1.45-.6-2.1-1.8-3.04-3.35-7.06-5.04-17.69-1.38-24.28.77-1.39 1.22-2.69 1.78-3.85.95-1.94 2.9-3.21 4.66-4.09z" class="cls-257"/><path d="M30.37 67.98c.86-.15 1.75 1.01 1.01 1.6-.66-.38-1.55-1.03-1.95-1.79-.77-1.49-2.05-1.04-3.06-1.45-1.17-.48-1.82-2.36-3.19-2.25-4.74-4.77-9.04-10.11-11.95-16.24.21.19.76.4.98.21.25-.22.11-.86 1.1-1.04l-.11 3.78c2.41 1.21 4.92 2.88 4.59 4.37l4.93 5.19c1.31 1.38 2.43 3.06 4.53 3.88-.37-1.36-1.09-3.62.31-3.91 1.32-.27 2.58.94 3.75 1.27l-1.98 4.67c-.25.59.73 1.39 1.04 1.73z" style="fill:#25201f"/><path d="M12.92 22.38c.32.48.43 1.72-.47 2.75.28 1.41.69 3.78-1.14 4.3q.405 1.785-.39 2.7c-.17.92-.26 2.81 1 3.22.6 2.51.73 4.84.4 7.01.03.45-.12.46-.42.06-1.76-.5-1.56-2.04-1.96-3.52-1.85-6.72-.83-14.31 3.42-19.74-.14 1.1-.4 2.14-.44 3.21Z" style="fill:#504947"/><path d="M17.34 43.57c-.48.54-.93 1.33-1.49 1.54-.86.31-1.35-.27-2.18-.58-.57-.2-1.35.04-1.54-.45-.27-.68-.31-1.13-.23-1.64.06-.03.3-.09.42-.06.48-.78 1.03-1.6 1.66-2.46l2.64 1.22c-.68 1.18-.08 1.98.71 2.44" style="fill:#4d4744"/><path d="M27.52 48.95c1.11 1.03 1.04 1.26-.42 1.55l-1.04 2.25-.59 1.05-.02 1.1c-.29.48-1.06.57-1.11.23-.09-.61-.02-1.33.05-1.84-.93-.46-.24-2.17.64-2.67l.43-2.17.5-1.06c2.23-2.29 3.25-.92 1.55 1.58v-.02Z" style="fill:#272323"/><path d="M18.82 52.3c.43.8-.42 1.29-.72.29-2.26-1.2-4.28-3.64-2.19-6.08.32 2.38 1.01 3.94 2.92 5.79z" class="cls-226"/><path d="M25.03 50.61c-.17.88-.62 1.76-.64 2.67-.19.3-.96.45-1.13.14.16-1.21.51-2.17 1-3.06.28-.5.83-.27.78.24h-.01Z" style="fill:#474240"/><path d="m18.97 54.08.27-.27.27.27-.27.27z" class="cls-226"/><path d="M80.68 31.1c-3.61.51-3.02-3.54-.61-5.37l-.14-.77-.83-1.48c-3.84-.68-.35-3.52 1.7-3.75 1.16 1 1.54 3.35 1.3 4.94 2.59 1.29-.45 1.28-.83 3.68.75.57 1.25 1.04 1 2.44-.01.13-1.01.02-1.59.31" style="fill:#534e4c"/><path d="M61.11 19.11c1.28.45 1.15.78 0 1.41l.78.5c-.43-.41-.8-.05-.45.41-.11-.57-.48-.52-.58-.51l.49.68c.6-1.66 1.44-2.3 2.54-1.93.5.09.52.29.1.6.03.15.04.41.12.54 2.52-.52-.84 3.61-1.37 3.84-1.05.45-3.12.91-3.63-.44-.8-.18-.8-.04 0 .41 1.25-.18 1.53.47.49 1.22-.39 1.76-1.1 2.46-2.12 2.08q-1.125.12-.06-1.17c-.82.31-1.54.49-2.17.54l4.15-6.71c.52-.84.86-1.29 1.71-1.46Z" style="fill:#6b6563"/><path d="M63.45 17.98c.65.42.77 1 .43 1.68l-1.91 2.57c-.28.39-1.24.43-1.72.08.11.08 0-1.09.59-1.4l.26-.39c-.17-.44-.16-.91 0-1.41.63-.12 1.28-.74 1.8-1.11h.55z" class="cls-271"/><path d="M80.8 19.73c-.52.48-.51 1.3 0 2.09-1.31-.04-2.11-.21-2.93.41.76.15 1.89.1 2.21.5.35.43.09 1.62-.14 2.22.05.48-.14.55-.54.24-.87.72-1.97.5-3.31-.65l-1.62-3c-1.12.26-2.26 0-1.99-1.37-1.42.4-1.65-.89-.31-1.5.17-.52.61-.89.83-1.29l1.2.7c.41-.02.41-.48.28-.67-.11-.15-.3-.67-.2-.77 1.16-1.29 1.14 1.68 2.97 2.91.64.43 1.15-.57 1.56-.57.61.13 1.52.58 1.99.76Z" class="cls-34"/><path d="M80.65 17.44q.15.57.66.57l.53.63-1.04 1.1c-.7.58-1.81.89-3.31.94-1.23-.66-2.33-1.53-3.29-2.59-.45.07-.85-.16-1.2-.7.41 1.39.13 1.82-.83 1.29l-1.12.3c.34-.7.12-1.58-.65-2.66-.88-.16-1.81-.69-2.78-1.59-1.12-.24-.22-1.76.43-.66 1.59-.77 2.44.74 3.2.83 1.37.17 3.03.3 4.36-.11 1.17-.03 2.52 1.14 4.02 1.89l-1.05 1.4c.94.08 1.45-.48 2.08-.64Z" style="fill:#464140"/><path d="M70.39 16.32c1.63 1.96 1.77 5.45-.48 2.43-.28-1.06-.93-2.15-1.71-2.88-.16-.27-.28-.89-.6-1.14 1.21-.77 2.17.77 2.78 1.59z" style="fill:#8f8785"/><path d="M81.32 18.01c-.81.45-.8-.18-.66-.57.25 0 .53.41.66.57" class="cls-38"/><path d="M77.82 17.05c-.41.57-1.4.49-1.48.2-.15-.63.34-.9.54-1.13.43-.5 1.73-.18.93.93" style="fill:#706a67"/><path d="M74.2 18.08c-.37.02-.67.53-.93.5-.32-.04-.46-.96-.27-1.2.26-.48.49-.34.68-.11.28.34.41.56.52.81" style="fill:#756f6d"/><path d="M70.41 21.89c-1.5 1.59-1-.25-.59.25 1.63 1.97-3.55 1.97-3.76-.7l.1-.67c-.49-.42-.53-1.08-.03-1.33.55-.28 1.04-.45 1.55-.65l.42 1.55c1.13.25 1.94.75 2.32 1.55" style="fill:#615b5a"/><path d="m63.99 20.26-.1-.6c-.26-.17-.58-.35-.77-.59-.27-.31.06-.86.34-1.09l.52.07.38-.6c.76.03 1.37.34 1.58 1.46l-1.95 1.34Z" style="fill:#9e9694"/><path d="M63.98 18.05c-.05-.22.08-.67.38-.6z" class="cls-271"/><path d="M85.08 44.66c.35-1.04 1.05-2.22 1.7-1l-2.43 4.09c1.15.09 1.57-.8 2.34-1.1.03.76-.24 1.33-.68 1.98-.64.93-1.31 1.24-2.62.93-.17 3.09-2.08 4.79-4.07 6.65-1.1 1.04-1.67 2.39-2.84 3.13l-.87.16c-.78 2.54-2.1 4.44-3.95 5.71-.31.28-.88.46-1.22.54-.37 2.28-4.85 1.07-3.87-.67 3.19-.63 3.62-8.27 7.5-9.57 1.46-.49 2.32-1.04 3.3-2.02-.14-1.16.41-2.33 1.66-3.52-.4-2.85-.5-3.98 2.41-5.3 1.57-3.03 4.41-4.83 3.04.06l.6-.09z" class="cls-32"/><path d="M76.49 59.35c-1.16.74-1.37 2.53-1.93 3.61l-.88 1.69-1.12.61-.9-.04c-.26-.02-.74.31-1.33-.22 1.19-.43 1.86-1.61 3.39-1.83.57-2.01 1.24-3.78 2.61-5.93.82.87.11 1.48.16 2.1Z" style="fill:#322d2c"/><path d="m73.1 57.33.27-.27.27.27-.27.27zM53.15 74.59l-.65-.1c-.41-.06-.77-.33-1.03-.64.32-.31.85-.44 1.13-.25.26.17.52.77.56.99zm-1.69-.74-.6-.03.03-.58z" class="cls-257"/><path d="M50.2 73.3c.29-.58.64-.73.69-.06l-.03.58c1.17 1.01.22 2.22-1 1.1-.18.41-.37.4-.58 0-.18.61-.24 3.48.91 4.5-.71.78-.92 1.22.17 1.78-.26 1.14-.62 2.11-1.09 2.89-2.86-1.58-4.66-4.11-4.99-2.54-3.25-2.37-6.27-5.84-10.57-9.43-.91-.76-1.4-2.02-2.32-2.55-.19-.53-.67-1.22-1.01-1.6 1.2-1.5 2.25 2.39 5.43 4.2.64-.3 1.5.43 1.56 1.12l.54.55q.12-.675.27 0c.12-.05.21-.15.21-.34-1.65-.99-3.14-2.31-4.46-3.98l-2.79-4.63c.03-.4.77-1.22 1.09-1.15.45.1 1.3 1.46 1.64 1.37.3-.08.22-2.13 1.67-2.58.47-.15 1.46.61 1.63 1.33-.39.36-1.91 1.35-1.19 2.12l3.67 3.93c.29-.36.77-.81 1.12-.74.29.05.8.29 1.2.56l4.74 3.17c.8.42 2.41-.88 2.8-1.76.42.86.53 1.21.68 2.17h.01Z" class="cls-190"/><path d="M49.28 74.92c.51.15.72.6.54 1.09 1.11.1 1.11.59.04.95.65.6 1.68 1.56 1.57 2.44-.33.32-1.3.16-1.76.98.68.83 1.73.55 2.35.99-1.22 3.57-2.64 4.72-2.75 2.71-.05-.91-.79-1.36-1.63-1.92 3.71-.9.17-3.42 1.31-8.35.55.42.37.9.34 1.1" style="fill:#36312f"/><path d="m37.92 73.84-.54-.55c-.41-.42-1.2-.64-1.56-1.12-.7-.92-1.29-1.69-1.88-2.66 1.62.96 3.35 2.89 4.46 3.98l.58.57c-.3-.44-.73 0-.3.29l-.49-.52c-.08.04-.18.01-.27 0Z" style="fill:#3b3635"/><path d="M37.92 73.84c-.32-.01-.59-.21-.54-.55zm11.9 2.17-.54-1.09h.58c.32.32.37.82-.04 1.09m1.13 1.11c.37.48 1 .64 1.57.56-.07.63-.58 1.22-1.1 1.73-.45-.26-1.02-.48-1.31-.77-.49-.49-.39-1.17-.26-1.67.2-.15.49-.29.73-.22.17.05.28.27.36.37" class="cls-257"/><path d="M21.62 17.49c-.55.09-1.16.23-1.56.6l-.62.57c-1.11.45-.84 1.98-1.39 2.68-.87.22-1.46.45-2.31 1.06l-.3.47c-.61 1.26-.97 1.02-1.29-.24-.29-.77.03-1.61.95-2.52l2.8-2.56c1.28-.01 2.22-1.14 3.5-2.16.44.58.29 1.41.23 2.1z" style="fill:#938e8d"/><path d="M15.43 22.88c.02.06-.1.52-.12.78-.01.15.15.35.39.15.19-.17.42-.33.63-.39 1.39.52.84 1.45-1.64 2.79-.77 3.62-3.41 1.94-1.57-1.07-.49-.98-.39-2.63 1.03-2.5.52-.09 1 .06 1.29.24Z" class="cls-234"/><path d="M18.61 23.07c1.16.72.53 2.31-.79 2.08-.04.11-.02.38.05.57l-2.77.39-.42.1c-.27-1.19 1.8-1.19 1.64-2.79.17-.05.48.02.65.07l.37-.54h.41c.61-.56.9-.52.85.12" style="fill:#9e9a97"/><path d="M18.05 21.34c-.6.76-1.51.99-2.31 1.06.6-.92 1.02-2.35 2.15-2.57.06.75-.18 1.02-.27 1.23-.07.17.08.42.43.27Zm2.07.49c.05 1.52.01 1.79-1.51 1.23l-.85-.12c.62-.87 1.37-1.67 2.31-2.19zm-.69-3.17.62-.57zm-2.45 4.83.37-.54z" class="cls-234"/><path d="M17.89 17.55c.11.21.43.61.38.84-.07.4-1.06.61-1.38.73-1.19 1.09-2.44 2.08-2.76 3.51-.15.69-1.26 1.53-1.03 2.5.1 1.05-.33 1.05-.66 0 .32-.66.38-1.43-.31-2.06.26-.4.51-.55.77-.69 1.68-1.46 2-4.8 4.97-4.83z" style="fill:#6f6766"/><path d="m25.07 22.42-.02.78c-.58 1.44-1.08 1.37-1.18-.19-.05-.71-.21-1.53.25-2.25.31.84.55 1.27.95 1.65Z" style="fill:#736d6a"/><path d="M21.64 20.84c.25.61.62 1.16 1.13 1.58.46.15.36.8 0 1.07 1.74-.3 1.9 1.46.15 1.77.89 2.84-1.29 5.94-4.41 4.81-1.75 2.01-2.2-1.56-.34-2.11.1-.17.22-.34.38-.42.91-1.05 1.01-1.94.3-2.68.31-1.13.73-2.13 1.27-3.02-.85.19-.87-.17-.05-1.08.48.34 1.08.4 1.57.08" style="fill:#595351"/><path d="M23.3 23.48c-.13.06-.4.04-.53 0-.12-.27 0-.78 0-1.07v-.54c.57.3.66 1.03.53 1.61" style="fill:#888380"/><path d="M41.17 26.25c.67.28 1.58.61 2.15-.02l.69.7c-.4.47-1.63 1.25-1.69 2.08.33.89.71 1.53.27 2.45l.77 2.05c.38.91.12.96-.77.17-1.94 1.26-3.06-.36-2.22-2.43-.44-1.28-1.43-1.8-2.98-1.56l-.08-.83c-.48.06-.47-.08-.04-.38.91-.45 1.25-1.4 1.65-2.28l.53-1.14c.76-.39 1.45.4 1.72 1.2Z" class="cls-121"/><path d="m25.07 22.42-1.2.59q.195.825-.57.48a8.7 8.7 0 0 1-.54-1.61c-.67-.38-.76-1.25-.13-1.78.61.03 1.97.98 2.35-.35.47-.55.76-.28.87.82.17-.7.45-.9.99-1.2 3.85-2.11 1.03 3.61-1.76 3.04" class="cls-4"/><path d="m39.09 19.08 1 2.82c.27.14.27.32.04.53l-.41.86c.45 1.06.37 1.65-.26 1.77 1.29.93.93 1.31-.53 1.14-.12.25-.29.25-.5.03-.8-.09-1.41-.68-1.84-1.76-2.41-1.54-5-1.16-7.77 1.13-1.73-.47-3-1.26-3.79-2.39-.88-.18-.86-.58.02-.78 1.09-1.19 2.67-1.59 3.67-3.22-1.02.44-1.99.58-2.89 1.38l.17-1.47c1.26-.42 2.65-.76 3.77.08-.38.76-1.47.91-1.64 2.2 1.37-.9 3.83-1.56 4.04-1.54.42.04.91.58 1.12 1.43 1.01-1.22 1.94-2.49 2.56-4.3l3.22 2.1h.02Z" style="fill:#595250"/><path d="M41.17 25.12v1.13c-.66-.28-1.27-.52-1.71-1.2.23-.5-.19-1.2-.24-1.84-.02-.37.41-.76.91-.8.06.9.14 2.04 1.04 2.7Z" style="fill:#4a4543"/><circle cx="35.14" cy="21.36" r=".57" class="cls-121"/><path d="M41.17 25.12c-.08-.44.12-.9.54-1.08 0 .42-.2.82-.54 1.08" style="fill:#9e9a96"/><path d="M75.46 40.32c-.07 1.84-.74 4.48-2.29 5.32.08 1.16-.18 1.22-1.12.59-.29 1.47-1.91 4.07-3.35 4.81.28 1.59 1.1 1.4 2.47-.56l.84.14 1.1-1.7c-.51-.13-.5-.29 0-.48.81-2.09 3.64-4.26 5.44-2.3-.18.95-.86 2.02-1.48 3.02-.97.17-1.78-.11-2.81-.2-2.23 4.43-4.4 8.7-7.67 6.64l-1 1.5c-.27.36-.45.35-.62-.08v-.52c-1.09-2.28-1.36-2.79-.79-1.53l-.73-.05c-.95.19-1.47.75-1.77 1.6l-2.11 1.09c.03.15.06.41 0 .53-2.05.41-2.83 4.86-7.02 6.34-.65.23-1.69-.72-1.63-1.22.06-.6.44-1.48.89-2.25-.57.03-.98.36-1.3.32-.43-.05-.96-.57-1.34-1.15-.47.51-.64.94-.97 1.37l-.65-.6c1.3-2.23 1.35-3.85.16-4.86-1 .26-1.07-.15-.18-.73-.32-2.13 4.14-.22 4.13 1.07q-.315 2.19 1.98 2.94c.7 2.06 1.96 1.11 3.77-2.86 3.28-2.02 6.03-4.59 8.24-7.72q1.8-.105 3.72-.81c1.32-1.86 4.8-10.62 6.11-7.66z" style="fill:#3a3432"/><path d="M18.51 30.07c.4.2.36.37-.09.49l.33.87q4.005.405 2.91 3.09c-1.12 1.03-1.21 2.53-.29 4.52-.11-.41.12-.8.52-.88-.91-.5-.7-.86.33-.59-.42-.66.18-1.04 1.78-1.14 1.52 1.73 3.06 2.83 4.65 3.28 1.84-.75 7.28-.81 4.86 1.61-.08.48-.24.47-.46.02-.77.48-.99 1.55 0 1.11.15-.47.34-.47.55 0 .46-2.48 3.34-.81 3.22 1.11 1.22-.04 2.11.64 2.7 2.03 1.55-.46 2.28-.22 2.19.7.94.94 3.46 4.33 2.14 4.96-.84 1.55-2.4.61-1.69-1.02-.37-1.45-1.15-2.32-2.32-2.6.21 2.01-1.45 1.65-2.71.48l-.72.17c-.06.4-.25.44-.54.14-.55-.41-.95-.99-1.16-1.65l-.04-.55c-2.65-.32-3.88-1.62-3.68-3.89L24.85 41c.07-1.45-.51-2.28-1.35-2.86-1.33 1.25-1.91 2.35-3.13 3.89-.21-1.21-1.12-1.71-1.93-2.22-3.4-2.15-2.81-5.71-2.12-9.07.31-1.53.18-2.87 1.93-3.51.37-.14.57-1.04.6-1.33a.77.77 0 0 0-.73-.8c-.1 0-.2.01-.3.05.45-.6.53-1.42.79-2.08.2-.5 1.04-.92 1.51-1.23.03.76.24 1.64 1.04 1.99-.68.37-.96.49-1.39.76-.36.23.25.97.57 1.27-.09.86-1.2 1.34-1.79 1.68l.46.52c-.38-.55-.96.05-.35.44-.28-.43-.48-.54-.49-.53-.21.35-.59.81-.64 1.3-.03.34.64.76.98.81Z" class="cls-184"/><path d="m36.17 50.05.03-.5q-.315-.915.21-1.29c.47-.47 1.31-.09 1.73.34.74.74.3 3.3-.49 3.26-.84-.04-2.43-.98-1.48-1.81" class="cls-184"/><path d="M39.83 47.62c1.13.18 1.91 1.05 2.32 2.6.42.47.98.91 1.69 1.02.64.48.78-.2.42-2.05-2.94-5.26 6.55-.64 2.74 1.94.87 1.04 1.32 3.08.51 4.23.09.17.16.52.18.73.71.05.8.41.86 1.01.26 2.8-1.39 5.53-2.03 1.26l-.81-.09c-.51-3-1.96-4.08-4.35-3.23l-1.39-.54c-.73 1.35-1.71.77-2.93-1.73-2.94-.17-3.82-.88-3.08-3.88.11-.78.48-.76.87-.09.17.7.71.97 1.33 1.24.47.24.57 1.35 1.98 1q-.555-1.725-1.74-2.79c-.02-.28.06-.61.18-.96.41-1.18 1.68.95 2.18.73.28-.12.65-.32 1.06-.41h.01Z" class="cls-143"/><path d="M36.2 49.55c-.22-.34-.32-.74-.34-1.15l.54-.14-.21 1.29Z" class="cls-143"/><path d="M33.97 48.9c.21 1.72.94 2.99 2.81 3.16 1.16.11 1.54 2.2 1.96 3.02.41-1.89-.61-3.39-.04-5.21.67 1.41 1.09 3.89 2.71 4.11.82-.18 1.9-.08 2.78-.61 1.98 1.71 2.33 4.33 3.38 6.87.78-1.61.29-2.97.14-4.14.12-.11.55-.34.77-.28s.65.6.85.94c-.64 1.57-.92 3.17-1.13 4.8-.18 1.39.45 2.82-.45 4.4l-1.59-7.77c-1.4.74-1.5 2.1-1.68 3.87-.71-.78-1.13-1.1-2.1-1.03-.1-.54-.24-1.14-.75-1.45-.19 0-.78.09-.88-.06s.15-.91 0-1.02c-1.59-1.2-2.77-3.27-3.49-4.96-.82-.89-3.02-.11-3.43.52-.64-.47-1.06-.8-1.11-1.05.12.54.56-2.07.93-4.62.79-.37 1-.05.34.52h-.02Z" class="cls-168"/><path d="M30.87 44.67c.62.64 1.33 1.15 2.13 1.52-.03 1.08-1.31 1.98-1.65 3.1-1.16 3.91-4.69 5.53-5.22 4-.32-.12-.34-.31-.07-.54l1.04-2.25c-.05-.48.3-1.1.42-1.55.31-1.76.81-3.07 1.49-3.91l-.33-.99c.24-.42.5-.81.9-1.16l1.28 1.78Z" class="cls-74"/><path d="m34.67 46.2-.52.02-1.15-.04c-.4.23-1.66 1.15-2.19.73-.68-.54.05-1.7.06-2.25l.12-2.36c1.06 3.33 3.55 2.05 3.68 3.89Z" style="fill:#443d3b"/><path d="m34.84 48.81-.87.09c.22-.28.02-.6-.34-.52-.13-.41.36-.77.76-.52.29.18.38.61.45.95" style="fill:#645f5c"/><path d="M26.13 53.29a1.3 1.3 0 0 1-.65.51c0-.46.15-.87.59-1.05l.07.54z" class="cls-257"/><path d="m34.71 46.76-.56-.53.52-.02z" class="cls-74"/><path d="M86.27 40.22c-.11.5-.61.87-1.12 1.39.32.24.64.35.99.45.29.72-.06 1.59-1.06 2.6-.1.18.04.34-.36.52-1.43.63.35-2.43-.97-2.97-.45 2.44-1.74 4.21-4.39 4.53 1.16 2.13 1.16 3.63-.23 5.02l-1.75 1.75-.61-1.58c-1-.05-1.48-.51-1.91-1.49-1.04 2.98-2.94 4.68-4.91 6.69-.94.96-1.27 1.26-2.7 1.38-1.17.1-2.22 1.83-3.27 2.69-1.07-1.22-.58-2.38-.1-3.49-.72.12-.99.56-1.31.9l-.15.47c.61.83-1.16 3.8-1.46 3.86-.33.06-.68-.68-.9-.9.26-.5.58-.89.53-1.81-.93.55-1.19 1.24-2.31 2.04-.3-1.23.26-2 .52-2.9.04-.15.15-.29.25-.42l.54-.81c-.43-.14-.42-.31 0-.53l2.11-1.09c-1.37-.94.73-2.81 1.77-1.6.67.15 1.44.92 1.53 1.59.48.12.46.3 0 .52-.28.39-.08.41.62.08.2-.65.48-1.44.84-2.39 2.69.53 4.96-1.04 6.82-4.72.2-1.07.69-1.73 1.47-1.97 1.27.2 2.54-.42 3.82-1.88-1.95-1.36 1.62-4.63 3.45-3.68l.35-.32c-4.5-3.74 2.08-4.86 3.92-1.92" style="fill:#332e2d"/><path d="M86.78 43.66c-.67.09-1.39.44-1.7 1 0-1 .45-1.85 1.06-2.6l1.52-.53z" style="fill:#4b4442"/><path d="M64.98 56.5c-.86-.14-1.3-.79-1.53-1.59.12-.42.28-.86.93-1.08-.1.7.18 1.4.61 1.5.3.08.79-.15 1.3-.14-.34.99-.91 1.07-1.32 1.3m.62.61c-.16.24-.29.36-.36.53-.21.54-.82.51-.87.21-.12-.74.41-.86.61-.81l.62.08Zm-3.91-.58c-.27.74-1.39 1.05-2.11 1.09.46-.75 1.32-1.04 2.11-1.09" class="cls-233"/><path d="M10.94 32.14c.4-.49.79-.21 1.16.83l1.11.94c.03.89.49 2.01.04 3.12-.56 1.36.15 2.07.75 2.88.31.43.57 1.61.24 2.04s-1.47.51-1.9.42c-.31-.57-.76-1.07-1.54-1.66 1.2-1.2.96-1.96.45-3.25-.42-1.07-.15-2.5-1.12-3.55-.32-.35-.38-.94-.18-1.26.16-.25.57-.47.99-.5Z" style="fill:#625c5a"/><path d="M13.12 25.13c.17.7.17 1.38.07 2.29 1.17-.22 1.24-.88 1.5-1.22.51 2.25-1.32 2.6-1.67 4.35.78 5.05-2.08 2.68-1.7-1.11.08-1.57.44-2.87 1.14-4.3h.66Z" style="fill:#7b7574"/><path d="M27.52 48.95c.12-.44.26-1.78-.16-2.01-.32-.18-1.16.27-1.39.43.56-1.18 1.99-1.85 2.19-3.33h.53c.18-.03.64-.05.81.06.83.55-.02 3.29-1.98 4.85" style="fill:#35302e"/><path d="M13.02 30.55c1.34.87.15 2.42.18 3.36-.6.39-.38 1.38-1.75 1.29.35-1.44.36-2.45-.51-3.06-.38-.95.35-1.97.39-2.7.61 1.13.37 2.71 1.46 3.59.2-.81-.16-1.23-.28-1.65-.09-.36.36-.61.51-.83" style="fill:#6f6a68"/><path d="M17.88 25.71c-.56.83-1.86.58-2.77.39.74-.56 1.78-.54 2.77-.39" class="cls-184"/><path d="M26.06 52.75c-.11-.86.31-1.73 1.04-2.25.1.94-.1 1.89-1.04 2.25" class="cls-233"/><path d="M80.68 31.1c.19.22.41.57.34.78-.1.29-.41.72-.62 1.01l-2.16 3.02c-.99-.74-1.78-1.66-2.01-3.06-1.66.67-3.47 2.48-4.41 3.72-.28.2-1.54.04-1.11.84.19.15.74.58.61.87-.16.35-.6.64-.95.85-.08.64-.54.94-1.4.89-1.07 1.94-2.54 4.35-4.93 3.25-1.63 1.12-4.12 1.62-6.01 1.34-.71.54-2 .28-2.83-.09-.05.47-.24.66-.54.56-.46 2.52-1.46 3.16-2.98 1.91-.74-1.75-.58-2.68.48-2.78l-.17-.7c-.41-.7-.06-1.58 1.06-2.62-.11-2.68.62-4.03 2.21-4.07.36-1.77 2-4.3 3.77-3.02.89-.4 1.26-.1.56.63.17.45-.03.58-.59.4 1.73.47 2.33-.12 1.79-1.75-.17.43-.33.58-.71.25.03.46-.09.46-.36.04-2.38-1.37.39-1.97 2.07-1.23 1-.34 2.22 1.43 1.59 2.21.95-.27 1.94 1.25 2.35 2.06 1.3-1.15 2.49-1.58 3.57-1.26.83-1.32 1.79-2.11 2.9-2.38-.19-.73.6-1.38 2.37-1.97.91-2.46 3.33-2.02 3.4.63.95-.93 1.6-1.21 2.72-.3v-.03Z" style="fill:#544e4c"/><path d="m70.37 39.12.04.61c-.19.27-.43.63-.48.98-.06.41.23.96.94 1.37-.77.83-1.43 1.52-2.22 2.56-.51-.44-.88-.78-1.33-.96-.65-.26-.94.54-1.36.74-1.42 1.59-4.53 4.76-6.39 2.48-1.15.22-1.97 0-2.46-.63-1.61 2.89-3.12.67-1.91-1.76.08-.33.42-.87.78-.83.22.03.61.6.79.78l1.13-1.52c.45.45 1 .89 1.37.98.34.08.96-.65 1.32-.63 3.27.26 3.92-3.61 4.64-.32 1.42-1.01 2.21-2.52 3.19-4.18.48-.24 1.58.19 1.95.32Z" class="cls-141"/><path d="M80.68 31.1c-1.48.31-2.3 1.33-3.24 3.1-.74-1.74-.45-2.86-.69-4.06-.94.08-1.34.56-1.3 1.05.02.25.44.56-.21 1.51-.3-.34-1.08-1.2-1.53-.8-.41.36-1.26.53-1.52.84-1.27.93-1.67 1.2-1.34-.54.57-.89 1.89-1.12 2.8-1.63 1.3-.73-.95-3.18 1.42-4.2.17.3.61 1.16.94 1.19-.25-.02 2.84-.96 3.38-2.36.14-.09.41-.19.54-.24 3.12.68-.77 1.7-.78 4.2 0 .65 1.03 1.32 1.53 1.94" class="cls-34"/><path d="M72.19 32.74c-1.68 2.03-3.95 3.74-6.62 4.62-1.16-.7-1.45-2.1-2.2-3.03.06-.74.99-.86 1.6-.35.32.26.44.67.28 1.24 1.66-.33 2.32-1.85 3.07-1.31.21.15.47.39.74 1.09l1.79-2.79c.31.34.8.5 1.34.54Z" class="cls-34"/><path d="M58.46 38.68c.19 1.12.87 1.83.29 1.61-.49-.18-.9-.42-1.76-.64.3-.78 1.31-2.73 2.46-3 1.23-.28 1.01.85.91 1.29-.24.97-.7 1.32-1.9.73" style="fill:#5f5655"/><path d="M59.58 34.42c-.05-.6.5-.8 1.07-.64-.32-.34-.34-.52.14-.72.84-.16 1.25.79 1.23 1.37-.02.73-.42 1.89-1.07 2.57-.57-.94-1.2-1.62-2.46-2.35.4-.17.73-.21 1.1-.23Z" class="cls-73"/><path d="M60.07 33.31c.52-.08.71.08.57.47-.16.43-.63.65-1.07.64.11-.36-.14-.71-.56-.63l.7-.44c.11-.02.24-.05.36-.04" style="fill:#766f6e"/><path d="m60.65 33.78-.57-.47c.2.03.54-.13.71-.25-.08.34-.08.56-.14.72" class="cls-261"/><path d="M86.51 33.72c.18.22.52.54.47.86-.13.83-1.63 1.89-1.17 2.47.3.38.98.57 1.39.53l-.6 1.17c-.55 1.4-2.33.77-2.76-.4-1.75.1-2.84.8-3.28 2.11l-2.68 2.26c-.97 2.76-2.2 3.72-3.67 2.87-.06-.86.25-1.91.93-3.14l.31-2.12c-1.44 1.09-2.55 2.68-3.31 4.77-.89 1.49-1.82 2.46-2.8 2.89-1.09 1.16-1.54.99-2.9.43-2.04 2-4.05 4.04-6.03 6.1-2.66 1.33-3.74 2.66-4.85 5.35-1.2 1.72-2.11.56-2.7-3.48-1.07-.35-1.92-.8-2.54-1.35-2.12-.06-2.66-.64-1.62-1.76l.68-.02c.42-.74 1.11-.89 2.05-.44.33-.85 1.14-1.03 2.44-.54 1.34-.51 2.98-1.07 2.93.76 1.42-1.01 2.83-1.94 4.23-2.77 1.17-2.32 2.82-4.27 4.92-5.84-.74-.55-.42-1.15.94-1.8 1.94.87 2.66-.04 2.17-2.74l1.34-.15c1.85-.18 3.36-1.41 4.48-3.12 1.24.57 2.45 1.36 3.86 1.57 1.89-3.09 4.58-4.89 7.77-4.47" class="cls-76"/><path d="m86.6 38.74-.34 1.48c-1.72.04-2.57-1.71-5.1-.23 1.18.78 2.04.88 2.98 1.1-1.08.43-1.39.68-1.8 1.04l.36.31c.3.18-.39.23-.27.44l-.44-.43c-1.3 1.17-3.1 1.88-3.45 3.68-1.86.86-3.16-.44-5.44 2.3-.99-.32-.32-1.42.55-1.66-.35-.56-.15-1.31.56-1.2 1.87-.32 1.99-2.78 3.04-3.79 1.4-1.33 3.01-1.86 3.65-4.02 1.01.18 1.63.3 2.41-.16-.19-.57-.46-1.17-.33-1.41.18-.32 1.03-.43 1.2-.22.87 1.06.56 2.75 1.01 2.93.31.13 1.01-.17 1.4-.18v.02Z" class="cls-87"/><path d="m69.35 47.98-1.83 2.58c-.43-.65-1.13-1.07-1.7-.93-1.84.43-2.03 2.7-3.03 3.51-3 2.42-5.54 4.42-7.5 7.84-1.43 2.5-1.87-2.48-4.73-1.32.27-1.64.14-2.72-.24-4.3h-2.8c-.68-1.24-1.09-2.86-.51-4.23.44-1.18 1.02-.8 1.73 1.13v.54c.23.16.22.32-.02.48.54 1.75 2.34 1.5 3.6 1.6 2.09.17 2.44 3.6 2.15 5.45 1.71-.74 1.12-2.68 1.73-3.89.83-1.65 3.38-1.38 4.35-2.6.65-.8.85-1.5 1.83-1.62l4.04-5.6c.95 1.09 1.93 1.57 2.93 1.38z" class="cls-168"/><path d="m74.22 45.58-.56 1.2c-1.02.8-1.17-.59-.49-1.14.98-1.53 1.63-3.56 2.29-5.32.83 1.86-.55 3.77-1.24 5.26" class="cls-41"/><path d="M78.24 39.2v1.07l-.02-.35v-.72z" class="cls-87"/><path d="m49.39 53.25-.68.02c.05-.11.02-.34.02-.48l.66.47Z" class="cls-225"/><path d="M73.17 45.64c-.13.46.04.94.49 1.14-.24.52-.27 1.14-.55 1.66-.05.11-.03.36 0 .48l-1.1 1.7c-1.31 1.43-2.05 2.99-4.62 3 .08-1.04.71-1.72 1.31-2.58.42.08.9-.33 1.41-1.23 1.12-1.37 1.76-2.56 1.94-3.59.22-.32.68-.52 1.12-.59Z" style="fill:#423b39"/><path d="m48.4 51.66-.54-.29c.28-1.77-.25-3.25-1.58-4.44.89.02 1.45-.93 1.97-1.26.43-.27 1.55-.32 1.59-.97 1.1.6 1.5 1.94.91 2.99 1.11 1.9-.68 3.64-2.36 3.97z" class="cls-236"/><path d="M57.41 26.74c-.93.41-1.45 1.99-2.74 1.73l.57-1.19c.65-.13 1.32-1.3 2.09-1.69.55.54.06.94.08 1.15" style="fill:#8f8988"/><path d="M45.47 28.82c.11.87.27 1.91 1.14 2.3l1.35.83 4.56-2.32c.78-1.42 1.22-2.27 2.71-2.36.8.34.12.93-.57 1.19-.37.76.18.97 1.63.64l1.98-1.54c1.91 1.11 3.62 2.21 3.51 4.55l-1.39.09c-.42.02-.85.48-.67 1.14.3.69-.04.83-.7.44-1.45.92-3.22 2.06-2.62 4.65-.65.18-1.35-.39-2.21-.89.86 5.45-2.17 5.24-2.21 5.95 1.17 1.64-.66 1.65-2.14 1.19 1.21 1.37-.63 2.49-1.59.97-.76.62-1.05.41-.6-.52 1.43-.47 1.26-.65-.53-.57-.76.71-1.04.41-.53-.54-.41-1.33-2.05-2.63-3.51-1.41-.86-.08-1.92-.42-2.75-.73-1.98-.74-6.21-2.65-3.1-3.86 1.59-1.41 5.79 0 6.01 2.11l.64.11c.59-.78.4-1.23-.55-1.36l.62-1.88c-1.63-.53-1.77-1.72-.42-2.65.53-1.18.47-1.47-.16-.88-1.26-.33-1.71-1.31-1.34-2.95-1.26-2.14-.48-3.79 1.99-3.62.76.42 1.18 1.15 1.46 1.88v.04Z" class="cls-261"/><path d="M46.07 29.45c0 .13-.03.29.02.4l.53 1.26c-.79.64-1.06-.27-1.19-.84-.1-.47-.77-1.12.04-1.46l.6.63Z" style="fill:#706a68"/><path d="M46.07 29.45c-.3-.03-.63-.21-.6-.63z" class="cls-79"/><path d="m57.46 27.91-1.17 1.2c-1.06 1.08-2.03 2.05-3.72 2.59.73-1.46 1.28-2.37 2.1-3.23.93-1.02 1.84-1.6 2.74-1.73l.06 1.17z" style="fill:#736e6c"/><path d="M50.81 32.09c1.08.06.8 1.45.09 1.93-.56.38-2.12.6-2.5-.47-.24-.67.98-1.54 2.41-1.46" style="fill:#8f8886"/><path d="m47.66 45.15-.53-.57c.63-.5 1.52-.76 2.18-.3-.43.45-.7.9-.86 1.04s-.67-.09-.79-.18" class="cls-236"/><path d="M59.1 24.2v.41c-.12-.11-.61.05-.86-.02-.4-.12-.21-.42-.07-.54.12-.1.42-.55.58-.5.22.07.32.59.35.65" style="fill:#7e7877"/><path d="m72.16 18.67.31 1.5c4.46 5.84-1.52 8.76-1.37 1.68-.49-1.03-.9-2.03-1.18-3.09.4.22.75.77 1.46-.12-.63-.77-.97-1.54-.99-2.31l1.77 2.35Z" class="cls-49"/><path d="M79.39 25.2c1.34 1.58-2.72 4.02-4.38 2.93.3 1.37.31 2.88-1.35 2.44-.41-.44-1.24-.18-2.51.79-.94 1.17-1.84 1.42-2.7.76-.57.58-1.99 1.72-2.72 1.73-2.94.07-4.93-3.71-5.21-6.41l1.16-.68c.87-.68-.11-1.24-1.01-1.02.34 1.6-.71 1.71-1.08.1-.08-.38-.26-.99-.49-1.22-.48-.06-.46-.21 0-.41.71.14 1.54.29 2.63.28.52-2.51 3.41-2.17 2.39-3.68l2.05-.02c1.06.06.99.49-.1.67-.23 1.46-.29.22-.11.27 1.4.32 1.5 3.86-.57 2.8-.14.09-.26.22-.22.35 1.11.23 1.62 1.48 1.54 3.77l3.08-2.9c-.6-1.62-.57-2.82.62-3.83.17.04.47-.02.68-.04.56 1.18.49 2.64 1.81 3.76.59-1.55 0-3.22-1.3-4.41.27-.48.56-.75.86-1.03.72.61 1.6.33 2.51.16.32.9 2.1 1.83 1.03 2.92l3.39 1.95z" style="fill:#655e5c"/><path d="M59.58 25.83c.29.13.87.28 1.08-.1.97-.44 2.2.31 1.01 1.02-.12.46-.15 1.15.23 1.67.2.27.82.14 1.5.55-.51.73-1.06.93-1.69 1.39 1.2.87 1.8 1.57 2.35 2.74.81-.27 2.09-.25 2.68-.83l1.23-1.22c.47-.47 1-.03 1.48.48 1.2-.19 2.08-.87 3.27-1.56-.33-1.45-1.59-2.46-.86-4.14 1.44 1.52 1.35 3.25 1.8 4.74.3.99-1.79 1.71-2.8 1.63.92.95-1.8 3.77-3.2 2.99-1.45 1.11-2.72 1.39-3.21-.63l-1.07-.24c-.59-.73-1.16-1.36-1.59-2.21-.3-.6-1.26-.79-2.24-.63l1.14-1.38c-1.22-.25-1.88-.65-2.49-1.79-.34.78-1.09 1.05-1.9.78-.62-.5.47-1.49 1.17-1.2.46-.47.7-1.16.66-2.24.49 0 1.1 0 1.45.15z" class="cls-30"/><path d="M61.67 26.75c.11-.42-.54-1.04-1.01-1.02.47-.86 1.02-.39 1.49-.28.86.21 1.39.23 1.29 1.6-.5.22-1.19-.19-1.76-.3z" style="fill:#554f4e"/><path d="M66.06 21.44c1.23-.12 1.89.83 2.9 1.63.41-.64.15-1.05.02-1.51-.17-.63 1.02.23 1.43.33.44.8-.28 1.88.17 2.62l.59.96c.4.65-3.16 2.8-4.88 5.39-1.33-2.5-.63-4.15-1.13-6-.18-.04-.4-.07-.81-.5.39.64 1.06-.02.41-.41l.63.57c.84-.54.56-1.95-.32-2.85.29-.26.66-.27 1-.22h-.01Z" class="cls-49"/><path d="M35.21 37.02c.47.17.36.82 0 1.1-.17-.04-.37-.02-.54 0q-.75.09-1.62-.54c-.32-.33-.45-.8-.05-1.1.78 0 1.55.18 2.22.55" class="cls-120"/><path d="M38.44 26.22c-.04 1.92-2.53 3.11-2.04.46-.56-1.61-1.05-1.47-2.47-.99q-3.12-.885-6.03 2.4c-.31 2.08-1.16 3.13-2.57 3.17l.6.51c-.09.16-.2.57-.58.14l-.17-.22 1.09.4c-.14 1.07.85 1.99 2.96 2.76.67-.54 1.7.47 1.06 1.16h.59c.08-1.1.61-1.11 1.6-.04.05-.5.24-.54.58-.15 1.06 0 1.01.42-.06.65.88.3.9.67.05 1.1.88.2 1.25.58 1.1 1.15.57 2.09-3.99.88-3.26-1.21-1.56.9-3.02 1.13-4.37.69-1.1-.14-1-.6.15-.65-.47-1.36-1.61-2.09-3.43-2.19.16-1.37-.1-2.8-.76-4.28.71-1.1.74-2.05.08-2.84.5-.78.62-1.78.36-2.98.24-.63.11-1.19-.15-1.77.11-.44.28-.43.53 0 .21-.11.4-.3.57-.48.34.33.88.13 1.18.19 2.47.52 2.64-2.08 3.94-.77.34.34 1.37.74.57 1.67-.32-.55-.77-1.01-1.17-1.18-.52-.21-1.51.38-1.26 1.07.27.11.91-.26 1.08-.1.2.18.52.59.77 1.06l4.07-2.77 2.37.5c1.5.82 2.26 2.37 3.02 3.55Z" class="cls-121"/><path d="M26.66 37.55c-1.25-.82-2.35-2.09-4.18-1-.25-.31-.26-.75-.13-1.18-.26-2.49-1.5-3.84-3.73-4.05l-.21-.77c-.02-.17 0-.33.09-.49 3.16-.52 2.14-2.15 4.19-2.59-.58-.72-.65-.97-.52-1.39.15-.47.24-.85.74-.83.9-.06 1.07.67.97 1.16-.15.73-.23 1.15-.5 1.94l2.17-.23c-2.05 1.89-3.03 4.78-1.29 6.8.41.47 2.01.38 2.41 1.04.24.4.35 1.01 0 1.58h-.01Z" class="cls-160"/><path d="M34.67 38.11v.58c-.11-.04-.41-.04-.52.02l-1.1-1.15c.6-.07 1.21.09 1.62.54" class="cls-110"/><path d="m32.23 37.03.27.27-.27.31-.27-.31zm6.21-10.81.5-.03c1.58.73-.53 2.33-1.65 2.28-1.62 1.17-2.62 1.14-2.37-1.07l-1.24.18c-2.8-1.07-4.93 1.67-2.86 4.37 1.75.11 2.01 2.59 1.66 4.01-.64.16-1.87.81-2.19.04.13-1.02-.18-1.19-1.06-1.16-.05.28-.26.66-.74 1.08-.62-1.06-1.72-1.48-3.24-1.31l-.07-2.93c0-.15.09-.3.15-.42l1.88-3.68c2.66-3.12 7.03-3.04 7.15-3.38-.06.16-.05.55.03.75l2.26-.16c-.13.47-.17.94-.04 1.16.16.26.6.47 1.19.53-.32.39-.7.62-.97 1.35 1.14-.06 1.43-.88 1.63-1.6h-.02Z" class="cls-52"/><path d="m37.28 28.48.04.38.13.83c3.48-.29 3.34 4.53.58 6.13-.8.47-4.05.49-4.99 0l-.58.15c-.9-.63-1.29-1.68-1.09-3.03-2.41.55-.92-1.8-3.05-2.53.15-.34.38-.54.49-.68.14-.18-.54-.89-.36-1.03l3.87-3.15c.64.7.99 1.02 1.37 1 .46-.02 1.27-.33 1.78-1.06.4.84.7 1.79.32 3.17.47.07.97-.07 1.46-.18z" class="cls-148"/><path d="M30.28 36.01c-.22-.55-.5-.97-1.06-1.16.08-.44.47-.72.83-.49.27.17.73.54.91.81.22.33-.27.96-.68.84" class="cls-236"/><path d="m27.09 30.27.27-.27.27.27-.27.27z" class="cls-148"/><path d="m68.7 51.04 3.35-4.81c.49-.09.73.55.39.88-1.13 1.09-1.45 2.53-2.44 3.6l-.64.69c-.21.23-.6.32-.65-.36" style="fill:#5b5452"/><path d="M72.01 50.62c-.03-.79.36-1.48 1.1-1.7.18.86-.72 1.29-1.1 1.7" class="cls-87"/><path d="M22.35 35.37c-.35.03-.71.38-1 .54-.53.31-.39 1.11.32 1.12l.55.54c-.06.23-.24.41-.33.59-.44.22-.53.39-.52.88-.74.47-1.16-.49-1.43-1.12-.21-.49-.16-.93.41-1.61-1.49-1.1.57-1.3.64-3.56-1.53.15-2.83-.33-3.62-1.48.46-.47.77-.6 1.05-.73l3.71.62c.14 1.23.6 2.15 1.02 3.19.24.6-.45.97-.8 1z" class="cls-41"/><path d="m42.15 50.23-2.32-2.6c.93-.68 1.52-.1 1.85.58.35.73.49 1.3.47 2.02" class="cls-163"/><path d="M21.37 39.04c-.51-.42-.15-1.17.52-.88-.11.24-.25.7-.52.88" class="cls-160"/><path d="M33.05 42.45c-.1.66-.39.4-.59.27-.45-.31-.49-.62-.24-.85.3-.27.54-.42.82-.53-.06.27-.2.5-.31.56-.31.2-.12.69.31.55z" class="cls-236"/><path d="m46.6 44.05.53.54c.82-.3 1.07-.16.53.57.16.17.32.33.6.52.73 1.46.07 1.88-1.97 1.26-.83.85-3.45-.8-4.26-1.71l-.35.27c1.45-.24 3.22 1.65 2.21 2.74l.38.96c.75 1.07 1.32 1.92 1.01 3.92-.64-.26-1.49-.94-1.44-1.86.09-1.61-2.3-4.67-2.61-4.74-.42-.1-1.05-.03-2.06.51l-2.35-3.45c.4.09 1.43.02 1.84-.53.28-.38-.44-.67-.38-1.94 1.43 1.46 2.34 1.95 4.11 2.33-.04.53-.05 1.17.25 1.22.67.11 1.04-.17 1.29-.83.19-.48.25-.77-.61-1.22 1.52-.13 2.48.63 3.29 1.45Z" class="cls-163"/><path d="M46.28 46.93c1.29.19 1.7.65 2.05 1.73s.14 1.91.07 3c.14.15.33.41.33.59L47 51.12c-.24-.96.66-1.33.4-1.84-.34-.68-1.32-1.2-1.89-1.45-.65-.35-1.04-.4-1.27-.15-.32.34-.17 1.33.03 1.51l-2.59-3.7c-.09-.13-.24-.28-.4-.41-1-.86.03-1.6.49-.51-.12.32 0 .56.26.65l2.27-.06c.69.55 1.22 1.65 1.99 1.77zm19.68-2.5c.09.93-.36 1.59-1.22 2.12-2.26 1.42-1.54 5.51-5.32 5.13l1.5.99c-2.5-.47-3.28 2.27-5.79 1.68.61-.96.81-1.63.44-2.37-1.11 2.01-2.73 1.02-4.13.83-2.37.47-1.17-2.12 0-3.11.5-.41 3.43 1.01 3.28.93-1.18-.54-1.66-1.1-1-2.35-.57-.77-.26-1.84.93-3.22l.54-.56c0 .36 0 .92-.08 1.41-.05.29.05 1.13.99.58-.13-.6-.14-1.1.12-1.32.39-.32 1.01-.72 1.23-.37.28.44.44.7.66 1.25l1.84-.76c.22.73.64 1.28 1.03 1.42.64.25 1.08-.46 1.73-.77l3.23-1.55v.04Z" class="cls-225"/><path d="M51.99 43.51c.28-.05.86.08.96.35.13.39-1.26 1.71-.93 2.05.22.22.85.38 1.34.82l1.3-1.65c-.06.56-.46 1.5-.35 2.3.03.2.62.08.76.22.27.27 0 1-.45 1.29-.53.71.04 1.43.87.2l.18 2.47c-1.36.45-2.9-.86-3.96-.84-1.07.19-.54 1.8-.26 2.1-.13.47-.54.81-.85.83-.49.03-.87-.15-1.2-.4-.44-.02-.66-.17-.66-.47q-.705-.225 0-.54l-.33-.59q.72-1.365 1.62-2.64s-.06-1.44-.17-4.32c.02-.3-.14-.97.22-1.11.21-.08 1.84 1.33 1.87.74l.05-.82Z" class="cls-141"/><circle cx="56.94" cy="52.81" r=".53" class="cls-76"/><path d="m43.88 40.28-.64-.11c-.51-.3-1.02-.49-1.67-.68-.49-.14-.96.2-1.29.86-.25-.8.04-1.1.18-1.62-1.11-.39-2.13-.64-3.23-.68-.94-.04-1.69.94-2.55.64-.48-.15-.47-.35 0-.58.14-.5.32-.48.54 0l.54-1.06c.14-1.48 3.96-1.87 4.58-.59.14-.08.27-.16.37-.28-1.12-1.4 1.3-3.29 1.69-1.89l.21-.63.77-.17c.2-.27.38-.65 1.08-.64-.33 1.06-.58 1.93-.99 2.99 1.32.13 2.05.71 2.53 2.06-.54.27-1.22.19-1.84.18-.2.1-.28.28-.29.39l2.79.27c-.66 1.13-1.65 1.6-2.77 1.53Z" class="cls-121"/><path d="M43.88 40.28c-.04.6-.69.46-.64-.11.09-.61.74-.46.64.11m-8.67-2.16v-1.1c.12.06.4.06.54.04 0 .21.03.46 0 .76-.03.19-.26.37-.53.3Z" class="cls-236"/><path d="M42.6 33.68c.98-.03.67.99-.08.71-.9.62-1.32 1.23-1.82 1.81l.2.18 1.32-.42c.02.67-.49.98-.81 1.01-.25.03-.61-.11-.79-.22-.1-.06-.2-.13-.28-.29-1.45.63-3.07.29-4.58.59-.15.51-.33.48-.54-.04-.49.56-1.98.13-2.22-.55l.06-.65c3.58-1.04 6.18-.51 5.03-2.63-.21.09-.84.7-1.04.58-.28-.16-.36-.64-.2-.82.26-.28.57-.36 1.1-.26l1.31.24c.19.04.46-.52.09-.7-.93-.47-.37-1.23-1.04-1.79-.16-.14-4.07-.35-1.87-1.01.32-.1.12-.74.9-.57.99 1.27 1.08-1.38 2.91-1.03.36.07.27.73.06 1.26.56.83.89 1.26 1.07 1.72.32.79-.19 1.81-.81 2.3 1.04-.22 1.57 0 2.05.57h-.02Z" class="cls-52"/><path d="M34.76 34.05c-1.13.57-2.53-1.21-1.95-2.21l-1.84-1.57c1.37-1.35 2.02-2.66 3.97-3.69-.21 1.59.32 2.76 1.16 4.04-.59.95.11 1.43 1.05.62-.67.7-1.22 2.21-2.38 2.8Z" style="fill:#837b79"/><path d="M26.66 37.55c-.09.14-.18.49-.15.65 1.53.23 2.62-.02 4.37-.69 1.12.21 1.66 2.2 3.26 1.21.15-.53.33-.54.54-.02 1.33-1.06 2.18-1.27 2.55-.64-.13.32-.53.48-.59 1.16.76-.05 1.23-.34 1.48-.27s.48.73.32 1.4c3.35 1.9 5.78.47 8.62 2.41-.27.33-.44.8-.46 1.29-1.15.07-1.91.42-2.26 1.05-1.75-.09-3.35-.61-4.79-1.57-.98 1.32-1.65 1.17-2.73.02-1.72-.71-2.23-2.01-3.22-1.11-.38-.4-.48-.79-.1-1.12-.48-2.47-.96-.37-4.95-1.06-4.28-.74-3.85-4.4-5.15-3.37-.31.25-.66.57-1.18.68l-.55-.54c-1.82 1.98-1.5-3.63.68-1.66.85-.05 1.46 0 1.82.15 1.53.27 2.36.95 2.49 2.03" class="cls-236"/><path d="M30.88 37.51c-.97 1.22-2.4 2.09-3.42 1.74-.39-.13-.84-.51-.95-1.05 1.36-.93 2.74-1 4.37-.69" class="cls-160"/><path d="M33.6 42.45h-.55c-.91.45-.86-.52 0-1.11l.46-.02c.09.06.4.19.42.34.04.31-.15.6-.32.78" style="fill:#837e7b"/><path d="M36.06 41.35c-.26.29-.5.3-.72-.03-.46-.02-.82-.24-1.01-.43-.4-.39-.22-.96.19-.92.45.04.88.13 1.49.25.93-.07 1.1 1.24.04 1.13" style="fill:#403c39"/><path d="m35.34 41.32.72.03c-.15.58-.92.73-.72-.03" class="cls-184"/><path d="M22.22 37.58c-.29.06-.6-.2-.55-.54.37-.07.57.23.55.54" class="cls-160"/></g></svg>