<svg xmlns="http://www.w3.org/2000/svg" id="Layer_1" data-name="Layer 1" viewBox="0 0 100 100"><defs><style>.cls-1{fill:#2e2b2a}.cls-4{fill:#35302d}.cls-5{fill:#474644}.cls-8{fill:#2f2b2a}.cls-11{fill:#272421}.cls-14{fill:#5b4e49}.cls-16{fill:#383432}.cls-18{fill:#37312e}.cls-23{fill:#46413d}.cls-26{fill:#4a4441}.cls-33{fill:#403c3a}.cls-34{fill:#3e3a37}.cls-35{fill:#504d49}.cls-38{fill:#574f4d}.cls-39{fill:#2a2725}.cls-41{fill:#1d1c1b}.cls-43{fill:#443e3b}.cls-44{fill:#736e6b}.cls-54{fill:#342e2c}.cls-59{fill:#534b48}.cls-60{fill:#423b38}.cls-62{fill:#373230}.cls-68{fill:#2e2b28}.cls-69{fill:#5b5652}.cls-71{fill:#10100f}.cls-74{fill:#99938e}.cls-76{fill:#46403e}.cls-81{fill:#433e3b}.cls-82{fill:#1c1b1a}.cls-83{fill:#372d2a}.cls-88{fill:#45403d}.cls-89{fill:#7a7973}.cls-90{fill:#24201e}.cls-96{fill:#60544e}.cls-98{fill:#2c2826}.cls-99{fill:#766e6a}.cls-100{fill:#413735}.cls-108{fill:#645a55}.cls-111{fill:#504e4c}.cls-115{fill:#2a2726}.cls-119{fill:#373431}.cls-120{fill:#3a3533}.cls-123{fill:#2b2725}.cls-127{fill:#36302d}.cls-130{fill:#3b3734}.cls-145{fill:#6a6360}.cls-148{fill:#242120}.cls-149{fill:#34312e}.cls-150{fill:#786c65}.cls-160{fill:#9a8d87}.cls-165{fill:#514946}.cls-168{fill:#2e2a27}.cls-171{fill:#46403d}.cls-172{fill:#4e4846}.cls-174{fill:#97928e}.cls-179{fill:#59524f}.cls-187{fill:#65554f}.cls-189{fill:#524541}.cls-193{fill:#5f5755}.cls-198{fill:#3e3937}.cls-199{fill:#49423e}.cls-200{fill:#181717}.cls-201{fill:#413c39}.cls-205{fill:#3e3734}.cls-206{fill:#3f3a37}.cls-207{fill:#3b3b39}.cls-209{fill:#3e3a38}.cls-216{fill:#2d2a28}.cls-231{fill:#312d2b}.cls-235{fill:#4d413b}.cls-236{fill:#2d2928}.cls-237{fill:#67605e}.cls-238{fill:#6e615b}.cls-244{fill:#433c38}.cls-246{fill:#69635f}.cls-252{fill:#3a3532}.cls-253{fill:#5c4d46}.cls-259{fill:#4a4643}.cls-262{fill:#56524e}.cls-263{fill:#3f3835}.cls-268{fill:#7d7671}.cls-272{fill:#3d3835}.cls-274{fill:#2c2624}.cls-278{fill:#463d3a}.cls-288{fill:#534c49}.cls-292{fill:#302b2a}.cls-294{fill:#383431}.cls-295{fill:#7a736f}.cls-296{fill:#22201f}.cls-297{fill:#56514d}.cls-300{fill:#3c3a36}.cls-301{fill:#4e4946}.cls-312{fill:#121111}.cls-319{fill:#403632}</style></defs><path d="m74.46 1.54 1.03.51H76c.23.15.23.33 0 .51.46.15.44.31 0 .54l-4.1-1.51c-.49 1.41-2.56 0-2.59-1.03q-.315-.42.54-.54l4.59 1.49h.03v.03Z" class="cls-199"/><path d="M62.18 0c.38.36.64.36 1.03 0h3.08c.59.15 1.08.33 1.51.59.05.41.05.72 0 .74-.46.13-5.38.87-5.59.69-.28-.26-.46-.62-.59-.97l-.56-.64c.27-.13.66-.41 1.12-.41" style="fill:#4b403c"/><path d="M67.31 91.29c.79.64 1.36 1.26 0 1.03-.72.87-1.9 0-1.46-1.03-.67.15-1.1.15-1.1-.54l-.51-.49c-.15.44-.33.44-.51 0-.46-.15-.44-.31 0-.51-.77-.44-.62-.62.54-.51 1.08.46 2.23 1.18 3.05 2.05Z" style="fill:#3e3835"/><path d="m84.23 8.21-.54.54c-1.05.46-1.9-.41-1.49-1.59-.26-.21-.41-.72-.51-1q-.735-.27 0-.54c1 .72 1.92 1.51 2.54 2.59" style="fill:#48423f"/><path d="m69.87 98.47-.54-.51c-.08-.87-.18-2 .51-2.56.67.92.64 2.15 0 3.08" class="cls-274"/><path d="M81.69 5.62c-.03.18-.05.41 0 .54-1 .13-1.69-.87-2.1-1.49-.44-.21-.41-.38.05-.56l2.08 1.51z" class="cls-199"/><path d="m69.87.03-.54.54c-.05 1-1.21.87-1.56.05-.54 0-1.23-.05-1.51-.59h3.62Z" style="fill:#2c2724"/><path d="M62.69 88.72h.51l.51.51h.54l-.54.51c-.49.41-1.82.13-2.05-.51v-.51c.1-.44.64-.26 1.03 0" style="fill:#2c2623"/><path d="M68.82 92.83c.05.13 0 .36 0 .51v.51c.36.15.33.33 0 .51-1.05.49-1.9-.72-1.05-1.54-.18-1.15.44-.82 1.03 0h.03Z" class="cls-100"/><path d="m79.62 4.1-.05.56c-.15-.23-.95-.18-1.28-.49-.26-.23-.28-.64.31-.67.26.26.72.36 1 .56" style="fill:#39312c"/><path d="M63.21 0c.05.28-.1.44-.28.51-.44.21-.83-.13-.75-.51z" class="cls-201"/><path d="M75.51 2.05c-.41.05-.87-.1-1.03-.51.41.13.82.1 1.03.51" class="cls-238"/><path d="M77.05 2.56c0 .44-.64.67-1 .54v-.54c.15-.26.31-.26.51 0h.51-.03Z" style="fill:#392f2c"/><path d="M62.69 88.72h-1.03v-.51c.44.05.85.08 1.03.51" class="cls-189"/><path d="m69.36 94.36-.54.54c-.44-.18-.44-.33 0-.51v-.51c.15-.23.33-.21.49 0 .05.13.03.36 0 .51h.05z" class="cls-274"/><path d="m22.1 24.59.59-.51c-.13.13-.41.46-.59.51" class="cls-253"/><path d="M63.72 89.24c-.18 0-.44-.31-.51-.51.23.08.44.26.51.51" class="cls-187"/><path d="M68.82 92.83c-.13-.08-.33-.15-.49-.33-.23-.28-.64-.1-.54.33-.72.62-.95.33-.51-.51.44.1.62-.31.33-.54-.18-.15-.26-.36-.33-.49.67.33 1.26.85 1.54 1.54m.51 1.02h-.49v-.51c.18.13.41.31.49.51" style="fill:#4d4743"/><path d="M76.54 2.56h-.51v-.51c.23.05.44.28.51.51" class="cls-238"/><path d="m17.97 26.62.59-.51c-.13.23-.38.36-.59.51" class="cls-171"/><path d="M64.74 90.75c-.21-.05-.41-.33-.51-.49.23 0 .44.26.51.49" class="cls-187"/><path d="M61.67 88.21c.46.15.44.31 0 .51.46.15.44.31 0 .51-.15.44-.31.44-.51 0-1.38-.18-2.74-.36-4.08-.51l1-1.05z" class="cls-272"/><path d="m85.75 10.23-.56.05c-.21.62-.54.38-.97-.67-.92.54-1.33-.13-.51-.87l.54-.54c.72.49 1.21 1.23 1.51 2.03Z" style="fill:#514b47"/><path d="M55.51 87.67c-.44.72-1.44.64-2.15.38.72-.13 1.33-.38 2.15-.38" class="cls-272"/><path d="M77.57 48.72a.98.98 0 0 1-.51-.51zm1.2.41-.69.13v-.51c.18.18.44.26.69.41" class="cls-108"/><path d="m65.41 17.36-.69.13v-.54zm-1.18-.44c-.23-.1-.41-.28-.51-.49.21.1.36.31.51.49" class="cls-209"/><path d="m83.69 8.74.54-.54z" style="fill:#2d2421"/><path d="M75.57 68.75c-.87 2.05-2.97 2.26-5 2.31-2.03.62-4.72 2.31-1.85 3.72 1.97.23 2.46 1.05.77 2.28.87.26 1.56.46 1.87 1.41-.18-.74 1.23-.79 1.51-.1 1.31-.28 1.69-.08 1.21.64-2.8.59-5.72.41-8.33-.54.05-.41.85-.21.79-.21-.67-.05-2.59-.36-2.97-.51-.21-.08-1.05-3.41.33-3.97-.33-1.69.49-4.82 2.36-3.44.59-.23 1.28-.46 2.1-.67l.51-.95c3.9.56 7.26-2.08 7.23-6.1-.23-1.33 0-2.15.67-2.51 1.54-.54 2.51 3.77 1.56 4.51-.33 1.38-1.31 4.51-2.77 4.13Z" class="cls-41"/><path d="M34.85 80.65c.18 0 .21.18.1.28l-.31 1.69c.85 3.82-1.21 2.54-2.64.13-.92-1.51.38-5.31 1.49-6.62-1.1.26-1.15-.49-.08-.85.46-1.08-.08-1.82-1.64-2.21-1.03-.44-.77-1.23.77-2.38l3-1.95c2.21-.31 2.26 3.21 2 5l.54 1c-1.56 1.87-2.64 3.82-3.21 5.9h-.03Z" class="cls-82"/><path d="M34.95 80.9c-.49 3.05.56 5.92 3.54 7.44 2.44 1.23 5.13 1.59 7.87 1.05l7-1.36c.74.05 1.51 0 2.15-.38h2.56c.79.36.44.72-1 1.05l-5.74 1c-.03 1.36-.51 1.31-.92 0-2.62 1.26-5.38 1.97-8.31 2.18-4.54-1.56-7.77-4.13-9.69-7.77-1.1.9-1.36-1.08-1.21-2.18-.95-.31-.72-4.31.67-3.46.1-2.46.64-3.26 1.62-2.38-.72 2.05-1.69 3.95-.9 6.64l.82-1.31c.23 1.41.15 2.33 1.03 3.26.05-1.62-.18-2.77.54-3.82v.05h-.03Z" class="cls-292"/><path d="M78.77 49.13c7.31 3.97 11 13.72 6.77 21.33-2.54 4.56-6.8 7.56-11.49 8.54-.15-.54-.72-.72-1.21-.64.95-1.38 2.54-2.21 4.8-2.51 1.56-1.46 3.15-2.28 4.74-2.41 4.36-5.67 4.08-13.08-.1-18.82l.1-1.44c-1.72.21-4.62-2.21-4.92-3.92-.1-.51.21-.44.59-.05-.05-.28.18-.31.69-.13v.05z" class="cls-98"/><path d="M33.33 18.36c.85-.33 1.1-.18.51.56l-.13.67a88 88 0 0 0-7.03 7c.85.23.18 1.21-.41 1.62-.31.67-.64.33-.72-.36l-2.51 5.33c-.56 1.18-.85 2.54-1.97 3.26-1.28-.18-.54-1.69-.05-2.59-1.28-.82-.23-2.82 1.18-2.46l-.46-1.13c.67-1.36 1.54-2.38 2.62-3.08-.28-.85-.49-1.72-.64-2.59-.92.51-1.23.26-.49-.54.92-.72 3.26-.05 4.13-.79 2.13-1.85 3.69-3.8 6-4.9z" class="cls-11"/><path d="M31.46 65.05c.05-.49.18-.44.38.03.97-1.49 1.82-1.85 2.1 0 3-.95 7.18 4.23 5.33 7.1 1.1.51 1.95 2.44.82 2.69-.46.49-1.31.49-2.54-.05.67-3.9-.33-6.15-3.03-6.77l-3.62.23c-1.1.08-1.59-.46-2.13-.62-.74-1.41 3.56-.77 3.36-.72-2.64.92-6.23-1.79-2.33-2.38.21-.38.36-.36.49.1.56 0 .95.1 1.15.41v-.03Z" style="fill:#252220"/><path d="m73.41 39.54 1.18.21c.77 2.44 1.26 3.13 1.44 2.05-.18-.26-.23-.54-.28-.85-.15-1.54-.41-3.92.18-5.08.18-1.59.67-1.62 1.69-.41-1.46 2.62.41 7.38-.92 11.77-.51-.23-.64-.82-.36-1.69.69 2.8-2.23 2.59-3.23 1.21-1.33-1.87-2.46-10.31-.69-12.33l.54-.18c.15 1.77.31 3.56.46 5.33v-.03Z" class="cls-296"/><path d="M60.62 90.77c.44-.77 2.44-.36 2.54.62.36-.97 1.13-.59 1 .44 1.64-.15 4.62 2.21 3.59 3.59.59.77 1.13 1.62 1.59 2.54.67-.59.74-.31.54.51v.51c-.41.54-1.05.97-1.72.62l-.41-.49-.41-1.64c-.79-2.38-3.13-3.49-5.28-4.49 1.64-.51-2.46-1.05-3.38-1.03-2.49.49-4.9.79-7.26.92l-.54.49c-.08.46-.62.26-1.03.03.36.67-.67 1.05-1.08.46-.77-.79-.23-1.31 1.59-1.56l-.15-.67c1.13-.69 2.72-.9 4.77-.69l.21-.69c1.79-.38 3.56-.21 5.38.56h.05z" class="cls-127"/><path d="m63.72 16.44.51.49c.13.05.38 0 .51 0q.39.27 0 .54l-.51-.05c-.79.62-2.67-.21-2.82-1.15a9 9 0 0 1-4.69-.56c-1.67-.23-2.59-.59-3.82-1.56-.18 1.59-4.08 1.59-4.54.08-.38 1.46-1.41 1.51-3.08.15-.62.59-2.26.33-1.08-.56 6.64-1.59 13.54-.72 19.54 2.62h-.03v.03Z" style="fill:#2d2a29"/><path d="m72.44 34.39-.36 3.44c1.77 5.74-.13 9.62 3.85 9.56 0-1.1 0-1.69.41-2.33.41.92.23 1.59.41 2.15-.1.08-.15.28-.1.38.85 1.1-.08 1.23-1.13.62.05.44-.08.46-.36.1-3.36-.95-4.31-1.72-2.77-2.31-.85-1.44-1.51-2.92-2-4.51-.85 0-1.03-2.44 0-2.54.21-1.31.56-2.51 1.05-3.62-.31-.15-.28-.33.03-.51.13-.56.36-1.18 1.05-1.03.41.15.41.36 0 .54l-.08.05Z" style="fill:#121110"/><path d="M19.41 26.57a47 47 0 0 0-3.95 4.67c-.13 1.49-.59 3.05-1.38 4.69l-.44 4.38-.62.69c.41.82.41 1.36 0 1.56q-.075.735-.54.54c-.13.44-.28.44-.49 0-1.28-6.13.87-12.82 6.03-16.44l.59-.51h.41c.77-.67.97-.49.44.46v-.05h-.05Z" style="fill:#37312f"/><path d="M75.33 25.72c.08.1.1.33-.1.41l.95 2.1c1.59 1 2.03 2 1.28 3.03.49.05.49.23.08.51.36.49.33 1.23-.05 2.26.28-.23.85-.13 1.64.33q.66.27 0 .54c-.38.38-.9.54-1.44.54s-1.15.15-1.69.41c-.87-.23-.9-.67-.03-.92l-.49-2.13c-.62-1.05-1.03-2.38-1.23-4.03-.64-1.21-.95-2.26-.9-3.18-.44-.97-.1-1.26.69-.54.64.1 1.1.33 1.33.64h-.05v.03Z" style="fill:#1c1816"/><path d="M28.38 76.88c.23.21.21.38 0 .56-1.1 2.64-1.1 5.82 0 8.36l-.15 1.03c1.03-.56 1.59.69.56 1.38 1.51 1.59 2.87 3.62.05 2.03-2.62-3.51-3.21-8.1-2.03-12.31l.51-.51v-.51c.15-.21.33-.21.51 0 .13-.46.31-.49.56-.05l-.03.03Z" style="fill:#35312f"/><path d="M65.41 17.36c3.54 1.54 6.54 4.46 8.56 7.74-.21.05-.49.33-.69.54-1.05.1-2.87-2.36-2.82-3.46l-.67-.62c-.21.33-.36.31-.51-.08-.46.18-.87-.1-1.28-.87-1.79-.69-2.87-1.59-3.23-2.69-.51.41-.77.18-.54-.46l.51.05c-.08-.31.15-.36.69-.13l-.03-.03Z" style="fill:#2e2a29"/><path d="M62.05 92.95c-.1-.05-.26-.1-.41-.08-1.69-.46-3.46-.44-5.15-.13-1.05.44-2.31.54-3.44.64l-1.13.49h-1c-1.1.46-1.44.28-1.03-.51h1.03l.54-.51c3.67-1.28 7.77-1.77 11.82-.44-.23.59-.79.54-1.18.54zM25.2 57.03c.72.97-.1 1.49-1.03 1.9 1.03.36 1.31.82.26 1.21l.72 2.15c.15.18.44.49.51.72.1.44-.18.9-.33 1.21l-.1-.51-.54-.59c-2.05-1.33-2.15-4.33-.64-6.41.41-.56.23-1.46.26-1.9.85.41.62 1.49.92 2.23" style="fill:#292624"/><path d="M13 43.52c.87-.18 1-.13.46.56l-.08.56.77.15a16.9 16.9 0 0 0 3.95 5.97c1.28-.46 2.28.08 1.54 1.49l-.54.05h-.51l-1.03-.51-3.05-3.08-2.13-4.59c-.18-.46-.15-.82.05-1.05l.54-.54c.95.18.87.59 0 .97H13Z" style="fill:#322c2a"/><path d="M33.41 75.29c-2.03-1.33-3.72-.79-5.03 1.59l-.56.05c-.26.08-.28-.13-.05-.62v-.41l.54-.56v-.44l1.03-1.08c.9-1.23 1.92-2.28 3.18-3.1l-1.15 1.49c.85.05 1.13-.31 1.97-.92-.31 2.23 1.49 3.85.08 4.03v-.03Z" class="cls-292"/><path d="M50.9 93.88c-1.51.92-3.33 1.54-5.13 1.51-.36.26-.77.38-1.03 0l-.51.51h-1.54c-.97.41-2.1.41-3.08 0h-1.03l-.51-.51c-.46-.15-.44-.31 0-.51.67.23 1.36.46 2.03.49.13-.46.33-.46.56-.03.05.08.36.1.49.05.13-.74.79-.79 1.03-.05.46.41 1.21-.23 1.59-.38.33-1.31 4.21-2.21 5.03-1.1l1.08-.46c.18.38.59.54 1.03.51v-.03Z" class="cls-68"/><path d="M61.05.44c.72-.23.97 0 .56.64 1 .9-1.64 2.36-2.59 2.82-1.54.38-3.08.87-4.59 1.41-.13.44-.26.41-.36-.08-.18 1-.59.9-.67-.15.62-1.26 2.18-1.49 3.46-2.23L61.04.41v.03Z" class="cls-201"/><path d="m76.03 3.1 1-.54c.64 0 1.13.54 1.56.97.26.38.56.77.95 1.13.72.31 1.44.79 2.1 1.49.51-.05.9.56.51 1-.03.85-1.85.26-2.08-.49-1.26.18-1.54-.23-.87-1.21-1.74-.33-3.59-.72-5.54-1.15-.97-.46-1.67-1.05-2.08-1.77-1.26-.54-1.08-.95.28-.95.77-.56 3.46.67 4.1 1.51" class="cls-238"/><path d="M44.18 13.82c-.05.31.13.51.33.56.28.05.54 0 .74 0 .44.15.44.31 0 .51-.92.59-2.1.97-3.49 1.18l-3.1 1.26-.62-.44c-.46-.1-.44-.28 0-.49-.21-.15-.21-.33 0-.51 1.92-1.03 4.03-1.59 6.1-2.1h.03v.03Z" style="fill:#3b3735"/><path d="M23.72 24.62c.46 1.26-.08 2-.9.85-.51.51-.9.54-1.15.1-.1.46-.31.49-.56.05 0 .33-.23.51-.56.49.74.64.49.92-.44.54-.33.21-.51.31-.69-.08 0-.28-.15-.44-.44-.44.74-.97 1.95-1.36 3.13-1.51l.59-.51c.1 0 .44.05.54 0 0 .23.26.54.49.54v-.03Z" class="cls-171"/><path d="M37.56 16.41h.51v.46c.44.97-1.64 1.38-2.54 1.1.87 1.28-.69 1.87-1.67.95l-.51-.56c1.36-.64 2.62-1.92 4.21-1.95" style="fill:#383533"/><path d="m87.33 13.33-.56.54c-1.36.21-2.03-2.49-1.59-3.59.13-.46.31-.46.56-.05.95.79 1.28 1.95 1.62 3.1z" class="cls-43"/><path d="M69.87 95.39c.15 1.1 0 1.97-.51 2.56-1.31-.08-1.21-1.67-1.59-2.54.23-.44.59-.64 1.05-.54q.075-.69.54-.54c.26.28.44.64.51 1.03z" class="cls-100"/><path d="m61.64 92.85-5.15-.13c1.56-.64 3.67-.77 5.15.13" class="cls-127"/><path d="m77.05 48.21.51.51c.13.05.38 0 .51 0 .23.15.23.33 0 .51l-.59.05c-.62 1.56-2.95.44-2-1.08.46 0 .87-.23 1.13-.62l.44.59v.03Z" class="cls-296"/><path d="M42.69 95.9c-.72.79-2.36.79-3.08 0z" class="cls-130"/><path d="M53.38 7.8c-.62-.59-.62-1.69-.03-2.31V7.8z" class="cls-201"/><path d="M64.74 78.52H63.2c.08-.49.26-.59.74-.62.46 0 .79.08.77.62" class="cls-41"/><path d="M67.74 99.08c-.38-.46-.54-1.05-.41-1.64.15.46.77.92.41 1.64" class="cls-100"/><path d="m12.38 44.13-.44-1.05h.49z" class="cls-14"/><path d="M79.08 34.9v-.54c.79-.15 1.51-.56 2.21-.95-.51.79-1.26 1.38-2.21 1.51" class="cls-4"/><path d="M53.03 93.39c-.28.36-.69.49-1.13.49.18-.54.69-.44 1.13-.49" class="cls-127"/><path d="M38.08 95.39c.23.15.23.33 0 .51-.44 0-.87-.1-1.03-.51zm7.69 0c-.15.41-.62.49-1.03.49-.28-.15-.26-.31 0-.51h1.03v.03Z" class="cls-263"/><path d="M68.15 99.57c.62-.13 1.18-.31 1.72-.62-.13.41-.41.82-.85 1-.38.15-.62-.1-.87-.38" class="cls-100"/><path d="M81.69 33.39c.72-1.26 1.82-2.38 3.1-3.08z" class="cls-4"/><path d="M17.54 51.8c-1.26-.62-2.44-1.79-3.05-3.08 1.18.79 2.26 1.87 3.05 3.08" class="cls-60"/><path d="M28.31 74.88c0-.56.77-.77 1-1.08-.1.51-.49.9-1 1.08m-.54 1c.13-.23.31-.41.51-.56 0 .26-.28.49-.51.56" class="cls-207"/><path d="M27.82 76.93h-.51l.46-.62zm-1.03 1.02c.05-.21.33-.41.51-.51-.1.23-.31.41-.51.51" class="cls-33"/><path d="M38.08 16.41h-.51c.13-.18.31-.38.51-.51z" class="cls-179"/><path d="M38.59 95.9h-.51v-.51c.26.08.44.26.51.51m6.15 0h-.51c.05-.23.28-.51.51-.51z" class="cls-149"/><path d="M53.97 8.8c-.1-.21-.38-.41-.56-.56.23.15.41.33.56.56" class="cls-201"/><path d="M33.97 42.49c.1.72-.41 1.28-1.51 1.72.15 1.13-.31 1.33-1.08.51-.59.15-1.33.64-2.23 1.44-.59-.05-.67-.41-.38-1 .49-1.51 1.1-2.92 1.15-4.51.08-1.38.44-1.95 1.08-1.67.15 2.41 1.05 3.33 2.69 2.8l.28.72Z" class="cls-99"/><path d="M31.36 44.72c.82.92-1.08 2.82-2.05 1.87-.67.97-1.15 1.15-1.49.56l.08-.95.44-.62c.1-.13.15-.38.41-.44.13.26.54.46.74.36.49-.23.79-1.54 1.36-1.15l.51.36Z" style="fill:#6d6462"/><path d="M29.33 52.82c-.54.74-1.05 1.08-1.54 1.03-.08-1.21-.23-2.41-.51-3.59 0-1.05-.23-2.23.51-3.1.56 0 1.05-.23 1.49-.56.51.56.44 1.38-.23 2.38.31 1.38.38 2.67.26 3.85" class="cls-26"/><path d="M27.82 53.85q.69.225 0 .54c-.97-.46-.51-2.08-.51-3.08v-1.05c1.36.77.46 1.95.51 3.59" style="fill:#605856"/><path d="m26.28 30.77.9.69c-.79.33-1.23.82-1.36 1.46v.44l-.56-.54c-.44-.1-.23-.64 0-1.03v-1.54c.13-.46.31-.44.51 0 .28-.36.44-.21.51.51Z" class="cls-34"/><path d="M25.56 27.85c.36.49.54.77.21 1.38-.1.49-.26.82-.51 1.03.69.18.69 1.31 0 1.54l-.51 1.03c.18.08.31.15.41.28.15.21.05 5.18-1 4.82.54 1.82.46 3.82.05 5.67 1.15-.26.74 2.26.44 3.08.62.67.9.23 1.15-.51 1.15-3.54 1.69-7.18.77-10.8.26-2.41 1.15-3.18 2.33-.92.46.1.41.23-.05.41l.54 1.08c1.46.87 1.05 3.15.51 4.69.46 1.64.82 3.72-1.15 4.51.67.64.41.9-.41.44l-.44.62c1.05 0 .82.56-.08.95.18.87.13 2.51-.51 3.1.33.44.54.82 0 1.05 0 2.23-.38 4.23-1.28 5.95l-.85-.23c-.64.26-.85-.21-.62-1.38l-.31-.87c-1.9-.05-3.92-.74-5.18-1.97v-.51c.13-.26.33-.28.54-.05.77-.41 1.72-.31 2.82.28.26-3.54.05-6.77-1.87-9.97-.72-1.9-1.46-5.1.46-6.13.92-3 2.18-5.87 3.72-8.59h.77l.05.05Z" style="fill:#1a1817"/><path d="m19.1 52.82-.51-.51h.51z" class="cls-60"/><path d="M21.08 36.44c-.13 1.33-.77 2.67-.13 4.23 2 4.85 1.64 9.08 3.21 13.08-1.74-.05-3.38-.44-4.51-1.49l-1.54-1.49c-1.15-1.18-2.36-2.87-3.67-5.08-.38-1.26-.46-2.44 1.13-2.1.41.31.33.49-.21.51l.72.64c.46.1.46.21 0 .26l1 1.21c.18-.97.56-1.21.85-.28 1.51-.77 2.64 2.15.62 2.33 1.05.18 1.74.51 2.05.95.44.18.44.36 0 .51.72.79 1.31.41 1.59-.54-.46-.13-.62-.67-.41-1.59.31-1.38-.69-1.49-2.08-4.49-.46.08-.41-.26-.05-.59-.59-.21-.9-1-.54-1.56-1.23-.38-.77-3.95-.41-5.15s.95-2.62 2.31-2c-.46.87.13 1.9.05 2.59l.05.05z" style="fill:#322e2b"/><path d="M29 33.82c.79.1.74.49-.1.62-.33-.38-.9-.74-1.13-.38-.92 1.44 1.67 3.82-1.69 12.77l-.49 6.49h-.72l-.23-6.67c.9-3.13 1.03-6.18.41-9.13-.38-1.97-.13-3.36.77-4.15v-.44c.97-3.54 3-1.67 3.18.9Z" class="cls-39"/><path d="M25.82 33.36c-1.41 3.13 2.05 4.69-.49 11.31-.18.49.33 1.9-.72 2l-.44-3.08c.41-1.85.49-3.82-.05-5.67l.59-5.1c.13-.46.31-.46.51 0 .31-.38.49-.21.56.54h.03Z" style="fill:#363231"/><path d="M27.82 54.39c.26.13.23.28 0 .49l-1.03 2.59c.44.15.44.33 0 .51.51 1.51-1.79 2.26-2.62.95.13-.62.46-1.54 1.03-1.9 2.49-1.56.92-4.21 2.1-5.72.18.92.36 1.95.51 3.08Z" class="cls-26"/><path d="M30.9 37.95c.44.1.46.74.1 1.03-.33.38-1.05 1.13-1.08 1.67.1-1.59-.08-3.15-.51-4.69l-.54-1.08.05-.41.1-.62c-1.49-1.85 0-3.59.85-.95 1.23.9 1.56 2.59 1.03 5.05" style="fill:#534e4c"/><path d="m24.2 43.59-.05-5.67c.92.77.92 4.41.05 5.67" style="fill:#474240"/><path d="m25.77 29.23-.21-1.38c.08.54.59.44.72.36.44.33.05 1.08-.54 1.03" class="cls-34"/><path d="M25.25 32.82h-.51c.05-.44.05-.87.51-1.03z" class="cls-39"/><path d="M25.77 30.26h-.51c0-.46.13-.79.51-1.03.56.05.44.72 0 1.03" class="cls-11"/><path d="M29.38 35.92c-.46-.15-.56-.62-.54-1.08.46.23.44.69.54 1.08" class="cls-216"/><path d="M27.9 46.21c0-.28.28-.44.44-.62z" class="cls-26"/><path d="M48.49 51.31c1.82.64.69 2.26-.69 2.97.26.69-.36 1.77-1.05 2.1.38.54.15 1.44-.54 1.51l.26.49c-1.74 3.95-3.62 9.62 2.38 10.26.13-.74 1.13-2.1 2.08-2.03 1.21-.9 2.28.26 1.51 1.51.23.28.59.46 1.05.56-.15-.59.92-1.21 1.51-1 .15-.46.36-.46.56 0 1.18-.13.87 1.38-.05 1.59-.18 1.08-.56 1.79-1.15 2.15-.41 2.46-1.31 3.64-2.49.82.18 2.87-2.64 5.64-2.26 1.38l-.38-1.85c-1.41-.9-1.72.28-1.9 1.62 1.36-.1 1.28.74 0 1.1-.85.67-1.38.54-.85-.38-.18-1.59-.59-2.21-1.26-1.82.62.9.59 2.56-.67 2.67.46.1.46.28.05.51.03.28-.33.92-.62.87-.41-.05-.69-.59-.79-.92-.38-.15-.23-.38.44-.69-1.13-.69-.56-3.05.67-3.31.38-1.23-.05-2.62-1.21-2.13-1.49.26-1.82-.62-1-2.56l-.46-1.62c-.46-.26-.41-1.41.18-1.59-.97-1.33-.15-4.54 1.31-5.23-.36-.87 0-1.03.64-.31l.49-1.18c-1.08-.44.9-2.05.82-1.95-.49.77-1.26 1.77-1.92 1.03-.77-1.38.82-3.38 2.15-3.97l-.9-.67c.59-.33 1.08-.85 1.46-1.59.26-.67 1.1-.9 2.51-.67l.1 2.31Z" class="cls-76"/><path d="M52.44 48.72c.15 1.72.9 2.08 2.15 1.08l.44.49c.92-.15.85.69 0 .95l.49 2.1c.92-.69 2.05 1.87.87 2.08 1.74 2.54 4.28 4.41 7.33 4.54.18-.44.33-.41.51.03.13-.28.31-.26.51 0l.51.49c.15-.44.33-.44.51 0l.51.15c.15-.92.72-.79 1.69.38.41.13.41.28 0 .46-1.28.13-2.51-.15-3.72-.44-1.13.97-3.08 1.87-4.59 1.92-.13.21-.38.44-.56.59l-.49 1.64c0 .1 0 .26-.05.36.87 1.49 1 2.77.41 3.85-.08 1.26-.36 2.1-.92 2.56-1.05-.38-1.15-1.31-.49-2.23-.38-.28-.72.08-1 1.08.46.08.44.23 0 .44l.51.59c.54.18.82.79.87 1.87h.62c1-.21 1.36 1.87.1 1.77-.56-.21-1.26.31-1.77.82-.46.08-.74-.64-.85-.9-1.21.28-1.26-1.64-.13-1.92-.08-1.05-.46-1.77-1.13-2.18 0-.79.26-1.46.72-2.03l.05-1.59-.51-.38c1-1.82 1.15-3.74.49-5.77-1.08-1.54-2.08-4.33-2.08-6.15-.72-.28-1.51-1.41-.97-2.05l-.56-2.56c-1.21-.18-1.51-2.97.05-3.18 1.08-.38 1.44.46.46 1.13v.03Z" class="cls-198"/><path d="m41.64 65.16.46 1.74c-.67 2.05-.49 3.33.51 3.82.56-.15.28.62.05 1.08l-.51 1.54c1.08 0 1.08.79 0 1.03.21.69.05 1.03-.51 1.03h-.72c-.38.05-.59-.38-.82-.51 0-.13.13-1 0-1.26-.15-.28-.95 0-1.44.21.72-2.03.69-3.97-.36-6.03-.69-1.36-2.56-2.33-4.36-2.72-1.64-.21-1.41-.97 0-1.56s4.08.72 4.85 2.1l.56-.36c1 .64 1.59.23 1.77-1.21-.41-.21-.41-.38 0-.59.13-.97.51-.92.69.08-.21.41-.13 1.1-.18 1.59v.03Z" class="cls-231"/><path d="M48.82 75.47c.36.49.74.95 1.31.9a3.9 3.9 0 0 0 1.74-.56c.69-.13.97.05.74.72 0 1-.41.97-.64-.05l-.51.56c.46-.03.46.1.08.38-1 .77-.69 2.36-.69 3.59-.15-.23-.64-.38-.9-.46.08-1.31.08-3.1-1.15-3.69-.64 1.08-1.15.82-.92-.44-.18.46-.38.49-.62.05h-.44c-.97-1.77.51-1.69 2.05-.97h-.05z" style="fill:#2c2625"/><path d="M47.33 74.49c1.1-1.18 1.82-.44 1.49.97-.74.15-1.72.08-2.05 1-.44.03-.72-.26-1.03-.51l-.54-.54c-.13.08-.41.1-.59.08l-.05-.51c.9-.64 1.36-1.18.67-2.67.05-.95-.23-1.85.21-3.18 1.1 2.26.79 4.72 1.9 5.36" class="cls-38"/><path d="m85.33 15.92-.59 1c-.13.44-.31.44-.51 0 0-.28.08-.79-.03-1.18-.1-.33-.49-.72-.97-.77l.05-.64-.08-1c.23-.44.64-.67 1.13-.72.21-.44.38-.38.51.08.23 1.15.92 2.03.51 3.23h-.03Z" style="fill:#8d827b"/><path d="M80.18 29.72c-.46.85-1.1 1.56-2.15 1.54.54-.85 1.23-1.56 2.1-2.1z" class="cls-294"/><path d="M57.95 48.67c1.13.21 1.18.87.21 1.97-1.1 2.92-.26 3.87 2.38 5.28.23-1.05 1.21-1.13 2.92-.23 2.62 0 5.23.18 7.82.62 2.08.46 3.67 1.33 4.72 2.67 1.1-.26 1.44.21.72 1.13l.28 2.26c-.41-.03-.92.08-.95.28-.36-.33-.46-.72-.23-1.56-1.26.59-1.85-.15-2.82-.59-2.95-1.36-1.77-2.95-4.15-2.15.28.46-.31.64-1.72.56-.08 1-.26 1.51-.72.67-1.85.03-3.23-.38-4.18-1.26-1.49.33-4.1.41-4.21-1.87l-.92-1.05c-.05 1-.44 1-.77.05.23-.64-.41-1.62-.87-2.08-.28-.46-.28-.82 0-1.05-.21-3.13.59-4.33 2.41-3.64h.08Z" class="cls-312"/><path d="m84.85 65.23.69.21c-.26 2.85-1.33 5.51-3.18 8.03-2.54 2.69-5.95 4.1-9.54 4.92l-1.51.1c-1.77-.56-1.21-1.62 1.72-3.18.51-1.33 2.67-2.15 4.1-1.44.59-.59 1.1-.74 1.56-.46 1.28-1.21 2.49-2.41 3.59-3.67-.85-.62-.54-1.67.41-1.95-.49-.15-.51-.36-.05-.59-.23-.92.23-2.1 1.33-2.03.31-.95.72-.9.79.1l.08-.05Z" class="cls-205"/><path d="m73.05 75.29-.36 1.9c-.03.33-1.03.31-1.44.31s-.31.62.1.97c-1.62.1-2.82-.77-4.92-1.85 1.1-.67 2.44.13 3.64-1.36-1.56 0-2.67-.15-3.49-1.31-.97.23-.92-1.13.21-.74.64-3.82 4.9-1.31 8.77-4.49 1 .08.64.72.13 1.46-.67.97-3.54 2.69-4.59 2.15-2.21 1.15-1.82 1.74 1.15 1.82l.82 1.13h-.03Z" class="cls-98"/><path d="m67.31 69.75 1.05-.05c-.28 1-1.51.44-2.1.67v-.62c.15-.46.67-.23 1.08 0z" style="fill:#0b0b09"/><path d="m33.41 75.29.08.85c-1.18.03-.92 1.87-1.62 2.38-1.59-.08-1.15-2.38.08-3-1.05-.44-1.97.26-2.82 2.05l-.79-.13v-.56c.21-1.92 2.49-3.33 5.1-2.82-.36.41-.33.9-.05 1.26l.03-.03Z" class="cls-207"/><path d="M50.41 89.75c.54 1.62-1.08 1.82-2.38 1.72v.82c.26-.28.54-.28.74.03.03-1.38 1.28-1.41 1.64-.05-.67.21-1.21 1.03-1.59 1.56-1.46.64-3.56 1.18-5.05 1.1l-2.13-1.23c-.82-.49-2.23.44-2.9-.38.92-1.23-1.08-2.72-2.28-3.54-.18.31-.36.54-.46.51-.59-.18-2.67-2.46-2.97-3.21-.49-.1-.49-.26 0-.46-1.13-.72-2.49-3.36-.56-2.49l4.08 4.08 3.03 2.1c1.1.77 3.23.62 4.67.38l6.21-.97-.03.03Z" class="cls-263"/><path d="M31.95 75.52c-.31 1-.41 2.03-.08 3-1.21.87-.33 2.59-.67 3.46.1 1.72.28 3.59 1.77 4.67v.46c.46.38.62.77.46 1.1-.31.46-.79.64-1.49.56-1 .95-2.08-.05-1.05-1.03l-1.03-1.13c-.9.69-1.56.05-1.05-.92-.97.95-1.26-1.67-1.03-2.62.26-.28.44-.77.54-1.46 1.21-.64 1.72-2.03 1.54-4.21-.46-1 .95-3 2.03-1.9" style="fill:#666868"/><path d="M57.08 88.72c1.36.05 2.97-.38 4.08.51 0 .56-1.13.36-1.54 0-1.33.9-4.21 1.23-5.62.41-.21.82-.64.82-1.03.08h-1.62c1.72-1.03 3.77-1.1 5.74-1.03l-.03.03Z" class="cls-189"/><path d="M32.41 84.13c-.69.05-.51.64-.28 1.03l.87 1.49c-2.03-.74-2.46-2.9-1.77-4.67 0 1.03.59 1.56 1.21 2.18z" class="cls-111"/><path d="M75.13 48.34c.1-.03.26-.1.36-.1.44.74 1.36.77 2 1.08 2.03.97 3.46 2.38 4.92 3.92 1.36 1.74.15 2.38-1.72 1.44-.1.46-.23.44-.41 0l-.41.49c-1.33-.56-1.9-.46-1.69.31l2.18 1.26c.13 1.15-.59 1.49-1.62 1.15.87.69.87 1 0 .92-.21.49-.38.49-.59 0l-1.05-.59c-.56-.44-.95-1.08-1.1-1.92-1.85-.28-2.9-2.03-.85-2.41.05-.36.21-.36.41-.05-.46-1.05.56-1.33 1.1-.41.41-.49.49-1 .49-1.59-.62.23-1.67.05-2-.56-.46-.05-.46-.21-.05-.46l-.54-.59c-.1 1.59-.74 1.21-1.51.03-.08.44-.26.46-.54.1l-2.33-1.03c-1 .79-1.92.77-2.74-.08-.54-.33-.46-.74.28-1.28.1-.41.69-.64 1.77-.72.56-.54 1.59-.64 3.05-.33.56.62 1.46 1.08 2.69 1.46h-.1v-.03Z" class="cls-108"/><path d="M82.39 53.23c5.23 5.54 5.23 14.64 0 20.23-1.67-.33 3.56-3.54 2.46-8.23 0-.59-.26-.62-.79-.1-.15.82-.54 1.77-1.33 2.03-1.31.33-1.79-.97-.59-1.56-.79-.08-.77-.87.05-1v-.51c.95-2.9.74-5.49-.59-7.8-1.64 1.31-1.41-.15-.9-1.67 0-.49.1-1.1.77-1.18-.03 1.13 1.31.97.95-.23h-.03v.03Z" class="cls-59"/><path d="M67.31 69.75h-1.05v-.54c.41-.03.85.13 1.03.54" class="cls-41"/><path d="M21.1 29.23c1.54.36 1.74.72 1.1 2.15l-1.18 2.44c-1.67 1.87-2.08 4.64-1.9 7.13.13.79-.03.97-.54.54-.15.46-.31.44-.51 0-.26.26-.41.08-.46-.54-.74-1.21-.72-4.38.13-6-.95-.56-.36-1.49.38-2.13-1.54-.67-.15-2.46 1.18-1.95-.36-.31-.21-.49.49-.54-.62-.85-.03-1.77.82-2.15.15-.26.31-.26.51 0 .41.31.31.69-.05 1.05z" style="fill:#585753"/><path d="M38.61 18.1c1.51-.69 2.54-.72 3.13-.08.56 1-4.26 2.85-4.9 2.92-1.79-.59-3.26-.36-4.44.72.67 1.62-1.64 3.54-3.13 3.92.31.69-.36 1.21-.9.54-.49.38-1.18.87-1.67.46 1.38-3.15 4.13-5.97 7.15-7.67l1.67-.95.97.05c1.05-.51 1.74-.49 2.1.05v.03Z" style="fill:#433d3b"/><path d="M24.36 27.21c-.74.77-1.15.74-1.21 0-2.31-.18-2.8-.72-1.46-1.64.67-.31 1.51-.26 2.03-.95h2.15c-.21 1.28-1.05 1.77-1.51 2.59" class="cls-253"/><path d="M28.38 26.16q.69.225 0 .54l-2.05 3.54c.44.21.41.38-.05.54l-.51-.51v-1.03c.33-.23.44-.64.51-1.03l.41-1.62c.49-.36 1.1-.85 1.67-.46h.03v.03Z" style="fill:#504b47"/><path d="M24.36 27.21c-.38.67-1.36 1.64-1.38 2.49 0 1.08-.44 1.05-.77 1.72.08-.26 0-.92-.23-.95l-.9-.08c-.56-.05-.08-.87 0-1.13.1-.38.31-.56.56-.54.56-.41.9-.79.97-1.1-.77-.79-.41-1.08.51-.41.33.1.82 0 1.21 0z" style="fill:#4c443e"/><path d="m41.1 64.08-.08 2.59c-.33-.28-.54-.59-1.26-.87 0 .97.41 2 .08 3.03-1.54-1.95-2.67-4.36-4.9-4.49l-1.13-.08c-.15 0-.21.1-.1.33l.23.51c-.72-.15-1.38-.54-2.1 0-.54-1.26-.77-2.26.9-2.03.26-2.05 4.51-1.33 6.08-.51.77.69 1.54 1.18 2.31 1.51" class="cls-115"/><path d="M28.84 54.87c.46.13.46.31 0 .51l-.49.51c.44.15.44.31 0 .51l.49 1.56c.41-.21.59.15.54 1.05.31-.28.77-.05 1.41.69.9-.62.95-.15.56.87.31.67-.62.79-.77.64-.56-.62 1.82.13 1.28 1.31l.62.54c0-.41.13-.41.26-.03l-.9 2.03c-.1-.03-.26-.05-.38-.03-.56-.08-.69-.31-.21-.69-1.36-.28-3.62-1.69-3.38-3.28h-1.13l-.46-.49c-1-.46-.85-1.05.41-1.77l.1-.82v-.51l1.05-2.59v-.49c.77-1.13 1.1-.97 1 .49v-.03Z" style="fill:#35302e"/><path d="m31.26 64.36.21.69c-.44.08-.95 0-1.15-.41l.95-.28Z" class="cls-123"/><path d="M71.39 24.9c1.46.64 2.41 2.03 2.87 4.13.79 4.26 1.38 8.49 1.77 12.74-.08.69.56 1.82-.77 2.62-.44-1.44-.23-2.49-.31-3.8-.54.18-.97.28-1.21.18-.44-.18-.31-.95-.36-1.26-.15-1.92-.33-3.87-.51-5.8l-.59-.46c.67-1.64-1.13-8.46-3.49-6.08-.03 1.46-1.41 1.85-2.15.31-.64-1.33-.62-2.97-.51-4.44-1.87 1.64-6.21-2.44-6-4.54-1.26-1.74 3.67-.08 4.59.31 2.95 1.23 3.9 2.21 5.41 5.05l1.26 1.03Z" style="fill:#33302f"/><path d="M73.41 39.54c-1.31-1.56.31-4.05-1-5.15 0-.13-.05-.44 0-.54-.33.13-.69.13-1.05 0-.9.36-.97 0-.15-.56 1.15-2.21.41-2.74-1.56-1l-.62-.28c-.31-1.46-.23-2.9.23-4.33-.72.67-.97.38-.49-.49l-.36-1.97c.82.23 2.72.31 3.13 1.21 1.97 4.21 1.92 8.69 1.82 13.1h.05v.03Z" style="fill:#2a2825"/><path d="m70.49 22.15 2.82 3.46c1.56 1.92 1.74 4.72 2.13 7.21l.49 2.13c-.05.23 0 .72.03.92.49 1.97.31 3.87.1 5.92-.59-.33-.67-.9-.74-1.72l-.85-7.67c-.33-2.97-1.28-5.36-3.05-7.51-1.05-.69-2.92-2.38-2.08-3.44.23 0 .41 0 .51.08l.67.62z" style="fill:#4a4543"/><path d="M67.28 92.31c.15.1.44.33.51.51.23.59.51 1.15 1.05 1.54v.51c.08.54.13 1.13-.28 1.56-.28-.69-.49-.9-.79-1.03-.69-1.62-2.36-2.51-3.59-3.59-.05-.67.49-.82 1.67-.51l1.46 1.03-.03-.03Z" style="fill:#6b5a54"/><path d="m64.23 90.26.51.49c.41.13.74.31 1.1.54-.36.44-1.1.41-1.67.51-.23-.21-.72-.31-1-.44-1.1-.56-1.21-.77 0-1.13.15-.38.31-.38.51 0h.54v.03Z" style="fill:#766861"/><path d="M63.21 90.26v1.13c-.82-.36-1.69-.64-2.56-.62-.28-.28-.62-.54-1.03-.54-.44-.15-.44-.36 0-.56 1-.33 2.8-.18 3.59.56" style="fill:#9a867c"/><path d="M50.9 93.34c.1-.21.31-.38.54-.49-.08.21-.28.46-.54.49" class="cls-68"/><path d="M60.15 6.54c.87.28.85.49-.05.64.36.31.67.21 1.05.03 1.33-.31 3.23-.44 4.59-.03.44.15.44.31 0 .51-.49.23-1.18.38-2.03.49l-1 .05-.56.49h-1.03c-1.28-1.21-3.85.15-5.21-1.05-.26-.15-.23-.31.05-.46l1.08-.51c-.08-.46.08-.44.36-.05.72-1.36 4.08-2.26 2.74-.08v-.03Z" style="fill:#615d57"/><path d="M71.39 3.62c.36-1.05 1.9 0 1.62.97-.31.59-.69 1.28-1.13 2.05l-.49 1.56-.46.56c-.13.08-.31.1-.46.1-.1-.56-.15-1.44-.64-1.69.46-.87.33-1.9-.44-3.08-.36.77-1 .92-1.05-.05l-1.03.56c-.15.46-.31.44-.51 0-.49-.38-.1-.95.51-1.03-.28-.23-.1-.41.51-.51.15-.44.33-.44.51 0 .9.31 2.05.64 2.31-.46l.74 1Z" style="fill:#66615c"/><path d="M61.41 16.26c-.15.49-.74.64-1.85.41 2.1.38 3.85.79 5.23 1.23 1.54.82 4 1.77 4.54 3.56.41 1.36 1.18 2.33 2.08 3.44-2-.36-2.8-2.72-3.77-3.85l-6.26-2.82c-.59-.26-.97.05-1.21.26 0 .87-2.62-.28-3.49-.67-.41-.21-.87-.56-1.03-.97-1.95.92-4.21-.13-2.77-2.72 2.87-.05 5.8 1.05 8.54 2.13h-.03Z" class="cls-209"/><path d="M61.41 16.26c.95.36 1.74 1.15 2.82 1.18.15.18.31.36.54.46.08.28-.15.56-.33.56-.28 0-.59-.21-.9-.33l-4-1.46c.77-.44 1.33-.33 1.85-.41" style="fill:#494442"/><path d="m71.23 33.28.15.56c-.13.59-.31 1.08-.54 1.51.1 1.21-.08 2.41-.54 3.62v2.54l2.03 4.72c-.28 1.13-2.26.85-2.54-.21-.72-.13-1-.36-.38-.82-.79-.74-.97-1.44-.49-2.03-.79-.72-1.18-1.13-.15-1.56-.21-1.31-.21-2.54.03-3.64-.44-.15-.38-.82 0-1.05.23-2.54 1.05-4.05 2.54-4.54.51.08.26.59-.13.9h.03Z" style="fill:#5d5855"/><path d="m75.13 48.34-5.74-1.13c-.46-.13-.46-.31-.03-.54-.46 0-.49-.18-.08-.46q0-.81.54-.15c.62.05 1.23.31 2.28.05-.9-1.67-1.74-2.97-1.74-4.59l2.26 4.44v1.03c-.03.49 1.92.13 2.51 1.33v.03ZM70.33 39c0-1.26.26-2.38.54-3.62.18-.44.33-.41.51.03-.36 1.18-.21 2.54-1.05 3.62z" class="cls-296"/><path d="M71.41 34.87c0 .15 0 .36-.03.51h-.51c.1-.46-.13-1.28.54-1.54.56-.1.56.23 0 1.03" class="cls-88"/><path d="m72.46 33.82-1.05 1.03v-1.03c.18-.08.62-.33.77-.49.1-.08.33.33.28.46z" class="cls-296"/><path d="M73.41 7.72c-.13 3.05 3.49.87 3.59 3.49l-1.26-.44c-.03.13-.15.23-.26.26l-1.05.18-.67.08-.97-.44c-.97-.05-2.59.26-3.77.64-3.05.97-6.03 0-8.87-.26-.05-.15.13-.41.49-.41l7.56-.13c2.15 0 3.74-1.28 4.33-3.51.28.15.74.38.85.54z" class="cls-90"/><path d="M73.8 11.28c-.36.05-.72-.13-.97-.44h.74c.15.05.31.21.23.44m-.08-1.66.26.38-.26.26-.26-.26z" class="cls-294"/><path d="M40.1 74.88c.41-.54 1.18-.23.82.54.08.1.79.56.67.77s-.95.31-1.28.62c-.67-.28-.95-1.28-2.21-1.41-.08 1.38-.74 2.31-1.49 3.1-.69.33-1.15.97-1.54 1.62l-.28.51c-.87-1.69.36-4.23 2.15-5.21l.05-4.67c0-1.13-.85-1.59-1.56-2.03l-.95-.67c.41-.03.85-.69 1.64-.03 1.74 1.44 2.33 3.51 1.77 5.87.69.64 1.62.69 2.15.97h.05Z" style="fill:#131210"/><path d="M35.1 80.11c.13-.62.85-1.69 1.54-1.62zm.92-2.41.26-.26.26.26-.26.26z" class="cls-82"/><path d="M23.13 27.21c-.33-.1-.54.05-.51.41-.15.74-.69.69-1 0-.21.36-.72.56-1.59.54.18 1.08-1 2-2.1 1.95 0 1.41-.72 2.67-2.13 3.77.62.1.79.79.1 1 .33.67.1 1.13-.69 1.33.56.95.62 1.51.18 1.72-.08.54-.03 1.13.13 1.72.92.21 1.13.69.41 1.31 1.26.62.85 1.26-.51.95-.33.74-.74.51-1.18-.64.59 1.79 1.28 4.13-1.23 2.26-.1-.26 0-.72 0-.97-1.08-3.23.05-8.92 2.46-11.31.92-1.9 2.87-3.56 4.67-4.59l.44-.54c.36 0 .46-.1.56-.49l.56-.05c-.08.13 0 .85.23.92s.74-.51.97-.82c.59.21.51 1.1.26 1.51l-.03.03Z" class="cls-14"/><path d="m20.1 26.64-4.67 4.59c0-.9.41-1.74 1.21-2.41l2.74-2.26.69.08z" class="cls-253"/><path d="m26.28 60.57-1.54-.51c.41.87.46 1.54.41 2.26-.92-.87-1.23-2.13-.97-3.36.95-.18 1.97-.13 2.62-.95.46.18.79.72.51 1.1l-1.03 1.49z" class="cls-206"/><path d="M26.28 60.57c.72-.72 1-.41.46.49.59-.33.79-.05.51.59.97.51 2.36 1.74 2.56 2.9-.21.46-.69 1.08-.69 1.44 2 1.21 3.85.44 5.92.82-1.82.92-4.54-.31-6.23.82-1.69-.49-3.08-1.79-3.49-3.46q-.075-1.08-.15-1.92c-1.56-2.44.44-4.38 1.13-1.72v.05h-.03Z" class="cls-123"/><path d="M25.2 63.7c-.15-.21-.33-.46-.54-.59.31.08.51.31.54.59" class="cls-123"/><path d="M31.26 64.36c.21.54-.44.51-.95.28-.15.05-.36-.05-.49-.1-1.44-.31-2.82-1.31-2.56-2.9-.33-.64 0-.95.62-.59 1.13.82 2.95 1.9 3.38 3.28" style="fill:#4a4341"/><path d="M28.38 65.88c-.64.64-1 .13-1.36-.21-.62-.56-1.13-1.05-.49-2.13.33.82.56 1.36 1.87 2.33" style="fill:#3c3533"/><path d="m27.87 61.08-.62.59-.51-.59c-.08-.41.36-.69.72-.54.15.08.28.38.38.54" class="cls-206"/><path d="M77.46 34.03c-.67-.59-.49-1.62.05-2.26.31.1.59.23 1.08.74l-1.13 1.51Z" class="cls-168"/><path d="M75.92 34.95c-.54-.59-.36-1.41-.49-2.13.79.41.64 1.41.49 2.13" class="cls-296"/><path d="m38.74 93.31-.74.08-.41-.92c-.54-.38-.64-1-.67-1.64-.97.36-1.21-.33-.49-1.03.74-.72 1.15.41 1.82.77l3.54 1.9c-1.08.82-2.08.79-3.08.87z" style="fill:#5d524d"/><path d="M38 93.39c0-1 .44-1.03.74-.08 3.44-.72 5.1-.18 5.03 1.62.26.79-1.21 1.03-1.59.38l-1.03.05c-.18.38-.36.36-.49-.05-.1-.46-.28-.44-.56.03-.72.44-1.62.28-2.03-.49l-1.54.56h-.51l-.67-.46c-1.46-.26-2.9-1.03-3.9-2.15-1.95-1.05-2.51-3.8-.05-2 1.9 1.38 4.23 2.33 6.59 2.59Z" class="cls-149"/><path d="M38.08 94.88v.51c-.1.44-.64.26-1.03 0h-.51c.13-.67.92-.72 1.54-.51" style="fill:#201b19"/><path d="M37 92.47c.21-.41.41-.41.59 0 1.31-.38 1.44.05.41.92-2.54 2.41-2.54-1.36-6.21-1.38-.23-1.1-.87-1.62-1.97-1.08l1.64 1.87c-1.15-.56-1.9-1.56-2.64-2.56.33.18.67.74 1.31.1-.85-.85-1.1-1.46-1.36-2.13l.62-.38c1.72 1.59 3.67 2.9 5.8 3.87.1-.72.72-.46 1.85.74l-.03.03Zm-.98 2.95-.67-.46c.28.05.51.21.67.46" class="cls-263"/><path d="m42.18 95.31-1.03.05.08-.74c0-.31.31-.51.67-.28.33.21.18.77.28.97m-1.51 0h-.56c-.1-1 .64-1.05.56 0" class="cls-130"/><path d="m33.72 92.62.26.46-.26.26-.26-.26z" class="cls-263"/><path d="M29.92 86.62c.74.23 1.1.59 1.03 1.13 0 .46.64.87 1.05 1.03.74-.72 1.03-.38.41.49.9.41 1.21.41.92 0-.92-.26-.79-1 .15-1.05l-.46-1.1 3.44 2.69c.15.31.28.77.49 1.03.36.64.38 1.18.05 1.64-1.62-.46-3.74-.33-5.15-1.59l-3.08-2.64-.56-1.38c-.18-1.1.05-1.49.69-1.15.28.23.69.77 1.05.92h-.03Z" class="cls-111"/><path d="m27.84 83.08.67 1.33c-.41.21-.49.56-.33.67l.72.59-.69 1.15c-1.38-3.36-1.33-8.44.15-9.39.31.13.56.28.56.46 0 .28-.51 4.13-.64 4.77 0 .15-.21.28-.44.41Z" class="cls-33"/><path d="M70.49 22.15c-.28-.13-.51-.36-.67-.62.26.15.49.38.67.62" class="cls-209"/><path d="M15.43 41.9c1-.08 1.05.31.15.77.67.56.67.87 0 .92-1.77 1.69.64 4.28 2.97 6.95-.18.21-.33.23-.44.23-2.18-1.46-3.92-3.64-4.72-6.13l.08-.56c-.18-.15-.38-.36-.46-.56.59.1 1.77-.51 1.26-1.15l-.85-1.08c-.33-.41.41-1.21 1.15-.67.33.26.36 1.18.85 1.26v.03Z" class="cls-60"/><path d="m13.38 44.64.08-.56c.33.13.31.46-.08.56" class="cls-14"/><path d="m69.33.56 2.59 1.03-.28.95c.36.51.46.82-.26 1.08-1.03.03-2.26.26-3.08-.54.67-.51.36-.69-.97-.54l-1.05-.49c-.92.44-2.08.72-3.44.87.69.13.92.23.33.69-.15.44-.31.44-.51 0-.67-.03-1.18.15-1.56.54.21.36.33.77.1 1.08-.38.46-3 .41-3.64.36-.15.49-.33.49-.54.05-.38-.44-.92-.46-1.62-.05-.54 1.28-.95 1.1-1-.26.69-1.15 2.23-1.18 3.46-1.92l3.72-2.31c2-.28 4.36.46 6.18-.46.36-.18 1.21-.18 1.56-.05V.56Z" class="cls-150"/><path d="M55.44 5.59c.54-.44.95-.74 1.1.05.77 0 .69.77 0 1.03.36.54.05.74-.56.51-.05.13-.03.31-.05.46-.46-.41-1.18-.44-1.85.03V5.23l.36.08c.33.05.67.26 1 .26v.03Z" style="fill:#605752"/><path d="M45.26 14.87c.18 0 .49-.05.74 0s.33.38.08.54l-.87.44c-.38.97-1 1.49-1.87 1.49-1.44-.1-3 .15-4.72.74-.97.05-2.36 1-3.08-.1l2.54-1.1c2.31-1 4.62-2.13 7.18-2" class="cls-179"/><path d="M61.15 89.24h.51l2.05.51v.51h-.51l-3.59-.56v-.46z" class="cls-187"/><path d="M20.56 26.1c.18-.21.36-.38.56-.49.21.46-.18.95-.56.49" class="cls-253"/><path d="M82.21 7.15c.56.46 1.1.95 1.49 1.59l.51.87.64 3.08-.51-.08-1.13.72c-.51-.33-.95-.87-1.08-1.49l.49-1.13c-.51-.38-1-.9-1.41-1.49-1-.33-1-.82 0-1.46-.21.28-.46.23-.64-.08-.1.46-.26.44-.44 0-.46-.13-.44-.31 0-.51-.23-.13-.21-.28 0-.51z" style="fill:#897d75"/><path d="M19.02 42.59c-.18-.95.18-.9.62-.03l.05.59c.79 1.77 1.51 3.54 2.08 5.28l-.62.15c-1.26.79-2.13.69-2.62-.31.08-.38.26-1.36-.13-1.9-.23-.31-.79-.08-1.33-.15l-1-1.21c.03-.08.03-.18 0-.26l-.72-.64c.08-.15.21-.36.21-.51v-.92c.67-.64 1.54-.41 2.59.69l.85-.77h.03v-.03Z" style="fill:#53514e"/><path d="M22.2 49.21c-.41 1.44-.95 1.64-1.59.54v-.51c-.51-.64-.21-.69.59-.64.26-.38.33-.74.18-1-.23-.44-.92-.77-1.23-1.03-.67-1.1-.31-2.38-.41-3.44 1.51 1.49 2.82 3.9 2.49 6.05" class="cls-5"/><path d="M21.18 48.59c-.15.23-.21.54-.56.64 0-.23-.31-.31-.36-.23-.1.18-.28.72-.31 1.23-.92-.36-1.54-1.13-1.41-1.95.9-.15 1.79-.05 2.62.31" class="cls-34"/><path d="M19.64 42.54h-.62c-1.33.51-1.49.15-.44-1.03l.54-.54.54 1.56h-.03Z" class="cls-5"/><path d="m17.1 46.21-.77-.13c-.31-.05-.33-.74-.23-1.08.64 0 1.08.54 1 1.21" class="cls-60"/><path d="M20.59 49.75c.1.1.62.46.79.36.28-.13.59-.64.79-.92-.13.74-.46 1.44-.82 2.13-.31-.79-.46-1.18-.79-1.56" class="cls-34"/><path d="M16.1 44.75c-.49.18-.77-.23-.72-.64.33.05.62.31.72.64" class="cls-60"/><path d="M32.15 31.8c1.13.59 1.38 1.9.31 2.67-.05 1.51-.38 2.69-1.05 3.49-.13.46-.31.44-.49 0-.18-2.08-.82-4.03-1.77-5.87-.62.85-.08 1.41-.13 1.74l-1.85-1.85c-.49-.51-1.28.54-1.33.97l.46-2.18.05-.54 2.05-3.54c.05-.13 0-.38 0-.54l.9-.54c1.41-2.05 2.69.41.87 1.85l.59 2.08c-.41 1.79.05 2.56 1.41 2.26h-.03Z" style="fill:#33302d"/><path d="m41.15 33.31.54.51c-.08-1.15 1.28-.97 1.46 0l2.26 1.54c.18-.46 1.31-.36 1.85-.18 2.21.64 6.38 3.28 2.36 4.1-.23.97-1.03 1.03-2.41.15-.67.72-1.64-.08-1.95-.9-1.69-.82-3.44-1.23-5.31-1.18-2.1.18-2.69 1.46-.92 2.77.62-1.13 1.31-1.38 2-.13.87-.05 1.82.18 2.67.51 1.36.21 1.28.67 0 1.05-.28 1.13-1.59 1.13-1.9.08-1.05-.49-2.1 0-3.15 1.46l-.54-.51-3.92.49-.21-.62c-1.1-.44-2.21.1-3.62.62l.62-4.13-.1-1.03h.49c1.51-.23 1.77 2 .41 2.51.79.95 2.69 0 3.38-1.9-.87-2.36.44-3.69 2.41-4.62.08-.67 1.74-.77 2.64-.79.15 0 .28.08.44.18.13-.49.28-.49.46 0h.05Z" style="fill:#4c4743"/><path d="M35.46 44.69c-.41 1.33-3.21 2.9-4.59 2.85l-.49.67c0 .51-.18.74-.49.69 1.03.15.97.56-.05.79-.08.95.26 1.46 1.03 1.49.33 1.67 0 2.72-1 3.15-.79.74-.87-.15-.49-1.03-.46-.08-.46-.26 0-.49.44-1.9-2.69-2.49 0-6.26.72-.56 1.49-1.1 2.05-1.87.41-.08.77-.26 1.08-.51.54-.56.87-.59 1-.1l1.05-.49c.38-.74 2-1.1 2.62-.51.54.67 0 1.21-1.67 1.59z" class="cls-62"/><path d="M38.1 42.62c.31.87-.31 1.1-.97.49-.85.31-1.72.51-2.62.51l-1.05.49-1 .1c.36-.67.95-1.1 1.51-1.72 1.33.51 3.54-1.21 4.13.13" style="fill:#918785"/><path d="M26.82 57.46c0-.95.31-1.95 1.03-2.59 0 .97-.21 2-1.03 2.59m2.51-4.64v.49c.13.9-.05 1.41-.51 1.54l-1.03-.49v-.54c.26-.33.44-.67.56-1.21.1-.41.69-.15.95.18h.03z" class="cls-206"/><path d="M45.2 47.05c.21-1 .62-.87.64.15 1.51.1 1.36 1.05 0 1.41 1.33.28 1.31.62 0 1.05l-.56 2.23c-1.38 1.51-3.51 3.23-5.72 3.62-2.23.38-3.59.41-3.67-2.28-1.44-.15-2.85-.31-3.92-1.41-1.44.87-2.15.15-2.15-2.13s.15-.51.05-.79c.31-.46.49-.41.54.13.82-1.72 2.82-2.41 4.67-2.59.95-3.15 6.74-.15 8.97 1.03.46.23.82.08 1.15-.41Z" class="cls-71"/><path d="M43.1 58.31c-.21 1.79-.54 3.59-1.31 5.23l-.69-.08h-1.13c-1.82-1.69-4.31-2.21-7.51-1.46-.95-.26-1.31-.74-1.1-1.41.13-.44.31-.46.56-.1.33-.23.67-.23 1.03 0-.18-1 1.62-.69 2.05.03-.15-1.21 2.72-1.77 3.15-.56 1.69-1.82 3.05-2.33 4.13-1.56.56-.95.85-.97.82-.05v-.03Z" class="cls-172"/><path d="M54.51 66.64c.44.18.41.36-.03.54 0 .72-.97 1.28-1.59.95-.1.38-.26.38-.46 0l-1.51-1.51c-.33-.31-.26-.44.23-.36-.79-3.87.08-12.62 3.03-4.64 0 1.69.1 3.36.36 5.03h-.03Z" style="fill:#191817"/><path d="M51.9 51.36c.62 1.41 1.56 3.92-.49 2.46-.9.56-2.05 1.13-3.03.51-.26.77-.46.77-.62-.05.62-.79.49-2.08.69-2.97-.46-.85-.87-2.74.44-2.67.54-2.41 2.21-.67 2.23 1.28l.72 1.44h.05Z" style="fill:#a9a09d"/><path d="M43.1 69.31c.44 0 .44.13 0 .36 0 .54-.15.9-.49 1.05-1.41.41-1.28 2.13-1.67 3.72l-.59-2.82c-.08 1.21-.92 1.38-1 .03 1.18-.74 1.79-1.56.97-3.21 1.74-.62 1.51-2 1.28-3.28 1.31.82.38 2.82 1.46 4.15" class="cls-120"/><path d="m46.85 58.49.64.28c-.15 1.54-.62 3.15-1.33 4.87.1 1.23.13 2.44.08 3.59 1.31-.49 2-.18 2.13.95.74-.64 1-.33.46.51-1.77 1.08-4.51-1.21-4.56-3.56 0-2.62 1.15-4.97 1.92-7.15.62-.9.77-.46.64.56v-.05h.03Z" style="fill:#726967"/><path d="M44.31 71.44c-.51.92-.49 2.26-.67 3.31l-.95.13c-.31.03-.51-.21-.51-.51v-1.03l.51-1.54c.1-.59.28-1.05.56-1.41.44-2.64 1.62-.9 1.05 1.08v-.03Z" style="fill:#736967"/><path d="M44.23 56.82 43.74 58c-.21.15-.38.28-.64.31l-.82.05c-.36-.59-.56-1.08-.67-1.51l1.54-1c.69-.44 1.38-.82 2.03-1.62.23 1.26-.69 1.77-.92 2.54" style="fill:#605957"/><path d="M55.56 67.7H55c-.87.74-1.15.46-.51-.49v-.54l-.23-4.28.67-.77c-.18-.95.21-.95.64-.05.28.85 1.21 1.9.87 3.03l-.85 3.1z" style="fill:#7b7370"/><path d="M49.23 71.77v1.21c-.28-.41-.31-.92-1.03-1.49l-.87 1.9c0-.82-.08-1.9.33-2.8.26-.56 1.21-.41 1.41.18.1.28.15.59.15 1Z" class="cls-38"/><path d="M48.92 48.64c.03.97-.23 1.77-.44 2.67-.33-.05-.77-.21-.87-.51-.08-.23-.05-.69.21-1.36-.62-.08-1.33 0-1.95.23v-1.05c.23-.85 2.1-1.46 3-1.56 1.54.1 1.38.9.08 1.59h-.03Z" class="cls-231"/><path d="m51.13 66.26-.23.36c-.03.97-1.18 1.49-2.08 2.03l-.46-.51c-.82-.79-.05-1.97 1.05-1.97.38-1.97.85-1.38 1.72.1Z" class="cls-237"/><path d="m44.31 71.44-.18-1.67-.9.59c-.36.05-.41-.18-.13-.72v-.36l.33-2.15c1.31 1.18 1.67 2.87.87 4.31Z" style="fill:#59514e"/><path d="M48.38 54.34c1.49.79.56 2.62-1.05 2.62-.59.67-.79.49-.62-.54.31-.85.51-1.46 1.05-2.1l.62.05z" style="fill:#655e5b"/><path d="M44.56 74.95c.41-.85.64-1.72.67-2.67.79.18.74.9.9 1.51.26 1.15-.56 1.46-1.56 1.15" style="fill:#89807d"/><path d="M55 67.7c-.33.44-1.03 1-1.51 1-.49-.05-.67-.26-.59-.56.46-.44 1-.74 1.59-.95 0 .33.18.56.51.51" class="cls-288"/><path d="M47.36 56.95c1.38.51.92 1.62-.51 1.51l-.64-.56.54-1.51.62.54v.03Z" style="fill:#8b827d"/><path d="M52.87 68.13c.23.15.44.36.59.56h-1.18c-.23.03-.28-.41.15-.56h.46-.03Z" style="fill:#6c6664"/><path d="M43.77 58.03c-.1-.46 0-.97.49-1.18-.13.44-.08.87-.49 1.18" class="cls-172"/><path d="M58.46 44.64c3.54-1.21 7.64 1.95 2.03 2.51.69 1.13-1.64 2.54-2.54 1.51-2.23 1.33-1.38 2.21-2.41 3.64-.21-.18-.38-.54-.51-1.05v-.95c-1.05-.03-.85-.64.05-1.05-1.49 0-1.41-1.18-.05-1.56-1.1-1.54 1.97-4.62 3.44-3.03v-.03Z" style="fill:#090909"/><path d="M51.92 45.64c.72-.69 1-.41.49.46l.56.56c1.05-.33 1.69-.05 2.05 1l.05 1.56c-.64.49-1.05 1.03-1.21 1.62-.77-.08-1.23-.77-1.41-2.1 0-.51-.26-.74-.46-1.13-1 .31-2.03.13-3.1-.54l-1.64 1.97-.74-.56c-.15-.13-.46-.03-.62.18v-1.41c1.13-1.97 5.28-5.18 6.05-1.56v-.05h-.03Z" class="cls-148"/><path d="m57.15 55.39.92 1.05 4.21 1.87-.26.31c1.51.21 2.08.67 1.69 1.36-3.15 1.92-8.05-2.49-7.33-4.54z" style="fill:#5d5754"/><path d="m51.95 47.59-.05 3.18c.26.21.26.38 0 .59-2.62-.28-1.23-4.18-2.97-2.72l-.08-1.59c.79-.97 2.51-.56 3.1.54" style="fill:#655e5c"/><path d="M62.31 58.31c1.44.64 3.41 1.05 4.9.56.31.05.97 0 1.36.08.28.08.41.64.31 1.03-.41.26-.54.46-.33.64-.15.15-.31.41-.56.44-.77.1-1.64 0-2.21-.54-.18-.64-.95-1.03-1.54-.51h-.51c-.38-.87-1.38-1.15-2.59-1.03.1-1 .82-.64 1.18-.67Z" class="cls-145"/><path d="m55.54 61.54-.64.05c-.36.1-.64.15-.69.08-.69-1.13-2.62-5-1.31-5.74-.26-.87-.23-1.05.56-.54z" style="fill:#6e6664"/><path d="m58.03 71.95.51 1.72v.9c0 .23-.72.51-.9.15-.46-.92-.44-2.05-.59-2.92l-.51-.59v-.44c.15-.97.49-1.31 1-1.08-.08.85.26 1.44.49 2.23z" style="fill:#6f6664"/><path d="m55.08 49.23-.05 1.05c-.21-.1-.92.1-.92.36.03.38.64 1.05.13 1.85-1.26-.69-1.77-2.44-1.82-3.74.33.36.46.74.67 1.59.56-.69 1.21-1.03 1.95-1.08h.05v-.03Z" class="cls-236"/><path d="m57.54 69.75-1 1.08c-.03-1.1.18-2.15.82-3.18.33.92.23 1.51.18 2.1" class="cls-193"/><path d="m53.46 55.39-.56.54c-1.44.1-2.1-.77-1.49-2.08.23 0 .51.15 1.08-.13-.56-.74-.67-1.56-.56-2.33v-.59c.64.31.87.92.77 1.74-.13 1.13.49 2 .79 2.87h-.03v-.03Z" style="fill:#544d4b"/><path d="M65.77 60.52h-.51l-.51-.51c-.15-.03-.36 0-.51 0 0-.49.51-.67.77-.56l1.36.54c.49.18.41.49.18.56-.26.08-.54 0-.77 0v-.03Z" style="fill:#887f7b"/><path d="M55.51 52.31v1.05c-.59-.59-.49-1.31-.51-2.1.46.18.49.62.51 1.05" class="cls-236"/><path d="M57.05 71.82c-.23-.1-.51-.33-.51-.59.18.1.46.36.51.59" class="cls-193"/><path d="M60.87 73.85 59.95 75c-.69-2-1.59-4.15-.05-6.31.62 2.28-.41 4.82.97 5.15" style="fill:#3d3936"/><path d="M31.33 60.62c2.21 1.59 7.46-1.79 9.77 2.87.08.15 0 .44 0 .59-.41.44-.49.9-.69 1.51-1.59-2.87-4.97-3.33-7.67-2.51-.08.03-.21.08-.26.03l-.62-.54c-.69-.28-1.38-.82-1.9-1.87.41-.23.92-.1 1.38-.1l-.03.03Z" style="fill:#252221"/><path d="M43.23 70.39c.1.54-.1 1.1-.56 1.41l-.05-1.08c0-.38.18-.79.49-1.05l.13.72Z" class="cls-76"/><path d="M42.18 73.34c0-.59 0-1.18.51-1.54 0 .56.05 1.26-.51 1.54" class="cls-120"/><path d="M48.77 76.85c0 .97.26 1.9-.03 3.31-.95-.74-1.1-1.77-1.49-2.69.31-.33.56-.62.59-1.08l.92.44v.03Z" style="fill:#827772"/><path d="M52.92 76.82c.08 1.15.62 2.8-1.13 3.51-.56-1.1-.15-2.08-.31-2.92l-.08-.38.51-.56.64.05c.15 0 .26.23.33.33" style="fill:#847976"/><path d="M55.92 73.47c-.77-.03-1 .56-.69 1.79l-.74.62c0 .18-.13.44-.18.59-.62.05-1.44-.15-2.44-.69-.87 2.49-3.33 1.41-3.05-.31-.72-.82-.85-2.1.38-2.49-.26-.56-.23-.97.03-1.21 1.1.67.59 2.18.74 3.67.92-1.72.87-3.56 1-5.49.62.23 1.1.15 1.64-.08.26 1.33.13 2.44.59 3.56.69-1.85.74-3.59 2.28-4.18l.41 4.21h.03Z" class="cls-288"/><path d="m55.92 73.47.13 1.92c-.51-.08-1.15.21-1.56.51-.13-1.38-.26-2.82.33-4.38.92.77.74 1.49 1.1 1.95" style="fill:#867d79"/><path d="M54.31 76.49c-.18.49-.26 1.03-.31 1.59-.21-.49-.72-.87-1.08-1.23-.36.21-.49.08-.33-.33-.18-.28-.44-.51-.74-.72.85-.56 1.82-.05 2.44.69" class="cls-18"/><path d="M49.2 72.98c0 .64.44 2.18-.38 2.49-.33-.46-1-.69-1.49-.97v-1.1c.31-2.64 1.33-3.62 1.87-.41Z" style="fill:#918782"/><path d="M52.72 74.62c.03.31-.95.67-1.36.72-.08-1.33-.08-2.64.21-4.18.56.72 1.05 2.31 1.15 3.46" style="fill:#9a908c"/><path d="M51.44 77.03c-.05-.21 0-.74.51-.56-.1.26-.28.46-.51.56" class="cls-18"/><path d="m87.82 15.39.51 1.03v.51c-.08 2.62-.46 5.18-1.23 7.67l.23 1.05c.15.23-.31 1.08-.85.21.33.21.62.46.41.87-.28 1.03-.69 2.03-1.59 2.62 0-.41-.26-.41-.74 0-.46 1.33-4.97 5.72-6.44 4.74-.13-.1.15-1.56.28-1.9 1.15-.44 5.56-3.49 3.74-4l-.56.54c.62 1.26-.33 1.9-1.38 1.03-.38-.13-.41-.31-.05-.56-.46 0-.44-.1 0-.33l.56-.59c-1.05-.21-.31-1.38.54-1.44l.44-.69c-.46 0-.46-.13-.05-.38l.56-.69c-.74.26-.67-.46-.15-.92l.67-1.13c-.46.05-.44-.05 0-.31l.44-1.08c-1-.08-1.67-.92-.49-1.56 1.26-1.33-.38-2.92.54-3.92.74 0 1 .95.77 2.82.51 1.05.79.79 1.36-.08.59-.92.97-1.62.95-2.82l1-.64-.51-.51c-1 .05-1.03-.82 0-1.03-.36-.82-.23-1.08.56-.54.21.67.56 1.31.46 2.08" class="cls-319"/><path d="m87.82 24.13-.51 1c0 .13-.05.41.03.51-1.44-.92.9-3.51.46-7.72-.05-.54.23-.97.54-.97-.05 2.41.28 4.85-.49 7.18z" style="fill:#302a28"/><path d="M87.31 25.13c-.03-.36.08-.87.51-1-.13.36-.05.82-.51 1" class="cls-319"/><path d="M88.33 16.41c-.41-.15-.56-.62-.51-1.03.41.15.51.59.51 1.03" class="cls-43"/><path d="M84.54 29.28c.51-.26.59-.05.23.62v.38l-3.08 3.08c-.1.03-.31 0-.41 0-.69.79-1.41 1.13-2.18.95-.59.1-1.18.08-1.64-.33l.05-2.26c0-.21-.03-.33-.08-.51-.13-.97.28-1 .59 0 .69-.54 1.41-1.05 2.15-1.54l1.38-1.03.56-.54c.33-.87 1.41-.95 2.38-.79-1.26 2.97-3.9 4.62-6.59 6.28 1.23.56 1.97-.1 2.74-.79l3.87-3.54v.03Z" class="cls-83"/><path d="M85.31 29.33c-.21.13-.36.41-.51.59l-.23-.62c.31-.36.21-1.44 1.21-1.62.13.82-.23 1.21-.44 1.64h-.03Z" class="cls-4"/><path d="M86.49 25.85c.44.62.44.74.41.87-.18-.13.54-.21-.41-.87" style="fill:#251f1c"/><path d="M85.18 10.26c.41 1.23.87 2.49 1.59 3.59v1.03l.51.51-.21 4.13c-.31-1.26-1.18-.95-1.23-.08-.41 1.28-.28 2.46-1.08 3.62-2.23-2.31-.31-5.59-1.59-6.95v-1.1c1.59-1.49 2.1.59 1.03 1.95.31.67.49.85.56.56 0-.64.15-1.15.54-1.56-1.31-.72-1.21-2-.51-3.23-1.28-.31-1.72-2.36-.64-3.08l.97.67.05-.05Z" class="cls-96"/><path d="M82.03 24.1c-.05-.23-.05-.54.03-.77s.38-.41.64-.36c0 .51-.13 1.05-.67 1.13m.69-1.43c0-.44.05-.9.44-1.08.13.44 0 .92-.44 1.08m-1.1 3.05c.1-.31.31-.54.56-.69.05.33-.21.69-.56.69" class="cls-294"/><path d="m83.72 23.33.26-.26.26.26-.26.26z" class="cls-96"/><path d="M80.1 28.82c0-.31.26-.59.56-.59z" class="cls-83"/><path d="M81.59 28.69c.18-.13.49-.33.56-.54-.13.23-.33.41-.56.54m-.36-1.89c.1-.26.23-.51.44-.69z" class="cls-294"/><path d="M87.31 15.39c-.23-.05-.49-.28-.51-.51.23 0 .51.28.51.51" class="cls-43"/><path d="M84.8 17.49c-.13.36.38 1.13-.49 1.54l-.08-2.1h.51l.05.56Z" style="fill:#877f78"/><path d="m84.8 17.49-.05-.56c0-.44.1-.9.59-1z" style="fill:#a29891"/><path d="M80.1 6.67c.05.15 0 .36 0 .51-.54.03-.87.21-1.03.51.82.21 1.28.41.54 1-.85-.33-1.54-1.05-2.59-.95l-.05-.85v-.72c.31-.44.92.15.9.49 0 .05-.64-.33.15-.51l1.18-.69c.38.36.69.72.87 1.21z" style="fill:#938981"/><path d="M80.16 7.69h.44c.18.31.38.33.64.08.41.05.49.33.36.62l-.36.85c.41.1.38.26-.03.46-.72.05-1.18-.36-1.54-1l-.54-1c0-.77.59-.56 1.03 0Z" style="fill:#a59d98"/><path d="M82.62 10.72c.36.59.13.82-.51.51-.62-.26-.92-.9-.92-1.54s0-.33.03-.46c.46-.26 1.1-.18 1.33.33.15.31.1.82.08 1.15Z" style="fill:#b8b2ac"/><path d="M82.13 11.85c-.03-.18-.05-.44 0-.62.05-.23.28-.44.51-.51.13.1.44.26.51.44.18.28 0 .64-.23.67l-.79.05z" style="fill:#ccc6be"/><path d="m84.33 12.62-.1.92c-.08.62-.31.1-1.03-.21-.13-.38-.1-.79.26-1.03.26-.15.77 0 .87.31Z" style="fill:#c0b8b1"/><path d="M61.46 49.77c1.41.79 2 1.69 1.74 2.72l-.1 1.36c2.69.74 5.46 1.44 8.26 2.05 1.26-1 5.23.1 4.44 2.05l.21 1.03c-2.41-1.74-4.92-2.59-8.1-2.74-1.13-.05-2.38-.62-3.64-.26-1.38.41-2.54-.03-3.72-.05-1.08-.36-1.54-.9-1.44-1.56-.69-1.92.13-5.1 2.38-4.59h-.03Z" style="fill:#2c2825"/><path d="M61.72 47.21c.56 1.15-.26 2.38-2.46 3.67q-.69 1.815-.15 3.51c.56.41 1.15.9 1.44 1.56-1.87-.03-4.26-1.59-3.64-3.87.31-1.13 1.36-2.15 1.05-3.41l2.54-1.51c.54-.21.95-.21 1.26.03" style="fill:#1c1917"/><path d="M58.08 56.44c-.46-.21-.79-.56-.92-1.05.46.18.77.56.92 1.05" class="cls-198"/><path d="M82.36 69.72h-.67c-.87.56-1.23-.46-.49-1.03-.49-.03-.49-.21-.05-.49.23-.49 1.15-.77 1.62-.44.28.77-.26 1.38-.41 1.95Z" class="cls-59"/><path d="m84.85 65.23-.79-.1c.1-.51.03-1.1.41-1.51.62.26.82.85.69 1.05-.1.13-.33.41-.31.56" style="fill:#3c3633"/><path d="m82.74 67.77-1.62.44q-.495-.27 0-.54c-.41-1.28.85-1.62 1.54-.51 0 .18 0 .44.05.59l.03.03Z" class="cls-262"/><path d="M71.95 53.28c.36.36.87.56 1.49.62-.1-.92 1.18-.69 1.67-.03-.03.26-.18 1.23.05 1.23h1.13c.9.77 1.26 2.23.77 3.1l-1.23-.23c-1.21-1.56-3.33-.95-4.44-2.05-1-.23-1.33-.56-1.03-1.03-.95-.56-.79-.97-.03-1.62-.18-1.49 1.03-1.08 1.59.03h.03v-.03Z" style="fill:#464542"/><path d="M31.95 75.52c-1.33-.26-1.44 1.26-2.03 1.9.23 2.51-.28 3.9-1.54 4.21 0 .38.18.69.31.92.31.54-.49.79-.85.54-.13-1.9.33-3.82.49-5.64 1.03-.67 1.62-1.95 2.28-2.85.97.26 1.28.46 1.33.92Z" style="fill:#4f504f"/><path d="M28.38 81.62c0-.46.67-1.15.87-1.56-.15-1.1 0-1.87.67-2.64 1.15 1.67-.38 3.59.31 5.8-1.26-.38-1.41-1.18-1.85-1.59Z" style="fill:#8b8c8b"/><path d="M33.49 88.18c.1.26-.1.74-.15 1.05 0 .38-.31.38-.92 0-.1-.13-.23-.44-.41-.49 0-.33.33-.92.67-1 .23-.05.69.33.82.41" style="fill:#88827d"/><path d="M30.95 87.75c-.54-.21-.92-.59-1.03-1.13.36.15 1.21-.18 1.46.33.15.28-.33.62-.44.79" style="fill:#6f6f6e"/><path d="M51.33 89.72c.74-.33 1.28-.31 1.62.03l1.54 1.03c.28-.38.46-.33.56.15l-4.62 1.36-1.64.05c-.28-.31-.41-.28-.74-.03-.69-.03-1.21-.72-.95-1.15 1.28-.21 2.54-.82 3.36-1.38h.92l-.05-.05Z" style="fill:#605651"/><path d="M48.77 92.31h-.74c.1-.49.69-.82.74 0" style="fill:#6a6d6d"/><path d="m49.62 91.29.26.26-.26.41-.26-.41z" class="cls-263"/><path d="M80.1 58.46c1.21-1.59 1.95-.33 1 1.03l-.46.49c.49-.67.82.36 1 3.1 1.23-.9 1.38-.56.54 1.03v.51c-.31.38-.69.54-1.18.49-.44-1.87-.72-4.08-2.44-5.62.18-.41.13-.62.13-.72v-.92c.9-.97 1.36-.77 1.41.62Z" style="fill:#626361"/><path d="M72.41 50.31c-.08 1.1-1.44 1.36-2.03.46h-1c.08 1.13-1.38 1.1-1.56 0l-.51-.49c-.56-.79-.54-1.15.05-1.08 2.46-.85 5.36-.26 5.08 1.13" class="cls-74"/><path d="m74.49 50.16.54.59.05.46c.46.33 1 .72 1.67 1.13 1 .15.9 1-.13 1.05l-1.1.41c-.82-.15-1.33-.46-1.56-.97l-1-1.03v.49c.49-.49.74-.18.51.51.13.69-1.05.31-1.54-.03-1.62-.15-1.59-.72 0-1l-.15-.62c.67-.18 1.05-.51 1.21-.97h1.51v-.05.03Z" style="fill:#a19b96"/><path d="M81.59 56.31c.1 1.49-.38 2.21-1.49 2.15-.41-.05-1.03-.36-1.41-.62.33-.23.64-.36 1-.87-1.21-.18-1.59-.85-1.54-1.54.38-.41 1.1-.67 2.1-.79h.41c0 .64.33 1.51.9 1.67" style="fill:#807975"/><path d="M69.39 47.21c-.28.74-1.21.54-1.77.72-.41 1.13-1.03 1.56-1.87 1.31-.72.51-1.51.46-1.56-.49-.49-1.74 3.82-2.28 5.21-1.51" style="fill:#4d4442"/><path d="M80.26 54.67c0 .33.13.64-.1 1.31-.79-.49-1.36-.59-2-.54-1.1-.26-.62-1.46.31-1.13.82.08 1.41.15 1.79.33z" style="fill:#a9a49e"/><path d="M72.98 50.21c.31.26.56.85.13.97-.46.13-.85.31-1.18.62-1.03 1.44-3.05.1-1.54-1.03.72.08 1.44-.1 2.03-.46.13-.08.38-.1.54-.1h.03Z" style="fill:#c9c4be"/><path d="M73.46 52.82c.15-.44.31-.44.51 0 .67 0 1.31.36 1.56.97l-.41.05c-.46.05-1.21-.13-1.67.03-.82.15-1.33-.05-1.49-.62-.41-.08-.41-.26-.03-.49h1.54v.05h-.03Z" class="cls-268"/><path d="m76.62 53.39.13-1.05c-.82-.54-.62-.85.33-.56.41.21.67.44.9.82.31.49.03 1.31-.51 1.1l-.87-.31h.03Z" style="fill:#b8b4ae"/><path d="m77.1 51.8-.33.56c-.54-.56-1.54-.03-2.03-.15-.62-.15-.1-1.18.36-.97.72 0 1.38.26 2 .56" style="fill:#cbc5bf"/><path d="M67.62 47.93c-.05.41-.1.85-.28 1.28l-.05 1.08c-.64.54-1.15.18-1.54-1.05.46-.51 1.13-1.08 1.87-1.31" class="cls-295"/><path d="M75.03 50.75c-.23-.15-.41-.36-.54-.59.31 0 .51.28.54.59" class="cls-74"/><path d="M82.18 64.11c0-.44-.15-.79-.54-1.03-.64-1.79-.56-3 .21-3.62-.87-.74-.95-1.79-.28-3.15 2.31.64 1.1 3.41 2.69 5.23-1.03.82-1.41 1.74-2.08 2.54z" style="fill:#726b68"/><path d="M82.13 65.62c-.03.59.18 1.13.59 1.56l-1.54.51c-.62-.79-.69-1.44-.05-2.03.08-1.36.56-1.31 1-.05Z" style="fill:#63615d"/><path d="m82.18 64.62-.05 1-1 .05c.05-.18-.05-.44-.1-.54.1-.49 0-1.08.41-1.54.31.62.49.87.77 1.05" style="fill:#777772"/><path d="M76.08 62.62c.41 2.05-2 6.26-4.13 5.1-.59.05-.82 0-.54-.51-.33-.38-1.21-.38-2.56 0-5.33.08-5.87 6.85-5.08 10.51-.82.13-1.33 1.21-1.44 1.9-.97.46-2.05 1.46-2.67 2.33-1.23 1.67-2.59-.08-3.49-.03-3.36.85-7.44.9-10.97 0l-2.41 1.15-6.15-4.56c-.79-.28.79-3.56.95-3.72.41-.38 2.21.56 2.67 1.1l.69-.46c.08-1 .46-1 .72-.03.21-.74.62-.54 1 .03.15-.38.33-.36.51 0 .44 0 .92 0 1.41.05.15-.28.36-.28.59-.08l.54.54c.87-.92 1.03-.69 1.03.51h.44c.36.03.36.38 0 1-.15 2.74.13 3.74 2.69 3.05.33-1.05.67-.51.9.46.79-.05 1.64-.21 2.51-.51.1-.92.33-1.72.67-2.44-.69-1.28-.59-1.79.31-1.59-.28-.31-.23-.49.18-.59.13-1.64.77-2.03 1.56-.51.9-.85 1.64-.54 2.62.08.28-.36.72-.51 1.31-.49-.18-1.26.13-1.64.92-1.15.49-2.97-.03-4.95-1.62-5.85l-.74-2.41c-.44-.05-.41-.18.05-.36l.49-1.64c-.69-.72-.33-1.03.56-.59.72-.36 1.33-.1 1.82.77 0 0 .92-.9 2.77-2.69l.46-.46 3.26.9c1.1.05 1.23.56.31 1.18l-.62 1.15c-1.05.28-2.21.87-3.46 1.82l-1.13.95c1 .18.92.56-.15.59l-.1.56c-.49 1.62-.28 1.46.64-.44 1.15-.49 1.97-1.05 2.41-1.72-.62-2.69 1.56-1.64 2.97-.9l2.05-.13c-1.08-1-.18-1.74 1.03-.97l.54-1.56c-.79-.44-1.79-.69-3.05-.77.26-1.05.08-2.05-.49-3 .44-1.67 1.85-1.31 4.21 1.05l3.18 1.21c.21.85.13 1.51-.21 2.05l.05.1Z" class="cls-148"/><path d="M68.82 67.18c1.21-.36 2.05-.36 2.56 0 .23 0 .49.28.54.51l-.18.82c-1.72.18-3.44.31-5.18.38.23-.74.05-.49-.31.31.44.15.44.33 0 .51 1-.05.97.36-.03.62-1.28.49-1.97 2.82-.92 4.23-.87.13-1.13.31-1.44.62-.36.33-.05 1.15.62.67.44-.31.82-.21 1-.03.15.15.23.9 0 .82s-1.1-.51-1.38 0c.23 1.33 2.18 1.56 3.74 1.26-.49 1-1.51.56-2.15.59l-.97.05c-.51-.41-1.03-.38-1.54 0-.08.56-.44.82-.92 1.05-.1-.03-.36 0-.64-.38 1-.59 1.69-2.54.49-3.54-.46-.38-1.64.36-2.28.72.21-.92 1.28-1.26 2.26-1.54 1.28-.41-.38-3.59 2.13-6.38 1.18-1.31 2.95-1.28 4.62-1.28Z" style="fill:#151413"/><path d="M60.87 73.85c-.49.28-.79.64-.92 1.15-.13.15-.1.46-.38.64-.41.26-.64-.05-.95-.15.82-.87 0-1.51-.1-1.79-.92.18-1.15-1.21-.51-1.72l.49-3.28c.15-1.13-.38-2.18.03-3.13l2.62 3.21c.97 1.18.56 4-.28 5.08h.03Z" class="cls-8"/><path d="M49.92 80.52c-.08.67-.49 1.03-.9 1.1-.56.1-1.69.13-2.13-.38-.9-1.05-.49-2.87.33-3.74.56.28 1.08.08 1.54-.64 2.36-.92 1.97 2.31 1.15 3.69" style="fill:#574d4b"/><path d="M54 78.06c.26.64.72 1.97.26 2.82-.67 1.21-2.77 1.08-3.44.13-.64-1.15-1.18-4.46.69-3.59.44.33.9.15 1.41-.56.87-.77 1 .28 1.08 1.23z" style="fill:#574e4c"/><path d="m57.51 79.88.69-.36c-.21-1.26 0-2.36.54-3.31l.56 1.9c.23-.64.49-1.23 1.31-1.38.59 2.59-.62 4.1-2.8 5.33-.62-.51-.33-1.28-.28-2.21" style="fill:#312c2a"/><path d="M55.62 76.39c1.13 1.49 1.72 3 .97 3.95-.33.41-.72.64-1.44.62-.13-1.67-.44-3.08.46-4.56Z" style="fill:#4b4341"/><path d="M42.92 81.98c-1.92-1.13-1.44-3.77-.41-5.69 1 1.74.87 3.44.41 5.69" style="fill:#453e3c"/><path d="M45.33 76.98c.64 1.28.49 2.95-.31 4.1-1.79-1.13-1.08-2.9-.36-4.13.13-.36.46-.26.67.03" style="fill:#605655"/><path d="M57.51 79.88c.05-1.44-.38-2.95 1.23-3.67l.18 3.15c.05.31-.26 1-.56 1.13-.23.08-.62-.28-.85-.62Z" style="fill:#514947"/><path d="M40.82 79.98c-.28-.92-.38-1.82 0-3.13.41.72.64 1.62 0 3.13" style="fill:#3b3433"/><path d="M61.36 79c-.31-.77-.31-1.59-.21-2.33.15-.13.28-.28.31-.28.38.87.41 2.15-.08 2.62h-.03Z" class="cls-54"/><path d="M42.67 74.88c.44.15.44.36 0 .54h-1c-.05-.46.13-.87.51-1.05.64-.41.87-.15.51.51h-.03Z" class="cls-120"/><path d="M43.61 74.75c-.05.28-.23.54-.44.69h-.51v-.56c-.1-1.36.36-1.36.95-.13m3.62 2.72c-.08-.31-.03-.72 0-1.03.15 0 .46-.1.62-.05.85.69.44 1.62-.59 1.08" class="cls-38"/><path d="m45.74 75.95-.54-.54c.41-.23.72.18.54.54" class="cls-76"/><path d="M45.33 76.98h-.67c-.08-.69.74-.64.67 0" class="cls-38"/><path d="M71.41 67.18h-2.56c2.54-.46 3.8-2.13 5.54-4.31.15 2.28-1.69 3.18-2.97 4.31Z" style="fill:#383331"/><path d="M64.23 61.08c1.03 1-1.23 1.79-2.87 4.67l-1.72-2.74c.97-1.51 2.8-2.36 4.59-1.92Z" style="fill:#171615"/><path d="M68.9 58.31c.38.28.9.46 1.18.77.38.41.21 1.13-.13 1.77 1 .08 1.85.05 2.64.51.49.28.54.87.31 1.38-.18.41-.62.54-1 .9-1.49.13-2.72-.05-3.64-.59-.44 0-.41-.13 0-.33-.03-.41-.15-.79-.31-1.18-.05-.1 0-.33 0-.46-.36-.23-.18-.38.56-.44-.62-.21-.51-.44.33-.64-.41-.36-.87-.54-1.38-.49l-.31-.62 1.72-.56.03-.03Z" style="fill:#33302e"/><path d="M58.59 65.21c-.1-.62 0-1.23.49-1.64.1.62 0 1.26-.49 1.64" class="cls-8"/><path d="M65.26 60.52c-.18-.1-.38-.31-.51-.49.23.05.44.28.51.49" class="cls-145"/><path d="m68.26 63.05.46.54c1.21-.36 1.92 0 2.18 1-1.51 1.44-4.54-.79-5.03 1.03.15.74-2.36 1.92-2.8 1 0-1.26 1.51-1.95 2.72-2.21-.72-.67-1.38-.41-2.18-.49 1.46-.95 3.08-.87 4.64-1.23v.36Z" class="cls-1"/><path d="M65.87 65.64c.49.1 1-.05 1.51.41-2.15.82-3.69 1.69-5.05 3.28-.26-.82.23-1.21.49-1.54l.1-.56c.13-.18.15-.38.15-.59z" style="fill:#181615"/><path d="M62.82 67.77c-.41-.15-.31-.56.1-.56z" class="cls-1"/><path d="m71.9 63.62-1.03.97c-2.05-.28-3.67-.23-2.95-1 .13-.13.23-.33.31-.56l3.67-1.13c-.18.79-.36 1.36 0 1.72" style="fill:#484341"/><path d="M17.61 41c.18.82.33.97.46.54h.51c0 .41.36.74.44 1.05.36 1.15.54 2.46-1.21 3.18.15-1.62-1.13-2.51-2.26-3.08l-.15-.77.51-.95c.1-.85.15-1.67.13-2.44-.54-1.05-.1-1.36.95-1.54-.49-.1-.64-.28-.49-.56-.26-.15-.26-.33 0-.51-.33-.79-.21-1.18.64-.82-.21-.97.18-1.03.56-.08l-.13 6h.03v-.03Z" style="fill:#6e6b68"/><path d="M18.56 30.23c.62.1.87.33.77.67-.41.46-1.21 1.33-1.18 1.95-.44 1.13-.97 1.46-1.59.97 0 1-.38 1-.69 0-.15-1.74 1.03-2.8 2.13-3.77.31-.31.49-.28.62.15h-.05v.03Z" style="fill:#c0b2ab"/><path d="M20.64 28.23c-.05.79-.28 1.54-.82 2.15-.33.28-.77.26-1.26-.13l-.62-.15c.69-.64 1.03-1.56 2.1-1.95l.56.08h.03Z" style="fill:#b9a79d"/><path d="m17.74 35-.56.08c-.69.62-1.08-.62-.62-1.23.44-.41.92-.74 1.59-.97 0 .69-.38 1.56-.38 2.13h-.03Z" class="cls-160"/><path d="M18.05 41.51c.1.38.13.82-.36 1.1-.26-.79-.1-1.18-.08-1.62l.46.54h-.03v-.03Z" style="fill:#82817d"/><path d="M21.64 27.62c.82-.08.87.31 0 .59-.15.46-.31.44-.51 0h-.51l-.56-.05c.41-.15 1.1-.51 1.59-.54Z" style="fill:#93827a"/><path d="m19.82 30.36-.49.54-.77-.67z" style="fill:#c9bcb3"/><path d="M21.66 28.72c-.08.26-.28.44-.56.54.1-.28.05-.77.05-1.05h.51c.46.15.44.31 0 .51" class="cls-14"/><path d="m37.15 23.05.64.97c-.87.56-1.67 1.31-2.38 2.18-1.03 1.62-1.72 3.44-2.1 5.49l-1.18.1c-.59.36-.79.95-.95 1.51-3-.92-.31-2.97-2.23-5.67-.13-.56 1.05-1.49 1.41-1.72-.49-.41-.87-.28-1.1-.31.41-1.72 2.13-2.56 3.13-3.92 1.56-1.74 6.74-1.51 4.74 1.38l.03-.03Z" class="cls-216"/><path d="M26.33 30.23c.1-1.26.69-2.95 2.05-3.54-.51 1.26-.97 2.74-2.05 3.54" class="cls-34"/><path d="M22.64 27.62c.13.1.64.69.51.92-.18.33-1.23.31-1.49.21v-1.1c.26 0 .59-.46.97 0v-.03Z" class="cls-253"/><path d="M33.67 59.36c1.62-.33 3.23 0 1.33 1.15h-2.05c-.38-.21-.67-.23-1.03 0-.13.08-.41.1-.56.1l-2-1.56c-.23-.59-.15-.87.23-.9 1.26-1.15 3.18.28 4.08 1.23" style="fill:#6b6260"/><path d="M29.84 54.36v1.03c.36 1.26.26 2.18-.26 2.74l-.23.9-.54-1.05-.49-1.56v-.51l.51-.51v-.51c-.05-.56.08-1.13.51-1.54-.05.41.13.85.49 1.03" class="cls-26"/><path d="M28.79 57.98c-.28-.51-.49-.95-.49-1.56.56.28.64.97.49 1.56m-.46-2.08c0-.23.28-.46.49-.51-.05.26-.26.46-.49.51" class="cls-206"/><path d="m32.46 63.11-.62-.54z" class="cls-115"/><path d="M60.15 18.51c2 1.28 2.03 3 6 4.54.62 1.38.51 4.1-1.44 3.62-.77 2.33-3.82-2.51-4.15-4.15-1.28 1.1-2.49-1.44-2.67-2.69-.97-.13-1.51-.62-1.59-1.44-.1-.41-.36-.69-.67-.9v-.64l4.54 1.67h-.03Z" class="cls-301"/><path d="m68.82 27.18.49.49c1.05 1.74-1.56 3.69-2.95 2.46h-.69c-.33-1.08-.64-2.23-.97-3.46.23-.18.97-.51.82-.74l-.72-1.13c.77-.46 1.51-.97 1.33-1.77 1.05.41 1.1 1.36.92 2.59l.44.79c.08.13-.54.46-.62.51.51.77 1.38.64 1.92.23h.03z" style="fill:#433f3d"/><path d="m71.23 33.28.13-.9c-1.05.05-1.72.87-2 2.49h-.64c-1.1-.31-2.23-.41-3.36-.28-1.08.26-1.1-.49-.03-2.26-1-1-.41-2.31 1-2.21l2.15-1.26c.33-.18.69-.28.82-.49.1-.18.05-.54-.03-.72.92.95.62 2.54.51 4.36.79-.21.87-1.28 1.13-1.72 1-.21 1.15.62 1.1 1.26s.18 1.62-.79 1.72Z" class="cls-119"/><path d="M59.59 89.24c.46.08.46.23 0 .46-.23.18-.23.36 0 .56.38-.49 1.33-.13 1.03.54l-5.59.13-.56-.15c-.9-.26-1.38-.46-.51-1.1 1.77-.9 3.74-.41 5.62-.41h.03v-.03Z" style="fill:#796b63"/><path d="m53.97 89.67.51 1.1-2.08-.08.56-.95c.31 0 .77.05 1.03-.08h-.03Z" style="fill:#95877a"/><path d="M56.51 90.06c-.54.28-1.13.41-2.08 0 .33-.26.92-.67 2.08 0" style="fill:#a08f83"/><path d="M59.62 89.7v.56h-.74c-.23 0-.44-.36-.03-.51.21-.08.56-.03.79-.05h-.03Z" style="fill:#bcb0a2"/><path d="M62.64 6.18v.49c-.62.59-1.9.49-2.49-.1-.23-.36-.64-.92-1.15-.69l-1.62.77c-.69-.18-.56-1 .18-1.03l3.56-1.44c.15-.67.54-.67.74.05.97.44 1.13 1.03.77 1.97v-.03Z" style="fill:#56534e"/><path d="M68.77 6.64c-.51.13-.69.77-1 1.05h-2.03v-.51c-.56-.33.49-.79 1.03-1.03.23-.41.41-.38.51.1.69-.56 1.79-.69 1.46.38" style="fill:#595551"/><path d="m66.8 6.15-1.03 1.03c-1.44-.05-3.23.41-4.59.03-.41.21-.79.38-1.05-.03l.05-.64c.72.23 1.72.08 2.46.1.18-.21.36-.21.56 0 .03-1.08.41-1.41.72-.38l1.33.36c-.31-.97.33-1.26 1.03-.49.13-.49.31-.49.51 0" style="fill:#7b736d"/><path d="m57.59 5.59-.18 1.03c-.08.03-.26.05-.36.05-.13.46-.31.44-.51 0V5.64c.15-.44.31-.44.51 0 .15 0 .41 0 .54-.05" style="fill:#3c312d"/><path d="M57.05 6.67c.13.15.05.97-.23 1.03-.23.05-.69-.49-.85-.51.08-.26.31-.51.56-.51h.51Z" style="fill:#8c847c"/><path d="M61.18 7.21c-.15.15-.49.54-.77.49-.23-.03-.28-.31-.28-.51h1.05v.03Z" style="fill:#7f7d73"/><path d="m69.82 7.18-1.05-.54c-.49-.26-.92-.46-1.46-.38-.67-.21-.67-.38 0-.62.67-.62 1.36-1.13 2.08-1.54 1.31.05 2.33 1.54 1.87 2.92-.28.23-1.15.21-1.41.18" class="cls-89"/><path d="M48.33 14.23c1.41 1.44 3 2.18 4.8 2.15.56.49 1.18.87 1.85 1.18.03.87-1.67 1.41-2.54 1.56-1.74.31-5.41.23-6.51-1.13-2.23.28-3.1-1.33-.69-2.15l-.15-.51c.85.1.9-.05.21-.46v-.51l3.08-.15h-.03v.03Z" class="cls-301"/><path d="M52.87 14.13c.15.18 1.03.79.95.92l-.56.95c.64 1.1 1.77.62 2.38.85.62.26.62.44 0 .64-.1.44-.33.44-.64.08l-4.23-.36c-1.95-1.28-3.23-1.92-2.44-3z" class="cls-81"/><path d="M45.2 15.85c-.28.15-.51.97-.41 1.59 1.18-.77 2.72-1.13 3.38-.18-1.51-.38-1.59.97-.49.9.82-1.18 1.62-.23.64.67 2.28.23 4.44-.67 6.64-1.23.21-.05.41-.1.64-.08.87-.18 1.49.26.67.9.26 1.87-2.28 2.15-3.69 1.56-.15.15-.33.28-.49.28-4.08-.05-4.8 0-8.72 1.59-.33.13-.62-.26-.74-.72-.23.41-.44.36-.56-.1-.18-.38.05-.97.74-1.74l-.67-1.23c-.08.46-.23.44-.46 0l-3.13.08c2-1.23 4.31-1.72 6.59-2.26h.05v-.03Z" style="fill:#534e4b"/><path d="m47.56 15.9.26.26-.26.33-.26-.33z" class="cls-81"/><path d="m69.44 45.23.38.82c-.13 0-.38 0-.54.15a44.6 44.6 0 0 1-6.69-.92l-.9-1.08c-.9-.51-.38-.82.54-1l.54-.08c2.31.1 4.64.95 6.67 2.1Z" class="cls-16"/><path d="M71.39 32.39c-1.74.77-1.31 3.13-2.54 4.54-.46-.1-.23-.62 0-1.03-1.38-.05-1.36-.51-.1-1.03.72-.36.69-1.38.62-2.31.51 0 .85 0 1.03-.15.26-.21.44-.56.59-1.18.59.33.46.77.38 1.18l.03-.03Z" class="cls-88"/><path d="M68.85 36.92v1.05l-.54-.05c-1.79-.13-1.26-2.8.51-2.03v1.03z" class="cls-119"/><path d="M61.69 44.21c2.69.05 5.21.92 7.59 2l.08.46c-.85.31-2.64.46-3.54.08l-2.59.44c-.74.85-1.26.85-1.51 0-.36.1-.87 0-1.26-.03.72-.44 1.33-.56 2.15-.59-1.1-1.9-2.41-2.23-4.18-1.9-.87-1.49 1.49-2.31 1.97-.9.74-.28 1.18-.13 1.26.44z" style="fill:#100f0f"/><path d="M69.36 46.67v.54c-1.87-.44-3.85 0-5.15 1.51.05 1.13-.44 1.33-1.51.62-2.56-1.36 1.31-2.69 3.15-2.59l3.54-.08z" class="cls-54"/><path d="M77.51 10.21c.21-.44.38-.41.54.05.21-.44.77-.36 1.05 0 .85.33.49.85-.03 1.44-.64.72-.85.38.18-.23.21-1.1.56-1.56 1.1-1.41l2.92 4.31c1 0 .97.41-.05.64.56.44.74.97 0 1.1.21 1.28.23 2.56.05 3.85l-.59.08c-.31-.18-.38.69-.26 2.59-.28.15-.51.33-.54.54-1.08 4.54-4.1 9.97-6.64 2.97-.26-.21-.21-.33.1-.41.9-1 1.85-2.03 2.92-3.1 1.97-4.44.67-9.15-3.8-11.41-.36-1.15.62-1.23 1.05-.18 0 0-.21-.31-.85-.51.79.85 1.08.1.64-.33l.46.62.08-.36c-2 .23-4.49-.97-2.44-2.67 2.51-1.23 3.9-.49 4.1 2.49v-.05h-.03Z" class="cls-294"/><path d="M75.33 25.72c-.54.05-1.05-.15-1.33-.64 1.92.28 2.41-1.54 4.26-2.46-.51 1.18-1.51 2.44-2.92 3.1" class="cls-168"/><path d="m82.67 20.03.49 1.56-.44 1.08v.31l-.67 1.13.15.92-.56.69.05.38-.44.69-.54 1.44-.56.59v.33c-.36.92-1.23 1.64-2.08 2.1h-.59c-1.08-1.44-2.18-3.36-2.23-5.13.54.56 1.08 2.15 1.97 2.36 1.79.41 5.28-3.62 4.03-6.23.44.05.72.13.9 0 .26-.18 0-1.13-.13-.97s-1.03.08-.95-.28c.21-.56 1.15-.9.97-2.23.97.31.72.87.67 1.23h-.05v.03Z" class="cls-168"/><path d="M78.08 27.49c-.64.51-1.05.15-1.33-.31-1.26-2.08 2.23-3.23 2.85-5.21.13-.38.13-.56.36-.74s.67-.05.62.1l-.33.97c.31 1.9-.23 4.08-1.82 4.8-.1.1-.23.31-.36.41h.03v-.03Z" style="fill:#727370"/><path d="M79.64 8.69c1.05-.56 1.41-.1 1.54 1 .82-.21 1.15.85.92 1.54.41.21.41.41 0 .62 1.18-.21 1.54.28 1.08 1.49.92.72.95 1.05.08 1-1.36-.9-2.31-2.15-2.95-3.74-.62 1.18-1.18 1.92-2.41 1.59.9-.54 1.26-1.05 1.21-1.92-.41-.31-.67-.38-1.05 0l-.54-.05c-.28-.74-.44-1.56-.46-2.46.62-1.26 1.49-.95 2.59.95" style="fill:#514844"/><path d="m75 6.21.97-.54c.15.56.51.97 1.05 1.23.72.21 1.05.72.05.85.82.64.97 1.59.46 2.46-1.08-.13-.72-1.72-.92-2.44-1.15.36-2.56 1.08-3.18-.05l.05-1.05c-.28-1.38.85-1.41 1.54-.46h-.03Zm4.1 4.05h-1.05c-.08-.26.08-.46.28-.54.51-.15.74.13.77.51z" class="cls-300"/><path d="m75 8.97.26-.26.26.26-.26.26z" class="cls-300"/><path d="M73.46 6.67c1.36.23 1.28.72-.05 1.05-.33.79-.77 1.59-1.31 2.38-3.8 1.18-7.74 1.56-11.92 1.1-.13.08-.44.05-.56.08l-2.15-.41c-.26.05-.67 0-.92-.05l-.64-.54h-.33c-2.67-2.26-1.49-3.1 1.54-1.87 1.38-.05 2.72.05 4.05.31 0-1.03.87-1 1.03 0l.56-.49c0-.67.74-.69 1-.05l4.08-.46.56-.46c.74.62 1.44 1.15 2.1 1.64.03-.44.18-.46.46-.1l.46-.56c-.92-.15-.77-.69.49-1.56.18-.44.36-.41.56.03.08-.77.82-.77 1.03 0l-.03-.03Z" style="fill:#362f2c"/><path d="M55.92 7.64c1.1-.23 2.31-.38 3.64-.49.54.67 1.05.92 1.59.74v.82c-2.15 0-4.28.28-6.59-.62-.23 1.38.64 1.62.97 2.21-.74-.23-1.26-.82-1.59-1.49l-.56-.56v-.44c-.33-.74-.33-1.56-.05-2.31l.05-.38.67.15c1.08.59 1.69 1.38 1.87 2.41v-.05Zm3.7 3.64c-.74.08-1.54.05-2.15-.41.72-.18 1.72-.28 2.15.41m-3.08-.46c-.26-.08-.51-.31-.64-.54.28 0 .51.28.64.54" class="cls-252"/><path d="M63.21 9.23c.62-.49 1.41-.21 1.05.59-2.64.67-5.74.92-8.31-.38l7.28-.21h-.03Z" class="cls-244"/><path d="M69.82 7.18c1.38.15 1.46.64.64 1.69-.46.46-.69 1-1.69 1.31 0-1.05.36-1.49.15-1.77-.28-.38-.74-.74-1.13-.72-1-.92-.21-1.28 1-1.05.74-1.26 1.33-.85 1.05.54h-.03Z" class="cls-278"/><path d="M65.74 7.69c.49-.85 1.82-1.18 2.03 0-.97 1-2.8.38-4.08.46.44-.64 1.31-.49 2.03-.49m-.44 1.57c.28.15.28.33 0 .51-.33-.05-.74 0-1.05.08-.18-.51-.59-.62-1.05-.59.1-.54.72-.62 1.15-.41l.92.41zm-3.1-.51c.08-.23.31-.46.56-.49-.08.21-.33.49-.56.49" class="cls-252"/><path d="M70.92 8.77c.13-.21.28-.41.46-.56-.05.18-.31.46-.46.56" class="cls-278"/><path d="M65.28 9.74v-.51c.51-.13.59.56 0 .51" class="cls-244"/><path d="M73.46 6.67h-1.03c-.1-.36-.1-.77.26-1.03.26-.21.59-.05.64.31z" style="fill:#3a3a36"/><path d="M16.54 35.9v.51c-.51.1-.36.28.49.56.08.72-.28 1.28-.95 1.54-.67.56-.82.26-.67-.59-.21-.51-.46-1.1-.44-1.74.03-.54.36-1.1.95-1.31.67-.23.9.41.62 1.03" style="fill:#a99e97"/><path d="M15.95 40.95c-.21-.41-.31-.85-.41-1.31-.51-.64-.26-1.36.54-1.13l1.15 2.05c-.49.41-.9.41-1.28.41" style="fill:#908986"/><path d="M17.18 35.08c-.13.33-.36.59-.64.82-.38-.18-.56-.59-.62-1.03l-.1-1h.69l.62 1.21z" style="fill:#b7aca6"/><path d="M16.07 38.51c-.49.18-.64.67-.54 1.13-.49.03-.59-.49-.51-.87.05-.26.26-.62.38-.87.23.15.51.38.67.59v.03Z" style="fill:#988c86"/><path d="M37.59 92.47c-.18.03-.41.05-.59 0l-.82-.92c-.18-.21.62-.72.77-.72.23.08.72.15.9.44.21.33.05.9-.23 1.21h-.03Z" style="fill:#726760"/><path d="M33.33 89.26c.95.28 2.33.54 2.15 2.23-1.28-.72-2.28-1.36-3.08-2.23.31-.05.64-.08.92 0Z" style="fill:#7e726b"/><path d="M66.28 2.08c1.18.15 1.51.51 1 1-.13.41-.74.36-1.03 0 .15 1.13-.51 1.13-2.05 0-.1.64-.54.62-1.36-.13.87-1.05 2.21-.95 3.44-.87" style="fill:#b8b0a8"/><path d="M68.31 3.1h-1.03l-1-1c1.31.08 2.82-.56 4.23.74-.69.46-1.51.31-2.21.28" style="fill:#91928e"/><path d="M62.69 3.62c.67 1.18.28 1.41-.82.59-.15-.13-.56-.13-.74-.05-.56.08-.62-.64-.05-.54.62-.62 1.31-.51 1.59 0h.03Z" style="fill:#b7aea4"/><path d="M57.05 5.64h-.51l-1.1-.05c.18-.31.56-.87.9-.97.56-.15 1 .54.72 1.03Z" style="fill:#c3bdb8"/><path d="M71.64 2.54c.87-.05 1.54.85 2.15 1.28 1.95-.49 4.15.38 5.46 1.64.87 1-.36 1.03-1.18.69-1.33-.31-1.69-.28-1.08 0 .15.26.26.46 0 .72-.74.03-1.49-.15-2.03-.69-.97 0-1.69-.77-2-1.62-.46-.21-.97-1-1.62-.97-.05-.13-.28-.51-.28-.77s.28-.33.51-.31" style="fill:#8d837c"/><path d="M73 4.59c.85.38 2.05.44 2 1.62-.54.08-1.08.21-1.54.46-.38-.18-.72-.28-1.03 0h-.56c.15-.49-.15-1.13.1-1.72.15-.33.54-.51 1.03-.36" style="fill:#55514d"/><path d="M78.08 6.15v.77c0 .69-.31.13-1.08-.74-1.18.46-1.08-.9-.08-.54.67-.18 1.1.13 1.15.54" style="fill:#bfb7af"/><path d="M74.69 4.26c0-.18.72-.28 1.03-.18.15.05.36.28.1.51-.13.1-.36.46-.54.49s-.59-.33-.56-.82z" style="fill:#aca59c"/><path d="M80.13 7.18v.51H79.1c-.1-.18-.51-.59-.44-.85.05-.23.87-.23.95 0 .05.13.31.26.51.31v.03Z" style="fill:#c8c1ba"/><path d="m80.59 7.69.64.08c-.05.59-.72.49-.64-.08" style="fill:#d0cac3"/><path d="M35.46 26.74c.54.72.82 1.69.85 2.97 1.23 1.64 1.67 3.05 1.31 4.23.85 1.92-3.38 1.85-1.46 4.23.21 2.67-3.8 3.51-3.97 3.46-.33-.1-.33-.87-.38-1.15l.08-.67c1.51-.72 1.92-3.13.82-4-.41-.33-.46-.79-.26-1.31-.33-.74-.67-1.9-.31-2.67 1.23-2.62.69-4.82 3.28-5.59.36.13.38.31.05.54" style="fill:#3a3633"/><path d="M32.43 34.46c.49.59 1.26.46 1.87 0 .18 0 .82.62.67.67-1.54.51-.33 2.15-.74 3.46-.36 1.15-1.31 1.9-2.41 1.87l-.41-2.51c-.15-.92-.51-2-.08-3.18.18-.23.87-.31 1.13-.28z" class="cls-216"/><path d="M43.69 41.59c1.33.59 2.62 1.28 3.85 2.05 1.28-.87 2.41-1.28 3.36-1.21 2.31 1.59 2.64 2.67 1.03 3.23-.46-.44-1.18-.97-1.72-.85-2.03.38-2.54 2.87-4.33 2.41l-.64-.15c-.95.18-1.92-.31-2.92-1.49l-2.69-1.15c-1.13.79-3.38 1.05-4.15.28.62-.41 1.38-.77 1.67-1.59.15-.23.69-.49.97-.49s.79-.13.9-.38c.1-.23-.08-.79-.15-1.13 1.54-.9 3.28.23 4.85.46Z" class="cls-231"/><path d="M37.82 25.26c3.72 2.28 4.13 3.92 1.26 4.92.41.92.92 1.74 1.56 2.49l.05.62c-.97.41-2.03.62-3.08.64l-1.85-3c-.85-1.41-.95-2.8-.31-4.18.62-1.77 2.95-4.69 2.36-1.49Z" class="cls-165"/><path d="M45.28 38.54c.79.41 1 .79.03.95 0 .79-.33.62-1.08-.51-.54.69-2.1.36-2.44-.49l-1.03-.15c-.46 1.03-1.03 1.62-1.72 1.77-1.13 0-1.77-.9-1.69-1.92.1-1.28 1.31-1.08 2.13-1.36 2.62-.87 4.49-.54 5.8 1.69v.03Z" style="fill:#6e6966"/><path d="m41.79 38.49-.15 1c.97.51.44 1-.59.51-.59 0-1.33.54-2 .13.59-.59.59-1.26-.51-.67-.31-1.31.72-1.21 1.41-1.44.9-.28 1.15.18 1.85.46" class="cls-174"/><path d="M45.2 47.05c0 1.26.23 2.46-.28 3.85-1.44-4.9-5.28-3.15-7.46-5.21-.23-.23-1.31-.08-1.36.21s.13.74.36 1.49c-2.28.03-4.13.72-6.03 1.67-.28-.13-.31-.41-.05-.82l.49-.67c1.13-1.51 2.72-2.59 4.59-2.85 4.82-.67 4.15-2.38 5-2.62.46-.13 1.15-.21 1.44.54-1.1.13-1.54.26-1.92 1 2.54.49 4.05 1.77 5.23 3.44v-.03Z" style="fill:#0c0c0b"/><path d="M34.51 43.62c-.23.36-.64.46-1.05.49.18-.46.62-.49 1.05-.49" class="cls-99"/><path d="M30.38 48.21c.1-.26.26-.49.49-.67z" class="cls-71"/><path d="M30.43 49.05c-.15-.21-.41-.18-.54-.13l.49-.69z" class="cls-200"/><path d="M41.61 56.9c.31-.23.97-.26 1.08.23.08.36-.15.92-.38 1.28-.62.41-1.13.44-2.41.72.56.33 1.1.49 1.08 1.44-.95-.41-1.9-.72-2.82-.56-1.9-1.1 1.79-2 1.64-1.9-.36.23-.67.31-.79-.15l2.62-1v-.05Z" style="fill:#6f6764"/><path d="M39 57.9c.23.05.74-.31 1.23.33-.95.26-1.79.74-2.08 1.72l-3.15.56c.18-.44-.05-.87-.36-.95l-.97-.21c1-.33 1.92-.64 2.92-.87l2.44-.59H39Z" style="fill:#8a8280"/><path d="M45.28 51.93c-.41 1.56-1.08 2.74-2.15 3.97.69.97-.13 1.9-1 .77l-.54.23c.23 1.13-.62 1.46-2.62 1-.18.92-1.87 1.92-2.44.59l-2.9.46c-2.72-.62-3.8-1.46-3.26-2.54l-.56-1c-.77 0-.74-.82 0-1.03v-4.64c.15.28.1 1.15.41 1.36.49.31 1.38-.03 1.92-.77 1.85 3.46 5.28 0 4.8 4.38 2.38.28 4.85-.74 6.59-2.54l1.74-.21v-.05Z" class="cls-200"/><path d="M36.08 55.82c.49-.1.82-.18 1.05-.05.46.28.36.64.28.9-.36 1.21-3.9 1.15-5.41-.05-1-.79-1.41-2.18-1.03-3.82 1.28.59 2.13 1.54 2.72 2.69l.56-1.49c.18-.46 1.51-.38 1.79.1.33.54.44.95 0 1.74" style="fill:#272422"/><path d="M30.43 56.39c1.28 2.03 3.8 2.51 6.15 2.08-.21 1.08-1.18 1.38-2.92.87-.62-.13-1.33-.44-2.49-1.33-.23.49-.15.95 0 1.59l-1.56-1.51c-.36-.92-.44-2 .28-2.74l.56 1v.05h-.03Z" style="fill:#837a78"/><path d="M30.43 56.39c-.18 0-.49-.1-.56-.26s-.05-.56 0-.77c.54 0 .69.54.56 1" class="cls-62"/><path d="M32.95 60.49h-1.03c.1-.08.21-.26.41-.33.31-.1.49.26.64.33" style="fill:#827977"/><path d="M51.41 53.82c.56.54 1.23 1.33 1.49 2.08l2.03 5.67c.82 2.33 1.03 4.64-.41 5.05-3.23-1.03.77-4.62-2.41-7.72l-.95 7.33c-.56-.54-1.18-.87-1.72-.1-.62 1.05-2.05 1.77-3.18 1.05-1.15-1.08-1.46-2.9-.87-4.56l1.49-4.15.51-1.51c.28-.9.9-1.64 1.05-2.62.77-.87 2.08-1.41 3.03-.51h-.05Z" class="cls-312"/><path d="M49.41 66.16c-.05.77-.59 1.49-1.05 1.97-.9.05-1.54-.36-2.13-.95 2.15.13.54-2.33 2.62-3.51-.08 1.03-.59 1.74-.46 2.1.1.26.79.49 1.05.36z" style="fill:#1b1a19"/><path d="M51.13 66.26c-.67-.44-1.31-.28-1.72-.1-.05-1.87.15-3.77.79-5.69.28 2.18 0 4 .92 5.82" style="fill:#302e2b"/><path d="M60.67 42c.38.62.08 1.31-.56 1.59-.08.03.74-1.15 1.05-.46l1.05.1-.54 1c-1.05 0-2.36-.49-3.23.44-1.51.28-2.44 1.85-3.44 3.03-.9.23-1.72-.15-2.05-1-.15-.64 0-.97.49-1.05v-.56c-.15-.49 0-.64.49-.41l.59-.54c.13-.54.67-.87 1.59-.97 1.18-1.28 2.97-2 4.56-1.13v-.03Z" style="fill:#262421"/><path d="m45.74 41.64.46.41c.54.49 1.13.79 2.1.92.54.08.82-.74 1.13-1.21.72-.15 2.15.13 2.49.67.9 0 1.72.21 2.46.67h1.74c-.44.51-1 .82-1.59 1l-.59.54c-.13.13-.38.23-.44.41v1.33c0 .18-.31.33-.51.28l-.56-.56-.49-.46c.49-1.26-1.03-3.23-2.33-2.97-.41.54-.82 1.69-1.85 1.77-1.1.1-4.08-2.26-4.05-2.87.21-.95 1.9-.82 2.05.05h-.03v.03Z" class="cls-88"/><path d="M52.97 46.67c-.1-.21-.41-.41-.56-.56.31.03.62.26.56.56" class="cls-231"/><path d="M68.85 59.98c-.08.28-.13.44-.33.64-.44-.03-.9 0-1.26-.44.72-.33 1.18-.21 1.59-.21" style="fill:#867f7b"/><path d="m65.82 46.75-2.49.72c-.59.18-.69 1.38-.67 1.85.33 1.38-.33 1.56-1.21.44-1.85.31-2.38 2.87-2.38 4.59-.97-.72-.46-2.03-.46-3.23s1.38-1.31 2.23-2.1c.28-.41 0-1.74.87-1.85 1.33-.33 2.67-.69 4.1-.46v.05Z" class="cls-90"/><path d="M64.59 52.31c-.41.46-1.03.05-1.38.18-.33-.41-.72-.72-1.26-1-.74-.41-.79-1.15-.49-1.72.44-.08.85-.38 1.21-.44 1.56-.1 3.36 2.36 1.92 3v-.03Z" class="cls-23"/><path d="M77.05 58.18c.77-1.23 1.36-.79 1.05.59.62.79 2.67 5.67 2.46 6.38l-1 .54c-.05.92-.59 1.62-1.62 2.03.67 1 .33 1.49-1 1.46.9.59-.1 1.77-.95 1.41-.9 1.56-1.72 1.95-2.44 1.15l.15.69c.38.49-.13.85-.31.18-.1-.1-.26-.1-.77-.15.54-.51 1.13-.38 1.08.31.62-.87 1.36-1.05 2.38-.95-.28-.67.31-1.15.9-.56 1.08-.74 1.46-.95 1.31.54.46.15.44.64-.08 1.51.44-1.87 1.18-2.72 2.28-2.54-.08-.9.26-1.67 1.15-1.03-.1-1 .33-1.03.67-.03-.21.85-.23 1.51-1.1 2.21l-4 3.23c-1.41-1.49-3.13.28-4.18.13-2.18-.31-3.28.05-5.33-1.72l3.18-2.36c2.03.9 4.74-.33 4.64-2.49 2.15-2.41 3.28-6 1.18-8.64-.26-.33-.64-.69-.72-1.13-.56-.54-.64-.87-.21-1.03.44-1.36 1.13-1.18 1.23.23l.03.03Z" style="fill:#3d3b39"/><path d="M81 65.11c.54.08.56.26.1.54.64.49.56 1.33.05 2.03-.18.67-.49 1.08-1.05.54l-.51.51c.44-.03.33.28 0 .59-1 1.72-2.31-1.51-.69-1.72.08 0-.69 1.21-.97.15l.79-2.92c.28-.26 1.13.03 1.28.1l-1.92-6.13c.13.08.44 0 .59 0 .82.18 1.13.51.97 1.03 1.03 1.69 1.46 3.49 1.33 5.33v-.05z" style="fill:#4b4744"/><path d="M79.64 69.31c.62.79-.36 2.59-1.33 2.51L77 71.28l-.33-.59c.72-.62.82-1.1.28-1.51.38-.56.36-1.28 1-1.46l1.1-.56-.23 1.31c-.08.38.36.74.79.82h.03v.03Z" class="cls-262"/><path d="M76 70.59c.21.23.23.64.1 1.23l-3 2.1c-.15-.38-.15-1.05-.31-1.15-.13-.08.54-.15-.15-.28.64.36.97-.21.9-.72.72-.46 1.79-.33 2.44-1.15h.03v-.03Z" style="fill:#5d5a57"/><path d="M77 71.26c-.21.31-.64.38-.9.56-.49.23-1.03-.26-.54-.59.23-.15.28-.44.41-.64l.95-1.41c.26-.03.64-.23.87-.13.26.1.49.92.28 1.1-.59.49-.87.77-1.1 1.13l.03-.03Z" style="fill:#616361"/><path d="M80.13 69.23c1.05-.31.97.82.38 1.54l-2.28 2.54c-.18-.69 0-1.1.08-1.51.62-.77.33-1.92 1.33-2.51v-.59h.49c.38.15.36.33 0 .51v.03Z" style="fill:#69615d"/><path d="m81.67 69.75-1.15 1.03-.38-1.54c.15-.69.54-1.08 1.08-.54l.49 1.05h-.03Z" class="cls-262"/><path d="M77.21 72.44c.36.33.26.64-.15.87-.28-.08-.49 0-.51.26-.28.08-.41-.05-.41-.36-.51-.44.13-1.05.36-.77.1.13.41.59.72 0Z" style="fill:#383330"/><path d="M74.57 73.41c.33-.36.85-.08.87.15.03.18-.36.49-.46.64-.26.31-.92-.23-.41-.77m2.46-.12.15-.87c.77 0 .56 1.08-.15.87m-.93-.08.41.36c-.18.41-.77.1-.41-.36" class="cls-205"/><path d="M81.16 68.21c0 .15 0 .36.05.49l-1.08.54v-.51c-.23-.15-.23-.33 0-.51l1.05-.54v.54h-.03Z" style="fill:#696763"/><path d="M73.44 53.9c-.31.1-.87.62-1.26.44-.38-.15-.36-.74-.23-1.05.49.1 1.21-.1 1.49.62" style="fill:#5b5955"/><path d="M80.13 68.72h-.51c.05-.18.33-.41.51-.51z" class="cls-262"/><path d="M81.1 59.52c.1-1 .49-1 .74-.03.13 1.26-.03 2.33-.21 3.62-.69-.46-.79-1.28-.64-2.33-.38.08-.9.13-.9-.1v-1.41c.03-.28.77-.13 1 .23v.03Z" style="fill:#a19c97"/><path d="M81.85 59.46h-.74c.15-.33.05-.79-.26-.97-.26-.15-.56 0-.74-.05-.31-.72-.54-1.1-.21-.95l1.08.46c.08-.49-.05-1.31.59-1.64.46 1.08.18 2.28.28 3.15" style="fill:#a09b95"/><path d="M73.95 52.82h-.51c-.1-.26-.26-.46-.51-.54-.33-.15-.33-.31 0-.49.33-.15.82-.13.9.31l.1.72h.03Z" style="fill:#b9b4ae"/><path d="M72.95 52.31c-.74.15-.74-.64 0-.49z" class="cls-268"/><path d="M65.77 49.21v.51q-.195.42-.54 0c.13 2.03-2.69-.13-1.05-1.03.64-.1 1.08.28 1.56.49" style="fill:#6b635e"/><path d="M16.54 36.41c.36 0 .46.26.49.56-.44.1-1.38.15-1.56-.51-.15-.51.44-.59.56-.38.08.13.31.26.51.33" class="cls-160"/><path d="M56.28 18.39c.44-.18 3.26.79 3.13 1.31-.03.13-.28.31-.67.49l1.79 2.33c-.62 1.15.33 2.18 1 3.1l.21.69c-.67 1-1.38 2-2.15 2.97-.15-.85-.95-1.13-1.38-1.62l-1.18.15-1.72-3.44c-1.82-1.36-2.08-2.33-.79-2.85-1-.36-1.62-.87-1.9-1.59l3.69-1.56h-.03Z" style="fill:#625b58"/><path d="M52.59 19.95c.74.21 1.54.97 1.9 1.59-.26.44-.72 1.05-1.03.92-2.28-1.77-3.62-1.85-6.1-.92-.46.97-.92.95-1.36-.13l-2.28 1.18c0 .46-.13.44-.33 0-.54.64-1.05.92-1.21 0-1.03-.49-.38-1.1.51-1.46 1.59.08 4.95-2.59 9.95-1.15h-.05z" class="cls-246"/><path d="M42.64 21.1c-.33.44-.51.95-.51 1.46.85-.1.64.77.13 1.26-.38.69-.74.56-.72-.23-1.1 2.38-2.03 2.92-2.77 1.62.15-2.15 1.77-3.1 3.33-4.21l.56.1h-.03Z" style="fill:#56514e"/><path d="m37.15 23.05-.9-1.79c-1.41.18-2.67-.13-3.85.41.33-.44.38-1.26 1.05-1.51.46-.18 1-.15 1.62 0 1.36.28 2.38-.77 3.56-1.13l3.1-.97h.46c.46 0 1.05.95 1 1.26-.08.56-5.23 5-6.03 3.8v-.05h-.03Z" class="cls-252"/><path d="M42.1 21c-.69 1.49-1.79 2.9-3.33 4.21 0 1.33-.49 1.31-.95.05 0-.36-.92-.82-1.13-.54-.28.92-.49 1.74-1.26 2.03l-.05-.54 1.74-3.13 2.08-1.9c.28.41.79.82.97.62l.77-.9c.85-1 1.56-1.79 1.21-2.87.08-.33.77-.56 1.08-.36.23.15.28.67.1 1.28.67-.15 1.31-.51 1.95-.23L42.07 21z" class="cls-88"/><path d="m40.38 20 .41.26-.41.26-.26-.26z" class="cls-88"/><path d="M63.21 3.62c.67-.49.95-.26.51.49.67.54 1 .97 0 1.03 1.03.08 1.72.31 1.56 1.51h-2.05l-.56-.46c-.82-.28-1.08-1.18-.77-1.97l.82-.59h.51-.03Z" style="fill:#352c28"/><path d="M63.21 6.67h-.56v-.49c.21.08.41.33.56.49" class="cls-235"/><path d="M67.82 4.62c.9.31.21.74-.51 1.03v.62l-.51-.1c-.13-.03-.38-.05-.51 0-.44-.15-.44-.33 0-.51v-.51c.08-.33.13-.56.51-.51h.51c.15-.21.33-.21.51 0" style="fill:#9e9a91"/><path d="M66.28 5.64v.51c-.28.13-.72.49-1.03.49-.79-.21-1.59-.56-1.56-1.51l.13-.51c.74.36 1.21.21 1.44-.51.46-.56.79-.05 1.05 1.54h-.03Z" class="cls-235"/><path d="M69.36 4.1c0 1.08-1.08 1.62-2.08 1.54l.51-1.03c-.1-.26.08-.46.51-.56l1.05.05Z" style="fill:#babeb4"/><path d="M64.18 48.72c.08.79-.1 1.36.26 1.51.23.1.64-.38.79-.46l.54.51v.49c-.38.41-.38.59-.05.59h.97c.33.1.36.28.05.51l.49.97c.13.9-.54.87-2-.03l-.62-.46c.44-1.41-.92-2.15-1.92-3l1.51-.62h-.03v-.03Z" class="cls-35"/><path d="m67.31 3.59-.51 1.03-.51.51c-.54-.56-.95-1.51 0-1.54.13-.41.74-.36 1.03 0" class="cls-235"/><path d="M67.31 3.08h.51l-.51.51h-1.03c-.46-.15-.44-.31 0-.51z" class="cls-150"/><path d="m68.33 4.05-.51.56h-.51c.15-.41.59-.59 1.03-.56" class="cls-89"/><path d="M66.28 3.08v2.56L65.23 4.1c-1.05-.18-1.38-.54-1-1.03h2.05Z" style="fill:#322a24"/><path d="m64.23 3.08 1 1.03c-.15.44-.31.44-.49 0-.15.31-.33.28-.51 0-.15.46-.33.44-.51 0 0-.23-.28-.46-.51-.49.05-.13.15-.54-.33-.69l1.36.13v.03Z" style="fill:#49403b"/><path d="M64.69 26.67c.41.05 1.03.23 1.51.54l.13 2.95c-.21.72-.54 1.54-1 2.21-.64 2.54-1.18 2.8-1.64.72l-.44.28c.08 1.21-.85 1.08-.87-.15-1.13 1.46-2.87 2.51-5.23 3.13 1.46.62 2.87.69 4.21.23.74.08 1.41.31 1.38 1.03-.03 1.38-.62 3.56-2.23 2.41-.74-.36-1.41-.87-1.95-1.49l-.26.67c-2.41-.92-6.15.15-5.87 2.9.56.79.28 1.03-.54.41-.51.15-1.26.05-2.26-.23-.97 1.9-3.54 2-3.49-.15.92-.67 1.26-1.54 1.03-2.62.21 0 .85.13 1.18.03.23-.08.36-.46.23-.95.79-.38 1.31-.21 2.28-.26l-5.54-2.9-2.26-1.54c-.44-.15-1-.05-1.46 0l-.54-.51a.72.72 0 0 0-.46 0c-1 .15-1-.26-.05-.62 0-2.51 1.92-1.13 3.18.08 1.31.03 2.15.41 2.62 1.08.74.1.9.36.46.74.1 0 .28 0 .36-.03.36-1.97 2.46-2.31 6.31-1.05 1.77.1 3.49-.33 3.85-2.15l.74-.64c-2.15.56-2.26-3.9.05-3 .92-.85 1.28.67 1.38 1.62 1.31-.38 2.26-1.26 1.44-2.56l.51-1.1c-1.87.77-3.31-2.97-1-3.1.36.46.79.85 1.15 1.56.51 1.08 1.64.92 2.56.69-.26.72-.51 1.18-.46 1.56.05.46.64.28.9.31l.08-.08Z" class="cls-297"/><path d="m47.2 39.44 2.31 1.67c-1.03.87-2.18 1.03-3.31.95-.59.79-.9.54-.46-.41-.46-.44-.28-.62.54-.62-.44-.15-.44-.31 0-.51l-.51-.51c-.74.54-1 .26-.46-.51v-.95c.62.05 1.36.51 1.9.9Z" style="fill:#66615e"/><path d="M45.41 35.36c-.85-.44-1.87-.59-2.26-1.54.87.28 1.72.79 2.26 1.54m-3.72-1.56c-.28 0-.59-.15-.54-.51.23.08.44.28.54.51" class="cls-165"/><path d="M62.41 33.18c.59.38.82 1.31.26 1.77-.36.26-.9.26-1.31 1.18h2.56l-1.23 3.59.92.59c-.77-1.13-1.23-.13-.74.26l-.44-.54c-.67.51-1.44.46-2.21.51-.79-.38-.62-.72.31-.56.41 0 .9.15 1.67-.1-.62-.77-.62-1.49-.03-2.54-1.46.49-2.54.85-3.8.33-2.15-.87-3.8.23-6.36.67 3.03-2.49 6.74-4.03 10.36-5.15h.03Z" class="cls-259"/><path d="M51.79 32.46c.74-.59 1.87-.72 3.36-.41l2.23-.72c.31.44.38 1.26.1 1.64-.18.26-.9.36-1.26.59-2.8 1.82-5.38-1.46-8.97.95l.64.56c-.38-.44-.82 0-.36.41l-.64-.95c-.1.1-.49.1-.51 0-.03-.15 0-.59.05-.72.28-.67.9-1.69.87-2.64 1.28 1.08 3.21.77 4.51 1.26h-.03v.03Z" style="fill:#655f5c"/><path d="M58.59 38.46c.21.36.74.92.74 1.31 0 .59-.87.69-1.26.74-.46-.15-.44-.33 0-.59-.92.26-1.64.1-2.1-.44-.1.46-.28.44-.46 0l-1.05.56c.21.82-.85 1.56-1.46 1.9-.13.41-.31.44-.54.08-.46-.92-1.05-1.23-2.26-1.28 2.05-1.44 3.87-1.92 5.92-2.64.95-.33 1.82.36 2.46.38v-.03Z" style="fill:#746e6b"/><path d="M59.59 29.31c.15-.9-.03-1.74-.31-2.74 1.05-.28 1.69-.49 2.26-.95.9 1.26 1.38 2.72-.21 3.87 0 .69-.44.72-.72.62-.51-.15-.95-.41-1.03-.82" style="fill:#6a625e"/><path d="M54.05 42.03c.67-.33 1.15-.33 1.46 0l-1.15 1.05-1.28.31c-.85.21-.9-.51-1.18-.97l.54-.41c.1-.08.41-.1.54-.08.15-1.05.9-1 1.03.08h.05v.03Z" class="cls-69"/><path d="M41.79 38.49c.59.23 1.74-.21 2.44.49 2.28 1.56.1 1.59-1.54 1.03l-.51-.51c-.15.46-.33.44-.54 0l-.51-.36c-.13-.1-.56-.36-.46-.46.38-.33.92-.05 1.15-.21l-.03.03Z" style="fill:#bbb6b3"/><path d="M45.31 39.49c.1.21.26.38.46.51l.51.51v.51c-.72.26-2.08.13-2.56-.49-.92.05-1.85.15-2.67-.51.38.08.67-.21.59-.51h.54l.51.51 2.1-.08-.56-.95c.26.23.77.36 1.08.51v-.03Z" style="fill:#97908d"/><path d="M46.28 41.03c0 .28-.28.49-.54.62-.69-.62-1.54-.08-2.05-.05v-1.05c.9-.05 1.77.28 2.59.49Zm0-.52-.51-.51c.21.15.38.31.51.51" style="fill:#887f7e"/><path d="M53.92 44.64c.18-.15.36-.46.59-.54zm-.48.98c-.21-.05-.54-.44.03-.56-.05.15-.05.41-.03.56" class="cls-231"/><path d="M64.59 52.31c.62-.54.9-.33.62.46 1.31.33 2.56.85 3.15 2.15-.05-1.49 1.64-1.49 2-.05l1.03 1.03-8.23-.67-2.31-2 2.36-.77c.1-1.41.72-1.23 1.38-.18z" style="fill:#3b3633"/><path d="M64.05 53.57h.69-.33l-.69.03h.33z" class="cls-23"/><path d="M65.72 51.31c.1.28-.15.54-.28.41a.604.604 0 0 1-.18-.72c.1-.26.31-.33.51-.28z" class="cls-295"/><path d="m67.31 50.26.51.49h1.56c.1-.72.82-.74 1 0 0 .33.18.74.41.9.36.23.77.23 1.13.15-.1.08-.23.33-.26.49-.05.15.03.38.26.49 0 .15.05.41.03.49-.56-.13-1.05-.28-1.59-.03-.67.41-1.54.28-2.59-.36-.23.41-.41.38-.54-.08-1.08-.26-1.26-.56-.49-.97.26-.26.23-.41-.05-.49.05 1.03-.79 1-.97-.03-.44 0-.28-.31.05-.59-.46-.1-.44-.26 0-.49.23-.21.31-.36 0-.54-.46-.13-.46-.28-.03-.51.62.23 1.21.44 1.54 1.05h.03z" style="fill:#7b7570"/><path d="M70.36 53.26c.46.49.51 1.18.03 1.62l-2 .05c-.82-.46-1.33-1.31-.62-2.03.28-.54 1.18-.85 1.62-.46z" class="cls-35"/><path d="M70.39 50.77h-1c-.05-.36.05-.87.26-1.03.28-.21.62 0 .67.28l.1.74h-.03Z" style="fill:#bfbcb7"/><path d="M67.82 50.75c-.21 0-.41-.33-.51-.49z" style="fill:#beb9b3"/><path d="M65.77 50.26c-.26-.18-.23-.36 0-.54.54-.05.54.54 0 .54" style="fill:#a09c97"/><path d="m66.74 51.82-.05-.49c.46-.33.9.41.05.49" class="cls-295"/><path d="m68.08 51.28.26.26-.26.41-.26-.41z" class="cls-35"/><path d="M65.77 50.26c-.28 0-.46-.31-.54-.51h.56v.51h-.03Z" class="cls-295"/><path d="M65.36 32.33c-.31.51-.03 1.67.03 2.26-.03.33-.41.59-.54.85-.64 0-1.26-.1-1.79-.46-.28-.72-.21-1.26.23-1.64-.21-.54 0-1.28.92-1.54-.03.82-.13 1.31.28 2.1.26-.62.36-1.18.87-1.56Z" class="cls-259"/><path d="M63.05 34.98a.5.5 0 0 0-.38 0c-.41-.49-.41-1.08-.26-1.77.26.26.59.18.87.15l.33.92c.13.38-.13.74-.56.74v-.05Z" style="fill:#33312e"/><path d="m64.23 34.62.26-.26.26.26-.26.26z" class="cls-297"/><path d="M64.74 4.1h.49c.18.33.05 1-.26 1h-1.31v-1h.51c.18.31.33.28.51 0h.05Z" style="fill:#aca199"/><path d="m64.85 35.44.9.56c-.82 2.54-.33 4 1.44 4.38-.13-1.38.23-2.21 1.13-2.46.18-.44.36-.41.51.05-.03 1.59.87 3.62.13 5.21l-.77.46-5.21-1.08-.21.54c-.08.46-.26.49-.54.08-.49.59-.92.72-1.05-.1-.33-.05-.49-.41-.49-1.13-1.05.77-3.23 1.33-4.56 1.13-.95.56-1.51.54-1.74-.03-.69-.44-.31-.79 1.15-1.05.15-.46.31-.44.51 0l1.08-.44c.9-.54 1.72-1.1 2.51-1.67l.64.59c.62-.28 1.36-.44 2.21-.51.15-.05.23-.21.28-.31-.54-.31-.54-1 0-2l-.72-.95c-2.41.13-1.26-3.41.67-1.82.08-.49.21-.46.38 0 .92-.92 1.31-.69 1.79.46l-.05.08Z" class="cls-88"/><path d="M68.95 43.18c.26.59 1.18 1.33.49 2.03-.23.15-.44.28-.62.23-1.41-.36-4.38-1.26-5.67-1.72-.18-.05-.28-.31-.38-.62-.23-.38-.64-.56-1.15-.87 1.9-.67 3.15.21 4.8.49.82.13 1.85-.36 2.54.46Z" style="fill:#7b7270"/><path d="m68.74 34.87.1 1.03c-.72.44-.54 1.33-.51 2.03v3.74c-2-.13-3.44-1.28-4.44-2.46 1.26-1.31.54-2.72.97-3.77-.87-.9-.67-1.15.54-.85.05-.41.31-.92.67-1.08.23-.1.85.05 1.21.08.31-.49.26-1.13 1.03-1.49l.44 2.77Z" style="fill:#2f2c2a"/><path d="M60.54 39.98c-.15 0-.33.36-.31.56-1.1.08-2.1.72-3.13 1.08-.74-.49.23-1.23 1-1.08.46-.72.49-1.18.1-1.41l.38-.64h1.72c.46.03.44 1.05.23 1.49Z" style="fill:#6b6461"/><path d="M57.1 41.62c-.31.1-.64.44-1.08.44-.1-.79.69-1.15 1.08-.44" class="cls-69"/><path d="m61.15 43.13-1.05.46c.36-.72.49-1.05.56-1.59.38.21.54.72.49 1.13" class="cls-16"/><path d="M58.1 39.95c-.05.21-.05.41 0 .59-.54.08-.79.69-1 1.08-.31.05-.85.1-1.08.44h-1.97c-.41-1.18.36-1.51.97-.49 1.03-1.13 2.05-1.67 3.08-1.62" style="fill:#88807d"/><path d="M64.23 4.1h.51c.08.62-.59.62-.51 0" style="fill:#cfc8bf"/><path d="M45.26 27.18c-.26.41-.74.38-1.05 0l-.05-.56v-.44c.21-.13.67-.62.87-.46.41.33.28 1.13.23 1.46" style="fill:#9b9793"/><path d="M55.03 41.54c-.33.18-.79.08-.97.49l-1.03-.08c-.28-1.03.49-1.74 1.46-1.9l1.05-.56H56c1.56.08 1.23.74-.97 2.08" style="fill:#c1bdba"/><path d="m58.1 39.95-3.08 1.62c.23-.51.56-.92 1.51-1.23l-.54-.82c.69 0 1.69-.18 2.1.44Zm-2.56-.46c-.28.26-.67.49-1.05.56.15-.44.62-.62 1.05-.56" style="fill:#afa9a6"/><path d="M42.69 40a.65.65 0 0 1-.51-.51c.23.1.41.28.51.51" class="cls-174"/><path d="m67.23 52.82.54.08c.46.59.64 1.31.62 2.03-1.31.05-2.15-1.44-3.15-2.15h2v.05Z" class="cls-23"/><path d="m67.05 53.16.26.44-.26.26-.26-.26z" class="cls-35"/><path d="M46.2 26.1c-.56.54-.87-.31-.95-.97.05-.67.79-1.56 1.56-1.49l.92-.54.95-1.18.69 1.38c.13.23.62-.08.87-.59 1.13 1.21 1.79 2.21 3.31 2.67-1.95.97-2.15 4.26-5.23 3.64-1.26-.26-2.03-1.74-2.1-2.9" style="fill:#aca8a7"/><path d="m46.82 23.64-1.56 1.49h-.51l1.03-1.54 1.05-.51v.56Z" class="cls-246"/><path d="M47.69 25.82c-.44-.62 1.54-2.08 1.95-1.54l1.72 2.21c-1.03 1.18-2.46 1.64-3.62 1.38-.26-.56-.28-1.36-.18-1.67.15-.05.26-.23.15-.41h-.03v.03Z" style="fill:#bfbdbb"/><path d="M54.46 21.54c-.21 1.13 1.23 1.59 1.67 2.31.85 1.38 1.13 2.82 2.05 3.85-1.05.77-.54 2.08-.05 3l-2.38 1.26c-1.46-.05-2.77.1-3.95.49-1.23.82-4.8.95-4.51-1.26-.18.54-.31.82-.77.44l-.54.41c.13.49.08.97-.31 1.05-2.62.56-5.67-2.92-3.92-5.59-2.23-.69-2.31-2-.23-3.9.13-.05.51-.18.72.23.18-.62.33-1.18 1.08-1.23h.33c2.1-1.51 4.33-1.59 2.1 1 .62.28-.44 1.23-1.03 1.54h-.51l-.56.51.54.51c.44.13.41.28 0 .44-.05 1.13 1.62 3.59 2.74 3l.46-.38c2.51 2.08 5.41-1.26 6.26-3.56.28-.74-3.31-4.26-4.62-3.15-.59-1.03-.92-.21-1.26.62.54 1.26.08 1.46-.92.54-.44-.15-.44-.33 0-.56-.46-.59-.38-1.59.51-1.54 1.54-1.46 3.64-1.74 5.56-.41.51.33 1.05.46 1.59.41h-.05Z" style="fill:#7a7471"/><path d="M41.54 23.59c.05.79-.31 1.41-.85 1.79.23.41.85 1.13 1.18 1.08.23-.05.56-.41 1.13-1.05.36 2.82-1.69 3.85.05 6.03.38.49.72 1.13 1.46 1.08.44 0 1.08-.18 1.51-.49.03-.05-.1-.23-.38-.44.64.67.56-.28.59-.15l.33.18.77-.44c1.49.95.79 2.77-.87 2.64-2.85.18-3.51-2.46-5.8-1.15-.54.31-1.67.21-2.74.23.31-.62 1.1-.9.95-1.15l-.79-1.26c-.51-.82.95-1.72 2.21-1.72-.59-1.44-1.95-1.77-3.28-1.82.51-.46.92-1.05.85-1.72l.95-.05c1.77-.1 1.95-1.82 2.77-1.62l-.03.03Z" class="cls-44"/><path d="M58.13 30.69c-.05.38-.51.56-.74.64-1.41 1.64-3.54 1.87-5.59 1.13.15-.67.54-1.72.95-1.59l1.77.51c1.33.38 2.49-.51 3.62-.67" style="fill:#6f6a67"/><path d="M47.33 21.54c-.28.44-.46.97-.51 1.54-.18.51-.62.9-1.05.51.36-.51.77-1.13.33-2.13-.67.85-1.51 1.1-2.44 1.13.87-1.21 2.26-1.82 3.64-1.05zm-4 1.05c-.23.36-.38 1.23-1.08 1.23l-.13-1.26h1.21z" class="cls-44"/><path d="M46.9 29.62c-2.85.21-2.36-2.33-.69-3.51l1.08.28c.26 1.46 1.62 2.28 2.82 1.26 2.21-1.85 1.54-2.31-.41-3.36-2.08-1.13-1.46-1.92-1.36-1.79.85.95.74 1-.62.62 0-1.21.87-1.62 1.87-1.67 1.26-.08 1.62.56 2.54 1.51.69.72 1.85.97 1.92 1.97.15 2.33-2.59 5.95-5.9 6.21-.21-1.05-.79-1.23-1.26-1.51Z" style="fill:#a29e9c"/><path d="M44.23 25.64c-.18.36-.36.33-.56 0 .05-.33.21-.54.56-.54.23.15.23.33 0 .51" class="cls-44"/><path d="M46.2 26.1c-.33.44-.77 1.15-.62 1.82.13.56.74 1.36 1.31 1.69 0 .23.49.72-.13 1.49-1.26-1.36-2.28-1.64-3.69-2.05 1.41-.74.69-1.74 1.08-2.44.46.13.46.31.05.56.44.33.62.33 1.05 0-.41-.64-.74-.97-1.05-1-.33-.18-.33-.33 0-.54l.51-.51c.15-.23.33-.21.51 0l.95.97h.03Z" class="cls-44"/><path d="M44.2 26.18c-.33.13-.62-.15-.54-.51h.56v.51h-.03Zm.03-.54v-.51h.51c-.13.21-.31.38-.51.51" class="cls-237"/><path d="M45.26 27.18c-.03.21-.05.44-.28.54-.44.21-.72-.15-.77-.51h1.05z" style="fill:#5c5655"/></svg>