<?xml version="1.0" encoding="utf-8"?>
<!-- Generator: Adobe Illustrator 24.0.0, SVG Export Plug-In . SVG Version: 6.00 Build 0)  -->
<svg version="1.1" id="Layer_1" xmlns="http://www.w3.org/2000/svg" xmlns:xlink="http://www.w3.org/1999/xlink" x="0px" y="0px"
	 viewBox="0 0 256 256" style="fill:#FFF; enable-background:new 0 0 256 256;" xml:space="preserve">
<g>

  <!-- Para visualizar el nuevo marco -->
  <use href="#vintage-frame" fill-rule="evenodd" fill="#D2B48C" stroke="#4B3621" stroke-width="2"/>
	<path d="M150.07,125.22c14.78,7.94,19.35,17.52,15.94,33.15c-2.04,9.36-7.74,15.79-16.54,19.15c-4.3,1.64-8.97,2.37-13.52,3.22
		c-2.26,0.42-4.65,0.24-6.97,0.24c-12.46,0.02-24.92,0.01-37.73,0.01c0-35.66,0-71,0-107c4.41,0,8.84-0.09,13.27,0.02
		c11.63,0.27,23.35-0.16,34.87,1.14c16.33,1.85,24.89,12.09,24.92,27.72c0.02,8.69-3.62,15.37-10.85,20.13
		C152.37,123.73,151.28,124.43,150.07,125.22z M109.8,133.11c0,11.28,0,21.95,0,32.28c8.85,0,17.39,0.8,25.7-0.21
		c9.18-1.11,13.36-7.62,12.79-17.09c-0.55-9.12-5.48-14.41-14.77-14.89C125.76,132.79,117.95,133.11,109.8,133.11z M109.68,118.97
		c6.4,0,12.53,0.33,18.61-0.12c3.71-0.27,7.63-1.14,10.92-2.8c5.75-2.89,7.17-8.39,6.57-14.44c-0.56-5.65-3.31-10.39-9-11.19
		c-8.9-1.25-17.96-1.3-27.12-1.88C109.68,99.39,109.68,108.96,109.68,118.97z"/>
</g>
</svg>
