<svg xmlns="http://www.w3.org/2000/svg" viewBox="0 0 512 512"><path fill="white" d="M96 77.3c0-7.3 5.9-13.3 13.3-13.3c3.5 0 6.9 1.4 9.4 3.9l14.9 14.9C130 91.8 128 101.7 128 112c0 19.9 7.2 38 19.2 52c-5.3 9.2-4 21.1 3.8 29c9.4 9.4 24.6 9.4 33.9 0l83.3-83.3c9.4-9.4 9.4-24.6 0-33.9c-7.9-7.9-19.8-9.1-29-3.8C225.2 60 207 52.8 187.2 52.8c-10.3 0-20.2 2-29.2 5.6l-14.9-14.9C132.8 33 121.2 28.5 109.3 28.5C81.8 28.5 59.5 50.8 59.5 78.3V112h36.5V77.3zM256 224H32c-17.7 0-32 14.3-32 32s14.3 32 32 32V384c0 35.3 28.7 64 64 64H416c35.3 0 64-28.7 64-64V288c17.7 0 32-14.3 32-32s-14.3-32-32-32H256zM112 448v32c0 17.7-14.3 32-32 32s-32-14.3-32-32V448H112zm352 32c0 17.7-14.3 32-32 32s-32-14.3-32-32V448h64v32z"/></svg>