<svg xmlns="http://www.w3.org/2000/svg" id="Layer_1" data-name="Layer 1" viewBox="0 0 100 100"><defs><style>.cls-6{fill:#423a38}.cls-15{fill:#605855}.cls-17{fill:#9c9390}.cls-19{fill:#58504e}.cls-20{fill:#b5adaa}.cls-22{fill:#695f5d}.cls-23{fill:#5b5553}.cls-30{fill:#4c4441}.cls-35{fill:#584f4c}.cls-47{fill:#413a38}.cls-50{fill:#433e3b}.cls-54{fill:#5f5451}.cls-62{fill:#4a4442}.cls-64{fill:#a39996}.cls-75{fill:#554d4b}.cls-84{fill:#504946}.cls-90{fill:#5c5451}.cls-93{fill:#4e433f}.cls-96{fill:#25211e}.cls-97{fill:#443a37}.cls-98{fill:#4d4543}.cls-99{fill:#665b59}.cls-100{fill:#4a4340}.cls-102{fill:#625856}.cls-103{fill:#393634}.cls-104{fill:#928987}.cls-106{fill:#857c78}.cls-107{fill:#7c7370}.cls-109{fill:#837b77}.cls-115{fill:#2a2523}.cls-118{fill:#302a28}.cls-122{fill:#726a67}.cls-126{fill:#554b48}.cls-127{fill:#302b29}.cls-141{fill:#8c8280}.cls-144{fill:#35302e}.cls-146{fill:#7e7370}.cls-153{fill:#3d3332}.cls-159{fill:#514846}.cls-160{fill:#3f3a37}.cls-161{fill:#7c726e}.cls-166{fill:#625752}.cls-170{fill:#a39b98}.cls-172{fill:#454240}.cls-175{fill:#756967}.cls-177{fill:#342d2b}.cls-178{fill:#3c3431}.cls-181{fill:#867c78}.cls-184{fill:#564c4a}.cls-194{fill:#382f2d}.cls-196{fill:#36302e}.cls-198{fill:#776f6c}.cls-204{fill:#a39a96}.cls-209{fill:#807773}.cls-222{fill:#413734}.cls-223{fill:#4e4543}.cls-224{fill:#aba3a0}.cls-232{fill:#615755}.cls-234{fill:#3d3432}.cls-236{fill:#bcb4ae}.cls-237{fill:#908885}.cls-243{fill:#807673}</style></defs><g id="Layer_1-2" data-name="Layer 1-2"><path d="m73.43 55.07-6.15 1.94c-7.65 2.41-17.3 5.34-21.8 11.85-1.06 1.02-1.38.62-.73-.68-.56-2.21 3.41-5.09 5.36-6.37 1.77-1.17 5.87-3.7 7.55-2.65 2.96-1.72 6.38-3.01 10.26-3.86-.11-.92.54-1.12 1.95-.61 3.65-.98 4.84-.84 3.57.4Z" style="fill:#24201e"/><path d="M50.49 13.32c.12.83-.26 1.7-1.15 2.63l-.5.58c-.16.42-.54.78-1.13 1.09l-.06.52c.48.14.48.32.01.53-.71.42-1.22 1-1.54 1.72.77.34-.54 1.99-1.29 2.03.78.71.36 1.06-.56 1.44 1.1.5.58 1.78-.51 1.87q.615 2.535-.12 5.7a70 70 0 0 1-1.98 6.58c.2 1.93-.36 2.83-1.69 2.72-.49-.07-.35-.76.02-1.11.02-1.59.02-3.23 0-4.93.33-1.44.25-3.23 1.02-4.5.44.41.46.26.05-.45 1.16-3.96 2.49-8.2 4.96-11.57l1.13-1.11c.04-.16.02-.38 0-.55l1.1-1.1v-.55l.55-.56.56-.55.53-1.14c.2-.23.39-.21.57.05.5-.07.43.28.04.65Z" class="cls-47"/><path d="M13.57 96.43q.15-.735.63-.72c1.56-.9 3.08 1.17 3.8 2.34.19-1.14.74-1.22 1.66-.24 1.69-.03 3.3 0 4.84.07 1.47-1.34 2.87-2.75 4.02-4.37-1.02-.69-.61-1.77.48-2.08-.32-1.15-.28-2.07.1-2.76-.15-1.69.17-2.85.95-3.46l.13 6.76c0 2.83-2.54 5.63-5.07 7.02-3.94 2.17-9.13.73-11.54-2.54Z" class="cls-127"/><path d="M73.56 0c.48.16.48.35.01.58.23.62-.23.98-1.35 1.08-.98.98-2.59 1.35-4.84 1.11-.55 1.36-3.57 2.01-4.64 1.64-.91 1.76-3.98 2.6-5.81 2.08-.02.47-.19.48-.49.07.23.97.12 1.08-.61.4-1 .96-1.24 1.69-.74 2.19-.77 1.97-3.77 7.21-5.75 6.78.15-.95.61-1.82 1.15-2.63.36-.48.34-.69-.04-.65l-.57-.05 5.18-6.41c5.04-2.62 11-4.11 16.18-5.76l1.2-.44h1.1Z" class="cls-62"/><path d="m84.12 48.45.04.55c-1.54.79-2.91 1.71-4.09 2.76-.12.54-.99.95-1.52 1.1-.73-.48-.9-.47-.52.05-1.32 1.16-3.01 1.66-4.61 2.16.06-.33-.06-.59-.24-.62-.79-.12-12.12 2.96-15.53 4.69-1.08-.02-1.12-.45-.09-.81.17-.5.68-.66 1.19-.56q1.01-.63 0 0l-1.18-.05c-.48 1.28-.92 1.02-1.65.1-1.46-1.51.03-2.06 1.64-2.33l4.45-2.12c1.46-1.63 4.88-2.24 4.38.57.53.97 1.03.8.65.08-.43-.36-.87-.96-.61-1.29.18-.23 4.32-2.75 4.85-3.01 1.78-1.13 2.92-1.06 3.42.22.22.26.39.47.36.49-.95.81-2.03 1.38-3.16 1.9-.42.96.28.98 2.1.08 1.11-.81 1.92-1 2.45-.58-.31-1.61 2.63-2.62 3.78-1.7.38-2.03 2.38-3.11 3.89-1.69Z" class="cls-160"/><path d="M41.64 62.15c.94.18.65 3.58.52 4.9-1.15 2.7-.98 3.91.49 3.66l.09.85c-.56.31-.91.58-1.65.27-.46-.19-.76-.48-1.06-.9-1.24.79-1.48.32-.61-.84.17-1.55 0-3.09-.52-4.63-.53-.26-.48-.42.12-.49-.23-.29-.65-.33-1.28-.13.22 1.61-1.57 1.64-2.04.14l-.68-.6c-.36-.18-.35-.36.02-.55.39-1.2 1.26-1.4 2.62-.62l2.81-1.08c.76-.58 1.15-.57 1.16.03" style="fill:#1a1715"/><path d="M40.03 70.92c-4.49 3.96-8.4 8.49-9.99 14.26l-.95 3.46c-1.78-1.98-1.19-6.81 1.23-7.78-1.19-1.06 1.63-5 3.02-4.9.11-1.21.84-2.26 2.21-3.12.74-1.88 1.85-2.85 3.31-2.9.28-.42.47-.37.56.15l.61.84Z" style="fill:#2b2623"/><path d="M80.2 1.08c4.27.54 7.78 3.75 10.41 7.12 1.01.79 1.74 1.72 2.16 2.78.42.23.36.37-.14.43-.24.4-.57.6-1.01.55l-1.99-3.44c-.99.99-1.73.28-2.16-.8-1.16-.05-1.1-.51.11-.63-1.22-.53-1.86-1.23-1.91-2.11-1.27.71-3.24-.79-2.82-2.19-1.24.13-3.67.23-4.33-1.04-.39-.14-.37-.41-.02-.64-.48-.16-.47-.34 0-.55h.55l1.14.51Z" style="fill:#47423f"/><path d="m2.61 84.18.48.73c.49-.04.48.09.03.37l1.09 1.26c.87-.58 1.91.63 2.19 1.52.88-.42 1.08-.19.6.7 2.1-1.02 3.23-.9 3.39.37 2.46-.97 4.09 2.02 3.22 4.4l.55.55c1.59-.01 1.53 1.23.05 1.63 0 .26-.34.55-.63.72l.03-.7-.57-1.09c-.41-6.27-6.45-2.98-9.94-7.63l-1.07-1.73-.02-.43c-.31-1.32-.1-1.74.65-1.26.47.2.45.39-.03.6Z" class="cls-96"/><path d="m97.76 19.81.55 1.1v1.1a9.9 9.9 0 0 1 0 4.95v.55l-.54.55v1.1l-.56 1.1v.55l-.53 1.13c-.25 3.16-2.6 5.73-4.2 8.3-.98 1.09-1.33.72-.78-.63-.17-.58.11-1.3.84-2.18-.46-1.26 1.37-4.34 2.64-4.66l.7-2.29c-.4-.25-.37-.34.1-.28l.67-1.04c-.48-.16-.47-.34 0-.55l.55-1.1c-.48-.16-.47-.35 0-.55.07-.52.26-.89.55-1.09-.41-.63-.56-2.71 0-3.3l-.56-1.1c-.52-.12-.38-1.24 0-1.65-.5-.75-.27-1.01.55-.55v.55Z" style="fill:#2f2c2a"/><path d="M28.98 61.52c.29.33.09.91-.61 1.74-.07 1.08-.85 2.14-2.32 3.17.58.55.17.99-1.23 1.31-1.3 1.44-2.63 2.66-3.98 3.66-.81 1.14-1.57 1.57-2.29 1.27-1.49-.14.28-1.8 1.2-1.58.16-.34.2-.44-.08-.71 3.35-2.78 6.14-6.16 9.31-9.19.5-.02.48.09 0 .33" class="cls-144"/><path d="M32.28 54c.46-.02.47.11.05.38-.47 1-.94 2.05-1.42 3.15 1.14.19 2.21.26 3.18.21-.48-.73.37-1.14.97-.44.34-2.73 3.7-.86 3.58 1.51-.08 1.58-.4 2.88-1.93 1.73-.24-.54-.64-1.01-1.19-1.41-2.12.8-4.21 1.16-6.27 1.07l-.28-2.95c.49-1.54 1.64-2.72 2.74-3.87l.56.62Z" style="fill:#3f3734"/><path d="M36.72 60.54c-.75.78-.95.08-1.14-.77q-.495 2.325-1.41.24c-.1.26-.39.41-.89.44.02.49-.09.47-.32-.01-1.38.64-2.71 1-4 1.08.04-.08.02-.24 0-.33-.35-1.33-.41-2.64 0-3.94.46.56.59 1.24.66 2.43 2.41 0 4.57-.51 6.87-1.87.39.77.23 1.8.21 2.73Z" class="cls-96"/><path d="M19.75 71.09c-.72.16-1.22.89-1.2 1.58.3 1.15-.53 2.27-1.53.95-2.89 1.06-6.05 1.28-9.47.64-.48-.16-.47-.34 0-.55-.08-.2.11-.38.56-.56 3.88-.34 5.89 1.52 11.55-2.78.32.13.26.45.08.71" class="cls-144"/><path d="M90.13 44.03c-1.12 1.8-2.27 3.33-4.4 4.53-1.52.86-2.78 2.24-4.4 2.58l-.6.64h-.66c.02-.25-.39-.67.24-1.04l3.8-2.28c-.11-1.18.46-2.06 1.53-1.41.84-1.47 1.77-2.25 2.79-2.35.2-.89.57-1.3 1.09-1.23.8-.7 1.1-.4.6.57" style="fill:#302d2c"/><path d="M6.41 74.27c.63.46.05.98-.6 1.08-.78 1.03-1.04 1.85-.76 2.45l-1.42.16c.23 1.47.27 3.06.13 4.77l-1.11.86c-.46.28-.68.7-.65 1.26-1.77-4.26.4-8.97 4.41-11.11.52.15.52.32.01.53Z" class="cls-50"/><path d="M95.53 13.72c.15 1.6.67 3.27 1.57 5.03l-.45.52c-.83 1.35-.77-.58-.74-.5.27.76.39 1.63-.49 1.8-1.35.03-1.82-1.25-1.42-3.86l-.61-.3c-.14 1.23-.62 2.06-1.69 1.2-.04-.6.18-1.23.66-1.87-.32-1.47-.24-2.92.26-4.34.06-.17.08-.31.14-.43.21-.25.41-.22.6.06.92.65 1.64 1.73 2.16 2.68Z" class="cls-6"/><path d="M39.44 39.62c.16-.48.34-.47.55 0l-.02 1.11c.49.03.46.15-.03.37l-.95 2.42c1.27.39-.35 3.63-1.6 3.27-1.17 2.01-2.13 2.74-1.36-.12l2.78-7.15c.37.47.59.5.63.1" style="fill:#383533"/><path d="M37.39 46.79c.94 1.12-.25 4.71-1.76 4.97.05.94-1.87 2.41-2.71 1.53-.53 0-.74-.18-.64-.52 1.65-1.74 2.88-3.87 3.75-6.1.08.24-.33.82.28 1.31z" style="fill:#413a37"/><path d="M42.79 62.76c1.83.39 1.15 3.38-.2 4.27.62.74 1.34 1.12 2.15 1.15l.73.68c-.76 1.1-1.56 2.02-2.75 2.68-.72-.34-1.34-.59-1.66-1.05-.54-.77.67-2.09.66-2.72l-.1-5.63c-.15-1.76 2.03-1.22 1.15.61Z" style="fill:#2d2724"/><path d="m95.57 14.31.54.55v.55l.55.55v.55l.55.55v1.1l.54.55v.55l-.54.55c-.14.48-.31.48-.53.01-.49-.14-.49-.33-.02-.56-.1-2.41-2.62-4.63-1.12-5.55l.04.6Z" class="cls-103"/><path d="m92.49 40.25-2.35 3.78-.6-.57c-.19-1.11 1.15-3.28 2.18-3.85l.78.63Z" style="fill:#2c2a27"/><path d="M39.99 39.62h-.55c-.39-.17-.38-.35 0-.55-.39-.19-.42-.74-.08-1.66l.62-2.72c1.65.96.04 2.59 0 4.93Z" style="fill:#2f2c29"/><path d="m76.31 0 1.64.56h.56v.56c-.16.39-.34.39-.55 0q-1.935 2.115-2.28.06c-.55.61-1.86.19-2.11-.59V0h2.75Z" style="fill:#423d39"/><path d="m41.02 30.19.05-.45c.3 0 .5.14.59.33.19.37-.04 1.33-.36 1.27-.37-.38-.24-.96-.28-1.15" style="fill:#282421"/><path d="M39.45 39.07c-.17.48-.36.47-.57 0-.2-.67.39-1.19.5-1.65l.08 1.66Z" class="cls-47"/><path d="M39.44 39.62c.03.19.07.58 0 .83-.17.5-.68.18-.63-.02.09-.37.1-.64 0-.9.05-.12.1-.33.07-.46h.57v.56Z" style="fill:#221e1b"/><path d="M80.2 1.08c-.48-.06-.94.04-1.14-.51.45 0 .93.1 1.14.51" class="cls-23"/><path d="M7.55 73.71v.55c-.13.54-.96.68-1.14 0 .05-.12.02-.36-.01-.53H7z" style="fill:#282422"/><path d="M98.31 20.91c-.45-.17-.55-.65-.55-1.1.46.17.55.64.55 1.1" class="cls-103"/><path d="M3.08 87.01c-.37-.5-1.02-.81-1.07-1.73.61.38.96 1.01 1.07 1.73" class="cls-50"/><path d="M97.21 30.27c0-.45.1-.93.55-1.1 0 .46-.09.93-.55 1.1m-.53 1.68c.04-.45-.01-.95.53-1.13 0 .45-.1.93-.53 1.13" class="cls-103"/><path d="M13.6 95.73c-.43-.21-.55-.67-.57-1.09.47.17.59.63.57 1.09" class="cls-127"/><path d="M72.46 0c-.11.74-.87.33-1.2.44.27-.35.74-.44 1.2-.44" class="cls-122"/><path d="M78.56 52.86c-.17.05-.37.05-.52.05-.06.05-.62-.23-.57-.41s.54-.4.77-.23.34.34.32.6Z" style="fill:#272321"/><path d="M32.92 53.29c.22 1.04-.2 1.09-.62.07-.16.4-.36.4-.58.01l.57-.61.64.52Z" class="cls-115"/><path d="m93.37 11.04-.6-.06-2.16-2.78c1.11.74 2.08 1.69 2.76 2.84" class="cls-84"/><path d="m48.8 14.31.56-.55z" class="cls-62"/><path d="m48.26 14.86.54-.56z" class="cls-172"/><path d="M47.15 16.52c.18-.52.58-.92 1.1-1.1-.18.52-.57.92-1.1 1.1m-1.13 1.65c.34-.46.55-.92 1.13-1.11-.15.54-.59.95-1.13 1.11" class="cls-98"/><path d="M97.75 18.72c-.24-.06-.53-.3-.53-.55.24.08.53.29.53.55" class="cls-6"/><path d="M97.77 28.07c0-.26.29-.5.53-.55 0 .26-.28.48-.53.55" class="cls-103"/><path d="M80.73 51.78c.08-.24.33-.58.6-.64-.13.27-.34.49-.6.64" class="cls-160"/><path d="M55.92 57.84c.53-.56 1.17-.17 1.65-.1.45.18.44.39 0 .61l.09.81-7.5 3.81c-2.43 1.23-4.1 3.17-5.4 5.21-.58.92-1.81 1.97-2.92 2.46-.45-1.64.72-2.63.77-3.62 1.52-2.89 4.54-6.41 7.83-6.9-.93-.84 4.03-3.48 4.33-3.5 1.05-.08 1.33-.01 1.16 1.21Z" style="fill:#473f3d"/><path d="M49.94 17.03c2.89-.42-.09 3.94-1.6 2.8-.09-.44-.37-.83-.68-1.16v-.53l.6-.52c-.06-.57.23-.78.74-.6.27-.83.69-.87.95.01" class="cls-184"/><path d="M47.66 18.67c-.02.91-1.17 1.15-1.54 1.72-.14-.97.57-1.93 1.54-1.72" class="cls-98"/><path d="m50.49 13.32-.04-.65c-.16-.35.2-.62.35-.5.22.18.32.61.26.78-.07.21-.31.42-.58.37m-1.49 3.69c-.28.08-.52.42-.74.6h-.55c.07-.56.62-.88 1.13-1.09.5-.04.54.13.15.49" class="cls-172"/><path d="m47.64 18.13.07-.52h.55l-.61.52Z" class="cls-98"/><path d="M30.32 80.86c-1.44 2.34-1.7 5.01-1.23 7.78-.24.87.56 2.04-.1 2.76l-.89-.12c.07-1.74-.26-3.01-.96-3.83-.41-.65-.34-1.72.2-3.21-.21-.57.25-1.59.61-2.24.68-1.42 2.26-3.82 2.38-1.15" style="fill:#5d5452"/><path d="M28.99 91.41c.33.54-.32 1.53-.48 2.08q-.69 1.26-1.71 1.68h-1.09c-.13-1.08.42-1.99 1.15-2.78-.01-1.57.07-3.21.27-4.94 2.25-.39.35 1.48 1.86 3.95" style="fill:#6c6361"/><path d="m24.5 97.87 1.74-2.15c-.14-.53.05-.7.57-.54.5-.62.97-1.28 1.71-1.68-.55 1.91-2.41 3.26-4.02 4.37" class="cls-159"/><path d="M75.68 1.18c.77.64.61 1.06-.39 1l-.21.72c-.65-.31-1.16.03-1.54 1.02-.22.61-.95.58-2.18-.09-1.86 1.45-3.34 1.67-4.41.65-1.35-.79-.04-1.27 1.19-1.41.04 0-.62.17-.75-.29L73.58.59c.7-.25 1.69.02 2.11.59" class="cls-122"/><path d="M66.94 4.48c.16 1.33-1.8.78-2.7.38l-.92.68c-.25.19-.72.07-.66-.36l.08-.76 4.64-1.64c.63-.03 1.46-.5 1.99.37-.73.56-1.36.23-1.79.34-.31.09-.75.45-.63.99Z" style="fill:#988e8b"/><path d="M64.24 4.86c1.07-.06 1.05.38-.03.65.62 1.89-1.53 2.35-2.48.7-.07 0-.15.06-.22.12.15.21-.11.44-.78.68.61 1.55-2.47 2.25-3.12.79-.84.21-1.35 1.65-2.82.76.68-.34 1.02-.92 1.04-1.6l.61-.4c.83.48.99.46.49-.07l5.81-2.08 1.5.44Z" style="fill:#827876"/><path d="M56.44 6.57c.12-.02.35-.02.49-.07l1.11.22c.16.25-.27.76-.7.65-.41-.1-.86-.25-.89-.8" style="fill:#9b918f"/><path d="M73.5 29.96c.48-.09.48.03.03.32l.59 1.62c.5.22.73 1.53-.02 1.66.28.04.55.1.73.26.33.28-.39 7.34-.77 8.54.62.13 1.14.51 1.55 1.14 2.58-2.44 5.88-5.03 5.32.64.74.9.9 1.74.47 2.49.53.99.19 1.31-.72.64-.39 1-1.31 1.37-2.77 1.12.23 1.74-1.91 2.23-3.22 1.56-2.26-.07-3.91 1.33-5.66 2.8-.46.39-2.1.13-2 1.28-.05.96-.48.92-.65-.08-.43-.57-1.18-.86-1.96-.85-.62 0-1.31.97-1.98 1.29l-4.51 2.14c-.67.32-2.05.06-2.03 1.3-.17-.21-.62-.43-.76-.29l-.79.85-3.94 1.73c-5.11 2.37-4.3-2.64.07-3.78.45-1.52 2.35-2.6 4.02-2.45 4.62-3.08 10.19-5.75 15.51-7.48.28.62.71.75 1.28.37.13-.64.42-1.27.86-1.89l-.92-3.75c.77-.31.88-.86.7-1.59-.67-.32-.74-.74-.05-1.04l-.54-.56c-.65-.2-.72-.99.06-1.09-.69-.93-.11-2.29.66-3.25-.61-1.6-.75-3.11-.44-4.54-.73-.32-.69-1.17.24-1.07 0-3.05 1.72-.09 1.62 1.95Z" style="fill:#26211f"/><path d="M89.5 41.83c.04.83-.31 1.78-1.06 2.87-1.29 1.45-2.67 2.77-4.32 3.76-1.42-.01-2.84.79-3.89 1.69-1.52.31-1.54-.54-.2-1.17-.49-.45-.28-1.02.65-1.7.26-.1.52-.45.72-.64l1.05.64c.3-.88 1.84-2.93 2.73-1.99l.46.2c.32-1.28 2.52-4.93 3.85-3.66Z" style="fill:#494240"/><path d="M77.91 48.39c1.52-.4 2.23-.21 2.12.58l.2 1.17c-1.14.98-2.56 1.12-3.78 1.7l-1.08-.11c-1.51 1.12-2.67 1.32-3.46.61l2.79-2.39c.96-.75 2.16-1.13 3.22-1.56" style="fill:#4f4745"/><path d="M76.45 51.85c-2.37 1.14-4.55 2.83-7.52 2.29.63-1.66 1.86-1.52 2.98-1.79 1.28-.32 2.87-.54 3.85-1.77.55.13.74.82.69 1.27" style="fill:#605754"/><path d="m66.4 53.95.65.08c.39.02.78.26.86.85l-4.44 1.55c-1.17.41-2.02.35-2.57-.8 1.53.15 2.43-.79 3.52-1.35.51-.1 1.65.39 1.99-.34Z" style="fill:#554e4c"/><path d="M36.72 60.54c1.44.33 1.39.83-.03 1.22q.63.525 1.5.42c.27-1 .65-.86.71.19.79-1.35 1.31-1.44 1.57-.25-1.42 1.28-3.56 1.97-5.43 1.7l.54-4.05c.56-.18.86.56 1.14.77m2.3 4.42-1.28-.13c.2-.01.61-.25.84-.49.37-.38 1.22.15.45.62" class="cls-196"/><path d="M38.87 69.93c-1.53 2.18-3.42 4.3-5.52 6.03-1.54.22-1.1-.63-.27-1.67-1.27-.48-.33-1.82.81-1.13l1.73-2.84c-.49-.03-.48-.17-.02-.4.4-.16.94-.83 1.44-.87.62-.05 1.28.72 1.84.88Z" class="cls-19"/><path d="m33.34 75.96-3.02 4.9c-.42-.53-1.2-.31-1.46.09-.17.26-.87.71-.92 1.06-2.25-1.08 3.87-8.09 4.37-8.03.26.04.51.16.76.31-.37.56-.01 1.25.27 1.67" style="fill:#504846"/><path d="M85.67 4.98c-.23.58.41 1.29 1.91 2.11-.26.22-.18.5-.11.63.2.38.2.74.1 1.13-.36 1.38-2.03.42-2.65 1.41-.23.36.77 1.23.82 1.77l.41 5.06c-1.36-.59-2.44-3.86-2.13-5.51-.98.41-1.6-1.15-.6-1.63-.81-.48-.9-1.51-.29-3.09-1.58-.71-2.78-1.65-3.62-2.83-1-1.43-.2-1.87 2.38-1.33l.97.09c1.08.49 2.04 1.34 2.82 2.19Z" class="cls-90"/><path d="M87.59 7.09c-1.47-.31-2.57-1.21-2.48-1.82.03-.21.31-.43.57-.29z" class="cls-75"/><path d="M5.83 82.56c.49.12.49.3.03.54l3.34 1.63c.65.53 1.05 1.13 1.4 1.99.51-.81 1.55-.66 1.92-.96.17 1.26.34 2.3.95 3.31l-2.02-.85c-.49-.21-.95.37-1.07.91l-3.39-.37c-.11-.76-.31-.99-.6-.7-.99-.13-1.74-.73-2.19-1.52l-1.09-1.26-.03-.37-.48-.73.03-.6c.12-1.76 2.29-2.72 3.19-1.03Z" style="fill:#4e4643"/><path d="M3.09 84.91c-.2-.18-.49-.5-.48-.73.21.19.46.44.48.73m1.12 1.63c-.46-.32-1.05-.75-1.09-1.26.61.14 1.01.65 1.09 1.26" class="cls-50"/><path d="M7 88.76c-.4-.04-.8-.43-.6-.7.65-.88-.31-1.86-1.26-2.7 1.74-.74 2.88.24 4.15.28-.51.94-.53 1.5-.35 2.3-.92-.12-1.65.16-1.95.82Z" style="fill:#3b3531"/><path d="M96.1 23.13c1.47 1.74.27 5.1-.71 7.23l.5.13c.16 1.19-.15 2.46-.87 3.66l-3.31 5.47-2.18 3.85-1.09 1.23c0-1.09.54-1.97 1.06-2.87-.91-.4-.78-1.18.4-2.34l-.85-.31c-2.07.16-2.08-3.12.03-3.27-.29-1.29 0-2.12.88-2.47.9.42 1.72 0 2.47-1.25-1.48-.79-.59-2.24.91-2.46.47-1.38.82-2.96 1.05-4.75-.15-1.66.23-2.83 1.12-3.5.95-.76 1.07.8.59 1.64Z" class="cls-6"/><path d="M97.11 25.87c.47.27.42.66.11 1.09v.55l-.55 1.1v.55L96 30.2c-.02.09-.06.2-.1.28l-1.2 2.34-.57-.49 2.18-5.76-.18-3.44c.08-.68.29-.89.66-.61 1.02.22.98 2.7.35 3.36Z" class="cls-98"/><path d="m97.2 21.47.56 1.1v3.3c-.12.64-.43.63-.66 0 .23-1.22.18-2.28-.35-3.36-.8-.59-1.18-2.4-.08-2.68h.53z" class="cls-6"/><path d="M97.77 22.57c-.47-.17-.56-.64-.56-1.1.49.17.56.63.56 1.1m-.55 4.39c0-.32-.17-.78-.11-1.09h.66c0 .46-.08.92-.55 1.09m-.56 1.66c0-.47.07-.95.55-1.1 0 .46-.1.93-.55 1.1m-.67 1.59c.09-.42.31-.8.67-1.04l-.1.76c-.04.28-.24.46-.57.28" class="cls-103"/><path d="m34.19 60.47.36 4.5c-1.43 1.05-1.42.28-.65-1.16-1.11.08-.96-.61-.04-1.1-1.61-.39-3.32.67-5.13 3.2.39 1.85-1.37 3.3-2.93 1.92-.41.78-.9 1.6-1.72.95l-.57.55c-.18 1.56-1.67 4.4-3.3 3.34-.44-.32-.23-.74.64-1.27l7.53-8.14c.87-1.51 2.4-2.45 4.6-2.82h.32c.39-.21.69-.21.89.03" class="cls-109"/><path d="M32.97 60.45c-1.29 1.17-3.17.71-4.6 2.82l.61-1.74c1.31-.47 2.62-.95 4-1.08" class="cls-196"/><path d="M19.75 71.09a.9.9 0 0 1-.08-.71c.62-.06.69.63.08.71" style="fill:#211c1a"/><path d="M34.46 54.45c.33 0 .65-.09 1.09.26-.52.44-.84.93-.93 1.52-.15.49-.32.99-.52 1.52-.58.8-3 1.62-4.03.43-.91-1.06 1.19-3.51 2.26-3.8l2.12.07Z" style="fill:#5f5450"/><path d="M35.67 53.47c-.57-.32-.94.66-1.21.98-.63.74-1.14 2.21-2.68 2.12.54-.69 1.18-1.6.56-2.19-.07-.07-.06-.27-.05-.38-.42-.08-.34-.41.02-.63l.62-.07c.81-.64 1.69-1.22 2.71-1.53-.02.42.57 1.2.04 1.71" style="fill:#4f4542"/><path d="M35.07 57.3c-.23.08-.8.21-.97.44l-1.3-.07c.56-.78 1.12-1.14 1.81-1.45.2-.12.69-.07.71.19s-.11.59-.25.89" style="fill:#92837d"/><path d="M32.28 54c-.41.1-.68-.26-.56-.62h.58z" class="cls-115"/><path d="m17.02 73.63.07.63c.09 1.47-.16 1.56-1.31.63-1.34 1.74-4.39 1.22-6.18.2-1.05.58-1.55.49-1.49-.27.17.81-.1.92-.83.33l-.79.27c-.29.45-.49.44-.68-.07.27-.17.49-.79.6-1.08.32.01.85.1 1.13 0 2.14-.86 3.8.65 9.47-.64Z" style="fill:#625a57"/><path d="M6.61 80.98c.75-.02.66 1.47-.17 1.56-.19.4-.4.4-.61.02-1.14.24-2.2.42-3.19 1.03.05-1.89-.15-4.03.98-5.62 2.01.46 2.8.83 2.99 3.02Z" class="cls-209"/><path d="M6.49 75.42c.87.56.29.84-.61 1.03.59.49 1.28.93 2.05 1.32a29 29 0 0 0-1.32 3.2c-.5-.18-.76-1.16-1.09-1.41-.64 0-1.36.04-1.59-.31-.28-.45-.29-.89-.31-1.3.66-.93 1.16-2.03 2.19-2.61l.68.07Z" style="fill:#938b86"/><path d="m96.66 19.26.02.56c.03.77-.26 1.99.08 2.68l-.66.61c-.03-.64.12-1.34-.59-1.64-.05-.28.04-.64-.09-.92.08-.79-.06-1.68.38-2.43.35.66.55.95.85 1.13Z" style="fill:#514947"/><path d="M45.46 57.32c4.35-2.24 2.08 2.98-1.74 2.79 1.11 1.37 1 3.08-.94 2.65.11-.25.14-.96-.28-1.09-.23-.07-.58.48-.87.48l-1.16-.03c-.34-2.73 2.27-8.16 4.98-4.79Z" class="cls-222"/><path d="M71.31 46.79c.12.24.02.9-.21.98-.15.05-.73-.11-.9-.18-1.83-.78-3.19 1.43-4.45 1.68-3.23.63-10.01 3.93-12.68 5.92l-5.54 4.14c1.05.93 1.95.56 2.9.81l-4.86 4.46c-.92.85-1.44 2.33-2.97 2.44l.2-4.27c.2-.26.48-.64.56-.92.15-.61-.72-1.15-.85-1.51-.71-2 3.9-.87 4.71-3.13l-1.74.13c-1.39-.45-1.15-.94.32-.85 1.79-.79 2.68-1.19 2.68-1.19.13-2.93 2.56-3.83 5.41-2.9 2.85-2.01 5.92-3.7 9.15-5.04l.95.78c.06-.32.12-.53.03-.76-.31-1.75 4.49-3.68 5.64-2.36 1.4-1.3 2.8.21 1.68 1.77Z" style="fill:#342c29"/><path d="m58.75 57.78-1.19.56v-.61c.32.04.71-.47 1.19.05m0 0c.4-.81 1.31-1.49 2.38-1.42-.56 1.51-1.74 1.1-2.38 1.42" style="fill:#514a47"/><path d="M50.48 34.71c1.09.34 1.17.91.4 1.7 2.53 2.78 2.76 4.43.68 4.94l-1.11-.64c-.7 1.91-1.45 2.19-2.24.84-.79-.27-1.67-.34-2.63-.22l-1.2-1.13c-.06-.67.85-.24 1.85-.65.32-.13.49-.66.43-1.06-.84-.95-1.98-2.61-1.24-3.77.02-1.78 1.13-2.62 2.74-1.78 1.31-1.64 2.63-.61 1.85 1.29l.46.49Z" style="fill:#766c69"/><path d="M52.15 20.36c.88.02.9.94 0 1.1l-.62.57c.15.48.17 1.01.03 1.57.38 1.19.69 3.44.01 4.47-.07.43-.25.61-.56.55-.22.75-.48.78-.73.02-.32-1.16-.57-.87-.74.84.49.79.3.95-.55.52-.12 1.36-.79 1.06-1.21-.27-1.52-.3-1.84-2.16-1.22-3.39 2.41-.1.59-1.15 2.13-4.85.02-1.04.23-1.66 1.25-1.04 1.32-.91 2.05-.94 2.19-.1Z" class="cls-102"/><path d="M50.29 28.65c.24.28.48.26.73-.02.02-.2.36-.47.56-.55.84.72.7 2.88-.02 3.89-.7-.15-.72.2-.03 1.07q.84.81-1.05 1.68c-.57-.19-1.33 2.03-.83-2.28l-1.38 1.48c-.37.39-1.21-.24-1.41-.83-.56.77-.89 1.19-1.44 1.63-3.45-.29-.07-4.54 2.36-4.98.68.4.89.05 1.41-.49.47-.48.13-1.07-.87-1.44 1.05-.18 1.71-.58 2.59-1.42-.37.95-.55 1.45-.64 2.26Z" style="fill:#69605d"/><path d="M41.66 38.01c1.22-1.13 4.66-1.5 5 .48 2.27.99-.77 1.61-2.27 1.71.27.11.27.28.04.49.4 1.18-.28 1.42-1 .4l-.99.47c-.62 2.41-1.53 4.77-2.75 7.07.49.28 1.23.41 2.22.4.09-.16.21-.31.35-.43-1.04.26-1.11-.17-.1-.67.53-.12 1.25.08 2.15.59-.2-.86.11-1.06.99-1.16.34-.7.54-.76.6-.06l1.39.31c-.33-.47.42-1.33.79-1.41 1.72-.33 2.85 1.41.58.43-.09-.04-.08-.32-.04-.67-.79-.81-.36-1.3.69-.93l.53.61c.24-1.04.67-.97.86.11l.75.7c1.26-.81 2.06-.68 2.41.37.49.43.1.83-1.16 1.18-.88 1.46-3.92 1.98-5.57 1.68-.04 1.06-.45 1.81-1.23 2.23-1.61.77-2.69.53-3.94-.81-.35.27-.89.34-1.62.23.24.45.1.59-.4.44.35 3.13-3.76 5.17-4.29 1.72-1.18-.6-1.24-.95-.04-1.71.1-1.72 1.02-3.45 1.76-4.97l1.6-3.27.95-2.42c-.03-.1.03-.25.03-.37.98-.78.06-2.74 1.69-2.72Z" style="fill:#5a4e4b"/><path d="M38.99 43.52c-.23-.98.09-1.96.95-2.42.32 1.08-.63 1.77-.95 2.42" class="cls-47"/><path d="m43.44 41.09.7.28c-.29 1.27-.11 2.19.53 2.77-1.36 1.17-1.95 2.38-1.75 3.61l-.74.18.1.67c.02.15.07.31.18.4l.29.24.54.5c-.37-.49-.94.09-.31.45l-.57-.54-.27-.41a.7.7 0 0 0-.21-.21c-.28.52-1.06 1.08-1.59 1.29-.49.2-1.67-1.03-1.86-1.63l1.58-3.46c.72-1.58 1.42-2.19 1.47-3.96 0-.34 1.01-1.21 1.25-.94l.67.76Z" style="fill:#4f4543"/><path d="M45.92 51.88c1.38-.29 2.23.62 1.97 1.96-.07.34-5.07 2.81-5.95 3.22-.15.98-.61 1.11-1.56.67.31-.74-.04-1.74 1.01-2.48.48-.34.52-1.25.79-1.39-.21-1.02-.82-1.87-1.82-2.56.37-.4.94-1 1.55-1.03.57-.02 1.11.73 1.64 1.25.28-.19.99-1 1.41-.64.26.22.87.7.97 1Z" style="fill:#6a5a54"/><path d="M48.23 41.55c1.53.54 1.05 2.52-.52 2.56-2.04-.31-2.91-1.11-2.63-2.4l-.65-1.01-.04-.49c1.15.55 2.14.19 3.41-.69.71.19.56 1.39.43 2.04Z" style="fill:#9e928f"/><path d="M44.88 26.4c.21-.12.48-.34.61-.55.44.05.78.23 1.08.5 1.01.89.99 2.12 1.22 3.39l.36 2.05c.2 1.14-1.78.65-.73-.37-1.09-.18-1.33.25-1.93 1.28-.36.62-.88 1.22-.06 2.02.59.58 1.43 1.44 1.34 2.71-.01.18.34-.09.56-.07.26.03.55.59.16.76l-.82.37c-.15.11-.65.52-.86.48s-.09-.85-.37-.83c-1.6.15-2.75.53-3.78-.13-1.07-1.74-.09-3.47.51-5.2.81-2.34.37-5.05 1.58-7.09-.05.19-.04 1.05.31 1.21.22.1.6-.41.82-.54Z" class="cls-126"/><path d="M51.53 16.5c.32-1.1 1.21-1.09.94.09 1.37.12 1.4 1.23.09 1.47-.26 1.39-1.23 2.09-2.59 2.4-.41.38-.73.8-1.25 1.04l-.27-1.22-.09-.46c.97-.62 2.43-1.62 1.6-2.8.36-.55 1.21-.37 1.59-.53Z" class="cls-98"/><path d="M48.43 20.28c1.24-.32.97.4.27 1.22.87-.04.42 4.21.24 4.48-.93 1.38-1.3 1.75-2.37.37-.92 1.03-1.06.84-1.08-.5.05-.59.43-1.16 1.16-1.73-1.25.54-2.04.45-2.38-.27.11-.5.28-.99.56-1.44.58-.3 1.59-1.22 3.01-2.76l.59.62Z" class="cls-184"/><path d="M48.34 19.83c.5 0 .51.15.09.46-2.49.35-2.85 4.2-3.6 2.14l1.29-2.03c.2-.79.88-1.3 1.54-1.72 1.53-.43 1.81.03.68 1.16" style="fill:#6e6360"/><path d="m46.65 24.12-1.77 2.27c1.2 2.08-2.18 2.11-1.13-.67.32-.54.39-1.27.51-1.87.75-.09 1.89-.39 2.38.27Z" style="fill:#6e615e"/><path d="M45.49 25.85c.79.81.4 1.15-.61.55.1-1 .78-1.8 1.77-2.27-.23.73-.81 1.19-1.16 1.73Zm1.39-.53.28.28-.28.36-.28-.36z" class="cls-102"/><path d="M22.42 90.18c.2.67.17 1.86-.59 2.21 1.1.05 1.06.51-.06.68l-2.13-.17c-.48-.09-.47-.24 0-.45-.38-.4-.17-1.46.17-1.81.96-.97.4.76-.67 1.29-1.85.31-2.41-1.29-.75-2.71.14-1.65.58-2.59 1.32-2.81 1.59-.36 3.08 2.72 2.7 3.77" style="fill:#c7beb9"/><path d="M24.62 87.97c.88.03.8.35 0 .7.56.4.61 1.38.55 2.11.48.17.46.35-.02.54l-1.04 1.19v.5l-2.33.06c.03-.18.1-.48.06-.68-.01-.82.6-1.16 1.33-.79l-.27-1.86c-1.67-1.72-1.8-2.86-.4-3.4-1.31-.53-.75-1.49.55-1.06.72-.47 1.24.43 1.58 2.68Z" style="fill:#776e6a"/><path d="M23.56 84.77c.84.73.48 1.09-.53.52-.48.17-.6.56-.55 1.06-.82.99-1.96 1.19-2.76.06-1.24.51.04 3.24-2.22 4.11l1.64 1.41c.74-.78 1.06-.45.5.52v.45c-1.41-.11-3.07-.89-2.74-2.45 2.36-1.62.83-4.27 2.68-4.72.24-1.14.99-1.85 2.27-2.12.77-2.08 1.34-1.7 1.71 1.15Z" style="fill:#8e8681"/><path d="M9.19 84.18v.54c-1.3.13-2.72-.45-3.33-1.63.87-.28 2.71.49 3.33 1.09" class="cls-209"/><path d="M7.54 83.08c.55-1.19 1.19-.88 1.99-.07.31-.54.48-.64.71-.04.11.46-.02 1.01-.48 1.2h-.58l-3.33-1.08-.03-.54c.17-.04.45-.1.61-.02.57-.98.9-.46 1.1.54" class="cls-106"/><path d="M27.14 87.46c.23 2.23-.24 4.07-1.44 5.52l-.55.55c0-.21.02-.44-.05-.77-.04-.18-.18-.34-.49-.3-.28-.26-.1-.64.52-1.12l.02-.54c-.12-.8-.11-1.5.03-2.09-.06-2.52.66-4 2.15-4.44l-.2 3.21Z" class="cls-100"/><path d="M27.94 82.01c-.11.79-.06 1.47-.61 2.24-.88 1.23-.51 3.55-2.15 4.44-.18.48-.38.46-.58-.02v-.7c-.89-1.63-.53-3.43 1.09-5.42-.77-.74-.78-2.43.51-2.39 2 .56.04 5.05.65 1.81.09-.47.56-.39 1.08.05Z" style="fill:#3c3532"/><path d="m26.87 92.4-1.17.58 1.44-5.52c.15 1.66.91 3.66-.27 4.94" class="cls-223"/><path d="M53.29 20.33c.99 1.25 1.06 2.01.22 2.28.71 1.59 1.27 3.28 1.68 5.06-.53.28-.82.81-.87 1.58-.68.57-.51.7.51.38.37.31.45.84.07 1.17.39-.08.7-.13.74-.05 1.15 2.65 2.62 7.25 2.29 10.03 1.62-.39 1.88 2.78.35 3.24-.8.58-1.96-1.38-1.66-2.22-1.22-1.98-1.97-4.01-2.25-6.08-.97-.69-1.55-1.96-1.73-3.8-.41.05-.42-.32 0-1.11-.98-1.86-.87-4.97-.54-7.14-1.45-.23-1.02-.98.02-1.65l.04-.56v-1.1c-1.34.01-.56-1.46.53-1.09l.61 1.06Z" style="fill:#4d4341"/><path d="M58.17 18.73c1.05.34 1.28 1.55.72 3.62 1.57 2.09.32 2.97-1.85 2.41-.82-.52-.07-1.33.7-1.61-.29-.36-.44-.33-.75 0-.03.49-.18.48-.43.02-1.83-1.14-1.06-1.76.6-2.65-.63-.68-.55-1.55-.26-2.36.51.1.9.29 1.26.57Z" class="cls-104"/><path d="M66.98 10.42c-.13.49-.33.5-.59.04-.39.45-.76.24-1.11-.61-.3.68-.34 1.44-.1 2.28.98.49 1.59 3.91.17 4.33-.13.49-.33.5-.59.04.13-1.16-.06-2.26-.51-3.31-.85.13-.86-.41-.03-1.63-.68.55-.88.26-.56-.56-.52-.16-.51-.34 0-.55-.92-.31-.26-.91.54-1.13-.13-.63.54-.84 1.08-.54 1.33-.7 3.26.77 1.71 1.62Z" style="fill:#bab1ad"/><path d="M59.32 18.58c1.45.83 2.03 2.32.59 3.23l-.12 1.33c.75-.75 1.04-.46.56.53.67-.82 1.43-.51 1.08.55.61.74.13 1.6-.75.77-.2.63-.31 1.29-.33 1.95.6.76.28 1.06-.54.43-1 .12-1.96.27-2.46 1.28-.8-1.18-1.95-3.09-.32-3.9.98.21 1.19-.17 1.65-.9.37-.59-.24-.79-.28-1.52l-.24-3.6.69-.18c.13-.04.33-.01.46.04Z" class="cls-17"/><path d="M52.68 19.27c-.51.11-.53.62-.53 1.09l-2.19.1 2.59-2.4.13 1.2Z" class="cls-184"/><path d="M57.61 7.81c1.03.29 1.25.76.83 1.69.94-.07 1.56.26 1.87 1.01.49-.31.87.04 1.14 1.04.47.2.46.4-.02.61.07.39-.14.56-.53.51.81.55.41 1.22-.55 1.13-.63.43-1.37.79-2.21 1.08-2.57-.6-.07.75 1.11 0 .16-.48.34-.47.55 0 .17-.32.35-.31.55 0 .16-.46.35-.45.56 0 .38-2.5.98-3.33 3.33-1.68.97.28 1.02 2.49.51 3.31-.07 1.59-1.36 1.47-1.71-.02-.86.87-2.09 1.09-2.77.01l-.33 1.2c-.89-.14-1.26.14-1.09.84.23 1.04-.18 1.14-.69.18-.21.37-.62.18-1.26-.57.45 1.84-.75 2.57-3.62 2.18-.79.42-.93-.34-.61-1.06-.81.21-.86-.19-.13-1.2 1.52-.58.72-1.31-1.02-1.57.21 1.53-.64 1.45-1.59.53-.29-.04-.68-.09-.95-.01l-.15-.49.5-.58c2.46-1.12 3.15-6.79 6.49-8.97l1.78.84Z" class="cls-22"/><path d="M48.84 16.53c.2-.08.37-.44.5-.58.64.6.36.86-.5.58" class="cls-98"/><path d="M62.03 8.79q.81.675-.57 1.14c-.21.94-.39 1.35-1.14.57-.87.44-3.03.09-3.69-.75.67-.65 1.33-1.42.98-1.94l3.12-.79c2.43-1.63 4.43.88 1.3 1.77" style="fill:#564e4c"/><path d="M63.12 11.56h1.1c-.01.47-.15 1.21.03 1.64-.84.56-1.03 1.37-1.52 2.28-.2-1.22.09-2.08-.55-2.87-.13 1.18-.48 2-1.26 2.27-.35-.28-.78-.66-.57-1.08.05-.45.25-.84.55-1.13.44 0 .48-.06.53-.51l.02-.61c-.1-1.25 1.45-1.13 1.66.02Z" style="fill:#9e9592"/><path d="m57.17 20.52-.84.59c-.7 2.14-2.57 1.24-3.03-.77-.09-.37.67-1.17 1.01-1.4.29-.2 1.03.21 1.31.92.66-.48.86-1.16 1.3-1.7.58.72 1.06 1.78.26 2.36" style="fill:#766c6a"/><path d="M60.28 16.5c1.55-.06 1.53.75.13 1.32l-.23.37c.51-1.28 1.28-1.56 1.3-.11 1.23.63.7 1.43-.58 1.14-.03.92-.56.71-1.57-.63-.11.45-.27.42-.46-.04-.54-.64-1.28-.73-2.45-1.18l3.87-.86Z" class="cls-104"/><path d="M52.55 18.07c.48-.26.61-.87.34-.98l-1.36-.58c.18-.36.2-1.18.56-1.44a1.32 1.32 0 0 1 1.72.14l-1.3 1.06c-.12.1.63.67 1.07 0 .39.17.4 1.16.14 1.61-.23.4-.92.16-1.17.2Z" class="cls-159"/><path d="M58.14 14.87c.47-.47.93-.7 1.11 0-.6 1.01-1.26.95-2.23.53-.78-.34-1.23-.33-1.6-1.58 1.33-.34 2.16.18 2.72 1.05" style="fill:#8e8382"/><path d="M60.35 13.8c.42.17.6.62.57 1.08-.16.05-.41-.01-.56 0-.18-.32-.35-.3-.55 0h-1.66c.29-.91 1.3-1.23 2.21-1.07" class="cls-170"/><path d="M61.46 11.54c-.53 0-.95-.59-1.14-1.04l1.14-.57c1.42.2 1.53 1.19 0 1.61" style="fill:#a79e9c"/><path d="m60.9 12.66.53-.51c.22.2.24 1.16-.53.51" class="cls-170"/><path d="m57.61 12.39.27-.27.27.27-.27.27z" style="fill:#867c7b"/><path d="M60.36 14.86h-.55c-.09-.65.64-.65.55 0" style="fill:#c3bab6"/><path d="M71.35 3.83c1 .03 1.05.43.05.7.28.25.48.47.43.6-.76 2.02-6.66 3.52-8.64 3.76-.45.66-.98.73-1.16-.1.51-.5.7-1 .28-1.6-.5-.73-.81-.36-1.58-.17l.78-.68-.43-.23c-.17-.31.21-.2.18-.62l.47.72c.88.04 1.8-.09 2.48-.7.89-.2 1.8-.55 2.73-1.04 2.34-.23 3.39-1.85 4.41-.65Z" style="fill:#5e5654"/><path d="m73.53 3.91.06.58c.8.83.48 1.13-.56.56-.85.57-1.16.31-1.63-.52l-.05-.7 2.18.09Z" style="fill:#9a918f"/><path d="M66.94 4.48c.04.37.23.77.01 1.52l-2.74-.48.03-.65c.84-.62 1.74.14 2.7-.38Z" style="fill:#736b68"/><path d="M86.76 31.37c.72.88.72 2.2 0 3.95-.27.14-.3.21-.22.39.26.63.91.66 1.26-.02l.4-.78c.16-.31.85-.23.84.06l.04.96c-.46.92-.56 2.21-.03 3.27.48 1.77-2.45 5.36-4.07 4.79-.78 1.07-1.62 2.18-2.53 3.31-.46-.08-.75-.39-1.05-.64-1.66-1.39-2.08-3.01-1.21-5.46-1.36 1.51-2.86 2.13-4.59 2.33-1.35-.83.59-4.23 1.98-3.93.37-1.27 2.16-3.08 3.38-2.06 1.66-1.98 3.05-2.55 4.16-1.69.13-1.7 0-3.56-.4-5.57l.38-.53c.45-.51.95-.79 1.64-.55.97-.03.74 1.64 0 2.2Z" class="cls-118"/><path d="M80.98 37.52c-1.82 1.77-4.66 3.19-5.37 5.99l-1.36 1.12-.19-2.26c.53-2.76.79-5.56.79-8.4l.62-.58c-.56-.88 3.05-3.7 3.44-3.73.79-.06 1.8 3.78-.39 3.58-1.57 1.91-1.44 2.46.38 1.65l.56.54c3.59-2.24 5.7-.06 1.52 2.09" style="fill:#39302d"/><path d="m71.95 39.57 1.2 4.36c.19.7.17 1.53-.36 2.25-.27.37-.86.13-1.49.61-.31-.85-.85-1.37-1.68-1.77-2.19.82-1.42-2.83-.39-3.95-.85.09-1.49-.02-1.92-.34-1.76-1.9-2.84-3.42.72-3.32.67-.89 1.12-1.27 2.23-.55l.55.17c.64 2.78 1.02 3.63 1.14 2.54" style="fill:#3b322f"/><path d="m71.88 28.01-.24 1.07c.84 1.77-1.57 1.68-2.54.4.04.51-.11.49-.42.02-1.57.4-2.29-1.53-1.02-2.45-1.58-.22-1.5-.4-.18-1.17.87-1.01 1.16-.96 1.82.14.28-.66.19-1.22-.24-1.8-.83.76-1.13.37-.4-.54.39-1.24-.01-2.34-.8-3.34-1.39.51-1.85-5.32-1.65-5.57.17-.2.41-.34.67-.47.29-.13.52-.23.54-.19 1.62 2.37 4.2 10.26 5.04 13.32.04.13-.23.34-.58.58" class="cls-234"/><path d="M69.6 17.01c.52.14.54.34.07.59.44 1.15 1.05 1.74 1.81 1.77.67 1.24.6 2.14-.19 2.7.52.07.53.24.05.51l.58.53c.94-.05.85 1.41.58 2.24 1.09.16 2.15 2.71 1.09 3.74.81.33.79.73-.08.87-.5-.59-.63-1.36-.48-2.44l-1.14.48-3.13-9.4-1.88-4.3c-1.47.39-1.6-3.59.09-2.74.59.72 2.73 3.87 3.03 4.74.06.17-.13.42-.39.69Zm2.04 12.07c.45.31.95.87 1 1.66l.32 4.37c-.68-.14-1.2-.11-1.34.21-.16.38-.19 1.23-.21 1.56-.18.48-.39.47-.61 0-.48-.19-.39-.86.05-1.1-.5-.16-.48-.85-.02-1.1-.04-.72-.24-1.27-.58-1.65-.48-.17-.47-.35 0-.56l-.54-.54c-.87-.25-1.08-.99-.01-1.1l-.55-.55c-.43-.14-.34-.43-.05-.78.35-.12.58-.04 1.14.2-.31-1.22-.78-2.02-.31-3.34.52 1.06.73 2.03 1.01 3.22.42-.06.55-.28.7-.48Z" class="cls-178"/><path d="M83.17 27.91c.57.86 1.21 4.05-.11 3.5-.56 1.52-1.37 2.41-2.43 2.68q-1.14.19 0 0c1.09-.54 1.83-1.41 2.2-2.61 1-.45 1.58.15 1.72 1.78.91.01.9 1.8.59 2.56-1.39.43-2.41 1.6-4.16 1.69.51-.5 1.33-1.72 1.36-2.82-1.6.81-2.88 1.15-4.48 1.71-.75.26-.84 2.33-.56 3.19-1.04-.76-.6-1.98-.74-3.16s-.55-2.46.71-3.13c.42-.23 1.47-.64 1.5-1.12.04-.66-.13-1.8-.93-1.82-.26.91.01 1.49-.25 1.63l-1.62.85c-1.23 3.24-.18 7.35-1.93 9.53l.04-8.8c.09-.82.32-1.48.69-1.97.13-1.11.41-1.66 1.5-1.86-2.2-1.44 1.97-4.47 3.64-4.95 2.05-.59 4.07 1.33 3.24 3.12Z" class="cls-97"/><path d="M74.67 29.1c1.76.02 1.43 1.63.12 2.5-.12.6-.02 1.22.47 1.82-.62.28-.9.16-1.16.15l.02-1.66-.59-1.62-.03-.32.08-.87c.18-1.46.68-1.39 1.09 0" class="cls-99"/><path d="m71.42 36.87-.06 1.09.54.56c.02.27-.02.77.05 1.04-.02.25.16.7-.34 1.17l-1.34-3.88c.16-.48.34-.46.54.01h.61Z" class="cls-126"/><path d="m80.04 48.98-2.12-.58 2.77-1.12c.12.65-.1 1.31-.65 1.7" class="cls-160"/><path d="M74.12 31.91c-.59-.31-.53-1.03-.59-1.62.67.23.59 1.02.59 1.62m-2.22 6.62c-.27-.04-.55-.29-.54-.56.21.06.52.32.54.56" class="cls-178"/><path d="M89.5 41.83c-2 1.03-2.9 3.27-4.26 5.36-.97-.79-.14-1.45-.05-1.9-1.25.02-1.02-.6-.21-1.32 1.96-.95 2.59-3.44 4.07-4.79.93-.85 1.64-1.88 3.34-2.29l-2.9 4.93Z" style="fill:#534b49"/><path d="M84.98 43.97c.11.43.28.94.21 1.32-1.4.34-1.4 2.22-2.73 1.99-.12-.18-.59-.56-.62-.79.05.33 1.22-1.58 3.15-2.52Z" style="fill:#3e3835"/><path d="m35.59 69.92.02.4-1.73 2.84c-.53.18-.64.76-.81 1.13-2.12 1.78-4.32 5.12-5.13 7.72-1.13.31-.26 1.42-1.42 1.94-.43-1.17-.05-2.52-.31-3.79-.22-.24-.38-.45-.33-.57 1.22-2.67 4.62-6.45 6.88-8.15 1.47-.63 2.15-2 3.46-3.64.88 1.17-.43 1.62-.62 2.12Z" style="fill:#362f2d"/><path d="M32.77 71v.45c-.05 1.31-1.36 1.79-2.1 2.78l-4.46 5.93c-.56.74-.61 1.46-.51 2.39-.18.47-.37.46-.56-.02-.99.55-1.04-.95-.55-1.69-.88-1.75.77-5.44 2.86-4.93l3.28-3.78c.65-.76 1.12-1.31 2.04-1.12Z" style="fill:#605753"/><path d="M35.59 59.77c.65.87 1.19 4.09-.54 4.05l-.02.55.68.6 2.04-.14c.71-.3 1.14-.26 1.28.13-.12.07-.19.3-.12.49.79 2 .78 3.49-.04 4.48-.94.61-2.04.6-3.27 0l-.27-.3c1.11-1.65-1.51 3.01-2.57 1.82-.48-.11-.46-.26.01-.45l-.67-.55c.9-1.67 1.74-3.3 2.51-4.89-.5-.12-.51-.31-.06-.58l-.64-3.13c-1.25-.24-.84-.89.28-1.37-.45-.09-.45-.24 0-.46.41-.05.97-.02 1.41-.24Z" class="cls-30"/><path d="m39.42 70.08-.56-.15c1.41-2.01-1.3-3.9.04-4.48.89 1.58 1.43 2.97.52 4.63m-3.72-5.11c-.36.02-.69-.23-.68-.6.27.14.5.35.68.6m-1.51-4.5-.89-.02c.24-.18.57-.4.89-.44z" class="cls-196"/><path d="m38.08 68.22.28.28-.28.37-.28-.37z" class="cls-19"/><path d="M33.88 73.16c.24-1.21.5-2.36 1.73-2.84.05 1.15-.57 2.45-1.73 2.84" class="cls-30"/><path d="M91.43 18.29c-.41 1.22-1.46 1.95-3.05 2.09-.24.97-.1 1.91.41 2.4l2.38 2.59c-.67.39-.97 2.05-.82 2.92-.59.75-1.07.95-1.85 1.32-.05-.77-.24-1.26-.57-1.71-.82-.09-.72-.43-.08-.94l-.61-.24c-.15-2.51-.29-5.02-.41-7.52-.47-.06-.44-.24.01-.51l1.42-.46c-.29-1.59 1.52-1.67 2.37-.67.27.31.52.54.81.73Z" class="cls-6"/><path d="M86.16 17.09c.1.27.08.78.04 1.07.64.61.33.95-.54.55h-.62l-1.59-4.95c-.71-.6-1.09-1.01 0-1.1-.68-1.02-.62-1.74.57-1.09l2.13 5.51Z" style="fill:#8f8582"/><path d="M86.84 18.69c.04.16.03.35-.01.51.59 1.05.26 1.35-.67.59-.81.67-1.2-.45-.5-1.08.28-.05.5-.27.54-.55.31.04.58.23.64.53" class="cls-243"/><path d="M89.63 8.51c2.1 2.12 2.65 4.03 1.63 5.72-.18.5-.86.48-1.2.09-.38-.09-.38.09 0 .55.1-.48.99-.44 1.29-.02.85-.67 1.26-.18.69.75-1.48.72-2.74 1.59-3.78 2.63.57 1.43-.65 1.77-1.42.46-.57.4-.8.15-.64-.53-.69-.37-.76-.79-.04-1.07l-1.12-4.93c-1.28-2.01-1.09-2.89.55-2.65q.6-.93 1.89-1.8c.93-.28 1.55.21 2.16.8Z" class="cls-75"/><path d="M92.63 11.4c.75.72 1.32 1.7 1.87 2.89-.75.1-1.06-.14-1.62-.34.16 1.52-.33 2.63-1.17 3.65.98.39.79.81-.28.68-.83.79-1.2.39-.81-.73-.78-.81-.31-1.46 1.41-1.96-.41-.22-.58-.54-.69-.75-.55-.09-.57-.3-.09-.62-1.02-.77-.18-2.11-.61-3.12l-1.02-2.6 3 2.89Z" class="cls-84"/><path d="M92.04 15.6c-.36.74-.92 1.35-1.41 1.96s-1.7.45-2.37.67c-.2-.73-.26-1.58.03-2.34z" class="cls-166"/><path d="M90.06 14.32c.48.16.47.34 0 .55a.47.47 0 0 1-.55-.27c-.06-.16-.24-.45.23-.79.13-.1.46.2.31.52Z" class="cls-84"/><path d="M91.27 14.23c0 .18 0 .45.09.62l-1.29.02v-.55z" class="cls-166"/><path d="m87.86 10.19.27-.27.27.27-.27.27z" class="cls-90"/><path d="m89.51 11.29.27-.27.27.27-.27.27z" class="cls-84"/><path d="M79.51 4.03c1.2-.27 1.97.55 3.17 1.25l1.53.9c.39.23-.34 1.44-.09 1.83.2.32 1.01.32 1.23.31.38-.02.51 1.13-.21 1.08-.42-.03-1.05-.58-1.31-.5s-.44.79-.41 1.03c-.78 1.41-3.75-1.36-4.37-2.85-.11.84-.93.9-1.19.07-.72.96-2.02.13-1.58-1.04.5-1.29 1.99-1.7 3.22-2.1Z" style="fill:#524c49"/><path d="M76.29 6.13c.45.31 1.23.71 1.58 1.04.47.23.84.37 1.19-.07 2.23-.08 2.68 2.67 4.37 2.85 0 .62.39 1.09.6 1.63-.47.12-.57.61-.57 1.09l-.78.3c-.42-1.07-.7-1.36-.84-.85-.13.49-.32.49-.56.03-.55-2.07-2.54-3.06-4.63-2.66-1.49-.39-2.52-1.05-3.06-1.99-.31.57-.53.28-.55-.39-.89.66-1.33.51-1.3-.43-1.32-.8.16-2.16 1.3-1.63.13-.15.52-.24.56-.56.16-.06.38.04.47.1l2.24 1.54Z" class="cls-15"/><path d="M33.85 62.71c-.53 1.05-1.55 2.22-2.82 2.18.46.18.43.34-.07.5.17 1.56-2.05 3.15-3.23 3.44-.18.45-.3.37-.37-.15-1.43 1.09-1.98.93-1.66-.48-.38-.09-.33-.22.09-.37.42 0 1.08.51 1.57.15.44-.33 1.08-.89.9-1.38-.67.45-1.02.53-1.71.56-.27.01-.43-.78.35-.47 2.75-4.19 6.84-6.49 6.95-3.97" class="cls-204"/><path d="m33.85 62.71.04 1.1c-.43.64-1.01 1.14-1.51 1.71-.4.27-.98-.28-1.35-.64.9-.82 1.53-2.12 2.82-2.18" style="fill:#c0b9b4"/><path d="M39.96 51.75c.98-.18 2.92 1.17 2.21 2.12.8.56.52 1.29-.83 2.18l-.98 1.69c1.57.51-.04 4.37-1.47 4.64-.2.03-.53-.11-.71-.19-.45.41-1.22.07-1.5-.42l.03-1.22c1.14-.35.84-1.47.77-2.18-.13-1.2-1.4-1.61-2.42-1.06-.42-.13-.57-.5-.45-1.08-.29-.16-.5-.3-.48-.39.48-2.2 1.37-.38.54-.67-.14-.05-.18-.35-.21-.71-1.24-.89.44-2.3 1.21-.98.5.28.9.55 1.34.61.78.11 1.58-.14 1.7-1.05.07-.52.23-.97.53-1.17.18-.12.51-.14.72-.12" style="fill:#73655e"/><path d="M42.18 53.87c-.58-.89-1.41-1.51-2.21-2.12l.4-.44c1.54.13 3.08 1.9 2.71 2.09l-.89.47Z" style="fill:#8d7e78"/><path d="M38.2 62.18c-.03.6-.66.79-1.2.52-.36-.18-.31-.57-.3-.94.56-.2 1.18-.09 1.5.42" style="fill:#8c7b74"/><path d="M38.89 55.83s-2.25 1.05-2.47 1.03c-1.54-.13.02-.98 2.24-2.4.39.46.35 1.15.23 1.38" style="fill:#ac9e96"/><path d="M39.14 54.1c0-.18.69-.32 1.11-.19.17.06.29.34.09.53-.13.13-.42.51-.6.53s-.63-.37-.6-.87" style="fill:#92827c"/><path d="M8.11 74.82c1.96.26 3.79.72 4.94 2.11.74.68.5 1.03-.48.71l-.74 1.03q-4.275-1.335-3.15 3.66l-1.14.76-1.1-.54.17-1.56c.1-.9.02-1.79.49-2.82-.81-.47-1.33-.57-2.34-.77l1.11-.93c.94-.42 1.14-.77.61-1.03.4-.55.97-.61 1.62-.61Z" style="fill:#a9a39e"/><path d="m15.78 74.89-1.01 2.1c.01 1.35-.47.77-1.18-.08-.14.48-.32.48-.54.02-.66.02-1.91.35-2.34-.34l-.74-1.2c-.18-.3-1.3.28-1.58 1.28-.53-.54-.33-1.23-.28-1.84l7.67.07Z" style="fill:#938985"/><path d="m5.88 76.45.61-1.03c.13-.23.6-.08.83-.05.36.05.71.67.15.98-.51.27-1.2.14-1.58.1" style="fill:#bfb9b2"/><path d="M91.18 25.37c-2.68.95-3.72-3.43-3.49-5.63.02-.2 3.21-1.35 3.75-1.45.07-.2.15-.52.28-.68.58-.33 1.23-.68 1.69-1.2.52 1.88-.87 3.64-1.08 5.56-.17 1.58.06 2.69-1.15 3.4" style="fill:#3a3230"/><path d="M89.23 20.91v1.36l-.02-.45v-.91Z" class="cls-6"/><path d="M69.24 41.07c1.15 1.01-.61 3.47.39 3.95l-5.64 2.36.71.67c-.12-.04-.13.58-.59.1 0-.18-.19-.18-.15-.01-1.66.79-3.61 1.25-4.77 2.92-.29-.28-.61-.71-.82-.75.51.09-2.76 1.74-4.17 3.57-1.48-1.31-3.88-.82-4.92.56.26.49 1.1 1.29.87 1.57-1.37.56-2.15.53-2.95-.31l-1.41.77c.84-1.88 1.61-.45 2.76-1.99.18-.24-.82-.84-.74-1.13.29-1.02.97-2.16.77-3.14-.49.17-.79.12-.94.06-.24-.09-.42-.36-.48-.63 1.64-1.24 3.51-1.81 5.57-1.68 1.19-.89 2.19-1.18 3.01-.87 1.33-1.26 2.68-1 4.05.77-.34-1.1.08-1.29.75-.36.83-2.84 2.02-4.18 3.58-4.04 1.17-2.02 2.72-2.87 5.12-2.41Z" class="cls-222"/><path d="M51.57 41.35c-.48-.04-.79-.37-1.11-.64-.01-.32.25-.6.54-.86.44-.41.84.22.58.57-.11.14-.08.59 0 .93Z" style="fill:#8a7f7d"/><path d="M52.64 30.82c-.12 1.28-.48 1.67-1.08 1.15l.02-3.89v-4.47c.19-.39.36-.36.51.07-.04 2.35.52 4.72.54 7.14Z" class="cls-237"/><path d="m52.12 22.02-.02 1.65c-.12.03-.43.03-.53-.07-.43-.48-1.12.12-1.52.71-.39-1.42.9-1.73 1.49-2.27h.58v-.01Z" style="fill:#897f7d"/><path d="m50.29 28.65.73-.02c-.06.69-.24 1.27-.96 1.71-.46-.9.19-1.31.23-1.68Z" style="fill:#877d7c"/><path d="M52.12 22.02h-.58l.62-.56z" class="cls-237"/><path d="M51.56 31.96c.76-.36.92.41.56 1.06-.15.52-.34.51-.59.01-1.12-.38-2.61-1.35-2.93-2.74 1.72-.11 1.93 1.38 2.96 1.67" style="fill:#7f7673"/><path d="M45.08 41.7c.51 1.47 1.12 1.94 2.63 2.4.49.06.5.23.05.49.52.11.5.3 0 .56.54.57.38 1.39-.46 2.45-.65.25-1.46.17-1.99-.25-.27-.12-1.8.43-.99 1.16-.6.19-1.62.04-2.15-.59.41-.88.41-1.83-.51-2.68l2.11-1.23c-.41-1.11-.47-2.01-.34-2.92l1-.4c1-.13 1.49.31.65 1.01" style="fill:#897b76"/><path d="M45.31 47.35c0 .27.09.82-.21.92l-.78.25c-.5-.35-.98-.64-1.13-1.05s-.41-1.43.88-1.41l.02 1.28c1.22-.6 1.3-1.1 1.77-1.6.24.82-.38 1.19-.55 1.61" style="fill:#a4938c"/><path d="m48.64 45.94 1.41.62-2.75 1.04c-.43-.17-.94-.2-1.31-.67 1.17-.64 1.49-1.16 1.78-1.78z" class="cls-54"/><path d="M47.71 44.11c-1.06.11-1.95-.08-3.25-.2-.02-.9.32-1.51.62-2.21l2.63 2.4Z" style="fill:#b5a9a5"/><path d="M45.87 44.83h.73l-.36.02h-.73z" style="fill:#6e625d"/><path d="m24.62 92.45-.52.06c0-.56.5-1.02 1.04-1.19l-.52 1.12Z" class="cls-223"/><path d="M16.54 82.59c.45-.34 2.19.29 2.47.56.43.41-1.48 6.35-2.12 7.31.76.97 1.67 1.79 2.74 2.45.81-1.16 1.83-1.53 2.13.17 1.36-1.11 2.13-1.13 2.32-.06-.42 1.5-.26 2.05.49 1.65l.55-.6c-.48-.17-.46-.35.02-.54.03-.43.21-.62.55-.55.44-.97.83-1.16 1.17-.58.21.83-.18 1.75-1.15 2.78-.21.23-.42.21-.62-.04.19 2.96-4.47 3.45-6.59 2.16l-.5.75c-1.6-.05-2.68-1.28-3.8-2.34l-.05-1.63c-.23-.16-.23-.35-.03-.56-.71-2.82-1.07-4.23-1.07-4.23.74-.1.84-.66.31-1.69 1.78-.05 2.51-.55 2.18-1.5-1.16.06-2.17-.05-3.03-.34-.36 2.68-3.3 2.1-3.32-1.03-.48-.15-.48-.32-.01-.54.16-.48.35-.48.58-.01.52.17 1.04.18 1.57.02 1.38-.98 2.83-1.89 4.36-2.74z" class="cls-159"/><path d="M26.24 95.72c-.15.72-.73 1.44-1.74 2.15-1.32 1.64-4.29.24-6.49.17-.15-.13-.45-.71-.34-.95s.94-.15 1-1.23c.35.11.61.69.66 1.46 2.33.24 4.48-.4 5.77-2.18 1.05-.04 1.43.16 1.14.58" style="fill:#685f5d"/><path d="M14.12 93.51c-.13.29-.31.28-.52 0 .11-2.08-1.31-3.62-3.22-4.4-1.23-1.29-.38-1.79 1.23-1.97l.9-1.41c.98-.79 2.84-1.58 4.14-.31l-.08 2.97c-.01.39-1.05.76-1.3.46-.22-.26-.34-.77-1.31-.77.46 1.96.06 3.67.15 5.42Z" style="fill:#352f2b"/><path d="M14.15 94.08c-.18-.04-.56-.35-.55-.55h.52z" class="cls-127"/><path d="m25.15 93.53-.02.54-.55.6c-.39 1.04-2.11 2.36-3.47 1.77-1.61-.7-2.93-1.57-4.33-2.83 2.98.19 5.97.81 7.31-.59-.48-.12-.47-.29 0-.5.1-.32.28-.33.52-.06 1.16-.94 1.06.04.53 1.08Z" style="fill:#322b2a"/><path d="M11.33 84.2c.26.4-.07 1.15-.48.9s-.73-.55-1.08-.92c-.42-.49-.05-.9.48-1.2.17-.48.36-.47.58 0z" class="cls-209"/><path d="M15.39 95.63c-.09-.37-.48-1.19-.86-1.59.59-.88 1.05.05 1.31.27.57.48.37 1.27-.45 1.32" style="fill:#625755"/><path d="M26.8 95.18c-.15.19-.42.35-.57.54-.43.06-.89-.12-1.14-.58.22.06.47.05.62.04.69-1.05 1.09-1.48 1.09-.8z" style="fill:#726867"/><path d="m24.59 94.67.55-.6c-.04.2-.42.44-.55.6" class="cls-223"/><path d="m24.59 80.84.55 1.69c.42 1.01-.7 3.23-1.58 2.24-.17-1.5-.9-2.05-2.19-1.64l.07-2.95c.02-.38 1.01-.92.18-1.53-.26-.19-.39-.42-.97-.13l-2.13 1.05c-.11.54-.32.55-.63.07-1.85-1.46 1.27-3.58 2.26-1.98.17-.2.42-.37.76-.51 2.11-1.79 4.28 1.58 3.68 3.7" style="fill:#89807b"/><path d="M21.45 80.17c1.27 0 1.25.99-.07 2.95-.42 1.1-1.02 1.97-1.79 2.62-.55 2.2-1.44 3.77-2.68 4.72l1.49-6.97-1.85-.9c-.55-1.73.56-1.87 2.11-1.68-1.05-.38-1.28-1.02-.12-1.36-.07-.94 1.42-1.73 2.13-1.05.55.65.04 2.13-.31 3-.91 2.26 0-2.24 1.11-1.33Z" style="fill:#716864"/><path d="M21.45 80.17c-1.07.63-.56 2.2-1.79 2.65-.47.17-1.49-.11-1.83-.86.98.11 1.97-.08 2.26-.54-.2-1.16-.02-2.07.57-2.9 1.09-2.1 3.74 2.28.79 1.66" style="fill:#625a56"/><path d="M21.37 83.12c.66-.45.93-.15.48.5l.56.9-2.83 1.22c.28-.43-.09-1.72.17-2.3.22-.5 1.01-.65 1.63-.31Z" style="fill:#7f7671"/><path d="m18.83 84.72.28.28-.28.28-.48-.28z" class="cls-159"/><path d="M14.77 76.98h1.54c1.64.12 1.43 1.85-.04 2.25-.3-.12-.81-.04-1.13-.02-.14-.39-.64-.5-.88-.62-1.18-.05-1.44-.83-.66-1.69l1.18.08Z" style="fill:#a39d98"/><path d="M15.14 79.22c0-1.52.72-1.46 1.13.02.98.55 1.77 1.11 2.38 1.68-.54.62-1.41 1.29-2.11 1.68-1.85-.41-2.83 1.51-5.21 1.6-.95.45-.98-.44-.5-1.22 1.34-.84 2.51-1.73 3.51-2.68.16.04.28-.1.25-.25-1.42.31-.53-1.65.55-.83" class="cls-106"/><path d="M17.89 79.62c.18 0 .46.01.63-.07l.12 1.36c-1.02.03-2.32-.72-2.38-1.68.74-1.3 1.31-.99 1.62.39m-2.74-.4c-.1-.04-.48-.02-.65.09-.18.12-.13.56.1.74l.64.51c-.32-.47-.82.02-.31.35l-.58-.6c-.37 1.95-1.58 2.98-3.51 2.68-.97-.44.27-1.97 1.2-1.69.48-2.05 1.22-2.95 2.23-2.69 1.01-1.19 1.52-.84.88.62m.94 2.19.28.28-.28.3-.28-.3zm-1.66.55.24.29-.24.3-.39-.31z" style="fill:#8f8782"/><path d="m22.48 86.35.18 1.91c1.23 1.01 1.14 2.27.5 3.34-.94.37-1.06-.63-.73-1.43-.95-1.21-2.2-2.26-2.7-3.77.91-.37 1.89-.64 2.76-.06" style="fill:#a09893"/><path d="m19.64 92.46-.5-.52c-.43-.71-.24-1.61.22-2.86.45.59.86.98 1.9 1.3z" style="fill:#dbd5d1"/><path d="M23.15 91.61c-.32.53-.59.89-1.33.79-.15-.78-.18-1.77.59-2.21.34.43.61.83.73 1.43" style="fill:#b1a8a3"/><path d="M24.62 87.97c-1.49-.4-.36-1.91-1.58-2.68.18-.06.4-.39.53-.52.83-.38 1.54-1.27 1.58-2.24l.56.02c.13 1.27-1.43 2.29-1.08 5.42Z" class="cls-100"/><path d="M25.16 90.79c-.4-.64-.56-1.37-.55-2.11l.58.02c.13.62.69 1.56-.03 2.09" class="cls-223"/><path d="M12.03 81.29c-.51.2-.96 1.21-1.2 1.69h-.58l-.71.04c-1.71-1.27.58-3.78 2.32-2.51.8-.12.69.19.17.78" style="fill:#cbc6c1"/><path d="M12.57 77.64c1.4.24.21 2.58-.71 2.87-1.09.48-2.05 1.33-2.32 2.51-.55.66-1.28.42-1.99.07.19-1.36-.49-3.73.5-5 .92-1.17 3.39-.5 4.52-.44Z" style="fill:#efeeec"/><path d="M57.17 20.52c-.83.61-.96 1.72-.6 2.65.88.28.72.79-.25.86-.82-.94-1.51-1.25-2.05-.93-.21-.07-.44-.34-.76-.48-.08-.64-.09-1.61-.22-2.28l1.54 1.5c.76-.88 1.48-1.31 2.34-1.31Z" class="cls-17"/><path d="M54.38 35.72c1 1.97 1.82 3.91 2.25 6.08.12 1.03-.05.85-.62.01-.75-.02-1.17-.72-1.25-2.11-.89-1.09-1.21-2.04-.96-2.86l-.6-1.08c.32-.39.71-.31 1.18-.05Z" style="fill:#837976"/><path d="M54.38 35.72c.06.26-.24.63-.36.56l-.82-.51-.54-.56c.78-.11.53-.72.26-1.09l-.8-1.1c-.21-.5 0-1.02.53-1.1.96 1.06 1.12 2.6 1.73 3.8" style="fill:#958c8a"/><path d="m58.29 44.01.1.97c-1.81.87-4.13-1.55-2.38-3.18h.62c.15.75 1.11 1.76 1.66 2.21" class="cls-175"/><path d="M52.65 31.92c.15.45-.03 1.03-.53 1.1l-.56-1.06c.58-.18.79-.75 1.08-1.15v1.11Z" style="fill:#afa8a5"/><path d="M54.9 30.8c-.1-.34-.06-.8-.07-1.17.41 0 .76.41.58.89-.07.18-.26.37-.51.28" class="cls-177"/><path d="M63.19 8.88c.46.18.42.34-.08.48.48.64.2.87-.56.58-.18 1.04-.81 1.02-1.09-.01.04-.34.34-.92.57-1.14l1.16.1Z" style="fill:#99918e"/><path d="m56.57 23.17.43-.02c.17-.41.48-.34.75 0-.11.48-.4 1.19-.7 1.61-.65.9-.06 2.05.24 3.3.59-1.03 1.58-1.11 2.54-.68.62.91 0 1.28-1.87 1.09 1.92.88.45 2.14-.9.69l-1.66-3.27c.27-1.09-.1-2.01-1.12-2.78-.06-.37.56-.92.86-.81.21.07.6.61.78.99.06.63.84.53.66-.1Z" class="cls-20"/><path d="M57.75 23.14H57c-.12-.78.91-.73.75 0" class="cls-17"/><path d="M66.39 10.46c.56.17.94.64.57 1.11-1.08.71-.23 1.84-.09 2.74l.98 6.04c.78.88 1.26 2.18.8 3.34.04.16.24.47.4.54.43.51.56 1.2.24 1.8-.49.43-1.27.13-1.82-.14-.19.47-.38.45-.56-.04-.61.01-.75-.4-.43-1.23-1.02-.15-1.08-.59-.09-.95l-.51-.6c-.67-1.13-1.83-3.55-.06-3.88-.01-1-.35-1.81-.5-2.73l-.17-4.33c-.24-.85-.21-1.61.1-2.28-.03-.41.37-.62.6-.24l.51.85Z" style="fill:#584d4b"/><path d="M67.34 8.22c2.31-.06 3.12.5 2.44 1.66 1.03.74 1.57 2.08 1.54 3.33.46.24.42.4-.12.46-.25.34-.22.56.15.65.76-.47 1.77.02 1.65 1.01 1.1 0 1.03.49-.08.71-.29.52-2.68.3-3.09.13-.5-.21-2.45-4.33-2.82-5.21-.07-.16-.06-.34-.04-.54-.14-.34-.12-1.06-.57-1.35a1.9 1.9 0 0 0-1.13-.27c-.26-.73 1.42-.95 2.07-.59" style="fill:#a09895"/><path d="M72.93 16.04c.35.44-.04.75-.49.99-.25.44-.45.4-.59-.1-.85.72-1.33.72-2.25.08-1.25-1.53-1.74-3.67-2.63-5.44l-.57-1.11.59-.04c2.37 2.37 1.36 5.95 5.94 5.62" style="fill:#c2bab8"/><path d="M73.03 5.05c-.39.51-1.3.84-1.3 1.63.45.46.35.63-.28.49.26 2.03-2.74 1.72-4.1 1.06-.72.18-1.54-.25-2.07.59-.27.19-.73.53-1.08.54-.47.62-.86.81-1.09.02l.08-.48c1.37-.98 3.67-.69 4.95-1.72l3.26-2.64c.46-.37 1.43-.23 1.63.52Z" class="cls-198"/><path d="M62.55 9.94c.6-.36 1.23-.24 1.12.53-.07.14-.03.39 0 .55.39.51.1.72-.54.54l-1.66-.02V9.93c.25-.13.83-.09 1.09.01Z" style="fill:#837b78"/><path d="m64.2 9.34-.54 1.13c-.43-.07-.79-.32-1.12-.53l.56-.58 1.09-.02Z" style="fill:#beb5b3"/><path d="M65.19 12.14c-.04-.71-.96-1.69.1-2.28z" class="cls-22"/><path d="M64.22 11.57c-.76.84-.94 1.5-1.02.77l-.09-.78.54-.54.56.56Z" style="fill:#c0b7b5"/><path d="m65.84 19.19.06 3.88.51.6.09.95c.48 1.79-1.25.55-1.84-.4-.48-.15-.48-.34 0-.55.42-.41.46-.54.12-1.04-1.1 0-1.77-.4-2.02-1.18-.51-.09-.5-.26 0-.51-1.58-.85-.89-3.03.9-1.59.85.78 1.41-.48 2.18-.15Z" style="fill:#b6b0ad"/><path d="M63.66 19.35c-.32-.3-1.07.03-.82.61.1.24.04.62-.08.98-2.23 1.03-2.93.54-1.86-1.72l.58-1.14.48.08c.69.12 1.3.59 1.71 1.19Z" style="fill:#e4dfdc"/><path d="M64.76 16.51c.39.58.59.57.59-.04 1.44 0 1.69 1.99.5 2.73-.03 1.77-2.02 1.9-2.18.15-1.34.61-1.72.21-1.71-1.19-1.51-.83-.27-1.61 1.09-1.67z" style="fill:#afa6a4"/><path d="m63.05 16.48-1.09 1.67c-.18.46-.34.42-.48-.08-.3-.27-.69-.31-1.3.11l.23-.37-.13-1.32c.93-.21 1.96-.42 2.77-.01" style="fill:#c4bdba"/><path d="m64.76 16.51.59-.04.03.87c.01.32-.51.41-.61.01-.04-.18-.04-.51 0-.84Z" style="fill:#d7cfcd"/><path d="m63.11 17.89.27-.27.27.27-.27.27z" style="fill:#8e8684"/><path d="M60.9 19.21c.4.51.18.99.21 1.32.06.54 1.33.57 1.65.4-.05.14-.01.36 0 .51.14 1.05-.73.7-1.31 0-.2.65-1.03 1.24-1.66 1.68-1.53-1.44 1.53-2.42-.47-4.55l1.57.63Z" style="fill:#cbc5c1"/><path d="M60.18 18.18c.34-.11.24-.35.23-.37z" style="fill:#cdc3c1"/><path d="M77.96 1.11c.37.16.36.35 0 .55-.23.21-.04.23.57.08 1.4-.42 3.04.45 4.33 1.04-.02.28-.23.69-.46.79-.63.26-1.62-.57-2.38-.26-.2.09-.42.51-.5.71.3 1.45-1.95 2.23-3.22 2.1-.9 1.35-2.88-.13-2.24-1.54-.42-.14-.31-.48-.02-.77.09-.35.42-.27.63.01.48-.38.68-.94.62-1.66.03-.36.16-.69.39-1l2.28-.06Z" style="fill:#6e6562"/><path d="m78.53 1.75-.57-.08v-.55h.55z" class="cls-23"/><path d="M75.29 2.17c.94.53 1.47 1.8 1.26 3.17l-1.88-1.5c-.26-.27-.37-.33-.63-.01l.02.77c-.17.41-.33.35-.47-.1-.5-.12-.51-.31-.06-.58-.06-.66-.66-1.05-1.4-1.61 1.54-.58 2.25-.15 3.16-.13Z" style="fill:#89807d"/><path d="m77.96 1.67.57.08c-.48.14-1.03 1.04-1.74.1.59-.32.93-.2 1.17-.18" class="cls-243"/><path d="M78.87 2.48h.73l-.36.02h-.73z" style="fill:#817775"/><path d="M74.66 3.83h-.63c-.05-.67.73-.62.63 0" style="fill:#b0a8a5"/><path d="M84.05 17.59c.5-.01.53.16.13.5.08 2.68.54 5.33 1.39 7.96l-.98.91c.45.43.81 1.03.53 1.66 1.12.07 1.05.69 0 1.11.94 3.23.17 5.66.96 8.44-1.6-.44-.8-1.75-.94-2.34l-.59-2.56c-1.06-1.56-1.3-2.43-.72-2.6-.38-1.23-.34-2.28.11-3.13-.46-.22-.43-.4.07-.56l-.52-1.11c-1.2-.2-1.76-1.5-1.67-3.89.61-.78.84-1.72.7-2.83-1.7-.45-1.79-2.96-.15-3.61-.48.03-.38-.33 0-.67l.65.03c.15.98.5 1.88 1.03 2.7Z" style="fill:#292220"/><path d="M86.69 22.95c.43.87.86 3.53.07 4.57l-.02.56c.88-.03.87.87.02 1.09-.35.39-.54.8-.69 1.7l-.95-1.15c-.09-.32-.02-.78 0-1.11.15-.74-.05-1.06-.53-1.66l-1.05-7.28c-.12-.85-.07-1.4.64-1.6l.65.13c.57 2.3 1.19 3.88 1.85 4.74Z" class="cls-194"/><path d="M70.26 35.22c.38.16.37.34 0 .55.4.33.4.72 0 1.08-.81.68-2.11 1.95-3.58.87l.64 3.01c-.76.41-1.49.88-2.19 1.38l-.83-.26c-.88 1.29-2.01 2.37-3.39 3.25q-.225.72-.54 0l.02-3.3c.28-1.33.31-2.67.08-4.04l.56-.46c.68-.68 1.54-1.01 1.9.02 1.26-.54 2.19-.64 2.8-.31.3-.98.75-1.36 1.35-1.12-.97-2.1.84-2.17 2.51-1.95.3.29.52.7.66 1.25Z" style="fill:#463b38"/><path d="M67.32 40.73c.72-.15 1.41-.11 1.92.34-2.42.44-3 2.2-5.12 2.41-1.2-.44-.71-.96.19-1.62.74-.47.88-1.34.61-2.38 1.54.13 1.75.97 2.41 1.25Z" style="fill:#4f423e"/><path d="m68.66 23.68-.8-3.34c.69.29 1.13.84 1.31 1.5s.11 1.48-.51 1.84m.64 2.35-.24-1.8c.32.16.6.42.68.8.09.45-.1.71-.43 1Z" class="cls-178"/><path d="M71.34 18.21c.22-.94 2.35-.64 2.37-.09.11 2.48-1.67 1.66-.35.86.15-.09.46.08.82.33l.57-1.02c4.66 1.55 2.92 7.84-.07 4.52l.67.53c-.41-.71-1.14-.04-.49.37l-.57-.54c.12.74-.88.39-1.29-.06-.4-.16-.39-.35 0-.56-.02-.4-.6-.56-1.72-.48l-1.62-4.48.61-.44 1.06 1.06Z" class="cls-161"/><path d="m74.19 24.78-.09.57c.48.12.46.28-.02.48 0 .24.17.42.54.54.89-.33.39 1.14-.11 1.71.51.05.55.24.14.58q.72.135 0 .45h-1.09c.13-1.34-.76-2.49-1.09-3.75-.04-.79.15-1.3.56-1.51 1.25-1.09 3.11-.44 1.13.94" style="fill:#847875"/><path d="M71.84 16.92c.99 1 .9 1.09-.51 1.29 0 .36-.01.73-.35 1.11-.54-.92-.83-1.34-1.32-1.72-.02-.14 0-.46-.07-.59.21-.48.83-.68 1.44-.58.27.05.58.13.81.49" style="fill:#e3ddd9"/><path d="M73.01 22.55c-.17.51-.35.52-.55.01-.17.32-.35.32-.55 0-.16.34-.35.34-.57.02 0-.15 0-.36-.05-.51l3.39-1.24c-.35 1.04-1.03 1.39-1.66 1.72Z" style="fill:#8c817e"/><path d="M73.01 23.12c.95.13 1.01.45.05.72.04.57-.06 1.18-.56 1.51l-.58-2.24.54-.55c.15 0 .42.06.55-.01v.56Z" style="fill:#a29996"/><path d="M71.91 23.12c-.35.02-.58-.19-.58-.53l.57-.02c.34.14.32.33 0 .55" class="cls-161"/><path d="M70.84 34.66c-.16.48-.36.48-.58 0v-1.65c.53-.28 1.3.14 1.04.68z" class="cls-234"/><path d="M70.86 35.76q-.255.72-.6 0v-1.1h.58c-.13.28.03.79.02 1.1" class="cls-35"/><path d="M70.81 36.87h-.54c-.1-.32 0-.77 0-1.09h.6l-.05 1.1Z" class="cls-232"/><path d="M70.27 32.46c-.25-.05-.54-.29-.54-.54l.84-.49c.58-.35-.29.82-.3 1.03" class="cls-234"/><path d="M27.45 75.91c-1.27 1.48-1.96 3.2-2.86 4.93l-2.55-3.68c-.45.06-.88.06-1.13-.02.27-2.02 1.69-2.84 4.28-2.44-1.49-1.43 1.25-3.69 2.68-2.69.41-.83.78-1.03 1.11-.59l-.38.93s.13.24.62.46l-.85.14a.34.34 0 0 0-.21-.09c.14.34.25.93-.01 1.1l-.91.58c-.36.23 0 1.07.21 1.38" style="fill:#908680"/><path d="M32.77 71c-1.56 1.66-3.08 3.37-4.53 5.12l-.78-.21c-2.74.23-.81-2.33.72-3.05.19-.13.35-.31.44-.51-.47-.07-.34-.38.38-.93l-.09-.72a52 52 0 0 1 4.01-3.7c-.8-.8.83-2.23 1.7-1.44 1.57 1.19-1.77 3.02-1.84 5.44" style="fill:#8a7f7a"/><path d="m34.54 64.97.06.58-1.7 1.44c-.49 1.09-.89 1.26-1.18.52-1.5-.34-1.38-1.11.12-1.4-.63-.73-.35-1.03.52-.59-.68-.82.61-2.18 1.51-1.71.02.49.22.93.65 1.16Z" class="cls-204"/><path d="m28.99 71.42-1.11.59c-.98-.01-.81-.56.51-1.63-.73-.77-.43-1.05.54-.54-.37-1.64 1.6-4.77 2.81-2.32.32 0 .93-.31 1.18-.52-.77 3.55-2.38 2.98-3.93 4.42" style="fill:#9a918d"/><path d="M30.96 65.39c.64-.35 1.21.09.9.73l-.12 1.4c-.56 0-1.57-.08-2.01.55-.29.41-.29 1.26-.8 1.77-.64-.07-1.09-.34-1.19-1 1.76-1.14 1.57-3.28 3.23-3.44Z" style="fill:#c9c2be"/><path d="m32.38 65.53-.52.59c-.19-.35-.51-.61-.9-.73l.07-.5c.51-.05 1.06.15 1.35.64" style="fill:#dfd8d3"/><path d="M47.15 49.65q1.605-.555 2.43.72c-.29 1.75-.43 3.43-.41 5.03-1.48 0-2.61.37-3.39 1.08l-.32.85-3.12.18c.2 1.84-.68 3.54-1.86 4.62l-1.57.25c.14-.15.7-.71.79-1 .06-.2-.23-.5-.51-.75l1.19-2.89c1.86-1.96 3.93-3.57 6.98-4.23-.09-.88-.78-.54-1-.57-.39-.05-.34-.76-.43-1.05.05-1.11-.68-1.43-1.79-2.33l3.01.1Z" style="fill:#4c403c"/><path d="m46.88 51.72.28.28-.28.32-.28-.32z" class="cls-222"/><path d="m87.86 26.97-1.09.55-.07-4.57c-.94-.51-1.38-2.54-.53-3.16.33-.03.6-.26.67-.59 1.86.61-.46 3.25 1.02 7.76" style="fill:#615855"/><path d="m85.66 18.71.5 1.08c.52 1.12.52 2.04.53 3.16-.26.16-1.24.21-1.34-.09-.31-1.72-.51-3.39-1.17-4.78l-.13-.5c-.62-.86-1.46-2.66-.59-3.27v-.55z" style="fill:#4e4542"/><path d="M83.45 12.66v1.65l-1.08.54v.67c-.15.48-.34.48-.56.01-1.06-.35-1.05-1.49.03-3.44-.1-.56-.21-1.2.34-1.71.23 1.19.65 1.78 1.28 2.26Z" style="fill:#453d3b"/><path d="M79.06 7.1c.02.24.06.59-.01.88-.06.24-.42.46-.77.32-.69-.28-.2-.89-.4-1.12l1.19-.07Z" style="fill:#716965"/><path d="M73.03 7.1c0 .75.18.88.55.39 2.03.12 3.9 1.25 5.95 1.97 1.41.5 1.8 1.35 1.74 2.68.55.61.41 2.1-.58 1.62-.98 0-1.04-.18-.18-.67-1.43.34-1.54-.14-.36-1 .25-1.13-.73-1.48-2.95-1.06.12-1.06.04-1.08-.23-.09-.19.82-1.03.65-1.4.07-.44-.25-.4-.44.1-.57l-.46-.55c-.58 1.42-1.15.93-1.67-.27-.6.79-.77.65-.55-.35-1.94.02-3.67-.81-1.55-2.1.22-.06.31-.29.28-.49.52-.03.96.1 1.3.43Z" style="fill:#8d8481"/><path d="M73.58 7.5c.02.2-.16.73-.29.87-.1.11-.4-.61-.56-.65-.4-.1-.27-.76.29-.61l.55.39Z" class="cls-198"/><path d="M95.42 20.57c.89.17.91.57.09.92.39 2.36-.03 5.08-1.37 7.23l.2 1.28c.06.35-.76.02-1-.26-2.53-.89-4.02 2.49-.91 2.46-.47 1.8-2.57 2.14-3.36 3.72-.89.23-.43-.62-.45-.57-.54 1.39-1.5 2.91-2.36 1.14-.34-.7-.3-1.31.48-1.17.04-.46.23-.68.57-.65v-.55c-.18-1.04-.28-2.52.55-3.3-.87-.28-.83-2.63.07-2.91l1.21.09c0-2.22.68-3.1 2.03-2.63-.61-2.98.68-6.31 2.22-8.96.23-.26.3-.76.94-.82.39 1.73.34 3.45 1.08 4.98Z" class="cls-177"/><path d="M93.35 29.74c-.15 1.06-.72 1.72-.91 2.46-.76.31-1.01 1.22-2.24 1.2-.49-.88-.74-2.51-.42-3.32.85-1.24 2.32-1.74 3.91-2.62l-.33 2.28Z" class="cls-115"/><path d="m87.94 27.91-.07 2.91c-.27.92-.46 1.49-1.11.55v-2.2l-.02-1.09.02-.56c.22-.98.45-1.47 1.09-.55.09.27.09.66.08.94" style="fill:#4c4240"/><path d="M87.31 34.12v.55l-.56.65v-3.95l1.12-.55c-.02 1.14.01 2.28-.56 3.3" class="cls-6"/><circle cx="89.78" cy="33.86" r=".38" class="cls-6"/><path d="M87.32 34.67v-.55c.29.15.28.41 0 .55" class="cls-118"/><path d="m28.93 69.84-.54.54c-.67 1.33-2.2 2.5-2.67.68.15-1.08.95-1.71 1.64-2.37.12.01.26.09.37.15.32-.16.95-.12 1.18.21.12.17.04.62.01.79" style="fill:#eceae8"/><path d="m25.7 68.21.74.46c-1.15 1.4-2.14 2.55-2.99 3.45-.37 1.17-.68 1.3-.94.38-.25.37-.17.63.24.76.84 1.42-.75 2.36-1.99 2.63-.7 1.05-1.22 1.37-1.66.04l-.72.55c.08 1.68-1.41 2.17-2.07.48-.09 1.62-1.14 1.45-1.54.01-1.43-1.11-.52-1.81 1.01-2.1.36-.26.84-.57 1.31-.63.06.66.04 1.21.54 1.3.78.13 1.42.04 2.1-.13-.53-.48-.43-1.52-.03-2.24.17-.13.4-.32.5-.51 1.51-.61 2.38-2.06 3.3-3.34l.57-.55c.45-.31 1.11-.95 1.72-.95a.54.54 0 0 0-.09.37Z" style="fill:#867d78"/><path d="m20.84 71.4-.64 1.27c.83.74.5 1.07-.5.51l.03 2.24c-1.52 1.25-4.83 1.1-2.64-1.17-1.05.22-1.09-.2-.07-.63.56-.13 1.07-.64 1.53-.95.73-.5 1.44-1.01 2.29-1.27" style="fill:#756c68"/><path d="M23.5 69.33c.15-.21.36-.4.57-.55zm-3.76 6.09c-.5-.27-1.23-.77-.98-1.17.31-.48.62-.8.95-1.07.28.59.81 2.05.03 2.24" class="cls-181"/><path d="M27.37 68.69c.89 1.06-.58 2.05-1.64 2.37.54 1.6-1.05 2.18-2.27 1.06-.02-.34-.59-.77-.21-1.19.97-1.07 2.68-1.03 2.46-2.72.52.27 1.08.42 1.66.48" style="fill:#aea7a3"/><path d="M20.76 75.89c.37.55-.1 1.38-.61 1.75-1.13-.03-2.07.84-2.26 1.98-.59.03-1.09-.18-1.62-.39l.04-2.26c.72 0 1.5-.04 2.07-.48l.72-.55 1.66-.04Z" style="fill:#cdc8c3"/><path d="M25.2 74.7c-.97 1.71-2.69.06-4.28 2.44.22.63-.38 1.17-.76.51.03-.67.37-1.19.61-1.75.45-1.03 1.09-1.92 1.99-2.63-.52-.09-.6-.4-.24-.76l.94-.38c.87.43 1.45 1.29 1.75 2.58Z" class="cls-236"/><path d="M22.75 73.26c-.73.35-1.23-.67-.24-.76z" class="cls-109"/><path d="m21.03 73.72.3.28-.3.28-.28-.28z" class="cls-181"/><path d="m18.39 76.49.72-.55z" class="cls-236"/><path d="M14.25 78.6c-1.03.77-.9 2.16-2.23 2.69-.08-.25-.21-.58-.17-.78l.71-2.87c.05-.22.35-.5.48-.71l.54-.02c.34.5.5 1.14.66 1.69" style="fill:#c6bfb9"/><path d="m57.86 45.75.9-.09c.51.64.83 1.39 1.03 2.22-.36 1.1-.73-.44-2-.89-.52-.18-1.3.18-1.06.93l.26.79c.09.26-.57.87-.99.59-.48-.32-.99-1.75-1.45-1.71-.84.41-1.3.42-1.83.39l1.16-1.18c-.97-2.13 3.16-3.32 3.98-1.04Z" style="fill:#4d423f"/><path d="M64.31 41.86c-.01.42.04 1.26-.19 1.62-1.2 1.25-2.1 3.17-3.58 4.04l-.13-.7.5-1.71c-.08-.57-.15-1.61.3-1.91z" style="fill:#63544d"/><path d="M52.66 35.21c.93-.34 1.11-.15.54.56q1.29.78.6 1.08l-.46.52c1.91 2.06 3.23 6.93-.65 6.09-.38.02-.48-.17-.32-.52l-.28.27c.34.09.33.19-.01.28 2.04.12 1.52 3.03-.44 2.21l-.68.02c-.07.48-.15.48-.25 0l-.86-.11-.53-.61c-.39.09-.65.56-.69.93-1 1.19-1.54.54-.87-.79.06-.13 0-.41 0-.56.09-.69.62-1.21 1.58-1.56-.6-1.38.96-1.99 2.23-1.68 1.17-1.9-.81-4.08-2.83-4.76 1.1-.59 1.74-1.05 1.74-1.88.84-1.08 2.23-1.68 2.18.5Z" style="fill:#695f5c"/><path d="M51.57 41.35c-.55.2-1.24.29-1.66.8 1.47.7.39 1.46.07 1.8-.56.58-1.56.75-2.22.65l-.05-.49.52-2.56c.8-.03 1.59-.29 2.24-.84.48-.65.85-.43 1.11.64Z" class="cls-146"/><path d="M52.66 35.21c-.26-.27-.42-.89-.87-1-.18.3-.42.59-.56.65-.26.12-.56-.05-.75-.16 0-.71.48-1.34 1.05-1.68.15.05.44.01.59-.01 1.19-.41 2.37 3.34.54 2.19Z" style="fill:#524947"/><path d="M53.8 36.85c.86 1.55 1.53 3.28 2.21 4.96.51 1.25.92 2.95 2.38 3.18.02.23.22.49.37.67-.2.39-.53.31-.9.09-1.2-.77-3.01.16-3.98 1.04l-2.23.37c-.52.09-1.05-.31-1.15-.65-.06-.2.12-.62.22-.78h.25l.68-.03c.71-.49.67-1.46.44-2.21.16-.4.36-.4.6-.03.61-.64 1.92-1.6 1.93-2.76.01-1.47-1.82-2.59-2.23-3.59-.2-.59 1.21-.78 1.41-.25Z" class="cls-54"/><path d="m52.7 43.45-.6.03c-.03-.1 0-.21.01-.28-.05-.07-.15-.21-.56-.5.32.46.77.02.34-.3l.5.53.32.52Z" class="cls-146"/><circle cx="51.01" cy="44.02" r=".47" class="cls-146"/><path d="M49.86 45.62c-.27-.03-.48-.32-.53-.61.42-.1.61.3.53.61" class="cls-54"/><path d="m51.65 45.69-.68.02c.17-.24.47-.29.68-.02" class="cls-146"/><path d="M23.56 84.77c-.83-.09-.39-1.65-1.12-1.52-.18.03-.45.3-.59.38-.31.09-.57-.17-.48-.5.78-.49.64-1.64 2.54-1.94l-.35 3.59Z" style="fill:#a49c96"/><path d="M59.7 29.08c-.01.78.45 1.29.18 2.57-.82-1.06-1.38-1.48-2.24-1.35l-.59-1.16c.41.27 1.28.04.9-.69 1.41-.56 1.99-.36 1.75.62" style="fill:#79706d"/><path d="m60.69 24.98.31 1.05c1.09.98.75 1.36-.64.9-.7-.94-2.4-.42-3.52-1.63z" style="fill:#aea6a3"/><path d="M61.45 21.45c.97.23 1.48.41.55 1.11-.49.67-1.04 1.04-1.65 1.1l-.56-.53c.18-.89.72-1.67 1.66-1.68" style="fill:#8f8783"/><path d="M66.5 24.62c.36.13.64.98.43 1.23-.97.75-2.67.39-2.09-.91-.71-.03-.81-.32-.18-.72.44.23.87.39 1.39 1.09.31-.08.5-.42.45-.69m-.09-.95c-.28 0-.51-.3-.51-.6.19.14.49.36.51.6" class="cls-224"/><path d="m71.2 13.66.15.65c-.24.28-.58.53-.82.53-.16 0-.47-.42-.59-.52-.36-.3 0-.8.47-.61.15.06.53 0 .79-.05" style="fill:#6b6260"/><path d="M64.78 22.63c.42.27.35.8-.12 1.04v.55l.18.72c.02 1.17-1.11 1.12-1.11-.08-.5-.1-.52-.29-.08-.58-.12-.9-.72-1.62-1.64-1.72l-.55-1.11h1.31c.65-.01 1.21-.08 1.94-.66l.07 1.83Z" style="fill:#706966"/><path d="m64.66 23.67.12-1.04c.87.1.74 1.14-.12 1.04" class="cls-224"/><path d="m80.63 34.09-1.02.97c-.32.29-.76-.53-1.01-1.29.68-.39 1.38.09 2.03.32m3.31-6.56.61 5.73c-.14-.38-.4-1.54-1.33-1.36-.29.43.26 1.46-.08 1.8-.53.53-1.9.45-2.51.39.16-.43.56-.51.76-.66.3-.22.02-1.14-.05-1.49.39-.76 1.23-.96 2.06-1.17-.4-1.17-.25-1.98-.23-2.86l.76-.38Z" class="cls-93"/><path d="m83.46 14.32.59 3.27c-1.3-.47-1.1-1.85-1.68-2.73 0-.57-.15-1.21.29-1.68.31.71.51.94.8 1.14" class="cls-194"/><path d="M85.12 28.61c-.35-.51-.44-1.06-.53-1.66.29.1.59.26.84.56.3.36.17.89-.31 1.1m1.62-.54c-.17-.19-.17-.38.02-.56z" class="cls-118"/><path d="M68.69 29.51c.81 1.61 1.11 3.09.91 4.46-.06.37-.4 1.13-.74 1.07l-1.42-.26c.56.78.78 1.86.31 2.18-.43.29-1.64-.13-2.01.09q-1.575-.09-1.5-1.23c-.22.8-.98.84-1.09-.07-1.11.61-3.25-3.5-3.27-3.77 0-.11.43-1.9.48-2 .42-.85 6.13-3.48 7.31-2.91l1.02 2.45Z" class="cls-35"/><path d="M67.67 27.06c-.36.66-.88.69-1.66.79-2.21.28-4.06 1.79-5.48 3.25.26.86.22 1.41.72 1.97.29-1.07.83-1.58 1.32-1.55.95.06 1.56.75 2.55 1.78l-3.76-.22c.15 1.13 1.04 1.52 2.26 1.66l-.5 1.01c.05.74.41.76 1.09.07.13.1.36.21.51.2.25-.02.56-.18.79-.7.14-.08.83.48.8.74s-.44.73-.59 1c-1.12.7-3.56 1.28-4.7.28-.66.8-.94.53-.68-.47-.39-1.07-.57-2.32-.55-3.76-.4 0-.81-.39-1.24-1.15l-.94-1.64c.39-.57 1.08-.98 2.07-1.22.26-1.1 1.08-1.5 2.47-1.22l-.08-.75c.73-.02 1.48-.07 2.23-.16-.5-.06-.5-.23-.06-.5.64-.39 1.53-.58 2.67-.59l.56.04c.03.37.04.83.18 1.17Z" style="fill:#635854"/><path d="m69.16 30.27.55.55v1.1c.5-.22.72.05.56.54v.56c.85.03.61 1.21 0 1.65.35.16.34.35 0 .55-.52-.2-.65-.74-.66-1.25-.02-1.27-.35-2.47-2.1-2.87.57-.27 1.42-1.05 1.19-1.6.17 0 .31.01.42-.02l.05.78Z" class="cls-232"/><path d="M69.71 30.82c-.25-.11-.44-.3-.55-.55.27.08.46.29.55.55" class="cls-234"/><path d="M67.37 31.63c.2-.08-.43.87-.68.76-.37-.18-.73-.49-1.61-.5-.37-.04-.24-.76.24-.85.45-.09.8.07 2.05.59" style="fill:#6a605c"/><path d="M64.24 35.81c-.03.37-.13.91-.31 1.11s-1.16.01-1.28-.29c-.1-.23.39-.66.5-.89z" style="fill:#76655f"/><path d="M64.84 24.94c.59.35 1.38 1.36 2.09.91-.6.87-1.74 1.09-2.67.59-.9.09-.89.26.06.5-.11 1.31-1.64.56-2.15.92-1.44.96-3.05.8-1.8-.92l.64-.9 1.01-.15c.16-.71 1.07-1.02 1.72-1.02.26.2.82.11 1.11.08Z" style="fill:#99908e"/><path d="M62.17 27.85c-.7.49-1.49 1.4-2.47 1.22-.42-.07-.97-.56-1.75-.62l1.87-1.09.54-.43.66.91c.19.25.75.23 1.14.01Z" style="fill:#908884"/><path d="m64.26 26.44.06.5-.87-.08c-.51-.05-.25-.46-.04-.45l.86.03Z" style="fill:#b5acab"/><path d="M71.91 23.12c-.04-.17-.02-.38 0-.55h.55c.05.38-.2.58-.54.55" style="fill:#dbd3ce"/><path d="m28.39 70.38-.51 1.63c-1.1.58-2.06 1.6-2.68 2.69-.73.03-1.35-.35-1.84-.98-.35-.44.13-1.16.1-1.6.78-.3 1.71-.76 2.27-1.06.94.17 1.88.11 2.67-.68Z" style="fill:#e4e0dc"/><path d="M80.15 12.09c-.55.27-1.65.56-3.29.87-1.57 1.11-3.77.97-5.53.24-.02-.69.45-1.17.67-1.7l1.01.58c.11-.73.41-.67.56.03.37.2.77.36 1.25.25.3-.07.58-.57.76-.83l1.39-.59c-.97-.47-.59-1.5.36-1 .96-.13 2.03.22 2.7.7.38.27.96.79.12 1.44Z" style="fill:#a49b98"/><path d="m80.15 12.09.36 1-1.88.53c-.42.75-1.33.85-1.73.09l-.06-.75 2.55-1.79c.42.1.7.75.74.92Z" class="cls-107"/><path d="M76.97 10.95c0 .4-.1 1-.37 1.12-.23.1-.86-.49-1.02-.53v-.52z" class="cls-141"/><path d="M54.27 23.09c.38.16.38.36.02.59l.55.54c1.05-.23 1.13.82.55 1.65.61-.34 1.12.4 1.53 2.21 1.14-.34.94.17.13 1.06 1.38-.25 1.57.21.59 1.16.8.31 1.64.99.94 1.64.49.49 1.1 1.09.62 1.66 1.28-.29.83 2.33.59 3.27 1.23 1.05.9 3.37.61 4.95 1.07-.17 1.06.93-.02 3.3.55.16.27 1.14.04 1.7.77-.1.61.12.13.7-.18.07-.69.18-.75.36-1-.59-1.5-1.18-1.03-2.22-.77-.1-.89-.32-.37-.67-.59-.4-.84-.72-.1-.97l-.35-3.24c-.16-3.8-1.04-7.59-2.63-11.36-.83.07-.98-.24-.45-.89.41-.5.92 1.26-.53.72l-.81-6.64c.72-.79 1.1-.52.76.48Z" class="cls-177"/><path d="m57.94 40.78-3.03-9.97c.34-.42.28-.76-.07-1.17-.5 0-.65.76-.79 1.05-.26-.06-.84-.91-.74-1.18s.84-.27 1.02-.26c.21-.22.38-.57.73-1.35 1.57 2.55 2.1 5.54 3.23 8.46.69 1.77 1.12 2.76-.36 4.43Z" class="cls-153"/><path d="M60.36 36.86c-.15.48-.35.48-.58.01l-.59-3.27c-.17-.97-.17-1.17.62-.51 1.8-.15.33 1.09.55 3.76Z" style="fill:#938986"/><path d="M61.04 37.33c-.15 1.56.23 3.3-.65 4.5.01-1.7-.31-3.28-.61-4.95h.58c.07.29.53.33.68.45" style="fill:#6b605e"/><path d="m55.39 25.87-.55-1.65-.55-.54-.02-.59c.84.28 1.58.82 2.24 1.41-.46.76-.71 1.08-1.12 1.37" style="fill:#cec8c5"/><path d="m59.81 33.1-.62.51-.62-1.66c.62.18 1 .67 1.24 1.15" style="fill:#afa5a3"/><path d="m60.42 46.82-.04-1.7h.54c.09.61 0 1.31-.5 1.7" class="cls-222"/><path d="M58.98 40.17v.36l.01.37v.36l-.02-.36v-.73Z" class="cls-153"/><path d="M54.84 24.22c-.25-.07-.53-.27-.55-.54.2.08.48.33.55.54" class="cls-20"/><path d="M57.86 45.75c.2-.07.68-.17.9-.09.12.15-.01.58-.33.56s-.47-.28-.57-.47" class="cls-175"/><path d="M63.65 24.28c-.35.57-.98 1.23-1.64 1.6.17 1.34-.44 1.39-1.01.15-1.45.24-1.53-.26-.31-1.05.32-.03.68-.48.75-.77-.69-.49-.58-1.07.29-1.1.03-.12.13-.23.28-.28q-.795-.09 0-.27c1.27-1.46 2.92.24 1.64 1.72" style="fill:#877f7d"/><path d="M62 22.57c-.05.1-.05.22 0 .27l.52.5c-.3-.44-.74 0-.3.3l-.5-.52-.29 1.1-1.08-.55c.2-.76.86-1.25 1.65-1.1" style="fill:#aaa29f"/><path d="m63.65 24.28.08.58c-.09.25-.27.75-.53.87-.34.16-.87.1-1.19.15-.06-.52.1-1.09.53-1.4.31-.22.76-.26 1.11-.2" style="fill:#b0a8a6"/><path d="M76.86 12.96c1.06-.05 1.07.36.06.75-.3.74-.05.87.75.4l.57.45.66-.51c-.47.15-.55 0-.25-.43-.5-1.26 1.27-1.88 1.88-.53l.18.67c-.82-.19-1.08.47-.18.83-.27.45-.74.69-1.41 1.11.85.47 1.87.24 2.69-.15h.56c0 1.17-.02 2.43.15 3.59l-.33 2.21c-1.08-.35-2.09-.26-2.63.28-1.1 1.09-.76 1.73-.16 2.66-1.11.97-2.58 1.32-3.04 2.59-.52-.38-1.03-.29-1.11-.06-.1.26.11 1 .13 1.24-.31.28-.58.36-.85.02l.11-1.71q-.72-.15-.54-.54l.02-.48q-.225-.255.09-.57c.07-.2.07-.54-.11-.76-.2-.26-.69-.31-1.03-.18l-.05-.72 1.29.06c.2-.03.36-.2.39-.36.04-.29.51-.66.73-.51.17.11.41.39.62 1.03l.76-1.74c-.84.11-1.42-.34-1.31-.63.09-.21.72-.77.72-.95-.58-.45-1.55-.72-2.03-.7-1.23-.65-.98-1.7.74-3.15-.49.57-.58.3-.25-.8-.76.54-1.58 1.11-1.67-.04-.65-.02-1.23-.5-1.65-1.01-.92.28-1.03-.15-.15-.65.05-.12.14-.34.12-.46.65-.54 1.67-.59 3.08-.13 1.12-.57 1.94-.61 2.45-.12" style="fill:#6d635f"/><path d="M81.8 15.54c-.08 2.81-4.88 1.69-2.42-1.45.46-.59.75-.9 1.31-.34.7-.31.55-1.04.58-1.62l.56-.03z" class="cls-107"/><path d="M74.1 25.35c-.78-.01-.51-.79.09-.57.44.12.34.54-.09.57m.53 1.01-.77.05c-.37.02-.4-.74.23-.59.27-.02.56.27.54.54" class="cls-161"/><path d="m78.64 13.61.25.43-.11.09c-.06-.06-.78.39-.05.94-.25-.38-.46-.53-.51-.5-.44.34-1.04.57-1.64.45-.39-.08-.77-.53-.75-1.13.45-.17.79-.17 1.07-.17.5-.56 1.3.04 1.73-.09Zm-2.06 1.66.28.42-.28.28-.28-.28z" class="cls-15"/><path d="m83.48 25.86.52 1.11-.07.56c-.07.92-.11 1.11-.76.38.03-1.23-1.06-1.88-2.2-2.03-2.49-.32-4.74 2.03-4.61 2.43.14.46 1.11.84 1.94.88-.39 1.66-2.27 1.52-3.51 2.4l-.12-2.5v-.45c-.03-.28.2-.48.7-.59-.85-.48-.79-2.55.51-2.54 1.46-.88 2.31-2.31 2.54-4.29 1.33-.86 2.69-1.56 4.09-2.08z" style="fill:#584d48"/><path d="M84 26.97c-.54-.18-.45-.65-.52-1.11.43.15.57.65.52 1.11" class="cls-93"/><path d="m74.66 28.64-.14-.58.85-.02c-.02.23-.47.55-.71.59" class="cls-99"/><path d="m75.48 28.62.28.28-.28.28-.28-.28zm.28 1.37.27-.27.27.27-.27.27z" class="cls-97"/><path d="m75.21 25.59.27-.27.27.27-.27.27z" class="cls-161"/><path d="m75.21 9.89.46.55-.1.57c.49.11.47.28 0 .52 1.51 1.41-2.26 2.45-2.02.58-.48-.15-.4-1.26 0-1.65-.22-.31-.4-.31-.55 0 .47.15.4 1.25 0 1.62-.43 1.15-1.43.53-1.01-.58-.89-.41-1.63-.95-2.21-1.62-.51-.45-1.16-1.18-2.39-.65-.09-.37-.05-.66-.05-1.01l4.1-1.06c-.15.52.02 1.16.73 1.46l3.03 1.27Z" style="fill:#bcb5b2"/><path d="M72 11.5c.96 1.16.81 1.62-.67 1.7-1.37-.56-1.91-1.83-1.54-3.33L73 9.5c-.67.61-.73 1.33-1 1.99Z" style="fill:#d7d1cd"/><path d="m75.68 10.44-.46-.55c.24.1.52.27.46.55" class="cls-141"/><path d="M73.56 12.11c-.13.31-.46.29-.56-.03v-1.62c.17-.34.35-.33.56 0z" style="fill:#d5cfcc"/><path d="M74.38 9.82v1.19l-.02-.39v-.8Z" style="fill:#d8d2d0"/><path d="M73.56 10.46h-.55c-.17-.61.62-.84.55 0" style="fill:#978f8c"/><path d="M74.18 19.32c-.24.01-.66.51-.69.75-.06.48-.92.56-.85-.06s.35-1.34.16-1.66c-.16-.27-1.31-.19-1.47-.14.05-.48.22-.92.51-1.29l.59.1c.22.35.4.35.54-.01-.09-.93.8-1.41 1.69-1.65.34 0 1.04.63.93.98-.76.96-1.45 1.86-1.42 2.97" style="fill:#978d8a"/><path d="M74.67 15.37c-.31.72-1.06 1.13-1.69 1.65-.17.39-.35.4-.54.01-.06-.45.32-.73.49-.99.1-.14.08-.54.08-.71l1.67.04Z" class="cls-64"/><path d="M72.44 17.03c.12.06.43.08.54-.01.08.85-.65.69-.54.01" class="cls-161"/><path d="m73.56 17.34.27-.27.27.27-.27.27z" class="cls-64"/></g></svg>