<svg xmlns="http://www.w3.org/2000/svg" id="Layer_1" data-name="Layer 1" viewBox="0 0 100 100"><defs><style>.cls-34{fill:#2c2321}.cls-40{fill:#413633}.cls-49{fill:#615552}.cls-66{fill:#675d5a}.cls-71{fill:#817672}.cls-109{fill:#968780}.cls-114{fill:#4d3e3a}.cls-132{fill:#3a312f}.cls-141{fill:#473a36}.cls-157{fill:#9a8d87}.cls-220{fill:#71605a}.cls-226{fill:#322a28}.cls-243{fill:#29211f}.cls-274{fill:#a39893}.cls-280{fill:#463d3a}.cls-285{fill:#3c3533}.cls-320{fill:#2b2421}</style></defs><g id="Layer_1-2" data-name="Layer 1-2"><path d="M58.02 78.31c2.87 1.29 4.38 3.74 5.34 6.62.03-1.21.27-2.36.74-3.46-.78-.13-.74-2.25 0-2.45-.3-.47-.3-.71.01-.74l.65-.77c.68 3.72-.58 6.7.77 10.41-4.1 0-4.09-4.19-6.01-6.15-.79-.81-1.79-1.45-2.1-2.52-.43-1.46-.76-2.23-.08-2.17.57.1.99.67.67 1.23Z" style="fill:#2d2522"/><path d="M80.2 65.58c.02-.5-.53-.8-1.63-.92l-.07-.35c-.22-.06-.21-.14 0-.23.62-.55 1.52-.66 2.71-.33l1.79.41c-.55-.37-.69-.77-.43-1.2-.72.26-1.19-.73-.76-1.26-1.13-.48-2.51-1.24-3.16-2.21-.63-.22-.55-.44.11-.48l.49-.42c1.15.46 2.12 1.2 2.98 2.26l1.54 1.9c.59 1.2 1.16 2.08 2.54 2.52.61.2.99 1.1.92 1.76-1.37.5-2.62.08-3.9-.27-1.19-.33-2.15-.57-3.13-1.18" style="fill:#453833"/><path d="M81.25 84.11c.39-.34 1.01-.3 1.85.14l1.13-.05.07-.27 1.47.27c.75 2.3-4.94 1.96-7.75-.95-1.4-1.44-1.92-3.37-2.98-5.01-.43-.36-1.24-.53-1.48-1.03.26-.15.62-.2.95-.58-1.65-.78-3.22-.22-5.02-.54 0-.47.4-.66 1.17-.57 1.32-1.2 5.84-1.29 5.14 1.31l2.43 4.62a10.8 10.8 0 0 0 3.02 2.64Z" class="cls-226"/><path d="M23.72 54.38c.69.24.64 1.11.04 1.43.31 1.01-.28 2.03-1.35 1.64-.46 1.13-1.73 2.17-2.84 2.91l-.56-.22c-.64.29-.77-.05-.27-.53l2.77-2.5c.25-.45.32-.98.25-1.51-3.42-.11-5.82.99-9.28-.2-.92-.76-.43-.86.56-.61.28-.35.72-.44 1.3-.27 2.35-.52 4.75-.84 7.16-.94l.51.46c.27-1 1.73-.81 1.72.34Z" style="fill:#251e1d"/><path d="M55.39 79.24c.09 1.19.36 2.31.67 3.54.81 3.24-1.43 6.82-3.88 9.25-.54.54-.81 1.08-1.12 1.65-.08.44-.25.79-.5 1.06.17.36.03 1.03.03 1.45-.14.06-.28.1-.41.07-2.22-.49.93-5.28 1.87-6.01-.06-1 1.2-1.93 2.01-2.51q-.39-.63.24-1.59l.16-.98c-.43-1.84-.54-3.64-.34-5.39-.79-.02-.57-.59-.13-1.04-.7.14-.74-.45-.09-.71.13-.05.39.03.49.11.4.31-.05 1.41.48 1.33.13-.02.32-.12.53-.23Z" style="fill:#322925"/><path d="M79.03 24.5c-.7.41-.85 1.59-.87 2.42l-.08 3.59c-.03 1.43-.69 2.94-1.92 3.83-.32.23-.95.18-.99.71-.02.32.2.63.26.9.57.08 1.07.25 1.49.51.69.79-.6.91-1.19.47-.14.66-.45.61-.75.04-.35 1.52-.87 1.1-1.46-.07-.69.37-1.03-.2-.47-.74-.09-.26-.1-.73.16-1.03l1.05-1.17c-.02-.36 1.04-1.52 1.34-1.71.19-.12.45-.08.69-.03.66-1.68.83-3.51.52-5.48-.1-1.08.61-3.02 1.74-2.81.69-.38.96-.04.49.59Z" class="cls-320"/><path d="M76.02 18.23c.58.06.72.36.24.71.19.93-.95.99-1.56.71l-.14.43c-2.44 1.61-4.46 3.7-6.07 6.29l-.45.09c-.02.75-.83 1.14-1.34.53-.08-.22-.17-.55-.14-.77l3.72-5c1.4-1.89 3.5-2.93 5.73-2.99" style="fill:#302725"/><path d="M35.95 11.8c1.18.86 2.57 1.9 2.77 3.43 0 .32.11.65.17.96-.17.98-.64.27-.71-.48h-.21c-.07.69-.42.67-.6 0-.36-.01-.6-.29-.71-.84 0 0-.1 1.27-.29 3.81l-.49.81c.6.41.88 2.22.07 2.48.21.1.19.18-.03.26-.16-.08-.25-.23-.4-.54-.2.59-.09 1.18-.13 1.78-.4-.41-.55-1.07-.56-1.77l-.13-8.24c0-.47-.39-1.02 0-1.34.32-.26.85-.38 1.26-.33Z" style="fill:#342c2a"/><path d="M17.17 78.52c.55-.06.43.1.1.49l.16.55c-.58.65-1.2 1.46-1.12 2.37q1.515-1.35 2.94-1.29c.06-.72.88-.62.98.09-.2.33-.5.48-1.08.63.36.24.73.34 1.13.49-.98.22-1.99.73-2.67 1.54l-2.5 2.97c-1-2.89-.15-5.86 1.52-8.15.47-.52.7-.36.53.31Z" style="fill:#372c29"/><path d="M20.54 28.1c.55-.59 1.37.44 1.42 1.07 1.48.89 2.89 1.89 4.21 3.01l.3.82c.66-.25.87.35 1 .88.11.19.16.43.03.61-.77-.49-1.51.71-2 .83-.11.8-1.84.3-1.3-.43.25.04 1.19-.11 1.22-.45-.32-2.38-3.08-2.7-5.54-5.18-.46-.47-.78-.87-.69-1.52-.39-1.26.89-.35 1.34.35Z" style="fill:#211c1a"/><path d="M80.26 41.17c-1.49-.08.97-2.06 1.57-2.47 1.15-.65 2.37-1.16 3.66-1.54-.22-.34-.21-.56.15-.69-1.22-.18-2.46-.29-3.71-.32l-.16-.27c-1.12-.71.16-.8.99-.52l5.45-.48c.46 3.45-5.13 3.91-7.95 6.29" style="fill:#2c2420"/><path d="M91.24 52.99c.35-.34.86-.47 1.54-.38q2.1-.72 4.2-1.29l.25.29c.46-.48.64-.35.46.29-.87 1.31-2.45 1.48-3.86 1.9-.99.29-1.71.55-2.75-.12l-1.77-.13c-.61-.3-1.05-.48-1.61-.48-.85-.51-1.62-.43-2.5-.07l-1.49 1.08c.17-.44.27-.88.92-1.15.19-.14.08-.39-.21-.37-.16-1.1 1.7-1.38 2.61-1.33 1.14.07 3.41.98 4.22 1.77Z" style="fill:#3c3430"/><path d="M56.57 18.96c-.18.04-.35.13-.49.26-.08.66-.31.63-.5 0-.28-.14-.47-.47-.58-.99-.66.12-1.43-.99-.98-1.53-.86-.35-2.52-2.05-2.74-2.9-.3-1.17-.3-1.35.75-2.04l-.32-.68.63-2.4c0-.92.23-1.63.71-2.12-.31-.74-.23-1.4.54-.78 0 2.11.01 4.33-.82 6.42-1 2.51 2.61 3.07 3.78 6.77Z" style="fill:#302625"/><path d="M49.85 85.48c.44-.04.64.61.56 1.04.18.1.17.18-.02.25.5.42.35.61-.29.67-.22 1.39-.83 1.55-1.31.16l-.17.14c-1.04 1.64-.96 3.4-1.59 2.94-.14-.1-.19-.29-.2-.5.98-2.66.79-4.7-1.4-6.41.23-.14.37-.3.51-.55l.72-.02c1.18.69 2.25 1.45 3.2 2.28" style="fill:#2d2523"/><path d="M51.68 1.72c.1.18.11.27-.1.31-.07.39-.25.51-.59.36-.15 1.72-.53 3.34-1.14 4.88l-.7.22-1.98 2c-.41.26-.52.1-.24-.3l1.19-1.67c1.55-2.18 1.77-4.92.65-7.35 1.65-.6 2.24.65 2.92 1.56" style="fill:#3a2e2b"/><path d="M35.39 80.52c.72 0 .65.23 0 .49.73.17.26 1.32-.43 1.2-.87 2.33-.82 2.89.14 1.69l.52.25c.58-.42.85.09.37.59l-1.3 2.03c-.24.37-.94.73-1.36.3-.59-.59-.59-1.7-.31-2.47l1.58-4.41.81.34Z" style="fill:#362e2b"/><path d="m97.7 51.89-.46-.29-.16-.54c.49-.32.29-.6-.58-.85-.7.1-1.21 0-1.5-.3-.18.41-.25.42-.33-.02-.53.96-3.05-.3-2.67-1.3-.68-.22-.48-.78.22-.76l1.12.68c.67.74 1.89 1.01 2.85.86l3.67-.58c.28 1.44-.79 2.81-2.15 3.1Z" style="fill:#433936"/><path d="m6.05 46.95-.17.49c-1.19.32-2.16.91-2.91 1.76.64-.16 2.78-.17 3.17.28.14.16.14.41.14.62-.12.51-.58.64-1.03.56-2.9-.77-4.57 1.14-5.11 0-.15-.31.22-.54.39-.79.75.13 1.39-1.17 1.25-1.57.3-.26.51-.73 1.02-.92l2.72-.98c.43-.13.54.09.53.54Z" style="fill:#4b413e"/><path d="M15.95 35.61c.67-.42 2.08 1.17 1.67 1.83.12-.05.24-.08.35-.07.17.01 2.4 2.27 2.49 2.42l.03.6c.47.15.62.34.46.57-.21.18-.45.32-.73.48-.39-.05-.84-.14-1.23-.58l-3.02-3.44c-.42-.48-.59-1.02-.74-1.56l-.03-.11c-.1-.71.47-.77.75-.12Z" style="fill:#312825"/><path d="M6.29 50.1c.47-.62 2.14.33 1.95 1.06l.54-.19 3.48 3.02q.825.21.78.81c-.12-.03-.51.03-.61.16-.06.08.02.3.05.45-3.25-1.12-4.86-4.13-7.22-4.76.18-.46.61-.61 1.03-.56Z" class="cls-226"/><path d="M19.98 27.18c.67-.4 1.23.47.56.92l-.9-.54c-.12-.07-.4.1-.44.19-.72-.4-1.02-1.35-.98-2.3.1-2.59-.3-5.16-1.29-7.39-.29-.42-.28-.61.05-.59.79-.51 1.6.8 1.96 1.53l.41 6.02.63 2.15Z" style="fill:#302724"/><path d="M82.79 21.74c-.23.16-.63-.39-.35-.61v-.64c1.22-1.02 2.02-3.09 1.81-4.66-.01-.1-.28-.12-.5-.11q-.555.555-.48-.03l1.02-1.66c1.58-2.59 2.92 3.07-1.49 7.7" style="fill:#473c39"/><path d="M23.48 71.73c0 .73.2 1.41-.23 2.06l.15.64c-1.9 1.66-3.98 3.02-6.22 4.09l-.53-.31c.65-.89 1.43-1.63 2.47-2.29l2.72-1.75c.82-.53 1.17-1.5.88-2.37-.03-.71.55-.72.77-.05Z" style="fill:#2f2928"/><path d="M13.78 63.11q1.62-.135 3.27.12c1.18-.16 2.24-.08 3.19.26.1-.18.18-.16.23.04.73-.33 2.16-.91 2.48.03-.05.2-.28.5-.5.5-.23.36-.71.52-1.44.46l-4.87-.04c-1.2.18-2.82.55-4.12.25-.69-.76.61-1.68 1.15-2.13.57-.47.88-.14.62.51Z" style="fill:#39322f"/><path d="M21.23 16.69c.14.42 0 .44-.3.1-.76.76-2.8-.32-3.48-1.11-.24.34-.7.36-1.39.06.02.46-.02.68-.55.76-.45-.35-1.34-.66-1.74-.97-.18-.74.72-1.16 1.13-1.33.29-.12 5.32 1.12 6.33 2.48Z" style="fill:#49403d"/><path d="M85.77 84.21h-1.54c-1.16.64-2.85-.83-2.4-1.98-.77.16-1.51-1.81-1.19-2.39-.43-.15-.37-.35.1-.31.27-.56.35-1.16.25-1.81l.24-.17c.1-.05.29-.05.36 0 .34.26.04 4.67 3.17 6.42.27.15.92.02 1 .25Z" style="fill:#3d3330"/><path d="M61.28 18.15c.72-.17.86.5.25.87-.11.42-.57.79-1.03.68.25.62-.74 1.84-1.44 1.73-.18 1.55-.59 2.06-1.21 1.53.03-.08.02-.35-.06-.39-.29 0-.53.03-.7-.04-.26-.11-.51-.44-.52-.81v-1.75l.83 2.26c.53-.4.77-.99 1.06-1.62.57-1.27 1.58-2.12 2.54-2.89.58-.39.73-.05.28.44Z" style="fill:#322b28"/><path d="M32.75 23.65c.54.44.33.73-.33.54l-.59.21c-1.52-.61-3.17-.72-4.96-.31-.82-.01-1.29-.31-1.41-.89-.59-.37-.39-.66.28-.51 3.04.18 4.24-1.18 7.01.96" style="fill:#352c2b"/><path d="M48.59 97.7c.27.3.16.47-.25.47l-.92-.76c-.4-.67-1-1.37-1-2.25v-3.93c.67.28.43 1.1.63 1.74l1.53 4.73Z" style="fill:#39302d"/><path d="M19.01 60.15c-.16 1.02-1.27 1.68-2.23 1.36-.48 1.01-1.76 1.81-2.99 1.6l-.62-.51 1.41-1.2 4.16-1.78z" class="cls-285"/><path d="M14.48 47.48c.36-.33.54-.38.51.15.47.58-.35 1.22-.91.8-.74.58-3 .53-3.56-.37-.28.62-1.27.1-1.28-.53-.68-.18-.65-.46.03-.64-.67-.02-.63-.26 0-.47l1.69.48c1.21.34 2.38.62 3.52.58" style="fill:#524642"/><path d="M42.62 20.95c-.11.03-.22.05-.33.1-.12.06-.2.22-.18.39l-.24.24c-1.07-.29-1.9-.93-2.5-1.91-.66.35-1.3-.9-.74-1.36-.29-.29-.36-.52-.21-.7-.13-.72.31-.84.74-.27l3.47 3.51Z" style="fill:#413531"/><path d="m25.75 22.69-.28.51c-.2.58-.58.57-.74 0-.8.25-2.58-1.87-1.78-2.49-.84-.09-1.59-2.46-.95-3.01-.21-.1-.19-.19.03-.26 1.6 1.87 1.92 3.91 3.72 5.26Z" style="fill:#423936"/><path d="m92.21 47.83-.22.76c-.08.21-.17.21-.26-.01-.43-.07-.84-.16-1.23-.36-.48-.24-3.22-2.22-3.51-2.52-.1-.1-.38-.63-.28-.8q.06-.405.51-.48c1.99.63 3.26 2.37 4.99 3.42" style="fill:#342b28"/><path d="M16.7 33.38c.14.59-.36.99-1.49 1.18q.63.765 0 1.17l.03.11c-1.22-.46-2.5-1.04-3.09-2.43 1.63-.45 3.26-.61 4.56-.04Z" style="fill:#352d2b"/><path d="M39.89 80.77c.02-.39.65-.38.75 0l-4.66 3.98-.37-.59c-.3-.52.4-1.09.81-1.39.12-.65 1.41-1.61 2.07-1.44-.19-.44.12-.83.95-1.17.03-.2.08-.21.15-.01-.1.26 0 .63.3.62" style="fill:#2f2724"/><path d="m22.45 64.06.05.55c-2.04.78-4.27.59-6.36-.13.78-.12 1.46-.51 2.38-.5l3.94.07Z" style="fill:#1f1714"/><path d="M86.7 44.38c-.16.21-.49.38-.97.5-.03.13-.06.24-.11.25-.76.1-2.36.12-2.88-.25 0 .38-.41.37-.5 0-.49-.09-.83-.26-1.04-.51.1-.27.38-.5.78-.5h3.99c.39 0 .65.24.72.5Z" style="fill:#3b3431"/><path d="m20.24 44.42-.07.41c-.89.08-1.67.31-2.35.66-.28.74-.66 1.02-1.12.84-.15.8-.87 1.81-1.71 1.31l-.51-.15c1.05-1.38 2.18-2.76 3.7-3.57.43.67 1.33.51 2.06.51Z" style="fill:#453b39"/><path d="M80.7 72.51c-.06.36-.23.71-.5 1.03l-.62-.15-1.17-1.9c-.74-.59-1.21-1.2-1.39-1.86.25-.17.39-.35.53-.65 1.35.85 2.52 2.01 3.16 3.53Z" style="fill:#3d3432"/><path d="M82.52 22.03c-.83 1.21-2.28 1.75-3.49 2.47-.13-.27-.26-.44-.49-.59-.07-.16-.13-.3-.09-.33.89-.73 2.25-1.66 3.25-2.25.05-.03.16.04.29.14.36-.3.71.2.53.56" style="fill:#322c2a"/><path d="M53.61 5.77c-.37.09-.55.42-.54.78-.66.15-.92-.21-.77-1.1-.07-.8-.31-1.54-.71-2.2-.8-.04-.8-1.17 0-1.22l.1-.31c.93 1.24 1.94 2.43 1.93 4.06" style="fill:#413937"/><path d="M67.1 16.26c-.43-.12-.58-.48-.61-.84.17-.47.25-1.21-.27-1.52-.15-.09-.64.06-.68-.14-.18-.45.4-1.6.88-1.44 1.23.94 1.11 2.76.67 3.95" style="fill:#2c2624"/><path d="M81.24 77.53c0 .7.26 1.63-.5 1.98-.22-.08-.21-.16 0-.26l-.31-.6c.14-1.45.06-2.82-.25-4.1-.74-.05-.69-.85 0-1.02.16-.41.28-.66.61-.27.35.36.49.89.48 1.5l-.04 2.77Z" style="fill:#2f2624"/><path d="m82.76 35.36-.65.04c-.22.01-.48.14-.34.48-.37.45-2.07.43-2.52.03-.59-.09-1.02-.26-1.27-.53 1.45-.8 3.34-.77 4.79-.01" style="fill:#48403d"/><path d="m23.48 71.73-.77.05c-.43-1.26-.58-2.54.03-3.73.45.22.71.68.72 1.26l.02 2.43Z" style="fill:#1e1714"/><path d="m80.2 65.58-5.45.08c1.55-.91 3.91-1.06 5.45-.08" class="cls-320"/><path d="M17.78 33.86c1.19.52 2.37 1 3.66 1.05-.34.47-.94.59-1.5.53-.46.53-1.12.43-1.17-.33-1.26.13-1.88-.13-1.88-.78.22-.25.53-.4.88-.47" style="fill:#3b322e"/><path d="M77.98 35.37c.53-.05 1.06 0 1.27.53-.02.24-.27.34-.75.32l-.51.2c-.36.57-.7.61-1.07.03-.63.19-1.34.19-1.49-.51.54.04.93-.23 1.39-.51.38-.23.87-.04 1.15-.06Z" style="fill:#1f1815"/><path d="M9.27 46.42v.47c-.02.17-.05.31-.1.32-.38.06-2.86.17-2.95.06a.85.85 0 0 1-.16-.33c-.18-.05-.36-.09-.46-.23-.05-.07-.07-.2-.08-.31 1.23-.44 2.5-.33 3.75.02" class="cls-34"/><path d="M63.28 15.89c.56-.18.57-.12.24.35.83.8-1.59 2.95-2.24 1.92l-.28-.44 2.27-1.82Z" style="fill:#483f3b"/><path d="M34.63 25.46c.05.13-.09.38-.24.45-.9.64-1.54-.38-1.5-1.19-.5.51-.86.06-.47-.52l.33-.54c.67.52 1.52.91 1.88 1.81" style="fill:#29211e"/><path d="M.52 49.87c.39-.59.72-1.11 1.25-1.57.18 0 .51.35.43.48L1.02 50.6c-.21.12-.64-.54-.5-.73" style="fill:#2c221f"/><path d="M82.49 16.21c.66-.2.69.18.17.54.55.85-.62 2.1-1.43 1.43-.49 0-.73-.01-.39-.47.48-.56 1.05-1.11 1.65-1.51Z" style="fill:#554a45"/><path d="M79.5 17.73c.75.4.11.81-.54.69-.25.28-1.96.26-2.09.14-.07-.07-.11-.19-.13-.32.72-.74 1.82-.51 2.75-.52" style="fill:#8a7269"/><path d="M68.01 77.22c-1.17 0-2.42-.75-2.7-1.94 1 .46 1.94 1.15 2.7 1.94" style="fill:#453a38"/><path d="M24.95 65.52c.09 0 .22.02.33.08.12.07.19.26.14.43-1.25.5-1.18 1.47-1.78.71.37-.43.53-1.23 1.31-1.23" style="fill:#211a18"/><path d="m87.7 53.06-2.5-.07c.37-.28.59-.68 1.17-.65.55.02 1.1.17 1.32.72Z" style="fill:#453a36"/><path d="M21.53 43.45c-.56.64-1.82.99-2.6.38.64-.71 1.7-.44 2.6-.38" style="fill:#372f2d"/><path d="M70.58 77.25c-.21.47-.64.57-1.16.54-.33-.02-.75-.07-.8-.56.66 0 1.33-.21 1.96.02" style="fill:#312b29"/><path d="M78.74 44.38c-1.01.74-1.55-.77-.5-1.03.39-.29.78-.57 1.31-.69-.33.53-.66 1.11-.8 1.72Z" style="fill:#51433e"/><path d="m47.17 9.49-.77 1.38c-.34-.14-.5-.37-.59-.58l1.11-1.11.24.3Z" style="fill:#332b29"/><path d="m73.25 77.2-1.71.04c-.01-.24.14-.66.51-.69.53-.04.95.32 1.2.65" style="fill:#2d2624"/><path d="M83.75 15.73c.6.4.09 1.03-.5 1-.02.7-.37.67-.58.02l-.17-.54.78-.51.48.03Z" style="fill:#342723"/><path d="m16.98 17.47-.05.59c-.44-.47-1.17-1.02-1.42-1.56.58-.64 1.78.18 1.47.97" style="fill:#1e1613"/><path d="M64.6 15.4c-.22.01-.24-.06-.05-.21.05-.26.12-.83.53-.93.17 0 .43.25.38.38l-.85.76Z" style="fill:#423732"/><path d="m64.54 15.19.05.21c-.27.24-.56.41-.48.83-.07.7-.41.67-.6.01-.11 0-.23-.19-.24-.35.35-.28.75-.71 1.27-.7" style="fill:#2e2520"/><path d="m86.7 44.38.52.04c.03.07.02.22-.04.32-.09.14-.3.19-.47.16.09.53-.82.38-.99-.01.13-.42.56-.54.97-.5Z" style="fill:#181211"/><path d="m22.03 17.43-.03.26c-.35.99-1.8-.22-1.07-.9.07-.08.18-.08.3-.1.17.23.57.48.8.74" style="fill:#362823"/><path d="M51.05 94.73h-.5c-.27-.56.32-.72.5-1.05z" style="fill:#4a3c37"/><path d="m80.7 72.51.1.76c-.16.11-.36.23-.61.27.06-.21.01-.55.09-.82.04-.13.19-.27.41-.21Z" style="fill:#211816"/><path d="m82.44 21.13.35.61-.27.28c-.09-.26-.27-.47-.53-.56-.29-.31.15-.6.45-.33" style="fill:#201916"/><path d="M40.64 80.76h-.75c-.06-.16-.02-.43.13-.49.18-.08.52-.02.61.11.05.08.03.28 0 .38Z" style="fill:#17110f"/><path d="M53.11 76.47c.32-.41.87-.6 1.65-.58 1.25-.39 2.55-.57 3.86-.53l.55-.62c2.74-.54 4.94-2.18 7.11-3.81.23-.17.48-.24.77-.15.86-1.22 1.48-1.48 1.85-.78-.76 1.31-1.72 2.49-2.87 3.52-.09.31-.1.67-.03 1.07.48-.08.99.1 1.55.55l1.71.44.22.55c1.19-.1 2.37-.22 3.55-.36 2.18.32 2.53 1.9.52 1.47l-.32-.02c-.74-.31-1.09-.44-1.71.04-.28 0-.68.1-.96 0-.57.28-1.47.4-1.96-.02H68c-1.03-.43-2-1.06-2.7-1.94l-1.03-.48.49 2.71c-.02.76-.24 1.02-.65.77-.4-.15-.68-.53-.85-1.14l-.81-.79c-1.22 1.01-3.96 2-5.1.72-.07.22-.12.39-.14.52.59.79.66 1.34.22 1.65-.61-.18-1.15-.64-1.89-.7-.19.03-.22.56-.15.69-.39 1.26-.83.98-1.31-.83l-.19-.38c-.09.43-.44.6-.81.78-2.04.97-5.96.22-8.05-.49-.13 0-.47.88-.4 1.32.14.95.84 2.16 1.41 2.97l-.12.61c.53.55.17.92-.51.55-1.82-1.42-2.24-3.72-2.14-6.13l-2.64 3.11c-.32-.29-.36-.29-.75 0-.55.62-.65.41-.3-.62-.12-.46.1-.96.66-1.52l.26-.94c-1.59.82-2.9 0-3.94-2.48.37 2.18-.02 3.95-1.18 5.32-.4.6-.89.37-.81-.34.43-1.2.09-3.97-.14-5.93-.5-.25-1.32.31-1.53.77-1.86 4.04-5.76 6.31-10.21 6.28l-2.4.55c-2.05.24-1.78-.81-.05-1.11l.21-.54c2.76-.27 5.42-.81 7.98-1.63l.04-.56c1.5-1.47 2.82-3.18 3.95-5.1l-.02-.86c-.62.27-1.74-.3-1.41-1.04l-.51.16c-.9-1-1.79-2-2.67-3.01l.14-.6c-.61-.57.04-1.6.83-1.34.39.03.7.19.97.46 3.32 3.33 5.57 5.54 9.98 7.52 2.23 1 4.23 1.46 6.45 1.95l6.96.32Z" style="fill:#1e1816"/><path d="M67.1 16.26c-1.07 2.93-1.75 5.94-1.51 9.18.03.37.09.67.36.79.18.08.42.05.62 0 .66.03.69.43.14.77.17.2.19.41.03.4-.52-.04-.03-.28.43-.17.64.15 1.84.89 2.42 1.3 1.44 1 3.71 3.42 4.82 4.84l-.13.59.2.53c-.47.55-.94 1.11-1.41 1.67-.04.48-.23.47-.32 0-.98-.44-1.15-1.39-1.24-2.25-.51.53-1.9-.93-1.45-1.54-.56.18-1.13-.18-1.71-1.07-.25-.2-.37-.56-.35-1.09-.2.42-.63.08-.48-.31l-.57.14c-.89-.71-1.59-1.5-2.08-2.35-.56.61-1.77-.34-1.27-1.06l-.12-.58q.675-.165 1.11-.54c-.72-.1-.62-1.18-.27-1.6 0-1.86.09-3.6.66-5.43.13-.42.98-2.71 1.1-2.82s.28-.17.44-.23c.48-.1.65.45.61.84Z" style="fill:#342927"/><path d="M77.03 43.39c.62.38.85 1.31.19 1.74.51-.03.58.22.22.73.04 1.33.26 2.58.64 3.74.62.29.61.82.58 1.43l-.53 3.66c.55-.05.99.08 1.33.4-.06-.54.31-.82.78-.51 1.34-.52 2.49-1.36 3.61-2.24l.56.2c1.16-.32.61.43-.15.87l-.55.65c-.43 1.09-1.63 1.81-2.81 2.17l-3.37 1.03c.42.77 1.09 1.08 1.71 1.33.33.62.1.79-.49.42-.41.69-1.15.69-.97-.22-.33.1-.6.05-.79-.16-.28.48-.59.64-.92.49-.67.11-.63-.4-.24-.8l-.55-.19c.33-3.99.65-7.99.98-12l.52-.25c-.43-.38-.56-1.36-.48-1.94-.66.04-.69-.71-.27-1.13-.41-.21-.7-1.41-.68-1.87.04-.9.89-.46 1.31.25.35.59.99 1.92.37 2.19Z" class="cls-34"/><path d="M45.27 12.95c-.4 1.77-.24 3.33.48 4.69l-.25.58.22 1.38c-.67 2.43.58 3.23 3.74 2.39l.38.47c1.88-.25 3.76-.23 5.65.07l.62-.3c-.29-.06-.31-.14-.04-.28-.49-.1-.71-.36-.25-.56-.11-.89-.03-1.61.26-2.15-.1-.54.11-.65.49-.26.09.29 0 .71 0 1 .01 1.11.3 1.92.87 2.42.75-.4 1.05-.02.41.58.49.09.95.34 1.4.75.71.21 2.54.78 1.3 1.49-.22.13-.87-.06-.96-.33-.59.6-1.3.89-1.48-.12-.1.04-.21.07-.32.08-.4.03-2.8-.12-2.19-1.12-.66 0-1.49-.03-1.98-.51-.02.19-.08.48-.22.5-.99.11-3.42.11-4.42 0l-.36-.5c-.81-.15-1.63-.18-2.46-.08-.68.58-2.62.24-3.21-.5-.68.18-.94-.02-.52-.64-.57-.14-.68-.32-.32-.55-.64-.66-.2-1.04.51-.49.41.42.87.83 1.59 1.18.53-1.67.07-3.22-.02-4.9l-.2-3.71c-.04-.81.72-1.59.93-2.27 1.73-1.56 1.75 1.43.34 1.7Z" class="cls-243"/><path d="M66.49 15.42c-.78 2.09-1.59 4.2-1.92 6.54l-.02 3.53c-.55.72-1.42.56-2.61-.47-.74-.42-1.51-.79-2.29-1.12-.69-.24-1.3-.65-.61-1.22l1.51-2.34c.81.51 1.59.68 2.33.5l.4.37.42.28c-.32-1.4-.03-2.47.86-3.21l-.27-.54c.38-.44.65-.92.8-1.44-.39.17-.72.15-.98-.08-.82-.08-.15-.86.48-.83q.27-.57.48-1.14c.11-.12.29-.41.47-.51 1.01-1.34 2.24 1.33.95 1.67Z" style="fill:#6c5b56"/><path d="M35.92 22.24c.41.25.61.73.61 1.44q.555.93.21 1.56c.76-.18 1.06.5.4.89.67.26.41.77-.29.67-.04.65-.87 1.09-1.47 1.14l-.06.32c-1.47 1.14-2.94 2.3-4.4 3.49l-.02.58q-1.32 1.125-2.37 2.55l-.6-.1c-.44.5-.62.34-.42-.29-.52-.21-.48-.28-.03-.61-.11-.17-.28-.42-.19-.55.66-.91 4.17-5.19 4.83-5.63.16-.11.41-.03.6.03l-.17-.52 1.85-1.32q-.54-.57.24-.45c.18.18.71.46 1.07.21-.14-.73-.38-1.5-.33-2.19-.54-1.02-.12-3.12.54-1.24Z" style="fill:#312624"/><path d="M74.48 65.62c-.36.45-.25 1.29.34 1.66l2.73 1.71c.46.65.19 1-.53.65l-.56.27-2.92-1.25c-.76-.24-1.08-.63-.95-1.18-.44.24-.62.23-.54-.05-1.43 1.89-2.84 3.81-4.23 5.75-.54.07-.97.46-1.28 1.18l-.53.22c-.17-.23-.52-.31-.5-.69.05-1.16 2.18-2.32 3.13-4.06-.73.18-1.05.72-1.57.95a.7.7 0 0 1-.26-.22c-.1-.16.32-.88.47-1.13.32-.51 2.15-2.26 2.72-1.84.03-.63.99-1.96 1.66-1.59.36-.06.77.04 1.25.31.72-.95 1.24-1.18 1.58-.7" class="cls-320"/><path d="M49.57 90.03c.2.07.32.2.34.4-1.07 1.26-1.53 2.61-1.38 4.04.17-1.03.59-1.85 1.23-2.66.48-.61 1.57-1.89 2.3-1.54l-1.9 3.49c-.48.85-.21 1.93.43 2.45v1.31c-.26.2-.53.19-.74-.07-.03 1.18-1.22 1.46-1.26.26h-.35c-.95-2.03-1.55-4.18-1.81-6.46l.39-1.05.4-.02.8-2.41h.59q.195-.255.75.45c-.3.74-.23 1.36.21 1.83Z" style="fill:#4e3f3a"/><path d="M76.08 59.12c.71.04.66.5 0 .74-.44 1.2-.81 2.41-1.13 3.64.31.18.56.39.76.62.96-.03 1.89.03 2.78.18l3.05.84c-.17.64-.83.46-1.35.43-1.79-.47-3.67-.38-5.45.08l-.27-.05c-.72-.13-.7 1.37-1.78 1.18-.38-.07-.77-.35-1.04-.79l-.25-.23a52 52 0 0 0 2.04-3.72l.07-.32c.37-.28.61-.6.73-.97-.11-.07-.21-.15-.29-.26-.09-.12 1.14-2.4 1.28-2.41.23-.02.43.08.61.22l.24.8Z" style="fill:#241e1b"/><path d="m27.5 34.49.42.29c.37.19-.52 2.53-.63 2.62-.21.17-.39.29-.68.27.5.36.19 1.08-.33 1.04-.15.66-.35.91-1.01.59l-.25.08c-.23 1.23-1.41 3.61-2.79 3.27-.82-.26-1.55-.63-2-1.22-.19-.69.08-.77.73-.48l.28-.2c2.13 1.04 2-2.06 1.75-3.43l.43-.39c-.1-.79.64-.94.99-.29.83-.04 1.08-.24.73-.59l.37-.72c-.05-.97 1.52-1.97 2-.83Z" style="fill:#362c27"/><path d="M26.99 63.54c-.36.34-.82.24-1.38-.31 0 .4-.13.67-.42.83l-2.69.55c-.67-.07-.67-.3-.05-.55-.07-.24.09-.41.5-.5-.09-.63.32-.72.75-.3-.14-.32.03-.64.49-.93-.88-1.31-1.59-2.77-2.12-4.36l.33-.51c.6-.43 1.22-.89 1.35-1.64l.57.07 2.42 5.78c.67.84.75 1.47.24 1.88Z" style="fill:#2d2422"/><path d="M50.84 8.76c1.01.06.21 1.83-.65 1.39l-.82.41c-.33.66-.72.91-1.18.74-.64-.18-1.39 1.63-1.55 2.27-.3 1.2.01 2.12.41 3.25-.03.43-.28.74-.69.87-1.67.5-1.25-3.81-1.08-4.74l.69-1.88c-.55-.08-.76.1-1.02.18.14-.46.59-.67.88-.96.49-.17.94-.44 1.36-.81-.1-.38 1.49-2.13 1.63-2.12.12 0 .23.06.35.12l.21-.28c.58.2 1.07.71 1.47 1.55" style="fill:#907c72"/><path d="M26.7 66.53c.68.72.38 1.68-.6 1.29-.38-.04-.47-.25-.48-.57-1.82 1.47-1.08 3.21-.08 4.94.25.61.44 1.14-.31 1.34.76.1.25 1.87-.49 1.81-.98 1.38-1.48.87-1.51-1.53-.25-.54-.24-1.71.23-2.06l-.33-.11c-.13-1.19-.27-2.39-.41-3.58.26-.51.55-.88.91-1.3.4-.17.87-.48 1.43-.92l.35.21c-.18-1.25 2.2-.6 1.27.48" style="fill:#433734"/><path d="M74.99 36.96c.49.17.73.77.46 1.24 1.05.42 1.71 1.38 1.97 2.87-.38.73.27 1.4 1.03.91.8-1.23 1.4-1.49 1.82-.81.09.61-.45 1.06-.71 1.49-.47.6-.9.82-1.31.69.01.75-1.03.73-1.21.04.18-.98-.33-2.17-1.41-2.51-.08.81.17 1.43.42 1.94-.2.67-.54.55-.56-.14l-.5-.22c-.38-1.77-.98-3.48-1.78-5.1l.33-.47.62.74c.24-.28.51-.56.85-.67Z" style="fill:#322724"/><path d="M25.28 39.3c.77-.21.75 1.06.21 1.41-.1.73-.41 1.9-1.29 1.66.13.79-.03 1.35-.48 1.65.3.1.25.73-.06.81-.47.5-1 .18-1.2-.44-.48.51-.75.79-1.01 0-.25.41-.97.51-1.2.03-.67.13-2.4.35-2.06-.51l.75-.09c.88-.03 1.75-.16 2.6-.38l.7-.79c1.35-.92 2.12-2.32 2.79-4.09.3.22.22.47.26.74Z" style="fill:#201b19"/><path d="M28.36 65.28c.49-.15.9.64.4.94-.37.44-.64.84-.83 1.34-.56.65-1.27-.31-1.23-1.04-.16-.14-.17-.58-.45-.67-.31-.09-.57.08-.82.18-.37.07-.5-.14-.48-.52.1-.49.31-.97.23-1.46.37-.32.72-.16 1.06.48.17-.51.41-.84.74-.99.78-.34 1.75 1.1 1.38 1.74" style="fill:#2e2724"/><path d="M80.5 44.38c.39.1.64.26.75.5.55.3.28.41-.25.5-.15.79-1.45.65-1.75-.02-.07.42-.46.61-1.16.57l-.36.3c.81.36 1.11 2.9.35 3.37-.38-.15-.54-.55-.57-.96l-.29-3.51c.05-.75.95-.79 1.53-.74h1.76Z" style="fill:#312724"/><path d="M24.2 34.9c.24.46.81.56 1.3.43.33.3.22.76.01 1.04-.29.38-.73.31-1.11.27l-.12-.37c-1.42-.03-2.85-.11-4.3-.24l-.04-.59.1-.32 1.4-.21c.91-.1 1.84-.13 2.75 0" style="fill:#4b3f3b"/><path d="M17.78 33.86c.09.43-.2.58-.88.47-.08.53-.4 1.14-.95 1.28l-.75.12c-.19-.67-.57-1.15-1.06-1.86 1.09.07 1.98.21 2.56-.5l1.08.48Z" style="fill:#5c4c46"/><path d="m38.89 16.2.26 1.24-.74.27c-.49-.1-.96-1.67-.45-2l.2-.36c.22-.39.15.52.37.83.05.07.27.07.36.01" style="fill:#2f2421"/><path d="m80.84 17.72.39.47c.28.72-1.7 1.19-2.01.51-.26-.04-.35-.13-.26-.27.29-.14.49-.39.54-.69h1.34v-.01Z" style="fill:#362722"/><path d="M76.75 18.25c.66.4 1.47.22 2.21.18.09 0 .25.19.26.27.11.71-.47.71-.68.05-.67.41-1.75.9-2.29.19-.02-.24-.1-.49-.24-.71.2 0 .57-.09.73.02" style="fill:#1f1512"/><path d="M81.21 44.37c.4 0 .81.17 1.04.51.02.42-.87.4-1 0-.35 0-.65-.16-.75-.5h.71Z" style="fill:#1b1614"/><path d="M50.61 97.51c0 .76.16 1.56-.02 2.49-1.17-.04-1.73-1.01-2.24-1.83-.01-.2.02-.42.25-.47 1.12 1.03.4-.45 1.17-1.53.27.59.49 1.04.84 1.34" style="fill:#2d2321"/><path d="m72.58 67.48-.02.58c.92.44 1.26.95 1.02 1.51 1.25.71 1.7 1.4 1.9 2.87.07.54-.08 1.18-.71 1.1l-.22.5h-6.59c2.3.13 4.62.16 6.97.13l.34.56c.3-.8 1.5-.13 1.02.61.51-.02.78.21.93.67.68 2.22 1.52 4.29 2.52 6.23.6-.11 1.05.5 1.04 1.06.69-.44 1.13.36.48.83-1.48-.3-2.88-1.24-3.65-2.73l-2.27-4.37c-.18-.34.22-1.08-.05-1.34-1.05-.96-3.43-.99-4.28.35l-1.51.09c-1.27-.22-2.66-.45-3.48-1.53 0-1.01 1.15-1.27 1.65-1.93 1.4-1.89 2.44-3.92 4.24-5.47.28-.24.53.17.69.31Z" style="fill:#443a37"/><path d="M26.11 67.81c.72.13.49.91-.22.91.23 1.35.8 3.42 1.4 4.63.52 1.04 3.99-.01 4.47-1.35l.64.05c.15.07.36.14.44.25.15.2.17.62 0 .87l-2.45 3.55c-.55.79-1.13 1.53-1.96 1.84-2.42 1.41-2.3-.6-.54-1.84-.75.27-1.96.55-1.93-.45-.98-.18-.47-1.26.24-1.68-.4-.32-.71-.68-.95-1.07.38-1.42-1.99-3.02-1.01-5.25.3-.69.99-1.59 1.97-1.89.09.69-.06 1.06-.1 1.43" style="fill:#64534c"/><path d="M28.42 78.56c-.35.56-1 1.04-1.78 1.16l-6.4 1.01-.98-.09c-1.18.51-2.66-.94-1.04-1.34l.25-.53c1.89-.71 3.86-1.05 5.76-1.24-.47-.56 1.16-1.79 1.72-1.27 1.19.59 2.04-.36 3.2-.44-.55 1.12-1.47 1.76-2.36 2.62.68.35 1.17.14 1.62.11Z" class="cls-114"/><path d="m53.89 78.04.09.71c-.12.62-.73 1.54-1.24 1.88-.37.24-4.37.54-4.92.42l-.71-.47c-.52.52-1.35-.19-1.01-.82l-.58.02c-.18-.63-.15-.38.09.74.75.77 1.59 1.5 2.52 2.2-.07.27 0 .54.2.81.47-.6 1.94.8 1.54 1.44.22.31.21.48-.02.52-1.44-.51-2.81-1.19-3.93-2.26-.99-.95-2.2-3.96-1.11-5.54 3.07 1.26 6.18 1.4 9.09.35Z" class="cls-132"/><path d="M39.59 80.15s-.1.02-.15.01c-.63.28-.94.68-.95 1.17-.5.65-1.19 1.2-2.07 1.44-.12.23-.22.24-.3 0-.35-.25-.43-.69-.26-1.32l-.48-.42c.04-.11.05-.37 0-.49-.18-.58.25-1.16.52-1.73.64-1.33-.43-3.98.62-4.1.89-.1 1.06 2.38 2.62 2.88.67.21 1.23-.47 1.71-.89.5 1.48-.3 2.68-1.27 3.47Z" style="fill:#614f48"/><path d="M30.98 71c.34.38 1.15.56 1.41 1.04-1.81 1.97-2.68 2.69-5.47 1.79l-1.11-3.41c-.2-.62-.05-1.18.08-1.7l.56.12c.53 1.95 2.21 2.99 4.04 1.91l.5.25Z" style="fill:#433836"/><path d="M27.93 67.56 30.97 71c-.96.79-2.61.94-3.64.14-.78-.6-1.21-1.6-1.45-2.42l.22-.91c.46-.25.63-.76.6-1.29z" style="fill:#342d2a"/><path d="M64.12 78.29v.74c-.27.32-.66.17-1.18-.45-.6 1.92-3.69.55-4.92-.27-.33-.33-.69-.64-.67-1.23 1.76.16 3.64.14 4.97-1.38 1.09.57 1.82 1.51 1.8 2.59" style="fill:#453936"/><path d="M73.06 27.66c.44.23.68.71.74 1.44.17.7.5 1.06.97 1.07.51-.48 1.81-1.67 2.21-.4.17.53-.45 1.91-.69 2.44-.58.64-1.13 1.57-2.02 1.74l-2.51-2.74c-1.55-1.7-3.17-3.13-5.56-3.76.13-.27.36-.32.51-.45l1.34-.53.39.16 2.77-3.5.61.04c.23 0 .53.07.56.27.03 1.45.09 2.9.69 4.23" style="fill:#504340"/><path d="M59.06 22.68c.11 1.05 2.09 1.06 4.06 2.47.49.35.87.58 1.45.33v.38c0 .36-.71.31-.99.74-.26.72-1.1.53-1-.23-.31.33-.78.31-.73-.23-.35.68-1.92.03-1.79-.7-.3.33-.57.22-.49-.22-.48-.09-.46-.28.02-.36.34.01.87.12.9-.51-1.32.06-2.33-.54-2.64-1.4.62-.33.92-.94 1.21-1.53.69.31.51.83 0 1.25Z" class="cls-40"/><path d="M86.01 50.58c.06-.22.15-.22.26-.02.45-.67 1.03-.67 1.42.05.17-.72 3.05.73 3.16.87.12.17.13.39.11.6.77.25.87.55.28.91l-2.1-.55c-1.61-.99-3.26-1.01-4.72.1l-1.27.96c-.89.68-1.85 1.19-2.9 1.08.12-.39.63-.51.92-.79l2.55-2.42c-.27-.66.17-.99.8-.8.01-.18.07-.16.17.01.42-.17.89-.17 1.32 0" style="fill:#483c38"/><path d="M77.78 58.79c.15.26.73.27.97.22l-.11.48c1.08.85 1.67 1.84 1.78 2.95-.68.32-1.37.62-2.07.87l.15.75c-.65.11-1.58.18-2.21-.03l-.35-.15c.4-1.03.86-2.08 1.38-3.13-.53-.98-1.39-2.64.47-1.97Z" style="fill:#5c4e4a"/><path d="M77.78 58.79c-.35-.01-.62.14-.7.44-.11.4.36.53.56.82.52.79-.19 2.18-.81 2.79-.45.44-.68.67-.53 1.21-.45.26-1.06.08-1.25-.43-.07-.18.78-3.31 1.04-3.75-.08-.21.05-.54 0-.74.16-.21.33-.64.63-.84.52-.36.88.16 1.08.5Z" style="fill:#443732"/><path d="m78.24 43.35-.05.66c-.02.25.24.4.55.38-.32.5-.91.67-1.53.74-.05-.58-.3-1.11-.19-1.74l1.21-.04Z" style="fill:#1a1412"/><path d="M76.78 45.88c-.47-.01-.66-.34-.72-.69-.09-.46-.17-.96.24-1.25.42.53.53 1.23.48 1.94" style="fill:#342a27"/><path d="M48.19 11.3c.66.47.17 1.1-.54 1.19.52.41.34 1.56-.3 1.76q.435-.045.57.48c.82-.17 1.28.03 1.4.61.45-.35.68-.2.94.24.14-1.84 2.69-.37 1.81.66.05.5-.04.91-.29 1.24l-.46.37c-.88-.48-1.8-.88-2.75-1.2l.75 2.29c-.15.61-.63.84-1.42.7 1.32.82 1.31 1.38 0 1.67-.11.87-1.9.64-2.26-.16l-.13-2.92c-.98-1.61-.84-3.59-.23-5.27l.26 3.83c.01.26.53.51.7.45.15-.05.3-.2.34-.4.04-.21-1.94-2.88 1.29-6.18.28.09.33.44.33.65Z" style="fill:#695b56"/><path d="m48.62 23.21-2.53.02c-.09.1-.03.41.02.47-.43.75-2.42.9-3.22.56.4.48.12.61-.81.39.03.12.05.23.02.34-.05.23-4.25 1.54-4.49 1.52l-.49-.37c-.1-.33-.21-.64-.4-.89-.13-.47.2-.79 1.01-.96.57-.26 4.46-1.95 4.71-1.9.2.04.37.08.5.25.73-.24 1.81.43 2.64.43 1.07 0 2.14-.35 3.02.15Z" style="fill:#3b2f2c"/><path d="M36.99 21.99c.57.23 1.14.54 1.7.92.92-1.2 2.45-2.01 3.74-.92l.52.64-6.22 2.61c-.62-.86-.94-1.95-.82-3l.03-.26c.11-.73.88-.7 1.05 0" style="fill:#554642"/><path d="M47.9 21.3c.75-.45 1.63-.59 2.63-.41q1.395-.21 2.07.57c.03-.19.11-.37.29-.46.27-.15 2.14.42 2.54.64.27-.48.54-.22.65.31l.04.28-.33.28c-1.99-.25-3.97-.27-5.94-.05l-2.99.27c-.49.04-.98-.07-1.26-.36-.3-.3-.54-.85-.48-1.4l.38-2.74c.52.85.93 1.73.55 3.06l1.85.02Z" class="cls-40"/><path d="M54.38 19.52c.42.08.65.38.68.89-.09-.62.09-1.01.52-1.19h.5v2.72l-3.49-.48c-1.24-.28-.94-1.15.08-1.57-.64-.53-1.55-1.3-.66-1.89-.2-.44-.07-.65.36-.77 1.13-.33 2.74 1.19 2.01 2.29" style="fill:#564a46"/><path d="m42.11 21.44.32.55c-1.62-.06-2.37-.18-3.51 1.51-.95-.22-1.49-.88-1.93-1.51-.66-.04-.66-.19-.04-.46.1-.54.53-.5 1.3.1.09-.36.31-.58.65-.66q.12-.675.48-1.2l2.74 1.67Z" style="fill:#73615b"/><path d="M56.12 22.22c.26 1.68-3.38-.03-6.27.23 1.99-.73 4.17-.6 6.27-.23" style="fill:#302a29"/><path d="m62.94 78.58.49.25c0 .9.1 1.75.3 2.56l.37.09-.25 4.64c-1.7-1.06-1.61-3.58-2.34-4.31l-3.49-3.49c1.74.18 3.53 1.35 4.92.27" style="fill:#5a4a44"/><path d="M64.11 79.03v2.45c-.37.32-.38.87-.95 1.27l-.21-4.17c.12-.1.28-.56.57-.22z" style="fill:#6d5c55"/><path d="M64.57 18.29c-.3.53-1.08 1.3-1.71 1.34-.35.02-1.54-.15-1.33-.6l-.25-.87c1.02-.2 1.8-.99 2.24-1.92h.6c.2-.28 1.31-.75 1.43-.32.26.99-.71 1.73-.98 2.37" style="fill:#ad978b"/><path d="M63.29 21.21c-.92.43-1.95.38-2.65-.55-.3 1.03-.73 1.77-1.59 2.02-.04-.41-.06-.83 0-1.25.34-.68.89-1.25 1.44-1.73 1.13-.71 4.05-.24 2.79 1.51Z" style="fill:#76665f"/><path d="M63.29 21.21c-.06-.44-.17-.91-.45-1.19-.76-.76-1.73.23-2.34-.33.26-.23.48-.93 1.03-.68.4.18.82.32 1.38.05l1.66-.78c-.76 1.83-.31 3.74-.56 5.71-.68-.91-.59-1.91-.71-2.79Z" style="fill:#937f75"/><path d="M78.64 59.49c1.31.33 2.35 1.26 3.16 2.21l-.13.33c-1.03.26.22 1.01.89.93.44.62 1.32 1.08 1.45 2.15-1.85-.93-3.67-1.01-5.52-1.04-.41-.43-1.04-.44-1.75-.55.42-.73 1.16-.63 1.92-.75.17-.02.3-.67.47-.63s.64.32.93.13c-.36-1.65-2.4-2.52-1.43-2.79Z" style="fill:#726159"/><path d="M81.81 61.7c.34.39.48.8.76 1.26l-.61.64c-.72-.45-1.37-1.06-1.4-1.99.45-.06.8.1 1.25.09" style="fill:#8d776c"/><path d="m76.3 64.04 2.21.03v.23c-1.03-.28-2.71.33-3.73-.32s.37-2.41 1.31-4.13c.13.35-.14.64-.4.96 1 2.17-1.27 3.18.61 3.21Z" class="cls-34"/><path d="M84.23 84.21c-1.01 1.19-2.29.05-2.98-.09-.1-.29-.28-.71-.48-.83 0-.61.42-1.26 1.06-1.06.48.91 1.43 1.96 2.4 1.98" style="fill:#54443e"/><path d="M21.99 54.04c-1.65.16-3.37-.02-5.06.52-1.33.42-2.62.67-3.9.24-.27-.09-.79-.16-1.08-.41l-3.72-3.23c-.52-.81.26-1.63 1.22-1.27.79.88 1.71 1.62 2.77 2.19-.08-.77 2.15-.72 2.29.02l.89-.55c1.5-.27 2.88-.89 4.15-1.86q.495.24.9.39l.69-2.77.57-.21.5.28c-.08 2.06-.03 4.11.17 6.15l-.37.5Z" style="fill:#504542"/><path d="m22.41 57.46 1.68 3.99.77.86c-.28.58-.73.74-1.14.95-1.12-.32-2.14-.2-3.24.27-.06 0-.16 0-.23-.04-1.3.11-1.28-.34-1.05-1.44-.46.24-.86.25-1.21.05-.39.26-1.01.52-1.19-.04-.62.06-.4-.19-.02-.53.79-.41 1.52-.87 2.23-1.36.83-.57 1.78-1.14 2.4-2.11.29-.45.75-.41 1-.59Z" style="fill:#524540"/><path d="M23.66 44.84c1.12.18 1.19 1.75.05 1.8-.63.87-.08 2.14-.06 3.22l.07 4.52c-.32-.67-1.13-.4-1.72-.34-.28-.83-.3-1.7-.3-2.69V47.1c-.74-.09-.52-1.66.21-1.7-.54-.46-.05-.91.55-1.01.44 0 .84.18 1.2.44Z" style="fill:#2a201e"/><path d="m53.99 78.74.13 1.04-.17.71c.34 1.84-.11 2.85-1.36 3.05-.94-.39-1.93-.66-2.94-.81-1.08.28-3.13-.89-2.54-2.17l4.91-.19c.83-.03 1.19-1.44 1.97-1.63" style="fill:#493e3c"/><path d="M54.06 87.75c-.41.44-.72.53-.91.27l-.35-.7c.6-2.54.42-3.24-.53-2.1l-.61.08-.33.03c-.29-.7-.62-1.39-.97-2.07-.45-.08-.69-.25-.7-.52 1.36-1 2.93.93 3.55.13.67-.87-.02-2.65.91-3.08l.78 4.69c.21 1.28-.21 2.29-.84 3.27" style="fill:#645550"/><path d="M54.06 87.75c-.57.88-1.22 1.78-2.01 2.51-2.02 1.9-3.1 2.5-3.2 6.06-1.09-1.4-1.21-3.21-.3-4.67l1.01-1.62c-.48-.53-.03-.91.57-.54.11-.44.42-.51.9-.2l1.52-1.41.58.15c.21-.19.63-.22.91-.27Z" style="fill:#604f49"/><path d="M32.89 24.72c.43.48.92.94 1.5 1.19.33 1.24-1.2 1.28-1.68 1.84-.34.19-.78.25-1.3.2-.89.56-1.93.76-3.09.59-.42.83-.5 1.85-.24 3.07-.14.98-.92 2.19-1.59 1.04-.48-.14-.67-.64-.01-.76-.34-.32-.38-.81-.12-1.46.34-1.59-1.67-3.61-2.34-1.46l-.57-.17c-.64.56-2.09-.6-1.59-1.33-.33-.61-.54-1.21.37-1.09.17-.72 1.36-.67 1.47.12.4-.62 1.73-.1 1.98.47l.11-.27c1.44-.27 2.91-.4 4.38-.4-2.54-.14-.75-2.26.95-2.01.85.61 1.44.76 1.77.44Z" style="fill:#554846"/><path d="m32.71 27.75-5.24 6.14c-.64.1-.71-.6-1-.88-.16-.19-.15-.31.02-.36.3.09.63 0 .8-.24.14-.2.31-.47.29-.79l-.11-2.37c-.02-.47.33-.91.56-1.1.65-.54 1.64.42 2.7-.38.61-.46 1.35-.49 1.98 0Z" style="fill:#514441"/><path d="m82.44 21.13-.45.33-3.46 2.45c-2.69 1.9.24 5.56-2.25 8.3l.37-1.94c.05-.26-.23-.42-.33-.51-.13-.12-.5-.24-.58.19-.04.22-.12.59-.37.67-.22.07-.52-.2-.61-.45-.67-.4-.92-1.17-.77-2.32-.01-1.09.24-2.14.76-3.15-.27-.4-.12-.52.29-.24q.555.135.57.78a22.5 22.5 0 0 1 5.62-4.54l.09-.55.08-.56c1.11-.49 1.92-1.1 1.59-2.33-.02-.07 0-.15.03-.23.05-.11.12-.21.21-.31-.03-.36.35-.72.5-1 .22-.4.41-.79.98-.99.13 2.45-.42 4.99-2.3 6.39Z" style="fill:#4e3e3a"/><path d="M75.74 36.92c.32.21.69.27 1.11.17l.13.36c2.34-.31 5.59.56 1.97 2.46l-.29-.27c-.32-.15-.59-.46-.83-.92-.95.12-1.74-.06-2.38-.53-.29-.34-.67-.56-.46-1.24.23-.08.51-.06.75-.04Z" style="fill:#594c47"/><path d="M78 36.42c.71.28.25.87-.37.88-.08.17-.29.22-.65.15-.41-.12-1.01.02-1.24-.54.46.1 1.04.03 1.19-.47.35-.1.7-.05 1.07-.03Z" style="fill:#84756c"/><path d="M77.02 69.64c1.52.83 2.51 2.44 3.18 3.9v1.02c.3 1.22.38 2.54.23 3.96l.32.74v.26l-.11.31c-.25.92-.86.25-1.21-.34l.7 2.31-.4.41c-1.79-.8-1.51-3.67-3.46-6.9.07-.55.56-.8 1.07-.82.39-.29.81-.14 1.27.46.19-2.16-2-3.71-3.86-4.45l-1.18-.95c-.58-.88-1.92-1.12-1.47-1.81.07-.11.22-.21.47-.29 1.14.95 3.12 1.43 4.44 2.15Z" style="fill:#6f5f59"/><path d="M50.09 87.44c.61.39.63 1.62.04 2.04l-.57.54c-.31 0-.71-.09-.87-.29-.37-.47.6-1.68-.09-2-.35-.16-.35-.98-.07-.97.45.01.52.7.55.96.06.38.61.37.8.13.08-.11.13-.22.2-.42Z" style="fill:#423735"/><path d="m16.9 34.33 1.88.78-.2.58c.5.35.7.76.62 1.24 1.27-.03 2.54-.04 3.81-.04.05-.66.29-.61.41.05.31 1.34.42 3.16-.59 4.33-.43.51-1.5.01-1.87-.3-.14-.13-.35-.4-.46-.57l.15-.5c-.59-.71-2.22-2.17-3.04-2.44l-1.67-1.83c-.01-.59.31-1.21.95-1.28Z" style="fill:#6c5d56"/><path d="M18.78 35.11c.36.15.82.1 1.17.33 1.63 1.03 3.95-.2 5.4.85l-.94.35c-.34-.03-.71.13-.99.29l-.41-.05c-1.29-.07-2.56-.06-3.81.04-.57-.47-1.17-.89-1.48-1.75z" style="fill:#89776e"/><path d="M78.54 18.75c.13.56-.2 1.05-.98 1.47l-.14.6c-2.01.49-3.34 1.04-3.9 3.09.74.1.4 1.29-.31 1.24v1.61c.61.18.44.7-.14.9-1.64-1.39-.89-3.05-1.24-4.5-.53-.63 1.03-1.94 1.61-2.42 1.01-.37 1.43-.74 1.27-1.09l1.56-.71c.72-.33 1.51-.13 2.29-.19Z" style="fill:#7d6c66"/><path d="M74.7 19.65c.21-.02.43.01.46.25.03.26-.05.48-.4.54-.97.16-1.34.94-1.91 1.58l-1.02 1.15-3.51 4.27c-.38-.09-.34-.71-.26-.97 1.8-2.97 3.47-5.37 6.65-6.81Z" style="fill:#83716b"/><path d="M26.99 63.54c.02.67-.02 1.51-1.02 1.56-.28-.43-.46-.82-.78-1.04-.15-.51-.28-1.1.19-1.57l1.6 1.06Z" style="fill:#171210"/><path d="M23.71 63.25c-.23.11-.48.3-.75.3l-2.48-.03c1.04-1.31 3.32-1.18 3.24-.27" style="fill:#64534b"/><path d="M37.36 15.73c-.17 1.13.01 2.35.55 3.66q1.2.75.99 1.59c.09.37-.2 1.25-.74 1.18-.42-.05-.79-.71-1.2-.63h-.33a9.5 9.5 0 0 0-.74-2.04c-.05-1.74.05-3.52.4-5.39.89.17 1.09 1.04 1.09 1.61Z" style="fill:#7e6961"/><path d="m36.95 21.54.04.46h-1.05l-.07-2.49c.45 0 .81.29.89.82l.18 1.22Z" style="fill:#6a5750"/><path d="m37.96 15.72.45 2 .21.7c-1.19.59-1.73-1.9-1.27-2.68h.6Z" style="fill:#63544e"/><path d="M53.07 6.55c.03 1.78-.53 3.5-1.03 5.21-.33.24-.59.55-.79.93-.58-.38-.96-1.03-1.14-1.96-.68-.14-.6-.49.08-.58.28-.27.81-.98.65-1.39-1.11-.5-.54-2.48.57-1.95q.15-1.65-.06-3.36l.24-.21c1.07.49.62 2.39 1.48 3.31" style="fill:#5f504c"/><path d="M51.58 2.03c-.06.39-.08.82 0 1.22l-.24.87c.13.95.15 1.85.05 2.7-.71.6-.89 1.14-.57 1.95-1.03-.01-1.01-1.09-1.69-1.27 1.04-1.73 1.54-3.71 1.24-5.77l1.19.31Z" style="fill:#7b655c"/><path d="m50.19 10.15-.08.58.33.46-.85 1.88c.64 1.48.56 2.24-.26 2.27-.52-.22-1.25-.08-1.86-.11-.16-.44-.09-.7-.1-.98.02-.37.31-.6.85-.68l.2-.38q-.45-.21-.75-.69l.54-1.19.73-.97c.35-.47.93-.5 1.27-.18Z" style="fill:#a08e86"/><path d="M24.76 75.32c.96.78-.95 2.43-1.81 1.75 0 .2 0 .51-.13.56-.85.32-3.43.95-4.35 1.12-.06.01-.15-.11-.25-.27-.09.61-.38.84-.95.54l-.1-.49c1.66-2.23 4.58-2.51 6.08-4.73.68.05.76.88.48 1.94l1.03-.41Z" class="cls-114"/><path d="M18.22 78.47c.65.13.64.4 0 .83-.08.27-.27.5-.19.91.58-.08 1.01.1 1.23.44l-3.41 2.18c-.36-1.64.47-2.84 1.42-3.81.27-.28.58-.43.95-.54" style="fill:#5d4a43"/><path d="M21.86 27.46c.5.55.9.99 1.59 1.33.73-.58 2.87.6 2.21 1.66-.31.5-.46.42-.89.03l-.54.11-2.26-1.42c-.68-.09-.89-.75-1.42-1.07-.04-.4-.39-.62-.56-.92-1.12-1.86-.16-4.26 1.09-1.41.56.51.82 1.08.79 1.69Z" style="fill:#77645d"/><path d="m24.77 30.48.6-.09c.43.48.8.98 1.11 1.49-.08.2 0 .55.01.76l-.02.36c-1.12-1.09-2.34-1.99-3.69-2.9-.4-.27-.71-.56-.82-.94.98.14 2.04.63 2.81 1.32" style="fill:#382b27"/><path d="m79.25 35.91 2.52-.03 5.04.1c-.33.83-.96.84-1.32 1.18-2.41.72-4.3 1.61-5.91 3.66-.27.21-.52.32-.82.08-.42.59-.63.5-.54-.22-.43-.46-.24-1.06.43-1.03.66-.12 1.25-.46 1.48-1.33-1.31-.7-2.26-.6-3.16-.86l.65-.15c.54-.33.66-.63.37-.88.19-.47.8-.51 1.26-.52" style="fill:#75645c"/><path d="M85.5 37.16c-1.32 1.21-3.29 1.08-4.7 3.04l-.56.37c-.11.08 0 .45.03.6-.2-.06-.52 0-.75.22l-1.89 1.73c-.71-1.74-1.02-3.6-2.17-4.93h2.28c.66.03 1.06.89.92 1.45-.07.31-.19.86-.43 1.03.11.23.29.29.54.22l2.91-2.54c1.07-.93 2.52-.98 3.81-1.2Z" style="fill:#4b3d38"/><path d="M97.24 51.6c-2.47.45-3.59 2.01-6 1.39l-.28-.91c.78-.52 1.73-.73 2.83-.65.65-.61 1.32-1.02 1.95-.28l.08-.35c.41.12.37 0-.12-.35-.26.87-1.37.21-.71-.54l3.99.28c-.78.3-1.32.77-1.74 1.41" style="fill:#5d4942"/><path d="M52.04 11.76c-.59.67-.59 1.55-.01 2.31l2.01 2.63c-.28.72-1.96.28-1.96-.47-.19-.53-.61-.9-1.22-1.24-.1.61-.06 1.04-.6 1.56-.28-.42-.52-1.04-.93-1.22.64-.67-.49-1.88-.18-2.55l.96-2.06c.24-.01.42-.07.75-.22-.06.77.06 1.3.37 1.84.3-.44.55-.52.81-.59Z" style="fill:#504240"/><path d="m52.07 16.23 1.96.47c.37.48.77.96.98 1.53.62.73.08 2.57-.63 1.29-.1-.82-.83-1.51-1.51-2l-.85.48c-.61.13-.61-.05-.24-.53-.16-.24-.24-.55-.22-.85.02-.23.24-.41.51-.39" style="fill:#8a7770"/><path d="m55.59 19.22-.02 2.23c-1-.29-1.08-1.12-1.19-1.93l.39.13c.22-.5.27-.95.24-1.42.4.18.58.56.58.99" style="fill:#796861"/><path d="m53.15 88.01-1.83 1.65c-.32.29-.94-.19-1.18-.18-.16-.68-.17-1.37-.04-2.04.04-.24.16-.47.29-.67l.46-.34c0-.8.26-1.18.82-1.14.26-.66 1.01-1.16 1.95-1.24.06 1.37-.13 2.68-.46 3.97Z" style="fill:#4e413e"/><path d="M50.35 83.26c.5 0 .94.34 1.06.93l.25 1.1-.65 1.62c-.11.29-.55.02-.64-.14-.01-.06-.01-.2.02-.25-.03-.52-.2-1.03-.54-1.55l-1.54-1.44c-.93-1.25-.26-1.34 2.02-.26Z" style="fill:#7e6f67"/><path d="M50.41 86.52c-.1-.39-.32-.73-.56-1.04l.02-.52c.44.42.93 1.02.54 1.55Z" style="fill:#504440"/><path d="m25.95 76.27-1.72 1.27c-.75.33-2.05.53-1.28-.46.92-.27 1.54-.77 1.81-1.75l.49-1.81c.78.04 1.36.49 1.65 1.44-.24.1-.69.15-.83.35-.19.28-.13.71-.11.97Z" style="fill:#8c7870"/><path d="M21.44 44.39c.68.43.28.78-1.17 1.03-.91.47-1.61 1.26-2.1 2.38-.41.74-.82.95-1.23.62-1.2-.1-.82-1.37-.24-2.1.43-.45.66-1.54 1.54-1.68.71-.11 1.43.14 2.01-.23.26-.17.89-.03 1.2-.03Z" style="fill:#6a5951"/><path d="m22.46 44.4-.55 1.01c-.17.37-.55.58-1.15.62-1.32 1.2-2.46 2.64-3.43 4.32h-.61c-.35-.09-.61-.34-.76-.73-.27-.57.36-1.39.99-1.19 1.86-.63 1.37-3.24 3.56-3.27.49 0 .95-.34.95-.76h1.01Z" style="fill:#907f79"/><path d="m24.16 44.11-.45-.08c.05-.61.15-1.15.48-1.65.35.49.44 1.37-.03 1.74Z" style="fill:#382e2a"/><path d="M36.12 82.75c.11.03.22.03.3 0-.17.43-.43 1.14-.81 1.39-.66.42-1.13.95-1.58 1.88-.49-1.37-.18-2.9.92-3.82q.54.21 1.17.54" style="fill:#45332d"/><path d="M36.12 82.75c-.38.21-.6.61-1.16.74v-1.28l.43-1.2c.34-.11.69-.17 1-.12-.04.82 0 1.36-.26 1.86Z" style="fill:#705b52"/><path d="m94.66 49.88.33.02c-.21.21-.14.42.09.48.21.05.48.1.62.06.71-.09.7.5.04.7-.41.14-.94.03-1.43-.15-.17.24.14.47.26.52.1.04-.14.38-.24.34-.77-.32-2.45.64-3.37.22l-3.27-1.47c-1.62-.59-.29-2.53 1.25-1.42l1.32-.35c.64.1 1.28.48 1.93 1.12 1.23.85 2.06.82 2.47-.07" style="fill:#816c64"/><path d="M91.73 48.58h.26c.72.72 1.64 1.23 2.67 1.31.13.27.16.79-.1 1.03-.64.56-3.13-.34-4.3-2.08-.23-.03-.22-.11 0-.22-.07-.54.42-.56 1.46-.04Z" style="fill:#8f766b"/><path d="m9.27 46.9-.03.64-.29.51c-2.11-.01-2.44.09-1 .3l.22.56c1.05-.09 1.58.12 1.6.62.71-.18 2.1.33 1.65 1.2.98.38 1.24.83.79 1.37-1.28-.01-2.45-.77-3.17-2.01-.5.32-.49.77-.82 1.08l-1.95-1.06c-1.25-.68-2.54-.65-4.19-.15.49-1.91 2.33-2.55 3.95-3l3.22-.05Z" style="fill:#695853"/><path d="M20.5 40.38c-1.21-.62-1.99-1.96-2.88-2.94.41-1.27 2.11 1.38 4.4 2.82-.6.32-1.07.2-1.52.12" style="fill:#7f6d66"/><path d="M17.45 15.68c.9.68 2.24 1.96 2.23 3.05.99.71 1.48 1.8 1.46 3.24l.13 1.74c.56.59 1.41 1.9.97 2.66-.19.35-.27.72-.37 1.09-.71-.78-1.52-1.46-1.75-2.81-.33.88-.25 1.7-.13 2.53-.35-.65-1.1-1.45-1.15-2.3l-.28-5.27c-.05-1.03-.94-1.55-1.57-2.14-.48-.45-.94-.75-1.47-.97.06-.2.02-.73.06-.97.46-.67 1.38-.01 1.88.15" style="fill:#62504a"/><path d="m16.77 61.51.02.53c.07.4.47.42 1.19.04.24-.29 1-.62 1.36-.5.72.24-.01 1.31.32 1.66.12.12.4.18.58.23-1.9.39-5.68.28-6.46-.37l2.99-1.6Z" style="fill:#50403b"/><path d="M20.93 16.79c.21.43.52.91 1.07.9l.95 3.01c-.09.73-.99.71-1.16.01-.75-.61-1.46-1.27-2.11-1.99-.9-.72-1.68-1.89-2.23-3.05l3.48 1.11Z" style="fill:#8b756c"/><path d="M80.64 79.83c.64.72.79 1.64 1.19 2.39-.25.52-.6.87-1.06 1.06-.53-.21-.89-.51-1.04-1.06-.34-1.29-1.16-2.46-.66-4.06.86.85 1.04 1.93 1.57 1.67" style="fill:#63544f"/><path d="M25.47 23.2c.77.18 1.73.75 2.66.44 1.5-.5 3.09-.33 4.29.55l.47.52c.2.21.15.61-.11.72-.59.25-1.39-.83-2.2-.72-.46.06-.87.43-1.48.88l2.31.38c.12.08.16.62.02.76l-5.74.21c-.7-.05-.65-.35.01-.54.1-.39.43-.64.98-.77 1.21-.63 1.11-.85-.3-.67-1.01-.05-1.53-.41-1.57-1.07-.94.36-1.06-.78-.09-.72.2.02.49-.05.74 0Z" style="fill:#a29089"/><path d="M16.94 48.42c-.24.47-.54.89-.99 1.19.3.68-.26.75-.71.27.07.75-1.36.66-1.45-.05-.96-.23-1.26-.57-.91-1 .49-.07.9-.2 1.22-.4l.91-.8c.51-.45 1.2-.76 1.71-1.31 0 .74-.19 1.5.24 2.1Z" style="fill:#7b6962"/><path d="M9.24 47.53c.57-.02.88.49 1.28.53.7.16 1.13.87.45 1.34-.14.5-.81.14-.68-.31-.69 0-1.4-.06-2.12-.19l-3.03-.66c1.41-.85 2.8-.66 4.1-.71" style="fill:#96837a"/><path d="M14.09 48.44c.27.51-.53.74-1.13.69.24.38.58.48.83.71-.2.78-2.67.34-2.8-.44l-.45-1.34 3.56.37Z" style="fill:#917e78"/><path d="m38.63 18.41.74 1.36c.17.31.27.62.62.86-.5.32-.75.3-1.1.35l-1.57-1.44-.34-2.44c-.09-.63-.16-1.35.37-1.37-.02 1.09.38 2.01 1.27 2.68" style="fill:#a79187"/><path d="M22.95 20.7c.31.99 1.2 1.65 1.78 2.49-.1.11-.17.27-.17.38 0 .13.1.26.26.34.29.49.04.61-.41.76-1.44.49-2.71-1.99-2.5-3.2-.71.09-.76-.48-.12-.75h1.16z" style="fill:#a08b83"/><path d="M85.73 44.88h.99l3.38 2.37c.61.43.98 1.1 1.64 1.33l-1.46.04c-.48.44-1.15.09-1-.57-.81-.08-1.6-.42-2.38-1 .08.2.02.4-.17.61 1.05.46 1.19 1.49.08 1.78-.46-.16-.77-.58-.94-1.25l-1.37-1.45-.61-.14c.18-.48.14-.88-.13-1.21-.19.55-.89.58-1.02 0-.66-.08-.63-.31 0-.5h2.99Z" style="fill:#857169"/><path d="M39.44 80.16c.24.78-.7.83-.95 1.17-.33-.11-.62-.35-.45-.64s.35-.49.58-.61c.25-.12.58-.09.83.08Z" style="fill:#6e5b52"/><path d="M81 45.38c.21-.31.57-.39.66.04.74.14 1.36.38 1.84.73.27.33.35.75.24 1.25.13.62.53 3.1-.4 3.16-.24.01-.45-.11-.62-.27.02-1.26-.34-2.55.04-3.84-1.08.03-1.95-.23-2.78.11-.06.02-.18.03-.26.03-.69-.19-1.14-.72-.48-1.24l1.75.02Z" style="fill:#847069"/><path d="M82.24 44.88h.5v.5c.11.65-.67.29-1.09.04l-.66-.04.25-.5z" style="fill:#56433f"/><path d="M80.75 79.26a.85.85 0 0 1-.65-.83l.09-3.86c.3.09.51.33.56.72v3.98Z" style="fill:#655550"/><path d="M83.25 16.73c.09.23.5.57.45.93-.22 1.42-1.23 2.13-2.37 2.5.31.71-1.65 1.3-2.01.65-.33.11-.58 0-.74-.36-.43.15-.76.07-1.01-.22.07-.63.52-1.07.98-1.47l.68-.05 2.01-.51c.7-.18 1.13-.81 1.43-1.43l.58-.02Z" style="fill:#987e73"/><path d="M77.35 74.51c-.58.36-1.66-.42-2.11-.91-.12.66-.35.59-.47-.06.65-1.63-.26-2.56-1.18-3.97 3.28 1.02 6.12 2.86 5.58 6.54l-1.81-1.61Z" style="fill:#594a47"/><path d="m74.76 73.54.47.06c.63.27.64.83.02 1.12-3.92-.67-7.83 1.1-8.19-1.19h7.7Z" style="fill:#655650"/><path d="M77.35 74.51c-.07.57-.57.81-1.07.82-.18-.3-.68-.55-1.02-.61-.07-.37-.08-.75-.02-1.12.87-.12 1.52.38 2.11.91" style="fill:#86766f"/><path d="M24.23 77.53c-1.52 1.12-3.56.44-6.02 1.77.07-.23 0-.56 0-.83l4.74-1.4c0 .26.21.44.41.47.3.06.62.03.87 0Z" style="fill:#6b5b53"/><path d="M47.11 80.57c.65.98 1.31 1.99 2.54 2.17l.7.52c-.98 0-2.28-.92-2.12-.33l.1.6-2.47-2.02c-.19-.16-.51-.39-.43-.57l.18-.42c-.56-.57-.24-1.24.49-.76l1.01.82Z" style="fill:#6b5d57"/><path d="M46.1 79.74c-.35.12-.37.49-.49.76-.64-.11-1.11-1.49-.51-1.74s.74.77 1 .98" style="fill:#524743"/><path d="M74.76 30.17c-.15.19-.21.41-.36.8a4.6 4.6 0 0 1-1.35-3.31c.02-.85-.07-1.66.14-2.51l.59.1c.21-.52.53-.7.96-.55-.25 1.8-.44 3.72.01 5.47Z" style="fill:#98867f"/><path d="M84.5 46.73c.41.35 1.53 1.33 1.53 1.84 0 .44-1.05 1.78-1.51 2-.16.37-.53.55-.8.8-.34.04-.83.1-1.1-.23-.16-.2.1-.62.1-.85 1.68-.46-.11-2.51.77-4.15-.42-.5-.38-.64.26-.77.97 0 1.94-.19 3.06.29-1.42.89-3.05-.16-2.32 1.06Z" style="fill:#b39b89"/><path d="M89.27 48.04c.3.19.77.25 1 .57-.02.08-.02.17 0 .22-.09.53-.54.75-.95.82-.57.09-1-.03-1.42-.51-.23.13-.41.3-.59.56.19.3.33.58.39.91l-1.42-.05c-.67-.34-.14-1.3.53-1.13.28-.59.46-1.22-.08-1.78.32-.46.89-.38 1.69.23l.86.17Z" class="cls-220"/><path d="m86.8 49.43-.53 1.13-.26.02c-.43-.16-.89-.16-1.32 0h-.17c.09-.73.53-1.31 1.07-2.04l-1.09-1.82c1.2.47 2.19 1.35 2.3 2.7Z" style="fill:#9a867a"/><path d="M86.01 50.58h-1.32c.33-.32.99-.33 1.32 0" class="cls-220"/><path d="M51.78 17.47c.1.16.25.33.24.53-.04.87.84 1.36 1.65 2.05l-1.47.62.4.79-4.7-.16c.19-.33.43-.5.75-.75-.62-.07-.92-.25-1.15-.61-.13-.21-.28-1.01.13-.94l1.27.22-1.06-3.23c1.68.13 2.73 1.1 3.94 1.49Z" style="fill:#463d3b"/><path d="M47.36 14.25c-.03-.62.04-1.19.3-1.76l1.23.02c.07.58.05 1.17-.4 1.46-.29.19-.74.27-1.13.27" style="fill:#c5b7af"/><path d="m21.91 45.41-.2 1.7-1.01 4.05c-.47-.26-.66-.61-1.11-1.05a7.27 7.27 0 0 1-5.07 2.01c-.46-.49-.23-.8.7-.96-.51-.51-.08-.91.54-.57-.05-.65.57-.66.96-.23l2.66-3.81c.61-.87 1.58-1.28 2.54-1.13Z" style="fill:#5c504e"/><path d="m15.21 51.15-.7.96-2.29-.02-.79-1.37c1.06-.52 2.86-.3 3.78.44Z" style="fill:#73655f"/><path d="M17.97 62.09c-.2.23-.31.46-.56.57-.44.19-.74.11-1.03-.29.2-.21.31-.27.41-.33.38-.04.77-.03 1.19.04" style="fill:#6d5851"/><path d="M24.82 23.91c2.41 1.35 3.69 0 4.16.39.1.09.21.25.09.41-.09.11-.47.15-.62.26-.92.65-1.64 1.48-2.75 1.45-.38.28-.8.11-1.28-.49-.17.32-.41.51-.71.57-.43-.16-1.06-.03-1.47-.12-.38-.85-1.13-1.67-.97-2.66-.19-.77-.53-2.56.64-2.24l1.37 2.4c.41.73 1.19.26 1.55.04Z" style="fill:#c9bbb3"/><path d="M26.47 31.89c-.91.05-1.18-.94-1.71-1.41.4.07.78-.71.51-.81-.75-.26-1.27-.6-1.83-.88.39-.16.49-.87.69-1.23 1.36-.38 2.76.91 2.74 2.37-.01.77-.17 1.36-.41 1.95" style="fill:#665752"/><path d="M25.7 26.42v.54c-.73.03-1.34-.22-2-.47-.03-.35.38-1.55.72-1.24l1.28 1.16Z" style="fill:#95837d"/><path d="m81.33 20.16.94.45-4.69 3.18-1.86 2.23c-.63-.26-.72-1.01-.68-1.56-.42-.48-.09-1.37.54-1.48.89-.91 1.91-1.69 3.05-2.32l.68.15 2.01-.65Z" style="fill:#3f322f"/><path d="M75.59 22.98c-.08.52-.17 1.18-.54 1.48l-.29.24-1.4 2.13-.15-1.68.31-1.24c.34-1.04.96-2 1.99-2.48 1.96-.92 1.25.83.08 1.55" style="fill:#c3b0a7"/><path d="m77.62 37.31.37-.88h5.76c.21-.01.45.28.47.44l-4.96.11c-.48 0-1.1.74-1.64.33" style="fill:#aa968a"/><path d="M23.01 36.88c-1.56.62-2.63 1.02-3.81.04 1.14-.86 2.71-.89 3.81-.04" style="fill:#b7a59c"/><path d="M79.31 20.81c-1.13.72-2.37 1.67-3.73 2.17.09-.6.42-1.04.94-1.46-1.63.17-1.91 1.82-3.01 2.39.13-.51-.24-1.4.3-1.9 1.07-.99 2.52-1.26 3.74-1.79.32-.14.67-.31 1.06-.27.33.03.57.41.7.85Z" style="fill:#b39f97"/><path d="m51.59 3.25.45 2.01c.14.64-.22 1.21-.63 1.55-1.03-1.85-.46-3.89.18-3.56" style="fill:#9b857a"/><path d="M78.77 40.9c-.19.25-.29.91-.74.99s-.68-.6-.46-.75l.66-.46c.17.14.34.19.54.22" style="fill:#584c46"/><path d="m95.74 51.15-.04-.7c.24-.08.97-.13 1.02.12.13.72-.69.48-.98.58" style="fill:#8a7268"/><path d="M16.71 50.35c-.18.26-.72.18-.96.23-.65.32-.95-.12-.52-.69.23 0 .52-.15.71-.27.25-.08.57-.05.73.18.11.15.09.4.02.56Z" style="fill:#b0a099"/><path d="m10.98 49.4 2.8.44 1.45.05.52.69-.54.57c-1.27 0-2.51-.17-3.78-.44-.35-.6-1.1-.87-1.65-1.2-.48-.42.08-.76.52-.43l.68.31Z" style="fill:#a8978f"/><path d="m10.3 49.09-.52.43c-.51-.3-1.04-.5-1.6-.62 1.03.03 1.83-.49 1.99-.12z" style="fill:#8f7c75"/><path d="m21.79 20.72.12.75c-.46.59-.51 1.47-.64 2.24-.77-1.02-.59-2.39-.97-3.63-.14-.46-.57-.93-.61-1.35 1.09.12 1.95.97 2.11 1.99Z" style="fill:#ab9890"/><path d="M89.27 48.04c-.88.65-1.47-.13-2.55-.4-.25-.26-.73-1.02-.26-1.28 1.13.24 1.97 1.17 2.81 1.68" style="fill:#61514d"/><path d="M82.74 45.38h1.02c-.02.29-.13.53-.26.77-.72.11-1.42-.11-1.84-.73l1.09-.04Z" style="fill:#b09f96"/><path d="M79.73 46.6c.05-.21.14-.22.26-.03l.56.12c.71 1.68 1.11 3.37 1.2 5.05-.76 1.14-1.53 2.26-2.29 3.36-.52.19-1.25.19-2.01-.06.71-1.8.82-3.61.63-5.43l-.35-3.37c.47-.67 1.63-.25 2 .37Z" style="fill:#403635"/><path d="m82.72 50.3.31.17c.09.32.32.62.69.91l.15.55c-1.03 1.23-2.23 2.11-3.62 2.66-.07.23-.55.43-.78.51-.88-1.35 2.43-2.49 1.81-4.47L80 46.58c-.39-1.22 2.81-.4 2.97-.25.15.14.16 3.73-.24 3.98Zm-3.47-4.94.48 1.24c-.68 0-1.34-.2-2-.37-.02-.18-.29-.5-.02-.66.47-.27 1.08-.22 1.54-.21" style="fill:#5d504d"/><path d="M79.81 48.43c.17-.16.39-.06.44.07.11.26-.33.61-.38.59-.18-.07-.2-.53-.06-.66" style="fill:#534745"/><path d="m30.43 66.84.93.3c2.35 2.58 5.18 4.73 8.41 6.1l.6.78c3.38 1.27 6.98 1.73 10.66 2.08l2.08.37-6.92.18c-.53 0-1.12-.71-1.83-.43-.61.23-1.07-.25-1.57-.41-5.62-1.72-10.32-5.17-14.04-9.59l-.4-.94c-.42-.59-.44-.96.36-.92.41.02 2.22 1.96 1.71 2.49Z" style="fill:#574b47"/><path d="M70.07 66.56c.19.26.16.6-.08 1.03l-2.17 1.98c-.39.36-.6.88-.76 1.21-2.34 2.25-5.24 4.02-8.43 4.58-.54-.08-1.07.12-1.65-.24l.58-.73c.11-.14-.12-.47-.28-.68l-.05-.58c1.36-.55 2.71-1.12 4.06-1.7l.56.22c.66.46 1.31.45 1.95-.05a7.9 7.9 0 0 0 2.8-2.5l-.05-.46 2.46-2.22.57.16c.32-.38.48-.39.49-.03Z" style="fill:#5a4e4b"/><path d="M72.73 36.14h.32c0 .3.35.57.47.75.8 1.64 2.05 4.83 1.95 5.79.13.02.24.05.26.1.13.45-.09 3.46-.21 4.14.08.93-.15 1.5-.68 1.71-.77-1.28-1.29-3-1.3-4.52l-1.23-4.44c-.66.31-.9-.46-.3-.84-.73-.3-1.42-1.37-.98-2.11.08-.86 1.2-1.34 1.69-.57Z" style="fill:#7d6e67"/><path d="M67.5 29.88c-.09.51.56.9.48.31l2.06 2.16c.34.5.04.94-.52 1.02-.16.31-.4.27-.72-.14h-.37l-.75-.14c-1.11-1.3-2.5-2.33-4.05-3.05l-.33-.69c-.56-.27-.63-.48-.2-.64-.44-.41-.33-.55.21-.72-.03-.55 1.49-.19 1.49-.11 0 .03-.45.11.04-.22.72.04.75.39 1.33.94l1.32 1.26Z" style="fill:#8c7d76"/><path d="M69.52 33.37c.54-.14 1.08.1 1.61.74l.35-.22.73 1.06c.31.45.67.7.51 1.19-.59-.02-1.1.35-1.69.57l-.57.08-2.24-2.98.19-.58c.07-.42.39-.43.63-.24l.47.38Z" style="fill:#92847c"/><path d="M63.58 26.61c.3.33.85.98 1.27 1.06l.2.46c-.69.15-1.24.13-1.73-.12-.19.53-1.17-.03-1.01-.52-.38-.25-.46-.44-.23-.57-.19-.45.03-.59.5-.54.33.14.65.18 1 .23" style="fill:#a49690"/><path d="M71.49 33.89c.03.19.13.45.06.81-.95-.17-1.41-.84-2.03-1.34 0-.37.14-.75.52-1.02l1.45 1.54Z" style="fill:#9f918a"/><path d="m67.5 29.88.48.31.09.36c.03.11 0 .31-.14.32 0 0-.82-.43-.83-.77 0-.23.2-.31.4-.21" style="fill:#a99b93"/><path d="M76.03 42.82c.16.34.23.8.27 1.13 0 .74.06 1.3.48 1.94l-.76 9.46c-.08 1.06-.45 2.1-.19 2.97-.58.24-.63.61-.79 1.15-.13.44-.79.81-.8 1.3-.1.95-.41 1.19-1.03.31a29 29 0 0 1-3.63 5.52l-2.18 1.82c-.3.25-.45.63-.8.7-.67.28-.81.05-.32-.48-.48 0-.48-.19 0-.34l.13-.59c3.95-3.62 6.66-8.67 7.23-14.03l.56-.77c.18-1.37.28-2.75.32-4.13l.34-.14.63-5.95.56.14Z" style="fill:#695c57"/><path d="M48.62 23.21h5c.59.36 1.25.52 1.98.5.33.21.78.73 1.28.67l.84-.1c.16-.02.35.22.4.46.3 1.02-.69.87-1.49.74l-.26.49-1.81-.18c-.16.6-.65.69-.73.04-.61.07-1.12 0-1.52-.2a83 83 0 0 0-3.16 0l-.25-.26c-1.24.04-1.76-.33-1.57-1.1l-.44-.23c-.26.09-.51-.03-.76-.36-.42.01-.77-.18-.54-.41.31-.31 2.51-.22 3.05-.07Z" style="fill:#ad9f98"/><path d="M58.11 24.74c.48.25.98.1 1.48.12l-.02.36c-.1.21.06.28.49.22l1.79.7c.12.19.19.44.23.76l.23.57c-.21.25-.61.2-1.19-.17l-.78-.17c.24.7-.94.29-1.34.02-.99.04-2.13-.19-2.88-.91-.08.22-.17.21-.27 0-.73.19-1.16.04-1.3-.47l1.48-.09c.12-.41.2-.72.45-.99.6.46 1.26.53 1.62.03Z" style="fill:#978b84"/><path d="M55.6 23.71c-.63.41-1.82.34-1.98-.51.75 0 1.33.08 1.98.51" style="fill:#4a3f3b"/><path d="M25.44 49.86c.38-.31.59-.28.74.17.07 4.38 1.24 9.03 3.77 12.65l.26 1.13c.71-.14.79.33.11.59l1.07 1.39-.16.31c.04.58-.29.72-.8.74l-1.78-2.08c-.1-.09-.41.37-.28.52l-1.38-1.74c-.02-.72-.46-1.1-.74-1.77l-2.49-5.96c-.16-.38-.03-1.02-.04-1.43l-.51-.58c-.06-2.31-.12-4.62-.17-6.93l.67-.23c.59.66.82 1.55.72 2.66l.41.19c.2.66.41.78.6.37" style="fill:#504643"/><path d="m36.94 29-.42.87a33.4 33.4 0 0 0-7.46 8.08l-.61-.02c-.42.4-1.9.58-1.83-.25.48-.84.59-2.2 1.31-2.89 1-.96 1.78-2.44 2.99-3.03 1.37-1.08 2.73-2.16 4.07-3.26l.5-.02c.35-1.56 2.85-.9 1.46.53Z" style="fill:#a2958f"/><path d="m43.95 25.14-.06.89v.54c-.98.39-2.02.68-3.07.86-.31.49-.89.81-1.73.96-.82.6-1.54.8-2.16.61l-.05-1.03c-.48.19-1.12.21-1.41.5-.68.16-.71-.22-.1-.53.18-.67.85-.97 1.47-1.14 1.79-.54 3.57-1.13 5.33-1.77l-.09-.39.81-.39c.64-.15 1.22.21 1.06.88" style="fill:#bbafa7"/><path d="M42.08 24.64c.32-.02.76.04.87.67-2.89.23-4.99 2.73-6.1 1.48l.29-.67 4.95-1.49Z" style="fill:#c7beb9"/><path d="m35.37 27.94.1.53a17 17 0 0 1-4.57 3.28l2.39-2.44c.65-.63 1.22-1.28 2.08-1.37" style="fill:#ab9f9a"/><path d="m71.65 66-1.66 1.59c-.29-.28-.16-.7.08-1.03-.08-.08-.14-.16-.13-.19.6-1.03 1.55-2.6 2.27-3.52.32-.68.73-.95 1.22-.8.42.5.01.71-.24 1.17L71.64 66Z" style="fill:#655953"/><path d="M74.24 60.76v.88c-.02.3-.42.47-.8.41l-3.37 4.51-.49.03 3.77-6.8.58 1.59z" style="fill:#574a46"/><path d="M28.44 37.92c.66.43-.23 2.34-.98 2.21l-.75.17c-.29.65-.79 1.17-1.22.41l-.21-1.41c.63-.33.97-.98 1.34-1.63.5.23 1.16-.24 1.83.25" class="cls-109"/><path d="M25.44 49.86v2.23c0 .2-.24.47-.37.46-.52-.07-.11-1.6-.51-2.96l-.27 2.42c-.06 0-.22.07-.31.11l-.08-3.49c-.02-.72-.35-1.37-.21-1.99.39-.54.39-1.29-.05-1.8l.06-.81c.16-.65.38-.57.45.08l.36.34c.1-1.36.73-2.12 1.91-1.27.2 1.03.11 2.15-.27 3.37.04 1.3-.19 2.4-.72 3.31Z" style="fill:#7c6e6a"/><path d="M27.46 40.14c.17.08.41.21.4.37-.02.51-.76 2.81-1.43 2.68-.48.32-1.08.1-1.31.23-.36.21.1 1.21-.24 1.47-.15.11-.58.1-.77-.18-.11-.15-.06-.32.06-.6a7.3 7.3 0 0 1 .03-1.74l.69-1.05.09-.5c.05-.3.31-.12.51-.1.74.06.95-1.05 1.01-1.86.49.39.46 1.01.96 1.28" style="fill:#8d7e78"/><path d="m30.81 62.75.52.04c2.52 3.55 6 6.47 9.99 8.17l.06.61c.75-.08 2.06.22 2.2.99l1.05.2c1.22-.29 1.86-.09 1.93.6 5.08.19 10.65-1.01 15.08-3.7l.93-.04c-.05-.62.44-1.16 1.48-1.63.73-.74 1.38-.98 1.95-.74.92-.22.93.55.26 1.03v.34l-.12.5-3.73 2.73-.58-.19c-1.41 1.06-3.54 1.23-4.57 2.05l-4.68.83c-3.26.58-6.41-.25-9.47-.95-.61-.34-1.61-.61-2.29-.5l-6.14-3.19c-2.08-2.11-3.12-3.16-3.12-3.16l.35-.46c-.6-.53-1.13-1.16-1.59-1.87.02-.19-.05-.41-.11-.59-.71-.93-.39-2.05.59-1.06Z" style="fill:#1c1614"/><path d="M31.92 66.28c.52 1.52 2.28 1.58 2.9 3.13l7.08 3.67c.33.17 1.11-.1 1.23.51l-1.75-.4c-.13-.03-.5 0-.59.07-.11.1-.14.35.02.63-.03.32-.3.23-.44.14-3.87-1.46-7.27-4.06-9.94-7.18-.02-.46.39-.67.8-.74.21-.36.45-.1.68.18Z" class="cls-280"/><path d="m43.13 73.58.72-.34c4.4 1.48 8.65.98 13 .03l.43.43c.79-.23.98.49.58 1.1.41.02.66.07.76.55l-2.32.64c-1.08.3-2.16.65-3.19.46-4.14-.15-7.92-.39-11.99-1.71-.35-.11-.58-.42-.74-.73l.21-.39c-.37.55-.56-.27-.12-.7.24-.23 2.24.42 2.66.65" style="fill:#4b423f"/><path d="M51.52 75.58c-1.07.08-1.91.4-2.69-.24l1.77-.09c1.16-.06 2.41-.58 3.59.13l-2.67.21Z" class="cls-280"/><path d="M66.28 68.62c0 .22.21.34.32.48.7.86-2.07 3.1-4.49 3.72-.03-.51-.06-.79-.25-1.17l3.61-2.7c.28-.21.52-.35.81-.33" style="fill:#4f4541"/><path d="M63.31 29.36c1.97.81 3.82 2.15 5.12 3.87l2.62 3.48c.45.6.73 1.42.98 2.11-.43.5-1.07.47-1.53 0l-.64-.16a17.5 17.5 0 0 0-2.31-2.84l.08-.67c-.93-.58-1.84-1.26-2.72-2.03l-.1-.66c-.14.09-.26.16-.33.12-.3-.17-1.43-1.1-1.75-1.38-.08-.07-.12-.19-.15-.33l-2.24-1.05-.07-.58c-.05-.89.8-.46 1.3-.06.21-.89 1.31-.47 1.75.16Zm11.54 19.27-.23 3.56c-.02.32-.18.58-.44.71l-.51-.19-.14-5.03q-.015-1.425-.51-.78c-.42-.05-.55-.95-.22-1.23-.22-.07-.22-.16 0-.28-.16-1.76-.46-3.52-.89-5.28l.42-.44c1.39 1.89 1.64 4.26 1.9 6.69.07.61 1.13 1.35.62 2.27" style="fill:#392d2b"/><path d="m72.02 38.82.3.84.82 4.32c.1.54-.05 1.08-.35 1.39-.19.04-.49.08-.55-.04-.28-.62-2.12-5.67-2.11-5.99 0-.2.19-.37.35-.51.51-.24 1.05-.2 1.53 0Z" style="fill:#2d2221"/><path d="M60.34 27.15c.92.15 2.64.7 2.76 1.57l.2.64c-.62-.25-1.12-.17-1.75-.16-.8-.4-1.61-.83-2.42-1.27l-.16-.53c-.21-.08-.2-.16.01-.24.29.18 1.02.12 1.34-.02" class="cls-141"/><path d="m62.31 27.48 1.01.52c.08.26 0 .54-.21.72l-2.76-1.57c.6-.26 1.35.01 1.97.34" style="fill:#ab9b94"/><path d="M59.57 25.23c.2 0 .33.16.49.22-.09.16-.22.38-.49.48a.39.39 0 0 1-.45-.13c-.05-.07-.08-.3 0-.42s.26-.15.46-.15" style="fill:#a69c97"/><path d="M62.57 26.38c-.11.24-.28.42-.5.54-.21.05-.48-.08-.49-.32 0-.12.13-.3.26-.44.17.07.54.15.73.23" style="fill:#b4a8a0"/><path d="M74.19 52.89c-.32 5.64-3.08 10.91-7.1 14.91-.29.29-.56.38-.81.48 0-.34.06-.74-.26-1.03l.1-.89c1.69-1.94 3.28-3.96 4.69-6.06-.76-.61.26-1.98.94-2.18-.13-.04-.24-.1-.25-.17-.09-.48.51-4.74.72-5.05.11-.17.35-.22.56-.26-.37-.84-.37-2.01.18-2.69l-.12-2.79.2-.28c-.04-.27-.03-.6.14-.73s.6 0 .61.2l.41 6.54Z" style="fill:#2b221f"/><path d="m46.11 23.69.89-.06c.25-.02.45.29.31.64l-.39.51c.27.58.14.97-.53.93.02.54-.83.77-1.04.2-.71-.15-1.18-.42-1.41-.79-.38-.09-.8-.59-1.06-.88.99-.48 2.11-.49 3.22-.56" style="fill:#c4b9b3"/><path d="M52.29 25.63c.48.05.46.24-.03.34-.02.19-.08.46-.22.47-.45.04-4.06-.01-4.19-.18-.07-.09-.12-.21-.16-.33-.81-.91.35-.96 1.19-.55 1.22-.25 2.31-.25 3.41.25" style="fill:#483b37"/><path d="M54.55 25.79c.45.03.97.05 1.3.47.14.7-.39.98-1.58.85q-.045.105-.21.24c0 .97-1.43.42-1.17-.41-.14-.35-.34-.67-.62-.97l.03-.34z" style="fill:#4c3f3b"/><path d="M47.31 24.28c.42.53 1.09.7 1.57 1.1-.41.08-1.08-.07-1.19.55.03.69-.56.74-.79.08-.34.24-.53.13-.5-.28.09-.16.21-.46.14-.62-.1-.23-.33-.35-.69-.52.46-.3.96-.3 1.46-.31" style="fill:#bbafa8"/><path d="M58.98 27.41c1.05.1 2.06.96 2.57 1.79l-1.3.06c-.2.69-.73.61-.87-.09q-1.11-.015-2.28-.66c-.88 0-1.57-.19-2.09-.55-.36-.13-.74-.31-.97-.62-.43-.55.67-.31 1.8-1.09h.27c.85.53 1.81.91 2.86 1.15Z" style="fill:#392e2b"/><path d="M59 27.17v.24c-.71-.06-1.53.29-2.27-.14l-.61-1c1.03 0 2.05.36 2.88.91Z" class="cls-141"/><path d="M45.71 27.24c-.03.59-.38.73-1.04.43.04.19.09.47-.03.54-.23.13-2.62 1.05-2.76 1.01-.21-.06-.38-.16-.5-.35l-.49.73c-3.34 1.54-6.4 3.85-8.55 6.84l-.74.17c-.55 1.55-1.29 3.03-2.07 4.48-.14.26-.42.4-.69.49.29 1.44-.22 3.2-1.26 4.23-.59 5.89.59 11.24 3.32 16.44l-.09.5c-.37-.03-.58.09-.62.23-.09.31-.05.6.03.83-1.94-2.24-3.08-5.02-3.77-8.01-.44-1.91-.89-3.71-.74-5.69.01-.16-.17-.28-.26-.26 0-2.26.26-4.53.99-6.68l1.03-3.04.98-2.21 2.37-3.13c1.74-2.31 3.74-4.3 6.13-5.79 1.17-.73 2.53-1.5 3.89-1.57l4.26-.99.58.3c.67.02.66.25.04.5Z" class="cls-243"/><path d="M31.92 66.28c-.21.02-.6 0-.68-.18-.28-.57-1-.99-.91-1.69.84.44 1.3 1.02 1.59 1.87" style="fill:#28201e"/><path d="M46.4 25.72c.2-.04.4.1.5.28.45.74-.74 1.32-1.23.74-1.52.67-3.19.6-4.84.69l3.07-1.41c-.16-.69 1.11-.5 1.46-.1z" class="cls-141"/><path d="M43.95 25.14c.55.13 1.31.07 1.41.79l-1.46.1c-.22-.1-.33-.2-.43-.3-.14-.14-.14-.49.05-.58.1-.05.36.02.44 0Z" style="fill:#cec0b9"/><path d="M31.38 56.92q.675-.075.69.93c.22.16 4.77.64 5.35.21l.45.5c.61-.06.94.57.54 1.04l.54-.03.88 1.71c.41-.29.92-.3 1.54-.05 1.36-.37 2.71-.45 4.02-.23 2.16-1.16 4.55-1.37 7.16-.63q1.08-.165 1.47.48c.39.44.34.52-.06.82-.92.71-4.21 1.68-5.17.62-.52.38-1.17.62-1.82.47.08.81.25 1.62.5 2.39-1.57.58-.55.99.57 1.15.92.13 1.9 0 1.88-1.14l.44-.33c-.02-.22.04-.23.19-.04l1.02-.62c1.02.16 2.04.14 3.04-.04.08-.76 1.73-1.25 2.26-.75.14-.43.54-.57 1.18-.4.47-.09.66-.4.55-.94-.77-.12-.74-.78.02-.91.05-.34.37-.54.94-.59.01-.52.2-.85.56-.97 1.63-.18.2 2.58-.47 3.28.44.46.27.62-.34.5l-1 1.18c-.6.48-2.09 1.5-2.51.58-1.13.59-2.38.87-3.77.82.08 1.72 2.17 2.66 3.8 2.26l.47.38c.35.13.69.46 1 .98 1.45-.55 2.93-.98 4.44-1.3l.31.51c.49.12.57.38.5.85-3.54 2.6-7.95 3.62-12.4 4.04-1.37.13-2.43.17-3.61-.3l.22-.55 2.38-.2c-2.77-.79-5.58-1.45-8.41-1.98-3.34-1.44-8.34-5.27-9.85-8.59-.09-.2.08-.46.23-.66.58-.31 1.18.08 1.78 1.16l3.37 2.83c.13.5.58.88 1.34 1.15a.7.7 0 0 1 .24-.22c.14-.07 2.22 1.79 2.33 1.93l.07.55 3.26.99c2.02-.69 4.32.07 6.07 1.23.76.72 4.46.27 4.66-.54.06-.25-3.99-2.01-4.67-1.91-1.6.21-3.04-.05-4.31-.78-.97-.03-1.38-.37-1.24-1.04 2.78-2.82-2.31-3.72-4.47-3.62-.07 0-.15-.08-.23-.18q-3 1.56-5.16-.18a23.1 23.1 0 0 0-3.87-4.19c.06-.36.61-.17-.15.14-.29-.09-.61-.2-.77-.45-1.05-1.6-1.94-7.77-1.18-9.45.51-1.12 1.38-.25 1.85.5.9 2.42 1.34 4.97 1.31 7.64Z" style="fill:#453c3a"/><path d="M31.9 55.09c.6.21.43.59-.2.5.04.64-.06 1.08-.32 1.34-1.31-2.67-.26-6.62-2.65-8.38-.58 3.57-.13 7.13 1.43 10.14.79-.19 1.6 2.23.99 2.7.62 1.69 1.81 3.2 3.36 4.33 1.32.96 2.4 2.04 3.6 3.13 1.21 1.1 2.95 1.33 4.5 1.7l8.26 1.96c-1.39.93-2.86.56-4.29.86-.89-.35-2.12-.21-2.98-.8.5-.44.33-.71-.53-.81l-1.67-.18-5.11-2.91c-1.84-1.51-4.53-4.31-5.46-5.9-3.04-5.16-4.76-11.15-3.22-16.95l.54.21c-.01.39.13-.05.42-1.34.96-2.78 3.05-1.87 1.31.75 2.37 2.37 2.72 6.52 2.05 9.66Z" style="fill:#544a48"/><path d="M70.8 60.31c-1.13 2.62-2.95 4.77-4.79 6.94l-3.43 2.37c-.22-.02-.4-.14-.45-.26-.09-.21-.07-.4-.04-.59-.41-.36-.3-.77.32-1.22l3.86-3.28.59.15 2.12-2.54c.66-1.66 1.27-2.18 1.83-1.57" style="fill:#574b46"/><path d="M43.59 72.56c-.88 0-1.52-.6-2.2-.99 1.36-.81 2.7-.14 4.13.85-.63.19-1.27.14-1.92.14Z" style="fill:#5c514e"/><path d="M67.62 35.17c1 1.2 2.21 2.23 2.87 3.67l2.31 6.54v.28l-.17.26c.14.67.61 4.12.21 4.36-.56.35-1.02-.5-1.14-.98-.51.07-.59-.36-.28-.79-.39-1.7-.68-3.44-.85-5.22-.16-1.11-.6-1.77-1.3-1.99-.41-.34-.56-.83-.45-1.48-.9.48-1.19 1.42-.89 2.83-.18.83-.72 1.56-1.38.73-.6-.14-.95-.77-1.06-1.9-.42-.83-.42-1.43 0-1.83-.68-.66-1.74-1.83-.48-2.25.34-.38.84-.31 1.5.19-.48-.71-.71-1.36-.71-1.95-1.22.09-1.9-2.07-.35-2.09.73.68 1.45 1.21 2.16 1.6Z" class="cls-49"/><path d="M64.8 32.47c1.12.67 2 1.71 2.82 2.69-.1.24-.26.22-.41.13l-2.2-1.43c.04.79.39 1.33.79 1.78.28.52-.06.87-1.02 1.03-.3.65-.82.39-.72-.31-.53-.75-.92-1.67-1.17-2.74-1.1-.73-1.66-1.54-1.67-2.43l.33-.25q.09-.33.24 0l.93.27c.68.62 1.37 1.04 2.06 1.26Z" style="fill:#8a7b75"/><path d="m59.39 29.17.87.09 1.19.53c.57.25.95.6 1.12 1.1.13.37-.13.39-.76.05h-.24c-.44.69-1.69.02-2.28-.35-1.41-.89-1.6-1.96.1-1.41Z" class="cls-109"/><path d="M62.57 30.88c.88-.06 1.68.88 2.23 1.59-.08.18-.16.26-.26.32-.25.13-.44-.02-.66-.19l-2.08-1.66.76-.05Z" style="fill:#8f7f79"/><path d="m71.41 48.51 1.26 1.57-.16-4.18c0-.18.17-.32.29-.24-.22.41.12.91.22 1.23.58 1.89.1 3.86-.25 5.75-.82 0-1.34-.67-1.56-1.99l-.45.59c.42 1.08-.39 3.9-1.71 3.12-.37.31-.5.17-.28-.27-1.09.21-.68-.88-.38-1.58.1-3.3.38-6.6.86-9.92.37-.58.85-.38 1.15.17.27 1.94.61 3.85 1.01 5.74Z" style="fill:#564b4a"/><path d="m68.77 54.09.28.27c.36.05.64.35.82.92q2.325-3.675 1.65 2.58l.23.27-.94 2.18c-.31.02-.81.26-.92.59-.56 1.67-1.87 2.53-3.03 3.52l-.36-.47c.65-1.15 1.4-2.25 2.24-3.28.16-.7.42-1.22.79-1.57-.16-.4-.09-.79.2-1.17v-.52q-1.32.78-1.98-.36c-.62-2.47-1.28-.49-1.17 1.02.72.27-.26 2.06-.97 1.83l-.47-.36c-.5.38-1.93 1.18-2.26.28-.22-.6 1.29-3.16 1.95-3.47-.39-.37-.28-.58.25-.47.06-.45.22-.64.49-.58.24-.89 2.55-1.82 3.2-1.21" style="fill:#483f3c"/><path d="m72.77 52.64-1.03 5.48c-.11.05-.25.2-.43.22-.37-1.46-.13-2.77-.11-4.25l-1.31 2.06c-.62-.58-.82-1.19-.85-1.79 1.14-.54 1.5-1.91 1.24-3.22l1.18-1.81c.19 1.34.5 2.42 1.31 3.31" style="fill:#504543"/><path d="m47.69 25.92 4.57.04 1.62-.05c-.16.62-.6.74-1 1.02-.06.19-.15.48-.3.49-.53.03-4.52-.05-4.73-.16q.12-.51-.21.15c-.22.45-1.05.47-1.21-.03-.29.02-.53-.02-.72-.15l-.04-.5c.44-.19.89-.38 1.23-.74l.79-.08Z" style="fill:#3c302d"/><path d="M59.39 29.17c-.35.04-.65.14-.91.45 1.17.58 2.07 1.09 3.09 1.33-.13 1.29 1.5 1.78 1.86 2.59.41.93.51 1.92.65 2.83-.06.63-.25.58-.53.03-.62.02-.8-.21-.46-.78l-5.11-4.94c-.34 0-.63.11-.92.28l-.56.08-1.53-2.07c-.78.02-1.32-.15-1.62-.52l1.69-.49c1.54-.36 3.16.21 4.36 1.2Z" style="fill:#91817a"/><path d="M33.09 48.25c-.03 2.35-.31 4.67-.83 6.94l-.36-.1c.02-1.54.31-3.19-.2-4.75l-.86-2.62c-.32-.98-.91-1.64-1.75-2.26.63-.65 1.2-1.21.99-2.16-1.6 1.16-1.22 3.75-2.01 5.38-.46-1-.3-1.95-.48-2.86.38-1.42.77-2.84 1.26-4.23.18.09.36.11.43-.03.42-.82.83-1.63 1.22-2.47.29-.57.68-.98.96-.27 1.51-.19 1.38 1.66 1.24 2.77-.11.92-.56 1.85-1.09 2.61 1.8-.5 2.92-.35 2.7 1.85-.42.02-.58.37-.5 1.06-.05.77-.29 1.15-.72 1.15Z" class="cls-66"/><path d="M34.35 40.86c.33.29.29.78-.12 1.46.7-.11 3.23-.33 3.72-.05.43.24.45.51.33.98-.56.71-1.12 1.47-.65 2.38.23.78-.36 1.19-1.77 1.24-.31.22-.62.33-.91.34l-.56.33c-.11.93-.45 1.39-1.01 1.37-.66.35-.58-.1-.3-.65.72-.96.89-2.56.56-3.77-1.23-.12-2.09.38-3.33.38 2.83-2.46 2.05-6.42.98-5.98-.18.07-.32.15-.44.48-.9 2.36-1.98 3.72-2 2.23.64-1.81 1.63-3.44 2.75-4.97l-.3 2.2c1.8-.28 3.13-.42 4.82.36-1.18.39-1.46.9-1.77 1.69Z" style="fill:#7d716d"/><path d="m44.67 27.67 1.98 1.22-.29.49-2.13-.04c-.55.27-.99.3-1.35.1.35.76-.65.97-1 .3-.25-.22-.39-.49-.51-.87l3.29-1.21Z" class="cls-157"/><path d="m63.89 54.6.43.36c-.3.6-.13 1.07.5 1.39-.18 1.21-1.03 2.15-1.71 3.24-.1.17.35.47.57.3l.67-.5c.27-.2.57-.33.82-.32.4.02.52.47.42.82.73.31-.07 2.33-.82 2.25-.12-.05-.12-.25.02-.58-.28-.06-.55-.22-.8-.48-1.18-.12-1.82-.61-1.93-1.47l-1.04 2.47c-.46.74-.9.99-1.35.77l.73-1.67c.31-.69.15-1.21-.26-1.61-.3.13-.66.15-1.07.08-1.48.88-3.03 1.43-4.67 1.63l-.38-.46c-3.08.36-4.97-1.5-8.54.63-2.85-.55-4.11.95-5.07-.18-.13.54-.06.88-.54 1.16l-1.46-2.85c-.29-.51-.07-.75.52-.72.13-1.85 1.18-2.27 2.06-.51-.96-2.71.7-2.87 2.47-1.14l1.18.51a59 59 0 0 1 6.23.92c1.19 1.22 3.36.2 4.68-.45l4.41-4.13c1.5-.46 2.85 1.94.85 1.75.05 1.4.26 1.68.65.87l.37-.1c-.61-.67.32-2.16.8-2.79 1.7-2.2 2.94-1.05 1.27.78Z" style="fill:#574e4b"/><path d="m40.28 68.77.33-.43c.43.18 3.69 1.05 3.14.1-1.19-.74-2.23-1.6-3.11-2.58l.46-.79c-.7.23-1.22.12-1.59-.32-.17-1.26-.94-1.09-2.32.49.51.44.66.87.45 1.28-.35.05-.79-.03-1.13-.32l-3.92-3.3c-.55-.47-.75-1.27-1.44-1.52l-.99-2.7c.03-.15-.07-.35.05-.64 1 .28 1.57 1.03 2.21 1.79l2.03 2.44c.83 1 2.05 1.03 3.35.67 2.51-.71 5.55-.47 7.43 1.52.69.73-.33 1.88-.94 2.79 1.06-.46 2.13.74 2.89.81 1.86 0 3.45-.28 5.12.84.84.57 1.88.93 2.95 1.34-2.01 2.13-4.89 2.07-7.08.5-1.87-1.34-5.44 0-7.87-1.98Z" class="cls-285"/><path d="M69.51 59.09c.39 2.1-2.03 3.26-2.66 5.32l-3.87 3.29c-.41.35-.71.66-.89 1.06-2.08-.14-4.21 1.83-5.21 1.14-.32-.22-.49-.86-.55-1.33-.06-.19-.07-.43.06-.48 1.09-.36 2.27-.7 3.43-.72l.09-.38c2.64-.61 4.07-2.39 4.87-4.86l.82-2.25.97-1.83c-.27-1.53.82-1.84 1.63-.5.9.13 1.93.51 1.31 1.53Z" class="cls-132"/><path d="M58.3 53.5c1.26.5.54 1.94-.88 1.82-1.16.74-2.26 1.59-3.31 2.56-1.23.1-2.39.39-3.47.86-.44-.68-.96-.87-1.56-.6-3.52-.11-6.58-1.78-9.57-3.42l-.08 3.02c-.3.25-.47.62-.5 1.12-.13.28-.15.61-.52.72-.17-.32-.56-.65-.54-1.04-.73-.02-.67-.85.03-.98-.72-.28-.6-2.56-.46-3.3.06-.33.12-.62.51-.69-.62-.95.69-1.8 1.79-1.56.99.55 1.97 1.14 2.93 1.77.87.95 2.21 1.92 3.06.45.37-.26.76-.24 1.06.09.25 2.49 3.71 1.61 5.27 1.12 1.92-.81 3.84-1.6 5.77-2.35l.47.4Z" style="fill:#69615f"/><path d="M60.15 59.58c.05.44.08 1.12-.3 1.4-.28.21-.86.2-1.2.15-.02.22-.13.4-.35.45-2.23.49-3.85.85-6.06 1.64-.59-.13-1.94.49-1.53 1.12l-.32.49c.18.55-.1 1.64-.89 1.86-1.14.31-2.8.06-3.53-.97-.24-.35.73-.79 1.27-.75-.72-.79-1.08-1.94-.51-2.8.74.33 1.56.02 2.18-.65.46.68 1.02.94 1.95.76 1.22-.23 2.6-.29 3.18-1.45l1.89-.22 2.84-1.35c.58-.28 1.01-.05 1.39.32Z" class="cls-285"/><path d="M40.28 68.77c-.87-.22-1.41-.94-2.02-1.59l-.63-.66c-.41-.43-.59-.75-1.28-1.08.83-1 1.7-1.93 3.12-2.3l.56 1.58 2.05-.33c-.02.61-.52.9-1.08 1.41l3.45 2.53-.85 1.27z" style="fill:#36302e"/><path d="M64.8 61.57c-.06.86-.31 1.37-.73 1.54-.89-1.2-2.02-.82-3.05.3-1.28 1.38.24 1.58 1.45 1.05l.37.43c.14.19.21.42.07.55-1.02.96-4.05 2.17-5.19 1.27-.89-.7 1.01-2.7 1.62-3.35.04-.15.2-.44.34-.5 1.65-.77 1.16-3.82 2.94-4.35-.05.62-.13 1.13.06 1.57.23.53 2.16.13 2.12 1.49" style="fill:#9a8a80"/><path d="M64.78 62.14c-.09 3.2-2.12 4.26-4.96 5.24l-1.19.12q-3.51 1.62-5.13-.66c.47-.85 1.25-1.43 2.34-1.73 1.5-.13 2.34-1.29 3.51-1.76-.27 1.02-.91 1.93-1.58 2.91 2 .64 4.01.16 5.07-1.39-.58-.51.53-2.07 1.23-1.79l.73-1.54-.02.58Z" style="fill:#695c56"/><path d="M58.65 61.13c-.04.28-.1.67-.02.91l-.25.5c-.53.18-1.02.46-1.48.84-.66.35-1.52.55-2.26.75l-1.44.21c-1.18-.31-1.59-.11-2.62.45l-.19.04c-.09-.28-.51-.89-.24-1.25 2.25-1.11 6.93-2.69 8.5-2.45" style="fill:#342e2c"/><path d="M55.83 65.12c-.45.67-1.13.99-1.97 1.73 2.46 2 3.68-.22 5.95.53l-3.49 1.2c-1.04.36-2.21.27-3.28-.33-.86-.48-1.53-1.48-1.71-2.75l4.49-.39Z" style="fill:#544845"/><path d="M37.05 57.36c.3-.66.81-.51.85.2l-.03.98c-1.37-.09-2 .74-4.07-.1L32 58.3c-.59-.04-.44-1.03-.62-1.39-.07-.49 0-1 .32-1.34.5.02.57.25.61.69 1.03.68 2.32.84 3.88.48l.87.61Z" class="cls-66"/><path d="M58.62 62.04c.18.11.41.26.47.44.1.33-.13.56-.33.73-.66.55-1.4.1-1.87.17.04-.95.89-1.38 1.73-1.34m-3.99 2.09c-.62.16-1.19.6-2.05.53-.71-.06-1.41.06-2.01.13.41-.32.68-.74 1.01-1.45.95.63 1.96.86 3.05.79" class="cls-285"/><path d="m33.39 48.89.53.15c.15 1.99-.07 4.02-.68 6.08.47-.42.91-.29 1.22.23.03-1.34-.07-2.68-.3-4l.43-.61q-.33-1.425.36-1.11l.52.23.4 3.95c.46-.15.8-.06 1.04.29.2.46-.06.86-.78 1.22l1.22 1.54-.29.51c-1.96-.51-5.01 1.12-5.36-1.78l.2-.5c.22-.24.48-.57.48-1.03v-4.42c0-.81.4-.98.71-1.39l.3.65Z" style="fill:#6b625f"/><path d="M63.08 35.63c.15.27.49.38.46.78.3.27.25.57-.14.88q1.11 1.125 2.1 2.37l1.06 3.72c.68.2.64.35-.03.57.26.41.38.9.38 1.38 0 1.02-.61 3.8-1.86 3.52-.21 1.35-1.63 2.72-2.98 3-2.02.42-1.85-.84-.97-2.17l-.52-.04c-.72.4-.81-2.76-.72-3 .22-.59 1.98-1.16 2.08-.24-.07.9.04 1.11.34.64-.36-.6-.32-1.26.12-1.96 0-1.25.13-2.48.39-3.68q-.795-1.5.15-1.98c-1.1-.36-2.05-2.29-1.99-3.45.11-2.14 1.13-1.41 2.12-.33Z" class="cls-71"/><path d="M71.41 48.51c-.41-.51-.87-.74-.98-1.62-.18-1.47.14-2.97-.69-4.44-.26 1.84-.28 3.31-.62 4.96l-.24 5.07c-.03.59-.67 1.1-.12 1.62l-3.2 1.21c-.12-.05-.21-.09-.21-.12.07-.45.39-2.07.77-2.11.13-.01.27 0 .41.03.82-2.94.81-6.22 0-9.16.01-.17.08-.4.03-.57 1.68-.09.34-2.09 1.11-3.25.25-.37 1.13-1.13 1.6-.71.19.17-.02.97.06 1.26.07.25.64.34.92.5 1.15 2.31 1.34 4.82 1.17 7.33Z" style="fill:#514644"/><path d="m64.07 36.37.72.31c.68-.54 1.04.42.23.72-.31.73.27 1.51.48 2.25-1.07-.55-2.07-1.35-2.75-2.45l.79-.79c.14-.03.39-.09.53-.03Z" style="fill:#706662"/><path d="M65.02 37.4c.08-.19-.05-.65-.23-.72-.05-.72.6-.57 1.02-1.03.68.76 1.48 1.53 1.2 2.75z" style="fill:#7e7169"/><path d="M66.53 53.11c-.58.71-1.12 1.24-.97 2.2l-.49.58-.51-.39c.33-.99.66-1.95.98-2.87-.16-.18-.33-.08-.5.3.63.55-.23 2.68-1.16 1.68.1-.46.52-.85.37-1.62-1.09.43-1.59 1.42-2.02 2.54l-.42 1.08c-.61.39-1.04-.09-1.01-.77.28-.22.63-.63.53-.9-.14-.37-.95-.64-1.26-.34l-3.68 3.57c-1.12 1.09-2.78 1.38-4.26 1.58-.89.12-1.18-.57-1.68-.73-2.84-.87-6.06.23-8.28-2.22-.22-.25-1.17-.31-1.06.04l.54 1.76c.13.42-.9.34-1.13.07-.15-.18-.25-.38-.26-.81-.1-.19-.83-.06-.95.2l-.37.81V54.1c.47.11 1.35.22 1.59.52.52.64.85.53 1.53.86l3.31 1.6 1.78.2c1.07.55 2.09.47 3.15.01l.39 1.12c.83-.91 1.79-.79 2.88-.9 1.54-.15 2.39-3.12 4.83-2.73.06-.46-.01-.84-.08-1.29l-.02-.56c1.16-.96 2.3-.72 3.42.7.69-1.58 2.31-3.03 4.1-2.79 1.29-.61 1.13 1.43.73 2.26Z" style="fill:#615855"/><path d="M69.51 59.09c-.22-1.19-1.31-.68-2.3-2.03-.24.32-.45.65-.64 1-.33-.55-.56-1.36-.33-2.02.16-.49.78-.71 1.12-.63.91.21.62 1.66 1.06 1.91.3.17 1.05-.74 1.57-.34s.25 1.41-.49 2.1Z" style="fill:#3d3533"/><path d="M65.08 55.88c-.1.12-.23.31-.25.47l-1.34.18.41-1.93c.73-.09 1.24-1.04 1.16-1.68.07-.44.18-.69.5-.3l-.08 1.62c-.03.61-.53 1.06-.39 1.64Z" style="fill:#84766f"/><path d="M53.33 28.47c.65-.05 1.68-.3 2.14.33l1.58 2.17.3-.14c.46.43.84 1.01 1.15 1.74 2.45-.2 4.65 2.6.82 2.38-4.31-.98-2.98 1.47-.97 3.63.72.41 1.05.84.97 1.31l-.07.25c-.91-.08-1.49.1-1.74.55-1.02.45-4.36-1.34-4.62-2.11-.23-.69.79-2.12 1.53-2.38l-.2-.57c1.1-.91 1.47-1.83 1.12-2.76l.28-.47-.6.04c-1.62-1.15-3.74-.58-5.27.48l-.61-.18-1.83-1.2.06-.65c-.28-.3-.21-.63.2-.98-.29-.33-.51-.68-.66-1.03.94-1.41 1.2.71 2.96 1.62-.25.34-.58.46-.68.99.89-.56 2.12-.57 2.99-.89.02-1.42 1.55-1.25 1.42-1.54-.03-.08-.26-.2-.49-.23-.43-.13-.18-.61.21-.36Z" class="cls-157"/><path d="M46.65 28.89h.25c.6-.04 1.16.53 1.2 1.23l-.74.76c-.83.12-1.73.05-2.67-.2-.62.36-1.19.8-1.69 1.31l-.56-.05c-.33.36-.51.48-.58-.06l-.14-.57c.65-.57 1.03-1.19 1.17-1.87.42-.41 1-.64 1.73-.62l2.03.06Z" style="fill:#c0b4ae"/><path d="M52.89 26.94c.31.09.71.62 1.17.41.19-.08.61-.11.88-.08.16.02.15.5.09.7l-.03.27-1.65.22q-.375.27.45.21c.35.53.04.99-.95 1.4l-.3.78c-.12.11-2.93 1.07-3.08 1-.63-.25-.88-.61-.45-1.17-.4-.72-.9-1.38-1.48-1.97 0 .18-.22.24-.63.15-.06.22-.15.22-.25.01l-1.96-.63-.02-.6c.32-.12.59-.45 1.04-.43.26.01.46.06.72.15 0 .47 1.17.52 1.21.03-.08-.1-.25-.26-.22-.37.03-.12.24-.28.5-.27l4.96.16Z" style="fill:#867974"/><path d="M46.43 27.39c.36.12.83.04 1.21.03.13.02.23.09.23.22.01.45-1.58.57-2.04-.13.28-.15.46-.08.6-.11" style="fill:#998c86"/><path d="M52.26 30c-1.29.61-2.57.15-3.47-.71 1.28-.85 2.71-.61 3.47.71" style="fill:#7c706d"/><path d="M63.08 35.63c-.54-.09-.96-.38-1.43-.73-.86 2.53 1.28 3.54 1.29 4.51-.02.25-.14.5-.38.54-.6.08-4.33-2.1-4.23-2.62.04-.19.24-.31.43-.39-.03-.36.19-.6.67-.7-.83-.86-2.95-1.05-1.05.19l.18.51q-.06.54.12.9l2.14 1.42c.24.9-.26 1.15-.75.6.06.41-.62.39-.75.03L58.24 39c-1.35-1.11-2.31-2.52-2.17-4.45l4.98-.15c-.48-1.1-1.55-1.48-2.76-1.17l-1.24-2.25c-.14-.31.02-.58.27-.66.19-.06.73-.2.94 0l3.86 3.56.96 1.76Z" style="fill:#8a7c76"/><path d="M39.1 41.17c.39-.42 1.04-.84 1.36-.16.14-.76 1.56-.18 1.91.15.42.4.46 1.65-.26 1.74.19.34.14.41-.22.25-.45.08-.74 0-.72-.54-.66.02-1.25.46-1.76 1.3l-.99.44c.68.32-.12 1.53-.79 1.26-.24.02-.52-.09-.6-.25-.35-.76.32-1.81 1.02-2.63-1.73-.04-3.21-.29-4.58.37-.08-.97.6-1.55.88-2.24.68-.48 1.34-.96 2.08-1.25.7-.97 1.14-2.08 1.33-3.34l.37-.16c1.03.48.59 2.86-.16 3.53z" style="fill:#a3958f"/><path d="m41.87 31.88.08.34c-1.81 2.34-3.32 5.46-2.51 8.46l-.34.5c-.51-.33-1.72-.75-1.58-1.68.3-.45 1.25-1.06 1.02-1.86-.14-.49-.53-.99-.41-1.52q-.315-.27-.27-1.2c.65-2.08 2.44-3.71 4.03-5.17.25-.12.76-.06 1-.3.25.3.47.47.66.96-.95.27-1.21 1.07-1.68 1.47" style="fill:#bdb0a8"/><path d="M41.38 28.87c.67.06.83.27.51.87v.68l-2.93 3.27c-.22.69-.59 1.1-1.11 1.22.04 1.49-.47 3.5-1.42 4.69-.03.76-1.4 1.63-2.08 1.25-.42-.51-.26-1.05.49-1.62l-1.19-.15c-.93.07-1.84-.03-2.72-.28.05-.73.27-1.46.67-2.2.84-1.16 1.71-2.32 2.9-3.36 2.1-1.83 4.36-3.45 6.88-4.37" style="fill:#8f817a"/><path d="M35.95 35.36c-.04.89-1.87 2.47-2.43 2.56-.29.04-.98-.22-1.05-.58.42-1.03 1.12-2.08 2.07-2.78.37-.27 1.42.37 1.41.8" style="fill:#a19087"/><path d="M38.13 36.11c-.43 1.33-.26 2.94-1.69 3.5l1.42-4.69c.43.27.36.81.27 1.2" style="fill:#9d9089"/><path d="M39.96 44.42c.87 1.54.28 2.98-.65 4.33l.69.49c.08 1.93 1.87 3.25 3.52 3.94 1.09-.81 2.54-.82 3.69-.07 1.18 1.13 2.48 1.74 3.9 1.82.04-.54.24-.95.59-1.23 1.51-.04 2.93-.48 4.26-1.33 1.28-.21 2.48-.54 3.6-.97-.48-.48.41-1.79 1.01-1.76.08-.4 1.1-1.18 1.54-.55-.47.75-1.11 1.34-1.29 2.29.86.07 1.78.02 2.38-.61l1.84-1.92c.53.18 1.07 1.52.76 2-.07.32-.36.42-.74.5-1.61.32-2.63 1.55-3.2 3.25l-2.03-1.97-1.52.87c-3.05.63-6.41 3.83-11.11 2.68-.44-.16-.62-1.15-.8-1.67-.55 0-.73.61-.94.89-1.31.34-2.45-.37-3.22-1.44l-1.68-1.01c-.52-.31-1.06-.63-1.64-.47-.39.1-.96.61-.96 1.1-.13.69-.46.64-.6-.03-.62-.32-.55-.95.21-1.87-.42-1.08-.36-2.25.18-3.53-1.17-.9-2.45-.63-2.31 1.07l-.48.41c-.32.23-.41.75-.36 1.11-.61.3-.77-1.26-.73-1.74.02-.29.66-2.01 1.1-1.8.5-1.17 2.04-.56 2.68-1.58l.79-1.26c.61-.54 1.68-1.15 1.54.06Z" style="fill:#736a67"/><path d="M34.96 47.19c-.15.36-.09.8-.45 1.32-.42.6-.13 1.64.08 2.22.23 1.92.58 3.78.27 5.9-.52-.29-.68-.71-1.02-1.41-.39.35-.59.72-1.17.91-.09-2.71 1.6-5.35.72-7.24.56-.85.73-1.63.46-2.86z" style="fill:#988b85"/><path d="M61.82 56.6c-.09.25-.03.68-.28.87-.22.16-.55.21-.82.09-.23-.11-.66-1.12.08-1.73.41.16.69.47 1.01.77Z" style="fill:#7a6d66"/><path d="m37.95 53.58-.04 3.99-.85-.2c-.35-.78-1.01-1.28-1.72-2.09l1.58-1.19c-.36-.54-.14-.62.44-.55l.6.03Z" style="fill:#8d807a"/><path d="m64.07 63.11-1.23 1.79c-.86.16-1.68.47-2.71.28-.28-1.75 1.25-3.53 3.05-3.24.37.06.72.15.84.35.15.25.1.58.05.83Z" style="fill:#b09e92"/><path d="M37.35 53.54c-.02.28-.27.42-.44.55-.48.1-.88.29-1.48.27l-.48-4.74c-.04-.45 0-1.2.2-1.71.29-.76 1.34-.87 1.95-.67 2.82.94-.59 2.18 1.12 4.53-.65.54-.83 1.16-.87 1.77" class="cls-66"/><path d="m62.94 39.4.02 4.61c0 .84-.03 1.54-.59 2.17.29.37.55.79.26 1.16-.27.34-.95.75-1.13.33s.08-1.12-.15-1.4-1.09.22-1.06.57l.26 2.78c-.14.71-.59 1.18-1.01 1.76-2 .75-4.45 1.16-6.62 1.39-.41.04-.82-.02-1.22-.12-.58 1.21-1.26 1.7-2.06 1.45-1.51-.94-2.75-2.2-3.71-3.78-.97 1.9-3.95 2.42-4.99.24q-.255-3.135-.99-6.15c-.38-.41-1.11-.14-1.54-.06.34-.55.76-.89 1.24-1.49.2-.25.37-.94.79-.69l.71.43c.13.27-.12.44-.13.42-.33-.62.96.48.81 1.11l.55.27c.32 1.42 1.3 2.81 2.73 3.24 1.76-1.26 4 .83 4.87 2.39-.64.73-.01 1.07 1.89 1.01a458 458 0 0 1 6.37-1.67c.82-.61.73-1.85.58-2.79l.39-.46c-.01-.62.53-.9 1.64-.82.15-.45.37-.75.68-.91-.59-.26-.66-.77-.23-1.53.6-.72.85-1.45.74-2.19-.47.4-1.87.4-2-.29-.7-.04-.66-.32 0-.53l.32-.05c.96-.15-1.84-.83-2.55-2.58.36-.09.57-.17.72-.3.02-.22.09-.22.2 0-.16.88.83.85 1.31 1.19.97.69 1.66 1.52 2.87 1.29Z" style="fill:#918581"/><path d="m66.53 53.11-.21-1.49c-.05-.4-.25-.65-.52-.77-.52-.52-.83-1.26-.76-2 1.25-1.3 1.33-3.14 1.48-4.9.64.41.97 1.31.99 2.18l.1 4.37c.02.9-.59 1.99-1.09 2.61Z" class="cls-49"/><path d="m65.55 52.62-.5.3c-.03-.27-.14-.99.23-1.06.37-.02.28.57.27.76" style="fill:#706764"/><path d="M55.61 32.39c-.5.27-1 .46-1.53.49l-.63.24c-2.16-.71-2.95.68.08.11l.32.49-.1.98c-.08.81-1.98-.46-2.26 1.11l-.46 2.56-1.32.4-.86 2.07c.12 1.55-1.49 2.64-2.91 2.77-.52-1.43-1.39-2.33-2.59-2.7l-.23-.54-.96-.48c-.75-.16.22-1.4.69-1.44a22 22 0 0 0 5.76-.98s-.14-1.06-.44-3.19c.07-.97.38-1.49.93-1.55 1.33-1.01 2.96-1.66 4.7-1.36.79.17 1.37.5 1.78 1.02" style="fill:#c3b8b1"/><path d="M54.41 36.19c-.39.59-.39 1.43-1.31 1.96 1.24 1.08 2.38 2 3.99 2.1l2.22-.35.75-.03v.53c-.21.46-.74.63-1.58.49.82.91.95 1.58.4 2.02.74.92-2.02 2.81-2.09 1.25-.94-2.82-4.37-3.16-5.02-4.68-.34-.8-.07-2.19.59-2.77.54-.46 1.44-.35 2.05-.5Z" class="cls-274"/><path d="M47.37 30.89c.5.65 1.55.88 1.76 1.84l-.7.36c-1.18-.39-2.34-.88-3.44-1.45-2.54 1.75-3.32 3.79-3.47 6.92.22-.37.42-.53.88-.37.34-.47.51-.49.51-.07.48.06.45.24-.03.34l-.69 1.44c-.47-.24-1.13.01-1.6.3-.98.34-1.1-1.24-1.09-2 .02-2.01 1.29-5.14 2.96-6.25 1.07-1.85 4.26-1.91 4.92-1.05Z" style="fill:#e1d7d1"/><path d="m42.45 31.94-.75 1.29c-1.33 2.29-2.45 5.4-1.12 6.96-.07.24-.1.49-.12.82-.51.06-.8.52-1.36.16-1.24-2.79.59-7.45 2.77-9.29z" style="fill:#cfc3bc"/><path d="M58.76 36.93h-.2c-.41.02-.99-.21-1.22-.83-.14-.19-.73-.26-.83-.77 1.41-.63 3.1-.17 3.81 1.34z" class="cls-71"/><path d="M61.55 44.4c-.34.32-.87.37-1.6.17-1.11.04-1.27.35-.49.95l-.23.61c.33.97.38 3.25-.83 3.72-1.31.51-2.7.37-4.01 1.06-1.58.83-3.61.79-5.22.15-.2-.17.13-.9.43-1.02-.92-1.05-1.91-1.94-3.26-2.44l-1.26.63c-1.8-.68-2.97-2.28-3.22-4.09q-.69-.885.03-.99c.09-.04.2-.14.22-.25.89 1.36 1.7 2.82 2.97 4 2.27-1.12 3.17 1.05 5.2 1.52.55.12 1.3.37 1.2.92-.31.04-.66-.21-.79-.15-.16.08-.23.41-.21.55.1.78 1.95-.32 4.38-.14-.87-1.83-.78-3.95 1.01-5.11.08.9-.43 1.61.16 2.3.72-.73 1.03-1.87.77-2.66.32.58 1.7-.27 2.09-1.25.35-.21.83-.31 1.45-.31.37-1.25.95-1.88 1.73-1.9 1.59.91-.76 1.74-.51 3.72Z" style="fill:#a59b96"/><path d="m41.17 42.61.53.11c.16.03.2.24.19.42l-.03.99c-.51-.34-.86-.84-1.17-1.44.22-.09.35-.07.48-.09" style="fill:#837671"/><path d="M59.56 51.39c-.16.21-.25.69-.77.71-2.91.14-4.36 2.37-6.91 2-.27.26-.18.82-.07 1.23-4.01.79-4.53-3.91-8.2-1.69-1.56-.28-3.3-1.88-3.92-3.23-.15-.33.05-.93-.14-1.01l-1.02-.4c1.09-1.43 1.73-2.89 1.44-4.59 1.77 1.9.82 5.44 1.73 6.52.62.73 2.66.68 3.28-.11.42-.52.44-1.21.47-2.01l2 2.7c.76 1.03 1.68 1.84 2.88 2.36l1.11-1.85c1.08.49 1.99.18 3.07.02l5.05-.66Z" style="fill:#7f7673"/><path d="M60.07 40.39c.7 0 1.37-.07 2 .29-.63.53-.83 1.28-1.22 2.05-.34.65-1.51.54-1.96.16-.1-.87-.66-1.55-1.32-2.38.86-.26 1.69-.11 2.5-.12" style="fill:#aea29c"/><path d="M61.55 44.4c.04.37 0 .86-.21 1.14-.46.6-1.41.07-2.11.59-.17-.5-.7-.79-1.17-1.3 1.04-.94 2.4-.9 3.48-.43Z" class="cls-274"/><path d="M54.08 32.88c.1.33-.19.58-.22.84-1.01 0-1.96.29-3.1-.01.08-.52.44-1.04.9-1.21.85-.3 1.75 0 2.41.38" style="fill:#d1c4bc"/><path d="M54.41 36.19c-.35.46-.85.71-1.51.75q-2.25 2.49 2.22 4.38l1.18 1.01c.75.7.92 1.3.49 1.8.86.16.64 1.23.33 1.88-.71 1.48-1.74 1.64-1.89-.19-.7 1.15-.37 2.39-.01 3.6 0 .15-.02.29-.09.39-.17.24-4.42.8-4.73.58-.53-.38-.54-1-.11-1.45l-1.2-.44c-1.32-1.21-2.7-1.6-4.13-1.17-1.31-1.03-2.82-2.71-2.86-4.43l.19-1.24c-.54-.17-1.32-.71-1.84-.65-.6-.42-.6-.66.12-.82-.02-.49.04-.8.43-.51.81-.43 1.2-.36 1.18.21.43-.6 1.12-.22.96.48l.47.38q-.69 2.88 1.26 3.72c2.47.12 4.58 1.24 6.32 3.34l1.38.65s.61-1.78 1.84-5.35h-2.07c-1.57 2.52-4.48-.11-3.47-2.28l-.36-.44c.3-1.38 1-2.19 2.11-2.45 0-2.5.9-3.67 2.67-3.49-.01-.45.07-.69.58-.74-.67-.28-.39-.7.22-.84.1-.7.99-.89 1.53-.49 1.26 1.6-.6 2.87-1.2 3.8Z" style="fill:#b0a49f"/><path d="M48.87 40.85c.02 1.23.67 2.54 1.96 2.96.57-.31.87-.78 1.29-1.18h3.12c-1.07 2.11-1.76 4.11-2.28 6.43-3.34-.42-3.68-3.97-7.34-3.96-.89 0-2.06-.42-2.38-1.3-.42-1.14-.21-2.33-.11-3.41 1.49.15 2.61 1.17 2.98 2.9 1.19-.6 2.28-1.31 2.75-2.43Z" style="fill:#b9ada8"/><path d="M41.86 40.68c.07.29-.94.44-.98-.06-.02-.28.85-.5.98.06" class="cls-274"/><path d="M49.13 32.73c-.66 1.5-.69 3.14.4 4.83-2.01 1.23-4.44 1.33-6.66.9l.03-.34c.09-.22-.08-.19-.51.07-.35.48-.68 1.16-1.55 1.25l.74-4.35c.16-.93 1.01-1.63 1.6-2.34l1.54-1.86c1.37.91 2.83 1.57 4.4 1.84Z" style="fill:#e9e4df"/><path d="m42.9 38.12-.51.07c.55-.76.05-1.33-.06-2.16-.1-.71.69-2.13 1.29-2.57 1.32-.94 3-.55 4.47-.31l-1.15 3.09c-.33.89-1.08 1.36-2 1.52z" style="fill:#f8f6f2"/><path d="M47.82 37.29c-.5.16-.77-1.17-.1-1.29.35-.06.68 1.11.1 1.29" style="fill:#a59b98"/></g></svg>